<svg width="74" height="66" viewBox="0 0 74 66" fill="none" xmlns="http://www.w3.org/2000/svg">
<g opacity="0.45">
<path fill-rule="evenodd" clip-rule="evenodd" d="M59.6189 36.5232C62.059 31.1476 66.7816 28.7403 72.0883 26.7646C71.6848 28.642 70.9201 30.1511 69.7251 31.4078C67.1635 34.1011 63.7783 35.1884 60.3876 36.2774L60.3862 36.2779C60.1304 36.3601 59.8745 36.4422 59.6189 36.5251V36.5232ZM31.8962 32.7131C32.7205 35.3807 33.197 38.0675 31.9212 40.7505C31.0124 42.6625 29.3485 43.8016 27.652 44.9215C27.4446 45.0582 27.2362 45.1943 27.0277 45.3305C25.8162 46.1219 24.5978 46.9178 23.5192 47.8666C21.2751 49.8403 20.8582 52.4269 21.7574 55.1657C22.6719 57.9547 24.6644 59.7125 27.5925 60.0942C32.2459 60.7013 35.9714 57.4131 36.0213 52.7025C36.0329 51.6077 36.3479 50.8232 37.2836 50.3356C38.2551 49.8296 39.2395 49.3496 40.2421 48.8608L40.2422 48.8607L40.2424 48.8607C40.6832 48.6457 41.1276 48.4291 41.5759 48.2077C43.2071 55.6746 39.5181 62.7791 32.9933 65.1305C25.3829 67.8713 17.2 63.0894 15.8839 55.0752C15.2325 51.1027 15.8089 47.3789 18.664 44.3047C20.2395 42.6087 22.2764 41.6244 24.3113 40.6411L24.3116 40.641C24.5846 40.5091 24.8575 40.3772 25.1293 40.2436C26.1611 39.7367 27.1832 39.2009 28.1631 38.6014C30.3476 37.2657 31.6484 35.3421 31.8943 32.7131H31.8962ZM67.6078 40.2589C72.9164 37.1943 74.3555 32.6456 72.7492 27.4608H72.7473C72.1536 31.4988 69.4292 33.7134 66.0092 35.1069C63.1791 36.2595 60.2203 37.1326 57.2691 37.9518C55.204 38.5255 53.1233 39.0431 51.0426 39.5607L51.0425 39.5608C48.8102 40.1161 46.578 40.6714 44.3655 41.2959C41.52 42.0996 38.8243 43.3177 36.6705 45.461C34.5494 47.5735 33.9557 50.1331 34.5129 53.0301C34.8972 51.1894 36.1268 50.0194 37.6831 49.2581C39.2259 48.5025 40.8379 47.7971 42.4979 47.3885C45.6574 46.611 48.8324 45.9004 52.0074 45.1898C53.9489 44.7553 55.8903 44.3207 57.8282 43.8709C61.2366 43.0787 64.5529 42.0225 67.6078 40.2589ZM36.7779 64.1686L36.7801 64.1662C36.8045 64.1828 36.8314 64.2022 36.8606 64.2232C36.9368 64.278 37.0278 64.3435 37.1257 64.3961C39.8617 65.8532 42.7552 66.2194 45.7813 65.645C54.3235 64.0241 58.8828 54.1884 54.6463 46.5847C54.1583 45.7077 53.6222 45.4514 52.6539 45.7366C51.9309 45.9509 51.1872 46.0901 50.4429 46.2294C50.0557 46.3019 49.6684 46.3744 49.2839 46.4575C48.9295 46.5345 48.5785 46.6286 48.1934 46.7318L48.1931 46.7319C48 46.7837 47.7984 46.8378 47.5835 46.8931L47.7052 47.0078L47.7059 47.0084C47.9491 47.2375 48.1083 47.3874 48.2675 47.5388C51.7047 50.7981 51.332 56.27 47.497 59.034C45.5584 60.4333 43.4296 60.5721 41.1778 60.1018C40.8973 60.0439 40.4592 60.0844 40.2901 60.2637C39.3953 61.2141 38.5293 62.1922 37.6357 63.2016L37.6345 63.203C37.353 63.5209 37.0688 63.842 36.7801 64.1662L36.7779 64.1648V64.1686ZM36.113 44.6639C36.113 44.6643 36.113 44.6646 36.113 44.665H36.1111C36.1117 44.6646 36.1124 44.6643 36.113 44.6639ZM36.099 44.4479C36.1045 44.5261 36.1096 44.5989 36.113 44.6639C36.5688 44.3951 37.0208 44.1233 37.4714 43.8523C38.6327 43.1539 39.7854 42.4607 40.974 41.8375C41.5927 41.5137 41.7829 41.1764 41.779 40.523C41.7606 37.186 41.7618 33.8491 41.763 30.5122C41.7634 29.6781 41.7637 28.8441 41.7637 28.0101V26.977C41.2689 27.1388 40.784 27.3018 40.3052 27.4628C39.1758 27.8425 38.0804 28.2107 36.97 28.5247C36.309 28.7117 36.0458 28.943 36.0516 29.6792C36.078 33.0986 36.0752 36.5179 36.0724 39.9372C36.0713 41.2343 36.0702 42.5314 36.0708 43.8285C36.0708 44.0452 36.0859 44.2619 36.099 44.4479Z" fill="#F257A0"/>
<path fill-rule="evenodd" clip-rule="evenodd" d="M15.6967 5.58195C15.6978 6.03996 15.6989 6.50635 15.6989 6.98365H15.7008C17.8738 5.87538 19.9527 5.87345 22.1411 6.61358C22.1411 6.17112 22.1419 5.73684 22.1427 5.30885C22.1454 3.89111 22.148 2.54238 22.12 1.19365C22.1161 0.993202 21.8548 0.66554 21.6646 0.623136C19.8643 0.222231 18.0564 0.254998 16.2753 0.736855C16.0466 0.798532 15.7296 1.12041 15.7239 1.32857C15.6901 2.71584 15.6933 4.10535 15.6967 5.58195ZM26.5586 22.2583C26.914 18.9374 24.2184 15.4988 20.8561 14.9611C18.1835 14.5332 15.6166 14.7375 13.9259 17.2682C13.4918 17.9175 13.1562 18.6323 12.8203 19.3476C12.6506 19.7089 12.4809 20.0703 12.2985 20.4234C9.88914 25.0801 6.6152 26.6663 1.47565 25.6718C1.20474 25.6198 0.935756 25.5542 0.65332 25.3596C0.718455 25.3439 0.783428 25.3279 0.84838 25.312L0.848693 25.3119L0.848713 25.3119C1.00782 25.2728 1.16679 25.2338 1.32771 25.1996C3.45462 24.7447 4.96862 23.5304 5.78903 21.5028C6.1733 20.5545 6.53643 19.5908 6.83039 18.6097C8.59993 12.6886 14.1391 8.68537 20.051 9.08435C26.3895 9.51224 31.3658 14.1169 32.2861 20.4041C32.5666 22.32 32.5992 22.3701 34.438 22.3528C37.514 22.3219 39.7927 20.9168 41.0896 18.1317C42.3884 15.3427 41.9484 12.6983 40.0521 10.2909C39.9733 10.1907 39.8945 10.0905 39.8215 9.98831C39.8042 9.96325 39.8042 9.92663 39.8061 9.93434C40.7316 9.02214 41.6513 8.11651 42.5864 7.19582L43.8102 5.99082C45.6374 7.80646 46.8478 10.0731 47.282 12.6886C48.0506 17.3241 46.7306 21.3351 43.3183 24.577C41.3394 26.4582 38.8282 27.3795 36.2037 27.6416C33.0283 27.9574 29.8243 28.0289 26.6278 28.1002H26.6278C26.3119 28.1072 25.9962 28.1143 25.6805 28.1216C24.6091 28.1458 23.5365 28.0997 22.4641 28.0536C21.4884 28.0117 20.5128 27.9698 19.5381 27.9809C14.2064 28.0387 10.6865 33.0057 12.5617 37.909C13.6991 40.8888 16.0239 42.4096 19.0481 42.6293C17.903 44.2194 16.7079 45.879 15.3342 47.7871C15.0542 47.642 14.7467 47.4959 14.4243 47.3427L14.4239 47.3426C13.667 46.9829 12.8278 46.5841 12.0679 46.0678C7.53744 42.9897 5.49891 37.5891 6.7497 32.2251C7.93708 27.1309 12.2351 23.17 17.5053 22.3952C18.3715 22.2678 19.2591 22.2681 20.1428 22.2683H20.1428C20.3823 22.2684 20.6215 22.2685 20.8599 22.266C22.191 22.2524 23.523 22.2552 24.8709 22.2579H24.8709L24.8738 22.2579C25.4317 22.2591 25.9923 22.2602 26.5567 22.2602L26.5586 22.2583ZM45.7813 30.7606C45.6852 30.306 45.5928 29.868 45.5028 29.4417L45.5018 29.4368C45.2974 28.4678 45.1056 27.5586 44.911 26.6494C44.8149 26.1964 44.8956 25.9131 45.3721 25.6625C48.7325 23.8874 50.4175 20.1038 49.5394 16.4128C49.5261 16.3555 49.5235 16.295 49.5195 16.2016V16.2015C49.5171 16.1474 49.5143 16.0823 49.5087 16.0004C49.834 15.9324 50.1595 15.8634 50.4853 15.7944C51.7031 15.5363 52.9256 15.2773 54.1564 15.0675C54.3178 15.0405 54.7059 15.4645 54.7443 15.717C55.7338 22.0409 54.1122 27.0792 47.1916 30.1882C46.9102 30.3147 46.6222 30.428 46.3042 30.5531L46.3042 30.5531L46.3041 30.5531C46.1379 30.6185 45.9635 30.6871 45.7775 30.7625L45.7813 30.7606Z" fill="#E0E0E0"/>
</g>
</svg>
