<svg width="66" height="93" viewBox="0 0 66 93" fill="none" xmlns="http://www.w3.org/2000/svg">
<path d="M5.09235 65.0138C2.63902 65.0138 0.652344 63.0272 0.652344 60.5738C0.652344 58.1205 2.63902 56.1338 5.09235 56.1338C7.54569 56.1338 9.53236 58.1205 9.53236 60.5738C9.53236 63.0272 7.54569 65.0138 5.09235 65.0138Z" fill="#333333"/>
<path d="M32.9849 65.0138C30.5316 65.0138 28.5449 63.0272 28.5449 60.5738C28.5449 58.1205 30.5316 56.1338 32.9849 56.1338C35.4383 56.1338 37.4249 58.1205 37.4249 60.5738C37.4249 63.0272 35.4383 65.0138 32.9849 65.0138Z" fill="#333333"/>
<path d="M60.8795 65.0138C58.4261 65.0138 56.4395 63.0272 56.4395 60.5738C56.4395 58.1205 58.4261 56.1338 60.8795 56.1338C63.3328 56.1338 65.3195 58.1205 65.3195 60.5738C65.3195 63.0272 63.3328 65.0138 60.8795 65.0138Z" fill="#333333"/>
<path d="M5.09235 37.1202C2.63902 37.1202 0.652344 35.1336 0.652344 32.6803C0.652344 30.2269 2.63902 28.2402 5.09235 28.2402C7.54569 28.2402 9.53236 30.2269 9.53236 32.6803C9.53236 35.1336 7.54569 37.1202 5.09235 37.1202Z" fill="#333333"/>
<path d="M32.9849 37.1202C30.5316 37.1202 28.5449 35.1336 28.5449 32.6803C28.5449 30.2269 30.5316 28.2402 32.9849 28.2402C35.4383 28.2402 37.4249 30.2269 37.4249 32.6803C37.4249 35.1336 35.4383 37.1202 32.9849 37.1202Z" fill="#333333"/>
<path d="M60.8795 37.1202C58.4261 37.1202 56.4395 35.1336 56.4395 32.6803C56.4395 30.2269 58.4261 28.2402 60.8795 28.2402C63.3328 28.2402 65.3195 30.2269 65.3195 32.6803C65.3195 35.1336 63.3328 37.1202 60.8795 37.1202Z" fill="#333333"/>
<path d="M5.09235 92.9064C2.63902 92.9064 0.652344 90.9197 0.652344 88.4664C0.652344 86.0131 2.63902 84.0264 5.09235 84.0264C7.54569 84.0264 9.53236 86.0131 9.53236 88.4664C9.53236 90.9197 7.54569 92.9064 5.09235 92.9064Z" fill="#333333"/>
<path d="M32.9849 92.9064C30.5316 92.9064 28.5449 90.9197 28.5449 88.4664C28.5449 86.0131 30.5316 84.0264 32.9849 84.0264C35.4383 84.0264 37.4249 86.0131 37.4249 88.4664C37.4249 90.9197 35.4383 92.9064 32.9849 92.9064Z" fill="#333333"/>
<path d="M60.8795 92.9064C58.4261 92.9064 56.4395 90.9197 56.4395 88.4664C56.4395 86.0131 58.4261 84.0264 60.8795 84.0264C63.3328 84.0264 65.3195 86.0131 65.3195 88.4664C65.3195 90.9197 63.3328 92.9064 60.8795 92.9064Z" fill="#333333"/>
<path d="M5.09235 9.22666C2.63902 9.22666 0.652344 7.23996 0.652344 4.78663C0.652344 2.33329 2.63902 0.34668 5.09235 0.34668C7.54569 0.34668 9.53236 2.33329 9.53236 4.78663C9.53236 7.23996 7.54569 9.22666 5.09235 9.22666Z" fill="#333333"/>
<path d="M32.9849 9.22666C30.5316 9.22666 28.5449 7.23996 28.5449 4.78663C28.5449 2.33329 30.5316 0.34668 32.9849 0.34668C35.4383 0.34668 37.4249 2.33329 37.4249 4.78663C37.4249 7.23996 35.4383 9.22666 32.9849 9.22666Z" fill="#333333"/>
<path d="M60.8795 9.22666C58.4261 9.22666 56.4395 7.23996 56.4395 4.78663C56.4395 2.33329 58.4261 0.34668 60.8795 0.34668C63.3328 0.34668 65.3195 2.33329 65.3195 4.78663C65.3195 7.23996 63.3328 9.22666 60.8795 9.22666Z" fill="#333333"/>
</svg>
