<svg width="646" height="1220" viewBox="0 0 646 1220" fill="none" xmlns="http://www.w3.org/2000/svg">
<path d="M536.879 337.252C536.879 337.252 537.247 337.987 537.43 338.354C623.795 510.165 644.008 704.21 593.108 870.876C585.942 894.213 577.305 917.366 569.036 939.784C562.237 958.16 555.071 977.086 549.007 996.013C526.589 1064.55 514.645 1135.85 513.358 1208.07C513.358 1213.95 508.581 1218.72 502.884 1219.28C502.517 1219.28 502.149 1219.28 501.782 1219.28C495.534 1219.28 490.573 1213.95 490.573 1207.7C492.043 1133.28 504.354 1059.78 527.324 989.03C533.571 969.736 540.738 950.626 547.721 931.883C551.396 921.776 555.254 911.67 558.93 901.379" stroke="#090504" stroke-width="0.499999" stroke-linecap="round" stroke-linejoin="round"/>
<path d="M572.335 861.141C620.111 701.458 600.45 515.865 518.311 350.854" stroke="#090504" stroke-width="0.499999" stroke-linecap="round" stroke-linejoin="round"/>
<path d="M599.166 803.436C595.123 825.119 589.795 846.434 583.363 867.382C576.38 890.352 567.744 913.321 559.659 935.372C553.044 953.196 545.693 973.041 539.262 992.336C516.66 1061.61 504.532 1133.64 503.246 1206.59C503.246 1208.62 501.776 1210.09 499.755 1210.27H499.571C498.101 1210.27 497.182 1209.53 496.815 1209.17" stroke="#090504" stroke-width="0.499999" stroke-linecap="round" stroke-linejoin="round"/>
<path d="M530.269 344.969C557.281 399.544 577.678 456.324 591.092 513.84" stroke="#090504" stroke-width="0.499999" stroke-linecap="round" stroke-linejoin="round"/>
<path d="M490.924 1212.66C473.835 1206.96 458.215 1193.18 445.72 1172.79C437.267 1159.19 431.02 1144.3 426.977 1128.69C419.627 1099.84 420.546 1069.7 421.464 1040.67C421.832 1030.38 422.2 1020.09 422.016 1009.98C421.832 961.101 410.807 926.739 388.389 904.872C386.184 902.667 386.184 898.992 388.389 896.787C390.594 894.582 394.269 894.582 396.474 896.787C421.097 921.042 433.225 957.977 433.409 1009.98C433.409 1020.27 433.041 1030.74 432.857 1041.22C431.938 1069.52 431.02 1098.73 438.002 1126.11C441.678 1140.45 447.558 1154.23 455.275 1167.09C462.442 1178.85 474.202 1193.73 490.556 1200.53" stroke="#090504" stroke-width="0.499999" stroke-linecap="round" stroke-linejoin="round"/>
<path d="M567.917 895.318C576.186 882.823 576.37 865.55 568.468 852.871C568.101 851.033 570.857 851.033 572.511 850.482C576.37 849.012 574.532 843.315 571.96 840.192C550.093 812.812 510.218 795.356 475.304 796.091C476.04 793.885 476.775 791.496 477.51 789.291C456.745 788.74 437.083 799.03 420.178 811.158C403.273 823.47 388.021 837.987 369.829 848.093C366.154 850.115 361.56 851.952 358.069 849.563C355.129 847.542 354.761 843.315 355.129 839.824C356.599 824.205 366.889 810.975 376.077 798.296C398.311 767.241 416.503 733.246 430.101 697.414C444.066 660.663 452.703 618.583 436.716 582.567C435.062 584.956 433.225 587.345 431.571 589.918C429.182 576.503 424.772 563.457 418.341 551.329C416.87 548.573 415.033 545.633 412.093 544.898C409.153 544.163 402.721 545.265 404.008 548.205C399.965 541.222 395.004 534.424 389.675 528.36C387.286 525.603 384.53 522.663 381.038 521.377C374.791 518.988 367.44 522.112 362.847 527.073C358.436 532.035 356.048 538.65 353.843 545.081C347.779 540.12 338.775 546 333.997 552.248C327.198 561.252 322.42 571.726 320.032 582.751C318.929 579.444 313.968 583.119 313.233 586.61C310.844 595.981 309.741 605.72 309.741 615.276C308.271 613.989 306.801 612.703 305.148 611.417C298.9 626.301 305.515 643.206 311.579 658.09C330.506 704.397 345.206 756.032 330.322 803.808C329.403 806.565 328.301 809.505 325.728 810.607C323.155 811.71 317.643 810.239 318.929 807.667C298.716 763.566 274.46 721.486 246.346 681.979C231.646 661.398 213.086 639.899 187.912 637.694C188.279 640.266 187.544 643.023 185.891 645.228C172.477 635.856 157.041 629.609 140.871 627.22C136.828 626.669 132.234 626.301 128.743 628.506C125.252 630.711 121.209 635.672 124.333 638.245C113.124 635.305 101.731 632.549 90.5219 629.609C83.723 627.771 76.5565 626.117 69.5738 627.771C62.5912 629.425 56.3435 635.672 57.2622 642.655L19.0413 659.193C14.2636 661.215 9.30219 663.419 5.6271 667.278C1.952 670.953 -0.253042 676.834 1.76826 681.795C4.34083 687.859 12.6098 692.82 9.85352 698.7C9.1185 700.17 7.83225 701.273 6.72972 702.559C0.665811 709.726 5.25965 722.772 14.4474 724.61C10.5885 734.349 15.7336 745.925 24.0026 752.724C32.2715 759.34 38.703 763.198 48.8095 765.955C48.6258 763.566 52.1171 766.138 52.3008 768.527C52.6684 778.083 59.0998 786.719 67.3687 791.864C75.6377 797.009 85.193 799.214 94.7482 800.5C123.414 804.727 153.182 802.706 181.113 794.804C177.805 799.949 181.848 807.483 187.544 809.872C193.241 812.445 199.856 811.526 205.92 810.975C227.787 808.953 250.205 811.526 270.969 818.325C277.401 820.346 285.118 825.859 282.362 832.106C280.341 836.516 274.644 837.251 269.683 837.251C252.042 837.435 234.402 838.17 216.761 839.457C194.711 840.927 172.477 843.315 151.712 850.482C119.004 861.691 90.7057 884.66 71.2276 913.142C51.7496 941.808 38.703 973.414 39.2543 1007.96C39.2543 1010.72 39.8055 1014.02 42.3781 1014.94C43.6643 1015.49 45.1344 1014.94 46.6045 1014.58C53.9547 1012.37 61.4886 1010.35 68.8388 1008.14C72.8814 1007.04 77.1077 1005.94 81.1503 1007.04C85.193 1008.14 88.5006 1012.55 86.8468 1016.41C122.311 1025.6 161.451 1018.8 191.955 998.405C191.587 1000.79 191.955 1003.18 193.057 1005.39C214.74 1000.98 234.953 989.401 249.654 972.863C263.068 957.795 271.52 939.235 281.811 921.962C292.101 904.689 304.596 887.6 322.788 878.964C324.809 878.045 327.014 877.126 329.036 877.861C331.057 878.596 333.629 879.883 332.159 881.536C295.776 924.535 290.08 990.871 318.378 1039.38C319.48 1041.22 323.339 1042.32 322.788 1040.12C331.241 1062.72 341.531 1084.77 353.843 1105.53C361.009 1098.18 364.684 1087.71 364.133 1077.42C364.133 1079.07 366.522 1079.99 367.992 1079.07C369.462 1078.15 370.013 1076.32 370.564 1074.85C373.872 1062.9 375.893 1050.41 376.261 1037.91C376.261 1040.12 379.384 1041.04 381.222 1039.93C383.06 1038.83 383.978 1036.63 384.713 1034.6C387.653 1026.15 389.307 1017.15 389.675 1008.14C392.431 1009.8 395.739 1006.86 397.392 1004.1C406.764 988.114 403.456 967.718 397.392 950.261C391.512 932.804 383.06 915.531 382.692 896.972C382.692 889.989 395.004 892.194 401.619 894.216C422.383 900.647 442.412 909.835 463.912 912.591C472.732 913.694 481.736 913.694 490.74 913.51C494.231 913.51 497.723 913.51 501.214 913.51C510.953 913.51 520.692 913.51 530.615 913.326C533.555 913.326 536.679 913.326 538.884 911.121C541.089 909.1 540.721 904.689 537.781 904.138C547.52 902.852 562.037 903.587 567.366 895.502L567.917 895.318Z" stroke="#090504" stroke-width="0.499999" stroke-linecap="round" stroke-linejoin="round"/>
<path d="M378.254 561.805C382.297 607.743 385.605 654.233 379.541 699.988C374.947 745.743 361.165 790.579 337.645 830.454C364.657 792.417 378.071 746.295 384.135 700.54C388.728 654.233 386.34 607.56 378.254 561.988V561.805Z" fill="#090504"/>
<path d="M74.697 993.446C87.1923 971.028 104.281 951.55 123.76 935.012C143.421 918.658 165.472 905.427 188.809 895.137C235.115 873.086 285.831 862.98 335.629 850.484C285.096 859.121 234.38 870.146 186.971 890.91C163.634 901.936 141.4 915.717 121.922 932.623C102.26 949.345 85.7222 969.925 74.8807 993.262L74.697 993.446Z" fill="#090504"/>
<path d="M21.5919 691.168C82.7822 690.8 143.605 705.317 197.445 733.615C252.02 760.627 299.062 801.604 335.629 850.483C302.186 799.032 253.858 758.055 199.467 729.389C144.524 702.193 82.7822 686.574 21.5919 690.984V691.168Z" fill="#090504"/>
<path d="M353.459 861.326C405.829 842.583 463.344 842.032 516.082 859.672C465.549 835.968 403.44 836.703 353.459 861.326Z" fill="#090504"/>
<path d="M342.235 853.973C338.193 889.254 338.376 924.718 340.949 960.183C344.073 995.464 349.402 1030.74 358.957 1064.74C353.077 1029.83 347.932 994.913 345.359 959.815C342.235 924.718 341.868 889.437 342.052 853.973H342.235Z" fill="#090504"/>
<path d="M320.582 638.244C319.664 627.587 320.582 616.745 322.971 606.455C323.339 604.985 323.706 603.515 324.809 602.78C325.727 602.045 327.014 601.861 328.116 601.31C331.608 599.656 332.343 595.062 332.71 591.387C334.18 579.627 338.039 567.499 347.043 559.781" stroke="#090504" stroke-width="0.499999" stroke-linecap="round" stroke-linejoin="round"/>
<path d="M351.996 818.877C388.747 766.323 415.391 706.971 430.092 644.678" stroke="#090504" stroke-width="0.499999" stroke-linecap="round" stroke-linejoin="round"/>
<path d="M54.1277 988.478C58.3541 973.227 62.5804 957.975 69.3793 943.826C75.9945 929.493 85.366 916.079 97.8613 906.707" stroke="#090504" stroke-width="0.499999" stroke-linecap="round" stroke-linejoin="round"/>
<path d="M331.072 848.461C258.489 851.034 176.351 869.042 117.733 918.655" stroke="#090504" stroke-width="0.499999" stroke-linecap="round" stroke-linejoin="round"/>
<path d="M107.428 971.576C164.392 915.715 236.975 876.024 314.703 858.016" stroke="#090504" stroke-width="0.499999" stroke-linecap="round" stroke-linejoin="round"/>
<path d="M357.158 866.655C387.845 860.224 419.635 858.203 450.873 860.592" stroke="#090504" stroke-width="0.499999" stroke-linecap="round" stroke-linejoin="round"/>
<path d="M337.311 671.139C352.93 720.385 354.4 773.857 341.905 824.023" stroke="#090504" stroke-width="0.499999" stroke-linecap="round" stroke-linejoin="round"/>
<path d="M245.786 743.717C259.752 752.721 273.166 762.827 285.661 774.037C302.199 788.737 317.267 805.275 329.027 824.018" stroke="#090504" stroke-width="0.499999" stroke-linecap="round" stroke-linejoin="round"/>
<path d="M233.862 799.945C270.98 800.313 307.548 817.586 331.252 845.884" stroke="#090504" stroke-width="0.499999" stroke-linecap="round" stroke-linejoin="round"/>
<path d="M84.2576 645.047C104.103 646.701 123.765 651.111 142.508 658.093" stroke="#090504" stroke-width="0.499999" stroke-linecap="round" stroke-linejoin="round"/>
<path d="M481.368 812.266C505.808 813.001 530.063 821.821 549.174 837.073" stroke="#090504" stroke-width="0.499999" stroke-linecap="round" stroke-linejoin="round"/>
<path d="M251.119 946.04C267.84 908.921 293.933 873.089 331.971 858.205" stroke="#090504" stroke-width="0.499999" stroke-linecap="round" stroke-linejoin="round"/>
<path d="M218.048 917.919C248.368 890.172 296.879 862.792 334.732 854.523" stroke="#090504" stroke-width="0.499999" stroke-linecap="round" stroke-linejoin="round"/>
<path d="M332.527 1029.46C335.835 1045.99 341.347 1062.17 348.514 1077.42" stroke="#090504" stroke-width="0.499999" stroke-linecap="round" stroke-linejoin="round"/>
<path d="M396.854 879.514C434.891 894.214 475.685 901.197 516.479 900.094" stroke="#090504" stroke-width="0.499999" stroke-linecap="round" stroke-linejoin="round"/>
<path d="M391.153 308.036C374.982 319.061 365.059 337.62 360.466 356.73C355.504 376.943 356.239 399.729 367.632 417.186C379.025 434.642 402.729 444.933 421.84 436.296C453.629 421.963 453.813 369.961 486.154 357.098C499.017 351.953 514.452 354.525 526.58 347.726C542.199 338.906 545.874 316.121 536.87 300.685C528.05 285.25 509.675 276.981 491.85 276.062C504.162 274.224 517.208 277.899 526.58 285.985C535.584 293.702 541.28 305.095 551.387 311.343C563.515 318.877 580.053 317.039 591.813 308.954C603.573 300.685 610.556 287.087 613.312 273.122C614.966 263.75 614.966 254.195 616.804 244.824C620.479 226.632 631.136 210.645 638.487 193.556C645.653 176.467 648.777 155.335 637.935 140.084C633.158 133.285 625.991 128.507 618.274 125.383C583.36 111.234 543.302 131.263 516.106 157.356C533.195 138.43 558.37 126.669 571.049 104.435C581.339 86.6108 581.523 63.4576 571.784 45.4496C562.045 27.4417 542.567 14.9464 521.986 13.6601C513.533 13.1089 504.897 14.3952 496.444 13.1089C483.03 11.0876 471.27 3.00238 457.856 1.34858C428.639 -2.51027 403.097 25.604 398.87 54.821C394.644 84.0381 405.669 112.888 416.511 140.267C396.114 99.6574 372.042 57.945 330.33 39.7533C316.548 33.6894 300.194 31.1167 286.964 37.9156C279.43 41.7745 273.733 48.206 267.118 53.5349C255.174 63.0901 240.29 69.154 230.551 80.7305C219.342 94.3284 216.953 113.807 221.547 130.896C226.141 147.985 236.799 162.685 249.294 175.364C271.344 197.783 299.275 214.137 329.595 222.222C312.689 220.935 292.66 217.077 275.938 219.833C259.217 222.773 242.679 230.307 232.388 243.905C225.038 253.644 221.363 265.588 219.342 277.532C217.321 289.476 216.953 301.971 219.526 313.916C224.487 336.885 241.209 356.731 262.892 365.735C284.575 374.739 310.484 372.533 330.33 360.038C351.094 346.808 373.145 324.757 390.969 308.036H391.153Z" stroke="#090504" stroke-width="0.499999" stroke-linecap="round" stroke-linejoin="round"/>
<path d="M335.858 85.5098C359.563 107.009 379.041 131.265 395.027 159.012C384.921 128.692 363.238 101.864 335.858 85.5098Z" fill="#090504"/>
<path d="M353.12 139.721C356.795 145.601 361.022 150.378 365.064 155.707C369.474 160.669 373.517 165.814 378.662 170.408C376.641 163.793 372.782 158.096 368.556 152.767C363.962 147.806 359.184 142.845 353.12 139.721Z" fill="#090504"/>
<path d="M298.931 165.625C304.628 180.693 318.961 192.637 334.947 195.026C321.349 186.573 309.957 177.385 298.931 165.625Z" fill="#090504"/>
<path d="M470.356 194.108C494.06 175.733 520.705 163.238 550.105 156.99C519.97 156.806 489.65 170.955 470.356 194.108Z" fill="#090504"/>
<path d="M482.47 206.79C500.294 199.624 517.751 195.214 536.861 193.009C518.118 188.782 496.986 194.111 482.47 206.79Z" fill="#090504"/>
<path d="M442.066 157.175C446.844 149.457 449.233 140.637 450.886 131.816C451.989 122.996 452.54 113.809 450.519 104.988C448.865 113.809 448.13 122.445 446.476 131.081C445.374 139.718 443.352 148.171 442.25 157.175H442.066Z" fill="#090504"/>
<path d="M482.678 273.305C488.191 270.733 491.315 264.485 491.131 258.421C491.131 255.297 490.212 252.357 488.375 249.784C486.537 247.212 483.597 245.742 482.494 243.169C481.392 240.597 483.597 238.024 484.883 235.451C486.353 232.879 487.823 230.123 488.742 227.183C490.763 221.486 491.315 214.32 487.456 208.991C485.618 206.418 483.046 204.029 479.922 203.111C476.614 202.008 473.123 203.294 471.102 202.559C466.692 200.722 470.918 193.004 470.367 187.124C470.367 180.876 468.897 174.261 464.303 169.484C459.893 164.89 452.542 162.317 446.111 165.441L448.316 166.727C447.214 158.091 439.863 150.741 430.859 150.373C426.633 150.189 422.223 151.292 418.548 153.865C414.873 156.437 413.035 160.296 409.911 161.031C403.48 163.236 396.313 157.172 386.758 158.642C381.797 159.745 378.857 164.89 378.489 168.932C377.57 172.975 378.122 177.201 376.1 179.223C373.895 181.979 370.955 184.368 367.831 186.389C366.361 187.308 364.524 188.226 363.054 188.41C362.319 188.41 361.584 188.41 361.584 188.41C361.951 188.778 361.033 187.675 359.93 186.573C355.152 183.265 349.64 184.735 346.148 188.227C342.841 191.718 341.922 196.312 341.555 200.354C341.187 204.397 341.371 208.256 340.636 211.747C340.085 215.422 337.696 217.627 335.491 221.67C332.918 226.08 335.307 231.777 338.247 234.533C341.003 237.657 344.127 240.045 346.332 242.802C351.294 248.498 345.046 255.665 344.862 264.301C344.678 272.754 347.986 280.839 353.499 286.903C358.827 293.151 366.913 297.193 375.182 297.377C379.224 297.377 382.532 297.745 385.288 300.501C387.861 302.89 390.985 306.381 395.027 307.851C402.929 310.975 412.484 308.586 417.813 302.338C420.202 299.031 423.509 298.847 427.368 299.95C431.227 301.052 435.453 301.42 439.312 300.684C447.214 299.398 454.748 294.804 458.79 287.822C462.833 281.023 463.752 272.386 461.179 264.852C463.568 272.386 462.281 280.839 458.239 287.27C454.196 293.886 446.846 298.112 439.312 299.031C435.453 299.582 431.778 299.031 427.919 297.928C426.082 297.377 423.877 296.826 421.672 297.193C419.099 297.193 417.813 299.215 416.159 300.501C411.014 306.381 402.745 308.035 395.762 305.278C392.271 303.992 389.882 301.236 386.942 298.296C384.002 295.172 378.857 294.253 375.182 294.437C367.648 294.253 360.665 290.394 355.704 284.698C350.742 279.001 347.802 271.651 348.17 264.301C348.17 260.626 349.64 257.318 350.742 253.276C352.212 249.417 351.845 243.904 349.089 240.413C344.311 233.798 335.491 229.204 338.982 223.14C340.452 220.384 343.943 216.709 344.678 212.298C345.597 208.072 345.413 204.03 345.965 200.354C346.332 196.679 347.251 193.004 349.456 190.799C351.477 188.778 355.336 188.043 357.174 189.697C357.357 189.88 357.541 190.064 357.725 190.248C357.725 190.248 359.011 191.718 359.746 191.902C361.584 192.637 362.87 192.269 364.156 192.085C366.545 191.534 368.383 190.432 370.22 189.329C373.712 187.124 376.835 184.552 379.592 181.06C382.899 176.834 381.797 172.24 382.716 168.932C383.267 165.257 384.921 162.501 387.861 161.766C394.292 160.112 401.826 166.176 411.198 163.787C415.975 162.133 417.813 157.723 420.569 156.069C423.325 154.048 427.001 152.946 430.492 153.129C437.658 153.129 443.906 159.377 444.825 166.543C444.825 167.462 445.744 168.013 446.662 168.013H447.214C451.991 165.625 458.055 167.278 461.914 171.137C465.773 174.996 467.427 180.876 467.427 186.573C467.427 189.513 467.059 192.269 466.508 195.209C465.957 197.782 465.773 202.927 470.183 204.397C474.042 205.316 476.614 204.03 479.187 204.948C481.759 205.683 483.965 207.521 485.435 209.91C488.742 214.503 488.742 220.751 486.905 226.264C485.986 229.02 484.7 231.776 483.413 234.349C482.311 236.738 479.738 239.862 481.208 243.353C482.678 246.477 485.802 247.763 487.456 249.968C489.293 252.173 490.212 255.113 490.396 258.053C490.763 263.934 488.007 270.181 482.494 272.938L482.678 273.305Z" fill="#090504"/>
<path d="M421.285 273.117C425.879 274.035 430.289 270.544 432.494 266.502C434.332 262.275 434.516 256.763 431.024 253.455C430.84 257.865 430.105 261.173 428.452 264.297C426.982 267.604 424.777 270.177 421.285 272.933V273.117Z" fill="#090504"/>
<path d="M370.566 243.166C369.28 241.145 369.464 239.123 369.831 237.47C370.199 235.816 370.934 233.978 372.22 232.876C374.425 229.936 378.467 228.466 382.143 225.342C377.549 224.791 372.587 225.893 368.912 229.752C367.258 231.957 366.156 234.53 366.523 237.286C366.523 239.859 368.361 242.615 370.75 243.166H370.566Z" fill="#090504"/>
<path d="M374.795 188.223C373.876 195.389 382.145 203.291 390.414 200.167C394.273 199.064 397.581 195.757 399.051 191.898C400.153 187.304 400.153 186.018 402.726 186.385C407.871 187.12 415.772 193.184 423.858 190.06C432.494 188.223 434.332 174.625 426.43 172.236C432.862 176.463 428.819 186.385 422.939 186.753C419.999 187.304 416.691 186.937 413.751 185.834C410.811 184.915 407.687 182.343 403.277 181.975C401.072 181.608 397.764 182.71 396.662 185.283C395.376 187.672 395.743 189.693 395.192 190.795C394.457 193.552 392.068 195.757 389.312 197.043C383.983 199.799 375.898 195.573 374.795 188.407V188.223Z" fill="#090504"/>
<path d="M449.781 199.064C455.845 206.047 461.174 214.132 459.336 222.401C458.785 226.444 456.396 230.119 452.905 231.773C449.413 233.427 444.452 233.794 440.777 230.854C443.166 235.264 449.23 236.734 454.191 235.081C459.52 233.427 462.827 228.281 463.93 223.136C464.665 217.991 463.562 212.478 460.622 208.436C457.866 204.209 454.007 201.27 449.781 199.064Z" fill="#090504"/>
<path d="M377.027 258.597C376.475 264.11 378.497 269.806 382.723 273.849C386.949 277.891 393.932 279.178 399.445 276.605C405.141 274.584 409.368 267.968 408.449 261.537C407.53 255.289 403.855 250.512 401.282 245.918C399.812 243.713 398.526 241.324 397.791 239.303C397.791 238.568 397.056 239.303 397.791 238.568C398.526 238.2 399.996 238.016 401.65 237.465C404.59 236.179 407.346 233.974 408.449 230.483C409.551 226.624 407.162 223.5 406.244 221.662C404.406 217.62 407.346 212.107 411.756 210.086C416.35 207.881 422.23 208.983 426.824 211.74C422.598 208.432 416.718 206.227 410.838 208.065C405.325 209.902 400.731 216.333 402.752 222.949C403.855 225.889 404.957 227.91 404.406 229.564C403.855 231.401 402.017 233.055 399.996 233.79C399.077 234.158 397.791 234.158 395.953 234.893C395.218 235.26 393.932 235.811 393.197 237.282C392.462 238.752 393.197 239.67 393.197 240.773C394.116 243.897 395.586 246.285 397.056 248.674C399.996 253.268 403.304 257.678 404.039 262.272C404.957 267.05 402.017 271.276 397.791 273.665C388.787 278.994 377.027 269.806 376.843 258.781L377.027 258.597Z" fill="#090504"/>
<path d="M489.272 75.7715C495.336 106.642 489.824 139.718 474.204 167.097" stroke="#090504" stroke-width="0.499999" stroke-linecap="round" stroke-linejoin="round"/>
<path d="M255.728 63.0918C268.407 70.0745 278.881 80.7321 285.496 93.4112" stroke="#090504" stroke-width="0.499999" stroke-linecap="round" stroke-linejoin="round"/>
<path d="M266.023 247.398C276.497 239.68 289.727 237.291 302.59 236.74C315.269 236.189 327.948 237.107 340.443 239.68" stroke="#090504" stroke-width="0.499999" stroke-linecap="round" stroke-linejoin="round"/>
<path d="M329.424 143.578C345.043 151.48 358.825 163.056 369.299 177.022" stroke="#090504" stroke-width="0.499999" stroke-linecap="round" stroke-linejoin="round"/>
<path d="M331.995 165.076C340.632 171.14 348.533 178.307 355.516 186.392" stroke="#090504" stroke-width="0.499999" stroke-linecap="round" stroke-linejoin="round"/>
<path d="M420.192 57.0293C418.722 89.3701 426.256 122.078 441.508 150.56" stroke="#090504" stroke-width="0.499999" stroke-linecap="round" stroke-linejoin="round"/>
<path d="M334.94 64.9336C370.772 88.0867 399.254 122.633 415.057 162.324" stroke="#090504" stroke-width="0.499999" stroke-linecap="round" stroke-linejoin="round"/>
<path d="M490.019 220.39C502.33 215.429 515.561 212.489 528.791 211.57" stroke="#090504" stroke-width="0.499999" stroke-linecap="round" stroke-linejoin="round"/>
<path d="M619.377 195.396C610.557 209.546 601.553 224.246 600.45 240.784C599.715 251.993 602.655 263.937 598.061 274.227" stroke="#090504" stroke-width="0.499999" stroke-linecap="round" stroke-linejoin="round"/>
<path d="M462.818 287.459C483.582 295.544 506.184 304.916 516.658 324.578" stroke="#090504" stroke-width="0.499999" stroke-linecap="round" stroke-linejoin="round"/>
<path d="M460.053 160.485C468.69 146.336 473.1 129.431 472.181 112.893" stroke="#090504" stroke-width="0.499999" stroke-linecap="round" stroke-linejoin="round"/>
<path d="M474.959 177.02C492.6 166.178 505.647 148.17 510.057 127.957" stroke="#090504" stroke-width="0.499999" stroke-linecap="round" stroke-linejoin="round"/>
<path d="M360.109 206.418C355.883 209.358 353.678 214.503 352.943 219.648C352.392 224.793 353.127 229.939 354.046 234.9" stroke="#090504" stroke-width="0.499999" stroke-linecap="round" stroke-linejoin="round"/>
</svg>
