<svg width="204" height="185" viewBox="0 0 204 185" fill="none" xmlns="http://www.w3.org/2000/svg">
<g filter="url(#filter0_d_285_3883)">
<g filter="url(#filter1_d_285_3883)">
<path fill-rule="evenodd" clip-rule="evenodd" d="M163.719 100.443C170.494 85.5171 183.606 78.833 198.34 73.3477C197.22 78.5601 195.097 82.7503 191.779 86.2396C184.667 93.7176 175.267 96.7365 165.853 99.7602L165.853 99.7602C165.141 99.9888 164.43 100.217 163.719 100.448V100.443ZM86.7447 89.8633C89.0333 97.2698 90.3563 104.73 86.8141 112.179C84.2908 117.488 79.671 120.651 74.9605 123.76C74.3846 124.14 73.8061 124.518 73.227 124.896C69.8633 127.093 66.4804 129.303 63.4858 131.937C57.2549 137.417 56.0973 144.599 58.5939 152.204C61.1332 159.947 66.6652 164.828 74.7952 165.888C87.7156 167.573 98.0595 158.444 98.1982 145.364C98.2302 142.325 99.105 140.147 101.703 138.793C104.4 137.388 107.134 136.055 109.917 134.698L109.918 134.697L109.92 134.696L109.921 134.696C111.144 134.1 112.377 133.499 113.621 132.884C118.15 153.616 107.907 173.342 89.7908 179.871C68.6604 187.481 45.9402 174.204 42.286 151.952C40.4775 140.923 42.0779 130.583 50.0052 122.048C54.3794 117.339 60.035 114.606 65.685 111.876C66.4432 111.509 67.2013 111.143 67.9562 110.772C70.8209 109.364 73.6589 107.877 76.3796 106.212C82.445 102.504 86.0566 97.1628 86.7394 89.8633H86.7447ZM185.901 110.816C200.641 102.307 204.637 89.6769 200.177 75.2813H200.172C198.523 86.4928 190.959 92.6417 181.463 96.5109C173.605 99.7111 165.39 102.135 157.196 104.41C151.462 106.003 145.685 107.44 139.908 108.877C133.71 110.419 127.512 111.961 121.369 113.695C113.468 115.926 105.983 119.309 100.003 125.259C94.1139 131.125 92.4655 138.232 94.0126 146.275C95.0795 141.164 98.4937 137.916 102.815 135.802C107.098 133.704 111.574 131.746 116.183 130.611C124.956 128.452 133.771 126.479 142.587 124.506C147.977 123.3 153.368 122.093 158.748 120.844C168.212 118.645 177.419 115.712 185.901 110.816ZM100.301 177.2L100.307 177.193C100.374 177.239 100.449 177.293 100.53 177.351C100.742 177.504 100.995 177.685 101.266 177.831C108.863 181.877 116.897 182.894 125.299 181.299C149.017 176.798 161.676 149.489 149.913 128.378C148.558 125.943 147.069 125.231 144.381 126.023C142.373 126.618 140.308 127.004 138.242 127.391L138.242 127.391C137.167 127.592 136.092 127.794 135.024 128.024C134.04 128.238 133.065 128.499 131.997 128.786L131.996 128.786L131.996 128.786C131.46 128.93 130.9 129.08 130.303 129.234L130.641 129.553L130.644 129.555C131.318 130.19 131.76 130.606 132.202 131.027C141.745 140.076 140.711 155.269 130.063 162.943C124.68 166.828 118.769 167.214 112.517 165.908C111.738 165.747 110.522 165.86 110.052 166.358C107.568 168.996 105.164 171.712 102.683 174.515L102.681 174.516C101.899 175.4 101.109 176.292 100.307 177.193L100.301 177.189V177.2ZM98.452 123.047C98.4521 123.048 98.4521 123.049 98.4522 123.05H98.4469C98.4486 123.049 98.4503 123.048 98.452 123.047ZM98.4132 122.447C98.4284 122.664 98.4425 122.866 98.452 123.047C99.7177 122.3 100.972 121.546 102.224 120.793C105.448 118.854 108.649 116.929 111.949 115.199C113.667 114.3 114.195 113.363 114.184 111.549C114.133 102.284 114.136 93.019 114.14 83.7539C114.14 81.4382 114.141 79.1226 114.141 76.8069V73.9385C112.768 74.3878 111.421 74.8404 110.092 75.2873C106.956 76.3415 103.915 77.3638 100.831 78.2358C98.9963 78.7549 98.2655 79.3971 98.2815 81.4414C98.355 90.9352 98.3472 100.429 98.3393 109.923C98.3363 113.524 98.3334 117.126 98.3348 120.727C98.3348 121.329 98.377 121.931 98.4132 122.447Z" fill="#BDBDBD"/>
</g>
<g filter="url(#filter2_d_285_3883)">
<path fill-rule="evenodd" clip-rule="evenodd" d="M41.7673 14.5358C41.7703 15.8075 41.7733 17.1025 41.7733 18.4277H41.7786C47.8121 15.3506 53.5841 15.3452 59.6603 17.4002C59.6603 16.1717 59.6625 14.9659 59.6648 13.7776C59.6723 9.8412 59.6794 6.09642 59.6016 2.35165C59.5909 1.79509 58.8654 0.885324 58.3373 0.76759C53.3387 -0.345535 48.3188 -0.254558 43.3736 1.08333C42.7388 1.25458 41.8586 2.14829 41.8426 2.72626C41.749 6.57801 41.7579 10.436 41.7673 14.5358ZM71.9267 60.839C72.9136 51.6183 65.4292 42.0711 56.0936 40.578C48.6731 39.39 41.546 39.9572 36.8516 46.9838C35.6464 48.7866 34.7145 50.7714 33.7819 52.7575C33.3109 53.7605 32.8397 54.7639 32.3331 55.7443C25.6435 68.6737 16.5533 73.078 2.28322 70.3167C1.53104 70.1722 0.78419 69.9902 0 69.4497C0.179568 69.4066 0.358695 69.3626 0.537762 69.3186L0.542298 69.3175L0.542442 69.3174C0.98422 69.2089 1.42565 69.1005 1.87245 69.0055C7.77788 67.7425 11.9816 64.3711 14.2594 58.7412C15.3264 56.1083 16.3346 53.4325 17.1508 50.7085C22.064 34.2685 37.4437 23.1534 53.8584 24.2611C71.4573 25.4492 85.274 38.2341 87.8292 55.6908C88.6081 61.0103 88.6988 61.1494 93.804 61.1013C102.345 61.0156 108.672 57.1143 112.272 49.3813C115.879 41.6376 114.657 34.2953 109.392 27.6112C109.173 27.3329 108.954 27.0546 108.752 26.771C108.704 26.7014 108.704 26.5998 108.709 26.6212C111.278 24.0883 113.832 21.5737 116.429 19.0173C117.552 17.9116 118.683 16.7981 119.826 15.6719C124.9 20.713 128.26 27.0065 129.466 34.2685C131.6 47.139 127.935 58.2756 118.461 67.277C112.966 72.5001 105.994 75.0581 98.7065 75.7859C89.89 76.6626 80.9939 76.8611 72.1188 77.0591H72.1187L72.1059 77.0594C71.2333 77.0789 70.3609 77.0984 69.4888 77.1185C66.5138 77.1857 63.536 77.0578 60.5582 76.9299H60.5582C57.8492 76.8136 55.1404 76.6972 52.434 76.7278C37.6304 76.8884 27.8574 90.6793 33.064 104.294C36.2221 112.567 42.677 116.79 51.0737 117.4C47.8942 121.815 44.5761 126.422 40.7619 131.72C39.9842 131.318 39.1304 130.912 38.2352 130.486L38.2346 130.486L38.2344 130.486C36.1328 129.488 33.8027 128.38 31.693 126.947C19.114 118.4 13.4539 103.405 16.9268 88.512C20.2236 74.3678 32.1571 63.3703 46.79 61.219C49.1949 60.8653 51.6593 60.8661 54.113 60.8669H54.1131H54.1132C54.7781 60.8671 55.4423 60.8673 56.1042 60.8604C59.7999 60.8226 63.4982 60.8302 67.2407 60.838L67.2456 60.838C68.7956 60.8412 70.3532 60.8444 71.9214 60.8444L71.9267 60.839ZM124.528 80.8034L124.523 80.782L124.522 80.7733C123.954 78.0809 123.421 75.555 122.88 73.0291C122.613 71.7715 122.837 70.9848 124.16 70.2891C133.491 65.3603 138.169 54.8552 135.731 44.607C135.694 44.4477 135.687 44.2798 135.676 44.0204V44.0203C135.669 43.8701 135.661 43.6893 135.646 43.4617C136.549 43.2731 137.453 43.0815 138.358 42.8898C141.739 42.1734 145.133 41.4542 148.55 40.8716C148.998 40.7967 150.076 41.974 150.183 42.675C152.93 60.2335 148.428 74.2225 129.212 82.8546C128.431 83.2059 127.632 83.5203 126.749 83.8675L126.748 83.8678L126.747 83.8684C126.286 84.0497 125.802 84.2401 125.286 84.4493L125.297 84.444C125.031 83.1893 124.776 81.9804 124.528 80.8034Z" fill="#828282"/>
</g>
</g>
<defs>
<filter id="filter0_d_285_3883" x="0" y="0" width="203.902" height="184.029" filterUnits="userSpaceOnUse" color-interpolation-filters="sRGB">
<feFlood flood-opacity="0" result="BackgroundImageFix"/>
<feColorMatrix in="SourceAlpha" type="matrix" values="0 0 0 0 0 0 0 0 0 0 0 0 0 0 0 0 0 0 127 0" result="hardAlpha"/>
<feOffset dx="1" dy="1"/>
<feGaussianBlur stdDeviation="0.5"/>
<feComposite in2="hardAlpha" operator="out"/>
<feColorMatrix type="matrix" values="0 0 0 0 0.229931 0 0 0 0 0.285572 0 0 0 0 0.358333 0 0 0 1 0"/>
<feBlend mode="normal" in2="BackgroundImageFix" result="effect1_dropShadow_285_3883"/>
<feBlend mode="normal" in="SourceGraphic" in2="effect1_dropShadow_285_3883" result="shape"/>
</filter>
<filter id="filter1_d_285_3883" x="41.6133" y="73.3477" width="161.925" height="110.318" filterUnits="userSpaceOnUse" color-interpolation-filters="sRGB">
<feFlood flood-opacity="0" result="BackgroundImageFix"/>
<feColorMatrix in="SourceAlpha" type="matrix" values="0 0 0 0 0 0 0 0 0 0 0 0 0 0 0 0 0 0 127 0" result="hardAlpha"/>
<feOffset dx="0.818128" dy="0.818128"/>
<feGaussianBlur stdDeviation="0.409064"/>
<feComposite in2="hardAlpha" operator="out"/>
<feColorMatrix type="matrix" values="0 0 0 0 0.954167 0 0 0 0 0.954167 0 0 0 0 0.954167 0 0 0 0.53 0"/>
<feBlend mode="normal" in2="BackgroundImageFix" result="effect1_dropShadow_285_3883"/>
<feBlend mode="normal" in="SourceGraphic" in2="effect1_dropShadow_285_3883" result="shape"/>
</filter>
<filter id="filter2_d_285_3883" x="0" y="0" width="152.554" height="133.357" filterUnits="userSpaceOnUse" color-interpolation-filters="sRGB">
<feFlood flood-opacity="0" result="BackgroundImageFix"/>
<feColorMatrix in="SourceAlpha" type="matrix" values="0 0 0 0 0 0 0 0 0 0 0 0 0 0 0 0 0 0 127 0" result="hardAlpha"/>
<feOffset dx="0.818128" dy="0.818128"/>
<feGaussianBlur stdDeviation="0.409064"/>
<feComposite in2="hardAlpha" operator="out"/>
<feColorMatrix type="matrix" values="0 0 0 0 0.283333 0 0 0 0 0.257361 0 0 0 0 0.257361 0 0 0 0.25 0"/>
<feBlend mode="normal" in2="BackgroundImageFix" result="effect1_dropShadow_285_3883"/>
<feBlend mode="normal" in="SourceGraphic" in2="effect1_dropShadow_285_3883" result="shape"/>
</filter>
</defs>
</svg>
