<svg width="105" height="45" viewBox="0 0 105 45" fill="none" xmlns="http://www.w3.org/2000/svg">
<g clip-path="url(#clip0_1_987)">
<path d="M29.0054 2.00513H76.9953V42.9951H29.0054V2.00513Z" stroke="#FDFDFD" stroke-width="0.0898057" stroke-miterlimit="10"/>
<path d="M44.3307 5.79261C46.4437 3.99778 49.1687 2.96237 51.9364 2.80367C52.578 2.8029 53.2196 2.80267 53.8614 2.80208C56.9224 2.96017 59.9211 4.21814 62.1295 6.34C63.7605 7.96865 64.994 10.0242 65.4493 12.2925C66.0057 14.8629 65.646 17.6171 64.4415 19.9589C64.2093 20.397 63.9858 20.854 63.6211 21.2011C63.5875 20.9242 63.515 20.6543 63.4493 20.3841C62.0387 20.4477 60.6498 20.7222 59.246 20.8571C58.0875 21.0141 56.9306 21.1818 55.7706 21.3279C55.6837 22.953 55.78 24.5808 55.7722 26.2068C55.0798 25.9778 54.3982 25.6683 53.6579 25.6375C52.8561 25.5997 52.0281 25.5806 51.2584 25.8423C50.8809 25.9674 50.5094 26.1093 50.1318 26.2337C50.1274 25.7563 50.174 25.2794 50.1529 24.8025C50.1434 24.4653 49.9502 24.1592 49.9572 23.8224C50.0433 23.3128 50.2633 22.8243 50.2454 22.2986C50.2426 20.603 48.8129 19.089 47.1464 18.8502C46.2442 18.7324 45.2721 18.8215 44.4877 19.3143C44.0931 19.5414 43.7426 19.9086 43.2588 19.9225C42.6243 19.9617 41.989 19.9053 41.3547 19.8901C40.5429 18.3083 40.1665 16.5317 40.1055 14.7652C40.1542 12.3902 40.7979 9.96436 42.2519 8.04799C42.8162 7.18658 43.6204 6.52764 44.3307 5.79261Z" stroke="#929AAB" stroke-width="0.0898057" stroke-miterlimit="10"/>
<path d="M44.3307 5.79261C46.4437 3.99778 49.1687 2.96237 51.9364 2.80367C52.578 2.8029 53.2196 2.80267 53.8614 2.80208C56.9224 2.96017 59.9211 4.21814 62.1295 6.34C63.7605 7.96865 64.994 10.0242 65.4493 12.2925C66.0057 14.863 65.646 17.6171 64.4415 19.9589C64.2093 20.397 63.9858 20.854 63.6211 21.2011C63.5875 20.9242 63.515 20.6543 63.4493 20.3841C62.0387 20.4477 60.6498 20.7222 59.246 20.8571C58.0875 21.0141 56.9306 21.1818 55.7706 21.3279C55.6837 22.953 55.78 24.5808 55.7722 26.2068C55.0798 25.9778 54.3982 25.6683 53.6579 25.6375C52.8561 25.5997 52.0281 25.5806 51.2584 25.8423C50.8809 25.9674 50.5094 26.1093 50.1318 26.2337C50.1274 25.7563 50.174 25.2794 50.1529 24.8025C50.1434 24.4653 49.9502 24.1592 49.9572 23.8224C50.0433 23.3128 50.2633 22.8243 50.2454 22.2986C50.2426 20.603 48.8129 19.089 47.1464 18.8502C46.2442 18.7324 45.2721 18.8215 44.4877 19.3143C44.0931 19.5414 43.7426 19.9086 43.2588 19.9225C42.6243 19.9617 41.989 19.9053 41.3547 19.8901C40.5429 18.3083 40.1665 16.5317 40.1055 14.7652C40.1542 12.3902 40.7979 9.96436 42.2519 8.04799C42.8162 7.18658 43.6204 6.52764 44.3307 5.79261Z" fill="#929AAB"/>
<path d="M48.5847 8.32245C49.1923 8.29028 49.8017 8.28958 50.4088 8.33438C50.3906 9.10596 50.3012 9.87406 50.2945 10.6461C50.8279 10.4066 51.3629 10.1451 51.9479 10.0579C52.982 9.90277 54.0833 10.0015 55.0153 10.4998C55.8712 10.9586 56.5511 11.7235 56.9357 12.6089C57.4495 13.8144 57.2887 15.263 56.5666 16.3514C55.5572 17.8241 53.6376 18.6331 51.875 18.2358C50.3497 17.8938 48.9727 16.7324 48.5644 15.2051C48.4343 14.7692 48.397 14.312 48.4111 13.8591C48.4605 12.0134 48.4855 10.1662 48.5847 8.32245Z" stroke="#FDFDFD" stroke-width="0.0898057" stroke-miterlimit="10"/>
<path d="M48.5847 8.32245C49.1923 8.29028 49.8017 8.28958 50.4088 8.33438C50.3906 9.10596 50.3012 9.87406 50.2945 10.6461C50.8279 10.4066 51.3629 10.1451 51.9479 10.0579C52.982 9.90277 54.0833 10.0015 55.0153 10.4998C55.8712 10.9586 56.5511 11.7235 56.9357 12.6089C57.4495 13.8144 57.2887 15.263 56.5666 16.3514C55.5572 17.8241 53.6376 18.6331 51.875 18.2358C50.3497 17.8938 48.9727 16.7324 48.5644 15.2051C48.4343 14.7692 48.397 14.312 48.4111 13.8591C48.4605 12.0134 48.4855 10.1662 48.5847 8.32245Z" fill="#FDFDFD"/>
<path d="M42.5528 10.9595C43.4576 10.1359 44.853 9.97536 45.9589 10.4659C46.7728 10.815 47.3716 11.5295 47.7295 12.3198C48.002 12.9272 48.0788 13.5987 48.0766 14.2579C48.0838 15.4199 48.1706 16.582 48.1183 17.7439C47.5715 17.7557 47.0247 17.7754 46.4778 17.7636C46.456 17.5706 46.435 17.3779 46.4149 17.1851C45.5706 17.6361 44.5591 17.7684 43.6371 17.4894C42.6993 17.1845 41.9422 16.421 41.585 15.5138C40.9695 13.989 41.3223 12.0831 42.5528 10.9595Z" stroke="#FDFDFD" stroke-width="0.0898057" stroke-miterlimit="10"/>
<path d="M42.5528 10.9595C43.4576 10.1359 44.853 9.97536 45.9589 10.4659C46.7728 10.815 47.3716 11.5295 47.7295 12.3198C48.002 12.9272 48.0788 13.5987 48.0766 14.2579C48.0838 15.4199 48.1706 16.582 48.1183 17.7439C47.5715 17.7557 47.0247 17.7754 46.4778 17.7636C46.456 17.5706 46.435 17.3779 46.4149 17.1851C45.5706 17.6361 44.5591 17.7684 43.6371 17.4894C42.6993 17.1845 41.9422 16.421 41.585 15.5138C40.9695 13.989 41.3223 12.0831 42.5528 10.9595Z" fill="#FDFDFD"/>
<path d="M58.7242 11.1583C59.7849 10.0925 61.607 9.9474 62.8705 10.7307C63.7753 11.3151 64.2391 12.3571 64.4655 13.3706C64.0677 13.3929 63.6692 13.3914 63.2716 13.3723C62.9847 12.8202 62.6607 12.191 62.0337 11.9674C61.4105 11.7911 60.6716 11.8669 60.1688 12.301C59.7123 12.686 59.3836 13.2512 59.3909 13.8583C59.4013 14.5156 59.6119 15.2215 60.1356 15.6557C60.7026 16.141 61.5989 16.2731 62.247 15.8729C62.7617 15.5607 63.0304 14.9999 63.2786 14.4779C63.6844 14.4638 64.0906 14.4644 64.4967 14.4801C64.348 15.3335 64.0104 16.1838 63.3895 16.8076C62.7563 17.4571 61.8455 17.8647 60.9277 17.8031C60.111 17.7744 59.3236 17.4052 58.7503 16.832C57.2413 15.3566 57.1937 12.6351 58.7242 11.1583Z" stroke="#FDFDFD" stroke-width="0.0898057" stroke-miterlimit="10"/>
<path d="M58.7242 11.1583C59.7849 10.0925 61.607 9.9474 62.8705 10.7307C63.7753 11.3151 64.2391 12.3571 64.4655 13.3706C64.0677 13.3929 63.6692 13.3914 63.2716 13.3723C62.9847 12.8202 62.6607 12.191 62.0337 11.9674C61.4105 11.7911 60.6716 11.8669 60.1688 12.301C59.7123 12.686 59.3836 13.2512 59.3909 13.8583C59.4013 14.5156 59.6119 15.2215 60.1356 15.6557C60.7026 16.141 61.5989 16.2731 62.247 15.8729C62.7617 15.5607 63.0304 14.9999 63.2786 14.4779C63.6844 14.4638 64.0906 14.4644 64.4967 14.4801C64.348 15.3335 64.0104 16.1838 63.3895 16.8076C62.7563 17.4571 61.8455 17.8647 60.9277 17.8031C60.111 17.7744 59.3236 17.4052 58.7503 16.832C57.2413 15.3566 57.1937 12.6351 58.7242 11.1583Z" fill="#FDFDFD"/>
<path d="M44.0961 11.8904C44.7211 11.7417 45.4089 12.038 45.7565 12.5686C46.2677 13.3635 46.35 14.4823 45.7693 15.2637C45.4412 15.6463 45.0038 16.0379 44.4643 16.0183C43.8431 15.9808 43.2124 15.6564 42.9097 15.1003C42.4391 14.2761 42.4909 13.1504 43.1138 12.4175C43.3701 12.1388 43.7279 11.9674 44.0961 11.8904Z" stroke="#929AAB" stroke-width="0.0898057" stroke-miterlimit="10"/>
<path d="M44.0961 11.8904C44.7211 11.7417 45.4089 12.038 45.7565 12.5686C46.2677 13.3635 46.35 14.4823 45.7693 15.2637C45.4412 15.6463 45.0038 16.0379 44.4643 16.0183C43.8431 15.9808 43.2124 15.6564 42.9097 15.1003C42.4391 14.2761 42.4909 13.1504 43.1138 12.4175C43.3701 12.1388 43.7279 11.9674 44.0961 11.8904Z" fill="#929AAB"/>
<path d="M52.0751 11.8919C52.6732 11.7664 53.324 11.7725 53.8926 12.0156C54.4778 12.2697 54.9394 12.7749 55.1688 13.3642C55.4249 14.0784 55.3113 14.9302 54.8306 15.5269C54.269 16.2153 53.343 16.6257 52.4509 16.4756C51.3611 16.3287 50.3412 15.402 50.3449 14.2633C50.25 13.1936 51.0405 12.1531 52.0751 11.8919Z" stroke="#929AAB" stroke-width="0.0898057" stroke-miterlimit="10"/>
<path d="M52.0751 11.8919C52.6732 11.7664 53.324 11.7725 53.8926 12.0156C54.4778 12.2697 54.9394 12.7749 55.1688 13.3642C55.4249 14.0784 55.3113 14.9302 54.8306 15.5269C54.269 16.2153 53.343 16.6257 52.4509 16.4756C51.3611 16.3287 50.3412 15.402 50.3449 14.2633C50.25 13.1936 51.0405 12.1531 52.0751 11.8919Z" fill="#929AAB"/>
<path d="M44.4876 19.3143C45.272 18.8215 46.2441 18.7324 47.1463 18.8502C48.8128 19.089 50.2425 20.603 50.2453 22.2986C50.2632 22.8243 50.0432 23.3128 49.9571 23.8224C49.9501 24.1592 50.1433 24.4653 50.1528 24.8025C50.1739 25.2794 50.1273 25.7563 50.1317 26.2337C50.5093 26.1093 50.8808 25.9674 51.2583 25.8423C52.028 25.5806 52.856 25.5997 53.6577 25.6375C54.3981 25.6683 55.0796 25.9779 55.7721 26.2068C55.7799 24.5808 55.6836 22.953 55.7704 21.3279C56.9305 21.1818 58.0874 21.0141 59.2459 20.8571C60.6496 20.7222 62.0386 20.4477 63.4492 20.3841C63.5148 20.6543 63.5874 20.9242 63.621 21.2011C63.5568 21.5611 63.5604 21.9272 63.6582 22.2815C64.3526 22.0814 65.0385 21.8184 65.767 21.7728C66.4863 21.7181 67.2074 21.518 67.9292 21.6561C69.3944 21.7751 71.0241 22.3113 71.7707 23.6739C72.3551 24.8061 72.6664 26.0545 72.9614 27.2862C72.3692 27.4561 71.7698 27.6011 71.182 27.7853C71.6634 28.0829 72.2236 28.2464 72.654 28.6259C73.9531 29.614 74.4211 31.2999 74.5637 32.8491C74.4835 33.721 74.4709 34.6428 74.0375 35.4313C73.7754 36.0055 73.2656 36.4057 72.8198 36.8336C71.4129 37.9695 69.6643 38.5772 67.923 38.9951C66.9685 39.2254 65.9796 39.3643 64.9986 39.241C64.622 39.1839 64.2412 39.1687 63.8611 39.1717C63.9558 39.7023 63.9798 40.242 64.0683 40.7738C61.5142 40.7961 58.9596 40.7826 56.4054 40.7809C56.357 40.6229 56.3091 40.4655 56.2632 40.3078C55.165 40.9211 53.8986 41.2184 52.6419 41.188C51.1381 41.083 49.6362 40.5846 48.4674 39.6173C47.7568 39.1086 47.2727 38.3694 46.7698 37.6723C46.5993 37.6725 46.4289 37.6718 46.2588 37.6717C46.4862 38.2007 46.7229 38.7267 46.9081 39.2726C44.0551 39.2779 41.2017 39.288 38.3488 39.2676C38.2804 39.089 38.2083 38.9123 38.1304 38.7383C38.1089 38.9171 38.0911 39.0969 38.0736 39.2771C35.4901 39.2773 32.9066 39.2804 30.3231 39.2757C30.316 32.8472 30.3181 26.4184 30.3214 19.9898C32.879 19.988 35.4366 19.9846 37.9942 19.992C37.9954 20.3073 37.9987 20.6227 38.0162 20.9379C38.188 20.6039 38.3252 20.2535 38.4423 19.8974C39.4129 19.8816 40.3839 19.8837 41.3546 19.8901C41.9889 19.9053 42.6242 19.9617 43.2587 19.9225C43.7425 19.9086 44.093 19.5414 44.4876 19.3143Z" stroke="#6D7993" stroke-width="0.0898057" stroke-miterlimit="10"/>
<path d="M44.4876 19.3143C45.272 18.8215 46.2441 18.7324 47.1463 18.8502C48.8128 19.089 50.2425 20.603 50.2453 22.2986C50.2632 22.8243 50.0432 23.3128 49.9571 23.8224C49.9501 24.1592 50.1433 24.4653 50.1528 24.8025C50.1739 25.2794 50.1273 25.7563 50.1317 26.2337C50.5093 26.1093 50.8808 25.9674 51.2583 25.8423C52.028 25.5806 52.856 25.5997 53.6577 25.6375C54.3981 25.6683 55.0796 25.9778 55.7721 26.2068C55.7799 24.5808 55.6836 22.953 55.7704 21.3279C56.9305 21.1818 58.0874 21.0141 59.2459 20.8571C60.6496 20.7222 62.0386 20.4477 63.4492 20.3841C63.5148 20.6543 63.5874 20.9242 63.621 21.2011C63.5568 21.5611 63.5604 21.9272 63.6582 22.2815C64.3526 22.0814 65.0385 21.8184 65.767 21.7728C66.4863 21.7181 67.2074 21.518 67.9292 21.6561C69.3944 21.7751 71.0241 22.3113 71.7706 23.6739C72.3551 24.8061 72.6664 26.0545 72.9614 27.2862C72.3692 27.4561 71.7698 27.6011 71.182 27.7853C71.6634 28.0829 72.2236 28.2464 72.654 28.6259C73.9531 29.614 74.4211 31.2999 74.5637 32.8491C74.4835 33.721 74.4709 34.6428 74.0375 35.4313C73.7754 36.0055 73.2656 36.4057 72.8198 36.8336C71.4129 37.9695 69.6643 38.5772 67.923 38.9951C66.9685 39.2254 65.9796 39.3643 64.9986 39.241C64.622 39.1839 64.2412 39.1687 63.8611 39.1717C63.9558 39.7023 63.9798 40.242 64.0683 40.7738C61.5142 40.7961 58.9596 40.7826 56.4054 40.7809C56.357 40.6229 56.3091 40.4655 56.2632 40.3078C55.165 40.9211 53.8986 41.2184 52.6419 41.188C51.1381 41.083 49.6362 40.5846 48.4674 39.6173C47.7568 39.1086 47.2726 38.3694 46.7698 37.6723C46.5993 37.6725 46.4289 37.6718 46.2588 37.6717C46.4862 38.2007 46.7229 38.7267 46.9081 39.2726C44.0551 39.2779 41.2017 39.288 38.3488 39.2676C38.2804 39.089 38.2083 38.9123 38.1304 38.7383C38.1089 38.9171 38.0911 39.0969 38.0736 39.2771C35.4901 39.2773 32.9066 39.2804 30.3231 39.2757C30.316 32.8471 30.3181 26.4184 30.3214 19.9898C32.879 19.988 35.4366 19.9846 37.9942 19.992C37.9954 20.3073 37.9987 20.6227 38.0162 20.9379C38.188 20.6039 38.3252 20.2535 38.4423 19.8974C39.4129 19.8816 40.3839 19.8837 41.3546 19.8901C41.9889 19.9053 42.6242 19.9617 43.2587 19.9225C43.7425 19.9086 44.093 19.5414 44.4876 19.3143Z" fill="#6D7993"/>
<path d="M44.6176 19.9433C45.5058 19.2807 46.7551 19.1817 47.7619 19.627C49.0494 20.2016 49.9043 21.7186 49.5221 23.1064C49.396 23.7446 48.9909 24.2656 48.5991 24.7661C48.9015 24.7399 49.2039 24.7134 49.5066 24.6887C49.5415 25.605 49.4591 26.5211 49.5021 27.4373C50.5821 26.7366 51.8533 26.2912 53.1546 26.3406C54.3115 26.3134 55.4183 26.7398 56.3978 27.3211C56.4326 25.4969 56.3999 23.672 56.4135 21.8476C58.6066 21.598 60.7935 21.2946 62.9859 21.0371C63.0188 21.7644 63.014 22.4928 63.0418 23.2204C64.3086 22.7555 65.646 22.4778 66.9923 22.3826C68.0825 22.3413 69.2969 22.3298 70.2059 23.0234C71.4441 23.9587 71.9746 25.5228 72.1623 27.0033C70.8726 27.3461 69.5695 27.6376 68.2818 27.9872C69.3335 28.2243 70.4701 28.2002 71.4346 28.7368C72.5896 29.3287 73.4015 30.4694 73.6844 31.7196C73.9915 32.9238 74.0004 34.312 73.2644 35.37C72.3648 36.5914 70.9541 37.3077 69.5471 37.7943C68.0644 38.2564 66.5407 38.7658 64.9651 38.667C64.3067 38.6326 63.6984 38.3546 63.118 38.0668C63.1698 38.7685 63.2578 39.4671 63.3345 40.1666C61.2218 40.1937 59.1083 40.1831 56.9954 40.173C56.9088 39.8757 56.824 39.578 56.7408 39.2803C55.5686 40.147 54.1184 40.6893 52.643 40.5758C50.4853 40.4478 48.5617 39.0109 47.5759 37.1382C46.8524 37.1094 46.1278 37.1104 45.4044 37.1361C45.5632 37.645 45.7785 38.1337 45.9666 38.6323C43.5603 38.6222 41.1539 38.6333 38.7476 38.6273C38.328 37.3909 37.9725 36.1307 37.4966 34.9146C37.422 36.1904 37.4861 37.4701 37.4643 38.7477C35.2539 38.751 33.0434 38.7443 30.833 38.7511C30.8191 32.6719 30.8205 26.5924 30.832 20.5133C32.9938 20.5173 35.1557 20.5163 37.3175 20.5143C37.3667 21.8173 37.3186 23.1218 37.3408 24.4254C37.8551 23.1298 38.3458 21.8245 38.8554 20.5267C40.0509 20.5248 41.2464 20.5585 42.4423 20.5442C42.9487 20.5265 43.4647 20.5979 43.9645 20.4974C44.2165 20.3572 44.3864 20.112 44.6176 19.9433Z" stroke="#FDFDFD" stroke-width="0.0898057" stroke-miterlimit="10"/>
<path d="M44.6176 19.9433C45.5058 19.2807 46.7551 19.1817 47.7619 19.627C49.0494 20.2016 49.9043 21.7186 49.5221 23.1064C49.396 23.7446 48.9909 24.2656 48.5991 24.7661C48.9015 24.7399 49.2039 24.7134 49.5066 24.6887C49.5415 25.605 49.4591 26.5211 49.5021 27.4373C50.5821 26.7366 51.8533 26.2912 53.1546 26.3406C54.3115 26.3134 55.4183 26.7398 56.3978 27.3211C56.4326 25.4969 56.3999 23.672 56.4135 21.8476C58.6066 21.598 60.7935 21.2946 62.9859 21.0371C63.0188 21.7644 63.014 22.4928 63.0418 23.2204C64.3086 22.7555 65.646 22.4778 66.9923 22.3826C68.0825 22.3413 69.2969 22.3298 70.2059 23.0234C71.4441 23.9587 71.9746 25.5228 72.1623 27.0033C70.8726 27.3461 69.5695 27.6376 68.2818 27.9873C69.3335 28.2243 70.4701 28.2002 71.4346 28.7368C72.5896 29.3287 73.4015 30.4694 73.6844 31.7196C73.9915 32.9238 74.0004 34.312 73.2644 35.37C72.3648 36.5914 70.9541 37.3077 69.5471 37.7943C68.0644 38.2564 66.5407 38.7658 64.9651 38.667C64.3067 38.6326 63.6984 38.3546 63.118 38.0668C63.1698 38.7685 63.2578 39.4671 63.3345 40.1666C61.2218 40.1937 59.1083 40.1831 56.9954 40.173C56.9088 39.8757 56.824 39.578 56.7408 39.2803C55.5686 40.147 54.1184 40.6893 52.643 40.5758C50.4853 40.4478 48.5617 39.0109 47.5759 37.1382C46.8524 37.1094 46.1278 37.1104 45.4044 37.1361C45.5632 37.645 45.7785 38.1337 45.9666 38.6323C43.5603 38.6222 41.1539 38.6333 38.7476 38.6273C38.328 37.3909 37.9725 36.1307 37.4966 34.9146C37.422 36.1904 37.4861 37.4701 37.4643 38.7477C35.2539 38.751 33.0434 38.7443 30.833 38.7511C30.8191 32.6719 30.8205 26.5924 30.832 20.5133C32.9938 20.5173 35.1557 20.5163 37.3175 20.5143C37.3667 21.8173 37.3186 23.1218 37.3408 24.4254C37.8551 23.1298 38.3458 21.8245 38.8554 20.5267C40.0509 20.5248 41.2464 20.5585 42.4423 20.5442C42.9487 20.5265 43.4647 20.5979 43.9645 20.4974C44.2165 20.3572 44.3864 20.112 44.6176 19.9433Z" fill="#FDFDFD"/>
<path d="M45.7133 20.1415C46.2338 20.0046 46.7945 20.0231 47.3091 20.1776C48.3687 20.5305 49.1104 21.6885 48.9087 22.7959C48.7238 23.9734 47.5681 24.881 46.3803 24.846C45.1685 24.8294 44.0311 23.819 43.9599 22.6001C43.8746 21.5131 44.6488 20.4154 45.7133 20.1415Z" stroke="#929AAB" stroke-width="0.0898057" stroke-miterlimit="10"/>
<path d="M45.7133 20.1415C46.2338 20.0046 46.7945 20.0231 47.3091 20.1776C48.3687 20.5305 49.1104 21.6885 48.9087 22.7959C48.7238 23.9734 47.5681 24.881 46.3803 24.846C45.1685 24.8294 44.0311 23.819 43.9599 22.6001C43.8746 21.5131 44.6488 20.4154 45.7133 20.1415Z" fill="#929AAB"/>
<path d="M39.4324 21.1836C40.8042 21.1422 42.1782 21.1535 43.5505 21.1744C43.439 21.6394 43.2736 22.1139 43.3556 22.5982C43.401 23.0035 43.5669 23.4326 43.3634 23.8227C42.7288 25.2935 42.0956 26.7654 41.4439 28.2288C41.2636 28.5848 41.3717 28.9903 41.5247 29.3342C42.1554 30.7515 42.6682 32.2166 43.2612 33.6494C43.4462 34.0609 43.4078 34.5193 43.4075 34.9581C43.4034 35.6721 43.3921 36.3866 43.4227 37.1004C43.8288 37.1156 44.2353 37.119 44.6418 37.1114C44.7666 37.4201 44.8765 37.7348 44.9683 38.0553C43.6226 38.1261 42.2738 38.0703 40.9268 38.0883C40.3616 38.093 39.7958 38.0952 39.232 38.0501C38.5776 36.0418 37.9582 34.0226 37.3191 32.0095C37.1574 31.5123 37.0361 30.9999 36.807 30.5272C36.7706 30.6924 36.7378 30.8591 36.7298 31.0289C36.7162 33.3724 36.7582 35.7175 36.7109 38.0607C35.8607 38.1124 35.0086 38.0775 34.1575 38.0871C33.2882 38.0771 32.4176 38.1149 31.5493 38.056C31.5192 37.6265 31.5083 37.1962 31.5133 36.7661C31.5366 31.6002 31.4633 26.4343 31.5113 21.2687C33.2407 21.2354 34.972 21.2404 36.7015 21.2674C36.7519 23.4625 36.6599 25.6611 36.7493 27.8547C37.0685 27.3693 37.2174 26.8029 37.4372 26.2716C38.1083 24.5779 38.7652 22.8786 39.4324 21.1836Z" stroke="#929AAB" stroke-width="0.0898057" stroke-miterlimit="10"/>
<path d="M39.4324 21.1836C40.8042 21.1422 42.1782 21.1535 43.5505 21.1744C43.439 21.6394 43.2736 22.1139 43.3556 22.5982C43.401 23.0035 43.5669 23.4326 43.3634 23.8227C42.7288 25.2935 42.0956 26.7654 41.4439 28.2288C41.2636 28.5848 41.3717 28.9903 41.5247 29.3342C42.1554 30.7515 42.6682 32.2166 43.2612 33.6494C43.4462 34.0609 43.4078 34.5193 43.4075 34.9581C43.4034 35.6721 43.3921 36.3866 43.4227 37.1004C43.8288 37.1156 44.2353 37.119 44.6418 37.1114C44.7666 37.4201 44.8765 37.7348 44.9683 38.0553C43.6226 38.1261 42.2738 38.0703 40.9268 38.0883C40.3616 38.093 39.7958 38.0952 39.232 38.0501C38.5776 36.0418 37.9582 34.0226 37.3191 32.0095C37.1574 31.5123 37.0361 30.9999 36.807 30.5272C36.7706 30.6924 36.7378 30.8591 36.7298 31.0289C36.7162 33.3724 36.7582 35.7175 36.7109 38.0607C35.8607 38.1124 35.0086 38.0775 34.1575 38.0871C33.2882 38.0771 32.4176 38.1149 31.5493 38.056C31.5192 37.6265 31.5083 37.1962 31.5133 36.7661C31.5366 31.6002 31.4633 26.4343 31.5113 21.2687C33.2407 21.2354 34.972 21.2404 36.7015 21.2674C36.7519 23.4625 36.6599 25.6611 36.7493 27.8547C37.0685 27.3693 37.2174 26.8029 37.4372 26.2716C38.1083 24.5779 38.7652 22.8786 39.4324 21.1836Z" fill="#929AAB"/>
<path d="M60.8584 21.9261C61.3363 21.8544 61.8185 21.8145 62.302 21.8087C62.2988 22.4269 62.3232 23.0451 62.3061 23.6634C61.2338 24.3249 60.2098 25.2742 59.9446 26.5518C59.6351 28.1972 60.0139 30.0364 61.2115 31.2614C61.518 31.6052 61.9424 31.8054 62.2891 32.1009C62.4208 32.4224 62.3385 32.7815 62.327 33.118C61.5271 33.3703 60.7121 33.5736 59.9204 33.8514C60.4646 34.8842 61.0983 35.8712 61.8143 36.7947C62.0366 37.0923 62.3592 37.3573 62.3947 37.7513C62.484 38.3539 62.5414 38.9612 62.5795 39.5693C61.7611 39.6081 60.9419 39.5831 60.1231 39.5885C59.3325 39.5821 58.5406 39.6156 57.7517 39.5504C57.5938 38.8896 57.4218 38.2323 57.25 37.5752C56.8903 38.0029 56.554 38.4602 56.1005 38.797C55.2128 39.4914 54.0701 39.8088 52.9496 39.7896C51.418 39.8243 49.885 39.1485 48.8879 37.9912C47.7339 36.7093 47.2785 34.9364 47.3222 33.2458C47.33 31.4419 48.0703 29.6482 49.366 28.3818C50.281 27.4786 51.5583 26.9596 52.8451 26.9433C53.8853 26.91 54.9223 27.2431 55.7829 27.8166C56.3124 28.1684 56.7412 28.6422 57.1551 29.118C57.1283 27.6824 57.1503 26.2464 57.1435 24.8106C57.1538 24.0038 57.1143 23.1959 57.1723 22.3904C58.4009 22.2356 59.6299 22.0826 60.8584 21.9261Z" stroke="#929AAB" stroke-width="0.0898057" stroke-miterlimit="10"/>
<path d="M60.8584 21.9261C61.3363 21.8544 61.8185 21.8145 62.302 21.8087C62.2988 22.4269 62.3232 23.0451 62.3061 23.6634C61.2338 24.3249 60.2098 25.2742 59.9446 26.5518C59.6351 28.1972 60.0139 30.0364 61.2115 31.2614C61.518 31.6052 61.9424 31.8054 62.2891 32.1009C62.4208 32.4224 62.3385 32.7815 62.327 33.118C61.5271 33.3703 60.7121 33.5736 59.9204 33.8514C60.4646 34.8842 61.0983 35.8712 61.8143 36.7947C62.0366 37.0923 62.3592 37.3573 62.3947 37.7513C62.484 38.3539 62.5414 38.9612 62.5795 39.5693C61.7611 39.6081 60.9419 39.5831 60.1231 39.5885C59.3325 39.5821 58.5406 39.6156 57.7517 39.5504C57.5938 38.8896 57.4218 38.2323 57.25 37.5752C56.8903 38.0029 56.554 38.4602 56.1005 38.797C55.2128 39.4914 54.0701 39.8088 52.9496 39.7896C51.418 39.8243 49.885 39.1485 48.8879 37.9912C47.7339 36.7093 47.2785 34.9364 47.3222 33.2458C47.33 31.4419 48.0703 29.6482 49.366 28.3818C50.281 27.4786 51.5583 26.9596 52.8451 26.9433C53.8853 26.91 54.9223 27.2431 55.7829 27.8166C56.3124 28.1684 56.7412 28.6422 57.1551 29.118C57.1283 27.6824 57.1503 26.2464 57.1435 24.8106C57.1538 24.0038 57.1143 23.1959 57.1723 22.3904C58.4009 22.2356 59.6299 22.0826 60.8584 21.9261Z" fill="#929AAB"/>
<path d="M65.266 23.2993C66.3847 23.0853 67.5423 22.9775 68.6738 23.1502C69.4015 23.2552 69.9967 23.7382 70.4627 24.2757C71.0079 24.9335 71.2558 25.7759 71.4068 26.6009C69.8444 27.0069 68.2889 27.4432 66.7179 27.8128C66.5736 27.3707 66.4735 26.9157 66.3242 26.4756C66.2501 26.2957 66.1747 26.0702 65.9664 26.0088C65.5417 25.8925 64.9847 25.981 64.7517 26.3924C64.5358 26.7603 64.6521 27.2133 64.8228 27.5747C65.0384 28.0117 65.5107 28.251 65.9706 28.3507C66.9468 28.5577 67.9452 28.6315 68.9271 28.8074C69.7227 28.9496 70.5625 28.9912 71.2881 29.381C72.2009 29.8918 72.86 30.8068 73.0893 31.8203C73.3544 32.9081 73.4204 34.1798 72.713 35.123C71.8668 36.1627 70.6246 36.788 69.3774 37.224C67.8544 37.6924 66.2893 38.2396 64.6698 38.0846C63.7725 38.0008 63.0413 37.3919 62.4705 36.7429C61.8204 35.977 61.1969 35.1581 60.825 34.2192C62.3038 33.7958 63.7788 33.3594 65.2517 32.9156C65.5167 32.8364 65.7878 32.779 66.0595 32.7259C66.2603 33.346 66.3759 33.9986 66.6666 34.5867C66.9462 35.2762 68.1373 35.2045 68.3536 34.4993C68.4969 34.0141 68.2393 33.5301 68.0624 33.0888C67.8731 32.6052 67.3462 32.3879 66.8655 32.3142C66.1247 32.2087 65.3805 32.1276 64.643 32.0002C64.0607 31.8984 63.4584 31.8912 62.8942 31.7027C62.1814 31.4482 61.516 30.985 61.155 30.3079C60.5793 29.2668 60.3294 28.0384 60.4747 26.8577C60.5793 25.9798 61.1527 25.236 61.83 24.6991C62.8091 23.9107 64.0435 23.522 65.266 23.2993Z" stroke="#929AAB" stroke-width="0.0898057" stroke-miterlimit="10"/>
<path d="M65.266 23.2993C66.3847 23.0853 67.5423 22.9775 68.6738 23.1502C69.4015 23.2552 69.9967 23.7382 70.4627 24.2757C71.0079 24.9335 71.2558 25.7759 71.4068 26.6009C69.8444 27.0069 68.2889 27.4432 66.7179 27.8128C66.5736 27.3707 66.4735 26.9157 66.3242 26.4756C66.2501 26.2957 66.1747 26.0702 65.9664 26.0088C65.5417 25.8925 64.9847 25.981 64.7517 26.3924C64.5358 26.7603 64.6521 27.2133 64.8228 27.5747C65.0384 28.0117 65.5107 28.251 65.9706 28.3507C66.9468 28.5577 67.9452 28.6315 68.9271 28.8074C69.7227 28.9496 70.5625 28.9912 71.2881 29.381C72.2009 29.8918 72.86 30.8068 73.0893 31.8203C73.3544 32.9081 73.4204 34.1798 72.713 35.123C71.8668 36.1627 70.6246 36.788 69.3774 37.224C67.8544 37.6924 66.2893 38.2396 64.6698 38.0845C63.7725 38.0008 63.0413 37.3919 62.4705 36.7429C61.8204 35.977 61.1969 35.1581 60.825 34.2192C62.3038 33.7958 63.7788 33.3594 65.2517 32.9156C65.5167 32.8364 65.7878 32.779 66.0595 32.7259C66.2603 33.346 66.3759 33.9986 66.6666 34.5867C66.9462 35.2762 68.1373 35.2045 68.3536 34.4993C68.4969 34.0141 68.2393 33.5301 68.0624 33.0888C67.8731 32.6052 67.3462 32.3879 66.8655 32.3142C66.1247 32.2087 65.3805 32.1276 64.643 32.0002C64.0607 31.8984 63.4584 31.8912 62.8942 31.7027C62.1814 31.4482 61.516 30.985 61.155 30.3079C60.5793 29.2668 60.3294 28.0384 60.4747 26.8577C60.5793 25.9798 61.1527 25.236 61.83 24.6991C62.8091 23.9107 64.0435 23.522 65.266 23.2993Z" fill="#929AAB"/>
<path d="M43.8652 24.2722C44.2153 24.6117 44.5983 24.9142 44.9921 25.2019C44.4923 25.2738 43.9897 25.3263 43.4937 25.4218C43.4859 27.6448 43.4914 29.8689 43.433 32.0914C42.9803 31.1275 42.6566 30.11 42.2352 29.1326C42.1287 28.8374 41.929 28.5065 42.1106 28.1991C42.7036 26.8938 43.2684 25.5758 43.8652 24.2722Z" stroke="#6D7993" stroke-width="0.0898057" stroke-miterlimit="10"/>
<path d="M43.8652 24.2722C44.2153 24.6117 44.5983 24.9142 44.9921 25.2019C44.4923 25.2738 43.9897 25.3263 43.4937 25.4218C43.4859 27.6448 43.4914 29.8689 43.433 32.0914C42.9803 31.1275 42.6566 30.11 42.2352 29.1326C42.1287 28.8374 41.929 28.5065 42.1106 28.1991C42.7036 26.8938 43.2684 25.5758 43.8652 24.2722Z" fill="#6D7993"/>
<path d="M44.1018 25.9629C45.6716 25.7839 47.2351 25.543 48.8111 25.4223C48.8538 26.2247 48.8385 27.029 48.8382 27.8322C48.8643 28.1123 48.6419 28.3069 48.4762 28.5001C47.3926 29.682 46.8091 31.2595 46.693 32.8423C46.5606 34.0839 46.853 35.3179 47.2283 36.4939C46.1867 36.516 45.1419 36.5431 44.1016 36.4768C44.112 32.9722 44.1122 29.4675 44.1018 25.9629Z" stroke="#929AAB" stroke-width="0.0898057" stroke-miterlimit="10"/>
<path d="M44.1018 25.9629C45.6716 25.7839 47.2351 25.543 48.8111 25.4223C48.8538 26.2247 48.8385 27.029 48.8382 27.8322C48.8643 28.1123 48.6419 28.3069 48.4762 28.5001C47.3926 29.682 46.8091 31.2595 46.693 32.8423C46.5606 34.0839 46.853 35.3179 47.2283 36.4939C46.1867 36.516 45.1419 36.5431 44.1016 36.4768C44.112 32.9722 44.1122 29.4675 44.1018 25.9629Z" fill="#929AAB"/>
<path d="M65.2577 27.029C65.1147 26.7415 65.4297 26.4813 65.7096 26.5409C65.8178 26.916 65.926 27.2918 66.0019 27.6754C65.6514 27.6022 65.3282 27.4028 65.2577 27.029Z" stroke="#6D7993" stroke-width="0.0898057" stroke-miterlimit="10"/>
<path d="M65.2577 27.029C65.1147 26.7415 65.4297 26.4813 65.7096 26.5409C65.8178 26.916 65.926 27.2918 66.0019 27.6754C65.6514 27.6022 65.3282 27.4028 65.2577 27.029Z" fill="#6D7993"/>
<path d="M54.501 29.8618C55.1669 29.6381 55.9356 29.9175 56.3355 30.4833C56.9445 31.34 57.0794 32.4292 57.1207 33.4514C57.1126 34.3907 57.0372 35.4313 56.4071 36.1846C55.7369 37.0113 54.2855 37.0549 53.6211 36.2006C52.952 35.3411 52.8196 34.2032 52.8164 33.1494C52.8257 32.3252 52.8969 31.4498 53.3491 30.7346C53.6105 30.3169 54.0196 29.9898 54.501 29.8618Z" stroke="#FDFDFD" stroke-width="0.0898057" stroke-miterlimit="10"/>
<path d="M54.501 29.8618C55.1669 29.6381 55.9356 29.9175 56.3355 30.4833C56.9445 31.34 57.0794 32.4292 57.1207 33.4514C57.1126 34.3907 57.0372 35.4313 56.4071 36.1846C55.7369 37.0113 54.2855 37.0549 53.6211 36.2006C52.952 35.3411 52.8196 34.2032 52.8164 33.1494C52.8257 32.3252 52.8969 31.4498 53.3491 30.7346C53.6105 30.3169 54.0196 29.9898 54.501 29.8618Z" fill="#FDFDFD"/>
<path d="M54.7093 30.4773C55.2011 30.3646 55.6985 30.6614 55.9414 31.0787C56.4078 31.8836 56.5319 32.8405 56.472 33.7558C56.4286 34.3609 56.3325 34.9815 56.0388 35.5216C55.842 35.8878 55.4814 36.1848 55.0594 36.238C54.6184 36.2836 54.2102 35.9997 53.965 35.6565C53.5994 35.0932 53.4814 34.4119 53.4431 33.7535C53.3806 32.8738 53.5076 31.9698 53.8794 31.1651C54.0325 30.8267 54.3393 30.5528 54.7093 30.4773Z" stroke="#6D7993" stroke-width="0.0898057" stroke-miterlimit="10"/>
<path d="M54.7093 30.4773C55.2011 30.3646 55.6985 30.6614 55.9414 31.0787C56.4078 31.8836 56.5319 32.8405 56.472 33.7558C56.4286 34.3609 56.3325 34.9815 56.0388 35.5216C55.842 35.8878 55.4814 36.1848 55.0594 36.238C54.6184 36.2836 54.2102 35.9997 53.965 35.6565C53.5994 35.0932 53.4814 34.4119 53.4431 33.7535C53.3806 32.8738 53.5076 31.9698 53.8794 31.1651C54.0325 30.8267 54.3393 30.5528 54.7093 30.4773Z" fill="#6D7993"/>
<path d="M54.8125 31.0619C55.1634 30.9159 55.4256 31.2972 55.5396 31.5757C55.8936 32.6205 55.8405 33.7688 55.5338 34.8184C55.4409 35.1085 55.1815 35.2936 54.9736 35.4997C54.6921 35.3335 54.4225 35.1177 54.3308 34.7904C54.0235 33.816 54.0085 32.7562 54.2891 31.7738C54.3676 31.4814 54.5584 31.2268 54.8125 31.0619Z" stroke="#FDFDFD" stroke-width="0.0898057" stroke-miterlimit="10"/>
<path d="M54.8125 31.0619C55.1634 30.9159 55.4256 31.2972 55.5396 31.5757C55.8936 32.6205 55.8405 33.7688 55.5338 34.8184C55.4409 35.1085 55.1815 35.2936 54.9736 35.4997C54.6921 35.3335 54.4225 35.1177 54.3308 34.7904C54.0235 33.816 54.0085 32.7562 54.2891 31.7738C54.3676 31.4814 54.5584 31.2268 54.8125 31.0619Z" fill="#FDFDFD"/>
<path d="M63.1317 32.4108C63.417 32.4576 63.7015 32.5116 63.9833 32.5786C63.7132 32.6916 63.4349 32.7829 63.1552 32.8681C63.1464 32.7153 63.1386 32.5629 63.1317 32.4108Z" stroke="#6D7993" stroke-width="0.0898057" stroke-miterlimit="10"/>
<path d="M63.1317 32.4108C63.417 32.4576 63.7015 32.5116 63.9833 32.5786C63.7132 32.6916 63.4349 32.7829 63.1552 32.8681C63.1464 32.7153 63.1386 32.5629 63.1317 32.4108Z" fill="#6D7993"/>
<path d="M66.8326 33.0254C67.0329 33.1014 67.3276 33.0804 67.4325 33.3038C67.6127 33.6498 67.7291 34.0279 67.7815 34.4143C67.6046 34.422 67.4267 34.4381 67.2514 34.4112C66.9885 33.9978 66.9062 33.5007 66.8326 33.0254Z" stroke="#6D7993" stroke-width="0.0898057" stroke-miterlimit="10"/>
<path d="M66.8326 33.0254C67.0329 33.1014 67.3276 33.0804 67.4325 33.3038C67.6127 33.6498 67.7291 34.0279 67.7815 34.4143C67.6046 34.422 67.4267 34.4381 67.2514 34.4112C66.9885 33.9978 66.9062 33.5007 66.8326 33.0254Z" fill="#6D7993"/>
</g>
<defs>
<clipPath id="clip0_1_987">
<rect width="48" height="41" fill="white" transform="translate(29 2)"/>
</clipPath>
</defs>
</svg>
