<svg width="105" height="45" viewBox="0 0 105 45" fill="none" xmlns="http://www.w3.org/2000/svg">
<g clip-path="url(#clip0_1_1024)">
<path d="M80.2571 16.1434L80.3345 16.2716C80.3399 16.2805 80.3427 16.2901 80.343 16.3003C80.345 16.3566 80.392 16.4018 80.4106 16.4357C80.4285 16.4684 80.4501 16.4987 80.4748 16.5267C80.4822 16.535 80.486 16.5442 80.4863 16.5551C80.4904 16.6793 80.5269 16.7664 80.4964 16.8949C80.4883 16.9292 80.4856 17.0017 80.4572 17.0478C80.4025 17.1375 80.3531 17.2736 80.3089 17.3112C80.2453 17.3653 80.1987 17.4157 80.1189 17.4503C80.0482 17.4813 79.979 17.5152 79.911 17.5522C79.9012 17.5574 79.8911 17.5597 79.8799 17.5587C79.8468 17.5561 79.8292 17.5772 79.8032 17.5851C79.7386 17.6052 79.6731 17.6191 79.6072 17.6267C79.5707 17.6105 79.5308 17.6039 79.4875 17.6062C79.3591 17.6135 79.2134 17.4711 79.1218 17.3946C79.0961 17.3732 79.0795 17.3475 79.0721 17.3178C79.0508 17.2895 79.0285 17.2628 79.0058 17.2377C78.9812 17.2103 78.9639 17.1813 78.9545 17.151C78.8977 16.9701 78.8706 16.8382 78.8734 16.7555C78.8811 16.5102 79.0113 16.3583 79.1603 16.179C79.2276 16.0979 79.3026 16.116 79.3709 16.0613C79.3946 16.0425 79.4104 16.0395 79.4185 16.0531C79.6041 15.9924 79.7586 15.9838 79.8819 16.0274C79.9127 16.0382 79.9732 16.0679 80.0635 16.1167C80.0722 16.1216 80.0817 16.1243 80.0915 16.1246C80.124 16.1259 80.148 16.1318 80.1682 16.1582C80.2071 16.2086 80.2483 16.2574 80.292 16.3046C80.3092 16.3233 80.3034 16.3411 80.318 16.3589C80.3562 16.4054 80.391 16.4539 80.4221 16.505C80.4238 16.5076 80.4258 16.5083 80.4288 16.5069L80.4366 16.5033C80.4366 16.5033 80.4373 16.5023 80.437 16.5017L80.3548 16.3646C80.3491 16.3543 80.345 16.3438 80.3427 16.3326C80.3278 16.2558 80.2673 16.2129 80.2571 16.1434Z" fill="#929AAB"/>
<path d="M99.2668 19.6109C99.2742 19.6343 99.2864 19.6469 99.3036 19.6485C99.3381 19.6521 99.3628 19.6647 99.3773 19.6864C99.381 19.692 99.3868 19.696 99.3932 19.6976C99.4226 19.7052 99.4449 19.7214 99.4594 19.7461C99.4648 19.7547 99.4729 19.7616 99.4824 19.7649L99.575 19.7985C99.7349 19.9165 99.8437 19.9897 99.9009 20.0183C99.9516 20.0437 99.9901 20.0671 100.016 20.0892C100.07 20.133 100.124 20.1756 100.179 20.2164C100.249 20.2675 100.267 20.3302 100.324 20.3826C100.358 20.4126 100.392 20.4409 100.428 20.4673C100.434 20.4712 100.439 20.4801 100.444 20.494C100.447 20.5035 100.453 20.5108 100.463 20.5151C100.474 20.52 100.485 20.5319 100.496 20.55C100.553 20.6489 100.609 20.7478 100.666 20.8463C100.698 20.9011 100.724 20.9423 100.746 20.9696C100.752 20.9782 100.757 20.9877 100.758 20.9983C100.762 21.025 100.764 21.0533 100.776 21.0777C100.832 21.1934 100.893 21.3457 100.957 21.5349C101.008 21.6822 100.995 21.8151 100.918 21.9337C100.911 21.944 100.902 21.9506 100.89 21.9535C100.814 21.971 100.727 21.9733 100.627 21.9604C100.524 21.9473 100.342 21.9413 100.079 21.9426C99.9742 21.9433 99.912 21.8833 99.9076 21.7851C99.9022 21.6757 99.8464 21.6368 99.8211 21.5441C99.7988 21.4617 99.7471 21.3958 99.7153 21.3167C99.6916 21.2577 99.6653 21.2099 99.6362 21.174C99.5608 21.0807 99.4902 21.0062 99.4391 20.8971C99.402 20.8163 99.3056 20.7537 99.2245 20.7204C99.2086 20.7138 99.1938 20.7049 99.1796 20.6941C99.1657 20.6832 99.1512 20.6733 99.136 20.6647C99.0795 20.6327 99.021 20.6054 98.9602 20.583C98.9315 20.5724 98.9034 20.5586 98.8767 20.5411C98.8007 20.4917 98.7057 20.4683 98.6205 20.4393C98.5904 20.429 98.5472 20.4195 98.4904 20.4109C98.4458 20.404 98.4022 20.3925 98.3599 20.3756C98.3001 20.3519 98.2585 20.3338 98.1922 20.3252C97.8559 20.2827 97.5186 20.2708 97.1803 20.2899C97.1695 20.2906 97.1302 20.2965 97.063 20.3074C97.0103 20.316 96.9494 20.3087 96.9031 20.3133C96.4556 20.3559 96.0635 20.4788 95.7265 20.6825C95.4832 20.8295 95.2989 21.0247 95.1742 21.2682C95.0796 21.4535 95.0671 21.6855 95.1059 21.9047C95.1195 21.9799 95.1475 22.0471 95.1901 22.1061C95.2868 22.2396 95.4051 22.3533 95.5447 22.4466C95.5538 22.4522 95.5636 22.4559 95.5741 22.4572C95.6244 22.4634 95.6569 22.4938 95.6907 22.5079C95.8823 22.5884 96.0662 22.6648 96.2592 22.6892C96.266 22.6902 96.2707 22.6919 96.2737 22.6945C96.2764 22.6968 96.2781 22.6998 96.2788 22.7031C96.2802 22.708 96.2832 22.7103 96.2883 22.7106C96.3359 22.7126 96.3779 22.7222 96.4147 22.7397C96.5151 22.7525 96.6138 22.77 96.7108 22.7921C96.726 22.7957 96.7578 22.8 96.8054 22.8049C96.9126 22.8168 96.9998 22.8379 97.1414 22.8405C97.2161 22.8418 97.2638 22.8867 97.3432 22.8913C97.4098 22.8949 97.4669 22.918 97.5325 22.9242C97.6001 22.9305 97.6825 22.949 97.7795 22.9796C97.8133 22.9905 97.8782 22.9753 97.9252 22.9869C98.0317 23.0122 98.1388 23.0363 98.246 23.0591C98.2764 23.0653 98.3092 23.0577 98.3413 23.0722C98.3771 23.0881 98.3981 23.0966 98.4045 23.0983C98.6306 23.1513 98.8598 23.1968 99.0927 23.2354C99.1417 23.2305 99.1961 23.242 99.2553 23.2697C99.3695 23.3227 99.4855 23.3732 99.6027 23.421C99.6088 23.4236 99.6132 23.4279 99.6159 23.4335C99.6173 23.4365 99.619 23.4394 99.621 23.4421C99.6213 23.4421 99.6217 23.4427 99.6223 23.4431C99.6507 23.452 99.6798 23.4585 99.7092 23.4622C99.7204 23.4635 99.7298 23.4678 99.7383 23.475C99.7755 23.5063 99.8184 23.5261 99.8671 23.534C99.8745 23.535 99.8796 23.5373 99.8826 23.5403C99.8853 23.5429 99.887 23.5459 99.8877 23.5495C99.8887 23.5551 99.8921 23.5594 99.8975 23.5617C99.9593 23.5891 100.022 23.6092 100.078 23.6468C100.16 23.7018 100.242 23.7568 100.324 23.8119C100.324 23.8544 100.369 23.8709 100.397 23.8953C100.403 23.9002 100.41 23.9032 100.417 23.9039C100.429 23.9048 100.436 23.9104 100.439 23.921C100.442 23.9309 100.45 23.9385 100.461 23.9398L100.6 23.9606C100.638 23.9662 100.657 23.9879 100.657 24.0258C100.657 24.0828 100.637 24.1277 100.662 24.1847C100.684 24.2331 100.712 24.273 100.733 24.3231C100.746 24.3525 100.762 24.3798 100.781 24.4055C100.814 24.451 100.82 24.5074 100.848 24.5542C100.884 24.6145 100.907 24.6791 100.917 24.748C100.92 24.7721 100.928 24.7984 100.94 24.8271C100.968 24.8917 100.964 24.988 100.972 25.0321C101.009 25.2174 101.009 25.402 100.973 25.5862C100.95 25.7016 100.954 25.8413 100.907 25.9636C100.876 26.046 100.885 26.1232 100.848 26.2062C100.755 26.4122 100.648 26.6146 100.529 26.813C100.458 26.8918 100.379 26.968 100.292 27.0415C100.277 27.054 100.265 27.0682 100.255 27.0843C100.25 27.0936 100.243 27.1011 100.233 27.1074C100.19 27.1374 100.161 27.176 100.117 27.2036C99.9898 27.2814 99.8829 27.4031 99.7501 27.4677C99.5919 27.5448 99.4324 27.619 99.2715 27.6905C99.2658 27.6928 99.2597 27.6941 99.2526 27.6941C99.2428 27.6941 99.2363 27.6951 99.2333 27.6961C99.1106 27.7465 98.9872 27.7953 98.8635 27.8424C98.7753 27.8764 98.6871 27.9014 98.5982 27.9183C98.5076 27.9354 98.4167 27.9509 98.3254 27.9651C98.1051 27.9993 97.8749 27.9789 97.6521 27.9914C97.2151 28.0161 96.7784 27.9848 96.3444 27.9364C96.3082 27.9156 96.2687 27.9041 96.2261 27.9011C96.1967 27.8991 96.1784 27.8823 96.1568 27.881C96.0138 27.8701 95.8756 27.8398 95.7421 27.7897C95.6995 27.7735 95.6451 27.7818 95.6079 27.7469C95.6048 27.7439 95.6052 27.7432 95.6089 27.7449C95.662 27.7646 95.7171 27.7742 95.7749 27.7739C95.7836 27.7739 95.784 27.7726 95.7755 27.7696L95.4172 27.6503C95.2013 27.6087 94.9991 27.4993 94.8146 27.3678C94.7669 27.3342 94.7179 27.3151 94.6659 27.2907C94.6574 27.2867 94.6513 27.2775 94.6469 27.2626C94.6442 27.2531 94.6392 27.2448 94.6321 27.2379L94.1514 26.784C94.1443 26.7771 94.1359 26.7732 94.1261 26.7722C94.1112 26.7702 94.0838 26.7214 94.0625 26.7006C93.9388 26.5787 93.8905 26.4241 93.7931 26.2791C93.7451 26.2079 93.6877 26.1232 93.6728 26.0384C93.6657 25.9969 93.6556 25.963 93.6427 25.9369C93.6241 25.8984 93.611 25.8647 93.6039 25.8361C93.542 25.5833 93.5008 25.4062 93.4802 25.3051C93.4538 25.1739 93.6241 25.0717 93.7323 25.0852C93.9003 25.106 94.0892 25.1043 94.2985 25.0809C94.4049 25.0687 94.4708 25.1152 94.4962 25.22C94.5178 25.309 94.5462 25.3944 94.5817 25.4761C94.5844 25.4992 94.5878 25.5226 94.5915 25.5463C94.6003 25.601 94.6398 25.6409 94.651 25.6999C94.6686 25.7916 94.7105 25.8723 94.7423 25.9597C94.7514 25.9847 94.7686 26.0055 94.794 26.0216C94.8247 26.0411 94.8447 26.0572 94.8535 26.0701C94.8687 26.0922 94.8808 26.1162 94.8906 26.1419C94.8944 26.1518 94.9004 26.1604 94.9086 26.1673C94.9319 26.1868 94.9532 26.2082 94.9728 26.2309C94.9917 26.2524 94.9964 26.288 95.0377 26.2982C95.0488 26.3008 95.059 26.3064 95.0671 26.3143L95.084 26.3308C95.0917 26.3381 95.0945 26.3368 95.0928 26.3265C95.0907 26.315 95.083 26.3031 95.0691 26.2903C95.1114 26.3153 95.1462 26.3506 95.1735 26.3961C95.179 26.4053 95.1871 26.4116 95.1975 26.4145C95.2259 26.4231 95.2466 26.4393 95.2594 26.463L95.3865 26.549C95.3956 26.5553 95.4034 26.5625 95.4098 26.5714C95.4737 26.6608 95.5589 26.7221 95.6653 26.7547C95.7076 26.7676 95.7377 26.7979 95.7809 26.8114C95.8259 26.8252 95.8556 26.8358 95.8705 26.8427C95.9205 26.8668 95.9584 26.8839 96.0192 26.8856C96.0997 26.8872 96.1676 26.9258 96.2379 26.9373C96.2829 26.9446 96.3272 26.9535 96.3711 26.9643C96.5053 26.9973 96.6401 26.9957 96.7764 27.02C96.8497 27.0329 96.9413 27.0283 97.0015 27.0352C97.1799 27.056 97.3591 27.0593 97.5386 27.0458C97.616 27.0398 97.7089 27.0636 97.7941 27.0467C97.8539 27.0352 97.9019 27.0303 97.9374 27.0322C98.0479 27.0385 98.1223 27.0336 98.1601 27.0174C98.1956 27.0019 98.2551 26.9808 98.2933 26.9861C98.3031 26.9874 98.3099 26.9851 98.3136 26.9792C98.3177 26.9729 98.3234 26.9693 98.3312 26.969C98.4444 26.9634 98.5509 26.9347 98.6506 26.8829C98.6793 26.8681 98.7077 26.8661 98.7388 26.8615C98.751 26.8599 98.7615 26.8546 98.7706 26.8463C98.7811 26.8368 98.7942 26.8338 98.8101 26.8378C98.8179 26.8397 98.8264 26.8394 98.8338 26.8361C98.9088 26.8041 98.9805 26.7669 99.0488 26.7237C99.116 26.6815 99.1924 26.6647 99.2583 26.6209C99.3208 26.5793 99.3837 26.5381 99.4462 26.4976C99.4858 26.4722 99.5196 26.4409 99.5476 26.4037L99.6497 26.2698C99.6548 26.2632 99.6612 26.2583 99.669 26.2547C99.7606 26.2128 99.7396 26.1327 99.8042 26.0853C99.813 26.0787 99.8197 26.0704 99.8241 26.0605C99.8522 25.9972 99.8829 25.9346 99.9157 25.8727C99.9441 25.8189 99.9363 25.7724 99.9502 25.7141C99.9671 25.6439 99.9762 25.604 99.9776 25.5945C100.006 25.3799 99.9759 25.1686 99.888 24.9606C99.8583 24.8756 99.8062 24.7935 99.7315 24.7147C99.7237 24.7065 99.7095 24.6966 99.6889 24.6844C99.6467 24.6603 99.6372 24.6188 99.6 24.5957C99.5713 24.5783 99.5365 24.568 99.5125 24.5492C99.3817 24.4461 99.2387 24.361 99.0842 24.2948C98.7993 24.1722 98.5982 24.1023 98.4812 24.0848C98.4038 24.0733 98.34 24.0598 98.2896 24.0449C98.2075 24.0209 98.1534 24.0067 98.127 24.0024C98.0469 23.9896 97.9915 23.9777 97.9611 23.9668C97.8556 23.9292 97.7677 23.9002 97.6477 23.8884C97.5355 23.8772 97.4257 23.8547 97.3178 23.8208C97.2482 23.799 97.1843 23.8116 97.1117 23.7938C96.9498 23.7539 96.7851 23.7351 96.6178 23.7377C96.608 23.7381 96.6006 23.7338 96.5959 23.7252C96.5945 23.7229 96.5932 23.7203 96.5921 23.718C96.5908 23.7156 96.5888 23.7143 96.5861 23.7143C96.5168 23.715 96.4559 23.7196 96.3883 23.7002C96.3268 23.6827 96.2666 23.6639 96.2078 23.6441L95.4058 23.4569C95.2976 23.3883 95.1594 23.3804 95.0559 23.3096C95.015 23.2815 94.9765 23.2621 94.9407 23.2519C94.794 23.2094 94.7368 23.1062 94.6267 23.0113C94.4347 22.8468 94.29 22.6431 94.193 22.4001C94.1717 22.3471 94.1342 22.2241 94.0801 22.0313C94.0308 21.8566 94.0426 21.6635 94.0916 21.4845C94.12 21.3806 94.1274 21.2551 94.1768 21.1509C94.1971 21.1077 94.2113 21.0708 94.219 21.0402C94.2342 20.9802 94.2423 20.9162 94.2805 20.8625C94.3279 20.7962 94.3431 20.698 94.3809 20.6443C94.4134 20.5981 94.4962 20.4996 94.629 20.3489C94.7223 20.2431 94.8538 20.1294 95.0231 20.0085C95.0248 20.0075 95.0387 20.0009 95.0651 19.9887C95.0752 19.9841 95.0833 19.9765 95.089 19.9663C95.0941 19.9577 95.1005 19.9501 95.1086 19.9439C95.1664 19.8984 95.1948 19.8598 95.2699 19.8364C95.3814 19.8018 95.4754 19.7296 95.5771 19.697C95.6735 19.666 95.7698 19.6363 95.8665 19.6083C95.8769 19.6053 95.8857 19.5994 95.8928 19.5912C95.9013 19.5809 95.9121 19.574 95.9249 19.5697C96.0074 19.5444 96.0899 19.519 96.1723 19.4939C96.1987 19.4857 96.2183 19.4718 96.2433 19.4666C96.3883 19.4366 96.5327 19.4046 96.677 19.371C96.7517 19.3535 96.9109 19.3344 97.1546 19.3136C97.2989 19.3014 97.4517 19.3176 97.6031 19.314C97.6105 19.3136 97.6173 19.3166 97.6224 19.3215C97.6247 19.3238 97.6268 19.3262 97.6291 19.3285C97.6339 19.3334 97.6396 19.3354 97.6467 19.335C97.9127 19.3133 98.1601 19.3472 98.4234 19.3631C98.4934 19.3674 98.5647 19.3848 98.6374 19.4155C98.6655 19.4273 98.6996 19.4329 98.7398 19.432C98.8243 19.43 98.8318 19.4788 98.8987 19.4913C99.0308 19.516 99.1535 19.5559 99.2668 19.6109Z" fill="#929AAB"/>
<path d="M89.2314 19.8133C89.2798 19.8235 89.3203 19.8456 89.3531 19.8802C89.3609 19.8881 89.37 19.8931 89.3812 19.8947C89.4464 19.9053 89.4988 19.9326 89.538 19.9765C89.5431 19.9824 89.5454 19.9903 89.5451 20.0005C89.5451 20.0114 89.5491 20.02 89.5586 20.0259C89.6042 20.0546 89.6533 20.0724 89.7056 20.0793C89.7597 20.0862 89.7993 20.0981 89.8246 20.1143C89.8743 20.1462 89.9186 20.1845 89.9571 20.2286C89.9703 20.2435 89.9926 20.2642 90.0247 20.2906C90.0954 20.349 90.093 20.4192 90.188 20.467C90.1985 20.4726 90.2042 20.4848 90.2049 20.5039C90.2052 20.5147 90.2103 20.5253 90.2184 20.5325C90.2759 20.584 90.333 20.6351 90.3894 20.6862C90.4641 20.7531 90.5196 20.8104 90.5557 20.8585C90.6013 20.9189 90.6382 20.964 90.6662 20.9947C90.6733 21.0023 90.6777 21.0112 90.6801 21.0214C90.6906 21.0675 90.7095 21.109 90.7369 21.1463C90.7754 21.1987 90.7954 21.2257 90.7967 21.228C90.8153 21.2561 90.8369 21.2821 90.8613 21.3068C90.8687 21.3144 90.8724 21.3246 90.8718 21.3352C90.8694 21.3678 90.8822 21.3938 90.911 21.4136C90.9184 21.4189 90.9238 21.4258 90.9275 21.434C90.9532 21.4931 90.9606 21.5471 90.9968 21.6028C91.0468 21.6793 91.0678 21.7742 91.0925 21.8362C91.1749 22.0452 91.3081 22.265 90.9698 22.3524C90.8694 22.3781 90.814 22.3932 90.8028 22.3975C90.7413 22.4216 90.6801 22.4456 90.6193 22.4704C90.6088 22.4746 90.5997 22.4806 90.5919 22.4882C90.5719 22.5073 90.553 22.5013 90.5314 22.5112C90.2914 22.623 90.0484 22.7271 89.802 22.824C89.729 22.8527 89.66 22.8926 89.5704 22.9005C89.5596 22.9015 89.5498 22.9051 89.541 22.9114C89.489 22.9493 89.4156 22.9813 89.3213 23.0066C89.2574 23.0235 89.1402 23.0739 88.9698 23.1576C88.963 23.1612 88.9556 23.1629 88.9482 23.1629C88.8975 23.1629 88.8224 23.2067 88.7765 23.2272C88.6852 23.268 88.5558 23.2852 88.4756 23.3389C88.4388 23.3636 88.405 23.3791 88.3739 23.3854C88.3628 23.3877 88.3526 23.3916 88.3432 23.3979C88.3029 23.4246 88.2614 23.4147 88.2225 23.4289C88.1721 23.447 88.1235 23.4694 88.0765 23.4961C88.0761 23.4961 88.068 23.5034 88.0518 23.5179C88.0444 23.5245 88.0349 23.5268 88.0234 23.5251C88.0102 23.5235 87.998 23.5258 87.9862 23.5324C87.8862 23.5894 87.779 23.6286 87.6644 23.6494C87.6526 23.6517 87.6415 23.6566 87.632 23.6646C87.583 23.7061 87.5478 23.7308 87.4779 23.7387C87.4194 23.7453 87.364 23.7615 87.3116 23.7872C87.2801 23.8023 87.2426 23.8155 87.199 23.8267C87.1584 23.8369 87.1209 23.8544 87.0861 23.8788C87.077 23.8851 87.0668 23.8887 87.0557 23.8897C87.0297 23.8913 87.0064 23.8992 86.9861 23.9131C86.8955 23.9751 86.7866 24.014 86.6873 24.0614C86.6761 24.0667 86.6646 24.069 86.6521 24.0683C86.6288 24.067 86.6105 24.0753 86.5967 24.0934C86.5903 24.102 86.5795 24.1072 86.5683 24.1069C86.5365 24.1059 86.5085 24.1151 86.4845 24.1346C86.4753 24.1418 86.4652 24.1445 86.4534 24.1428C86.4321 24.1399 86.4142 24.1458 86.3996 24.161C86.3922 24.1685 86.3831 24.1735 86.3726 24.1755C86.281 24.1916 86.2232 24.2084 86.1989 24.2256C86.1674 24.2483 86.0566 24.3159 85.9954 24.308C85.9836 24.3063 85.9741 24.3103 85.967 24.3195C85.9511 24.339 85.9302 24.3488 85.9048 24.3492C85.895 24.3492 85.8852 24.3521 85.8771 24.3574C85.8115 24.4003 85.7351 24.4029 85.6746 24.4312C85.6405 24.4474 85.6067 24.4639 85.5725 24.4804C85.5506 24.4909 85.5289 24.5024 85.5076 24.5153C85.4519 24.5486 85.3887 24.5535 85.3305 24.5911C85.3224 24.5964 85.3136 24.5994 85.3038 24.6003C85.2633 24.6046 85.2278 24.6208 85.1977 24.6491C85.1889 24.6577 85.1767 24.662 85.1646 24.6616C85.1456 24.661 85.1298 24.6679 85.1169 24.6824C85.1105 24.69 85.1024 24.6956 85.0933 24.6999C85.0094 24.7388 84.9229 24.7701 84.8333 24.7942C84.8005 24.8031 84.7644 24.8192 84.7252 24.8433C84.6772 24.8726 84.6184 24.8904 84.5781 24.9112C84.4632 24.9695 84.3547 25.0381 84.2523 25.1165C84.2026 25.1548 84.1901 25.1999 84.2232 25.2576C84.2804 25.3581 84.3202 25.4761 84.3747 25.5645C84.4345 25.6624 84.5011 25.7556 84.5741 25.8446C84.6998 25.9982 84.8921 26.1443 85.048 26.2995C85.0851 26.3361 85.123 26.3671 85.1619 26.3921C85.2251 26.4323 85.2677 26.4574 85.2903 26.4673C85.314 26.4778 85.3633 26.5078 85.438 26.5576C85.5249 26.6156 85.6581 26.6687 85.8372 26.7165C85.848 26.7194 85.8558 26.7257 85.8605 26.7356C85.8649 26.7448 85.8723 26.7511 85.8821 26.7547C86.1181 26.8384 86.3702 26.8859 86.6383 26.8971L86.4561 26.906C86.4476 26.906 86.447 26.909 86.4534 26.9139C86.4669 26.9241 86.4794 26.9291 86.4906 26.9291C86.5213 26.9284 86.5869 26.9225 86.6869 26.9116C86.7119 26.9113 86.7329 26.9175 86.7495 26.9297C86.7576 26.9357 86.7667 26.9396 86.7765 26.9413C86.8201 26.9482 86.862 26.9426 86.9039 26.9521C87.1781 27.0141 87.3974 26.9934 87.7547 26.9742C87.8111 26.9713 87.8689 26.9634 87.9281 26.9505C88.0389 26.9268 88.1478 26.9096 88.2573 26.8744C88.3655 26.8394 88.4675 26.8157 88.5757 26.7686C88.6467 26.7376 88.7224 26.7152 88.7883 26.6773C88.8799 26.6242 88.9728 26.5734 89.0672 26.5243C89.104 26.5052 89.1412 26.4768 89.1794 26.4393C89.2673 26.3532 89.3795 26.2965 89.4596 26.2023C89.5708 26.0717 89.6833 25.9425 89.7979 25.8143C89.9206 25.6765 89.9872 25.4834 90.0697 25.3219C90.1092 25.2444 90.1809 25.2098 90.2329 25.1445C90.2779 25.0882 90.3147 25.0371 90.3881 25.0091C90.4195 24.9972 90.4499 24.982 90.479 24.9636C90.4878 24.958 90.4986 24.956 90.5094 24.9576C90.5632 24.9665 90.5943 24.9405 90.6395 24.9425C90.6865 24.9445 90.7271 24.959 90.7744 24.959C90.8133 24.959 90.8511 24.9629 90.8887 24.9712C90.9289 24.9801 90.9664 24.9827 91.0005 24.9791C91.0719 24.9715 91.1391 24.9715 91.202 24.9791C91.2544 24.985 91.2902 25.0335 91.2794 25.0839C91.2449 25.2477 91.2368 25.3954 91.1354 25.5513C91.0472 25.6874 90.9911 25.8331 90.9157 25.9518C90.7406 26.2283 90.5446 26.4894 90.3272 26.7353C90.1156 26.9746 89.8645 27.145 89.6144 27.3315C89.5755 27.3605 89.5228 27.3915 89.4565 27.4242C89.3815 27.4611 89.3153 27.5155 89.2426 27.5445C89.1719 27.5722 89.1006 27.5985 89.0286 27.6232C89.0083 27.6302 88.9583 27.6539 88.8786 27.6948C88.8238 27.7228 88.764 27.738 88.6994 27.7409C88.6883 27.7416 88.6778 27.7449 88.668 27.7505C88.5926 27.7956 88.5088 27.8148 88.4168 27.8075C88.4064 27.8065 88.3962 27.8098 88.3881 27.8161C88.3303 27.8599 88.2658 27.8856 88.1944 27.8935C88.067 27.9074 87.947 27.9285 87.8213 27.9258C87.8105 27.9258 87.8003 27.9281 87.7912 27.9334C87.7381 27.9634 87.6847 27.9713 87.6313 27.9568C87.5238 27.9275 87.4478 27.9575 87.368 27.9585C87.2936 27.9591 87.2436 27.9588 87.152 27.9677C87.0902 27.9736 87.0402 27.9423 86.984 27.9423C86.8793 27.942 86.7745 27.9417 86.6694 27.942C86.6352 27.942 86.596 27.9347 86.5517 27.9206C86.4743 27.8955 86.4033 27.9074 86.3307 27.8919C86.2398 27.8724 86.1823 27.8682 86.1029 27.8602C86.0221 27.852 85.9356 27.825 85.8487 27.8098C85.8145 27.8042 85.7824 27.7933 85.7517 27.7778C85.5776 27.6902 85.3795 27.6519 85.2024 27.5616C84.9773 27.4469 84.7627 27.3223 84.5589 27.1875C84.5734 27.1628 84.568 27.142 84.5426 27.1252C84.5214 27.111 84.5021 27.0939 84.4848 27.0734C84.4781 27.0655 84.4696 27.0593 84.4598 27.0553C84.397 27.0293 84.3361 26.9868 84.277 26.9284C84.2435 26.8872 84.1823 26.8335 84.0938 26.7672C84.0779 26.7554 84.0492 26.7274 84.0079 26.6832C83.993 26.667 83.9623 26.6423 83.9156 26.609C83.8595 26.5688 83.8251 26.5006 83.7811 26.4544C83.7179 26.3875 83.6692 26.3117 83.6348 26.2267C83.6307 26.2168 83.6246 26.2082 83.6165 26.2013C83.5776 26.1687 83.5442 26.1324 83.5154 26.0925C83.5127 26.0889 83.4881 26.0586 83.4418 26.0019C83.4211 25.9765 83.4059 25.9481 83.3958 25.9165C83.3424 25.75 83.2251 25.6139 83.1781 25.4428C83.1349 25.2853 83.0483 25.1597 83.0193 24.9969C83.0051 24.9178 82.9814 24.841 82.9479 24.7661C82.9317 24.7299 82.9199 24.6567 82.9125 24.5469C82.8952 24.2875 82.8263 24.0225 82.8492 23.7931C82.8756 23.5261 82.8773 23.2506 82.9267 22.9977C82.9645 22.8033 82.9959 22.6757 83.0213 22.6147C83.0551 22.532 83.0933 22.3975 83.1362 22.211C83.146 22.1698 83.1754 22.0781 83.2248 21.9361C83.2268 21.9301 83.2312 21.9252 83.2369 21.9219C83.2494 21.915 83.2565 21.9054 83.2582 21.8925C83.2599 21.8817 83.264 21.8721 83.2704 21.8632C83.3076 21.8121 83.3542 21.7317 83.41 21.6216C83.4556 21.5316 83.5574 21.3774 83.7152 21.1585C83.7199 21.1516 83.7328 21.1265 83.7537 21.083C83.7713 21.0468 83.8082 21.0233 83.8295 20.9924C84.0326 20.6934 84.3669 20.3908 84.6444 20.1832C84.665 20.168 84.6775 20.1393 84.6988 20.1268C84.7755 20.0823 84.8509 20.0365 84.9253 19.9887C84.9648 19.9633 85.0152 19.9633 85.0453 19.9412C85.17 19.8499 85.2846 19.7843 85.3887 19.7444C85.4242 19.7306 85.4536 19.7158 85.4769 19.6996C85.5627 19.6406 85.7382 19.5711 85.8429 19.5625C85.8527 19.5615 85.8612 19.5595 85.869 19.5559C85.941 19.5226 86.0211 19.5246 86.0873 19.5035C86.2323 19.4577 86.3773 19.4201 86.5227 19.3908C86.598 19.3845 86.6721 19.3739 86.7447 19.3594C86.8275 19.343 86.9012 19.3351 86.9658 19.336C87.0858 19.3377 87.197 19.34 87.3176 19.3308C87.3721 19.3265 87.4234 19.34 87.4765 19.3384C87.5238 19.3367 87.5705 19.3413 87.6164 19.3515C87.6935 19.369 87.7445 19.3756 87.8118 19.3835C87.8689 19.3904 87.9325 19.4155 87.9964 19.4211C88.0068 19.4221 88.0149 19.4267 88.021 19.4349C88.0237 19.4386 88.0271 19.4418 88.0315 19.4448C88.0346 19.4471 88.0383 19.4481 88.0427 19.4484C88.2783 19.4653 88.5013 19.5252 88.7119 19.6281C88.7454 19.6446 88.7869 19.6465 88.8214 19.6742C88.8251 19.6772 88.8295 19.6795 88.8343 19.6812L88.9269 19.7105C88.9296 19.7111 88.9323 19.7092 88.9323 19.7065V19.6973C88.9323 19.6927 88.9343 19.6914 88.9387 19.693L89.2314 19.8137M90.3215 20.6595L90.0957 20.432C90.0957 20.432 90.0943 20.4304 90.0947 20.4294C90.095 20.4264 90.0947 20.4238 90.0937 20.4211C90.0923 20.4172 90.0886 20.4136 90.0829 20.4103C90.0237 20.378 89.9804 20.3312 89.9531 20.2695C89.9487 20.2596 89.9402 20.252 89.9297 20.2481C89.8709 20.2273 89.825 20.2026 89.7915 20.1736C89.777 20.1611 89.7631 20.1535 89.7499 20.1505C89.7391 20.1482 89.7296 20.1436 89.7219 20.136C89.6887 20.106 89.6651 20.0876 89.6509 20.0806C89.6414 20.0764 89.6336 20.0764 89.6272 20.081C89.614 20.0909 89.6154 20.0984 89.6306 20.1037C89.6661 20.1162 89.6935 20.139 89.7121 20.1719C89.7175 20.1812 89.7252 20.1884 89.7347 20.1927C89.8223 20.2333 89.8939 20.3127 89.9754 20.3661C90.0176 20.3941 90.0528 20.4231 90.0805 20.4538C90.1112 20.4877 90.142 20.5217 90.1724 20.5556C90.2167 20.6047 90.2637 20.6426 90.314 20.6693C90.338 20.6822 90.3404 20.6789 90.3215 20.6595ZM89.491 21.265C89.4697 21.2178 89.4393 21.1809 89.3997 21.1539C89.3981 21.1526 89.396 21.1519 89.394 21.1519C89.391 21.1519 89.3876 21.1522 89.3845 21.1526C89.3764 21.1535 89.3703 21.1506 89.3659 21.1437C89.3389 21.1005 89.3027 21.0685 89.2575 21.0477C89.2253 21.0332 89.203 21.0072 89.1716 20.9917C89.1378 20.9749 89.1158 20.9624 89.106 20.9541C89.0401 20.8988 88.9881 20.8193 88.8985 20.7864C88.8961 20.7854 88.8948 20.7837 88.8948 20.7814C88.8948 20.7788 88.8941 20.7761 88.8931 20.7732C88.8917 20.7699 88.889 20.7669 88.885 20.7646C88.8491 20.7428 88.8136 20.727 88.7785 20.7175C88.7224 20.7138 88.6774 20.6278 88.595 20.612C88.5838 20.61 88.5743 20.6054 88.5666 20.5978C88.5223 20.556 88.4699 20.5266 88.4101 20.5101C88.3577 20.4953 88.306 20.4805 88.2549 20.465L87.9538 20.377C87.8074 20.3344 87.6803 20.3091 87.5718 20.3002C87.3376 20.2817 87.0652 20.2847 86.7539 20.3087C86.743 20.3097 86.7329 20.3124 86.7231 20.317C86.6998 20.3288 86.6748 20.3325 86.6484 20.3275C86.6373 20.3252 86.6268 20.3265 86.6163 20.3308C86.5882 20.3424 86.5517 20.3496 86.5071 20.3526C86.4115 20.3588 86.3347 20.4442 86.2377 20.4574C86.1603 20.4679 86.112 20.4792 86.0924 20.4907C85.9961 20.5477 85.8919 20.583 85.7797 20.5968C85.773 20.5978 85.7686 20.6014 85.7669 20.608C85.7652 20.613 85.7615 20.6163 85.7557 20.6182C85.6952 20.6374 85.6395 20.6651 85.5884 20.701C85.5617 20.7198 85.5273 20.7211 85.5076 20.7567C85.5022 20.7662 85.4948 20.7742 85.4857 20.7801C85.4468 20.8055 85.4103 20.8328 85.3758 20.8622C85.34 20.8931 85.293 20.91 85.2538 20.9393C85.2112 20.9713 85.1821 20.992 85.1666 21.0013C85.0757 21.0547 85.0202 21.0942 84.9996 21.1199C84.8648 21.2874 84.7265 21.4518 84.5842 21.6134C84.5139 21.6935 84.4057 21.8583 84.2594 22.1078C84.2283 22.1612 84.2019 22.2222 84.1803 22.2904C84.155 22.3718 84.1316 22.4341 84.1107 22.4779C83.9792 22.7528 83.9045 22.9991 83.8862 23.2166C83.8771 23.3264 83.868 23.4365 83.8592 23.5469C83.8477 23.6936 83.8629 23.8307 83.8781 23.9734C83.8822 24.0116 83.914 24.041 83.9532 24.0426C84.0069 24.0453 84.0603 24.0367 84.1137 24.0166C84.3973 23.9098 84.6822 23.8076 84.9692 23.7097C85.1257 23.6563 85.3072 23.5505 85.5124 23.4773C85.6006 23.446 85.6817 23.4141 85.7564 23.3817C86.2239 23.18 86.7049 23.0043 87.1794 22.8174C87.2075 22.8062 87.2284 22.8003 87.2423 22.8C87.2568 22.7996 87.2656 22.7931 87.268 22.7805C87.5556 22.6774 87.8047 22.5795 88.0153 22.4875C88.0264 22.4826 88.0369 22.4796 88.046 22.4783C88.0569 22.4766 88.0667 22.4723 88.0751 22.4657C88.0869 22.4562 88.1008 22.4493 88.1167 22.4456C88.1285 22.443 88.1397 22.4387 88.1505 22.4331C88.2485 22.382 88.3475 22.3596 88.45 22.3207C88.5138 22.2963 88.5777 22.2967 88.6379 22.267C88.7322 22.2205 88.8285 22.1777 88.9262 22.1381C89.0195 22.1002 89.1114 22.0587 89.2017 22.0129C89.2919 21.9674 89.3835 21.9248 89.4772 21.8856C89.5867 21.8395 89.8074 21.7709 89.7462 21.6097C89.6945 21.4736 89.6096 21.3589 89.491 21.265Z" fill="#929AAB"/>
<path d="M56.7852 20.5958L56.9001 20.6374C56.9024 20.6383 56.9038 20.6374 56.9048 20.6354L56.9079 20.6275C56.9089 20.6252 56.9082 20.6232 56.9058 20.6219C56.8676 20.5998 56.8267 20.5846 56.7828 20.5764C56.774 20.5747 56.7672 20.5701 56.7625 20.5629C56.7534 20.5487 56.7399 20.5418 56.7226 20.5414C56.7152 20.5414 56.7078 20.5391 56.702 20.5345C56.6182 20.4729 56.5344 20.4396 56.4505 20.4346C56.4232 20.433 56.4032 20.4277 56.3907 20.4188C56.3836 20.4135 56.3758 20.4103 56.367 20.4089C56.3302 20.4033 56.2947 20.3928 56.2613 20.377C56.221 20.3582 56.1872 20.347 56.1599 20.344C55.9084 20.3157 55.6387 20.3499 55.4108 20.3344C55.3415 20.3295 55.2783 20.3344 55.2212 20.3486L54.9015 20.4017C54.8957 20.4027 54.892 20.4056 54.8896 20.4106C54.8876 20.4145 54.8839 20.4168 54.8785 20.4172C54.747 20.4281 54.6179 20.4524 54.4918 20.4903C54.4499 20.5029 54.4076 20.5134 54.3647 20.5223C54.3002 20.5355 54.2596 20.584 54.1994 20.6074C54.0778 20.6548 53.9747 20.699 53.8665 20.7814C53.7908 20.8394 53.6907 20.8968 53.6323 20.9709C53.5038 21.1341 53.3794 21.3104 53.3213 21.5099C53.301 21.5794 53.3027 21.7076 53.326 21.8945C53.3494 22.0438 53.3977 22.144 53.4714 22.1955C53.4626 22.2861 53.5758 22.3504 53.6505 22.4048C53.6843 22.4291 53.7374 22.4558 53.8094 22.4845C53.8702 22.5089 53.9263 22.5415 53.9777 22.5821C54.0173 22.6134 54.0565 22.6338 54.095 22.6434C54.1879 22.6665 54.2819 22.6869 54.3765 22.7047C54.3789 22.7047 54.3982 22.7067 54.434 22.709C54.4945 22.7129 54.5381 22.7387 54.6145 22.7479C54.625 22.7489 54.6348 22.7525 54.6436 22.7588C54.7308 22.8201 54.8082 22.8217 54.9069 22.8471C54.9383 22.855 54.9701 22.8593 55.0022 22.86C55.1137 22.8616 55.2391 22.8778 55.3419 22.9038C55.4105 22.9209 55.4805 22.9298 55.5518 22.9308C55.5623 22.9308 55.5721 22.9338 55.5812 22.9391C55.5917 22.9453 55.6025 22.9493 55.614 22.9513C55.7451 22.9757 55.8773 22.9885 56.0108 22.9898C56.0554 22.9898 56.0926 22.9961 56.122 23.0076C56.1788 23.0297 56.2079 23.0406 56.2089 23.0409C56.2731 23.0554 56.3093 23.063 56.3174 23.0633C56.3731 23.0666 56.4282 23.0755 56.4826 23.0897C56.6398 23.1312 56.7994 23.1668 56.9613 23.1965C57.1002 23.2219 57.2408 23.2641 57.3824 23.3224C57.403 23.33 57.427 23.3402 57.4544 23.3531C57.4618 23.3564 57.4862 23.3649 57.5271 23.3784C57.5575 23.3883 57.5842 23.4051 57.6075 23.4289C57.615 23.4368 57.6254 23.4414 57.6366 23.4417C57.7191 23.446 57.7789 23.4945 57.8424 23.5182C57.906 23.5416 57.9648 23.5736 58.0192 23.6141C58.0547 23.6408 58.1051 23.6527 58.1372 23.6955C58.1422 23.7018 58.1487 23.7051 58.1568 23.7054C58.1612 23.7054 58.1659 23.7061 58.1703 23.7071C58.1767 23.7087 58.1831 23.7137 58.1896 23.7212C58.2129 23.7493 58.2436 23.7674 58.2818 23.7756C58.5428 24.0139 58.7155 24.1804 58.8409 24.4705C58.8896 24.5829 58.9386 24.6946 58.9883 24.8063C59.0238 24.8858 59.043 25.0094 59.0467 25.1772C59.0542 25.5269 59.0271 25.811 58.9656 26.0302C58.9203 26.1911 58.8287 26.3855 58.6908 26.614C58.6212 26.7296 58.5211 26.8226 58.4309 26.9271C58.3552 27.0148 58.2291 27.1146 58.053 27.2267C58.0506 27.2284 57.9983 27.2649 57.8962 27.3365C57.8137 27.3948 57.7076 27.434 57.6292 27.47C57.5294 27.5155 57.428 27.5576 57.325 27.5962C57.3064 27.6031 57.2864 27.6058 57.2651 27.6038C57.2543 27.6028 57.2455 27.6064 57.2391 27.6147C57.2273 27.6298 57.211 27.6404 57.1904 27.6463C57.1272 27.6644 57.064 27.6826 57.0008 27.701C56.9677 27.7106 56.9035 27.7238 56.8085 27.7403C56.7558 27.7492 56.6915 27.7637 56.6155 27.7834C56.5502 27.8002 56.437 27.8171 56.2751 27.8332C56.2014 27.8405 56.0872 27.8431 55.932 27.8414C55.8056 27.8398 55.6826 27.847 55.5629 27.8625C55.468 27.8474 55.3733 27.8381 55.279 27.8352C55.1918 27.8322 55.0705 27.8078 54.9616 27.823C54.9339 27.8058 54.9032 27.7936 54.8697 27.7867C54.7443 27.7604 54.6189 27.7363 54.4928 27.7145C54.484 27.7129 54.4766 27.7093 54.4702 27.7033C54.4641 27.6977 54.4567 27.6951 54.4475 27.6951C54.3843 27.6948 54.3228 27.6862 54.263 27.6694C54.2278 27.6595 54.1923 27.6704 54.1585 27.6407C54.1504 27.6335 54.141 27.6285 54.1305 27.6255C54.0669 27.6087 54.0112 27.5936 53.951 27.558C53.902 27.529 53.8503 27.5046 53.7959 27.4848C53.7854 27.4812 53.7759 27.4825 53.7675 27.4894C53.7553 27.499 53.7425 27.5016 53.7293 27.4967C53.6931 27.4838 53.6644 27.4766 53.6431 27.4749C53.5511 27.441 53.4599 27.3984 53.3676 27.3678C53.2912 27.3424 53.2236 27.3029 53.1645 27.2485C53.1618 27.2458 53.1601 27.2425 53.1594 27.2389C53.1594 27.2379 53.1594 27.2373 53.1594 27.2363C53.1591 27.2346 53.1574 27.2323 53.1543 27.2297L53.0124 27.1071C53.008 27.1034 53.0029 27.1015 52.9972 27.1011H52.986C52.9776 27.1011 52.9735 27.0972 52.9735 27.0889V27.0797C52.9735 27.0774 52.9725 27.0754 52.9701 27.0741C52.5642 26.8384 52.2671 26.4304 52.07 26.0088C52.0254 25.9132 52.0207 25.7932 51.9602 25.6877C51.9274 25.6297 51.9237 25.4784 51.8966 25.3865C51.8287 25.1541 51.8337 24.9962 52.1417 25.0542C52.2164 25.0684 52.2725 25.0753 52.3103 25.0756C52.3938 25.0763 52.4766 25.071 52.5591 25.0601C52.6318 25.0503 52.6848 25.0526 52.7186 25.0667C52.7957 25.099 52.8332 25.1561 52.8491 25.2411C52.8799 25.4049 52.9367 25.5598 53.0195 25.7052C53.0671 25.7893 53.1226 25.9218 53.204 26.0157C53.2571 26.0767 53.297 26.1363 53.3477 26.193L53.7708 26.5467L54.0832 26.7207C54.0923 26.726 54.1021 26.7296 54.1126 26.732C54.1579 26.7415 54.1937 26.7521 54.2197 26.7636C54.3955 26.8397 54.5587 26.8836 54.7098 26.8948C54.7585 26.8984 54.7984 26.9027 54.8291 26.9073C54.8734 26.9136 55.0725 26.9218 55.0762 26.9254C55.0809 26.9304 55.0867 26.9334 55.0935 26.9343C55.4004 26.9772 55.7157 26.9607 56.025 26.9614C56.0274 26.9614 56.029 26.9607 56.0307 26.9594C56.0351 26.9561 56.0388 26.9521 56.0422 26.9475C56.0466 26.9419 56.052 26.939 56.0591 26.9383L56.2714 26.9231C56.2839 26.9221 56.2957 26.9188 56.3069 26.9129C56.3829 26.872 56.4647 26.8589 56.553 26.8737C56.5641 26.8757 56.5753 26.8711 56.5817 26.8622C56.5999 26.8364 56.6256 26.8256 56.6591 26.8295C56.6611 26.8299 56.6631 26.8295 56.6652 26.8289L56.9967 26.7148C57.0025 26.7128 57.0042 26.7092 57.0018 26.7036L56.9971 26.6924C56.9971 26.6924 56.9967 26.6924 56.9964 26.6924L56.7456 26.7768C56.8014 26.7329 56.8457 26.7049 56.9214 26.6904C56.9542 26.6842 56.9856 26.6756 57.016 26.6641C57.0911 26.636 57.1603 26.5995 57.2236 26.5546C57.2394 26.5431 57.2678 26.5286 57.3084 26.5111C57.3804 26.4798 57.4314 26.4155 57.5034 26.3628C57.5447 26.3325 57.6119 26.3216 57.6484 26.257C57.6542 26.2471 57.6616 26.2385 57.6711 26.2316C57.7329 26.1861 57.7846 26.1311 57.8262 26.0661C57.8309 26.0592 57.8374 26.0543 57.8458 26.052C57.8549 26.0493 57.8597 26.0434 57.8603 26.0345C57.8607 26.0266 57.8634 26.0193 57.8685 26.0127C57.9276 25.9346 57.9699 25.8486 57.9952 25.7553C57.9986 25.7434 58.0047 25.7332 58.0138 25.7246C58.0243 25.7148 58.0324 25.6996 58.0388 25.6795C58.0848 25.5318 58.1274 25.4132 58.0686 25.2866C58.0459 25.2375 58.0324 25.1973 58.028 25.1663C57.9868 24.868 57.8546 24.634 57.5828 24.4797C57.5447 24.4579 57.5129 24.4092 57.4541 24.4029C57.4429 24.4019 57.4324 24.3983 57.423 24.3923C57.2408 24.2783 57.0464 24.1982 56.8376 24.1428C56.7081 24.1082 56.581 24.0664 56.4566 24.0166C56.4083 23.9971 56.3572 23.9872 56.3035 23.9866C56.1943 23.9856 56.0855 23.9767 55.9777 23.9599C55.9608 23.9572 55.9418 23.9408 55.9202 23.9375C55.807 23.92 55.6948 23.8989 55.5829 23.8742C55.5373 23.864 55.473 23.8551 55.3895 23.8475C55.3243 23.8416 55.2597 23.8294 55.1965 23.8112C55.1215 23.7898 55.0448 23.7829 54.9664 23.7901C54.9549 23.7911 54.9441 23.7891 54.9339 23.7842C54.8988 23.7661 54.8619 23.7562 54.8234 23.7545C54.7805 23.7522 54.745 23.7476 54.7169 23.7404C54.673 23.7288 54.628 23.7239 54.5817 23.7255C54.4803 23.6695 54.4104 23.6418 54.3715 23.6421C54.3211 23.6421 54.2731 23.6349 54.2268 23.6194C54.165 23.5986 54.119 23.5848 54.0892 23.5785C54.0031 23.5597 53.9213 23.5281 53.8445 23.4836C53.8384 23.48 53.8273 23.479 53.8114 23.4803C53.8009 23.4813 53.7996 23.4852 53.8077 23.4922C53.8141 23.4978 53.8219 23.5007 53.831 23.5014C53.8344 23.5014 53.8374 23.5024 53.8398 23.5044C53.8428 23.5063 53.8425 23.5073 53.8388 23.507L53.7198 23.4978C53.6607 23.4638 53.5971 23.4355 53.5292 23.4127C53.5238 23.4111 53.52 23.4088 53.5184 23.4058C53.5167 23.4035 53.5153 23.4009 53.515 23.3979C53.5143 23.3946 53.5123 23.3923 53.5089 23.391C53.4454 23.3679 53.3842 23.3399 53.3257 23.3072C53.2743 23.2789 53.2172 23.1925 53.1719 23.179C53.0681 23.1477 52.9792 23.095 52.9052 23.0208C52.8613 22.9766 52.8062 22.9483 52.7555 22.8972C52.6281 22.7683 52.5351 22.6296 52.4773 22.4812C52.4766 22.4793 52.4753 22.4783 52.4729 22.4783C52.4695 22.4783 52.4668 22.4783 52.4648 22.4763C52.4635 22.4753 52.4624 22.474 52.4621 22.4723C52.4506 22.4249 52.4367 22.3781 52.4202 22.3322C52.4117 22.3082 52.4043 22.2703 52.3982 22.2179C52.3915 22.1622 52.3597 22.1144 52.3519 22.0639C52.3005 21.7248 52.333 21.3694 52.4689 21.0517C52.4973 20.9854 52.5158 20.9212 52.5513 20.8592C52.6622 20.6654 52.7467 20.5388 52.8052 20.4798C52.8768 20.4076 52.9475 20.3344 53.0174 20.2609C53.0506 20.2263 53.1023 20.2033 53.134 20.1568C53.1371 20.1522 53.1405 20.1492 53.1442 20.1479C53.1472 20.1469 53.1503 20.1466 53.1533 20.1462C53.157 20.1459 53.1604 20.1446 53.1631 20.1416C53.2459 20.0493 53.3426 19.9752 53.4535 19.9188C53.4734 19.9086 53.5021 19.8888 53.5397 19.8595C53.5998 19.812 53.6573 19.8077 53.7276 19.7863C53.7965 19.7655 53.8395 19.7108 53.9172 19.6917C53.9257 19.6897 53.9334 19.6861 53.9405 19.6808C53.952 19.6722 53.9689 19.6656 53.9912 19.661C54.0385 19.6511 54.0821 19.6264 54.1224 19.5865C54.1301 19.579 54.1396 19.5734 54.1504 19.5697C54.1893 19.5572 54.2285 19.5447 54.2677 19.5318C54.3326 19.5107 54.408 19.5061 54.4786 19.488C54.5131 19.4791 54.5439 19.4732 54.5706 19.4699C54.6706 19.4577 54.7696 19.4402 54.868 19.4171C54.8866 19.4128 54.9082 19.4023 54.9332 19.3861C54.9893 19.3499 55.0732 19.3697 55.1357 19.3739C55.1411 19.3743 55.1452 19.3769 55.1475 19.3815C55.1496 19.3851 55.1529 19.3871 55.1577 19.3875C55.2648 19.3881 55.3716 19.3878 55.4788 19.3861C55.4849 19.3858 55.4886 19.3835 55.4903 19.3792C55.4926 19.3739 55.4964 19.3716 55.5021 19.372C55.5285 19.3733 55.5545 19.371 55.5805 19.3654C55.6187 19.3565 55.6454 19.3601 55.6606 19.3756C55.6826 19.3977 55.7215 19.4016 55.7566 19.3848C55.7951 19.3667 55.8377 19.3647 55.8847 19.3792C56 19.4145 56.1183 19.4287 56.2396 19.4211C56.2555 19.4201 56.2704 19.4227 56.2842 19.4296C56.2944 19.4346 56.3052 19.4372 56.3163 19.4372C56.3934 19.4372 56.4701 19.4399 56.5469 19.4445C56.5928 19.4474 56.6395 19.4583 56.6865 19.4771C56.7314 19.4952 56.7764 19.5127 56.8217 19.5295C56.8659 19.5457 56.8943 19.5595 56.9068 19.5704C56.9386 19.5991 56.9751 19.6182 57.0164 19.6277C57.0714 19.6406 57.0995 19.6475 57.1012 19.6478C57.183 19.6759 57.2611 19.7111 57.3358 19.7537C57.399 19.7893 57.4801 19.8146 57.5497 19.8654C57.5872 19.8931 57.6319 19.9195 57.6836 19.9445C57.766 19.9844 57.8428 20.0411 57.9303 20.0777C57.9408 20.082 57.9486 20.0889 57.9543 20.0984C57.9557 20.1007 57.957 20.1034 57.9587 20.1057C57.9631 20.1126 57.9621 20.1139 57.955 20.1096L57.9202 20.0889C57.9158 20.0862 57.91 20.0852 57.905 20.0866C57.9019 20.0872 57.8985 20.0879 57.8952 20.0889C57.8887 20.0902 57.885 20.0876 57.8843 20.0813C57.882 20.0602 57.8695 20.051 57.8475 20.0536C57.8363 20.0546 57.8269 20.0516 57.8191 20.044C57.7924 20.018 57.7698 19.9989 57.7512 19.987C57.6971 19.9527 57.6941 19.9567 57.7417 19.9989C57.7576 20.0131 57.7816 20.0355 57.8134 20.0661C57.8178 20.0704 57.8228 20.0727 57.8289 20.0727H57.8445C57.8462 20.0727 57.8475 20.0734 57.8485 20.0744C57.9158 20.1413 57.9993 20.2092 58.0993 20.2777C58.1544 20.3157 58.2041 20.3621 58.2484 20.4178C58.3089 20.4946 58.3521 20.5461 58.3775 20.5724C58.4813 20.6812 58.5492 20.7741 58.581 20.8516C58.6354 20.9831 58.7111 21.116 58.7574 21.2396C58.8379 21.4555 58.9605 21.7132 58.9085 21.9433C58.9011 21.9772 58.8673 21.999 58.8321 21.9931C58.7784 21.9838 58.7287 21.9657 58.6749 21.9657C58.5022 21.966 58.3298 21.9703 58.1578 21.9792C58.0861 21.9828 58.0155 22.0138 57.98 21.9291C57.9002 21.7393 57.8326 21.5405 57.7326 21.3678C57.6552 21.2346 57.5981 21.1522 57.5609 21.1202C57.4808 21.052 57.402 20.9825 57.3246 20.9113C57.1725 20.7715 56.9687 20.6894 56.7855 20.5962M57.38 19.7886C57.2996 19.7418 57.2212 19.751 57.1499 19.6755C57.1414 19.6666 57.1313 19.662 57.1191 19.6614C57.1066 19.6607 57.0948 19.6567 57.084 19.6495C57.0745 19.6429 57.064 19.6393 57.0522 19.6383C56.9315 19.6291 56.8166 19.5724 56.6963 19.5506C56.6523 19.5427 56.6148 19.5144 56.5614 19.5193C56.5502 19.5203 56.5394 19.5193 56.529 19.5153C56.511 19.5084 56.482 19.5022 56.4421 19.4959C56.2318 19.4633 56.0601 19.4497 55.9266 19.4557C55.8901 19.4573 55.8462 19.4323 55.8019 19.4306C55.5339 19.4217 55.2655 19.4194 54.9971 19.4237C54.9792 19.4237 54.963 19.429 54.9484 19.4392C54.9407 19.4445 54.9322 19.4468 54.9224 19.4458C54.9143 19.4448 54.9065 19.4458 54.8988 19.4484C54.8863 19.4527 54.8866 19.456 54.8994 19.4586C55.0161 19.4821 55.1438 19.454 55.2314 19.4537C55.3625 19.453 55.47 19.4554 55.619 19.4669C55.6924 19.4725 55.7867 19.4514 55.856 19.4718C55.9773 19.5078 56.1284 19.4853 56.2055 19.4959C56.56 19.5443 56.8446 19.6034 57.0593 19.6722C57.0873 19.6811 57.137 19.7075 57.2087 19.7513C57.3057 19.8107 57.404 19.8443 57.5065 19.8766C57.5298 19.8842 57.5325 19.8796 57.5146 19.8631C57.4825 19.8338 57.4243 19.8146 57.38 19.7886Z" fill="#929AAB"/>
<path d="M72.8186 27.561C72.8011 27.6252 72.8011 27.7109 72.7078 27.7261C72.5313 27.7551 72.3779 27.7155 72.2058 27.733C72.0676 27.7472 71.9364 27.7432 71.8131 27.7211C71.8195 27.3724 71.83 27.0428 71.7982 26.7056C71.7891 26.6087 71.7867 26.5059 71.7914 26.3967C71.8141 25.875 71.8259 25.3532 71.8273 24.8311C71.8276 24.7566 71.8171 24.6847 71.8236 24.6112C71.8347 24.483 71.8377 24.3541 71.8323 24.2252C71.832 24.2233 71.8306 24.2206 71.8279 24.217C71.8242 24.2121 71.8225 24.2065 71.8229 24.2005C71.8252 24.0555 71.8198 23.9075 71.8266 23.7667C71.8381 23.5367 71.8469 23.3066 71.8526 23.0765C71.8607 22.7677 71.8922 22.4835 71.9256 22.1869C71.9354 22.1002 71.9726 21.9984 71.977 21.9222C71.98 21.8738 71.9956 21.8049 72.0243 21.7162C72.0811 21.5412 72.1281 21.4041 72.1653 21.3048C72.2995 20.9465 72.5519 20.5619 72.8467 20.3107C73.0302 20.1545 73.2212 20.0081 73.4203 19.872C73.4713 19.8371 73.5325 19.813 73.6038 19.8001C73.6846 19.7853 73.7333 19.7194 73.7975 19.6891C73.8472 19.6657 73.9097 19.6274 73.9655 19.6274C73.9766 19.6274 73.9871 19.6248 73.9969 19.6195C74.0713 19.58 74.15 19.604 74.2328 19.5493C74.242 19.543 74.2524 19.5394 74.2636 19.5384C74.3349 19.5322 74.4005 19.5292 74.4688 19.5025C74.4988 19.4903 74.5293 19.4788 74.56 19.4679C74.6053 19.4514 74.6618 19.4554 74.7128 19.433C74.7233 19.4287 74.7338 19.427 74.7449 19.428C74.8423 19.4382 74.9298 19.4049 75.0153 19.4049C75.1417 19.4049 75.2681 19.4049 75.3946 19.4046C75.4564 19.4046 75.5125 19.3736 75.5811 19.3776C75.762 19.3875 75.9425 19.3977 76.1226 19.4079C76.1615 19.4102 76.1933 19.4382 76.1997 19.4755C76.2311 19.6581 76.1821 19.8489 76.1814 19.9999C76.1811 20.082 76.1841 20.1644 76.1905 20.2471C76.1949 20.3041 76.1466 20.3516 76.0881 20.3476L75.7755 20.3259C75.7633 20.3249 75.7525 20.3209 75.743 20.3134C75.7326 20.3051 75.7207 20.3012 75.7079 20.3015C75.6085 20.3041 75.5122 20.3199 75.4148 20.3206C75.2455 20.3216 75.0772 20.3358 74.9099 20.3628C74.9021 20.3641 74.8957 20.3674 74.8906 20.3724C74.8852 20.378 74.8784 20.3816 74.8706 20.3832C74.7229 20.4139 74.5749 20.4445 74.4269 20.4749C74.3336 20.4937 74.2636 20.5362 74.1828 20.5813C74.0409 20.6604 73.8671 20.7072 73.7765 20.7887C73.5156 21.0217 73.3415 21.1667 73.2219 21.4377C73.1651 21.5666 73.1211 21.6618 73.09 21.7241C72.965 21.9743 72.8845 22.2525 72.8758 22.5241C72.8683 22.7403 72.8311 22.9506 72.8281 23.1682C72.8278 23.2077 72.8524 23.2628 72.8491 23.2901C72.8311 23.4365 72.823 23.538 72.8254 23.595C72.8399 23.947 72.8325 24.2987 72.8024 24.6498C72.795 24.7368 72.8217 24.8736 72.82 24.9797C72.8115 25.4583 72.8075 25.9369 72.8075 26.4159C72.8075 26.4488 72.7967 26.4937 72.7956 26.5368C72.7872 26.905 72.795 27.2462 72.8186 27.561Z" fill="#929AAB"/>
<path d="M68.894 21.3385C68.9478 21.4627 69.0107 21.585 69.0823 21.7053C69.1083 21.7488 69.1317 21.794 69.1523 21.8405C69.201 21.9502 69.2398 22.1045 69.2973 22.2264C69.3362 22.3092 69.3808 22.3853 69.4021 22.474C69.4227 22.5587 69.4406 22.6437 69.4561 22.7294C69.4751 22.8362 69.519 22.9865 69.5308 23.1253C69.5511 23.361 69.5599 23.5772 69.5575 23.7747C69.543 23.9352 69.5477 24.0937 69.5194 24.2473C69.473 24.4965 69.4321 24.7434 69.3378 24.9817C69.1807 25.3786 69.0157 25.7487 68.77 26.0948C68.6581 26.252 68.5391 26.4043 68.4134 26.5513C68.3637 26.6093 68.2451 26.7214 68.0568 26.8879C67.7817 27.1308 67.4633 27.3048 67.1736 27.4644C67.0894 27.5108 67.0144 27.5484 66.9485 27.5778C66.8623 27.6157 66.7758 27.6536 66.6896 27.6915C66.6135 27.7248 66.5307 27.7182 66.4513 27.762C66.4415 27.7676 66.431 27.7699 66.4195 27.7689C66.3668 27.7647 66.3269 27.7933 66.285 27.7986C66.1447 27.8157 65.9967 27.853 65.8679 27.8642C65.6262 27.885 65.3967 27.8906 65.1791 27.8807C65.1213 27.878 65.0682 27.8517 65.0087 27.8494C64.837 27.8431 64.6612 27.8504 64.4922 27.8148C64.4128 27.7979 64.3378 27.7927 64.2607 27.7686C64.1438 27.7324 64.0258 27.7 63.9072 27.6714C63.8933 27.6677 63.8679 27.6542 63.8318 27.6308C63.8233 27.6252 63.8139 27.6216 63.8037 27.6203C63.7476 27.613 63.7158 27.5761 63.6776 27.5573C63.5634 27.5013 63.437 27.4545 63.3339 27.3823C63.269 27.3371 63.2034 27.2795 63.1267 27.2521C63.0939 27.2406 63.0665 27.2277 63.0452 27.2135C62.9087 27.1236 62.7975 27.0395 62.7116 26.962C62.5768 26.8404 62.4439 26.7323 62.3375 26.6176C62.1742 26.4419 62.061 26.3038 61.9981 26.2026C61.9603 26.1416 61.9261 26.0912 61.8957 26.051C61.7963 25.9198 61.7348 25.786 61.6506 25.6525C61.5969 25.5674 61.5847 25.4709 61.5371 25.3792C61.506 25.3196 61.4823 25.2642 61.4664 25.2131C61.4384 25.1248 61.3931 25.045 61.3721 24.9593C61.3231 24.7566 61.2575 24.5516 61.24 24.3442C61.1994 23.8669 61.1521 23.4299 61.2623 22.9625C61.292 22.8362 61.3258 22.6968 61.364 22.5442C61.4492 22.2011 61.5918 21.9001 61.7574 21.5916C61.8213 21.4726 61.8785 21.3747 61.9295 21.2979C62.1205 21.0102 62.3476 20.7517 62.6109 20.5223C62.7049 20.4403 62.7999 20.3595 62.8962 20.2801C62.9465 20.2382 63.0108 20.1934 63.0888 20.1452C63.1561 20.1037 63.2217 20.0595 63.2852 20.0131C63.3133 20.0048 63.3349 19.99 63.3505 19.9682C63.3565 19.9597 63.3653 19.9528 63.3751 19.9488C63.4282 19.9267 63.4745 19.9145 63.5228 19.8809C63.5827 19.839 63.6482 19.8074 63.7196 19.7853C63.7679 19.7705 63.821 19.7491 63.8788 19.7214C63.9224 19.723 63.9048 19.7345 63.8264 19.756C63.824 19.7566 63.823 19.7576 63.8227 19.7589C63.8227 19.7619 63.8237 19.7629 63.827 19.7622C63.8909 19.7467 63.9491 19.7194 64.0011 19.6802C64.0251 19.662 64.0403 19.6749 64.064 19.663C64.1478 19.6212 64.2374 19.5964 64.3324 19.5889C64.3428 19.5879 64.3523 19.5839 64.3601 19.577C64.3773 19.5622 64.3912 19.5539 64.4017 19.5523C64.4932 19.5384 64.5828 19.5219 64.671 19.5028C64.546 19.5114 64.4226 19.5371 64.3006 19.5796C64.2928 19.5826 64.279 19.5809 64.2587 19.5747C64.2479 19.5714 64.2479 19.5681 64.2587 19.5645C64.3148 19.5453 64.3624 19.5414 64.4186 19.5186C64.6585 19.5028 64.8792 19.4339 65.1243 19.4389C65.3653 19.4438 65.606 19.4491 65.8466 19.4547C65.9494 19.457 66.0393 19.4995 66.1356 19.5097C66.2313 19.5196 66.3249 19.5391 66.4165 19.5681C66.4547 19.58 66.4993 19.5747 66.5395 19.5908C66.5845 19.609 66.6311 19.6212 66.6791 19.6278C66.6835 19.6284 66.6865 19.6307 66.6882 19.6347C66.6893 19.637 66.6913 19.6393 66.6936 19.6419C66.695 19.6432 66.6967 19.6442 66.6987 19.6449C66.7443 19.6587 66.7903 19.6719 66.8366 19.6844C66.8471 19.6874 66.8566 19.6924 66.865 19.6996C66.9127 19.7405 67.0266 19.7837 67.1141 19.8311C67.1658 19.8591 67.2334 19.8875 67.3169 19.9158C67.4755 19.9692 67.612 20.0764 67.7435 20.1416C67.7962 20.1677 67.8337 20.2052 67.8848 20.2342C67.8868 20.2356 67.8882 20.2372 67.8875 20.2375C67.8844 20.2385 67.8821 20.2398 67.88 20.2422C67.879 20.2435 67.879 20.2445 67.88 20.2455C67.9821 20.3265 68.0575 20.4221 68.1538 20.5068C68.2789 20.6176 68.3813 20.7395 68.501 20.8533C68.5064 20.8582 68.5118 20.8615 68.5175 20.8628C68.5206 20.8635 68.5239 20.8638 68.527 20.8641C68.5341 20.8648 68.5398 20.8681 68.5442 20.8737L68.6013 20.9469C68.6084 20.9558 68.6125 20.966 68.6142 20.9772C68.6142 20.9805 68.6152 20.9838 68.6162 20.9871C68.6169 20.9904 68.6186 20.9934 68.6213 20.9963C68.7382 21.1206 68.8116 21.2465 68.894 21.3388M64.7028 26.8964C64.7559 26.9238 64.8113 26.9386 64.8691 26.9409C65.0773 26.964 65.2693 26.9545 65.4792 26.9485C65.516 26.9475 65.5738 26.938 65.6533 26.9205C65.7182 26.906 65.7844 26.9034 65.852 26.9129C65.8632 26.9146 65.874 26.9136 65.8845 26.9093C65.9754 26.8734 66.0697 26.8526 66.1674 26.847C66.2144 26.8444 66.2532 26.8236 66.3016 26.82C66.2796 26.8216 66.2725 26.8262 66.2803 26.8341L66.0494 26.8823C66.046 26.8829 66.044 26.8859 66.044 26.8892C66.0443 26.8925 66.047 26.8948 66.0504 26.8951C66.1312 26.8994 66.2076 26.8793 66.2803 26.8341C66.3414 26.8341 66.3999 26.8084 66.4564 26.7564C66.6203 26.7125 66.77 26.6423 66.9049 26.5457C66.9417 26.5194 66.988 26.5121 67.0276 26.4831C67.0925 26.4356 67.1598 26.3941 67.226 26.3483C67.3092 26.2909 67.3751 26.2095 67.4525 26.1387C67.5319 26.0661 67.6005 25.9778 67.6847 25.9063C67.7391 25.8598 67.7813 25.8176 67.8111 25.7804C67.9027 25.665 67.9794 25.572 68.0561 25.431C68.1947 25.1775 68.3455 24.898 68.4208 24.5743C68.4658 24.3815 68.5212 24.186 68.5388 23.9971C68.5709 23.6576 68.5615 23.3389 68.4905 22.9964C68.4638 22.8666 68.4357 22.7367 68.4067 22.6072C68.3864 22.5168 68.3478 22.4018 68.308 22.3207C68.166 22.0326 68.067 21.85 68.0112 21.7732C67.852 21.5547 67.7438 21.4413 67.6188 21.295C67.5677 21.235 67.5278 21.1934 67.4994 21.17C67.371 21.0642 67.2507 20.9963 67.1442 20.8661C67.1107 20.8249 67.0715 20.7946 67.0273 20.7748C66.9951 20.7606 66.963 20.7471 66.9306 20.7339C66.9005 20.7214 66.8691 20.7063 66.837 20.6888C66.7325 20.6321 66.6233 20.585 66.5094 20.5477C66.4435 20.5263 66.3915 20.495 66.331 20.4656C66.3195 20.46 66.3073 20.4581 66.2945 20.4597C66.2718 20.463 66.2536 20.4561 66.24 20.4389C66.2329 20.4304 66.2225 20.4244 66.2113 20.4231C66.1353 20.4136 66.0609 20.3971 65.9889 20.3737C65.9024 20.3453 65.8199 20.3532 65.7314 20.3387C65.6573 20.3265 65.5928 20.3209 65.5377 20.3213C65.3967 20.3223 65.2632 20.2969 65.1273 20.3157C65.0253 20.3298 64.9232 20.3453 64.8208 20.3621C64.8096 20.3638 64.8002 20.3687 64.792 20.3763C64.7812 20.3865 64.7677 20.3898 64.7518 20.3862C64.741 20.3839 64.7312 20.3855 64.7224 20.3918C64.715 20.3967 64.7065 20.3997 64.6974 20.4004C64.6643 20.4027 64.6312 20.4063 64.5984 20.4106C64.5115 20.4218 64.4432 20.4937 64.3804 20.5167C64.2637 20.5592 64.1471 20.6024 64.0305 20.6459C63.9829 20.6637 63.9494 20.6934 63.9072 20.7204C63.897 20.727 63.8676 20.7478 63.8193 20.7831C63.775 20.8157 63.7256 20.8398 63.6712 20.8552C63.6604 20.8582 63.6509 20.8638 63.6432 20.8721C63.5276 20.9901 63.3866 21.0837 63.2764 21.1941C63.2301 21.2406 63.1828 21.2867 63.1348 21.3319C62.8475 21.6028 62.5805 22.0066 62.4318 22.4114C62.3736 22.5696 62.2952 22.7393 62.2624 22.9035C62.2371 23.031 62.21 23.1563 62.1996 23.2812C62.1783 23.534 62.1749 23.7868 62.1901 24.0403C62.1931 24.0871 62.205 24.1521 62.2259 24.2348C62.2574 24.3581 62.2465 24.4846 62.2918 24.601C62.3422 24.7305 62.3892 24.8611 62.4321 24.9929C62.4615 25.0836 62.5038 25.1706 62.5393 25.2609C62.543 25.2711 62.5494 25.2793 62.5585 25.2856C62.592 25.3097 62.619 25.3505 62.6393 25.4089C62.6799 25.5239 62.7556 25.6479 62.8661 25.7804C62.8698 25.7846 62.8746 25.7883 62.8803 25.7906C62.8833 25.7916 62.8864 25.7929 62.8891 25.7945C62.8942 25.7972 62.8982 25.8015 62.9016 25.8071C62.9736 25.9254 63.0648 26.0263 63.1757 26.1103C63.2389 26.1581 63.2862 26.2099 63.3434 26.2606C63.3464 26.2629 63.3498 26.2646 63.3535 26.2652C63.3657 26.2675 63.3734 26.2735 63.3765 26.2837C63.3785 26.2906 63.3826 26.2969 63.3883 26.3018C63.4786 26.378 63.5884 26.4343 63.6763 26.5009C63.7892 26.5859 63.8832 26.6407 63.9579 26.6654C64.0326 26.6901 64.0836 26.7086 64.111 26.7211C64.1164 26.7237 64.1269 26.7267 64.1404 26.7297C64.1583 26.7333 64.1735 26.7422 64.1857 26.7564C64.1928 26.7646 64.2019 26.7699 64.2124 26.7725L64.7028 26.8964Z" fill="#929AAB"/>
<path d="M47.083 19.6795C47.1936 19.7352 47.3139 19.7741 47.4437 19.7955L47.5221 19.8397C47.5975 19.8941 47.6864 19.9168 47.7509 19.9808C47.7983 20.0276 47.8926 20.0526 47.948 20.0958C48.0362 20.1647 48.12 20.223 48.1988 20.2708C48.2471 20.3005 48.2728 20.3384 48.308 20.3793C48.3661 20.4465 48.4503 20.4946 48.5199 20.5556C48.6385 20.6904 48.6835 20.7939 48.766 20.9195C48.7954 20.9643 48.8207 21.0092 48.8413 21.054C48.8633 21.1008 48.8863 21.1469 48.9106 21.1928C49.0249 21.406 49.0918 21.6246 49.1111 21.848C49.1296 22.062 48.8849 21.9908 48.7464 21.9997C48.576 22.0102 48.4094 21.9901 48.242 21.9894C48.2177 21.9894 48.1957 21.9749 48.1863 21.9529C48.1298 21.8217 48.0798 21.6882 48.0362 21.552C48.0193 21.4996 47.9933 21.4532 47.9581 21.4126C47.9054 21.352 47.8726 21.3118 47.8598 21.292C47.7195 21.0767 47.5377 20.9034 47.3136 20.7722C47.2814 20.7534 47.2206 20.7277 47.1304 20.695C47.0661 20.6716 47.0053 20.6416 46.9482 20.6051C46.9384 20.5988 46.9279 20.5971 46.9164 20.5998C46.9036 20.6028 46.8934 20.5988 46.8863 20.5886C46.8806 20.5803 46.8728 20.5747 46.8627 20.5724C46.7934 20.5556 46.7248 20.5378 46.6561 20.5187C46.5338 20.4844 46.4043 20.4815 46.2776 20.4544C46.1752 20.4327 46.0883 20.4201 46.017 20.4172C45.8456 20.4099 45.6935 20.3888 45.5113 20.4389C45.4403 20.4587 45.3744 20.4702 45.3139 20.4732C45.2463 20.4768 45.1787 20.4805 45.1115 20.4844C45.1044 20.4844 45.0983 20.4867 45.0929 20.4904C45.0902 20.492 45.0875 20.494 45.0848 20.496C45.0797 20.4996 45.0743 20.5016 45.0679 20.5019C45.0036 20.5022 44.9435 20.5177 44.8877 20.5477C44.8779 20.553 44.8674 20.5543 44.8566 20.5513C44.767 20.5266 44.7373 20.5724 44.6738 20.5978C44.6051 20.6252 44.5369 20.6522 44.4682 20.6789C44.3858 20.7109 44.3185 20.7554 44.2425 20.7999C44.1661 20.844 44.1025 20.9076 44.0285 20.9577C43.9734 20.995 43.9342 21.051 43.8774 21.0919C43.851 21.1107 43.8314 21.1291 43.8186 21.1466C43.5918 21.4571 43.557 21.788 43.7142 22.1391C43.7987 22.3112 43.9545 22.4219 44.115 22.5396C44.1238 22.5458 44.1336 22.5508 44.1441 22.5537L44.2448 22.5828C44.255 22.5857 44.2631 22.5917 44.2688 22.6002C44.284 22.6236 44.3023 22.6329 44.3229 22.6282C44.4547 22.6932 44.5913 22.7429 44.7329 22.7776C44.74 22.7792 44.7407 22.7776 44.7353 22.7723C44.7339 22.7713 44.7309 22.7696 44.7265 22.7677C44.7258 22.7677 44.7278 22.7664 44.7302 22.7664C44.7454 22.7654 44.7582 22.7703 44.7691 22.7805C44.7768 22.7878 44.7863 22.7914 44.7971 22.7917C44.858 22.7917 44.9161 22.8026 44.9712 22.824C45.0219 22.8435 45.0665 22.8544 45.1047 22.8567C45.1865 22.8619 45.2676 22.8722 45.3484 22.887C45.3907 22.8949 45.4329 22.9022 45.4755 22.9084C45.4812 22.9094 45.4853 22.9124 45.488 22.9173C45.49 22.9216 45.4937 22.9236 45.4992 22.9236C45.5739 22.9229 45.6384 22.9282 45.6935 22.9391C45.6959 22.9391 45.6969 22.9407 45.6972 22.943C45.6976 22.946 45.6989 22.949 45.7009 22.9516C45.7009 22.9523 45.702 22.9526 45.7026 22.9529C45.802 22.9681 45.8933 22.9928 45.994 22.9997C46.1414 23.0096 46.2867 23.031 46.43 23.0643C46.5297 23.0874 46.6112 23.1049 46.6744 23.1167C46.8552 23.1507 46.9999 23.2153 47.1604 23.2328C47.2355 23.2407 47.2936 23.2697 47.3656 23.2855C47.3764 23.2878 47.3862 23.2924 47.3954 23.2987C47.4406 23.3316 47.4924 23.3122 47.5333 23.3445C47.5417 23.3511 47.5515 23.3554 47.5623 23.3574C47.7371 23.3864 47.849 23.416 47.8983 23.4467C47.9561 23.4826 48.0159 23.5142 48.0781 23.5419C48.0842 23.5446 48.091 23.5396 48.0899 23.5334C48.0889 23.5264 48.0839 23.5195 48.0741 23.5126C48.119 23.5281 48.1569 23.5578 48.1978 23.5739C48.2393 23.5904 48.2792 23.6095 48.3178 23.6313C48.3191 23.6319 48.3394 23.6402 48.3786 23.6563C48.4019 23.6659 48.4198 23.682 48.4327 23.7051C48.4378 23.7147 48.4448 23.7226 48.4536 23.7292C48.4743 23.7447 48.4922 23.7624 48.5074 23.7826C48.5784 23.8762 48.674 23.9566 48.7578 24.0397C48.8542 24.1349 48.9505 24.2727 49.0472 24.4527C49.1205 24.6026 49.18 24.7618 49.2263 24.9296C49.2371 24.9692 49.2432 25.0381 49.2449 25.136C49.2483 25.3327 49.2588 25.5338 49.2209 25.722C49.182 25.9148 49.1242 26.1024 49.0468 26.2847C49.0022 26.3901 48.9373 26.4867 48.8751 26.5909C48.7227 26.8473 48.4871 27.0003 48.2782 27.204C48.2306 27.2504 48.1565 27.2752 48.1112 27.3052C48.0115 27.3704 47.928 27.4331 47.8131 27.4769C47.6948 27.522 47.5782 27.5708 47.463 27.6232C47.4302 27.6381 47.3862 27.6522 47.3305 27.6658C47.2669 27.6813 47.2132 27.7099 47.151 27.7185C46.8816 27.7557 46.5919 27.8227 46.3459 27.8451C46.09 27.8685 45.8808 27.8724 45.7185 27.8569C45.465 27.8332 45.2064 27.8227 44.956 27.7722C44.7921 27.7389 44.6356 27.7185 44.4699 27.6694C44.3719 27.6404 44.2766 27.6269 44.1857 27.5791C44.0265 27.496 43.8497 27.4215 43.704 27.3408C43.5262 27.2419 43.389 27.1611 43.2923 27.0982C43.0818 26.9614 42.9462 26.8542 42.8857 26.7771C42.6711 26.5032 42.4845 26.2626 42.3794 25.9264C42.3375 25.7926 42.2847 25.6729 42.258 25.5325C42.23 25.3861 42.1252 25.1778 42.2803 25.0733C42.4085 24.987 42.5437 25.1205 42.6883 25.0898C42.7279 25.0812 42.7657 25.0766 42.8015 25.076C42.8512 25.075 42.9337 25.0875 42.9722 25.046C42.9956 25.0209 43.0371 25.0249 43.0551 25.0539C43.1085 25.1416 43.1321 25.2428 43.1713 25.3255C43.2088 25.4043 43.2359 25.4926 43.271 25.5654C43.3424 25.7141 43.415 25.8624 43.489 26.0101C43.5151 26.0625 43.5719 26.1202 43.6591 26.1835C43.6983 26.2122 43.7273 26.259 43.7777 26.284C43.7828 26.2758 43.7841 26.2804 43.7824 26.2982C43.8186 26.3618 43.8754 26.4093 43.9535 26.4406L44.1296 26.5484C44.2482 26.6285 44.3814 26.6891 44.5294 26.7297L44.5409 26.7448C44.6072 26.7788 44.6754 26.8081 44.7457 26.8328C44.7991 26.8516 44.8559 26.8434 44.9242 26.8681C44.9594 26.8806 45.008 26.8872 45.0706 26.8882C45.1902 26.8898 45.2953 26.9189 45.4096 26.937H45.4099C45.3589 26.935 45.3089 26.9251 45.2598 26.9073C45.2582 26.9067 45.2571 26.9073 45.2565 26.909L45.2541 26.9172C45.2524 26.9225 45.2544 26.9258 45.2598 26.9274C45.4234 26.9769 45.6323 26.9584 45.7783 26.9736C45.8966 26.9861 46.0278 26.9907 46.1157 26.9765C46.2127 26.961 46.2887 26.9515 46.3435 26.9485C46.4107 26.9449 46.5737 26.9399 46.6173 26.8908C46.6234 26.8839 46.6305 26.879 46.6389 26.8753C46.6737 26.8612 46.7099 26.8539 46.7474 26.8539C46.7589 26.8539 46.7694 26.8503 46.7788 26.844C46.79 26.8361 46.8028 26.8312 46.817 26.8292C46.9681 26.8094 47.1101 26.7738 47.2429 26.7221C47.252 26.696 47.2764 26.6779 47.3159 26.6683C47.4319 26.6397 47.5292 26.5813 47.608 26.4927C47.6519 26.4435 47.7607 26.4126 47.8202 26.3615C47.9138 26.2807 47.9963 26.1907 48.0676 26.0909C48.144 25.9834 48.2143 25.8021 48.2353 25.6696C48.3181 25.1541 48.1991 24.6798 47.705 24.4144C47.6451 24.3821 47.5843 24.3472 47.5231 24.3093C47.3926 24.2282 47.2703 24.1962 47.103 24.1511C47.0303 24.1316 46.9583 24.0871 46.8809 24.0647C46.8758 24.0525 46.8684 24.0456 46.8593 24.0436C46.719 24.0159 46.5784 23.9876 46.4381 23.9589C46.3668 23.9444 46.2698 23.893 46.1637 23.9052C46.1532 23.9062 46.1434 23.9039 46.1349 23.8976C46.0646 23.8449 45.9784 23.8926 45.896 23.8251C45.8879 23.8185 45.8787 23.8139 45.8686 23.8112C45.8135 23.7971 45.7584 23.7839 45.7033 23.7723C45.6678 23.7648 45.6333 23.7552 45.5992 23.7433C45.4924 23.7058 45.369 23.7114 45.2565 23.7156C45.2463 23.716 45.2362 23.714 45.2267 23.7097C45.1642 23.6797 45.0932 23.6889 45.0395 23.6758C44.981 23.6616 44.9222 23.6487 44.863 23.6379C44.8505 23.6355 44.8299 23.629 44.8005 23.6187C44.7491 23.6003 44.6869 23.6085 44.641 23.5963C44.5994 23.5848 44.5578 23.5733 44.5162 23.5617C44.4517 23.5436 44.3875 23.5429 44.3205 23.5317C44.2073 23.5126 44.1127 23.4279 44.0045 23.4098C43.9562 23.4015 43.9531 23.4098 43.9954 23.4338L44.1093 23.4991C44.1177 23.5037 44.1265 23.507 44.1356 23.509L44.8424 23.657C44.8424 23.657 44.8424 23.6543 44.8438 23.6491C44.8438 23.6491 44.8438 23.649 44.8438 23.6487C44.6636 23.6352 44.4838 23.6115 44.305 23.5782C44.2272 23.5713 44.1519 23.5535 44.0789 23.5241C44.0282 23.504 43.9582 23.4348 43.8747 23.4223C43.6986 23.3962 43.4995 23.271 43.3623 23.1639C43.315 23.1273 43.2609 23.1157 43.2227 23.0742C43.1581 23.004 43.0939 22.9335 43.0304 22.8626C43.0246 22.8563 43.0162 22.8507 43.0054 22.8458C42.9949 22.8412 42.9871 22.8343 42.9817 22.8247C42.8671 22.6246 42.7762 22.47 42.7154 22.2772C42.6522 22.0771 42.6721 21.8078 42.665 21.5969C42.664 21.5593 42.667 21.522 42.6748 21.4855C42.7525 21.1153 42.957 20.6512 43.2518 20.3967C43.2819 20.3707 43.3028 20.346 43.3146 20.3219C43.3684 20.2886 43.4171 20.2534 43.4607 20.2161C43.5864 20.1087 43.7216 20.0434 43.8609 19.9636C43.9186 19.9307 43.9656 19.9059 44.0018 19.8891C44.1089 19.8394 44.1722 19.8047 44.2607 19.7724C44.3797 19.7289 44.5284 19.6492 44.6372 19.6396C44.8154 19.6238 44.9306 19.6086 44.983 19.5941C45.051 19.5757 45.1071 19.5635 45.1507 19.5572C45.2531 19.543 45.3389 19.5275 45.4343 19.5282C45.4441 19.5282 45.4528 19.5256 45.4606 19.5203C45.4725 19.5121 45.485 19.5074 45.4988 19.5061C45.6783 19.487 45.8419 19.4643 46.0231 19.4919C46.1917 19.5177 46.2766 19.5305 46.2776 19.5308C46.3881 19.5407 46.499 19.548 46.6098 19.5526C46.6751 19.5556 46.7964 19.578 46.8579 19.606C46.9313 19.6393 47.0063 19.6637 47.083 19.6795Z" fill="#929AAB"/>
<path d="M80.0013 26.6505C79.961 27.0052 79.9999 27.3437 79.9381 27.6816C79.9185 27.7894 79.7495 27.7844 79.6677 27.7653C79.5598 27.7399 79.4402 27.7627 79.3574 27.7617C79.2604 27.76 79.1583 27.7613 79.0508 27.7656C79.0008 27.7676 78.9595 27.7281 78.9602 27.6793L78.996 25.1768L79.0058 24.2532C79.0058 24.2499 79.0052 24.247 79.0042 24.244C78.9751 24.1633 79.0089 24.1013 79.0045 24.0291C78.9832 23.6781 79.0045 23.33 79.0684 22.9842C79.0849 22.8956 79.0491 22.8418 79.0501 22.7594C79.0545 22.4061 79.0528 22.0527 79.0444 21.6997C79.0423 21.6091 79.0623 21.5033 79.064 21.4139C79.0751 20.8951 79.0785 20.3763 79.0738 19.8572C79.0731 19.7715 79.0893 19.6937 79.1143 19.6162C79.1218 19.5928 79.1397 19.5737 79.1634 19.5645C79.2654 19.5246 79.3699 19.5183 79.4763 19.5457C79.5473 19.5638 79.694 19.4844 79.811 19.5107C79.9076 19.5325 80.1006 19.4916 80.105 19.6314C80.1111 19.8113 80.1159 19.9834 80.105 20.1696C80.0665 20.8299 80.08 21.494 80.0756 22.1556C80.0749 22.2436 80.057 22.3692 80.057 22.476C80.0574 22.9282 80.0351 23.3814 80.033 23.8343C80.032 24.0779 80.0246 24.3215 80.0111 24.5647C80.0023 24.7266 80.0199 24.8802 80.0171 25.039C80.0077 25.5753 79.9823 26.1146 80.0013 26.6505Z" fill="#929AAB"/>
<path d="M36.2622 19.5892H36.3035C36.3025 19.5915 36.3031 19.5941 36.3048 19.5971C36.3086 19.6027 36.3136 19.605 36.3207 19.6047C36.4076 19.5974 36.4938 19.5991 36.58 19.6093C36.6635 19.6192 36.7676 19.6199 36.8717 19.6548C36.9572 19.6835 37.0555 19.698 37.1671 19.699C37.2127 19.6993 37.2506 19.7075 37.28 19.724C37.3418 19.758 37.3976 19.7794 37.4476 19.7883C37.5068 19.7985 37.5686 19.8094 37.6332 19.8203C37.7349 19.8657 37.8235 19.9241 37.9296 19.9623C38.0848 20.018 38.1949 20.0968 38.3254 20.171C38.371 20.1967 38.4008 20.2148 38.415 20.2254C38.6384 20.3912 38.8517 20.5698 39.0545 20.7613C39.1498 20.8618 39.2127 20.9627 39.2948 21.0632C39.5054 21.3213 39.6872 21.6018 39.8164 21.8893C39.8474 21.9585 39.8725 22.0106 39.891 22.0452C39.9194 22.0976 39.9651 22.2116 39.9448 22.2663C39.9134 22.2828 39.8917 22.3026 39.8792 22.3253C39.7964 22.3534 39.7092 22.414 39.6544 22.442C39.4094 22.5669 39.1583 22.68 38.9014 22.7805C38.799 22.8208 38.679 22.8893 38.5583 22.9279C38.5532 22.9295 38.5495 22.9328 38.5478 22.9378C38.5465 22.9414 38.5438 22.944 38.5394 22.9457C38.4015 22.9981 38.273 23.0693 38.1365 23.1141C37.9438 23.1767 37.815 23.2506 37.667 23.3106C37.6497 23.3178 37.6126 23.3376 37.5554 23.3699C37.5004 23.4012 37.4398 23.4009 37.3885 23.421C37.3182 23.4483 37.2485 23.4767 37.1792 23.5064C37.0947 23.5426 37.0173 23.6168 36.9173 23.6471C36.8412 23.6702 36.7882 23.6893 36.7581 23.7045C36.681 23.7433 36.6283 23.7654 36.6002 23.7704C36.5154 23.7859 36.4323 23.8132 36.3511 23.8531C36.4167 23.8076 36.4955 23.7816 36.5502 23.7223C36.5607 23.711 36.5587 23.7084 36.5448 23.7143L36.0645 23.9187C36.054 23.9233 36.0459 23.9306 36.0409 23.9405C36.0334 23.9543 36.0223 23.9619 36.0077 23.9629C35.8029 23.9797 35.6748 24.1514 35.4406 24.1511C35.4294 24.1511 35.4186 24.155 35.4101 24.1623C35.3733 24.1943 35.3341 24.2233 35.2929 24.2496C35.2929 24.25 35.2918 24.2503 35.2912 24.2503C35.2868 24.2503 35.2827 24.2503 35.2787 24.2503C35.2719 24.2503 35.2655 24.2523 35.2597 24.2559C35.1512 24.3235 35.0363 24.3802 34.9153 24.4263C34.9048 24.4303 34.8943 24.4316 34.8832 24.4306C34.821 24.4243 34.7919 24.4705 34.7544 24.487C34.6865 24.5166 34.6172 24.544 34.5472 24.569C34.4759 24.5944 34.408 24.6234 34.3441 24.6567C34.241 24.7104 34.1355 24.7596 34.0277 24.8041C33.9794 24.8238 33.9202 24.811 33.8766 24.8687C33.8709 24.8766 33.8631 24.8818 33.8533 24.8841C33.8266 24.8914 33.8023 24.9033 33.7803 24.9197C33.7729 24.9253 33.763 24.9277 33.7536 24.926C33.7347 24.9224 33.7222 24.929 33.7161 24.9458C33.7127 24.9544 33.7063 24.9616 33.6978 24.9656C33.5166 25.0473 33.4163 25.1834 33.4629 25.3852C33.4801 25.6129 33.5917 25.8377 33.7563 26.0015C33.8232 26.0685 33.8881 26.1367 33.9513 26.2069C34.0098 26.2718 34.0831 26.3015 34.1555 26.3483C34.2373 26.4014 34.339 26.4343 34.4225 26.4996C34.4313 26.5065 34.4414 26.5108 34.4526 26.5118C34.4698 26.5138 34.484 26.521 34.4952 26.5339C34.5016 26.5415 34.5094 26.5467 34.5188 26.55L34.7774 26.637C34.7798 26.638 34.7825 26.6384 34.7855 26.6387C34.9136 26.6463 35.0012 26.7148 35.1151 26.7455C35.1269 26.7485 35.1269 26.7494 35.1144 26.7481C35.0853 26.7445 35.0569 26.7386 35.0295 26.7297C35.0123 26.7241 35.0103 26.7274 35.0231 26.7396L35.0353 26.7511C35.062 26.7719 35.1032 26.7827 35.1587 26.7837C35.1627 26.7841 35.1664 26.7837 35.1698 26.7821C35.207 26.8131 35.2398 26.8246 35.2685 26.8164C35.3395 26.8312 35.4112 26.8454 35.4835 26.8582C35.5714 26.874 35.668 26.8516 35.7647 26.8754C35.8279 26.8909 35.8752 26.8862 35.9367 26.8869C35.9374 26.8869 35.9378 26.8869 35.9378 26.8862V26.8856C35.9378 26.8856 35.9374 26.8852 35.9371 26.8852C35.8921 26.8856 35.8475 26.8843 35.8026 26.8813C35.8009 26.8813 35.8002 26.8803 35.8002 26.879V26.878C35.8002 26.878 35.8005 26.8773 35.8012 26.8773C35.9699 26.8763 36.1575 26.8951 36.3045 26.8951C36.5945 26.8951 36.8767 26.9021 37.1586 26.8216C37.2283 26.8019 37.2854 26.7771 37.3303 26.7475C37.3391 26.7415 37.3489 26.7379 37.3597 26.7369C37.5963 26.7109 37.839 26.5678 38.0117 26.4122C38.0976 26.3348 38.1906 26.2761 38.272 26.1917C38.3014 26.1611 38.3403 26.1321 38.3879 26.1047C38.487 26.0484 38.5319 25.9567 38.5907 25.872C38.631 25.814 38.706 25.7497 38.7388 25.6878C38.7564 25.6548 38.7729 25.6274 38.7888 25.6057C38.8338 25.544 38.8595 25.4831 38.9139 25.4313C38.9217 25.4237 38.9277 25.4148 38.9318 25.4046C38.9409 25.3812 38.9521 25.3588 38.9653 25.3374C39.0298 25.2335 39.0765 25.1225 39.1059 25.0041L39.1667 24.9283L39.1238 25.0134C39.1218 25.0173 39.1228 25.0203 39.1268 25.0219L39.1359 25.0262C39.1407 25.0285 39.1444 25.0272 39.1468 25.0226L39.1674 24.982C39.1731 24.9708 39.1826 24.9642 39.1954 24.9623C39.2546 24.9537 39.3127 24.9547 39.3705 24.9649C39.4067 24.9715 39.4364 24.9741 39.4604 24.9728C39.504 24.9698 39.5676 24.957 39.6088 24.9705C39.7471 25.016 39.8691 24.9323 40.0077 24.9692C40.0188 24.9722 40.0269 24.9787 40.032 24.989C40.0607 25.0443 40.0381 25.1297 40.0384 25.2002C39.9772 25.3628 39.9265 25.5193 39.8376 25.6719C39.7937 25.7471 39.7504 25.8226 39.7075 25.898C39.5895 26.107 39.4729 26.2791 39.3577 26.4142C39.2644 26.5237 39.1998 26.5975 39.164 26.6361C39.0535 26.7544 38.9595 26.875 38.8314 26.9733C38.6685 27.0982 38.5005 27.2162 38.3278 27.3276C38.1926 27.4149 38.0347 27.4716 37.885 27.5461C37.8177 27.5797 37.7228 27.5867 37.6731 27.614C37.4797 27.7208 37.3462 27.7597 37.1414 27.7561C37.089 27.7551 37.038 27.766 36.989 27.7884C36.9143 27.8223 36.8673 27.8266 36.7747 27.8181C36.7216 27.8131 36.6584 27.8164 36.5844 27.8276C36.5005 27.8405 36.3538 27.8395 36.1439 27.8253C36.1338 27.8243 36.124 27.8273 36.1159 27.8336C36.0993 27.8461 36.0814 27.8464 36.0621 27.8349C36.0608 27.8339 36.0594 27.8336 36.0578 27.8336C35.9844 27.8312 35.9182 27.8256 35.8587 27.8174C35.6822 27.7927 35.5065 27.765 35.331 27.734C35.3152 27.731 35.2895 27.7238 35.254 27.7123C35.1996 27.6941 35.1441 27.6968 35.0894 27.6809C35.0681 27.6747 35.0468 27.6697 35.0248 27.6668C35.0137 27.6651 35.0039 27.6612 34.9951 27.6549C34.9552 27.6262 34.9112 27.6078 34.8629 27.5995C34.8585 27.5985 34.8565 27.5962 34.8562 27.5919V27.5827C34.8562 27.5791 34.8545 27.5768 34.8507 27.5761C34.7754 27.5646 34.7166 27.5494 34.6743 27.5306C34.6033 27.4993 34.4735 27.4367 34.2846 27.3431C34.2271 27.3144 34.1673 27.2778 34.1054 27.233C34.0291 27.1776 33.949 27.1282 33.8773 27.0695C33.8131 27.0164 33.7482 26.964 33.6829 26.9123C33.6769 26.9073 33.6603 26.8885 33.6333 26.8559C33.6093 26.8272 33.5724 26.8203 33.5467 26.7959C33.4139 26.6707 33.3307 26.5869 33.2973 26.5444C33.0935 26.2883 32.9404 26.082 32.8376 25.9257C32.8177 25.8951 32.7818 25.8315 32.7304 25.7349C32.6476 25.579 32.5905 25.4059 32.5222 25.2411C32.4783 25.1353 32.4455 25.0351 32.4235 24.9399C32.3526 24.6313 32.3015 24.3449 32.2704 24.0809C32.2535 23.9362 32.2593 23.7766 32.288 23.6029C32.2917 23.5808 32.29 23.5347 32.2836 23.4652C32.2731 23.3531 32.314 23.2427 32.3269 23.1309C32.3333 23.0746 32.3478 23.0093 32.3701 22.9345C32.3965 22.8448 32.3995 22.7568 32.4296 22.6701C32.4712 22.5511 32.4891 22.4206 32.5297 22.3125C32.5871 22.1602 32.6544 22.0125 32.7163 21.8622C32.7511 21.7785 32.7987 21.7017 32.8592 21.6318C32.8663 21.6239 32.8707 21.6147 32.8731 21.6045C32.8819 21.5652 32.8903 21.5385 32.8988 21.525C33.0461 21.2841 33.2138 21.0586 33.4021 20.848C33.563 20.668 33.7745 20.5022 33.9682 20.3391C34.0443 20.2751 34.1349 20.2125 34.24 20.1512C34.3583 20.0823 34.4735 20.0091 34.5861 19.9313C34.6168 19.9099 34.6557 19.8977 34.7027 19.8951L35.1005 19.7566C35.1931 19.7326 35.282 19.7115 35.3676 19.6937C35.3811 19.691 35.3929 19.6858 35.4034 19.6775C35.4118 19.6713 35.4213 19.668 35.4318 19.6676C35.5815 19.6643 35.7366 19.6182 35.8654 19.6093C35.9942 19.6001 36.1264 19.5932 36.2622 19.5889M35.3561 23.2575C35.4172 23.2591 35.4811 23.2305 35.5474 23.1715C35.5937 23.1497 35.6403 23.1263 35.6866 23.1016C35.737 23.0746 35.784 23.0528 35.8269 23.036C35.9452 22.9902 36.0635 22.944 36.1815 22.8979C36.217 22.884 36.2558 22.8517 36.3001 22.8435C36.3958 22.8257 36.5073 22.7782 36.5756 22.7677C36.609 22.7624 36.6371 22.7529 36.6597 22.7387C36.7733 22.6681 36.8659 22.6177 36.9971 22.59C37.0045 22.5884 37.0099 22.5844 37.013 22.5775C37.015 22.5729 37.0187 22.5693 37.0244 22.5666C37.0745 22.5445 37.1245 22.5221 37.1749 22.5C37.2428 22.4704 37.3202 22.4183 37.4155 22.4044C37.475 22.3955 37.5088 22.3721 37.5554 22.3425C37.5625 22.3379 37.5737 22.3362 37.5896 22.3372C37.6021 22.3379 37.6132 22.3365 37.6227 22.3329C37.7305 22.292 37.8363 22.2499 37.9401 22.2067C37.9752 22.2116 38.0053 22.2031 38.03 22.1813C38.0381 22.1744 38.0476 22.1698 38.0584 22.1675C38.0858 22.1622 38.105 22.149 38.1159 22.1276L38.4032 21.9776C38.413 21.9727 38.4231 21.969 38.4343 21.967C38.5083 21.9552 38.6813 21.8721 38.6414 21.7736C38.61 21.6961 38.5384 21.6272 38.5035 21.5343C38.4883 21.494 38.467 21.465 38.4393 21.4472C38.3393 21.3826 38.2467 21.3098 38.1618 21.2284C37.8502 20.9301 37.4764 20.7109 37.0525 20.6024C36.7784 20.5322 36.5938 20.493 36.4995 20.4844C36.412 20.4765 36.1967 20.4792 35.8543 20.492C35.8441 20.4923 35.8353 20.496 35.8279 20.5026C35.8198 20.5098 35.8073 20.5144 35.7901 20.5167C35.7066 20.5273 35.6102 20.5484 35.5011 20.5797C35.4757 20.5873 35.4139 20.6107 35.3155 20.6502C35.2624 20.6717 35.1996 20.6931 35.1266 20.7145C34.9802 20.7577 34.8335 20.8417 34.6868 20.9667C34.4854 21.1384 34.2701 21.261 34.0923 21.4617C34.0098 21.555 33.9131 21.6381 33.8452 21.7353C33.6322 22.0389 33.468 22.352 33.3605 22.714C33.2375 23.1286 33.1719 23.5064 33.1969 23.9494C33.1986 23.979 33.2182 24.0199 33.255 24.0716C33.2608 24.0799 33.2706 24.0845 33.2807 24.0838C33.301 24.0825 33.3186 24.0756 33.3331 24.0627C33.3409 24.0558 33.35 24.0512 33.3601 24.0486C33.4152 24.0347 33.4686 24.0173 33.5204 23.9958C33.5998 23.9632 33.6846 23.9678 33.7698 23.9236C33.8756 23.8689 33.9567 23.8254 34.0128 23.7928C34.0213 23.7878 34.0314 23.7859 34.0412 23.7869C34.1342 23.7964 34.221 23.7269 34.3099 23.6995C34.4056 23.6702 34.4661 23.6504 34.4914 23.6395C34.583 23.601 34.6753 23.563 34.7676 23.5258C34.7737 23.5235 34.7781 23.5195 34.7811 23.5139C34.7852 23.506 34.7913 23.5004 34.7997 23.4971C34.8703 23.4671 34.9423 23.4401 35.015 23.4157C35.0546 23.4029 35.0921 23.3748 35.1333 23.3613C35.2225 23.3326 35.282 23.3 35.3561 23.2575Z" fill="#929AAB"/>
<path d="M9.32983 19.7392C9.40588 19.7797 9.48429 19.8001 9.56541 19.8011C9.65566 19.8024 9.69318 19.8173 9.76686 19.8486C9.82534 19.8733 9.88719 19.8769 9.9477 19.8951C9.99062 19.9079 10.0237 19.9168 10.0464 19.9218C10.2475 19.9656 10.3871 20.0118 10.4645 20.0602C10.571 20.1271 10.6879 20.1769 10.7815 20.2547C11.0269 20.4581 11.249 20.638 11.4065 20.9047C11.4447 20.969 11.5062 21.1272 11.5914 21.379C11.6715 21.6157 11.6637 21.8724 11.6813 22.1177C11.7144 22.5847 11.6462 23.0528 11.6455 23.5199C11.6448 23.9431 11.6377 24.3663 11.633 24.7899C11.6306 25.0054 11.656 25.2236 11.6458 25.4333C11.6408 25.5345 11.637 25.636 11.634 25.7372C11.6337 25.7467 11.6299 25.755 11.6225 25.7616C11.6178 25.7659 11.6161 25.7715 11.6178 25.7787C11.6201 25.7909 11.6232 25.7998 11.6266 25.8054C11.6732 25.8786 11.6343 25.932 11.6313 25.994C11.6269 26.0826 11.6316 26.1713 11.6462 26.2593C11.6553 26.318 11.6671 26.3717 11.6681 26.432C11.6735 26.8289 11.7966 27.1954 11.8544 27.5478C11.8561 27.5583 11.8601 27.5682 11.8659 27.5771C11.8757 27.5926 11.8814 27.6091 11.8824 27.6269C11.8834 27.6391 11.8777 27.6443 11.8652 27.6427L11.7716 27.6302C11.7678 27.6295 11.7638 27.6295 11.7601 27.6302C11.6766 27.6496 11.5931 27.6516 11.5096 27.6354C11.4467 27.6232 11.3998 27.6443 11.3521 27.6397C11.2575 27.6305 11.1872 27.6292 11.1408 27.6361C11.1128 27.6404 11.0787 27.6232 11.0378 27.5847C10.9583 27.5105 10.9046 27.4522 10.8674 27.3441C10.8312 27.2379 10.7961 27.1394 10.7352 27.0428C10.7146 27.0102 10.7004 26.9765 10.6923 26.9423C10.6872 26.9205 10.6589 26.9136 10.644 26.9307L10.5818 27.0016C10.5733 27.0111 10.5622 27.0168 10.549 27.0181C10.4959 27.0227 10.4706 27.0263 10.4229 27.053C10.3638 27.086 10.304 27.1173 10.2431 27.147C10.0907 27.2221 9.94127 27.3345 9.78816 27.3879C9.74794 27.4017 9.71887 27.4133 9.70163 27.4228C9.69216 27.4278 9.68202 27.4307 9.67087 27.4311C9.62423 27.4334 9.59651 27.464 9.56339 27.4746C9.42514 27.5178 9.28724 27.5623 9.14967 27.6078C9.08139 27.6305 9.00669 27.6321 8.92726 27.6565C8.78091 27.702 8.55681 27.7455 8.36956 27.7581C8.27086 27.7647 8.17183 27.7788 8.0755 27.7765C7.72363 27.767 7.37245 27.7637 7.04594 27.6862C6.99659 27.6743 6.91547 27.6588 6.80291 27.6401C6.58862 27.6038 6.37737 27.4934 6.18099 27.3919C5.82608 27.2079 5.47321 26.9106 5.28866 26.5579C5.20314 26.3948 5.11797 26.168 5.03245 25.8776C5.00474 25.784 4.99189 25.6531 5.00541 25.5364C5.01927 25.4145 5.02434 25.2922 5.01995 25.1693C5.01927 25.1518 5.02333 25.1248 5.03245 25.0882C5.04158 25.0526 5.03211 25.0107 5.03887 24.9758C5.04361 24.9517 5.04834 24.9273 5.05307 24.9033C5.06422 24.8443 5.10208 24.7899 5.1156 24.7246C5.11763 24.715 5.12169 24.7061 5.12777 24.6979C5.18692 24.6171 5.23458 24.5308 5.27108 24.4385C5.29102 24.3887 5.3157 24.3436 5.34544 24.3034C5.42149 24.2002 5.47862 24.0769 5.5834 23.9955C5.65336 23.9414 5.70744 23.8936 5.74632 23.8518C5.76457 23.8323 5.78552 23.8159 5.80918 23.803C5.99813 23.6985 6.20127 23.569 6.40711 23.5007C6.50446 23.4688 6.59741 23.4467 6.69137 23.3989C6.79514 23.3465 6.88674 23.3129 6.96684 23.2987C7.15714 23.2647 7.34777 23.2314 7.53807 23.1982C7.67733 23.1738 7.85241 23.1622 8.00891 23.1312C8.0853 23.1164 8.16845 23.1068 8.25869 23.1032C8.40505 23.0973 8.55749 23.0627 8.6883 23.0541C8.91408 23.0389 9.06416 23.0281 9.13818 23.0211C9.25006 23.0109 9.35484 22.9747 9.47179 22.9608C9.52891 22.9542 9.58434 22.9338 9.63606 22.9259C9.77227 22.9051 9.86826 22.8873 9.92404 22.8732C10.0846 22.8326 10.234 22.7687 10.3722 22.681C10.4297 22.6444 10.476 22.5828 10.5382 22.5406C10.6088 22.4921 10.7075 22.4048 10.7319 22.327C10.7599 22.2363 10.7714 22.1434 10.7663 22.0478C10.7633 21.9858 10.7991 21.8965 10.7809 21.8431C10.7589 21.7798 10.7481 21.7274 10.7477 21.6859C10.7477 21.6457 10.7413 21.6285 10.7244 21.5969C10.7194 21.588 10.7167 21.5781 10.7163 21.5679C10.7153 21.5464 10.7062 21.5227 10.6889 21.4973C10.6294 21.41 10.5892 21.3513 10.5679 21.3207C10.5304 21.2659 10.4892 21.2139 10.4449 21.1648C10.353 21.0626 10.2134 21.0003 10.0927 20.9268C10.0133 20.878 9.92404 20.8714 9.83582 20.8358C9.7912 20.8177 9.74996 20.8025 9.71245 20.79C9.67053 20.7758 9.62963 20.7593 9.58941 20.7402C9.55223 20.7224 9.51573 20.7264 9.4772 20.7082C9.46739 20.7033 9.45691 20.701 9.44576 20.7007C9.31901 20.698 9.1926 20.6894 9.06686 20.6753C8.91307 20.6578 8.7853 20.6489 8.6839 20.6489C8.56188 20.6489 8.26714 20.6219 8.16912 20.6753C8.16 20.6802 8.14986 20.6825 8.13938 20.6822C8.02547 20.6769 7.89534 20.7132 7.81625 20.7247C7.74087 20.7359 7.66584 20.7494 7.59114 20.7649C7.26125 20.8345 6.89485 21.114 6.68427 21.3543C6.57645 21.4776 6.49634 21.6259 6.44463 21.7989C6.42841 21.8543 6.34762 21.9107 6.31551 21.9687C6.24521 22.0946 6.23236 22.1325 6.09243 22.1562C5.89774 22.1892 5.69899 22.1849 5.49619 22.1434C5.44448 22.1325 5.41913 22.1028 5.42014 22.0541C5.42116 22.0148 5.43873 21.9209 5.47287 21.7726C5.52932 21.6397 5.55027 21.5043 5.61787 21.3803C5.69223 21.2439 5.75544 21.1104 5.84839 20.9765C5.85346 20.9693 5.86631 20.9568 5.88726 20.939C5.90991 20.9195 5.91295 20.8948 5.93019 20.8767C5.96568 20.8391 5.99948 20.7999 6.03091 20.7593C6.07654 20.701 6.1384 20.6558 6.1864 20.5952C6.19316 20.5866 6.20127 20.5797 6.21073 20.5744C6.22087 20.5688 6.23203 20.5602 6.24386 20.5494C6.30267 20.495 6.35067 20.4505 6.38785 20.4152C6.50074 20.3081 6.6356 20.2283 6.76066 20.1373C6.79311 20.1139 6.83232 20.107 6.86882 20.0856C6.87863 20.0797 6.88944 20.078 6.9006 20.0806C6.91243 20.0833 6.92257 20.08 6.93068 20.0708C6.93541 20.0652 6.94082 20.0609 6.94724 20.0572C7.09292 19.9818 7.20987 19.9366 7.29775 19.9218C7.39679 19.905 7.4725 19.8868 7.52421 19.8674C7.55835 19.8545 7.59485 19.8552 7.63035 19.8446L7.68476 19.8219L7.86222 19.7863L7.94536 19.7692C7.95618 19.7668 7.967 19.7659 7.97815 19.7659C8.0035 19.7662 8.03392 19.7612 8.06941 19.751C8.11031 19.7392 8.19042 19.7316 8.31007 19.7286C8.44054 19.7253 8.57101 19.6924 8.69404 19.6927C8.79578 19.6927 8.88772 19.6887 8.99182 19.7059C9.10235 19.724 9.2149 19.7352 9.32983 19.7388M10.3445 25.8404C10.3499 25.8394 10.3547 25.8364 10.359 25.8315C10.4378 25.7431 10.4784 25.661 10.5483 25.5345C10.6653 25.3242 10.7555 25.0473 10.741 24.7974C10.7339 24.6791 10.7308 24.6076 10.7319 24.5829C10.7447 24.2813 10.7346 23.98 10.7018 23.6784C10.7008 23.6675 10.6957 23.6586 10.6866 23.6524C10.594 23.5855 10.3672 23.6487 10.2685 23.6883C10.166 23.7295 10.0555 23.7377 9.95784 23.769C9.84765 23.8043 9.73475 23.8297 9.61949 23.8449C9.57048 23.8514 9.51066 23.8897 9.45421 23.8946C9.11519 23.9256 8.77618 23.9579 8.43716 23.9919C8.08023 24.0275 7.78447 24.0697 7.5499 24.1184C7.49312 24.13 7.43498 24.1086 7.36569 24.1326C7.10543 24.2226 6.82522 24.3076 6.59403 24.4359C6.32937 24.5822 6.1722 24.7328 6.04308 25.0061C6.03091 25.0321 6.00962 25.074 5.9792 25.132C5.94709 25.194 5.93188 25.2391 5.93424 25.2675C5.96331 25.6205 5.94946 25.9353 6.19079 26.2052C6.327 26.3578 6.44497 26.4643 6.54468 26.5246C6.66163 26.5955 6.81812 26.6644 7.0145 26.731C7.21021 26.7976 7.41267 26.8035 7.6202 26.8196C7.77366 26.8315 7.92711 26.8239 8.08192 26.82C8.0853 26.82 8.08834 26.8187 8.09071 26.8163C8.09442 26.8134 8.09848 26.8117 8.10321 26.8117C8.33914 26.8167 8.56932 26.7857 8.79409 26.7194C8.87589 26.695 8.94822 26.6838 9.02833 26.6703C9.16015 26.6486 9.27 26.6004 9.391 26.5533C9.45421 26.5286 9.51505 26.4999 9.57319 26.4673C9.70873 26.3915 9.82365 26.3219 9.91795 26.259C10.0755 26.1538 10.2113 26.0183 10.3252 25.8525C10.3296 25.846 10.3361 25.842 10.3445 25.8404Z" fill="#929AAB"/>
<path d="M21.0186 22.4496C21.0298 22.4592 21.0362 22.4786 21.0382 22.5079C21.0392 22.5215 21.0467 22.5281 21.0605 22.5281H21.1542C21.1667 22.5281 21.1778 22.529 21.1883 22.531C21.2055 22.5343 21.2241 22.5402 21.2434 22.5491C21.2745 22.5633 21.31 22.5412 21.3103 22.5076C21.311 22.4054 21.2988 22.3197 21.2735 22.2508C21.2262 22.121 21.1795 21.9908 21.1339 21.8599C21.0855 21.7215 20.9662 21.5079 20.7766 21.2188C20.662 21.0448 20.4836 20.8434 20.2405 20.615C20.1736 20.552 20.0868 20.4989 20.0117 20.4383C19.9519 20.3902 19.8924 20.3486 19.8339 20.314C19.7305 20.2524 19.6315 20.1858 19.5368 20.1143L19.4469 20.0671C19.4449 20.0662 19.4452 20.0632 19.4472 20.0625C19.4503 20.0615 19.453 20.0609 19.4557 20.0599C19.4614 20.0582 19.4669 20.0592 19.4712 20.0632C19.4888 20.0787 19.5091 20.0859 19.5321 20.0846C19.5412 20.0843 19.5422 20.081 19.5358 20.075C19.5064 20.0487 19.4719 20.0312 19.4327 20.0223C19.4205 20.0197 19.4111 20.0134 19.404 20.0035C19.3803 19.9702 19.3479 19.9538 19.3063 19.9541C19.3022 19.9541 19.2979 19.9531 19.2945 19.9508C19.2874 19.9465 19.2837 19.9416 19.2826 19.936C19.281 19.9264 19.2755 19.9224 19.2657 19.9234C19.2407 19.9264 19.2188 19.9191 19.1995 19.9017C19.1904 19.8934 19.1799 19.8878 19.1677 19.8855C19.1238 19.8773 19.0839 19.8575 19.0484 19.8268C19.0447 19.8236 19.04 19.8212 19.0349 19.8199C19.0089 19.813 18.9866 19.8005 18.9683 19.782C18.9605 19.7744 18.9507 19.7692 18.9399 19.7669C18.9031 19.7599 18.8713 19.7444 18.8446 19.7204C18.8368 19.7135 18.828 19.7102 18.8175 19.7102C18.6678 19.7079 18.5231 19.6808 18.3842 19.6291C18.3683 19.6235 18.3501 19.6202 18.3288 19.6199C18.2774 19.6185 18.2389 19.6004 18.1878 19.6037C18.1216 19.608 18.056 19.603 17.9915 19.5889C17.9252 19.5747 17.862 19.5816 17.7954 19.5665C17.7924 19.5658 17.7897 19.5645 17.788 19.5628C17.7853 19.5605 17.7833 19.5582 17.7816 19.5552C17.7779 19.549 17.7724 19.5457 17.765 19.545C17.7332 19.543 17.7018 19.5444 17.671 19.5487C17.6639 19.5496 17.6568 19.55 17.6497 19.549C17.6352 19.5473 17.6214 19.5513 17.6085 19.5608C17.6001 19.5671 17.5899 19.5707 17.5791 19.5711L17.3922 19.5786C17.3848 19.579 17.3777 19.5823 17.3726 19.5872C17.3466 19.6126 17.3148 19.6231 17.2773 19.6185C17.2681 19.6175 17.26 19.6195 17.2526 19.6245C17.1691 19.6818 17.1008 19.64 17.0204 19.6805C17.0113 19.6851 17.0011 19.6871 16.991 19.6854C16.9653 19.6815 16.9433 19.6874 16.9247 19.7032C16.9163 19.7108 16.9061 19.7154 16.895 19.7171C16.8213 19.7286 16.748 19.7402 16.6746 19.752C16.5766 19.7682 16.5509 19.8476 16.4684 19.8802C16.4228 19.8984 16.3981 19.9079 16.3947 19.9096C16.3363 19.9376 16.2737 19.9478 16.2078 19.9402C16.197 19.9392 16.1865 19.9406 16.1764 19.9445C16.1592 19.9514 16.1243 19.965 16.0716 19.9854C16.0496 19.9943 16.0381 20.0091 16.0375 20.0302C16.0371 20.0401 16.0331 20.048 16.0246 20.0536C16.0121 20.0625 15.9989 20.0708 15.9851 20.078C15.9411 20.1014 15.9269 20.136 15.8739 20.1528C15.8641 20.1558 15.8553 20.1611 15.8482 20.1683C15.8191 20.1967 15.783 20.2099 15.74 20.2079C15.735 20.2076 15.7306 20.2099 15.7275 20.2141C15.7228 20.2207 15.7174 20.225 15.7116 20.2267C15.6116 20.255 15.5305 20.2867 15.4639 20.3724C15.4101 20.4416 15.3591 20.5148 15.2979 20.5767C15.1458 20.7307 14.968 20.881 14.8396 21.0534C14.8041 21.1008 14.7669 21.147 14.7277 21.1915C14.7095 21.2122 14.7078 21.2475 14.6936 21.2584C14.6097 21.322 14.5928 21.3873 14.5462 21.473C14.5016 21.5554 14.4539 21.6315 14.4127 21.7179C14.3769 21.793 14.316 21.8698 14.2866 21.9308C14.1727 22.1665 14.0896 22.4127 14.0375 22.6691C14.0311 22.7011 14.0193 22.7377 14.0024 22.7789C13.9405 22.9305 13.9466 23.12 13.8993 23.2888C13.8405 23.4991 13.8503 23.6718 13.8563 23.9599C13.858 24.039 13.8702 24.1508 13.8672 24.2473C13.8634 24.3683 13.8884 24.5212 13.9229 24.6363C14.0196 24.9583 14.0892 25.2784 14.2565 25.5872C14.3072 25.6808 14.3451 25.7718 14.3863 25.8661C14.4157 25.933 14.4539 25.9992 14.5009 26.0648C14.5614 26.1492 14.6202 26.2362 14.677 26.3256C14.8967 26.5893 15.04 26.7241 15.2219 26.8918C15.4831 27.1325 15.7982 27.3259 16.1156 27.4884C16.1615 27.5118 16.2092 27.532 16.2585 27.5488C16.3082 27.5656 16.3579 27.5814 16.4076 27.5969C16.4762 27.618 16.5435 27.6417 16.6101 27.6678C16.6746 27.6931 16.7429 27.7126 16.8145 27.7261C16.9714 27.7551 17.0961 27.8052 17.2756 27.8085C17.3361 27.8098 17.4033 27.8158 17.4777 27.826C17.6508 27.8497 17.812 27.8217 17.9779 27.8118C18.1077 27.8039 18.2436 27.7772 18.3781 27.766C18.585 27.7485 18.778 27.6902 18.9568 27.5916C18.996 27.5702 19.0278 27.5623 19.069 27.5498C19.0886 27.5438 19.116 27.532 19.1515 27.5142C19.1965 27.4921 19.2549 27.4835 19.2948 27.4611C19.3536 27.4278 19.4195 27.3856 19.4925 27.3345C19.5203 27.3151 19.5534 27.3006 19.5919 27.291C19.6247 27.2824 19.647 27.262 19.6781 27.2488C19.6882 27.2445 19.6967 27.2383 19.7035 27.2297C19.7721 27.146 19.8529 27.0761 19.9455 27.0197C19.9897 26.9927 20.0235 26.9502 20.0719 26.9248C20.1192 26.9001 20.1516 26.8793 20.1692 26.8628C20.3298 26.7132 20.4447 26.5902 20.514 26.494C20.5769 26.4066 20.6363 26.3368 20.6925 26.2847C20.7256 26.254 20.7509 26.2244 20.7688 26.1957C20.9223 25.9455 21.0757 25.667 21.1701 25.3898C21.2039 25.2902 21.2934 25.106 21.266 25.0054L21.236 24.9761C21.2278 24.9685 21.2184 24.9642 21.2072 24.9626C21.1207 24.9524 21.0345 24.9501 20.9487 24.9563C20.8976 24.96 20.832 24.9603 20.7519 24.9567C20.6837 24.9537 20.6178 24.96 20.5542 24.9755C20.5126 24.9857 20.4582 25.0031 20.3913 25.0275C20.3815 25.0312 20.3734 25.0368 20.3663 25.0443C20.3409 25.072 20.3179 25.0961 20.3034 25.1314C20.2632 25.2293 20.2169 25.3242 20.1645 25.4161C20.1388 25.4613 20.1246 25.5266 20.0908 25.5773C19.9989 25.7154 19.8839 25.8331 19.7464 25.93C19.741 25.934 19.7383 25.9389 19.7379 25.9445C19.7376 25.9511 19.7352 25.9567 19.7305 25.961C19.6064 26.0747 19.4936 26.1983 19.3922 26.3318C19.3844 26.3417 19.3746 26.3486 19.3627 26.3526C19.335 26.3615 19.307 26.3763 19.2786 26.3968C19.1501 26.4887 18.9886 26.5523 18.8429 26.6285C18.7986 26.6515 18.7314 26.6585 18.6813 26.6908C18.656 26.7073 18.6354 26.7181 18.6195 26.7231C18.5319 26.7524 18.4441 26.7801 18.3558 26.8065C18.2822 26.8282 18.197 26.8437 18.1006 26.8533C18.0138 26.8615 17.9276 26.8724 17.8417 26.8856C17.7417 26.9011 17.5189 26.8965 17.1735 26.8711C17.1475 26.8691 17.1133 26.8579 17.0731 26.8543C16.9268 26.8401 16.7679 26.7989 16.5959 26.7307C16.5468 26.7109 16.5053 26.67 16.4451 26.6539C16.4056 26.6433 16.3856 26.6242 16.3552 26.6024C16.3461 26.5962 16.3359 26.5912 16.3255 26.5883C16.2173 26.5576 16.0811 26.4531 16.0351 26.4155C15.9063 26.3104 15.789 26.1944 15.6826 26.0675C15.6464 26.0243 15.5954 26.0009 15.5622 25.96C15.5369 25.9287 15.5095 25.8987 15.4801 25.87C15.4717 25.8615 15.4662 25.847 15.4639 25.8265C15.4629 25.817 15.4588 25.8081 15.4517 25.8011C15.4047 25.7543 15.3723 25.7177 15.3547 25.6914C15.2962 25.6047 15.2384 25.5177 15.1806 25.4303C15.1708 25.4155 15.1604 25.3911 15.1492 25.3565C15.1374 25.3202 15.1107 25.2906 15.0971 25.2593C15.0458 25.1412 14.9947 25.0232 14.9444 24.9052C14.869 24.7302 14.821 24.5071 14.8 24.2358C14.7402 23.9813 14.7321 23.7285 14.775 23.477C14.7913 23.2928 14.823 23.1158 14.8707 22.9467C14.9214 22.766 14.9555 22.5666 15.0755 22.3843C15.1691 22.2423 15.2171 22.0893 15.3243 21.9545C15.399 21.8606 15.4727 21.7657 15.5453 21.6704C15.6133 21.5811 15.6853 21.5023 15.761 21.4347C15.8418 21.3625 15.9222 21.2917 16.003 21.2224C16.0273 21.207 16.048 21.1882 16.0649 21.1667C16.0709 21.1592 16.079 21.1545 16.0889 21.1529C16.0926 21.1522 16.0966 21.1519 16.101 21.1519C16.1047 21.1519 16.1085 21.1506 16.1115 21.1483L16.2653 21.0184C16.2866 21.023 16.3075 21.0102 16.3278 20.9798C16.4103 20.9057 16.4972 20.8529 16.5884 20.822C16.5864 20.8282 16.5932 20.8292 16.609 20.8256C16.6013 20.82 16.6036 20.8114 16.6168 20.8005C16.6195 20.7986 16.6229 20.7972 16.6263 20.7972L16.7294 20.7982C16.7324 20.7982 16.7354 20.7976 16.7382 20.7962C16.7899 20.7689 16.846 20.7577 16.9061 20.763C16.9328 20.758 16.946 20.7508 16.946 20.7419C16.9568 20.729 16.9751 20.7191 17.0011 20.7129C17.0116 20.7105 17.0224 20.7105 17.0329 20.7135C17.1485 20.7465 17.2201 20.697 17.327 20.671C17.4003 20.6529 17.4436 20.6133 17.546 20.6235C17.623 20.6314 17.7873 20.6235 18.0385 20.5995L18.225 20.6262C18.2369 20.6278 18.248 20.6311 18.2588 20.6361C18.2909 20.6509 18.3258 20.6545 18.3639 20.6476C18.3751 20.6456 18.3856 20.6469 18.3957 20.6512C18.4606 20.6789 18.536 20.6878 18.5941 20.7244C18.6036 20.7303 18.6137 20.7326 18.6249 20.7313C18.6611 20.727 18.7013 20.7356 18.7449 20.757C18.8246 20.7962 18.8794 20.8289 18.9091 20.8543C18.97 20.8595 19.0001 20.873 19.0538 20.9152C19.0873 20.9416 19.1275 20.9495 19.1593 20.9723C19.2908 21.0659 19.4216 21.1545 19.5409 21.2653C19.7197 21.4314 19.8741 21.5593 20.0246 21.7891C20.0607 21.8441 20.1151 21.9403 20.1882 22.0785C20.2605 22.2146 20.3609 22.4176 20.4944 22.503C20.5346 22.5287 20.5799 22.5195 20.6262 22.5198C20.6367 22.5198 20.6465 22.5175 20.6556 22.5126C20.7607 22.4578 20.804 22.5439 20.9034 22.537C20.9138 22.536 20.923 22.532 20.9307 22.5248C20.946 22.5106 20.9514 22.4934 20.947 22.4737C20.9446 22.4621 20.948 22.4529 20.9571 22.4453C20.9771 22.4292 20.9977 22.4308 21.0186 22.4496ZM16.3944 19.9412C16.4312 19.8895 16.5854 19.8414 16.6479 19.8219C16.749 19.7906 16.85 19.7583 16.9508 19.725C17.041 19.695 17.1306 19.6752 17.2188 19.6657C17.3101 19.6554 17.4013 19.6459 17.4929 19.637C17.6095 19.6255 17.7295 19.6238 17.8529 19.6317C17.9746 19.6393 18.0963 19.6469 18.2179 19.6545C18.2264 19.6551 18.2345 19.6591 18.2396 19.6657C18.2527 19.6818 18.2686 19.6825 18.2876 19.6676C18.2963 19.6607 18.3055 19.6601 18.3153 19.6653L18.3264 19.6709C18.3349 19.6756 18.3443 19.6782 18.3541 19.6792C18.4113 19.6851 18.4677 19.694 18.5238 19.7056C18.5877 19.7191 18.6901 19.7085 18.7675 19.7642C18.776 19.7705 18.7858 19.7741 18.7963 19.7751C18.8912 19.7843 18.9588 19.8473 19.044 19.8526C19.0548 19.8532 19.0646 19.8578 19.0724 19.8654C19.092 19.8849 19.1157 19.8938 19.1434 19.8918C19.1562 19.8908 19.1684 19.8934 19.1796 19.8997L19.3695 20.0055C19.3719 20.0068 19.3736 20.0088 19.3749 20.0111L19.3793 20.019C19.383 20.0259 19.381 20.0286 19.3732 20.0276C19.3235 20.0207 19.2806 20.0012 19.2438 19.9696C19.236 19.9627 19.2269 19.9577 19.2171 19.9547C19.1768 19.9422 19.1363 19.9323 19.0954 19.9254C19.0028 19.9093 18.9213 19.8542 18.8372 19.8147C18.7973 19.7959 18.756 19.8064 18.7182 19.7688C18.7111 19.7613 18.702 19.758 18.6915 19.7586C18.6654 19.7596 18.6408 19.757 18.6171 19.7507C18.5509 19.7329 18.4873 19.724 18.4261 19.724C18.4234 19.724 18.4214 19.726 18.4211 19.7286C18.4211 19.7309 18.4228 19.7332 18.4255 19.7336C18.4748 19.7395 18.5238 19.7477 18.5725 19.758C18.5728 19.758 18.5728 19.7583 18.5728 19.7593V19.7603C18.5728 19.7603 18.5725 19.7613 18.5718 19.7613C18.4664 19.7497 18.3643 19.7204 18.2615 19.7168C18.0483 19.7095 17.8353 19.6996 17.622 19.6868C17.5517 19.6825 17.4814 19.6848 17.4115 19.6937C17.2063 19.7191 17.04 19.7477 16.9122 19.7791C16.8761 19.788 16.802 19.8117 16.6895 19.8499C16.6837 19.8519 16.6831 19.8509 16.6875 19.8466C16.6912 19.843 16.6946 19.8394 16.6983 19.8357C16.6989 19.8351 16.6989 19.8344 16.6983 19.8338C16.6979 19.8331 16.6969 19.8331 16.6962 19.8334C16.6709 19.8509 16.6442 19.8628 16.6161 19.869C16.5384 19.8859 16.4772 19.9234 16.4052 19.9538C16.3863 19.962 16.3826 19.9577 16.3944 19.9412Z" fill="#929AAB"/>
<path d="M30.5653 24.9168C30.4666 24.9234 30.376 24.8934 30.2871 24.8927C30.1803 24.8914 30.0782 24.8789 29.9741 24.8917C29.9008 24.9006 29.8277 24.9112 29.7551 24.9227C29.7486 24.9237 29.7449 24.927 29.7432 24.9333C29.7422 24.9379 29.7392 24.9412 29.7341 24.9431C29.6628 24.9698 29.6145 25.0137 29.5891 25.0753C29.5756 25.1083 29.5604 25.1403 29.5431 25.1716C29.5252 25.2035 29.5154 25.2388 29.5134 25.277C29.5127 25.2879 29.5087 25.2975 29.5012 25.3057C29.4681 25.3426 29.4417 25.3832 29.4221 25.4273C29.3981 25.4811 29.3745 25.5216 29.3505 25.5493C29.27 25.6426 29.192 25.7378 29.1166 25.8351C29.0919 25.8667 29.0524 25.8865 29.0334 25.933C29.0311 25.9389 29.0277 25.9442 29.023 25.9481L28.7708 26.1752C28.7657 26.1799 28.7634 26.1865 28.7647 26.193C28.7664 26.2036 28.7634 26.2115 28.7549 26.2164C28.7194 26.2389 28.6826 26.2807 28.6535 26.3114C28.6109 26.3559 28.5585 26.3697 28.5068 26.4024C28.5034 26.4047 28.5011 26.408 28.4994 26.4129C28.4974 26.4195 28.4933 26.4244 28.4872 26.4277C28.4291 26.4584 28.3713 26.5223 28.3037 26.5157C28.2912 26.5147 28.281 26.5184 28.2726 26.5273C28.2547 26.5467 28.231 26.553 28.2009 26.5467C28.1942 26.5454 28.1874 26.5467 28.1817 26.5503L27.9991 26.6713C27.9907 26.6769 27.9809 26.6802 27.9704 26.6812C27.9606 26.6819 27.9515 26.6848 27.9434 26.6904C27.9342 26.6967 27.9241 26.7007 27.913 26.703L27.6307 26.756C27.6226 26.7577 27.6158 26.7616 27.6104 26.7679C27.6047 26.7745 27.5989 26.7781 27.5932 26.7791C27.3346 26.8193 27.0304 26.8414 26.6806 26.8454C26.665 26.8457 26.6542 26.8427 26.6478 26.8368C26.6421 26.8312 26.635 26.8282 26.6265 26.8285C26.5011 26.8335 26.3838 26.846 26.2611 26.8229C26.1465 26.8015 26.0316 26.7745 25.916 26.7419C25.8035 26.6875 25.6889 26.6311 25.5719 26.5728C25.4645 26.5194 25.3691 26.4531 25.2637 26.3958C25.241 26.3836 25.2066 26.3457 25.1596 26.2814C25.0937 26.1914 24.9139 26.1143 24.8158 25.9992C24.6979 25.8611 24.5593 25.6835 24.4001 25.4662C24.3511 25.3997 24.3213 25.3509 24.3105 25.3196C24.2365 25.1047 24.1182 24.8647 24.0658 24.6003C24.055 24.5463 24.0239 24.4916 24.0151 24.4336C23.9938 24.2885 23.9593 24.155 23.9664 24.0067C23.9766 23.7921 23.9587 23.5752 23.9904 23.3692C24.0056 23.2684 24.0222 23.1678 24.0394 23.0673C24.0773 22.8468 24.1757 22.6421 24.2531 22.4156C24.3528 22.1249 24.5518 21.9001 24.7323 21.6743C24.9885 21.3546 25.3063 21.0932 25.6642 20.8862C25.746 20.8391 25.8562 20.8124 25.9471 20.7501C26.0097 20.7069 26.0986 20.7194 26.1746 20.6871C26.2899 20.638 26.4021 20.6093 26.5116 20.6008C26.7769 20.5803 27.094 20.6008 27.4242 20.611C27.6169 20.6169 27.8308 20.6967 28.0242 20.7537C28.16 20.7939 28.2932 20.8872 28.4216 20.9521C28.4953 21.0023 28.5724 21.0497 28.6528 21.0949C28.7133 21.1288 28.8154 21.2106 28.9591 21.3404C28.9773 21.3569 28.9898 21.3816 29.0219 21.3958C29.0307 21.3998 29.0385 21.4057 29.0446 21.4133C29.0879 21.4706 29.1423 21.5161 29.1798 21.5741C29.2663 21.7073 29.3532 21.8401 29.4404 21.973C29.4793 22.032 29.5117 22.0939 29.5384 22.1595C29.5725 22.2436 29.6134 22.4048 29.705 22.4456C29.8406 22.5063 29.9785 22.4763 30.0883 22.4809C30.2388 22.4875 30.3865 22.4855 30.5315 22.475C30.5673 22.4723 30.594 22.441 30.5893 22.4061C30.5768 22.3151 30.5757 22.2357 30.5426 22.1496C30.5115 22.0682 30.4845 21.9858 30.4618 21.9018C30.4429 21.8322 30.378 21.6875 30.2671 21.4683C30.233 21.4014 30.1813 21.3688 30.1282 21.318C30.0948 21.2861 30.0623 21.2458 30.0316 21.198C29.9967 21.1437 29.9602 21.0899 29.922 21.0375C29.9207 21.0359 29.8876 20.9871 29.8227 20.8915C29.7591 20.7979 29.6746 20.7303 29.6016 20.6499C29.5114 20.5503 29.3988 20.4775 29.3038 20.3806C29.2332 20.319 29.1551 20.2675 29.0693 20.227C29.0182 20.2029 28.9587 20.1703 28.8915 20.1291C28.8289 20.0905 28.762 20.0619 28.69 20.0424C28.6441 20.0299 28.6157 20.0029 28.589 19.9682L28.7711 20.0605C28.7738 20.0619 28.7766 20.0622 28.7793 20.0612C28.7826 20.0602 28.7864 20.0595 28.7901 20.0592C28.7924 20.0589 28.7924 20.0586 28.7904 20.0576C28.6975 20.0124 28.615 19.9366 28.5176 19.9056C28.4872 19.8961 28.4561 19.8825 28.424 19.8647C28.3767 19.8384 28.3263 19.8193 28.2726 19.8074C28.2604 19.8048 28.2483 19.7998 28.2357 19.7922C28.1729 19.754 28.1158 19.7421 28.0478 19.7194C27.9839 19.698 27.9069 19.6999 27.8295 19.6732C27.773 19.6535 27.7054 19.6469 27.6273 19.6531C27.6162 19.6541 27.6064 19.6508 27.5986 19.6429C27.5716 19.6169 27.5371 19.6291 27.5107 19.6231C27.4746 19.6149 27.4428 19.602 27.4053 19.6037C27.2427 19.6106 27.0801 19.6129 26.9175 19.6106C26.834 19.6096 26.7397 19.6337 26.6471 19.6278C26.5903 19.6241 26.5407 19.639 26.4977 19.6716C26.4889 19.6782 26.4791 19.6818 26.4683 19.6825C26.395 19.6871 26.3233 19.6881 26.2517 19.7092C26.0952 19.7556 25.9931 19.7833 25.9454 19.7926C25.8572 19.8097 25.7883 19.8423 25.7261 19.8588C25.6926 19.8677 25.6588 19.8769 25.6247 19.8865C25.5219 19.9231 25.4195 19.9926 25.3428 20.0309C25.2265 20.0886 25.1268 20.1466 24.9913 20.2019C24.8449 20.2616 24.7141 20.3555 24.5988 20.4838C24.5366 20.5527 24.4799 20.608 24.4285 20.6499C24.1533 20.8744 23.8998 21.1532 23.7291 21.4627C23.6609 21.5867 23.5983 21.7113 23.5287 21.8359C23.4124 22.0438 23.3232 22.262 23.261 22.4911C23.188 22.7591 23.0846 23.0419 23.069 23.3198C23.0579 23.5159 23.043 23.7133 23.0244 23.9121C23.0606 24.1231 23.0714 24.4207 23.1451 24.6798C23.186 24.8241 23.2009 25.0054 23.2739 25.1637C23.3229 25.2688 23.3465 25.3581 23.3786 25.46C23.404 25.5397 23.4456 25.6103 23.4797 25.6887C23.5047 25.7458 23.5362 25.7995 23.574 25.8493C23.6622 25.9646 23.7393 26.0869 23.8055 26.2161C23.8157 26.2356 23.84 26.2652 23.8789 26.3051C23.9424 26.3704 23.9789 26.4505 24.0249 26.5263C24.0563 26.5777 24.1368 26.6519 24.1855 26.6954C24.2504 26.7544 24.2882 26.8173 24.371 26.8846C24.4109 26.9169 24.467 26.937 24.5089 26.9795C24.5481 27.0194 24.5786 27.0458 24.6002 27.0593C24.7181 27.1311 24.7824 27.1974 24.8797 27.2514C24.9284 27.2788 24.9602 27.2979 24.975 27.3095C25.1231 27.4245 25.2843 27.5174 25.459 27.5883C25.483 27.5979 25.5104 27.6147 25.5415 27.6384C25.6071 27.6888 25.6865 27.6687 25.7386 27.7057L26.205 27.7749C26.2135 27.7762 26.2202 27.7801 26.2253 27.7864C26.2324 27.796 26.2432 27.7979 26.2584 27.793C26.3527 27.8111 26.4849 27.8276 26.6552 27.8421C26.8185 27.8563 26.9578 27.8326 27.1136 27.8477C27.1768 27.854 27.3211 27.8642 27.3752 27.8296C27.3934 27.8181 27.407 27.8115 27.4161 27.8101C27.5827 27.7844 27.749 27.7554 27.9146 27.7228C27.9758 27.7106 28.0414 27.6911 28.111 27.6645C28.1749 27.6397 28.2395 27.6167 28.3047 27.5952C28.3402 27.5834 28.3703 27.5969 28.4037 27.5666C28.4115 27.5596 28.4213 27.5553 28.4318 27.555C28.4605 27.554 28.4811 27.5497 28.493 27.5422C28.5447 27.5105 28.5981 27.4815 28.6525 27.4551C28.6765 27.4436 28.6998 27.4288 28.7225 27.4103C28.7769 27.3661 28.8367 27.3305 28.8905 27.2857C28.9621 27.2257 29.0534 27.176 29.1193 27.1252C29.1798 27.0787 29.2413 27.0319 29.3035 26.9854C29.4979 26.8117 29.6706 26.6453 29.822 26.4854C29.8517 26.4541 29.8713 26.4106 29.9024 26.377C30.0163 26.2547 30.088 26.0899 30.1674 25.9725C30.2246 25.8881 30.2773 25.8011 30.3253 25.7118C30.4176 25.5407 30.4696 25.3235 30.5477 25.1297C30.5517 25.1195 30.5541 25.1093 30.5544 25.0984C30.5568 25.0354 30.6041 25.0101 30.5852 24.9313C30.5828 24.9211 30.5761 24.9161 30.5653 24.9168ZM28.4145 26.5227C28.424 26.5197 28.4328 26.5151 28.4409 26.5091L28.5342 26.4412C28.5413 26.4363 28.547 26.43 28.5521 26.4228C28.5619 26.4086 28.5765 26.3981 28.5954 26.3915C28.6065 26.3878 28.616 26.3819 28.6245 26.3737L28.909 26.0922C28.9459 26.0559 28.9506 26.0596 28.9239 26.1031C28.8587 26.2102 28.7252 26.3038 28.6329 26.3921C28.5704 26.4518 28.5048 26.5039 28.4355 26.548C28.4078 26.549 28.3777 26.5579 28.3449 26.5741C28.3625 26.5494 28.3858 26.5322 28.4145 26.5227ZM26.031 26.786C26.0448 26.7775 26.057 26.7794 26.0671 26.7923C26.0722 26.7985 26.0789 26.8018 26.0874 26.8018C26.1699 26.8009 26.2635 26.8589 26.3615 26.8618C26.5667 26.8678 26.7719 26.8625 26.9763 26.846C27.0446 26.8404 27.1068 26.874 27.1798 26.8645C27.244 26.8562 27.314 26.8384 27.3782 26.8365C27.4955 26.8335 27.5138 26.8444 27.4333 26.8694L27.3995 26.8737C27.2755 26.9014 27.1538 26.906 27.0348 26.8879C26.9672 26.8773 26.9013 26.8819 26.8327 26.8701C26.8256 26.8688 26.8182 26.8704 26.81 26.8753C26.8006 26.8806 26.7901 26.8836 26.779 26.8842C26.5876 26.8945 26.397 26.8875 26.2074 26.8635C26.1996 26.8625 26.1939 26.8599 26.1905 26.8556C26.1874 26.8519 26.1834 26.8493 26.179 26.848L26.033 26.8018C26.0255 26.7995 26.0245 26.79 26.031 26.786ZM30.4929 24.9339C30.3266 24.9224 30.1603 24.9214 29.9937 24.9313C29.9416 24.9342 29.8947 24.9646 29.8328 24.9586C29.8223 24.9576 29.8119 24.9593 29.8021 24.9636C29.7733 24.9768 29.7436 24.9847 29.7128 24.9873C29.6909 24.989 29.6895 24.9847 29.7088 24.9745C29.747 24.954 29.7993 24.9402 29.8659 24.9326C30.109 24.9052 30.3182 24.9026 30.4936 24.9244C30.4966 24.9244 30.4983 24.9267 30.498 24.9296C30.4977 24.9326 30.496 24.9342 30.4929 24.9339Z" fill="#929AAB"/>
</g>
<defs>
<clipPath id="clip0_1_1024">
<rect width="96" height="12" fill="white" transform="translate(5 16)"/>
</clipPath>
</defs>
</svg>
