<svg width="105" height="45" viewBox="0 0 105 45" fill="none" xmlns="http://www.w3.org/2000/svg">
<path d="M78.8502 33.1706H76.5758C76.5057 32.7926 76.3959 32.5274 76.2465 32.378C76.0026 32.1341 75.5881 32.0091 75.0149 32.0091C74.4417 32.0091 74.0576 32.1036 73.8411 32.2926C73.6765 32.4328 73.5911 32.631 73.5911 32.8719C73.5911 33.2164 74.0698 33.4908 75.018 33.7042C76.1003 33.9389 76.8777 34.1432 77.3533 34.3078C77.4783 34.3536 77.5881 34.3932 77.6673 34.4328C78.6338 34.8871 79.1094 35.5792 79.1094 36.5029C79.1094 37.631 78.6398 38.4542 77.7069 38.9724C77.588 39.0365 77.4783 39.0913 77.3533 39.1462C76.7496 39.4054 76.0453 39.5365 75.2526 39.5365C74.0697 39.5365 73.1124 39.3261 72.3838 38.9084C71.9265 38.6401 71.582 38.3078 71.3533 37.9023C71.1247 37.4999 71.0118 37.0273 71.0118 36.4846H73.396C73.396 36.8932 73.5454 37.2133 73.835 37.4328C74.1246 37.6615 74.6186 37.7773 75.3167 37.7773C75.8411 37.7773 76.2344 37.6676 76.4935 37.4481C76.6978 37.2743 76.7923 37.0883 76.7923 36.8688C76.7923 36.4999 76.3228 36.2103 75.3899 36.006C73.9936 35.7072 73.1155 35.4633 72.7557 35.2926C71.7984 34.8475 71.3289 34.1554 71.3289 33.1981C71.3289 32.4298 71.5728 31.7804 72.0728 31.2469C72.7009 30.5792 73.6399 30.2499 74.8868 30.2499C75.9142 30.2499 76.7374 30.3993 77.3563 30.6889C77.4112 30.7133 77.4569 30.7347 77.5057 30.7682C77.9508 31.0091 78.2893 31.3322 78.5149 31.7316C78.7405 32.131 78.8533 32.6097 78.8533 33.1645L78.8502 33.1706Z" fill="#929AAB"/>
<path d="M65.3809 16.8414L71.8169 27.567H65.3809H61.4755L55.3292 17.317L50.6737 9.564L55.3292 6.76523L58.2621 5L65.3809 16.8414Z" fill="#929AAB"/>
<path d="M70.0518 35.0121V39.4114H67.9115V38.9236C67.189 39.3931 66.3262 39.6675 65.4024 39.6675H65.378C62.8231 39.6523 60.7439 37.5669 60.7439 35.009C60.7439 32.4511 62.8231 30.3688 65.378 30.3535H65.4024C66.3262 30.3535 67.189 30.6279 67.9115 31.0974V30.5883H70.0518V35.009V35.0121ZM67.9115 35.4999V34.5273C67.6829 33.3505 66.6402 32.4572 65.4024 32.4572H65.378C63.9756 32.4663 62.8384 33.6096 62.8384 35.0121C62.8384 36.4145 63.9756 37.5608 65.378 37.5761H65.4024C66.6402 37.5761 67.6829 36.6736 67.9115 35.4999Z" fill="#929AAB"/>
<path d="M60.0027 35.012V39.4113H57.8625V38.9235C57.1338 39.3931 56.2771 39.6674 55.3533 39.6674H55.329C52.7741 39.6522 50.6948 37.5668 50.6948 35.0089C50.6948 32.451 52.7741 30.3687 55.329 30.3535H55.3533C56.2802 30.3535 57.1338 30.6279 57.8625 31.0974V27.5638H60.0027V35.012ZM57.8625 35.4998V34.5272C57.6338 33.3504 56.5911 32.4571 55.3533 32.4571H55.329C53.9265 32.4663 52.7893 33.6095 52.7893 35.012C52.7893 36.4144 53.9265 37.5607 55.329 37.576H55.3533C56.5911 37.576 57.6338 36.6736 57.8625 35.4998Z" fill="#929AAB"/>
<path d="M55.329 23.3474L57.8533 27.5669H55.329H47.5181L41.7803 18.0151L41.5303 17.6004L41.7803 17.4511L49.1278 13.0303L55.329 23.3474Z" fill="#929AAB"/>
<path d="M49.8566 30.3567H47.5273V39.4115H49.8566V30.3567Z" fill="#929AAB"/>
<path d="M49.8566 27.6128H47.5273V29.6585H49.8566V27.6128Z" fill="#929AAB"/>
<path d="M46.4603 35.012V39.4114H44.3201V38.9236C43.5915 39.3931 42.7287 39.6675 41.8018 39.6675H41.7774C39.2226 39.6523 37.1433 37.5669 37.1433 35.009C37.1433 32.4511 39.2195 30.3688 41.7774 30.3535H41.8018C42.7287 30.3535 43.5884 30.6279 44.3201 31.0974V27.5639H46.4603V35.012ZM44.3201 35.4998V34.5273C44.0915 33.3505 43.0488 32.4572 41.8018 32.4572H41.7774C40.375 32.4663 39.2378 33.6096 39.2378 35.012C39.2378 36.4145 40.375 37.5608 41.7774 37.576H41.8018C43.0488 37.576 44.0915 36.6736 44.3201 35.4998Z" fill="#929AAB"/>
<path d="M41.7803 24.0365L43.8993 27.5669H41.7803H33.5578L32.3962 25.6279L39.9938 21.067L41.7803 24.0365Z" fill="#929AAB"/>
<path d="M36.3079 35.0121V39.4114H34.1676V38.9236C33.439 39.3931 32.5762 39.6675 31.6494 39.6675H31.625C29.0762 39.6523 27 37.5669 27 35.009C27 32.4511 29.0762 30.3688 31.625 30.3535H31.6494C32.5731 30.3535 33.4359 30.6279 34.1676 31.0974V30.5883H36.3079V35.009V35.0121ZM34.1676 35.4999V34.5273C33.939 33.3505 32.8963 32.4572 31.6494 32.4572H31.625C30.2287 32.4663 29.0945 33.6096 29.0945 35.0121C29.0945 36.4145 30.2317 37.5608 31.625 37.5761H31.6494C32.8963 37.5761 33.939 36.6736 34.1676 35.4999Z" fill="#929AAB"/>
</svg>
