<svg width="105" height="45" viewBox="0 0 105 45" fill="none" xmlns="http://www.w3.org/2000/svg">
<path d="M46.3639 24.3597C47.0904 24.2819 47.4798 23.854 47.3749 23.2121C47.3729 23.201 47.3734 23.1896 47.3765 23.1787C47.3796 23.1678 47.3852 23.1576 47.3929 23.1489C47.4005 23.1402 47.4101 23.1332 47.421 23.1283C47.4318 23.1234 47.4436 23.1208 47.4556 23.1207L52.3655 23.1168C52.4072 23.1168 52.4301 23.1362 52.4341 23.1751C52.644 25.0676 51.3242 25.9643 49.5887 26.2696C47.2922 26.6723 44.6566 26.5789 42.687 26.5108C41.5468 26.47 39.9041 26.2735 39.0101 25.657C37.8054 24.8265 37.8134 23.7159 37.7771 22.2454C37.7125 19.8025 38.548 18.5752 41.1129 18.2543C43.9785 17.8964 46.8388 17.9282 49.6936 18.3496C50.2385 18.4313 51.2475 18.8397 51.6653 19.2462C52.1913 19.7571 52.42 20.41 52.3514 21.2049C52.3474 21.2593 52.3171 21.2865 52.2606 21.2865L47.5263 21.2827C47.4415 21.2827 47.3958 21.2418 47.389 21.1601L47.3668 20.8684C47.3615 20.7958 47.3352 20.7316 47.2881 20.6758C46.709 20.0009 44.3519 20.2285 43.69 20.3588C42.6628 20.563 42.7819 23.5603 43.3287 24.0523C43.7969 24.4744 45.7443 24.4258 46.3639 24.3597Z" fill="#929AAB"/>
<path d="M69.8435 24.6145C68.9737 26.2074 66.5541 26.4545 64.9275 26.4875C61.8157 26.5517 59.4708 26.752 56.8816 26.1335C54.1835 25.4878 54.5044 23.3288 54.5689 21.1816C54.6315 19.1685 56.1511 18.4158 58.0158 18.2251C60.911 17.9269 63.753 17.925 66.542 18.2193C68.3441 18.4099 70.0332 19.1451 70.1583 21.131C70.2188 22.1035 70.3056 23.7704 69.8435 24.6145ZM63.9891 20.2518L60.6271 20.2402C60.4909 20.2397 60.3559 20.265 60.2298 20.3148C60.1038 20.3645 59.9891 20.4378 59.8924 20.5302C59.7957 20.6227 59.7189 20.7326 59.6663 20.8537C59.6137 20.9748 59.5863 21.1047 59.5858 21.236L59.5777 23.2141C59.5769 23.3652 59.6102 23.5149 59.6755 23.6548C59.7408 23.7946 59.837 23.9219 59.9584 24.0292C60.0799 24.1365 60.2243 24.2217 60.3833 24.2801C60.5424 24.3385 60.713 24.3689 60.8854 24.3694L63.6985 24.3772C64.0461 24.3783 64.3799 24.2585 64.6266 24.0441C64.8733 23.8297 65.0128 23.5381 65.0143 23.2335L65.0224 21.2555C65.0229 21.1242 64.9966 20.9941 64.945 20.8726C64.8933 20.7511 64.8174 20.6406 64.7214 20.5474C64.6255 20.4542 64.5114 20.3801 64.3858 20.3294C64.2601 20.2787 64.1254 20.2523 63.9891 20.2518Z" fill="#929AAB"/>
<path d="M15.9963 25.0677L11.159 25.0716C11.1466 25.0718 11.1345 25.0751 11.1239 25.0813C11.1133 25.0874 11.1045 25.0962 11.0985 25.1066L10.3538 26.3845C10.3478 26.3949 10.339 26.4037 10.3284 26.4098C10.3178 26.4159 10.3057 26.4193 10.2933 26.4195L5.0706 26.4312C5.0581 26.4312 5.04583 26.428 5.03504 26.4219C5.02425 26.4158 5.01532 26.4071 5.00916 26.3966C5.00301 26.3861 4.99985 26.3743 5.00001 26.3622C5.00016 26.3502 5.00363 26.3384 5.01006 26.3281L9.98856 18.198C9.99483 18.1879 10.0037 18.1795 10.0143 18.1737C10.0249 18.1679 10.0369 18.1649 10.0491 18.1649L17.3019 18.1688C17.3143 18.169 17.3264 18.1723 17.3371 18.1785C17.3477 18.1846 17.3565 18.1933 17.3625 18.2038L22.1432 26.3281C22.1491 26.3384 22.1522 26.3499 22.1521 26.3617C22.152 26.3735 22.1487 26.385 22.1426 26.3952C22.1365 26.4054 22.1278 26.4138 22.1173 26.4198C22.1068 26.4258 22.0949 26.429 22.0827 26.4292L16.864 26.4253C16.8513 26.4255 16.8387 26.4223 16.8277 26.4161C16.8167 26.41 16.8076 26.401 16.8015 26.3903L16.0588 25.1027C16.0526 25.092 16.0436 25.0831 16.0325 25.0769C16.0215 25.0707 16.009 25.0676 15.9963 25.0677ZM12.1378 23.1499C12.1333 23.1588 12.1313 23.1687 12.1319 23.1785C12.1325 23.1884 12.1356 23.1979 12.1411 23.2063C12.1465 23.2146 12.154 23.2215 12.163 23.2263C12.172 23.231 12.182 23.2336 12.1923 23.2336L15.0437 23.2083C15.0537 23.2081 15.0635 23.2056 15.0722 23.2009C15.0809 23.1963 15.0883 23.1896 15.0937 23.1815C15.0991 23.1734 15.1023 23.1642 15.1031 23.1546C15.1039 23.145 15.1022 23.1354 15.0982 23.1266L13.6452 20.1741C13.6401 20.1643 13.6322 20.1561 13.6224 20.1505C13.6127 20.1448 13.6015 20.1419 13.5901 20.1421C13.5787 20.1423 13.5677 20.1456 13.5581 20.1516C13.5486 20.1576 13.541 20.1661 13.5363 20.176L12.1378 23.1499Z" fill="#929AAB"/>
<path d="M29.4848 24.3889L36.8648 24.3869C36.8851 24.3869 36.9046 24.3947 36.919 24.4086C36.9334 24.4224 36.9414 24.4412 36.9414 24.4608L36.9273 26.3514C36.9273 26.371 36.9192 26.3898 36.9048 26.4036C36.8905 26.4175 36.871 26.4253 36.8506 26.4253L24.4256 26.4233C24.4052 26.4233 24.3857 26.4155 24.3713 26.4017C24.357 26.3878 24.3489 26.369 24.3489 26.3494V18.2407C24.3489 18.2211 24.357 18.2023 24.3713 18.1884C24.3857 18.1746 24.4052 18.1668 24.4256 18.1668H29.3314C29.3518 18.1668 29.3713 18.1746 29.3856 18.1884C29.4 18.2023 29.4081 18.2211 29.4081 18.2407V24.3149C29.4081 24.3345 29.4162 24.3533 29.4306 24.3672C29.4449 24.3811 29.4644 24.3889 29.4848 24.3889Z" fill="#929AAB"/>
<path d="M75.801 20.2071L71.6317 20.2285C71.6066 20.2285 71.5824 20.2189 71.5646 20.2017C71.5469 20.1846 71.5369 20.1613 71.5369 20.1371V18.2582C71.5369 18.2339 71.5469 18.2107 71.5646 18.1936C71.5824 18.1764 71.6066 18.1668 71.6317 18.1668H85.2071C85.2322 18.1668 85.2563 18.1764 85.2741 18.1936C85.2919 18.2107 85.3019 18.2339 85.3019 18.2582V20.141C85.3019 20.1652 85.2919 20.1885 85.2741 20.2056C85.2563 20.2227 85.2322 20.2324 85.2071 20.2324L81.058 20.2285C81.0328 20.2285 81.0087 20.2381 80.9909 20.2553C80.9731 20.2724 80.9631 20.2957 80.9631 20.3199V26.3339C80.9631 26.3581 80.9531 26.3814 80.9353 26.3985C80.9176 26.4156 80.8934 26.4253 80.8683 26.4253L75.9846 26.4272C75.9595 26.4272 75.9353 26.4176 75.9176 26.4004C75.8998 26.3833 75.8898 26.36 75.8898 26.3358L75.8958 20.2985C75.8958 20.2743 75.8858 20.251 75.868 20.2339C75.8503 20.2167 75.8261 20.2071 75.801 20.2071Z" fill="#929AAB"/>
<path d="M96.5725 20.3082L96.5745 26.3455C96.5745 26.3667 96.5658 26.387 96.5503 26.4019C96.5348 26.4169 96.5137 26.4253 96.4918 26.4253H91.6021C91.5801 26.4253 91.5591 26.4169 91.5436 26.4019C91.528 26.387 91.5193 26.3667 91.5193 26.3455L91.5173 20.3121C91.5173 20.291 91.5086 20.2707 91.4931 20.2557C91.4776 20.2408 91.4565 20.2324 91.4346 20.2324H87.237C87.2151 20.2324 87.1941 20.224 87.1785 20.209C87.163 20.1941 87.1543 20.1738 87.1543 20.1526L87.1462 18.2465C87.1462 18.2254 87.155 18.2051 87.1705 18.1901C87.186 18.1752 87.207 18.1668 87.229 18.1668H100.915C100.937 18.1668 100.958 18.1752 100.974 18.1901C100.989 18.2051 100.998 18.2254 100.998 18.2465L101 20.1565C101 20.1777 100.991 20.198 100.976 20.2129C100.96 20.2279 100.939 20.2363 100.917 20.2363L96.6552 20.2285C96.6333 20.2285 96.6122 20.2369 96.5967 20.2518C96.5812 20.2668 96.5725 20.2871 96.5725 20.3082Z" fill="#929AAB"/>
</svg>
