<svg width="105" height="45" viewBox="0 0 105 45" fill="none" xmlns="http://www.w3.org/2000/svg">
<path d="M44.2509 35.682C43.4477 35.2307 43.2739 33.8193 43.026 33.0458C42.8691 32.5562 42.9497 31.4479 43.0514 30.9372C43.2181 30.1008 43.3721 29.2623 43.5134 28.4217C43.577 28.0424 43.5197 27.7414 43.4901 27.36C43.4858 27.2879 43.5007 27.2201 43.5346 27.1565C43.6843 26.8853 43.8348 26.6154 43.986 26.347C44.2848 25.813 44.2784 25.4082 44.2996 24.8254C44.3272 24.0117 44.9862 23.6196 44.9883 22.7635C44.9883 22.3509 44.982 21.9398 44.9693 21.5301C44.9664 21.4524 45.0025 21.4036 45.0773 21.3839C46.245 21.066 46.4061 19.7754 46.7388 18.8239C46.7628 18.7518 46.7663 18.6791 46.7494 18.6056L46.5714 17.8109C46.5558 17.7374 46.5679 17.6696 46.6074 17.6075C47.2877 16.5309 47.1097 15.6726 47.5716 14.63C47.6847 14.3743 47.7525 14.1073 47.7751 13.8289C47.8493 12.8774 48.1671 12.7842 48.6673 12.0806C49.0678 11.5148 48.9978 10.7243 49.1038 10.0525C49.1151 9.98331 49.1483 9.9261 49.2034 9.88089C50.3711 8.92725 50.4665 7.82104 50.7864 6.45628C50.8034 6.38423 50.8479 6.33901 50.92 6.32065C51.1891 6.25707 51.4794 6.27826 51.8397 6.27826C52.5009 6.28038 52.7637 7.89945 52.7531 8.23004C52.734 8.83401 52.3674 9.63083 52.2572 10.3217C52.041 11.6928 51.3819 12.7227 50.7568 13.8523C50.7229 13.9144 50.7123 13.9808 50.725 14.0515C50.8112 14.5106 50.8338 14.967 50.7928 15.4205C50.7462 15.9185 50.4495 16.3084 50.2355 16.7577C49.9324 17.3977 50.0108 18.0461 49.7777 18.7031C49.4937 19.507 49.1956 20.3045 48.8834 21.0957C48.7972 21.3146 48.699 21.6926 48.5888 22.2294C48.4596 22.8631 48.1226 23.2848 48.0442 23.9396C47.9778 24.4821 47.8245 24.9964 47.5844 25.4824C47.169 26.3216 47.0927 27.129 46.9147 28.0021C46.707 29.013 46.671 30.1912 46.3807 31.2868C46.2973 31.5991 46.286 31.8943 46.3467 32.1727C46.5353 33.05 46.6561 34.1626 47.4911 34.65C47.6818 34.763 47.7263 34.917 47.6246 35.112C47.4063 35.5358 46.9528 35.7393 46.4527 35.7499C45.8021 35.7626 44.8252 36.0042 44.2509 35.682ZM51.2887 10.6266C51.2888 10.6133 51.2833 10.6 51.2724 10.5876C51.2616 10.5751 51.2456 10.5638 51.2254 10.5541C51.2052 10.5445 51.1812 10.5368 51.1548 10.5315C51.1283 10.5261 51.1 10.5233 51.0713 10.523C51.0427 10.5228 51.0142 10.5251 50.9877 10.53C50.9612 10.5349 50.9371 10.5422 50.9167 10.5515C50.8964 10.5607 50.8802 10.5718 50.8691 10.584C50.858 10.5963 50.8523 10.6095 50.8521 10.6228C50.852 10.6362 50.8576 10.6495 50.8684 10.6619C50.8793 10.6743 50.8953 10.6857 50.9154 10.6953C50.9356 10.7049 50.9596 10.7126 50.9861 10.718C51.0125 10.7233 51.0409 10.7262 51.0695 10.7264C51.0982 10.7267 51.1266 10.7243 51.1531 10.7194C51.1797 10.7146 51.2038 10.7073 51.2241 10.698C51.2445 10.6887 51.2607 10.6777 51.2718 10.6654C51.2828 10.6532 51.2886 10.64 51.2887 10.6266Z" fill="#929AAB"/>
<path d="M16 36.5594C16.0579 36.1497 16.1109 35.7894 16.1589 35.4786C16.2713 34.7666 15.9428 34.2029 16.0954 33.4251C16.4034 32.333 16.8773 31.3137 17.5173 30.3671C17.7505 30.021 17.9482 29.6452 18.1107 29.2397C18.6384 27.9216 19.6387 26.9722 19.8548 25.4739C19.9841 24.586 20.6707 24.747 21.3255 24.7047C21.4061 24.7004 21.4612 24.6609 21.4908 24.586C21.5558 24.4179 21.565 24.2441 21.5184 24.0647C21.5 23.9926 21.5156 23.9283 21.565 23.8718L23.3324 21.8755C23.3524 21.8529 23.3662 21.8254 23.3725 21.7957C23.3788 21.7661 23.3774 21.7351 23.3684 21.706L23.2455 21.2928C23.2243 21.2235 23.2377 21.1621 23.2858 21.1084C23.9343 20.3639 24.6901 19.7613 25.5533 19.3007C25.8945 19.1206 26.2632 19.0909 26.6426 18.9807C26.6773 18.9707 26.7094 18.9536 26.7368 18.9306C26.7642 18.9076 26.7862 18.8792 26.8015 18.8472C26.8792 18.6904 26.8778 18.5343 26.7973 18.3789C26.7605 18.3096 26.7754 18.2538 26.8418 18.2114C27.8802 17.5566 28.8359 16.7831 29.8574 16.0965C30.7856 15.4735 31.9088 15.2298 32.9493 14.7868C33.7906 14.4287 34.4582 13.8035 35.6258 13.8438C36.5964 13.8777 37.2068 13.7484 38.0502 13.5789C38.1562 13.5585 38.2656 13.5798 38.3554 13.6382L39.4743 14.3842C39.5709 14.4467 39.6406 14.5436 39.6693 14.6555C39.9688 15.8055 40.1256 16.976 40.1397 18.167C40.1397 18.2334 40.1729 18.2637 40.2393 18.2581C42.1148 18.1097 43.1511 19.7945 41.6104 21.1338C41.5553 21.1819 41.5243 21.2412 41.5172 21.3118C41.3922 22.5622 41.07 24.16 40.127 25.067C39.8748 25.3108 40.1058 25.8257 40.1482 26.1394C40.1581 26.2086 40.1489 26.275 40.1206 26.3386C39.3556 28.0064 39.0208 29.742 38.5355 31.5136C38.3476 32.196 38.3356 32.9271 38.4995 33.707C38.7283 34.8005 39.4955 35.6418 40.3389 36.3284C40.3583 36.3442 40.3729 36.365 40.3811 36.3886C40.3892 36.4122 40.3906 36.4376 40.3852 36.4621C40.3797 36.4867 40.3675 36.5093 40.35 36.5276C40.3325 36.5459 40.3103 36.5591 40.2859 36.5658C39.4573 36.7819 38.5397 37.0786 37.726 36.8794C36.5632 36.5969 35.8575 35.8156 35.6089 34.5356C35.5312 34.1372 35.3899 33.7649 35.185 33.4188C35.1497 33.3608 35.1306 33.298 35.1278 33.2302C35.108 32.8091 35.1398 32.3931 35.2232 31.982C35.3503 31.3462 35.2974 30.7041 35.4139 30.1891C35.6075 29.3429 35.7904 28.4952 35.9628 27.6461C36.0179 27.3777 36.0031 27.1191 35.9183 26.8705C35.8957 26.8041 35.8491 26.768 35.7784 26.7624C35.0303 26.6988 34.6319 27.0697 34.0767 27.6313C34.0216 27.6864 33.9919 27.7528 33.9877 27.8305L33.9326 28.8498C33.9299 28.9047 33.9074 28.9569 33.8694 28.9969C33.8313 29.0369 33.7801 29.0621 33.7249 29.0681C32.8306 29.1634 32.3347 29.6212 31.877 30.3756C31.326 31.2847 30.4953 31.1491 29.9019 31.9078C29.423 32.5181 29.0012 33.1878 28.4503 33.7345C28.4129 33.7719 28.366 33.7983 28.3146 33.8108C27.3377 34.0333 27.2105 34.6627 26.8248 35.3769C26.3332 36.286 25.3308 36.2394 24.3327 36.3263C24.298 36.3296 24.2646 36.3403 24.2346 36.3574C24.2047 36.3746 24.1788 36.398 24.1589 36.4259C23.7986 36.9366 23.3536 37.1825 22.8047 37.5682C22.2114 37.9814 21.5205 38.2336 20.8402 37.9602C20.7738 37.9334 20.7053 37.9263 20.6347 37.939C19.4437 38.1467 18.6956 38.348 17.4029 37.7504C16.7799 37.4636 16.3122 37.0666 16 36.5594ZM38.2155 16.3042L38.2769 15.2001C38.2772 15.1954 38.2766 15.1906 38.275 15.1861C38.2735 15.1816 38.2711 15.1775 38.2679 15.174C38.2648 15.1704 38.2609 15.1675 38.2567 15.1655C38.2524 15.1634 38.2478 15.1622 38.243 15.1619H38.2303C38.1671 15.1588 38.1032 15.2135 38.0528 15.314C38.0023 15.4144 37.9694 15.5526 37.9612 15.6981L37.9569 15.7744C37.9488 15.9201 37.9661 16.0612 38.005 16.1669C38.0439 16.2726 38.1013 16.3342 38.1646 16.3381H38.1773C38.1821 16.3384 38.1868 16.3377 38.1913 16.3362C38.1958 16.3346 38.1999 16.3322 38.2035 16.3291C38.207 16.3259 38.2099 16.3221 38.212 16.3178C38.214 16.3136 38.2152 16.3089 38.2155 16.3042ZM21.7451 30.9457C21.6455 31.1788 21.4061 31.5179 21.3594 31.8336C21.2902 32.2998 21.2175 32.6516 21.1412 32.889C20.6961 34.2898 22.3364 34.0778 23.0484 33.8596C24.2832 33.4838 25.3859 32.8798 26.3565 32.0477C26.7083 31.7446 27.0601 31.6662 27.4712 31.4776C27.536 31.4486 27.59 31.4005 27.6259 31.3398C27.8823 30.9118 28.0942 30.5579 28.5414 30.2697C29.3085 29.7738 29.9153 29.1274 30.3618 28.3306C30.7093 27.7118 31.5591 27.3303 32.1313 26.951C32.8772 26.4551 33.4049 25.654 34.0386 25.0183C34.2053 24.8516 34.3699 24.6291 34.5323 24.3508C34.7202 24.0329 35.2543 23.3999 36.1344 22.452C36.6812 21.8614 37.0669 21.3132 37.2915 20.8075C37.6306 20.0403 38.5207 17.7071 38.1011 16.8297C37.9209 16.4568 37.0754 15.5476 36.5795 15.7935C35.7954 16.1806 34.9957 16.5323 34.1805 16.8488C33.9022 16.9576 33.6458 17.1031 33.4113 17.2854C32.4308 18.0469 31.5047 18.8691 30.633 19.7521C30.3893 19.9979 29.851 20.0827 29.5522 20.3179C29.1694 20.6174 28.9165 21.0088 28.7936 21.492C28.7766 21.5626 28.742 21.6234 28.6897 21.6742C28.4439 21.9144 28.2171 22.1701 28.0095 22.4414C27.6238 22.9457 27.0855 23.0771 26.6892 23.6027C26.3014 24.1155 25.8076 24.5478 25.458 25.0437C25.0016 25.6922 24.5495 26.3442 24.1017 26.9997C23.699 27.591 23.1798 28.5679 22.5886 29.2863C22.4021 29.5152 22.1209 30.0683 21.7451 30.9457ZM28.6112 32.2087C28.5883 32.1715 28.5536 32.1421 28.5093 32.122C28.465 32.1019 28.4119 32.0916 28.3529 32.0917C28.294 32.0918 28.2304 32.1023 28.1659 32.1225C28.1013 32.1427 28.037 32.1723 27.9766 32.2096C27.9162 32.2469 27.861 32.2911 27.814 32.3398C27.767 32.3885 27.7292 32.4407 27.7027 32.4933C27.6762 32.546 27.6616 32.5981 27.6598 32.6467C27.6579 32.6953 27.6687 32.7395 27.6917 32.7767C27.7146 32.8138 27.7493 32.8433 27.7936 32.8634C27.8379 32.8835 27.891 32.8937 27.95 32.8937C28.0089 32.8936 28.0725 32.8831 28.137 32.8629C28.2016 32.8427 28.2659 32.8131 28.3263 32.7758C28.3867 32.7385 28.4419 32.6942 28.4889 32.6455C28.5359 32.5969 28.5737 32.5447 28.6002 32.4921C28.6267 32.4394 28.6412 32.3873 28.6431 32.3387C28.645 32.29 28.6342 32.2459 28.6112 32.2087Z" fill="#929AAB"/>
<path d="M89.7076 19.9576L90.2162 20.2013C90.2313 20.2083 90.2439 20.2202 90.2522 20.2353L90.7629 21.2058C90.7803 21.24 90.7884 21.2781 90.7866 21.3164C90.7847 21.3547 90.7729 21.3918 90.7523 21.4241C90.604 21.6601 90.5227 21.9151 90.5086 22.1891C90.5058 22.2626 90.4804 22.3269 90.4323 22.382L88.9786 24.0625C88.8467 24.214 88.6898 24.3423 88.5145 24.4418C87.7643 24.8699 87.0141 25.3044 86.2639 25.7452C86.083 25.8511 85.9121 26.0433 85.751 26.3216C85.7339 26.3506 85.7089 26.3742 85.6789 26.3896C85.6488 26.405 85.6151 26.4115 85.5815 26.4085C84.7274 26.3173 84.8165 27.2222 84.1977 27.3896C83.6834 27.5281 83.0526 27.5429 82.3052 27.4341C81.5338 27.3218 80.9065 27.6588 80.2581 27.9978C80.1973 28.0289 80.1486 28.0741 80.1118 28.1335C79.4676 29.1952 79.1052 29.9793 79.7452 31.094C79.9487 31.4486 80.3118 31.7488 80.8345 31.9947C81.3113 32.2193 81.9153 32.2659 82.462 32.3973C82.9283 32.5117 83.8522 32.3041 84.2294 32.0052C84.7211 31.6153 85.2827 31.4098 85.7934 31.0664C86.3317 30.7041 86.675 30.5494 87.279 30.5875C87.348 30.5918 87.4172 30.5811 87.4818 30.5559C87.5463 30.5308 87.6047 30.4919 87.6528 30.442C87.7009 30.392 87.7377 30.3322 87.7606 30.2666C87.7835 30.201 87.792 30.1312 87.7854 30.062C87.7007 29.1782 89.2625 28.4556 89.9322 28.3263C90.409 28.2331 90.7311 28.4789 90.943 28.8688C90.994 28.9627 91.0114 29.071 90.9925 29.1758C90.9737 29.2806 90.9196 29.3757 90.8392 29.4453C90.3052 29.903 90.1568 30.4794 89.6715 30.9753C89.2371 31.4161 89.0294 31.9947 88.6013 32.338C87.9995 32.824 87.291 33.0133 86.4758 32.9059C86.0562 32.8508 85.6641 33.2662 85.3335 33.6455C85.2855 33.7006 85.2248 33.7296 85.1513 33.7324C84.4774 33.7663 83.8077 33.8327 83.1423 33.9316C82.1675 34.0799 81.2774 33.9591 80.3089 33.9528C80.2395 33.9514 80.173 33.9242 80.1224 33.8765C79.895 33.6589 79.6704 33.4428 79.4485 33.228C79.1158 32.9059 78.7238 32.7131 78.3423 32.4397C78.2844 32.3987 78.242 32.3443 78.2152 32.2765C77.821 31.2762 76.8377 31.1703 76.8737 29.9306C76.8977 29.1323 76.8914 28.3355 76.8547 27.5401C76.8207 26.7878 77.6451 25.5036 78.0245 24.8339C78.3233 24.3126 78.2533 23.7446 78.6433 23.217C79.1285 22.56 79.4083 21.9899 79.8554 21.4072C80.1055 21.0808 80.3358 20.7198 80.5463 20.3243C81.0167 19.4406 81.7436 18.008 83.0215 18.5102C83.0822 18.5357 83.1402 18.5293 83.1953 18.4912C83.5584 18.2467 83.7547 17.9091 83.7844 17.4782C83.7872 17.4325 83.8026 17.3891 83.8289 17.3532C84.56 16.3614 87.5417 15.9291 88.6437 16.2342C89.1184 16.3642 89.7189 16.7188 90.445 17.298C90.4987 17.3418 90.5326 17.3977 90.5467 17.4655C90.5778 17.6082 90.5891 17.7523 90.5807 17.8978C90.5362 18.6289 90.8138 19.7118 89.7309 19.822C89.7156 19.824 89.7014 19.8308 89.6903 19.8415C89.6793 19.8522 89.6719 19.8661 89.6693 19.8812C89.6667 19.8964 89.669 19.912 89.6759 19.9257C89.6827 19.9395 89.6939 19.9506 89.7076 19.9576ZM87.6286 18.5251C87.5505 18.4824 87.4626 18.4608 87.3735 18.4623C87.2843 18.4638 87.197 18.4883 87.12 18.5335C85.7892 19.3155 84.6321 20.4917 83.5047 21.547C83.3337 21.7067 83.2087 22.0125 83.1296 22.4646C83.1173 22.5347 83.0815 22.5989 83.0279 22.6469C82.693 22.9478 82.4239 23.1046 82.248 23.5475C82.0276 24.1028 81.7846 24.6241 81.519 25.1115C81.4952 25.1559 81.4832 25.2055 81.4839 25.2558C81.4846 25.3061 81.4981 25.3554 81.5231 25.3991C81.5481 25.4427 81.5838 25.4793 81.6268 25.5054C81.6698 25.5314 81.7188 25.5461 81.7691 25.5481C83.35 25.6053 84.5431 24.8191 86.16 23.8739C87.1285 23.3081 87.8172 22.7105 88.506 21.9009C88.5429 21.8574 88.5694 21.8061 88.5834 21.751C88.5973 21.6958 88.5984 21.6384 88.5865 21.5831L88.3619 20.5425C88.3477 20.4705 88.3612 20.4048 88.4021 20.3454C88.6013 20.0657 88.8443 19.8262 89.1311 19.627C89.1563 19.6098 89.1766 19.5863 89.1899 19.5588C89.2032 19.5313 89.2092 19.5008 89.2073 19.4701C89.2054 19.4395 89.1956 19.4098 89.179 19.3838C89.1623 19.3578 89.1392 19.3365 89.1121 19.3219L87.6286 18.5251Z" fill="#929AAB"/>
<path d="M70.0987 29.4855L69.3379 26.7433C69.6149 26.5187 69.8246 26.2771 69.9673 26.0185C70.2612 25.4831 70.4766 25.1567 70.6137 25.0395C70.9556 24.7442 71.2996 24.4539 71.6457 24.1685C71.7022 24.1219 71.7355 24.0632 71.7453 23.9926C71.8916 23.0389 72.3663 22.9309 72.7943 22.1807C72.8297 22.1185 72.8798 22.0726 72.9448 22.0429C73.3178 21.8748 73.6561 21.6594 73.9599 21.3966C74.4261 20.9939 74.4939 20.3836 74.975 19.9831C75.4017 19.6256 75.834 19.2597 76.2719 18.8853C76.5305 18.5484 76.7742 18.2241 77.1154 17.9486C78.0923 17.1582 78.8468 16.2554 80.0632 15.7998C80.5315 15.6239 80.9638 16.0562 81.163 16.4016C81.1811 16.4344 81.1923 16.4703 81.196 16.5072C81.1996 16.544 81.1956 16.5809 81.1842 16.6157C81.1164 16.8234 80.9963 16.9936 80.824 17.1264C79.8689 17.8568 79.2769 18.3598 79.0481 18.6353C78.3445 19.4808 77.6261 20.0954 77.145 21.1868C76.7615 22.0599 75.2441 22.6405 74.6317 23.5518C74.3901 23.9135 74.104 24.2102 73.7734 24.4419C73.6912 24.4995 73.6296 24.5819 73.5976 24.6768C73.5655 24.7718 73.5648 24.8743 73.5954 24.9695C73.9853 26.2008 72.3345 26.3703 71.7347 27.076C71.4105 27.4553 71.2261 27.6418 71.1159 28.1801C71.0015 28.7466 70.6624 29.1818 70.0987 29.4855Z" fill="#929AAB"/>
<path d="M69.3379 26.7433L70.0987 29.4855L69.9546 29.6465C69.0773 30.0746 69.1451 30.5854 69.1833 31.4373C69.1844 31.4645 69.18 31.4917 69.1705 31.5172C69.1609 31.5428 69.1463 31.5661 69.1275 31.5859C69.1087 31.6056 69.0861 31.6214 69.0611 31.6323C69.0361 31.6432 69.0092 31.6489 68.9819 31.6492C68.414 31.652 67.9343 31.8562 67.543 32.2616C67.4964 32.3111 67.4392 32.3344 67.3713 32.3316L66.7271 32.3167C66.6884 32.3158 66.6499 32.3229 66.614 32.3375C66.5782 32.3521 66.5457 32.3739 66.5188 32.4016C66.4919 32.4293 66.4711 32.4623 66.4577 32.4984C66.4443 32.5344 66.4387 32.5729 66.441 32.6113L66.5258 34.0142C66.53 34.0806 66.5025 34.1286 66.4431 34.1583C66.0221 34.366 65.6626 34.6422 65.3645 34.9869C64.8474 35.5866 64.3579 35.8897 63.7157 35.273C63.6649 35.2236 63.6034 35.1939 63.5314 35.184C62.9295 35.1119 62.351 35.1056 62.1963 34.4465C61.9731 33.5056 61.9045 32.7752 61.9907 32.2553C62.2478 30.6871 62.4767 29.1153 62.6773 27.5401C62.7282 27.1431 62.8398 26.7093 63.0122 26.2389C63.0362 26.1739 63.0433 26.1068 63.0334 26.0376L62.8702 24.8211C62.8589 24.7378 62.8737 24.6594 62.9147 24.5859C63.2665 23.9671 63.1181 23.3483 63.2622 22.7571C63.5307 21.6551 63.6825 20.5383 63.7179 19.4066C63.7412 18.6903 63.6331 17.9401 63.5568 17.1942C63.5474 17.1034 63.5717 17.0124 63.6252 16.9382C63.6787 16.864 63.7577 16.8118 63.8471 16.7915C65.0445 16.5245 66.5936 17.0713 66.7822 18.4826C66.9242 19.5444 67.4137 20.7608 66.8797 21.7653C66.8472 21.8288 66.8324 21.8967 66.8352 21.9687C66.8924 23.0156 66.7462 24.747 66.0723 25.6519C66.0299 25.7098 66.0101 25.7741 66.013 25.8447C66.0469 26.4784 66.3478 27.4447 66.2037 28.0233C66.1853 28.0939 66.1479 28.1525 66.0914 28.1991C65.8286 28.4111 65.6244 28.6696 65.4789 28.9748C65.4633 29.0066 65.4608 29.0433 65.4719 29.0769C65.483 29.1106 65.5068 29.1386 65.5382 29.1549L66.1083 29.4558C66.1327 29.4684 66.1597 29.4751 66.1873 29.4755C66.2149 29.4758 66.2422 29.4698 66.2672 29.4579C66.7822 29.1994 67.2166 28.9811 67.596 28.5064C68.0763 27.9088 68.657 27.3211 69.3379 26.7433Z" fill="#929AAB"/>
<path d="M57.9537 11.8284L57.5299 11.0888C57.496 11.0295 57.4882 10.9659 57.5066 10.8981C57.5885 10.5831 57.7185 10.3817 57.8965 10.2941C58.8353 9.82368 59.505 9.44435 60.3738 9.61177C60.4393 9.62535 60.4973 9.66229 60.537 9.7156C60.8436 10.1324 61.1947 10.5061 61.5903 10.8367C61.9781 11.1588 61.567 12.3392 61.3169 12.8011C61.1078 13.1883 60.8372 13.4567 60.5052 13.6064C59.1913 14.2019 58.5196 13.5132 57.5808 12.7397C57.5285 12.6973 57.5264 12.6535 57.5744 12.6083C57.7439 12.4486 57.8746 12.2615 57.9664 12.0467C57.9975 11.9718 57.9933 11.8991 57.9537 11.8284ZM60.5372 12.202C60.57 12.2308 60.6104 12.2503 60.656 12.2595C60.7016 12.2687 60.7515 12.2674 60.8029 12.2556C60.8543 12.2438 60.9061 12.2218 60.9554 12.1909C61.0048 12.1599 61.0506 12.1206 61.0904 12.0751C61.1708 11.9834 61.2214 11.8723 61.2313 11.7663C61.2411 11.6603 61.2094 11.5681 61.143 11.51C61.1101 11.4812 61.0697 11.4617 61.0241 11.4525C60.9785 11.4432 60.9286 11.4446 60.8772 11.4564C60.8259 11.4681 60.774 11.4901 60.7247 11.5211C60.6754 11.5521 60.6295 11.5914 60.5897 11.6368C60.5094 11.7286 60.4587 11.8397 60.4489 11.9457C60.439 12.0517 60.4708 12.1439 60.5372 12.202Z" fill="#929AAB"/>
<path d="M58.0491 21.6382C58.22 21.8911 58.2645 22.1637 58.1826 22.4562C57.746 24.0265 56.856 25.6498 56.3855 27.0675C55.9942 28.2458 55.766 29.0214 55.701 29.3944C55.3937 31.1597 54.972 32.872 54.936 34.6627C54.9346 34.7291 54.9515 34.7906 54.9868 34.8471L55.1903 35.1777C55.2581 35.2865 55.2341 35.3698 55.1182 35.4277L55.0207 35.4765C54.9798 35.4963 54.9338 35.5029 54.8889 35.4953C54.8441 35.4877 54.8027 35.4663 54.7707 35.4341L54.546 35.2095C54.5266 35.1893 54.5021 35.1742 54.4747 35.1657C54.4473 35.1572 54.418 35.1555 54.3892 35.1607C54.1151 35.213 53.863 35.3154 53.6327 35.468C53.5072 35.5505 53.3563 35.5851 53.2077 35.5657C53.059 35.5462 52.9225 35.4739 52.8231 35.362L51.7678 34.1732C51.7183 34.1167 51.6929 34.0517 51.6915 33.9782L51.6639 32.7237C51.6639 32.6959 51.6559 32.668 51.6406 32.6431L51.2253 31.9459C51.1857 31.8795 51.1695 31.8089 51.1765 31.734C51.2592 30.8397 51.0473 30.2633 51.8102 29.6148C51.8667 29.5653 51.8872 29.5046 51.8716 29.4325C51.6258 28.2924 52.0666 27.5104 52.3633 26.4381C52.4714 26.0503 53.1431 25.601 53.3699 25.0882C53.6814 24.3846 53.6857 23.7913 53.7429 23.0389C53.8043 22.2252 54.58 21.4326 54.9784 20.7439C55.4658 19.9068 55.4849 18.8323 55.9468 17.9974C56.1312 17.6647 56.6398 17.6774 56.9386 17.635C57.6379 17.5375 58.2596 17.683 58.8035 18.0716C59.0493 18.2467 59.1991 18.4912 59.2528 18.8048C59.3319 19.2724 59.3248 19.7408 59.2316 20.2098C59.2146 20.2946 59.1645 20.3518 59.0811 20.3815C58.6799 20.5228 58.4213 20.806 58.3055 21.2313C58.3 21.248 58.2905 21.2632 58.2779 21.2758L58.0681 21.4729C58.0144 21.5237 58.0081 21.5788 58.0491 21.6382ZM52.9249 27.8983L52.838 28.1144C52.8321 28.1283 52.8293 28.1434 52.8298 28.1585C52.8304 28.1736 52.8341 28.1885 52.841 28.2022C52.8478 28.2158 52.8575 28.2279 52.8694 28.2376C52.8813 28.2473 52.8952 28.2545 52.91 28.2585C53.0711 28.3009 53.2279 28.296 53.3805 28.2437C53.4695 28.214 53.5126 28.1526 53.5098 28.0593C53.5013 27.7965 53.384 27.6157 53.158 27.5168C53.1414 27.5098 53.1236 27.506 53.1056 27.5058C53.0876 27.5056 53.0698 27.509 53.0533 27.5157C53.0367 27.5224 53.0217 27.5324 53.0091 27.5449C52.9965 27.5575 52.9866 27.5724 52.98 27.5888C52.9559 27.651 52.9446 27.7139 52.9461 27.7775C52.9475 27.818 52.9403 27.8591 52.9249 27.8983ZM51.9543 31.9417C51.9656 32.0123 51.9952 32.0745 52.0433 32.1282C52.0542 32.1405 52.0678 32.1502 52.083 32.1566C52.0982 32.163 52.1147 32.1659 52.1311 32.1651C52.1476 32.1643 52.1637 32.1598 52.1782 32.1519C52.1927 32.1441 52.2052 32.133 52.2149 32.1197C52.2714 32.0392 52.287 31.9706 52.2616 31.9141C52.2432 31.8732 52.2079 31.847 52.1556 31.8357C52.0722 31.8159 52.0073 31.8428 51.9606 31.9162C51.9579 31.9203 51.9559 31.9246 51.9548 31.929C51.9538 31.9333 51.9536 31.9377 51.9543 31.9417Z" fill="#929AAB"/>
</svg>
