<svg width="105" height="45" viewBox="0 0 105 45" fill="none" xmlns="http://www.w3.org/2000/svg">
<g clip-path="url(#clip0_1_1030)">
<path d="M17.6233 15.5626L14.29 25.3138H20.8704L17.6233 15.5626ZM20.5515 32.5038V32.0719H23.1328L21.0169 25.7436H14.1176L11.9435 32.0719H13.8289V32.5038H10V32.0719H11.4501L18.7265 11.2183L25.7702 32.0719H27.7115V32.5038H20.5515Z" fill="#929AAB"/>
<path d="M46.8192 3H46.6167V41H46.8192V3Z" fill="#929AAB"/>
<path d="M28.9419 29.3011C28.9419 29.0937 28.9871 28.8479 28.9871 28.8479H32.5639C32.5639 28.8479 31.3832 29.7928 31.4155 30.8597C31.4478 31.8816 32.1179 32.1809 32.6954 32.1809C33.8395 32.1809 35.1194 31.5994 35.1194 29.9959V11.648H33.4129V11.2162H39.2822V11.648H37.5757V27.2936C37.5757 30.7699 36.0847 32.6278 32.5833 32.6278C30.6786 32.6278 28.9419 31.7448 28.9419 29.3032" fill="#929AAB"/>
<path d="M79.4887 17.32L81.025 12.8217L82.5225 17.32H79.4865M63.3113 15.5818V11.4278H64.0482C65.2376 11.4278 66.0413 12.1975 66.0413 13.6042C66.0413 14.3739 65.438 15.5818 64.1689 15.5818H63.3135H63.3113ZM55.3368 17.32L56.8753 12.8217L58.3728 17.32H55.3368ZM95.9979 11.4278V11.229H91.2123V11.4278H91.9751V18.5536L87.3059 11.229H85.302V11.4278H86.0648V20.4371H84.7849L81.5356 10.8163L78.1808 20.4371H76.8729V11.4278H77.6357V11.229H75.7654L73.1841 18.7396L70.4821 11.229H68.6377V11.4278H69.4004V20.4371H67.9999C67.5194 20.4371 67.1316 20.0117 67.1316 19.3489V17.955C67.1316 16.8005 66.7157 15.8705 65.4186 15.6716C66.5024 15.5263 67.291 14.5706 67.291 13.5487C67.291 12.2338 66.3149 11.2268 64.3606 11.2268H61.4734V11.4257H62.2361V20.435H60.6417L57.3924 10.8142L54.0354 20.435H53.3674V20.6338H55.1321V20.435H54.2616L55.2657 17.5167H58.4482L59.4243 20.435H58.2349V20.6338H64.4985V20.435H63.3199V15.7785H64.1753C65.3647 15.7785 65.981 16.2296 65.981 17.4098V18.2329C65.981 20.1977 67.2371 20.6338 67.9051 20.6338H70.4175V20.435H69.6008V12.1055L72.7704 20.745L75.7934 11.8276V20.4393H75.0328V20.6381H79.2818V20.4393H78.4114L79.4154 17.521H82.5979L83.574 20.4393H82.3846V20.6381H87.0236V20.4393H86.2738V11.7335L92.1863 20.9567V11.4278H94.1643V20.4371H93.4015V20.636H96.0108V20.4371H95.2481V11.4278H96.0108" fill="#929AAB"/>
<path d="M69.1547 25.534C69.1547 24.2192 68.7518 23.2913 67.1487 23.2913H64.9165V27.657H65.5973C66.6402 27.657 67.1358 27.1268 67.1358 26.2118H67.3232V29.2904H67.1358C67.1358 28.3882 66.6402 27.8452 65.5973 27.8452H64.9165V32.3028H66.4808C68.8186 32.3028 69.1547 31.1889 69.1547 29.795H69.3422V32.5016H63.0052V32.3028H63.8348V23.2935H63.0052V23.0946H69.3422V25.5362H69.1547" fill="#929AAB"/>
<path d="M71.7059 29.1835L73.2443 24.6853L74.7418 29.1835H71.7059ZM83.604 23.0925V23.2913H84.3668V30.4171L79.6998 23.0925H77.6937V23.2913H78.4565V32.3007H76.9999L73.7507 22.682L70.3937 32.3007H69.7257V32.4995H71.4904V32.3007H70.6221L71.624 29.3824H74.8065L75.7847 32.3007H74.5931V32.4995H79.4046V32.3007H78.6569V23.5971L84.5693 32.8202V23.2935H85.3321V23.0946H83.6062" fill="#929AAB"/>
<path d="M88.4543 32.7261C87.9738 32.7261 87.5838 32.5936 87.2649 32.446C87.0107 32.3413 86.7435 32.1018 86.3147 32.1018C85.9807 32.1018 85.7933 32.446 85.7416 32.6983H85.58V29.7137H85.7523C85.7523 30.4962 86.194 31.3728 86.9417 31.9821C87.3576 32.3135 87.879 32.5252 88.4543 32.5252C89.8721 32.5252 90.6327 31.5695 90.6327 30.7207C90.6327 29.1151 89.6717 28.6897 87.8769 28.2129C86.5539 27.8559 85.7394 26.9259 85.7394 25.5854C85.7394 23.9669 86.9417 22.8659 88.185 22.8659C89.2946 22.8659 89.7234 23.5543 90.1113 23.5543C90.4732 23.5543 90.525 23.1973 90.5508 23.0497H90.7124V25.6773H90.5508C90.5508 24.4159 89.536 23.0626 88.185 23.0626C87.2089 23.0626 86.3406 23.7382 86.3406 24.8413C86.3406 25.9445 87.1162 26.618 88.7193 27.0563C90.3784 27.5202 91.2489 28.0526 91.2489 29.7779C91.2489 30.9858 90.5271 32.724 88.4543 32.724" fill="#929AAB"/>
<path d="M58.1012 31.1633C58.1012 31.0713 58.1206 30.9623 58.1206 30.9623H59.7151C59.7151 30.9623 59.1893 31.3835 59.2044 31.8602C59.2173 32.3156 59.5168 32.4503 59.7754 32.4503C60.286 32.4503 60.857 32.1916 60.857 31.4754V23.2935H60.0964V23.0946H62.7165V23.2935H61.9538V30.2696C61.9538 31.8218 61.2901 32.6492 59.7258 32.6492C58.8769 32.6492 58.1012 32.2536 58.1012 31.1654" fill="#929AAB"/>
</g>
<defs>
<clipPath id="clip0_1_1030">
<rect width="86" height="38" fill="white" transform="translate(10 3)"/>
</clipPath>
</defs>
</svg>
