<svg width="105" height="45" viewBox="0 0 105 45" fill="none" xmlns="http://www.w3.org/2000/svg">
<path d="M31.2471 9C26.8498 9 22.4302 11.6934 19.7889 14.238L20.0828 14.584C24.2829 11.2768 30.4919 9.12277 32.8059 12.3519C34.0261 14.0558 32.9472 17.4932 31.0946 20.2127C31.4517 19.0111 30.73 16.7083 27.5529 16.7083C22.2665 16.7083 12.9697 23.7097 14.0932 30.8711C14.5434 33.7394 16.8276 35.6143 20.1051 35.6143C28.881 35.6143 38.5238 21.2283 37.3892 14.0037C36.9874 11.4516 35.1347 9.00372 31.2434 9.00372L31.2471 9ZM21.8982 27.8726C20.3804 27.8726 19.4689 26.7044 19.6363 25.354C19.9823 22.5564 24.387 18.4084 27.832 18.4084C30.3468 18.4084 30.5068 20.6554 29.3349 22.575L28.6616 23.4753C26.1913 26.3436 23.7248 27.8726 21.8982 27.8726Z" fill="#929AAB"/>
<path d="M51.8571 16.5968C50.8935 15.6035 49.517 15.1607 48.5796 15.1607H43.4457L43.0848 18.4085H47.9248L48.3973 18.4569C48.3973 18.4569 48.8511 18.5089 49.145 18.84C49.3868 19.1153 49.4798 19.5246 49.4203 20.064L49.3236 20.9196H46.273C43.6466 20.9196 40.2835 22.802 39.9487 25.8452C39.7813 27.363 40.343 28.6762 41.2842 29.6435C42.218 30.6033 43.7731 31.1316 45.369 31.1316H48.1927H51.7827L52.4783 24.8444L52.9917 20.2202C53.1926 18.401 52.4821 17.2478 51.8533 16.6005L51.8571 16.5968ZM45.5104 27.8764C45.0007 27.8764 44.5469 27.6978 44.2306 27.3742C43.8995 27.0319 43.7433 26.5483 43.7954 26.0498C43.9144 24.9672 44.9486 24.1153 46.1503 24.1153H48.9739L48.5572 27.8764H45.5104Z" fill="#929AAB"/>
<path d="M86.8866 15.1607C85.4989 15.1607 84.275 15.57 83.3449 16.3512C82.4074 17.1362 81.9722 18.0774 81.8271 19.3795C81.5146 22.1956 83.9402 23.5572 85.8747 24.5208C87.2586 25.2127 88.4565 25.808 88.356 26.6934C88.2854 27.3295 88.0956 27.8838 86.5257 27.8838H81.7341L81.377 31.1316H86.682C88.1031 31.1316 89.3717 30.8339 90.3017 30.0229C91.2318 29.2082 91.6521 28.0736 91.8047 26.6859C91.9498 25.3653 91.5145 24.1078 90.5175 23.1666C89.6879 22.3779 88.583 21.8311 87.6083 21.3437C86.362 20.7262 85.1864 20.1421 85.2683 19.4353C85.3166 19.0074 85.6477 18.4122 86.5741 18.4122H91.2355L91.5963 15.1645H86.8866V15.1607Z" fill="#929AAB"/>
<path d="M59.0705 15.1607C57.6828 15.1607 56.4552 15.57 55.5288 16.3512C54.5913 17.1362 54.1561 18.0774 54.011 19.3795C53.6985 22.1956 56.1278 23.5572 58.0586 24.5208C59.4425 25.2127 60.6404 25.808 60.5399 26.6934C60.4693 27.3295 60.2795 27.8838 58.7096 27.8838H53.918L53.5571 31.1316H58.8621C60.287 31.1316 61.5518 30.8339 62.4819 30.0229C63.4157 29.2082 63.8323 28.0736 63.9849 26.6859C64.1299 25.3653 63.6947 24.1078 62.6977 23.1666C61.8681 22.3779 60.7632 21.8311 59.7885 21.3437C58.5422 20.7262 57.3703 20.1421 57.4485 19.4353C57.4968 19.0074 57.8279 18.4122 58.7543 18.4122H63.4119L63.7728 15.1645H59.063L59.0705 15.1607Z" fill="#929AAB"/>
<path d="M66.31 15.1607L64.6582 31.1279H68.1738L69.8218 15.1607H66.31Z" fill="#929AAB"/>
<path d="M79.1745 15.1607C72.9915 15.1831 70.4023 19.305 69.9744 23.1443C69.4685 27.6978 72.4335 31.1279 76.8643 31.1279H79.833L80.1901 27.8801H77.2214C75.5622 27.8801 73.0771 26.5743 73.4566 23.1443C73.7579 20.4174 76.0979 18.4122 79.0145 18.4122H80.9007L81.2615 15.1645H79.1671L79.1745 15.1607Z" fill="#929AAB"/>
</svg>
