<svg width="105" height="45" viewBox="0 0 105 45" fill="none" xmlns="http://www.w3.org/2000/svg">
<path d="M9.34221 18.9526C9.94913 18.404 10.5755 17.7971 11.3769 17.5831C14.8939 16.6455 17.7534 18.9253 17.6172 22.454C17.4538 26.7024 12.2328 28.6787 9.37334 25.3563C9.22291 25.1825 9.15158 25.211 9.15936 25.4419L9.20216 26.6479C9.20321 26.6726 9.19935 26.6972 9.19083 26.7203C9.18231 26.7434 9.16929 26.7645 9.15257 26.7823C9.13585 26.8002 9.11576 26.8143 9.09353 26.824C9.07129 26.8336 9.04737 26.8386 9.02319 26.8386L8.22565 26.8463C8.07522 26.8489 8 26.7763 8 26.6285L8.01167 14.1167C8.01167 14.1014 8.01479 14.0862 8.02085 14.072C8.02691 14.0579 8.0358 14.045 8.047 14.0342C8.05819 14.0233 8.07149 14.0147 8.08612 14.0089C8.10076 14.003 8.11644 14 8.13228 14H9.03876C9.13213 14 9.17881 14.0467 9.17881 14.1401L9.17492 18.8787C9.17492 19.0291 9.23069 19.0537 9.34221 18.9526ZM16.4968 22.1817C16.4968 21.6937 16.4007 21.2106 16.214 20.7598C16.0273 20.3091 15.7536 19.8995 15.4086 19.5545C15.0636 19.2095 14.654 18.9358 14.2032 18.7491C13.7524 18.5624 13.2693 18.4663 12.7814 18.4663C11.796 18.4663 10.851 18.8577 10.1542 19.5545C9.45743 20.2512 9.06599 21.1963 9.06599 22.1817C9.06599 23.167 9.45743 24.1121 10.1542 24.8088C10.851 25.5056 11.796 25.8971 12.7814 25.8971C13.2693 25.8971 13.7524 25.801 14.2032 25.6142C14.654 25.4275 15.0636 25.1539 15.4086 24.8088C15.7536 24.4638 16.0273 24.0543 16.214 23.6035C16.4007 23.1527 16.4968 22.6696 16.4968 22.1817Z" fill="#929AAB"/>
<path d="M18.8811 14.0046L18.0408 14.0032C17.9419 14.003 17.8617 14.083 17.8615 14.1818L17.8397 26.6546C17.8396 26.7535 17.9195 26.8337 18.0184 26.8339L18.8587 26.8354C18.9576 26.8356 19.0378 26.7556 19.038 26.6567L19.0598 14.1839C19.0599 14.0851 18.98 14.0048 18.8811 14.0046Z" fill="#929AAB"/>
<path d="M68.6641 18.2873L70.1969 18.2717C70.3318 18.2717 70.4005 18.3392 70.4031 18.474L70.407 19.2521C70.407 19.3896 70.3395 19.4583 70.2047 19.4583L68.7263 19.4389C68.5759 19.4363 68.5019 19.5102 68.5045 19.6606L68.5123 27.4416C68.5123 27.5609 68.4527 27.6205 68.3334 27.6205H67.5708C67.4411 27.6205 67.3763 27.5544 67.3763 27.4221L67.3724 19.684C67.3724 19.5206 67.2907 19.4402 67.1273 19.4427L66.1275 19.4583C65.92 19.4635 65.8681 19.5556 65.9718 19.7345C67.6525 22.6718 66.3376 26.5001 62.9139 27.1653C58.4516 28.029 55.4053 22.913 58.117 19.3494C59.9299 16.9684 63.4781 16.9062 65.4894 19.1237C65.6425 19.2897 65.719 19.2599 65.719 19.0342L65.7229 18.4818C65.7229 18.3495 65.7877 18.2847 65.9174 18.2873L67.1779 18.2912C67.3102 18.2912 67.3763 18.2263 67.3763 18.0966V14.9765C67.3763 14.8442 67.4424 14.7781 67.5747 14.7781L68.3373 14.7742C68.4592 14.7742 68.5188 14.8351 68.5162 14.957L68.489 18.1122C68.489 18.2289 68.5473 18.2873 68.6641 18.2873ZM65.6217 22.3801C65.6217 21.4009 65.2327 20.4618 64.5403 19.7694C63.8479 19.077 62.9088 18.688 61.9296 18.688C61.4448 18.688 60.9647 18.7835 60.5168 18.969C60.0688 19.1546 59.6618 19.4265 59.319 19.7694C58.9761 20.1122 58.7042 20.5192 58.5186 20.9672C58.3331 21.4151 58.2376 21.8952 58.2376 22.3801C58.2376 22.8649 58.3331 23.345 58.5186 23.7929C58.7042 24.2409 58.9761 24.6479 59.319 24.9907C59.6618 25.3336 60.0688 25.6055 60.5168 25.7911C60.9647 25.9766 61.4448 26.0721 61.9296 26.0721C62.9088 26.0721 63.8479 25.6831 64.5403 24.9907C65.2327 24.2983 65.6217 23.3592 65.6217 22.3801Z" fill="#929AAB"/>
<path d="M82.1485 22.3723C82.1485 23.6589 81.6374 24.8929 80.7276 25.8027C79.8177 26.7126 78.5838 27.2237 77.2971 27.2237C76.0104 27.2237 74.7764 26.7126 73.8666 25.8027C72.9568 24.8929 72.4457 23.6589 72.4457 22.3723C72.4457 21.0856 72.9568 19.8516 73.8666 18.9418C74.7764 18.032 76.0104 17.5209 77.2971 17.5209C78.5838 17.5209 79.8177 18.032 80.7276 18.9418C81.6374 19.8516 82.1485 21.0856 82.1485 22.3723ZM80.9853 22.3839C80.9853 21.4058 80.5967 20.4677 79.905 19.776C79.2134 19.0844 78.2753 18.6958 77.2971 18.6958C76.8128 18.6958 76.3332 18.7912 75.8857 18.9765C75.4382 19.1619 75.0316 19.4335 74.6892 19.776C74.3467 20.1185 74.075 20.5251 73.8897 20.9725C73.7043 21.42 73.6089 21.8996 73.6089 22.3839C73.6089 22.8683 73.7043 23.3479 73.8897 23.7953C74.075 24.2428 74.3467 24.6494 74.6892 24.9919C75.0316 25.3344 75.4382 25.606 75.8857 25.7914C76.3332 25.9767 76.8128 26.0721 77.2971 26.0721C78.2753 26.0721 79.2134 25.6835 79.905 24.9919C80.5967 24.3002 80.9853 23.3621 80.9853 22.3839Z" fill="#929AAB"/>
<path d="M27.0788 23.2633C27.2085 21.4633 27.2215 19.6698 27.1177 17.8828C27.1161 17.859 27.1194 17.8351 27.1275 17.8127C27.1357 17.7903 27.1484 17.7699 27.1648 17.7527C27.1813 17.7354 27.2012 17.7219 27.2232 17.7128C27.2453 17.7037 27.269 17.6993 27.2928 17.6999L28.1098 17.7038C28.1669 17.7048 28.2213 17.7282 28.2613 17.769C28.3013 17.8097 28.3238 17.8646 28.3238 17.9217C28.316 20.1665 28.6311 23.5823 27.7674 25.3447C26.2346 28.4921 20.6868 27.7295 20.3211 23.629C20.2407 22.7212 20.2225 20.8175 20.2666 17.9178C20.2676 17.8617 20.2906 17.8083 20.3306 17.769C20.3706 17.7297 20.4245 17.7077 20.4806 17.7077L21.1925 17.6999C21.3378 17.6973 21.4091 17.7686 21.4065 17.9139C21.3806 19.5583 21.3533 21.2351 21.3248 22.9443C21.2989 24.6561 22.064 25.6819 23.6202 26.0216C24.7666 26.2706 25.6769 26.0398 26.3513 25.3291C26.7689 24.8882 27.0114 24.1996 27.0788 23.2633Z" fill="#929AAB"/>
<path d="M30.4831 22.9909C30.701 26.7958 35.3735 27.2198 37.416 24.5704C37.5301 24.42 37.6714 24.3876 37.84 24.4732L38.2252 24.6638C38.2648 24.6834 38.2999 24.7109 38.3285 24.7447C38.357 24.7784 38.3783 24.8176 38.3911 24.8599C38.4039 24.9022 38.4078 24.9467 38.4027 24.9906C38.3976 25.0345 38.3835 25.0769 38.3613 25.1151C35.8287 29.5658 28.7597 27.2977 29.3355 21.9833C29.9813 15.9997 38.8905 16.4666 38.7776 22.5668C38.7776 22.6939 38.7141 22.7575 38.587 22.7575H30.7049C30.6748 22.7574 30.6449 22.7635 30.6173 22.7754C30.5896 22.7873 30.5646 22.8047 30.5438 22.8265C30.5231 22.8483 30.507 22.8742 30.4966 22.9025C30.4861 22.9307 30.4816 22.9608 30.4831 22.9909ZM30.7516 21.5942L37.4043 21.5864C37.4113 21.5865 37.4182 21.585 37.4246 21.5823C37.431 21.5795 37.4368 21.5754 37.4415 21.5703C37.4463 21.5652 37.4499 21.5591 37.4522 21.5525C37.4545 21.5459 37.4554 21.5389 37.4549 21.532V21.497C37.4539 21.1546 37.3667 20.8158 37.198 20.4999C37.0294 20.184 36.7826 19.8972 36.4719 19.6559C36.1612 19.4146 35.7927 19.2234 35.3872 19.0934C34.9818 18.9634 34.5475 18.897 34.1091 18.8981H34.0313C33.1461 18.9003 32.298 19.177 31.6734 19.6673C31.0489 20.1576 30.6991 20.8213 30.701 21.5125V21.5475C30.702 21.5603 30.7077 21.5722 30.7171 21.5808C30.7265 21.5895 30.7388 21.5943 30.7516 21.5942Z" fill="#929AAB"/>
<path d="M44.2748 19.4584C46.2589 17.4159 48.6983 17.1708 50.2116 19.8708C50.2791 19.9901 50.3491 19.9927 50.4217 19.8786C52.4214 16.7623 56.6737 17.3459 56.7593 21.5048C56.7982 23.4396 56.8112 25.3395 56.7982 27.2043C56.7956 27.3496 56.7217 27.4222 56.5765 27.4222H55.8178C55.6829 27.4222 55.6155 27.3547 55.6155 27.2199C55.6155 25.3161 55.6038 23.3761 55.5805 21.3997C55.5338 17.5987 50.8302 18.7892 50.5307 21.8821C50.4062 23.1712 50.388 24.9439 50.4762 27.2004C50.4772 27.2288 50.4725 27.2572 50.4622 27.2838C50.452 27.3104 50.4365 27.3347 50.4165 27.3553C50.3966 27.376 50.3727 27.3925 50.3462 27.404C50.3197 27.4155 50.2912 27.4217 50.2622 27.4222L49.5775 27.43C49.3726 27.4325 49.2727 27.3314 49.2779 27.1265C49.3194 25.4069 49.3129 23.6536 49.2585 21.8666C49.204 20.1431 48.5387 18.6453 46.5624 19.0732C43.3605 19.7696 44.0258 24.7805 44.0842 27.1926C44.0847 27.2234 44.0791 27.254 44.0677 27.2826C44.0564 27.3112 44.0395 27.3371 44.0181 27.3589C43.9967 27.3807 43.9711 27.3979 43.9431 27.4094C43.915 27.4209 43.8849 27.4266 43.8546 27.4261H43.201C43.035 27.4235 42.952 27.3392 42.952 27.1732L42.9559 18.2912C42.9559 18.159 43.0221 18.0928 43.1543 18.0928H43.9363C44.0634 18.0928 44.1231 18.1551 44.1153 18.2796L44.0569 19.3611C44.044 19.5894 44.1166 19.6218 44.2748 19.4584Z" fill="#929AAB"/>
<path d="M72.0138 18.0928H71.1112C71.0339 18.0928 70.9712 18.1555 70.9712 18.2329V27.2821C70.9712 27.3595 71.0339 27.4222 71.1112 27.4222H72.0138C72.0912 27.4222 72.1539 27.3595 72.1539 27.2821V18.2329C72.1539 18.1555 72.0912 18.0928 72.0138 18.0928Z" fill="#929AAB"/>
<path d="M84.3737 19.8046C85.3075 18.596 86.4513 18.0202 87.8051 18.0772C90.3378 18.1862 90.9876 20.147 91.0731 22.4501C91.1354 24.1438 91.138 25.8271 91.0809 27.5C91.0783 27.5907 91.0316 27.6348 90.9409 27.6322L90.05 27.605C89.9773 27.6024 89.9423 27.5648 89.9449 27.4922C89.989 24.525 89.9799 22.6226 89.9177 21.7849C89.5987 17.4898 84.2531 19.1238 84.2181 22.563C84.2026 24.2359 84.1987 25.8556 84.2065 27.4222C84.2065 27.5518 84.1416 27.6154 84.0119 27.6128L83.2183 27.605C83.0912 27.605 83.0277 27.5402 83.0277 27.4105L83.0121 18.4935C83.0121 18.4388 83.0338 18.3864 83.0725 18.3477C83.1112 18.309 83.1636 18.2873 83.2183 18.2873L84.0197 18.2834C84.1546 18.2834 84.2207 18.3509 84.2181 18.4857L84.1987 19.7424C84.1935 19.9421 84.2518 19.9628 84.3737 19.8046Z" fill="#929AAB"/>
<path d="M90.8942 29.3712H8.29167C8.21432 29.3712 8.15161 29.434 8.15161 29.5113V29.8148C8.15161 29.8921 8.21432 29.9548 8.29167 29.9548H90.8942C90.9715 29.9548 91.0342 29.8921 91.0342 29.8148V29.5113C91.0342 29.434 90.9715 29.3712 90.8942 29.3712Z" fill="#929AAB"/>
<path d="M92.9446 29.3596C93.0716 29.3571 93.1378 29.4206 93.143 29.5503L93.1508 29.7604C93.1559 29.8926 93.0924 29.9588 92.9601 29.9588H92.1781C92.0433 29.9562 91.9758 29.8888 91.9758 29.7565V29.5736C91.9758 29.4439 92.042 29.3778 92.1742 29.3752L92.9446 29.3596Z" fill="#929AAB"/>
<path d="M93.9599 29.418C94.2945 29.3687 94.6355 29.3545 94.9831 29.3752C95.0593 29.3812 95.1322 29.4166 95.1863 29.4738C95.2404 29.5311 95.2715 29.6058 95.273 29.6821C95.2745 29.7584 95.2464 29.8304 95.1944 29.8827C95.1425 29.9351 95.0709 29.9638 94.9948 29.9627L93.9871 29.9199C93.925 29.9163 93.8664 29.89 93.8225 29.8459C93.7786 29.8019 93.7525 29.7432 93.7492 29.6811C93.7458 29.619 93.7654 29.5579 93.8043 29.5093C93.8432 29.4608 93.8986 29.4283 93.9599 29.418Z" fill="#929AAB"/>
<path d="M96.2669 29.9587C96.0802 30.0236 95.9311 29.9691 95.8195 29.7953C95.7919 29.7517 95.7767 29.7015 95.7756 29.6499C95.7744 29.5983 95.7873 29.5474 95.8129 29.5026C95.8385 29.4578 95.8759 29.4208 95.9209 29.3956C95.9659 29.3704 96.017 29.358 96.0685 29.3596L96.9517 29.383C96.989 29.3843 97.0252 29.3958 97.0565 29.4162C97.0878 29.4365 97.113 29.465 97.1293 29.4986C97.1457 29.5321 97.1527 29.5695 97.1495 29.6067C97.1463 29.6439 97.133 29.6795 97.1112 29.7097C96.9141 29.9717 96.6326 30.0547 96.2669 29.9587Z" fill="#929AAB"/>
</svg>
