<svg width="105" height="45" viewBox="0 0 105 45" fill="none" xmlns="http://www.w3.org/2000/svg">
<g clip-path="url(#clip0_1_1031)">
<path fill-rule="evenodd" clip-rule="evenodd" d="M14.4345 36.7307H9V36.4761H10.4218V31.1841H9V30.8564H13.8508C15.4202 30.8564 16.5875 31.2943 16.5875 32.2788C16.5875 33.1173 15.6018 33.5552 14.3988 33.5552C15.8579 33.5552 17.1711 34.139 17.1711 35.1608C17.1711 35.9636 16.2584 36.7291 14.4345 36.7291V36.7307ZM13.3044 31.1841H12.1371V33.4465H13.5963C14.4345 33.4465 15.0927 33.3005 15.0927 32.2788C15.0927 31.257 14.4361 31.1841 13.3044 31.1841ZM13.559 33.7384H12.1371V36.4745H13.5963C14.509 36.4745 15.5661 36.2912 15.5661 35.1608C15.5661 33.8844 14.7263 33.7384 13.559 33.7384Z" fill="#929AAB"/>
<path fill-rule="evenodd" clip-rule="evenodd" d="M46.2079 36.7307H40.7734V36.4761H42.1953V31.1841H40.7734V30.8564H45.6242C47.192 30.8564 48.3593 31.2943 48.3593 32.2788C48.3593 33.1173 47.3752 33.5552 46.1349 33.5552C47.6297 33.5552 48.943 34.139 48.943 35.1608C48.943 35.9636 48.0318 36.7291 46.2079 36.7291V36.7307ZM45.0406 31.1841H43.8733V33.4465H45.3697C46.2079 33.4465 46.8661 33.3005 46.8661 32.2788C46.8661 31.257 46.2095 31.1841 45.0422 31.1841H45.0406ZM45.2951 33.7384H43.8733V36.4745H45.3697C46.2825 36.4745 47.2293 36.2912 47.2293 35.1608C47.2293 33.8844 46.4624 33.7384 45.2951 33.7384Z" fill="#929AAB"/>
<path fill-rule="evenodd" clip-rule="evenodd" d="M27.056 31.1841V34.7975C27.056 36.2928 25.8158 36.914 23.8459 36.914C22.4225 36.914 20.1981 36.5491 20.1981 34.8705V31.1841H18.7762V30.8564H23.3725V31.1841H21.8761V34.8705C21.8761 36.2928 23.0434 36.4761 24.1377 36.4761C25.5239 36.4761 26.7269 36.0382 26.7269 34.7975V31.1841H25.2678V30.8564H28.5508V31.1841H27.056Z" fill="#929AAB"/>
<path fill-rule="evenodd" clip-rule="evenodd" d="M38.3643 36.9124C37.4158 36.9124 36.2485 36.4745 36.2485 35.2338V34.8689C36.2485 34.139 35.5919 33.8098 34.6435 33.8098H32.9655V36.4745H34.316V36.7291H29.83V36.4745H31.2518V31.1824H29.83V30.8548H34.8267C36.5776 30.8548 37.599 31.4744 37.599 32.3145C37.599 33.1546 36.6879 33.7011 35.4103 33.7011C37.2342 33.7011 38.0011 34.4683 38.0011 35.3068V35.9636C38.0011 36.3285 38.1827 36.5848 38.6577 36.5848C38.9495 36.5848 39.1684 36.4761 39.2787 36.3301L39.4975 36.5848C39.243 36.8037 38.9139 36.914 38.3675 36.914L38.3643 36.9124ZM34.1701 31.1824H32.9655V33.4822H34.2414C35.2271 33.4822 35.9194 33.2989 35.9194 32.3145C35.9194 31.4387 35.4087 31.1824 34.1684 31.1824H34.1701Z" fill="#929AAB"/>
<path fill-rule="evenodd" clip-rule="evenodd" d="M81.0082 36.9124C80.0241 36.9124 78.9298 36.4745 78.9298 35.2338V34.8689C78.9298 34.139 78.2359 33.8098 77.2518 33.8098H75.5738V36.4745H76.9226V36.7291H72.4723V36.4745H73.8941V31.1824H72.4723V30.8548H77.5063C79.1843 30.8548 80.2787 31.4744 80.2787 32.3145C80.2787 33.1546 79.3302 33.7011 78.017 33.7011C79.9139 33.7011 80.6061 34.4683 80.6061 35.3068V35.9636C80.6061 36.3285 80.8607 36.5848 81.2628 36.5848C81.5903 36.5848 81.7735 36.4761 81.9923 36.3301L82.1009 36.5848C81.8464 36.8037 81.5173 36.914 81.0066 36.914L81.0082 36.9124ZM76.814 31.1824H75.5738V33.4822H76.8497C77.8338 33.4822 78.6006 33.2989 78.6006 32.3145C78.6006 31.4387 78.017 31.1824 76.8124 31.1824H76.814Z" fill="#929AAB"/>
<path fill-rule="evenodd" clip-rule="evenodd" d="M70.0647 36.9124C69.1163 36.9124 67.949 36.4745 67.949 35.2338V34.8689C67.949 34.139 67.2194 33.8098 66.271 33.8098H64.6302V36.4745H66.0164V36.7291H61.5304V36.4745H62.9522V31.1824H61.5304V30.8548H66.5287C68.2797 30.8548 69.3011 31.4744 69.3011 32.3145C69.3011 33.1546 68.3154 33.7011 67.1124 33.7011C68.899 33.7011 69.7015 34.4683 69.7015 35.3068V35.9636C69.7015 36.3285 69.8847 36.5848 70.3225 36.5848C70.65 36.5848 70.8688 36.4761 70.9791 36.3301L71.125 36.5848C70.8705 36.8037 70.5786 36.914 70.0663 36.914L70.0647 36.9124ZM65.8705 31.1824H64.6302V33.4822H65.9435C66.8919 33.4822 67.6215 33.2989 67.6215 32.3145C67.6215 31.4387 67.0378 31.1824 65.8705 31.1824Z" fill="#929AAB"/>
<path fill-rule="evenodd" clip-rule="evenodd" d="M50.8771 36.7307V36.4761H52.3362V31.1841H50.8771V30.8564H58.6834V32.7167H58.3543C58.3543 31.9496 57.7707 31.1841 56.3115 31.1841H53.9769V33.5568H54.8897C55.984 33.5568 56.3115 32.9729 56.3115 32.4621H56.6407V34.9791H56.3115C56.3115 34.4683 55.9824 33.8844 54.8897 33.8844H53.9769V36.4745H56.3488C58.2457 36.4745 58.938 35.636 58.938 34.7229H59.2671V36.7291H50.8771V36.7307Z" fill="#929AAB"/>
<path fill-rule="evenodd" clip-rule="evenodd" d="M90.8931 31.1841L88.2666 34.285V36.4745H89.7258V36.7307H85.1295V36.4745H86.6259V34.212L83.9265 31.1841H82.2842V30.8548H87.2096V31.1841H85.7131L88.1937 33.8114L90.5283 31.1841H89.1064V30.8548H92.2063V31.1841H90.8931Z" fill="#929AAB"/>
<path fill-rule="evenodd" clip-rule="evenodd" d="M94.6511 28.3734C93.8843 28.3734 93.2277 28.9573 93.2277 29.7601C93.2277 30.5629 93.8843 31.1111 94.6511 31.1111C95.418 31.1111 96 30.5272 96 29.7601C96 28.993 95.3807 28.3734 94.6511 28.3734ZM94.5782 28.5924H94.6511C95.2348 28.5924 95.7455 29.1033 95.7455 29.7601C95.7455 30.3813 95.2348 30.8548 94.6511 30.8548C93.9945 30.8548 93.5568 30.3796 93.5568 29.7601C93.5568 29.1033 93.9945 28.6297 94.5782 28.5924ZM94.1404 28.9573V30.5256H94.3236V29.8688H94.5782L95.0532 30.5256H95.3077L94.8327 29.7958C95.1245 29.7958 95.2348 29.6125 95.2348 29.4309C95.2348 29.1033 95.0532 28.9573 94.7241 28.9573H94.1404ZM94.3236 29.6141V29.1763H94.6527C94.9073 29.1763 95.0532 29.2136 95.0532 29.4309C95.0532 29.5412 94.9073 29.6141 94.7241 29.6141H94.3236Z" fill="#929AAB"/>
<path fill-rule="evenodd" clip-rule="evenodd" d="M42.1823 9.43045C42.1823 9.43045 44.2299 7.55562 48.7321 9.74022C48.5781 10.3776 48.095 10.8998 48.095 10.8998C48.095 10.8998 46.5305 10.1651 46.1235 10.6484C45.6988 11.1123 44.9643 11.0539 44.9643 11.0539C44.2299 10.6874 42.1823 9.43045 42.1823 9.43045Z" fill="#929AAB"/>
<path fill-rule="evenodd" clip-rule="evenodd" d="M48.5781 10.9955C48.5781 10.9955 48.5781 10.4733 49.486 10.4733C49.1196 10.3565 48.81 10.3565 48.81 10.3565C49.0418 10.0078 49.0807 9.81482 49.8719 9.81482C50.6631 9.81482 51.0116 10.5884 51.0116 10.5884C50.8187 10.8009 50.8576 11.3037 50.9727 11.4577C50.4507 11.3426 49.4844 10.762 49.4082 10.9939H48.5781V10.9955Z" fill="#929AAB"/>
<path fill-rule="evenodd" clip-rule="evenodd" d="M51.2062 10.4733C51.2062 10.4733 53.5246 11.3426 56.1916 11.2274C58.8586 11.1107 60.462 13.1607 60.462 13.1607C60.462 13.1607 61.4866 13.9732 62.9344 14.2814C61.7947 14.2814 61.6779 14.3203 61.4088 14.3787C61.1381 14.4176 60.2302 14.0494 59.6125 13.6245C58.9753 13.1996 55.8836 13.0261 55.8836 13.0261H53.4873C53.4873 13.0261 51.7477 12.9871 51.4008 11.6929C51.0522 10.3971 51.2079 10.4749 51.2079 10.4749L51.2062 10.4733Z" fill="#929AAB"/>
<path fill-rule="evenodd" clip-rule="evenodd" d="M62.2 14.6495C62.2 14.6495 63.1857 15.0744 63.4175 15.6745C64.1909 15.9843 64.9821 16.0994 65.2528 16.2551C65.543 16.4092 65.89 16.4676 66.1996 16.526C65.9483 16.4092 65.8705 16.1205 65.6387 15.9843C65.1945 15.7134 64.7891 15.9453 64.3627 15.5204C64.0531 15.1912 63.8602 14.7468 63.377 14.6511C63.0284 14.5733 62.5275 14.4971 62.1984 14.6511L62.2 14.6495Z" fill="#929AAB"/>
<path fill-rule="evenodd" clip-rule="evenodd" d="M49.3515 11.6345H48.5214C48.5214 11.6345 48.309 11.1707 49.5266 11.1707C49.3531 11.3637 49.2558 11.4221 49.3531 11.6345H49.3515Z" fill="#929AAB"/>
<path fill-rule="evenodd" clip-rule="evenodd" d="M50.5675 11.4593C50.5675 11.4593 49.6401 11.3815 49.5623 11.4983C49.4845 11.615 49.6012 11.6913 49.6012 11.6913L50.5285 11.7302L50.5675 11.4593Z" fill="#929AAB"/>
<path fill-rule="evenodd" clip-rule="evenodd" d="M50.7426 11.9427C50.7426 11.9427 51.3992 11.7302 51.9601 12.7925C51.9212 13.2369 51.5159 13.8175 51.4381 13.8175C51.3603 13.8175 50.8966 14.1273 50.7426 14.416C50.7426 13.8937 50.8593 13.7007 51.0522 13.4299C51.2451 13.159 51.2062 12.4049 51.13 12.2897C51.0522 12.1746 50.7442 11.941 50.7442 11.941L50.7426 11.9427Z" fill="#929AAB"/>
<path fill-rule="evenodd" clip-rule="evenodd" d="M50.1427 9.5456C50.1427 9.5456 51.1868 9.48721 51.6116 10.0094C52.0363 10.5317 52.4416 10.1635 52.4416 10.1635C52.4416 10.1635 52.5 9.69967 52.132 9.42882C52.654 9.79536 52.9248 10.2219 52.9621 10.3176C53.0204 10.4327 53.6576 10.8009 53.6576 9.85374C54.0629 10.2787 54.1213 10.3176 54.1796 10.4717C54.2185 10.6452 54.7406 11.2063 55.2237 10.8009C55.6874 10.376 55.7458 9.85374 54.7017 9.42882C54.8557 9.95105 54.799 10.376 54.3353 9.91213C53.8521 9.42882 53.3885 9.21636 52.7708 9.42882C52.0363 9.17744 51.0895 9.06229 50.1427 9.5456Z" fill="#929AAB"/>
<path fill-rule="evenodd" clip-rule="evenodd" d="M50.4913 14.6106C50.4913 14.6106 50.7815 14.7647 51.0522 14.244C51.3619 14.244 51.9601 14.051 51.9991 13.1996C52.1531 13.9343 52.1531 15.0355 52.1142 15.1912L52.0753 15.3453C52.0753 15.3453 52.4611 15.462 52.6168 15.1133C53.0415 15.3453 59.4958 19.0755 59.4958 19.0755L59.3806 19.2295L52.2698 15.634C52.2698 15.634 51.7088 15.4993 51.4397 15.4993C51.7494 15.3826 51.7494 15.1133 51.7494 15.1133C51.7494 15.1133 51.0539 15.3453 51.0149 15.3453C51.0539 14.9966 51.015 14.7647 50.8609 14.7647C50.7069 14.7647 50.976 15.3453 50.4945 15.3453C50.013 15.3453 50.4556 14.9966 50.4945 14.6106H50.4913Z" fill="#929AAB"/>
<path fill-rule="evenodd" clip-rule="evenodd" d="M52.2682 14.5327V13.5856C52.2682 13.4315 52.7708 14.0105 52.8486 14.3786C52.6168 14.4565 52.4238 14.4176 52.2682 14.5327Z" fill="#929AAB"/>
<path fill-rule="evenodd" clip-rule="evenodd" d="M52.4238 14.8814C52.4238 14.8814 52.6557 14.283 53.1777 14.8036C53.6803 15.3063 53.3706 15.2285 53.3706 15.2285C53.3706 15.2285 52.5778 14.8798 52.4238 14.8798V14.8814Z" fill="#929AAB"/>
<path fill-rule="evenodd" clip-rule="evenodd" d="M40.694 8.94714L40.5594 9.21799L47.1677 12.7552L47.3217 12.5233L40.694 8.94714Z" fill="#929AAB"/>
<path fill-rule="evenodd" clip-rule="evenodd" d="M38.8004 8L39.7083 8.94715C39.7083 8.94715 40.3649 9.21799 40.3649 8.6763C40.3649 8.13461 39.3403 8.21246 38.8004 8Z" fill="#929AAB"/>
<path fill-rule="evenodd" clip-rule="evenodd" d="M41.8531 12.6773C41.8531 12.6773 41.0409 12.9482 40.9258 11.9427C41.4673 12.3676 41.6602 12.5606 41.8531 12.6773Z" fill="#929AAB"/>
<path fill-rule="evenodd" clip-rule="evenodd" d="M40.8496 11.7108C40.8496 11.7108 41.6797 12.2135 41.9504 12.3481C41.7381 11.9038 42.4141 11.9038 40.8496 11.7108Z" fill="#929AAB"/>
<path fill-rule="evenodd" clip-rule="evenodd" d="M41.777 12.9093C41.777 12.9093 41.2355 12.9871 41.1966 13.6245C41.6603 13.7786 41.8921 13.8953 41.8921 14.1662C41.5436 14.2813 41.2355 14.0494 41.1188 13.9343C40.6357 13.9732 39.7861 14.0121 39.7861 14.0121C39.7861 14.0121 40.9259 14.4176 41.4674 14.4176C41.3506 14.6884 41.1188 14.7663 41.1188 14.9982C41.1188 15.2301 41.0799 16.0621 41.0799 16.0621C41.0799 16.0621 41.2728 15.8691 41.2339 16.101C41.195 16.333 41.0021 16.294 41.0021 16.294C41.0021 16.294 40.6357 16.8925 40.9243 17.0871C41.195 17.2801 41.5809 16.7579 41.5809 16.7579C41.5809 16.7579 42.0251 16.719 42.1418 16.719C42.2586 16.719 42.2958 16.2162 42.1807 15.9843C42.0656 15.7523 42.2196 15.3469 42.2196 15.3469C42.3364 15.8302 42.4904 15.8302 42.6444 15.8302C42.7984 15.8302 43.147 14.4192 43.147 14.4192C43.147 14.4192 43.5523 13.318 42.4126 13.0277C42.064 13.0277 41.8905 13.0277 41.8905 13.2401C41.7365 13.2012 41.7738 12.9109 41.7738 12.9109L41.777 12.9093Z" fill="#929AAB"/>
<path fill-rule="evenodd" clip-rule="evenodd" d="M42.0672 16.9687C42.0672 16.9687 41.7008 16.8341 41.5062 17.1617C41.8159 17.2769 41.9894 17.2007 42.0672 16.9687Z" fill="#929AAB"/>
<path fill-rule="evenodd" clip-rule="evenodd" d="M42.3364 16.6006C42.3364 16.6006 42.7222 16.6395 42.7611 16.2519C43.0319 16.4059 43.2832 16.6768 43.147 16.8325C43.0303 17.006 42.3348 17.3936 42.8373 17.9726C43.3594 18.5711 43.8231 18.1462 43.9771 18.1462C43.5134 18.0116 42.9525 18.1462 43.2037 17.6239C43.4356 17.1212 43.5896 17.0433 43.5896 17.0433C43.3967 16.8892 43.3967 16.4059 43.3967 16.4059C43.3967 16.4059 42.8746 15.981 42.4109 15.981C42.4888 16.2908 42.5277 16.4838 42.3331 16.5989L42.3364 16.6006Z" fill="#929AAB"/>
<path fill-rule="evenodd" clip-rule="evenodd" d="M43.3999 14.8036C43.3999 14.8036 43.361 15.1896 43.0708 15.2674C43.2832 15.634 43.2054 15.8286 43.2054 15.8286C43.515 15.8675 43.4761 15.3842 43.4761 15.3842L43.3983 14.8036H43.3999Z" fill="#929AAB"/>
<path fill-rule="evenodd" clip-rule="evenodd" d="M42.9945 13.1023C42.9945 13.1023 43.4388 13.7396 43.4777 14.2813C43.5166 14.8425 43.6706 14.6106 43.6706 14.6106C43.6706 14.6106 43.7857 16.6395 43.7857 16.9298C43.7857 17.2006 43.9786 17.2006 43.9786 17.2006C44.9838 16.7952 45.775 15.6923 46.7996 15.4231C46.336 14.5733 45.6793 13.4315 45.1962 13.2385C44.7325 13.026 43.7857 12.7552 42.9929 13.1039L42.9945 13.1023Z" fill="#929AAB"/>
<path fill-rule="evenodd" clip-rule="evenodd" d="M42.8778 12.8704C42.8778 12.8704 42.7238 13.0244 42.3363 12.6384C41.9504 12.2524 41.9504 12.3481 41.9504 12.3481C41.9504 12.3481 42.453 12.1746 42.5681 12.2135C42.6832 12.2524 42.6832 12.7552 42.8778 12.8704Z" fill="#929AAB"/>
<path fill-rule="evenodd" clip-rule="evenodd" d="M43.2458 12.7552C43.2458 12.7552 43.1113 12.8898 42.86 12.4844C42.5892 12.0594 42.5892 12.1746 42.5892 12.1746C42.5892 12.1746 42.9945 12.0205 43.0724 12.0578C43.1502 12.1162 43.1113 12.619 43.2458 12.7536V12.7552Z" fill="#929AAB"/>
<path fill-rule="evenodd" clip-rule="evenodd" d="M44.9449 12.9482C44.8671 12.5995 44.8671 12.5038 44.8671 12.2914C44.8671 12.0789 44.7698 12.0205 44.3256 11.9816C44.4229 12.233 44.4991 12.3481 44.4602 12.4649C44.4407 12.5995 44.3823 12.5427 44.131 12.0594C43.9187 11.9054 43.7825 11.9816 43.7825 11.9816C43.7825 11.9816 44.0532 12.4454 44.0921 12.7357C44.4391 12.7552 44.8266 12.8704 44.9417 12.9482H44.9449Z" fill="#929AAB"/>
<path fill-rule="evenodd" clip-rule="evenodd" d="M43.1681 12.0005H43.1867C43.1681 11.9823 43.1681 12.0005 43.1681 12.0005Z" fill="#929AAB"/>
<path fill-rule="evenodd" clip-rule="evenodd" d="M43.883 12.5817C43.8441 12.4844 43.7485 12.4081 43.7095 12.3108C43.6901 12.194 43.729 12.0789 43.6512 12.0011C43.5928 11.9427 43.2848 11.9816 43.1875 12.0011C43.207 12.0205 43.2459 12.1162 43.3221 12.4065C43.3415 12.5038 43.3804 12.619 43.4566 12.7163H43.9009C43.9203 12.6774 43.9203 12.6384 43.8814 12.5817H43.883Z" fill="#929AAB"/>
<path fill-rule="evenodd" clip-rule="evenodd" d="M43.8636 17.5477C44.444 17.2574 44.9644 16.8519 45.5059 16.5033C45.8918 16.2519 46.4527 15.788 46.9358 15.788C47.2455 15.788 47.0526 16.2519 46.7235 16.2519C46.9358 16.4059 47.0137 16.4838 46.8775 16.5227C46.7608 16.5616 46.5289 16.8325 46.2971 16.7157C46.0652 16.5989 45.9112 16.8309 45.9874 17.006C46.0652 17.1601 45.7167 17.4309 45.3113 17.3158C44.9255 17.199 45.0017 17.6256 45.0017 17.8186C44.6158 18.0116 43.8619 17.8575 43.8619 17.8575V17.5477H43.8636Z" fill="#929AAB"/>
<path fill-rule="evenodd" clip-rule="evenodd" d="M43.7857 17.7423C43.7857 17.8202 43.7079 17.8964 43.6122 17.8964C43.5165 17.8964 43.4387 17.8186 43.4387 17.7423C43.4387 17.6661 43.5165 17.6077 43.6122 17.6077C43.7079 17.6077 43.7857 17.6661 43.7857 17.7423Z" fill="#929AAB"/>
<path fill-rule="evenodd" clip-rule="evenodd" d="M47.1677 16.7563C47.1677 16.7563 46.2598 17.3174 46.0668 17.4715C45.8739 17.6256 45.313 17.9353 45.1978 17.9353C45.0827 17.9353 45.7588 18.1867 46.3765 18.1867C46.4543 17.8964 46.2987 17.6256 47.1693 16.7563H47.1677Z" fill="#929AAB"/>
<path fill-rule="evenodd" clip-rule="evenodd" d="M47.2456 17.0839C47.2456 17.0839 46.7235 17.4326 46.7235 17.8964L47.2845 18.0132C47.2845 18.0132 47.5941 17.6645 47.7871 17.6645C47.4774 17.4715 47.3234 17.3936 47.2456 17.0839Z" fill="#929AAB"/>
<path fill-rule="evenodd" clip-rule="evenodd" d="M47.0509 18.3408C47.0509 18.3408 47.3979 18.1478 47.5924 17.8964C47.7854 17.6645 47.9783 17.9353 47.9783 17.9353C47.9783 17.9353 47.9394 18.5727 47.8616 18.7284C47.5519 18.6116 47.0493 18.3424 47.0493 18.3424L47.0509 18.3408Z" fill="#929AAB"/>
<path fill-rule="evenodd" clip-rule="evenodd" d="M45.12 12.9677C45.12 12.9677 45.2351 12.426 45.12 12.1746C45.3908 12.3092 45.5059 12.4844 45.5059 12.4844L45.467 13.1023L45.1184 12.9677H45.12Z" fill="#929AAB"/>
<path fill-rule="evenodd" clip-rule="evenodd" d="M45.4669 13.1023C45.4669 13.1023 45.9111 13.4883 45.9501 13.6245C46.2208 13.4899 46.4332 13.1996 46.4332 13.1217C46.2986 12.9677 46.1624 12.7552 46.1624 12.7552C46.1235 13.1039 46.0279 13.2385 45.9306 13.2385C45.8333 13.2385 45.9501 12.5817 45.9501 12.5817C45.796 12.5233 45.5836 12.4471 45.5836 12.4471C45.5836 12.4471 45.6615 13.1039 45.4685 13.1039L45.4669 13.1023Z" fill="#929AAB"/>
<path fill-rule="evenodd" clip-rule="evenodd" d="M46.1431 13.837C46.1431 13.837 46.2776 13.9716 46.3165 14.0689C46.6651 13.7786 46.7997 13.4315 46.7997 13.4315L46.5873 13.2774C46.5873 13.2774 46.3749 13.644 46.2014 13.7607L46.1431 13.8386V13.837Z" fill="#929AAB"/>
<path fill-rule="evenodd" clip-rule="evenodd" d="M46.4722 14.2424C46.4722 14.2424 46.8775 13.8564 46.8775 13.7202C47.1093 13.9716 47.1093 14.0689 47.1093 14.0689C47.1093 14.0689 46.7608 14.4354 46.6456 14.4354C46.5111 14.4354 46.4722 14.2424 46.4722 14.2424Z" fill="#929AAB"/>
<path fill-rule="evenodd" clip-rule="evenodd" d="M50.0665 15.4037C50.0665 15.4037 49.9887 15.1134 49.893 15.5577C49.7763 16.0021 49.7001 15.9827 49.6028 15.9437C49.6028 16.1562 49.1975 16.5617 48.5782 17.2963C48.5782 17.2963 48.7322 17.3158 48.9073 17.2963C48.9268 17.2769 48.9462 17.2769 48.9657 17.2574C49.4099 17.1601 49.5072 16.7936 49.5072 16.6395C49.6239 16.466 49.739 16.2908 49.8363 16.1367C49.8947 17.2574 48.5993 17.645 48.3674 17.7407C48.1356 17.8186 48.1356 18.3781 48.0967 18.8614C48.0967 18.8614 48.4631 18.8809 48.6576 18.9393C48.6576 18.5906 49.2559 18.2046 49.2559 18.2046C48.7338 18.2046 48.4631 18.6684 48.4631 18.6684C48.4631 18.6684 48.3091 18.7836 48.2896 18.6684C48.2702 18.5711 48.348 18.2046 48.4631 17.9143C50.1443 17.3336 50.0471 16.5033 50.1249 16.2713C50.2027 16.0394 50.0665 15.402 50.0665 15.402V15.4037Z" fill="#929AAB"/>
<path fill-rule="evenodd" clip-rule="evenodd" d="M49.6985 17.5299C49.6985 17.5299 49.9303 16.9687 50.0843 16.9314C50.2578 16.873 50.4329 15.7523 50.4329 15.5788C50.6064 15.501 50.7993 15.5399 50.8966 15.4053C51.0117 15.7913 51.0312 16.6622 50.9355 16.6622C50.8188 16.6622 50.6064 16.7968 50.5107 17.0109C50.4135 17.2039 50.1249 17.2623 50.1249 17.2623C50.1249 17.2623 50.0665 17.572 49.7001 17.5331L49.6985 17.5299Z" fill="#929AAB"/>
<path fill-rule="evenodd" clip-rule="evenodd" d="M50.2594 17.3936C50.2594 17.3936 50.5885 17.2396 50.7037 17.1033C50.8009 16.9687 51.109 16.9492 51.109 16.9492C51.109 16.9492 51.4754 17.5299 51.7656 17.6256C51.3797 17.9159 51.2241 18.1478 51.0895 18.4381C50.9549 18.7284 50.7409 18.9603 50.7409 18.9603L50.4507 18.9992C50.4507 18.9992 49.9092 18.9409 49.6207 19.2506C49.5623 18.7089 49.5428 17.9175 50.0843 17.7423C50.6453 17.5493 50.2578 17.3936 50.2578 17.3936H50.2594Z" fill="#929AAB"/>
<path fill-rule="evenodd" clip-rule="evenodd" d="M51.5532 17.0466C51.5532 17.0466 51.6116 16.6606 51.2241 16.3508C51.2241 15.7897 51.2436 15.6356 51.4754 15.6356C51.7073 15.6356 52.2293 15.7507 52.2293 16.041C52.2293 16.3119 51.7851 17.0466 51.5532 17.0466Z" fill="#929AAB"/>
<path fill-rule="evenodd" clip-rule="evenodd" d="M51.1868 16.5244C51.1868 16.5244 51.2257 16.8341 51.3992 16.873C51.109 16.9509 50.9355 16.7384 50.9355 16.7384C50.9355 16.7384 51.1674 16.719 51.1868 16.526V16.5244Z" fill="#929AAB"/>
<path fill-rule="evenodd" clip-rule="evenodd" d="M52.2487 16.6395C52.2487 16.6395 52.0558 17.645 51.7072 17.9159C51.3781 18.2062 51.9585 18.0894 51.9585 18.0894C51.9585 18.0894 51.9196 18.3408 51.4559 18.7073C51.0117 19.0738 51.3587 19.5004 51.3587 19.5004C51.3587 19.5004 51.4932 19.9642 51.0296 19.6934C51.1074 20.0599 51.1268 20.1378 50.8561 20.1183C51.0101 20.3892 51.5905 20.7168 51.9375 20.1572C52.2666 19.6155 52.5746 18.8809 52.6719 18.7073C52.3622 18.8046 52.4011 18.8809 51.9958 18.7657C51.5711 18.6489 52.633 18.417 52.9037 17.7991C53.155 17.4504 53.2701 17.3547 53.2701 17.3547C52.9994 17.2769 52.9037 17.3352 53.0188 17.1033C52.7286 17.1423 52.6897 17.3158 52.4968 17.2574C52.3039 17.199 52.7092 16.9087 52.7092 16.9087C52.7092 16.9087 52.9021 16.8309 53.2312 16.8698C52.941 16.5795 52.5357 16.6379 52.3039 16.6379H52.2455L52.2487 16.6395Z" fill="#929AAB"/>
<path fill-rule="evenodd" clip-rule="evenodd" d="M49.157 19.5977C49.157 19.5977 49.7179 19.5977 50.0649 19.2312C50.5286 19.1533 50.7799 19.2312 50.8188 19.5215C50.8577 19.7923 50.5286 19.8702 50.5286 19.9853C50.5286 20.1005 50.895 20.5659 50.702 20.5659C50.4897 20.5659 50.2967 20.7395 49.7941 20.2951C49.2721 19.8702 49.157 20.0632 49.157 20.0632V19.5993V19.5977Z" fill="#929AAB"/>
<path fill-rule="evenodd" clip-rule="evenodd" d="M50.2399 20.8725C50.2399 20.8725 49.9692 20.7557 49.8346 20.5238C49.7 20.3113 49.0807 20.3891 49.0418 20.5432C49.0029 20.7168 48.7711 21.6639 48.5976 21.8569C48.4241 22.0304 48.2879 22.9387 48.2117 23.0749C48.1144 23.229 48.81 23.4609 48.81 23.4609C48.81 23.4609 49.0224 22.6678 49.4666 22.2234C49.8913 21.7596 50.2399 21.0054 50.2399 20.8708V20.8725Z" fill="#929AAB"/>
<path fill-rule="evenodd" clip-rule="evenodd" d="M49.4083 19.095C49.4083 19.095 49.0225 18.9798 48.8668 18.8046C48.7128 18.6311 49.157 18.5727 49.311 18.6506C49.4845 18.7284 49.4261 18.9409 49.4083 19.095Z" fill="#929AAB"/>
<path fill-rule="evenodd" clip-rule="evenodd" d="M49.1002 20.1572C49.1002 20.1572 48.7144 20.7752 48.656 21.0265C48.5976 21.2974 48.3853 20.9681 48.3853 20.9681C48.3853 20.9681 48.7517 20.1945 48.8295 20.1378C48.9073 20.0794 49.1002 20.1572 49.1002 20.1572Z" fill="#929AAB"/>
<path fill-rule="evenodd" clip-rule="evenodd" d="M48.288 21.3947C48.288 21.3947 48.7128 21.3752 48.5393 21.685C48.3853 21.9948 48.1534 21.7823 48.1534 21.7823C48.1534 21.7823 48.288 21.6282 48.288 21.3963V21.3947Z" fill="#929AAB"/>
<path fill-rule="evenodd" clip-rule="evenodd" d="M48.2686 22.1488C48.2686 22.1488 47.8243 23.3668 47.8243 23.7334C47.8243 24.0999 47.3412 23.5404 47.1677 23.5404C47.3996 23.0765 47.9022 22.1488 48.0756 22.1488H48.2686Z" fill="#929AAB"/>
<path fill-rule="evenodd" clip-rule="evenodd" d="M48.656 23.675C48.656 23.675 48.1923 23.5209 48.0951 23.4431C48.0172 23.3652 47.8243 24.0999 48.2685 24.1194C48.7128 24.1388 48.7322 24.0221 48.7128 23.7528L48.6544 23.675H48.656Z" fill="#929AAB"/>
<path fill-rule="evenodd" clip-rule="evenodd" d="M51.0312 20.5254C51.0312 20.5254 49.8331 22.2072 49.6401 22.3418C50.0065 22.4959 50.587 22.7668 50.7799 22.5738C50.9534 22.4002 51.6294 21.2212 51.6683 20.9503C51.6878 20.6989 51.3019 20.6405 51.0312 20.5254Z" fill="#929AAB"/>
<path fill-rule="evenodd" clip-rule="evenodd" d="M49.0418 23.4058C49.0418 23.4058 49.1958 22.7879 49.486 22.7879C49.7763 22.7879 50.5107 22.6711 50.8576 23.0198C51.1867 23.0976 51.3991 23.2128 51.5921 23.3101C51.7655 23.4074 51.9585 23.5809 52.3265 23.5809C52.6751 23.5809 53.0026 23.6782 53.0026 23.6782C52.3654 23.7366 51.8434 23.6977 51.6699 23.7561C51.477 23.8145 51.0327 24.0269 50.8009 24.0269C50.569 24.0269 49.3126 23.8923 49.0418 23.7561L48.7905 23.6215C49.6984 23.6604 50.2205 23.8339 50.4523 23.6604C50.7036 23.4674 49.0418 23.409 49.0418 23.409V23.4058Z" fill="#929AAB"/>
<path fill-rule="evenodd" clip-rule="evenodd" d="M47.2455 23.0376C47.2455 23.0376 45.5059 23.1349 45.313 23.096C45.7961 23.3084 46.9553 23.482 47.0526 23.482C47.1677 23.482 47.2455 23.0376 47.2455 23.0376Z" fill="#929AAB"/>
<path fill-rule="evenodd" clip-rule="evenodd" d="M43.1486 15.9437C43.1486 15.9437 43.515 15.9826 43.6317 16.273C43.729 16.5633 43.3609 16.234 43.3609 16.234L43.1486 15.9437Z" fill="#929AAB"/>
<path fill-rule="evenodd" clip-rule="evenodd" d="M47.0314 14.5717C47.0314 14.5717 46.6067 14.4549 46.5872 14.5327C46.5678 14.6106 46.7996 14.8993 46.7996 15.1134C46.7996 15.3274 46.7996 14.6884 47.012 14.6495L47.0314 14.5717Z" fill="#929AAB"/>
<path fill-rule="evenodd" clip-rule="evenodd" d="M46.2792 19.0171C46.2792 19.0171 43.8636 18.8825 43.5166 18.8825C43.1875 18.8825 42.7044 19.888 42.6087 20.1589L42.5114 20.4492C42.4531 20.4102 42.3574 20.5076 42.2407 20.6616C42.1434 20.8157 41.8548 20.8546 41.8548 20.8546C41.8548 20.8546 40.8496 21.0282 40.3098 20.8157C39.7488 20.6227 39.5753 21.5504 39.4797 21.5504C39.363 21.5504 39.5575 22.3629 39.5575 22.3629C39.5575 22.3629 39.8283 24.7016 40.0017 24.7211C40.1557 24.7405 40.407 24.6432 40.6 25.1071C40.7734 25.5904 41.7786 25.5904 41.7786 25.5904L41.7981 25.1654C41.7981 25.1654 41.6246 25.1654 41.4317 24.953C41.2582 24.7405 41.0458 24.2961 40.6016 24.1226C40.1574 23.9491 40.7556 23.9102 40.7556 23.9102C40.7556 23.9102 40.5627 23.6588 40.1752 23.3879C39.7893 23.1365 39.9628 22.0742 40.0779 21.9964C40.1752 21.9185 40.3292 21.6672 40.3681 21.5131C40.3876 21.3396 42.0299 21.6104 42.359 21.3963C42.6687 21.1839 42.8033 21.4158 42.4758 21.0103C42.1661 20.5854 43.8863 20.9519 43.8863 20.9519C43.8863 20.9519 44.8525 20.9714 45.2773 21.1644C45.7215 21.3574 47.4806 21.9948 47.7124 22.1894C47.9443 22.3824 48.3885 20.334 48.6592 19.9853C48.93 19.6366 46.5727 19.0771 46.5727 19.0771C46.5727 19.0771 45.6842 20.8935 45.5481 20.8935C45.4329 20.8935 45.394 20.7962 46.2825 19.0187L46.2792 19.0171Z" fill="#929AAB"/>
<path fill-rule="evenodd" clip-rule="evenodd" d="M45.274 22.3613C45.274 22.3613 44.5201 22.1294 44.4439 21.878C44.3661 21.6072 45.5075 22.3613 45.681 22.3613C45.835 22.3613 45.681 22.8057 45.5642 22.8641C45.467 22.9225 46.1252 22.8057 46.2208 22.7862C46.3181 22.7668 47.2828 22.8446 47.2828 22.2835C46.8191 22.2251 46.3554 22.3224 45.7555 21.685C44.9822 21.6072 44.538 21.299 44.2867 21.1433C44.0159 20.9698 43.1469 21.1044 43.1469 21.1044C43.1469 21.1044 43.0497 21.3947 44.0159 21.3752C44.3256 21.5099 44.4407 21.6266 44.3061 21.6266C44.1716 21.6266 42.954 21.5099 41.9294 21.7045C41.9294 21.7045 41.3684 21.7629 41.0993 21.685C40.8091 21.6072 40.3649 22.1489 40.3649 22.1489C40.3649 22.1489 40.1136 22.6516 40.3065 22.9419C40.48 23.2322 41.5824 24.4697 41.6392 24.8752C42.1418 25.1655 42.586 25.3585 42.7011 25.5125C42.8357 25.6666 43.1064 25.6471 43.2037 25.7445C43.3204 25.8418 44.4602 25.4736 44.4602 25.4736C44.4602 25.4736 44.3823 24.4875 43.1842 24.4681C42.9913 24.6416 42.9718 24.9514 42.74 24.8346C42.5082 24.7 42.7984 24.5832 42.7984 24.4291C42.7984 24.2751 42.5082 24.2945 42.432 24.2751C42.3541 24.2556 42.0656 24.0237 42.0267 23.8502C42.0072 23.6961 41.3311 23.1349 41.3311 23.1349C41.3311 23.1349 41.0409 22.6711 41.9294 22.8641C42.8178 23.0376 42.7984 23.5209 44.5769 23.3085C45.2724 22.9987 45.2724 22.3613 45.2724 22.3613H45.274Z" fill="#929AAB"/>
<path fill-rule="evenodd" clip-rule="evenodd" d="M51.2062 22.4959C51.2062 22.4959 51.8628 21.1238 51.8628 20.853C51.8628 20.5627 52.8485 19.2685 52.8096 19.0365C53.4857 18.9976 57.3313 19.442 57.9879 20.1378C58.664 20.853 59.0498 22.4959 59.0498 23.482C58.6251 23.5598 57.8712 23.8307 57.4853 24.2945C57.1367 24.2945 56.4234 24.1015 56.1899 24.1015C55.9565 24.1015 55.6873 24.1404 55.282 23.7528C54.6254 23.7139 54.4325 23.7139 54.2201 23.7139C54.0272 23.7139 53.6024 23.482 53.6024 23.482C53.6024 23.482 53.0804 23.1333 52.307 23.1333C51.8628 22.8819 51.6309 22.7278 51.2062 22.65V22.4959Z" fill="#929AAB"/>
<path fill-rule="evenodd" clip-rule="evenodd" d="M52.9247 18.7268C52.9247 18.7268 56.6925 18.8436 57.9863 19.9448C57.4448 19.2295 55.0875 18.4559 53.0009 18.4559C52.808 18.61 52.9231 18.7268 52.9231 18.7268H52.9247Z" fill="#929AAB"/>
<path fill-rule="evenodd" clip-rule="evenodd" d="M54.4325 23.9069C54.4325 23.9069 54.7422 24.5832 54.8573 24.7762C54.974 24.9692 56.1527 25.6844 57.0978 25.7623C58.0252 25.8401 60.0729 25.8774 60.2285 25.9553C60.3825 26.0331 61.0213 27.4831 61.3293 27.7523C61.3682 28.1577 61.2904 28.3897 61.8319 28.5064C62.3929 28.6232 62.0443 29.1243 62.7398 29.3368C63.4548 29.5298 62.9328 29.1243 63.3381 29.1243C63.7434 29.1243 63.377 29.2395 63.8796 29.1633C64.4016 29.0854 63.531 28.0621 63.3381 27.9842C63.1451 27.9064 62.7398 28.3134 62.7398 28.3134C62.7398 28.3134 62.3913 28.5843 62.4691 27.7912C62.1205 27.4052 62.0832 27.5982 62.0054 27.2884C61.9276 26.9787 61.0975 25.0081 60.7116 24.5054C60.3063 23.9831 60.2285 24.6595 59.3206 24.4275C58.4321 24.1761 58.4711 23.9442 58.4711 23.9442C58.4711 23.9442 58.0657 24.254 57.8728 24.2929C57.6799 24.3513 57.5631 24.7762 57.5631 24.7762C57.5631 24.7762 57.0995 24.5443 56.7331 24.4665C56.3845 24.3886 56.1154 24.5443 56.1154 24.5443C56.1154 24.5443 55.8835 24.6984 55.2075 24.1778C54.666 23.9069 54.7049 23.9069 54.4341 23.9069H54.4325Z" fill="#929AAB"/>
<path fill-rule="evenodd" clip-rule="evenodd" d="M58.7418 23.9069C58.7418 23.9069 59.0515 24.0237 59.2833 24.1778C59.5346 24.3513 59.9205 24.2556 59.9205 24.2556C59.9205 24.2556 59.4568 23.4431 58.7418 23.9069Z" fill="#929AAB"/>
<path fill-rule="evenodd" clip-rule="evenodd" d="M59.2055 26.0721C59.2055 26.0721 59.5346 27.4441 59.5346 28.0247C59.8443 28.315 60.0761 28.2761 60.1523 28.547C60.2301 28.8178 60.5382 29.0108 60.7894 28.8178C61.0213 28.6248 61.0213 29.1276 61.0213 29.1276L61.5239 29.4568C61.5239 29.4568 61.6779 28.7416 61.5239 28.6637C61.3699 28.5859 60.9824 28.0653 60.8284 27.7944C60.7505 27.9874 60.5771 27.8723 60.4992 27.5236C60.4214 27.1749 60.1507 26.4613 60.1507 26.2667C60.1507 26.0721 59.2039 26.0737 59.2039 26.0737L59.2055 26.0721Z" fill="#929AAB"/>
<path fill-rule="evenodd" clip-rule="evenodd" d="M54.5492 24.4681C54.5492 24.4681 54.3368 24.0237 53.3317 23.8696C53.3706 24.1404 53.5246 24.0237 53.6413 24.1404C53.7564 24.2556 54.1828 24.4308 54.1828 24.5848C54.1828 24.7389 54.5492 24.8557 54.5492 24.4681Z" fill="#929AAB"/>
<path fill-rule="evenodd" clip-rule="evenodd" d="M58.3349 19.9059C58.2766 19.9253 58.6835 20.2724 58.7208 20.2919C58.9526 20.4086 59.319 20.4654 59.5331 20.2724C59.6303 20.407 59.7843 20.5238 59.8816 20.6584C60.0162 20.8709 60.1135 21.1222 60.1718 21.3736C60.3453 22.1862 60.9841 23.1706 62.3362 23.1706C62.761 23.2485 62.9928 23.3247 63.129 23.3831C63.0901 23.1317 62.8583 22.9387 62.4724 22.8803C62.8583 22.7262 63.0139 22.6289 63.4192 22.6484C63.8051 22.6873 64.1536 22.8803 64.3855 23.1511C64.3855 23.1511 64.8492 23.1511 63.8051 22.2818C63.1485 22.0499 62.7042 21.9915 62.607 21.8375C63.0512 21.7791 63.4954 21.6834 63.9591 22.0499C64.4422 22.4165 64.3839 22.5721 64.8475 22.5721C64.4811 22.0694 64.5573 22.1083 64.4033 21.7791C64.2493 21.4693 63.7467 21.3736 63.0123 21.5082C62.2973 21.625 62.3168 21.5082 62.3168 21.5082L62.3946 21.7402C62.3946 21.7402 61.5823 21.8375 61.2743 20.9276C61.0814 20.6957 61.0424 20.6178 61.0424 20.6178C61.391 20.7719 61.5256 21.0428 61.5256 21.0622C61.6034 21.1968 61.9309 21.2941 62.0671 21.3331C62.5502 21.4677 62.9944 21.179 63.4776 21.2179C63.844 21.2374 64.1536 21.4109 64.4828 21.5277C64.3093 21.1028 64.1536 20.9471 63.7872 20.793C63.5165 20.793 63.4208 20.8903 63.0528 20.9276C62.6864 20.9471 62.0087 21.0055 60.9857 19.9026C59.8654 19.2458 58.3382 19.9026 58.3382 19.9026L58.3349 19.9059Z" fill="#929AAB"/>
<path fill-rule="evenodd" clip-rule="evenodd" d="M43.9219 18.5922C43.9219 18.6895 43.8052 18.7463 43.6512 18.7463C43.5166 18.7463 43.3999 18.6879 43.3999 18.5922C43.3999 18.5143 43.515 18.4381 43.6512 18.4381C43.8052 18.4381 43.9219 18.516 43.9219 18.5922Z" fill="#929AAB"/>
<path fill-rule="evenodd" clip-rule="evenodd" d="M44.3272 18.4576C44.3272 18.5354 44.2688 18.5922 44.1732 18.5922C44.0954 18.5922 44.0192 18.5338 44.0192 18.4576C44.0192 18.3992 44.097 18.3408 44.1732 18.3408C44.2705 18.3408 44.3272 18.3992 44.3272 18.4576Z" fill="#929AAB"/>
<path fill-rule="evenodd" clip-rule="evenodd" d="M44.8687 18.477C44.8687 18.5549 44.7909 18.6311 44.7342 18.6311C44.6564 18.6311 44.5996 18.5532 44.5996 18.477C44.5996 18.4008 44.658 18.3424 44.7342 18.3424C44.7925 18.3424 44.8687 18.4008 44.8687 18.477Z" fill="#929AAB"/>
<path fill-rule="evenodd" clip-rule="evenodd" d="M45.4281 18.477C45.4281 18.5549 45.3503 18.6311 45.2352 18.6311C45.1379 18.6311 45.0422 18.5532 45.0422 18.477C45.0422 18.4008 45.1395 18.3424 45.2352 18.3424C45.3519 18.3424 45.4281 18.4008 45.4281 18.477Z" fill="#929AAB"/>
<path fill-rule="evenodd" clip-rule="evenodd" d="M46.028 18.5338C46.028 18.5922 45.9307 18.6489 45.8156 18.6489C45.7005 18.6489 45.5837 18.5906 45.5837 18.5338C45.5837 18.4559 45.7005 18.417 45.8156 18.417C45.9307 18.417 46.028 18.4559 46.028 18.5338Z" fill="#929AAB"/>
<path fill-rule="evenodd" clip-rule="evenodd" d="M46.5873 18.5922C46.5873 18.6895 46.49 18.7463 46.3943 18.7463C46.2776 18.7463 46.2014 18.6879 46.2014 18.5922C46.2014 18.5143 46.2792 18.4381 46.3943 18.4381C46.4916 18.4381 46.5873 18.516 46.5873 18.5922Z" fill="#929AAB"/>
<path fill-rule="evenodd" clip-rule="evenodd" d="M47.1287 18.9019C47.1287 18.9992 47.0509 19.0755 46.9553 19.0755C46.8596 19.0755 46.7623 18.9976 46.7623 18.9019C46.7623 18.8241 46.8596 18.7479 46.9553 18.7479C47.0509 18.7479 47.1287 18.8257 47.1287 18.9019Z" fill="#929AAB"/>
<path fill-rule="evenodd" clip-rule="evenodd" d="M47.6119 18.9976C47.6119 19.0755 47.5341 19.1517 47.4579 19.1517C47.3817 19.1517 47.3234 19.0738 47.3234 18.9976C47.3234 18.9214 47.3817 18.863 47.4579 18.863C47.5341 18.863 47.6119 18.9214 47.6119 18.9976Z" fill="#929AAB"/>
<path fill-rule="evenodd" clip-rule="evenodd" d="M48.095 19.2296C48.095 19.2879 48.0172 19.3269 47.9215 19.3269C47.8259 19.3269 47.748 19.2879 47.748 19.2296C47.748 19.1906 47.8259 19.1517 47.9215 19.1517C48.0172 19.1517 48.095 19.1906 48.095 19.2296Z" fill="#929AAB"/>
<path fill-rule="evenodd" clip-rule="evenodd" d="M48.0756 19.3658C48.0756 19.4436 48.1907 19.4826 48.3269 19.4826C48.463 19.4826 48.5782 19.4436 48.5782 19.3658C48.5782 19.3074 48.463 19.2506 48.3269 19.2506C48.1907 19.2506 48.0756 19.309 48.0756 19.3658Z" fill="#929AAB"/>
<path fill-rule="evenodd" clip-rule="evenodd" d="M49.0029 19.5977C49.0029 19.6561 48.9251 19.7129 48.8683 19.7129C48.7905 19.7129 48.7338 19.6545 48.7338 19.5977C48.7338 19.5199 48.7921 19.4631 48.8683 19.4631C48.9267 19.4631 49.0029 19.5215 49.0029 19.5977Z" fill="#929AAB"/>
<path fill-rule="evenodd" clip-rule="evenodd" d="M50.8188 12.2135C50.8188 12.2135 49.3499 11.9038 47.9005 12.0984C47.6687 12.6401 47.4758 12.9482 47.3979 13.1607C47.8616 13.1996 48.1324 13.1607 48.1324 13.3926C48.1324 13.6245 47.4368 14.1273 47.1661 14.3787C47.1272 14.9593 47.4758 16.7952 47.6298 17.0855C48.2637 16.7968 49.8136 16.0313 50.7993 12.2816C50.8058 12.293 50.8139 12.3043 50.8237 12.3173C50.848 12.3481 50.882 12.3838 50.9225 12.4227C50.6518 13.3553 50.334 14.3365 49.8493 15.1944C49.3629 16.054 48.7079 16.7919 47.7643 17.2315L47.7919 17.2915C48.7501 16.8455 49.4132 16.0994 49.906 15.2269C50.3973 14.3592 50.7167 13.3666 50.9906 12.4227L50.9955 12.4049L50.9825 12.3919C50.9388 12.3481 50.8999 12.3076 50.8755 12.2768C50.8593 12.2557 50.8447 12.2492 50.8463 12.2476L50.8139 12.2265C50.8139 12.2265 50.8155 12.22 50.8172 12.2151L50.8188 12.2135Z" fill="#929AAB"/>
</g>
<defs>
<clipPath id="clip0_1_1031">
<rect width="87" height="29" fill="white" transform="translate(9 8)"/>
</clipPath>
</defs>
</svg>
