<svg width="105" height="45" viewBox="0 0 105 45" fill="none" xmlns="http://www.w3.org/2000/svg">
<path d="M51.2477 24.9676L48.7664 21.5487C48.4044 21.7884 48.1056 22.1119 47.8955 22.4919C47.6854 22.8718 47.5702 23.2969 47.5597 23.7309C47.5597 25.0447 48.3302 25.8204 49.5447 25.8204C50.2996 25.8204 50.7632 25.4574 51.2516 24.969M49.6166 17.734C49.6166 18.4849 49.8778 18.9708 50.3544 19.6629C51.2124 19.2084 51.6303 18.5724 51.6303 17.7144C51.6303 17.1242 51.3378 16.5391 50.6992 16.5391C50.0044 16.5391 49.6166 17.1006 49.6166 17.7379M52.2729 26.1117C51.2829 26.8874 50.1011 27.0728 49.1921 27.0728C46.9537 27.0728 45.1502 25.8792 45.1111 23.8537C45.0784 22.092 46.7304 20.8592 48.0808 20.4491C47.6616 19.8928 47.2972 19.2581 47.2972 18.4144C47.2972 16.4555 48.974 15.4996 50.7449 15.4996C52.4923 15.4996 53.7603 16.4673 53.7603 18.0031C53.7603 19.3416 52.4191 20.1748 51.1981 20.7077L52.8788 23.2098C53.4497 22.4359 53.8697 21.5613 54.1168 20.6319C54.1325 20.5614 54.1913 20.4439 54.4224 20.4439H57.1153C57.2681 20.4439 57.4561 20.423 57.3255 20.7468L57.003 21.4716C56.9787 21.5361 56.935 21.5914 56.8779 21.63C56.8208 21.6686 56.7532 21.6886 56.6843 21.6871H56.3121C56.017 21.6871 55.9034 21.8608 55.7297 22.1272C55.7297 22.1272 55.3379 22.7645 55.0689 23.1524C54.6275 23.7714 54.5191 23.9712 53.8348 24.6568C54.0136 24.9297 54.2567 25.1544 54.5427 25.3113C54.8287 25.4682 55.1488 25.5525 55.475 25.5566H55.9582C56.0392 25.5566 56.3004 25.524 56.1802 25.8178L55.8524 26.6014C55.8337 26.6708 55.7905 26.7311 55.7306 26.7709C55.6708 26.8108 55.5985 26.8276 55.5273 26.8182H54.4407C54.4407 26.8182 53.0838 26.9148 52.2702 26.0947M69.4904 26.8195L65.8338 14.7291L60.973 26.8195H69.4904ZM82.9991 35.8318V37.5569C83.0029 37.6182 82.9937 37.6797 82.9719 37.7371C82.9501 37.7946 82.9164 37.8467 82.8729 37.8901C82.8294 37.9335 82.7771 37.9671 82.7196 37.9887C82.6621 38.0103 82.6007 38.0193 82.5394 38.0153H69.7046C69.644 38.0195 69.5832 38.0107 69.5262 37.9896C69.4693 37.9686 69.4174 37.9357 69.3741 37.8931C69.3308 37.8505 69.297 37.7992 69.275 37.7426C69.2529 37.6861 69.2431 37.6254 69.2462 37.5648V35.8318C69.2427 35.7709 69.2522 35.71 69.2741 35.6531C69.296 35.5962 69.3297 35.5446 69.3731 35.5017C69.4164 35.4589 69.4684 35.4257 69.5256 35.4045C69.5827 35.3833 69.6438 35.3745 69.7046 35.3786L70.765 35.3538C71.5969 35.3368 71.8019 34.9372 71.8098 34.5559C71.8116 34.4006 71.7914 34.2458 71.7497 34.0962C71.6635 33.7553 71.3997 32.9378 71.3997 32.9378C71.3997 32.9378 70.6488 30.5297 70.1773 29.2146H60.0171L58.3194 33.3936C58.1665 33.722 58.0779 34.0766 58.0582 34.4383C58.0582 35.3159 58.8966 35.363 59.6906 35.3747L60.6557 35.3825C60.7162 35.3777 60.7771 35.386 60.8341 35.4068C60.8911 35.4276 60.943 35.4604 60.9863 35.503C61.0295 35.5456 61.0631 35.597 61.0847 35.6538C61.1063 35.7105 61.1154 35.7712 61.1115 35.8318V37.5609C61.1161 37.622 61.1076 37.6835 61.0863 37.741C61.0651 37.7986 61.0317 37.8509 60.9885 37.8944C60.9452 37.9378 60.8931 37.9715 60.8357 37.9931C60.7783 38.0146 60.7169 38.0235 60.6557 38.0192H51.9738C51.9128 38.024 51.8515 38.0154 51.7941 37.9942C51.7367 37.9729 51.6847 37.9395 51.6415 37.8961C51.5983 37.8528 51.565 37.8006 51.5439 37.7432C51.5228 37.6858 51.5144 37.6245 51.5193 37.5635V35.8318C51.5146 35.771 51.5231 35.7098 51.5443 35.6526C51.5655 35.5954 51.5988 35.5435 51.642 35.5004C51.6852 35.4573 51.7373 35.4241 51.7945 35.4031C51.8518 35.3821 51.913 35.3737 51.9738 35.3786L52.2702 35.3708C52.2702 35.3708 53.2027 35.4074 53.7251 35.1436C54.2474 34.8798 54.4603 34.5494 54.6928 34.0035L65.8481 7.30216C65.8908 7.18062 65.9721 7.07645 66.0797 7.00567C66.1873 6.93488 66.3152 6.9014 66.4436 6.91037H70.0049C70.131 6.90068 70.2566 6.9342 70.361 7.00541C70.4655 7.07662 70.5425 7.18128 70.5796 7.30216C71.5917 10.1987 79.8909 33.8716 79.8962 33.8807C80.2958 34.9986 80.6889 35.3708 81.9974 35.3734H82.542C82.6029 35.3688 82.664 35.3773 82.7213 35.3984C82.7786 35.4194 82.8307 35.4526 82.8741 35.4956C82.9174 35.5386 82.951 35.5904 82.9726 35.6475C82.9942 35.7046 83.0032 35.7657 82.9991 35.8266M46.498 29.6664V37.5543C46.5025 37.6152 46.4938 37.6762 46.4725 37.7334C46.4513 37.7906 46.4179 37.8425 46.3748 37.8856C46.3317 37.9288 46.2798 37.9621 46.2226 37.9833C46.1654 38.0046 46.1043 38.0133 46.0435 38.0088H44.2282C44.1347 38.0155 44.0416 37.9907 43.9638 37.9384C43.8859 37.8861 43.8278 37.8093 43.7986 37.7202C43.6954 37.4877 43.4982 37.2056 43.079 37.2056C42.0708 37.2056 40.2817 38.2504 36.2751 38.2504C27.2027 38.2608 22.2649 30.7582 22.2649 22.5412C22.2649 12.8093 28.1769 6.6962 36.2215 6.6962C38.7733 6.6962 40.202 7.20943 41.0535 7.55943C41.7339 7.87677 42.046 8.0818 42.49 8.0818C43.1051 8.0818 43.2945 7.73442 43.5061 7.27081C43.6367 7.00179 43.7202 6.91168 43.9462 6.91168H45.7562C45.8172 6.9073 45.8785 6.9162 45.9357 6.93778C45.993 6.95936 46.0449 6.9931 46.0878 7.03668C46.1308 7.08025 46.1638 7.13262 46.1845 7.19018C46.2053 7.24773 46.2133 7.30911 46.2081 7.37006V15.271C46.2134 15.3318 46.2054 15.393 46.1846 15.4503C46.1638 15.5076 46.1308 15.5597 46.0877 15.6029C46.0446 15.6461 45.9927 15.6793 45.9354 15.7002C45.8781 15.7212 45.817 15.7294 45.7562 15.7242H43.984C43.7385 15.7242 43.5923 15.6288 43.5283 15.3102C42.8531 11.5974 41.5289 9.3564 37.3668 9.3564C32.1208 9.3564 30.8593 17.4533 30.8593 21.4403C30.8593 27.5155 31.5462 35.6372 37.5862 35.6372C41.9585 35.6372 43.2579 33.1559 43.8169 29.6194C43.8861 29.276 44.1016 29.2185 44.2609 29.2185H46.0435C46.1044 29.2146 46.1654 29.2238 46.2225 29.2455C46.2796 29.2671 46.3314 29.3007 46.3744 29.344C46.4174 29.3872 46.4507 29.4392 46.472 29.4964C46.4933 29.5536 46.5022 29.6147 46.498 29.6756" fill="#929AAB"/>
</svg>
