<svg width="105" height="45" viewBox="0 0 105 45" fill="none" xmlns="http://www.w3.org/2000/svg">
<g clip-path="url(#clip0_1_1014)">
<path fill-rule="evenodd" clip-rule="evenodd" d="M54.1567 2L56.2498 2.00442L56.2408 24.7862L64.2891 16.8696L66.9159 16.8711L58.6412 25.0706L69 35.243L66.1768 35.2577L57.2318 26.4364L56.2708 27.3809V35.2916H54.1777L54.1567 2Z" fill="#929AAB"/>
<path fill-rule="evenodd" clip-rule="evenodd" d="M45.6271 16.1049C48.215 16.1049 50.5644 17.1142 52.2886 18.7526L50.7968 19.8429C49.4234 18.6392 47.6122 17.9069 45.6271 17.9069C41.3346 17.9069 37.8562 21.3252 37.8562 25.5436C37.8562 29.7619 41.3346 33.1802 45.6271 33.1802C47.6452 33.1802 49.4834 32.4244 50.8643 31.1852L52.3291 32.2549C50.6004 33.9169 48.2359 34.9424 45.6271 34.9424C40.333 34.9409 36.042 30.724 36.042 25.5229C36.042 20.3218 40.333 16.1049 45.6256 16.1049H45.6271Z" fill="#929AAB" stroke="#929AAB" stroke-width="0.57" stroke-miterlimit="22.93"/>
<path fill-rule="evenodd" clip-rule="evenodd" d="M38.6928 41.5477C37.5398 41.5477 36.5563 40.5207 36.5563 39.4009C36.5563 38.2811 37.5189 37.238 38.6838 37.238C39.45 37.238 40.0002 37.6019 40.4485 38.1721H41.0123C40.8428 37.873 40.6629 37.5975 40.3871 37.3838C39.9133 37.0081 39.3 36.7856 38.6913 36.7856C37.231 36.7856 36.0405 37.9702 36.0405 39.398C36.0405 40.8257 37.246 42.0029 38.6988 42.0029C39.291 42.0029 39.8713 41.7878 40.3361 41.4283C40.6284 41.1985 40.8338 40.8979 41.0318 40.5914H40.468C40.0242 41.1616 39.456 41.5491 38.6898 41.5491L38.6928 41.5477Z" fill="#929AAB"/>
<path fill-rule="evenodd" clip-rule="evenodd" d="M44.5371 38.8175C44.1833 38.3681 43.702 38.0852 43.1053 38.0852C42.0348 38.0852 41.1547 38.9383 41.1547 39.9903C41.1547 41.0423 42.0393 41.9028 43.1053 41.9028C43.726 41.9028 44.1593 41.6479 44.5371 41.1793V41.8188H45.0019V38.1751H44.5371V38.8175ZM43.0798 41.4828C42.2612 41.4828 41.615 40.783 41.615 39.9947C41.615 39.2064 42.2567 38.5066 43.0798 38.5066C43.9029 38.5066 44.5371 39.2109 44.5371 39.9947C44.5371 40.7786 43.8954 41.4828 43.0798 41.4828Z" fill="#929AAB"/>
<path fill-rule="evenodd" clip-rule="evenodd" d="M45.5657 41.8188H46.0634V36.8888H45.5657V41.8188Z" fill="#929AAB"/>
<path fill-rule="evenodd" clip-rule="evenodd" d="M47.9451 41.2397L46.6857 38.175H46.1909L47.7022 41.8188H48.2045L49.7098 38.175H49.224L47.9451 41.2397Z" fill="#929AAB"/>
<path fill-rule="evenodd" clip-rule="evenodd" d="M49.9152 41.8188H50.4144V38.175H49.9152V41.8188Z" fill="#929AAB"/>
<path fill-rule="evenodd" clip-rule="evenodd" d="M49.9152 37.7065H50.4144V36.8888H49.9152V37.7065Z" fill="#929AAB"/>
<path fill-rule="evenodd" clip-rule="evenodd" d="M52.5585 38.0866C52.0892 38.0866 51.7563 38.3298 51.4475 38.6524V38.175H50.9872V41.8188H51.4775V39.5984C51.473 39.0119 51.9677 38.5066 52.5675 38.5066C53.3201 38.5066 53.6995 39.149 53.6995 39.8135V41.8188H54.1597V39.8135C54.1597 38.8675 53.596 38.0866 52.5585 38.0866Z" fill="#929AAB"/>
<path fill-rule="evenodd" clip-rule="evenodd" d="M58.7806 36.8888L56.5166 39.7162V36.8888H56.0264V41.8188H56.5166V40.4632L57.1584 39.6794L58.7926 41.8188H59.4133L57.4717 39.2904L59.4133 36.8888H58.7806Z" fill="#929AAB"/>
<path fill-rule="evenodd" clip-rule="evenodd" d="M59.5947 41.8188H60.0805V36.8888H59.5947V41.8188Z" fill="#929AAB"/>
<path fill-rule="evenodd" clip-rule="evenodd" d="M64.1017 39.093C63.7643 38.4741 63.0896 38.0866 62.3775 38.0866C61.3159 38.0866 60.4178 38.9559 60.4178 39.9991C60.4178 41.0423 61.3234 41.9042 62.385 41.9042C62.8917 41.9042 63.3895 41.7068 63.7553 41.362C63.9772 41.1557 64.1092 40.8964 64.2291 40.6253H63.7059C63.442 41.1307 62.9772 41.4828 62.376 41.4828C62.0101 41.4828 61.6518 41.337 61.3804 41.0909C61.1 40.8404 60.9771 40.5325 60.9231 40.1686H64.3431C64.3431 39.7884 64.2891 39.4245 64.1002 39.093H64.1017ZM60.9411 39.7486C61.0895 39.065 61.6368 38.5066 62.385 38.5066C63.0147 38.5066 63.6894 38.8867 63.8378 39.7486H60.9411Z" fill="#929AAB"/>
<path fill-rule="evenodd" clip-rule="evenodd" d="M64.7059 41.8188H65.1962V38.175H64.7059V41.8188Z" fill="#929AAB"/>
<path fill-rule="evenodd" clip-rule="evenodd" d="M64.7059 37.7212H65.1962V36.8888H64.7059V37.7212Z" fill="#929AAB"/>
<path fill-rule="evenodd" clip-rule="evenodd" d="M67.3478 38.0866C66.871 38.0866 66.5366 38.3298 66.2248 38.6524V38.175H65.7555V41.8188H66.2488V39.5984C66.2443 39.0075 66.751 38.5066 67.3553 38.5066C68.1049 38.5066 68.4992 39.149 68.4992 39.8135V41.8188H68.9595V39.8135C68.9595 38.8675 68.3868 38.0866 67.3463 38.0866H67.3478Z" fill="#929AAB"/>
</g>
<defs>
<clipPath id="clip0_1_1014">
<rect width="33" height="40" fill="white" transform="translate(36 2)"/>
</clipPath>
</defs>
</svg>
