<svg width="105" height="45" viewBox="0 0 105 45" fill="none" xmlns="http://www.w3.org/2000/svg">
<g clip-path="url(#clip0_1_979)">
<path d="M18.4027 22.2041C17.6393 21.4286 16.8356 20.898 15.9516 20.898C13.5808 20.898 12.1744 22.7755 12.1744 24.8163C12.1744 26.8571 13.5808 28.7347 15.9516 28.7347C16.9562 28.7347 17.8402 28.2857 18.4429 27.5102L20.5726 29.8367C19.2466 31.1837 17.0767 31.6735 15.9516 31.6735C12.0941 31.6327 9 28.898 9 24.8163C9 20.7347 12.0941 17.9592 15.9918 17.9592C17.6393 17.9592 19.4073 18.5714 20.653 19.9592L18.4027 22.2041Z" fill="#929AAB"/>
<path d="M27.9663 17.9592C25.917 17.9592 23.948 18.5714 22.5014 20.0408L24.1891 21.7551C25.0329 20.9388 26.2786 20.4082 27.6046 20.4082C29.3325 20.4082 30.538 21.2653 30.538 22.8571V23.2245H29.7343C26.5197 23.2245 21.6576 23.5102 21.6576 27.7551C21.6576 30.3265 23.948 31.6735 26.3188 31.6735C28.0466 31.6735 29.5334 31.0204 30.4174 29.551H30.4978V31.3469H33.3909V23.8367C33.4311 21.9592 33.4311 17.9592 27.9663 17.9592ZM30.3772 26.2041C30.3772 28.0408 29.3325 29.1837 27.1224 29.1837C26.0777 29.1837 24.8722 28.6531 24.8722 27.4694C24.8722 25.5918 27.9261 25.4694 29.6941 25.4694H30.3772V26.2041Z" fill="#929AAB"/>
<path d="M35.6813 18.2857H38.8959V20.3673H38.9361C39.6192 18.8571 41.0658 17.9592 42.7133 17.9592C43.1151 17.9592 43.4767 18.0408 43.8786 18.1633V21.3061C43.3562 21.1837 42.8338 21.0612 42.3114 21.0612C39.2977 21.0612 38.8557 23.6327 38.8557 24.3673V31.3469H35.6411V18.2857H35.6813Z" fill="#929AAB"/>
<path d="M45.4858 21.0612V18.2857H48.1379V14.4898H51.3525V18.2449H54.8886V21.0204H51.3525V26.7347C51.3525 28.0408 51.7141 28.8571 53.1607 28.8571C53.7233 28.8571 54.4868 28.7347 54.8886 28.449V31.1837C54.2055 31.5102 53.0804 31.6327 52.3571 31.6327C48.9415 31.6327 48.1781 30.0816 48.1781 27.0204V21.0612H45.4858Z" fill="#929AAB"/>
<path d="M69.1133 25.0612C69.1133 20.5306 66.6622 17.9592 63.0859 17.9592C59.2284 17.9592 56.0941 20.6939 56.0941 24.8163C56.0941 28.898 59.1882 31.6735 63.0859 31.6735C65.1352 31.6735 67.0238 30.9388 68.5106 29.0612L66.2201 27.3061C65.4165 28.3265 64.3717 29.0612 62.7644 29.0612C60.9562 29.0612 59.5096 27.8776 59.3087 25.9592H69.1133V25.0612ZM59.3087 23.5102C59.5498 21.6327 60.7151 20.4082 62.6439 20.4082C64.653 20.4082 65.8987 21.5918 65.8987 23.5102H59.3087Z" fill="#929AAB"/>
<path d="M70.9215 18.2857H74.1361V20.3673H74.1763C74.8594 18.8571 76.306 17.9592 77.9937 17.9592C78.3955 17.9592 78.7571 18.0408 79.159 18.1633V21.3061C78.6366 21.1837 78.1142 21.0612 77.5918 21.0612C74.5781 21.0612 74.1361 23.6327 74.1361 24.3673V31.3469H70.9215V18.2857Z" fill="#929AAB"/>
<path d="M82.0922 12.7755H85.347L83.2977 19.2653H80.4045L82.0922 12.7755Z" fill="#929AAB"/>
<path d="M91.5352 21.8776C90.9324 21.0204 90.1288 20.5306 89.0037 20.5306C88.1598 20.5306 87.1151 20.9388 87.1151 21.9184C87.1151 24.2449 94.0265 22.3673 94.0265 27.4286C94.0265 30.5306 91.0932 31.6327 88.4813 31.6327C86.5124 31.6327 84.7845 31.102 83.4987 29.6327L85.6283 27.5918C86.4722 28.5306 87.316 29.1837 88.6822 29.1837C89.6064 29.1837 90.8119 28.7347 90.8119 27.6735C90.8119 24.9796 83.9005 27.102 83.9005 22.1225C83.9005 19.2245 86.4722 17.9184 89.0439 17.9184C90.7717 17.9184 92.5799 18.449 93.6247 19.9184L91.5352 21.8776Z" fill="#929AAB"/>
<path d="M95.674 18.449C95.1115 18.449 94.6293 18.898 94.6293 19.5102C94.6293 20.0816 95.0713 20.5714 95.674 20.5714C96.2366 20.5714 96.7188 20.1225 96.7188 19.5102C96.7188 18.898 96.2366 18.449 95.674 18.449ZM95.674 20.3673C95.1918 20.3673 94.8302 20 94.8302 19.5102C94.8302 19.0204 95.1918 18.6531 95.674 18.6531C96.116 18.6531 96.5179 19.0204 96.5179 19.5102C96.5179 20 96.1562 20.3673 95.674 20.3673Z" fill="#929AAB"/>
<path d="M95.875 19.551C96.0357 19.551 96.1562 19.4286 96.1562 19.2245C96.1562 18.9796 96.0357 18.8571 95.7544 18.8571H95.2722V20.0408H95.5133V19.551H95.674L95.9553 20.0408H96.1964L95.875 19.551ZM95.5133 19.4286V19.102H95.674C95.7946 19.102 95.9553 19.102 95.9553 19.2653C95.9553 19.4286 95.7946 19.4286 95.674 19.4286H95.5133Z" fill="#929AAB"/>
</g>
<defs>
<clipPath id="clip0_1_979">
<rect width="88" height="20" fill="white" transform="translate(9 12)"/>
</clipPath>
</defs>
</svg>
