<svg width="105" height="45" viewBox="0 0 105 45" fill="none" xmlns="http://www.w3.org/2000/svg">
<path d="M21.4489 18.7414C21.0158 18.3082 20.3152 18.3082 19.8821 18.7414L19.5176 19.1058C19.0845 19.539 19.0845 20.2395 19.5176 20.6727L22.0217 23.1791C22.4548 23.6123 23.1554 23.6123 23.5885 23.1791L23.953 22.8146C24.3861 22.3815 24.3861 21.6809 23.953 21.2478L21.4489 18.7414Z" fill="#929AAB"/>
<path d="M19.1933 20.9968C18.7602 20.5637 18.0573 20.5637 17.6242 20.9968L17.2597 21.3613C16.8265 21.7945 16.8265 22.495 17.2597 22.9305L19.7661 25.4346C20.1993 25.8678 20.8998 25.8678 21.3329 25.4346L21.6974 25.0725C22.1306 24.6394 22.1306 23.9364 21.6974 23.5057L19.1933 20.9992V20.9968Z" fill="#929AAB"/>
<path d="M19.1767 25.3898C18.7436 24.9567 18.043 24.9567 17.6098 25.3898L15.1057 27.8939C14.6726 28.327 14.6726 29.0276 15.1057 29.4607L15.4702 29.8252C15.9034 30.2583 16.604 30.2583 17.0371 29.8252L19.5411 27.3211C19.9743 26.888 19.9743 26.1874 19.5411 25.7519L19.1767 25.3898Z" fill="#929AAB"/>
<path d="M17.2856 23.4962L16.9211 23.1317C16.488 22.6986 15.7873 22.6986 15.3542 23.1317L12.8478 25.6358C12.4147 26.069 12.4147 26.7719 12.8478 27.205L13.2122 27.5695C13.6454 28.0026 14.3483 28.0026 14.7791 27.5695L17.2832 25.0631C17.7163 24.6299 17.7163 23.9293 17.2832 23.4962H17.2856Z" fill="#929AAB"/>
<path d="M15.1011 19.0868C14.668 19.5199 14.668 20.2229 15.1011 20.6537L15.4655 21.0181C15.8987 21.4513 16.5993 21.4513 17.0324 21.0181L19.5389 18.5117C19.972 18.0786 19.972 17.378 19.5389 16.9448L19.1744 16.5804C18.7413 16.1472 18.0406 16.1472 17.6075 16.5804L15.1034 19.0845L15.1011 19.0868Z" fill="#929AAB"/>
<path d="M87.2346 17.9864C87.8689 17.9864 88.3849 17.4728 88.3849 16.8385C88.3849 16.2042 87.8689 15.6906 87.2346 15.6906C86.6003 15.6906 86.0844 16.2065 86.0844 16.8385C86.0844 17.4704 86.6003 17.9864 87.2346 17.9864Z" fill="#929AAB"/>
<path d="M13.0869 23.2265C13.52 23.6596 14.2206 23.6596 14.6537 23.2265L15.0182 22.862C15.4513 22.4265 15.4513 21.7259 15.0182 21.2928L12.5141 18.7887C12.081 18.3555 11.3804 18.3555 10.9473 18.7887L10.5828 19.1532C10.1497 19.5863 10.1497 20.2892 10.5828 20.72L13.0869 23.2265Z" fill="#929AAB"/>
<path d="M13.21 18.7626C13.6432 19.1958 14.3461 19.1958 14.7793 18.7626L17.2834 16.2562C17.7165 15.823 17.7165 15.1225 17.2834 14.6893L16.9189 14.3248C16.4858 13.8917 15.7828 13.8917 15.352 14.3248L12.8456 16.8289C12.4125 17.2621 12.4125 17.9626 12.8456 18.3958L13.21 18.7603V18.7626Z" fill="#929AAB"/>
<path d="M12.7626 23.5506L10.2585 21.0442C9.82539 20.611 9.12247 20.611 8.68935 21.0442L8.32485 21.4087C7.89172 21.8418 7.89172 22.5424 8.32485 22.9779L10.8313 25.4819C11.2645 25.9151 11.965 25.9151 12.3981 25.4819L12.7626 25.1198C13.1958 24.6867 13.1958 23.9861 12.7626 23.553V23.5506Z" fill="#929AAB"/>
<path d="M82.2739 19.6692C80.9438 19.3473 79.6089 19.9272 78.7828 20.4195L78.79 15.2456L78.5367 15.0847L75.7036 15.6503V16.1166C75.7036 16.1166 76.1912 16.5 76.2409 16.5497C76.5912 16.9213 76.5864 17.4515 76.5864 17.8041L76.5794 27.5389V27.6596L76.6859 27.7164C78.3001 28.5495 80.4349 28.6749 81.9946 28.0241C83.739 27.2975 84.4798 26.0667 84.7946 25.1626C85.268 23.7969 85.0479 22.4076 84.6195 21.6407C84.0207 20.5686 83.2301 19.9059 82.2715 19.6716L82.2739 19.6692ZM82.2621 26.2963C81.7721 27.1294 80.7686 27.6099 79.9781 27.3921C79.19 27.1744 78.7615 26.3365 78.7734 25.0371C78.7734 25.0348 78.7734 22.0739 78.7734 21.4254C78.8018 21.4112 78.8302 21.397 78.861 21.3804C79.3391 21.1366 80.2243 20.6822 81.41 21.2857C82.0491 21.61 82.5248 22.2183 82.752 22.9969C83.0573 24.0454 82.8775 25.2454 82.2598 26.2939L82.2621 26.2963Z" fill="#929AAB"/>
<path d="M74.8656 26.3862L74.861 22.3011C74.861 21.3638 74.371 19.5887 72.5225 19.5887C71.1497 19.5887 70.2149 20.4052 69.7675 20.8502C69.4717 20.223 68.8918 19.5887 67.7629 19.5887C66.8966 19.5887 66.0729 19.9177 65.3108 20.5709V19.7165L65.0599 19.5532L62.2197 20.1212V20.5875C62.2197 20.5875 62.7073 20.9709 62.757 21.0206C63.1168 21.4017 63.1168 21.965 63.1168 22.2987V28.2631H66.2078V27.6761L66.054 27.6382C65.5688 27.5246 65.325 27.1128 65.3084 26.3815C65.3084 26.3838 65.3061 22.2679 65.3061 21.6147C65.8481 21.1579 66.3948 21.0609 66.97 21.1106C67.4386 21.1508 67.9214 21.4774 67.9333 23.1697V28.2631H71.0195V27.6738L70.8657 27.6359C70.3734 27.5199 70.1249 27.1081 70.106 26.3791C70.106 26.3815 70.106 22.2987 70.106 22.2987C70.106 22.1922 70.0847 21.849 70.0468 21.6289C70.603 21.1532 71.1403 21.0561 71.732 21.1082C72.2006 21.1484 72.6834 21.475 72.6953 23.1673V28.2607H75.7769V27.6714L75.6254 27.6335C75.1379 27.5175 74.8799 27.0962 74.8633 26.3815L74.8656 26.3862Z" fill="#929AAB"/>
<path d="M35.2853 26.9306C34.0995 27.4702 32.5374 27.1175 32.0451 26.9282C30.8736 26.4761 29.3446 25.1815 28.8973 23.1697C28.4357 21.1011 28.7529 19.2147 29.7895 17.8514C30.6392 16.7319 31.7801 16.0219 33.1954 15.9485C36.4995 15.7781 36.9018 18.1473 37.0557 19.0301L37.1031 19.3047L38.0071 19.2715L38.0427 19.1224C38.0734 18.9922 38.0261 15.9461 38.0261 15.9461L37.9243 15.8893C36.7031 15.1982 34.4451 14.9 33.3516 14.9592C30.4475 15.113 28.308 16.1 26.9849 17.894C25.7873 19.5224 25.4015 21.6549 25.9529 23.6028C26.4831 25.4797 27.792 26.9235 29.6381 27.669C32.7197 28.914 35.5764 28.301 37.432 27.5696L37.5078 27.5412C37.5078 27.5412 37.9953 26.5211 38.1847 25.7259C38.1847 25.7259 37.8438 25.2028 37.7776 25.1057C37.3018 25.7046 36.322 26.4596 35.29 26.9282L35.2853 26.9306Z" fill="#929AAB"/>
<path d="M97.0049 27.3329L96.844 27.3045C96.7162 27.2785 96.4842 26.9708 96.4842 26.443V22.4809C96.4842 21.3378 96.115 20.4384 95.4476 19.9532C94.8346 19.5082 93.9943 19.4419 93.0168 19.7591C91.8642 20.1331 90.1033 21.6691 89.8264 22.0099L89.7625 22.0881L89.7861 22.1851C89.8098 22.2845 89.9423 22.488 90.0299 22.5638L90.0867 22.6111H92.0109C92.0109 22.6111 92.0062 22.152 92.0062 22.0715C92.0062 21.281 92.5269 20.907 92.96 20.8242C93.3979 20.7413 93.7008 20.7839 93.9091 20.9567C94.2073 21.2029 94.3564 21.7567 94.3564 22.5993V23.1034L90.2926 24.9069L90.2121 24.9424L90.1861 25.0253C89.8098 26.1613 89.8926 27.0347 90.4252 27.6217C91.2678 28.5495 93.3174 28.6773 96.3043 28.0051C96.5315 27.9436 97.0049 27.8962 97.0049 27.8962C97.0025 27.8962 97.0025 27.3329 97.0025 27.3329H97.0049ZM92.5458 27.2525C92.0275 26.8217 91.9138 26.0099 92.2618 25.2596L94.3635 24.0785V27.1317C93.6961 27.6004 93.0216 27.6501 92.5458 27.2548V27.2525Z" fill="#929AAB"/>
<path d="M88.437 26.3838L88.4417 19.6834L88.1885 19.5201L85.353 20.0881V20.5544C85.353 20.5544 85.8382 20.9378 85.8903 20.9899C86.2406 21.3615 86.2382 21.894 86.2358 22.2466V28.2655H89.3246V27.6785L89.1731 27.6406C88.695 27.5294 88.4536 27.1176 88.437 26.3838Z" fill="#929AAB"/>
<path d="M60.7712 26.3861V19.7164L60.5227 19.5531L57.6849 20.1212V20.5874C57.6849 20.5874 58.1724 20.9709 58.2221 21.0206C58.5843 21.4016 58.5843 21.9649 58.5843 22.2986V26.2749C57.6541 26.9802 56.7973 27.2287 56.2174 26.9542C55.7464 26.7293 55.479 26.1731 55.4671 25.3897V19.7141L55.2139 19.5508L52.3761 20.1188V20.5851C52.3761 20.5851 52.8636 20.9685 52.9133 21.0182C53.2778 21.404 53.2754 21.972 53.2754 22.3105V25.7021C53.2991 26.353 53.3323 26.5779 53.4009 26.8642C53.5784 27.5932 54.0044 28.1021 54.634 28.3364C55.6352 28.7104 57.0624 28.3459 58.5843 27.34V28.2607H61.6942V27.6713L61.5404 27.6335C61.0316 27.5151 60.7759 27.0915 60.7759 26.3814L60.7712 26.3861Z" fill="#929AAB"/>
<path d="M43.3112 19.4466C40.6462 19.4466 38.6391 21.385 38.6415 23.9506C38.6415 26.6819 40.4758 28.4499 43.3112 28.4523C44.6721 28.4523 45.846 28.0026 46.7028 27.1458C47.5265 26.3245 47.9786 25.1885 47.9786 23.9506C47.9786 22.6418 47.5573 21.5246 46.7526 20.7199C45.9195 19.8868 44.7289 19.4466 43.3136 19.4489L43.3112 19.4466ZM43.3136 27.4914C41.5834 27.4914 41.0982 26.1305 41.0958 23.9388C41.0958 22.3246 41.5811 20.3838 43.3136 20.3838C45.0461 20.3838 45.5313 22.3246 45.5289 23.9388C45.5289 26.1305 45.0414 27.4914 43.3136 27.4914Z" fill="#929AAB"/>
<path d="M51.1858 26.5259C51.181 26.3768 51.1929 15.2456 51.1929 15.2456L50.9396 15.0847L48.1089 15.6503V16.1166C48.1089 16.1166 48.587 16.5 48.6391 16.5521C48.9988 16.9331 48.9988 17.4964 48.9988 17.8349V28.3531H51.9621V27.6832C51.9621 27.6832 51.2236 27.6099 51.1858 26.5282V26.5259Z" fill="#929AAB"/>
</svg>
