<svg width="105" height="45" viewBox="0 0 105 45" fill="none" xmlns="http://www.w3.org/2000/svg">
<g clip-path="url(#clip0_1_1007)">
<path d="M9.69972 15H11.0577C13.1348 15.1993 14.789 15.9838 15.8819 17.7508C15.9457 17.8542 15.9185 17.9253 15.8004 17.964L14.7023 18.3196C14.6749 18.3286 14.6452 18.3283 14.6181 18.3187C14.591 18.309 14.5683 18.2907 14.5536 18.2667C12.3342 14.6077 5.44077 15.618 5.50803 20.3679C5.57528 25.0371 12.7455 25.558 14.5924 22.0946C14.6032 22.0742 14.6211 22.0581 14.6429 22.0494C14.6647 22.0406 14.6889 22.0396 14.7114 22.0467L15.931 22.4402C15.9418 22.4439 15.9518 22.4497 15.9601 22.4575C15.9683 22.4652 15.9748 22.4745 15.979 22.4849C15.9832 22.4952 15.985 22.5063 15.9843 22.5173C15.9836 22.5283 15.9804 22.539 15.975 22.5486C15.1149 24.0823 13.4969 25.0119 11.76 25.3083C8.31715 25.8948 4.46819 24.544 4 20.7362V19.7259C4.37119 16.7721 6.82593 15.1993 9.69972 15Z" fill="#929AAB"/>
<path d="M24.3765 15H25.7629C28.4505 15.2144 30.741 16.7645 31.1639 19.4838C32.0045 24.8959 25.0425 26.7449 21.1923 24.5301C17.8736 22.6193 17.8412 17.882 21.1444 15.951C22.0687 15.4103 23.1461 15.0933 24.3765 15ZM27.1908 16.5022C24.2303 15.3292 20.1861 16.6283 20.2029 20.267C20.2171 23.6132 23.519 24.7823 26.4083 24.1517C27.3205 23.9533 28.0474 23.5867 28.5889 23.0519C30.6194 21.0465 29.8796 17.5679 27.1908 16.5022Z" fill="#929AAB"/>
<path d="M92.7394 18.6463C92.8985 17.0559 91.8406 16.5678 90.3998 16.3596C89.4971 16.2285 88.5469 16.2054 87.5493 16.2903C86.2314 16.4025 85.0182 16.6964 84.6134 18.0624C84.6053 18.0898 84.5878 18.1138 84.5638 18.1303C84.5398 18.1468 84.5108 18.1549 84.4815 18.1532L83.2503 18.0825C83.2373 18.0817 83.2246 18.0781 83.2132 18.0719C83.2019 18.0656 83.1921 18.057 83.1846 18.0465C83.1772 18.0361 83.1722 18.0242 83.1702 18.0116C83.1681 17.9991 83.1689 17.9862 83.1727 17.9741C83.8064 15.8678 85.674 15.116 87.7821 15.0555C89.8695 14.995 93.0317 15.0051 93.7935 17.1694C93.928 17.5503 93.9953 18.3167 93.9953 19.4687C93.9961 21.3496 93.9966 23.2339 93.9966 25.1216C93.9966 25.1452 93.9841 25.1569 93.9591 25.1569L92.8274 25.1506C92.7964 25.1506 92.7808 25.1351 92.7808 25.104L92.7834 23.8301C92.7837 23.8178 92.7805 23.8057 92.7739 23.7952C92.7674 23.7847 92.758 23.7762 92.7467 23.7708C92.7354 23.7653 92.7228 23.7632 92.7102 23.7645C92.6977 23.7659 92.6859 23.7707 92.6761 23.7784C90.8577 25.167 88.5516 25.5845 86.2883 25.3297C85.1321 25.1998 84.1129 24.7962 83.4818 23.8175C82.7032 22.6117 82.8946 20.9809 83.9823 19.9996C84.8527 19.2151 86.331 18.9869 87.517 18.8885C89.2276 18.7455 90.9404 18.6892 92.6554 18.7195C92.6761 18.7199 92.6962 18.7126 92.7117 18.699C92.7273 18.6855 92.7372 18.6667 92.7394 18.6463ZM87.0359 20.1207C85.8602 20.3137 84.4362 20.8661 84.4505 22.28C84.4608 23.3672 85.4541 23.9487 86.4487 24.1114C88.0714 24.3762 89.6264 24.1505 91.1137 23.4341C92.6373 22.7013 92.8067 21.4236 92.7899 19.9353C92.7896 19.9038 92.7765 19.8736 92.7534 19.8514C92.7304 19.8292 92.6994 19.8168 92.667 19.8168C90.7982 19.818 88.8814 19.8168 87.0359 20.1207Z" fill="#929AAB"/>
<path d="M36.0113 16.4467C36.4985 15.9867 37.1033 15.6449 37.8259 15.4213C39.6124 14.8663 41.3644 14.9445 43.082 15.6559C43.9783 16.0279 44.255 16.3924 44.8034 16.9764C44.8362 17.0117 44.8685 17.0117 44.9004 16.9764C45.6091 16.2062 46.4528 15.6807 47.4315 15.3998C49.2499 14.8789 51.6865 14.9571 53.3278 16.0014C54.603 16.8124 55.11 17.8984 55.1203 19.3829C55.1333 21.2563 55.1345 23.1599 55.1242 25.0939C55.1242 25.1026 55.1224 25.1112 55.119 25.1193C55.1155 25.1273 55.1104 25.1346 55.104 25.1407C55.0977 25.1468 55.0901 25.1516 55.0818 25.1548C55.0735 25.1581 55.0646 25.1596 55.0557 25.1595L53.8891 25.1519C53.8618 25.1516 53.8359 25.1408 53.8167 25.1219C53.7976 25.103 53.7869 25.0775 53.7869 25.051C53.799 23.1364 53.7972 21.21 53.7817 19.2719C53.7507 15.5108 46.3373 15.4377 45.5626 18.5076C45.5152 18.6951 45.4906 19.0075 45.4889 19.4447C45.4811 21.3273 45.482 23.2062 45.4915 25.0813C45.4915 25.13 45.4664 25.1544 45.4164 25.1544L44.255 25.1532C44.2408 25.1532 44.2268 25.1504 44.2136 25.1451C44.2005 25.1397 44.1886 25.1319 44.1787 25.1221C44.1687 25.1122 44.1608 25.1005 44.1555 25.0877C44.1502 25.0748 44.1475 25.0611 44.1477 25.0472C44.1598 23.2352 44.1585 21.4202 44.1438 19.6024C44.127 17.3775 42.6371 16.3899 40.4707 16.3319C38.6859 16.284 35.9066 16.791 35.8768 19.0676C35.8509 21.0805 35.8393 23.0914 35.8419 25.1002C35.8419 25.1156 35.8356 25.1303 35.8245 25.1412C35.8133 25.1521 35.7982 25.1582 35.7824 25.1582L34.5899 25.1532C34.5655 25.1528 34.5421 25.1431 34.5249 25.1261C34.5077 25.1091 34.4981 25.0862 34.4981 25.0624L34.4968 15.5411C34.4968 15.5189 34.5058 15.4976 34.5217 15.4818C34.5377 15.466 34.5594 15.4569 34.5822 15.4566L35.732 15.4541C35.8113 15.4541 35.8505 15.4927 35.8497 15.5701L35.8341 16.371C35.8315 16.5358 35.8906 16.561 36.0113 16.4467Z" fill="#929AAB"/>
<path d="M60.3078 16.4984C62.0952 14.8108 65.11 14.7263 67.2944 15.5789C68.148 15.9119 68.6123 16.3382 69.1956 17.018C69.197 17.0198 69.1988 17.0211 69.2008 17.0221C69.2029 17.0231 69.2051 17.0235 69.2075 17.0235C69.2098 17.0235 69.2121 17.0231 69.2143 17.0221C69.2165 17.0211 69.2185 17.0198 69.2202 17.018C69.841 16.3235 70.5752 15.824 71.4227 15.5196C74.4207 14.4425 79.4867 15.2283 79.4919 19.2883C79.4953 21.2138 79.4931 23.144 79.4854 25.0787C79.4854 25.1008 79.4764 25.122 79.4604 25.1376C79.4444 25.1532 79.4227 25.162 79.4 25.162L78.2373 25.1519C78.2135 25.1516 78.1908 25.1421 78.1741 25.1256C78.1574 25.1091 78.1481 25.0868 78.1481 25.0636C78.1558 23.1877 78.1485 21.3042 78.1261 19.4132C78.0951 16.7292 75.2445 16.1326 73.0743 16.3912C71.7939 16.5425 70.295 17.1631 69.9328 18.4697C69.8682 18.7052 69.8363 19.3156 69.8371 20.3011C69.8388 21.8962 69.8388 23.4908 69.8371 25.0851C69.8371 25.1321 69.8134 25.1557 69.766 25.1557L68.5477 25.1519C68.535 25.1519 68.5228 25.147 68.5138 25.1382C68.5049 25.1295 68.4998 25.1176 68.4998 25.1052C68.5067 23.2436 68.505 21.3816 68.4946 19.5191C68.4778 16.4341 65.2975 15.9825 62.9113 16.482C61.5663 16.7632 60.2445 17.5881 60.2264 19.0676C60.2022 21.0738 60.1923 23.0729 60.1966 25.0649C60.1966 25.0774 60.1941 25.0898 60.1892 25.1014C60.1843 25.1129 60.1771 25.1234 60.1681 25.1322C60.1591 25.141 60.1484 25.148 60.1366 25.1526C60.1249 25.1573 60.1123 25.1596 60.0996 25.1595L58.9615 25.1519C58.8942 25.1519 58.8606 25.1191 58.8606 25.0535L58.8619 15.5789C58.8619 15.5471 58.8748 15.5167 58.8979 15.4942C58.9209 15.4717 58.9522 15.4591 58.9848 15.4591L60.0802 15.4541C60.0961 15.4539 60.1118 15.4568 60.1264 15.4626C60.1411 15.4685 60.1544 15.4771 60.1656 15.488C60.1769 15.499 60.1857 15.512 60.1917 15.5263C60.1977 15.5406 60.2007 15.5559 60.2005 15.5714L60.1953 16.4517C60.1945 16.5543 60.232 16.5699 60.3078 16.4984Z" fill="#929AAB"/>
<path d="M101 21.3151V25.5984C100.646 27.5012 99.5032 28.6351 97.5701 29H97.1019L97.0928 27.3894C97.0928 27.3524 97.1118 27.3313 97.1497 27.3263C98.3836 27.18 99.0971 26.5086 99.2902 25.3121C99.2932 25.2933 99.292 25.2742 99.2868 25.2559C99.2815 25.2377 99.2723 25.2208 99.2598 25.2064C99.2472 25.192 99.2317 25.1804 99.2141 25.1726C99.1966 25.1647 99.1776 25.1606 99.1583 25.1607L97.1756 25.1582C97.1533 25.1582 97.1319 25.1497 97.1162 25.1345C97.1004 25.1194 97.0916 25.0989 97.0916 25.0775L97.0928 21.3694C97.0928 21.353 97.0994 21.3372 97.111 21.3257C97.1227 21.3141 97.1385 21.3076 97.1549 21.3076L101 21.3151Z" fill="#929AAB"/>
</g>
<defs>
<clipPath id="clip0_1_1007">
<rect width="97" height="14" fill="white" transform="translate(4 15)"/>
</clipPath>
</defs>
</svg>
