<svg width="105" height="45" viewBox="0 0 105 45" fill="none" xmlns="http://www.w3.org/2000/svg">
<g clip-path="url(#clip0_1_1013)">
<path d="M50.3614 11.2246C49.6386 14.1519 47.9168 16.6205 45.2268 18.0439C42.8205 19.317 39.945 19.7242 37.2287 19.6421C37.2062 19.6411 37.1949 19.6294 37.1949 19.6069V16.2104C37.1949 16.18 37.21 16.1653 37.24 16.1663C41.2398 16.3 45.4827 15.2958 46.8112 10.9847C47.1525 9.87744 47.3361 8.72855 47.3622 7.53808C47.3625 7.5195 47.3701 7.50178 47.3832 7.48857C47.3963 7.47536 47.4141 7.46767 47.4327 7.4671C51.2806 7.37097 54.6912 8.46705 57.6645 10.7553C58.0688 11.0667 58.4488 11.3904 58.8046 11.7267C60.4103 13.2449 61.6693 15.0615 62.5815 17.1764C62.5975 17.2133 62.586 17.2374 62.5469 17.2489L59.2639 18.1948C59.2379 18.2023 59.2192 18.1936 59.2077 18.1687C57.5932 14.6406 54.4993 12.0756 50.6872 11.2216C50.5961 11.2012 50.504 11.1897 50.411 11.1872C50.3845 11.1867 50.3679 11.1992 50.3614 11.2246Z" fill="#929AAB"/>
<path d="M37.2391 12.8019C38.6104 12.8632 40.0995 12.7526 41.4018 12.2923C42.4726 11.9138 43.1811 11.1913 43.5274 10.1248C43.5294 10.1186 43.5327 10.1129 43.537 10.108C43.5413 10.1031 43.5466 10.0991 43.5525 10.0963C43.5584 10.0936 43.5648 10.092 43.5713 10.0917C43.5778 10.0915 43.5843 10.0926 43.5904 10.0949L45.1134 10.6508C45.1399 10.6603 45.1484 10.6785 45.1389 10.7054C44.6135 12.2196 43.5972 13.2644 42.0901 13.8397C40.5642 14.4225 38.8491 14.5726 37.2256 14.5032C37.2051 14.5022 37.1948 14.4912 37.1948 14.4703L37.1941 12.8452C37.1941 12.8153 37.2091 12.8009 37.2391 12.8019Z" fill="#929AAB"/>
<path d="M51.4827 13.2464C51.4852 13.2395 51.4891 13.2332 51.4941 13.2278C51.499 13.2224 51.505 13.218 51.5116 13.215C51.5183 13.2119 51.5254 13.2102 51.5327 13.21C51.54 13.2097 51.5472 13.2109 51.554 13.2135C54.2836 14.2336 56.2888 16.044 57.5698 18.6446C57.5803 18.666 57.5741 18.68 57.5511 18.6864L55.9561 19.1497C55.9286 19.1576 55.9081 19.1489 55.8945 19.1235C54.7792 17.016 53.0912 15.5653 50.8305 14.7713C50.8029 14.7614 50.7962 14.7437 50.8102 14.7183C51.0694 14.2441 51.2936 13.7534 51.4827 13.2464Z" fill="#929AAB"/>
<path d="M25.6458 29.2602C23.9187 31.4203 24.6948 35.1605 27.5485 35.9316C28.0999 36.0805 28.6591 36.0873 29.226 35.9518C30.3796 35.6761 31.2653 34.8228 31.7419 33.7484C31.7514 33.727 31.7677 33.7163 31.7907 33.7163H35.3747C35.4007 33.7163 35.4105 33.7287 35.404 33.7536C35.0187 35.2763 34.2546 36.5042 33.1117 37.4371C31.9939 38.3492 30.7714 38.8769 29.4444 39.0204C29.0686 39.0607 28.5973 39.0687 28.0304 39.0443C27.497 39.0218 27.0306 38.9611 26.6313 38.862C23.7716 38.1522 21.7413 35.8143 21.2955 32.9176C21.292 32.8956 21.284 32.8757 21.2715 32.8578C21.267 32.8508 21.2625 32.8433 21.258 32.8354C21.2545 32.8289 21.2522 32.8217 21.2512 32.8137C21.1907 32.2479 21.1912 31.682 21.2527 31.1162C21.258 31.0691 21.2947 31.0407 21.3023 30.9884C21.9042 27.0098 25.4191 24.456 29.3979 24.9469C32.2681 25.301 34.8042 27.4065 35.4175 30.2823C35.4245 30.3152 35.411 30.3316 35.3769 30.3316L31.8065 30.3324C31.778 30.3324 31.7584 30.3192 31.7479 30.2928C31.1963 28.93 30.0209 27.9661 28.5077 27.9445C27.3153 27.927 26.3613 28.3656 25.6458 29.2602Z" fill="#929AAB"/>
<path d="M44.119 34.1429C44.1091 34.1449 44.0999 34.1493 44.0923 34.1558C44.0846 34.1623 44.0788 34.1706 44.0753 34.18C44.0719 34.1894 44.0709 34.1995 44.0725 34.2093C44.0741 34.2192 44.0782 34.2285 44.0844 34.2363L47.745 38.7985C47.754 38.8099 47.7512 38.8157 47.7367 38.8157L43.8075 38.8142C43.7809 38.8142 43.7602 38.8035 43.7452 38.782L40.6273 34.4463C40.6208 34.4371 40.6115 34.4302 40.6007 34.4266C40.59 34.423 40.5784 34.4229 40.5676 34.4263C40.5568 34.4297 40.5474 34.4365 40.5407 34.4456C40.5341 34.4547 40.5305 34.4657 40.5305 34.4769L40.532 38.7776C40.532 38.8025 40.5195 38.8149 40.4944 38.8149L37.234 38.8142C37.208 38.8142 37.1949 38.8015 37.1949 38.7761V25.1785C37.1949 25.1576 37.2057 25.1469 37.2272 25.1464C39.7061 25.134 41.3961 25.1349 42.2973 25.1494C42.6461 25.1554 43.1277 25.2012 43.7422 25.2869C46.8075 25.715 48.157 29.0055 47.1047 31.6713C46.5613 33.0461 45.566 33.87 44.119 34.1429ZM40.5357 28.2456L40.5222 31.965C40.5222 31.9786 40.5277 31.9918 40.5374 32.0014C40.5471 32.0111 40.5603 32.0165 40.574 32.0165L42.1359 32.0218C42.6587 32.0235 43.1606 31.8378 43.5314 31.5054C43.9021 31.1731 44.1113 30.7213 44.1129 30.2495L44.1144 29.985C44.1153 29.7514 44.0651 29.5199 43.9667 29.3037C43.8684 29.0875 43.7239 28.8909 43.5414 28.7251C43.359 28.5592 43.1421 28.4275 42.9033 28.3373C42.6645 28.247 42.4083 28.2002 42.1495 28.1993L40.5875 28.1941C40.5738 28.1941 40.5606 28.1995 40.5509 28.2092C40.5412 28.2188 40.5357 28.2319 40.5357 28.2456Z" fill="#929AAB"/>
<path d="M52.7203 25.1404C52.7446 25.1404 52.7679 25.15 52.7851 25.1671C52.8022 25.1842 52.8119 25.2074 52.8119 25.2316V38.7604C52.8119 38.7749 52.8069 38.7887 52.798 38.799C52.7892 38.8092 52.7771 38.8149 52.7646 38.8149H49.3405C49.328 38.8149 49.3159 38.8092 49.3071 38.799C49.2982 38.7887 49.2932 38.7749 49.2932 38.7604V25.2316C49.2932 25.2074 49.3029 25.1842 49.32 25.1671C49.3372 25.15 49.3605 25.1404 49.3848 25.1404H52.7203Z" fill="#929AAB"/>
<path d="M63.6787 25.142H67.5276C67.5323 25.142 67.5369 25.1432 67.5409 25.1455C67.5449 25.1479 67.5482 25.1512 67.5505 25.1553C67.5528 25.1593 67.554 25.1638 67.5539 25.1685C67.5538 25.1731 67.5526 25.1776 67.5502 25.1816L59.3284 38.8015C59.3261 38.8054 59.3228 38.8086 59.3188 38.8108C59.3149 38.8131 59.3104 38.8142 59.3059 38.8142H54.864C54.8571 38.8142 54.8504 38.8115 54.8455 38.8066C54.8405 38.8017 54.8378 38.795 54.8378 38.7881V25.1674C54.8378 25.1605 54.8405 25.1538 54.8455 25.1489C54.8504 25.144 54.8571 25.1412 54.864 25.1412L58.3527 25.142C58.3597 25.142 58.3663 25.1447 58.3713 25.1496C58.3762 25.1545 58.379 25.1612 58.379 25.1681L58.3782 33.7014C58.3782 33.7071 58.3801 33.7127 58.3836 33.7173C58.3871 33.7218 58.3919 33.7251 58.3975 33.7266C58.403 33.7281 58.4089 33.7278 58.4142 33.7257C58.4195 33.7236 58.424 33.7198 58.427 33.7149L63.6562 25.1547C63.6585 25.1508 63.6618 25.1476 63.6658 25.1454C63.6697 25.1432 63.6742 25.142 63.6787 25.142Z" fill="#929AAB"/>
<path d="M72.0056 25.1412H68.5499C68.5387 25.1412 68.5297 25.1503 68.5297 25.1614V38.7941C68.5297 38.8052 68.5387 38.8142 68.5499 38.8142H72.0056C72.0167 38.8142 72.0258 38.8052 72.0258 38.7941V25.1614C72.0258 25.1503 72.0167 25.1412 72.0056 25.1412Z" fill="#929AAB"/>
<path d="M79.6929 28.2165V38.7917C79.6929 38.7979 79.6904 38.8038 79.6861 38.8081C79.6817 38.8125 79.6758 38.8149 79.6696 38.8149L76.2125 38.8142C76.2063 38.8142 76.2004 38.8117 76.196 38.8074C76.1917 38.803 76.1892 38.7971 76.1892 38.791V28.2165C76.1892 28.2103 76.1868 28.2044 76.1824 28.2001C76.178 28.1957 76.1721 28.1933 76.166 28.1933L73.5059 28.1955C73.4998 28.1955 73.4938 28.1931 73.4895 28.1888C73.4851 28.1844 73.4827 28.1785 73.4827 28.1724L73.4834 25.1651C73.4834 25.1589 73.4859 25.153 73.4902 25.1487C73.4946 25.1443 73.5005 25.1419 73.5067 25.1419H82.3934C82.3996 25.1419 82.4055 25.1443 82.4099 25.1487C82.4142 25.153 82.4167 25.1589 82.4167 25.1651L82.4174 28.1724C82.4174 28.1785 82.415 28.1844 82.4106 28.1888C82.4063 28.1931 82.4004 28.1955 82.3942 28.1955L79.7161 28.1933C79.71 28.1933 79.7041 28.1957 79.6997 28.2001C79.6953 28.2044 79.6929 28.2103 79.6929 28.2165Z" fill="#929AAB"/>
</g>
<defs>
<clipPath id="clip0_1_1013">
<rect width="63" height="33" fill="white" transform="translate(21 6)"/>
</clipPath>
</defs>
</svg>
