<svg width="105" height="45" viewBox="0 0 105 45" fill="none" xmlns="http://www.w3.org/2000/svg">
<path d="M58.4562 31.8541C60.1718 32.5196 62.088 32.8908 64.1079 32.8908H66.0576L66.1746 28.132H73.8865V40.2515H65.1581C60.4026 40.2515 55.9915 39.0074 52.3764 36.914L52.256 36.9808C48.6877 38.9372 44.3736 40.0843 39.7285 40.0843H31V28.0818H38.7118V33.0112H40.7785C42.7918 33.0112 44.7014 32.6534 46.417 32.0113L46.544 31.9678C44.2398 29.1018 42.9022 25.6907 42.9022 22.0656C42.9022 18.4404 44.193 15.1932 46.4203 12.4041L46.2397 12.3238C44.5743 11.7051 42.7249 11.3607 40.7819 11.3607H38.8323L38.7152 23.8313H31.0033V4H39.7318C44.4071 4 48.7445 5.20058 52.3295 7.23053L52.5101 7.33755C56.1052 5.33769 60.4661 4.16387 65.1648 4.16387H73.8932V14.8755H66.1813V11.2403H64.1146C62.0479 11.2403 60.0882 11.6182 58.3425 12.2937L58.4629 12.4241C60.6968 15.2634 61.9943 18.621 61.9943 22.1893C61.9943 25.7576 60.7369 28.9747 58.5665 31.7371L58.4662 31.8575L58.4562 31.8541ZM52.353 16.8753C51.3296 18.3936 50.7511 20.1326 50.7511 21.9786C50.7511 23.9249 51.3965 25.7676 52.5202 27.3695L52.5904 27.2826C53.5736 25.7877 54.1288 24.0821 54.1288 22.2729C54.1288 20.3734 53.5134 18.5708 52.4399 17.0024L52.353 16.8753Z" fill="#929AAB"/>
<path d="M70.027 16.5175L71.0236 19.5474L74.0168 18.4371L72.2644 21.1058L74.9999 22.7545L71.8229 23.0488L72.241 26.2124L70.027 23.9116L67.8132 26.2124L68.2312 23.0488L65.0542 22.7545L67.7898 21.1058L66.0374 18.4371L69.0305 19.5507L70.027 16.5175Z" fill="#929AAB"/>
</svg>
