<svg width="105" height="45" viewBox="0 0 105 45" fill="none" xmlns="http://www.w3.org/2000/svg">
<path d="M18 5H87.8768V40H18V5Z" fill="#929AAB"/>
<path d="M27.6126 11.698H22.6461V33.801H27.3261C33.5189 34.3771 33.5189 26.5299 33.5189 26.5299V19.6901C33.4481 11.5532 27.6157 11.698 27.6157 11.698H27.6126ZM29.3411 18.4669V26.8903C29.412 31.0651 26.7499 30.4181 26.7499 30.4181V15.1549C29.415 14.7235 29.3411 18.4669 29.3411 18.4669Z" fill="white"/>
<path d="M35.5338 11.6981H39.5638V33.8011H35.5338V11.6981Z" fill="white"/>
<path d="M51.0128 33.7394V30.489H45.7567V24.2962H49.4292V20.7685H45.8276V15.2258H50.868V11.6981H41.6528V33.7826L51.0128 33.7394Z" fill="white"/>
<path d="M58.4996 18.0326H62.0273C62.0273 18.0326 62.4587 11.1928 56.916 11.1928C51.3733 11.1928 51.6598 16.5198 51.6598 16.5198C51.6598 16.5198 50.9389 20.8394 55.5481 24.2963C55.5481 24.2963 60.3728 27.103 58.5735 30.1286C58.5735 30.1286 55.6929 32.7197 55.622 27.5375H51.9494C51.9494 27.5375 51.3024 34.6668 57.3504 34.3772C57.3504 34.3772 62.317 34.3064 62.6774 29.1211C62.6774 29.1211 63.2536 25.3037 59.3654 21.776C59.3654 21.776 53.8227 18.1774 55.8377 15.2967C55.8377 15.2967 58.1422 12.9212 58.5027 18.0326H58.4996Z" fill="white"/>
<path d="M63.9529 11.6981H73.1774V15.2966H68.1461V20.8424H71.8926V24.5119H68.0753V30.489H73.3315V33.9459H64.0422L63.9529 11.6981Z" fill="white"/>
<path d="M75.2571 11.6981H79.3055V30.489H83.5542V33.9459H75.2571V11.6981Z" fill="white"/>
</svg>
