<svg width="105" height="45" viewBox="0 0 105 45" fill="none" xmlns="http://www.w3.org/2000/svg">
<path fill-rule="evenodd" clip-rule="evenodd" d="M15.3265 6.7686L13.7731 6.68726L13.1346 6.5612L13.0085 6.32126C13.0085 6.09759 13.1671 6 13.4884 6H29.5395C37.0628 6 42.3413 8.28952 45.4157 12.8808C47.1765 15.5363 48.0549 18.692 48.0549 22.3398C48.0549 24.243 47.7662 26.0852 47.1765 27.8623C46.5055 29.733 45.5742 31.384 44.3746 32.8562C43.0611 34.4096 41.4629 35.6093 39.6207 36.4877C37.6524 37.3823 35.4443 37.8459 32.9636 37.8459H12.4961C12.1586 37.8459 12 37.7361 12 37.5409C12 37.3335 12.2399 37.2197 12.6872 37.2197L16.6075 36.9798C17.2175 36.8984 17.6486 36.7235 17.856 36.4836L18.2545 35.9224C18.3968 35.5401 18.4782 34.9627 18.4944 34.1778V8.79379C18.4944 7.80152 17.9333 7.19151 16.8475 6.95158L15.3265 6.76046V6.7686ZM23.9682 7.19967L23.8543 7.83813V36.02C23.8543 36.3413 23.9193 36.5649 24.0454 36.6463L24.6839 36.7439H26.7945L31.6907 36.569C33.0043 36.4267 34.1225 36.2152 35.005 35.9305C35.8834 35.6093 36.7171 35.1457 37.4369 34.5845C38.0754 34.0558 38.7342 33.3035 39.454 32.3438C40.6536 30.774 41.5198 28.7732 42.0485 26.3251C42.3697 24.7228 42.5283 23.1735 42.5283 21.6851C42.5283 20.3715 42.3372 18.9645 41.9346 17.4436C41.3734 15.2516 40.5275 13.3322 39.3279 11.6974C37.0058 8.52946 33.1995 6.95972 27.9332 6.95972H24.6839C24.3138 6.92719 24.0739 7.00853 23.9641 7.19967H23.9682ZM51.2066 37.606C51.174 37.4149 51.3367 37.3336 51.6864 37.3336L52.8088 37.301C53.4188 37.2197 53.7848 37.0123 53.9271 36.691L54.1345 35.5401V26.2438C54.1345 25.89 54.0085 25.6216 53.7645 25.4589L52.9308 25.3776L51.8084 25.6826L51.1984 25.6501C51.1171 25.4589 51.357 25.28 51.9182 25.1214C53.248 24.7676 54.4151 24.3202 55.4074 23.7591C56.0174 23.4093 56.4485 23.2141 56.6396 23.1369L57.1195 23.0881C57.278 23.1206 57.3594 23.4419 57.3594 24.0153V35.7313C57.3594 36.2925 57.4855 36.691 57.7295 36.9309C58.0182 37.2196 58.6892 37.362 59.7303 37.362C60.1003 37.362 60.2914 37.4433 60.3199 37.6182C60.3199 37.7605 60.2101 37.8093 60.0149 37.8093H51.4831C51.292 37.8093 51.1944 37.728 51.1944 37.6019L51.2066 37.606ZM88.9776 26.0811C88.1928 26.8985 87.6641 27.8582 87.3794 29.0091V35.8126C87.3794 36.4226 87.5868 36.8537 88.0179 37.1262L88.9939 37.301L90.0187 37.4149C90.2586 37.4474 90.3562 37.4962 90.3562 37.6223L90.3074 37.7362L90.0349 37.8175H81.4746C81.2184 37.8175 81.0761 37.7361 81.0761 37.6101L81.316 37.4189L82.7556 37.3051C83.3168 37.2075 83.6665 37.0163 83.8617 36.7276L84.1017 36.0078V26.4064L83.9431 25.7029L83.6706 25.5443C83.5893 25.463 83.4632 25.4182 83.2721 25.3857C83.0322 25.3694 82.7434 25.4183 82.4384 25.5443L81.621 25.768L81.1574 25.6541C81.0761 25.5403 81.1086 25.463 81.2225 25.4142L81.9098 25.1254C83.4795 24.6618 84.7442 24.182 85.6226 23.6859L86.7125 23.0921L87.1924 23.1247L87.3835 23.5232V27.0449C88.5831 25.0929 89.5429 23.8933 90.2017 23.4907C90.6002 23.2507 90.9865 23.0596 91.2752 22.9783L91.8364 22.9295C92.1902 22.8969 92.5888 23.0108 93.0361 23.2995C93.6461 23.6533 93.9633 24.1779 93.9958 24.853C94.0284 25.4142 93.8698 25.8453 93.516 26.1828C93.1947 26.4552 92.8775 26.5366 92.5888 26.4552C92.3163 26.4064 92.1089 26.2967 91.9666 26.134L91.5193 25.5728C91.1655 25.0604 90.832 24.9018 90.4294 25.0441C89.9658 25.1702 89.4859 25.524 88.9898 26.0852L88.9776 26.0811ZM55.5294 12.9255C54.9357 12.9255 54.4558 13.1329 54.0573 13.5355C53.6262 13.934 53.4188 14.4464 53.4473 15.0402C53.4148 15.6014 53.6222 16.0812 54.0573 16.4798C54.4558 16.8783 54.9357 17.0898 55.5294 17.0898C56.0906 17.0898 56.5867 16.8824 56.9853 16.4798C57.3838 16.0772 57.6075 15.6014 57.6075 15.0402C57.6075 14.4464 57.3838 13.934 56.9853 13.5355C56.5867 13.137 56.0906 12.9255 55.5294 12.9255ZM64.0125 25.6948C64.5899 24.9262 65.3097 24.2877 66.1718 23.7753C66.9404 23.328 67.709 23.0393 68.5101 22.8929L71.4707 22.718C72.5443 22.7668 73.5365 22.9742 74.4312 23.3727C76.5906 24.3324 77.9529 26.0933 78.4653 28.6553C78.9939 31.2498 78.5467 33.4417 77.1355 35.2148C75.9359 36.7195 74.3499 37.6792 72.3491 38.094C70.2548 38.5576 68.2987 38.4152 66.5419 37.6954C64.2524 36.7682 62.8616 34.9261 62.4142 32.238C62.0157 29.6923 62.5444 27.5329 64.0165 25.6907L64.0125 25.6948ZM73.3901 24.975C72.4141 23.8851 71.1819 23.4053 69.6936 23.5354C68.254 23.6777 67.1478 24.4789 66.428 25.9998C65.7733 27.3743 65.5334 29.0579 65.7733 31.0424C65.9482 33.0107 66.5745 34.5804 67.583 35.7801C68.6566 37.0448 69.8725 37.5735 71.2308 37.3336C72.6541 37.0611 73.6951 36.2925 74.3824 35.0115C75.0534 33.6979 75.2933 32.0022 75.1347 29.8428C74.9436 27.6834 74.3824 26.0811 73.3901 24.979V24.975Z" fill="#929AAB"/>
<path fill-rule="evenodd" clip-rule="evenodd" d="M51.0968 25.6868V25.8454L50.743 25.6217V25.7031L50.7755 25.8454H50.7267V25.5404H50.743L51.0642 25.7803V25.5404H51.1293L51.0968 25.6828V25.6868Z" fill="#929AAB"/>
<path fill-rule="evenodd" clip-rule="evenodd" d="M51.6865 25.5729H51.4953V25.6868H51.6539V25.699H51.4953V25.8129H51.6865V25.8454H51.4465V25.5404H51.6865V25.5729Z" fill="#929AAB"/>
<path fill-rule="evenodd" clip-rule="evenodd" d="M52.5687 25.5404H52.585L52.4264 25.8454H52.3776L52.2515 25.6055L52.1092 25.8454H52.0929C52.0116 25.7031 51.9506 25.6055 51.9343 25.5404H52.0157L52.1133 25.7803L52.2556 25.5404H52.3044L52.4183 25.7803L52.5443 25.5404H52.5769H52.5687Z" fill="#929AAB"/>
<path fill-rule="evenodd" clip-rule="evenodd" d="M53.0164 25.699L53.0489 25.8454H52.9676V25.7316L52.809 25.5404H52.8863L53.0164 25.699L53.1425 25.5404H53.2075L53.0164 25.699Z" fill="#929AAB"/>
<path fill-rule="evenodd" clip-rule="evenodd" d="M53.4636 25.6055C53.4962 25.573 53.5775 25.5404 53.6548 25.5404C53.7321 25.5404 53.7849 25.573 53.8459 25.6055C53.8622 25.6218 53.8947 25.6543 53.8947 25.7031L53.8459 25.8169C53.7809 25.8495 53.7321 25.8495 53.6548 25.8495C53.5775 25.8495 53.4962 25.8495 53.4636 25.8169L53.3823 25.7031C53.3823 25.6543 53.4148 25.6218 53.4636 25.6055ZM53.7849 25.6055L53.6548 25.5729L53.5287 25.6055C53.4962 25.6218 53.4636 25.6543 53.4636 25.7031C53.4636 25.7356 53.4962 25.7682 53.5287 25.7844L53.6548 25.8495C53.7036 25.8495 53.7687 25.817 53.7849 25.7844C53.8175 25.7682 53.85 25.7356 53.85 25.7031C53.85 25.6543 53.8175 25.6218 53.7849 25.6055Z" fill="#929AAB"/>
<path fill-rule="evenodd" clip-rule="evenodd" d="M54.2648 25.5729L54.2485 25.6868H54.2973C54.3786 25.6868 54.4274 25.6543 54.4274 25.6217C54.4274 25.6055 54.4111 25.5729 54.3298 25.5729H54.2648ZM54.3461 25.5404C54.4274 25.5404 54.4884 25.5729 54.4884 25.6217L54.4233 25.6868L54.342 25.7031L54.5331 25.8454H54.4518L54.2607 25.7031H54.2444L54.2607 25.8454H54.1793V25.5404H54.3379H54.3461Z" fill="#929AAB"/>
<path fill-rule="evenodd" clip-rule="evenodd" d="M55.143 25.5404L54.9356 25.6868L55.143 25.8454H55.0658L54.8868 25.699V25.6868L54.8543 25.699L54.8868 25.8454H54.8096V25.5404H54.8868L54.8543 25.6868H54.8868L55.0942 25.5404H55.143Z" fill="#929AAB"/>
</svg>
