<svg width="105" height="45" viewBox="0 0 105 45" fill="none" xmlns="http://www.w3.org/2000/svg">
<g clip-path="url(#clip0_1_1025)">
<path fill-rule="evenodd" clip-rule="evenodd" d="M8 18.2466H10.9344C13.0126 18.2642 14.7107 19.9417 14.7107 21.989C14.7107 24.0363 13.0126 25.7226 10.9344 25.7402H8V18.2466ZM9.28441 19.158V24.8597H10.6025C12.4978 24.8112 13.4359 23.464 13.4359 22.0242C13.4359 20.5845 12.4786 19.4309 10.9344 19.1888L9.2796 19.1535L9.28441 19.158ZM19.6511 18.0748C22.1429 18.0748 24.1778 19.8448 24.1778 22.0022C24.1778 24.1596 22.1477 25.9207 19.6511 25.9207C17.1544 25.9207 15.134 24.1596 15.134 22.0022C15.134 19.8448 17.164 18.0748 19.6511 18.0748ZM19.6703 19.0259C21.4743 19.0259 22.9463 20.3555 22.9463 21.9934C22.9463 23.6313 21.4743 24.9521 19.6703 24.9521C17.8664 24.9521 16.3847 23.6225 16.3847 21.9934C16.3847 20.3643 17.8664 19.0259 19.6703 19.0259ZM24.5289 18.2642H25.7412V24.8773H28.0551V25.7358H24.5338V18.2642H24.5289ZM31.9756 18.0352C32.9137 18.0352 33.7892 18.2906 34.5108 18.7221V20.087C33.9046 19.4265 33.0003 18.995 31.9804 18.995C30.1765 18.995 28.7045 20.3423 28.7045 21.9934C28.7045 23.6445 30.1765 24.9873 31.9804 24.9873C33.0003 24.9873 33.9046 24.5559 34.5108 23.8954V25.2735C33.7892 25.7094 32.9137 25.9692 31.9756 25.9692C29.4838 25.9692 27.4489 24.186 27.4489 22.0022C27.4489 19.8184 29.4838 18.0352 31.9756 18.0352ZM36.1656 24.8553H39.0904V25.7402H34.8908V18.2642H39.0904V19.1051H36.1656V21.333H39.0904V22.2444H36.1656V24.8553ZM43.6989 25.2691C43.5738 25.3748 43.4295 25.4761 43.2467 25.5509C43.0735 25.6346 42.9051 25.6918 42.7127 25.7182C42.6694 25.727 42.6213 25.7358 42.578 25.7358C42.5347 25.7446 42.4866 25.7446 42.4433 25.7446C42.3182 25.7446 42.1884 25.727 42.0633 25.705C41.9478 25.6698 41.8276 25.6214 41.7217 25.5465C41.6063 25.4629 41.5149 25.3572 41.4427 25.2251C41.361 25.1018 41.3177 24.9697 41.2984 24.8288V24.7804C41.2888 24.754 41.2888 24.7408 41.2888 24.7232C41.2888 24.7056 41.2888 24.6968 41.2984 24.6835V24.6175C41.2984 24.6175 41.308 24.6087 41.308 24.5999V24.5427C41.361 24.3093 41.4812 24.1288 41.6592 23.9791C41.8324 23.8294 42.02 23.6973 42.2172 23.5916C42.1066 23.4772 42.0104 23.3539 41.919 23.2262C41.8276 23.1117 41.7843 22.9708 41.7843 22.8299V22.7639C41.7843 22.7639 41.7939 22.7331 41.7939 22.7067C41.8035 22.7067 41.8035 22.6979 41.8035 22.689V22.6802C41.8035 22.6802 41.8131 22.6538 41.8131 22.645C41.8131 22.6362 41.8228 22.6274 41.8228 22.6186C41.8661 22.4381 41.9671 22.2972 42.1306 22.1959C42.2846 22.1035 42.4577 22.0462 42.6357 22.0374H42.7512C42.9677 22.055 43.1745 22.1299 43.3573 22.262C43.5401 22.3853 43.6267 22.5658 43.6267 22.8079C43.6267 23.0325 43.5449 23.213 43.4006 23.3451C43.2563 23.486 43.0831 23.6092 42.9051 23.7237L43.771 24.6835C43.8528 24.5911 43.9442 24.503 44.026 24.4106C44.0981 24.3181 44.1799 24.2212 44.2425 24.12L44.5407 24.4018C44.4878 24.4942 44.4253 24.5823 44.3531 24.6571C44.2906 24.732 44.2184 24.8156 44.1462 24.8905C44.127 24.9081 44.1078 24.9213 44.0933 24.9389C44.0741 24.9565 44.0548 24.9741 44.0404 24.9873L44.6706 25.6918H44.1126L43.7085 25.2691H43.6989ZM42.6069 25.3748C42.7608 25.3572 42.9051 25.3176 43.0302 25.2427C43.1553 25.1679 43.2755 25.0842 43.391 24.9961C43.4006 24.9961 43.4102 24.9873 43.4199 24.9785C43.4295 24.9785 43.4391 24.9697 43.4487 24.9609L42.4626 23.8866C42.4626 23.8866 42.4529 23.8954 42.4433 23.9042C42.4337 23.9042 42.4241 23.913 42.4145 23.9218C42.3952 23.9307 42.3856 23.9395 42.3712 23.9483C42.3615 23.9483 42.3519 23.9571 42.3423 23.9659C42.2605 24.0143 42.1884 24.0671 42.1162 24.1156C42.044 24.164 41.9815 24.23 41.9286 24.2961C41.9093 24.3313 41.8853 24.3621 41.8661 24.4018C41.8468 24.437 41.8276 24.4766 41.8228 24.5162C41.8131 24.5515 41.8035 24.5823 41.7939 24.6175C41.7843 24.6527 41.7843 24.6835 41.7843 24.7188C41.7843 24.8905 41.8564 25.049 42.0008 25.1899C42.1354 25.322 42.3182 25.3968 42.5347 25.3968C42.5347 25.3968 42.5443 25.3968 42.5443 25.388H42.5828C42.5828 25.388 42.5924 25.3792 42.6021 25.3792H42.6117L42.6069 25.3748ZM42.2461 22.7551V22.7815C42.2461 22.7815 42.2365 22.7991 42.2365 22.8079V22.8255C42.2365 22.918 42.2653 22.9972 42.3182 23.0721C42.3712 23.1558 42.4337 23.2306 42.5059 23.2966C42.5251 23.3231 42.5491 23.3451 42.5684 23.3715C42.5876 23.3979 42.6117 23.4111 42.6309 23.4375C42.6502 23.4287 42.6598 23.4199 42.6742 23.4111C42.6838 23.4023 42.7031 23.3935 42.7175 23.3935C42.8282 23.3363 42.9147 23.2702 43.0061 23.1954C43.0975 23.1205 43.1505 23.0281 43.1697 22.9136V22.8652C43.1697 22.8652 43.1793 22.8476 43.1793 22.8387V22.8211C43.1793 22.7067 43.136 22.6054 43.0446 22.5394C42.9532 22.4645 42.857 22.4249 42.7464 22.4161H42.6646C42.5732 22.4161 42.4818 22.4513 42.4048 22.4997C42.3134 22.557 42.2605 22.6406 42.2413 22.7551H42.2461ZM51.2562 18C52.8821 18 54.3157 18.7617 55.119 19.8932L54.0607 20.3908C53.4738 19.541 52.4348 18.9774 51.261 18.9774C49.4378 18.9686 47.9562 20.3247 47.9562 21.9934C47.9562 23.6621 49.4378 25.0094 51.261 25.0094C52.7956 25.0094 54.0078 24.3049 54.0944 22.8431H51.4582V21.9582H54.0319C54.0319 21.9582 55.3403 21.9582 55.4221 21.9582C55.4221 21.967 55.4221 19.6599 55.4221 21.9978C55.4221 24.3357 54.0319 26 51.2514 26C48.4709 26 46.691 24.1992 46.691 21.9978C46.691 19.7964 48.7451 18 51.2562 18ZM54.7438 25.7358L58.1208 18.2378H58.9242L62.33 25.7358H61.0023L60.0643 23.6181H56.9663L56.0475 25.7358H54.7486H54.7438ZM57.4329 22.6714L58.5249 20.0121L59.6361 22.6714H57.4329ZM74.1927 25.7358L77.5697 18.2378H78.3731L81.7789 25.7358H80.4512L79.5132 23.6181H76.4152L75.4964 25.7358H74.1976H74.1927ZM76.8914 22.6714L77.9738 20.0121L79.085 22.6714H76.8914ZM90.409 25.7358L93.7908 18.2378H94.5942L98 25.7358H96.6723L95.7343 23.6181H92.6363L91.7175 25.7358H90.4186H90.409ZM93.0981 22.6714L94.1901 20.0121L95.3013 22.6714H93.0981ZM65.2548 19.1139C66.0582 19.1976 66.3564 19.5102 66.3564 20.2455C66.366 20.9807 65.8128 21.3682 65.1105 21.3682H64.0425V19.1095H65.2548V19.1183V19.1139ZM65.3173 22.2796H65.3799C65.9764 22.2796 67.0395 22.4029 67.0395 23.6181C67.0395 24.5955 66.1111 24.8729 65.2259 24.8641L65.4424 24.8729H64.0425V22.2796H65.3173ZM63.7443 25.7358H65.8561C67.2993 25.7358 68.3383 24.8685 68.3383 23.6181C68.3383 22.6582 67.6889 21.923 66.7653 21.6324C67.2896 21.3286 67.5879 20.7826 67.5879 20.087C67.5879 18.9554 66.7557 18.2598 65.529 18.2378C64.8603 18.2289 64.1821 18.2378 63.5086 18.2378H62.7678V25.7358H63.7443ZM71.4556 19.1139C72.2589 19.1976 72.5572 19.5102 72.5668 20.2455C72.5764 20.9807 72.0232 21.3682 71.3209 21.3682H70.2529V19.1095H71.4556V19.1183V19.1139ZM71.5277 22.2796H71.5903C72.1771 22.2796 73.2499 22.4029 73.2499 23.6181C73.2499 24.5955 72.3118 24.8729 71.4363 24.8641L71.6432 24.8729H70.2529V22.2796H71.5277ZM69.9547 25.7358H72.0665C73.5 25.7358 74.5487 24.8685 74.5487 23.6181C74.5487 22.6582 73.8897 21.923 72.9661 21.6324C73.5 21.3286 73.7887 20.7826 73.7887 20.087C73.7887 18.9554 72.9564 18.2598 71.7394 18.2378C71.0611 18.2289 70.3828 18.2378 69.7093 18.2378H68.9781V25.7358H69.9547ZM82.3225 18.2642H83.097L88.8312 23.8118V18.2642H89.9424V25.7358H89.0957L83.477 20.2455V25.7358H82.3225V18.2642Z" fill="#929AAB"/>
</g>
<defs>
<clipPath id="clip0_1_1025">
<rect width="90" height="8" fill="white" transform="translate(8 18)"/>
</clipPath>
</defs>
</svg>
