<svg width="105" height="45" viewBox="0 0 105 45" fill="none" xmlns="http://www.w3.org/2000/svg">
<path d="M37.8613 11.657C39.022 11.2166 40.2051 11.0038 41.5263 11.0038C44.848 11.0038 47.8226 12.5303 49.7633 14.9227C50.0171 15.2362 50.1851 15.6467 50.1851 16.0796C50.1851 16.6843 49.9238 17.1769 49.4722 17.5091L49.4498 17.5464C49.1475 17.7703 48.7668 17.901 48.3563 17.901C47.7815 17.901 47.2664 17.636 46.9305 17.2217C46.5387 16.7328 46.0871 16.3148 45.5757 15.9453C44.4374 15.1317 43.0304 14.6502 41.5225 14.6502C40.6567 14.6502 39.8767 14.7958 39.1153 15.0869C37.6672 15.6318 36.4094 16.6544 35.607 17.9532C34.9538 19.0169 34.5657 20.2672 34.5657 21.5996C34.5657 22.5774 34.7822 23.5105 35.1442 24.354C35.6294 25.4849 36.3945 26.459 37.3686 27.1867C38.5293 28.0526 39.9625 28.5639 41.5225 28.5639C43.6947 28.5639 45.6616 27.5264 46.938 25.9663C47.2739 25.5408 47.7853 25.2721 48.3675 25.2721C49.3752 25.2721 50.1962 26.0895 50.1962 27.1009C50.1962 27.5338 50.0432 27.9332 49.7894 28.2504C47.8449 30.6726 44.8741 32.2178 41.5263 32.2178C35.6704 32.2178 30.9193 27.4667 30.9193 21.6033C30.9193 19.5394 31.5165 17.6061 32.5428 15.9714C33.767 14.0269 35.6816 12.4855 37.8575 11.6607L37.8613 11.657Z" fill="#929AAB"/>
<path d="M59.8106 11.6681C60.975 11.2277 62.1581 11.0112 63.4756 11.0112C66.801 11.0112 69.7719 12.5414 71.7164 14.9338C71.9701 15.2473 72.1344 15.6541 72.1344 16.0908C72.1344 16.6917 71.8731 17.188 71.4252 17.5202L71.4029 17.5575C71.0968 17.7815 70.7161 17.9121 70.3093 17.9121C69.7345 17.9121 69.2232 17.6471 68.8911 17.2291C68.4992 16.7439 68.0401 16.3222 67.5363 15.9601C66.3942 15.139 64.9946 14.6576 63.4794 14.6576C62.6172 14.6576 61.8372 14.8106 61.0758 15.098C59.6277 15.6429 58.3699 16.6655 57.5675 17.9643C56.9143 19.0243 56.5262 20.2746 56.5262 21.6182C56.5262 22.5886 56.7464 23.5179 57.1084 24.3576C57.5936 25.4885 58.3588 26.4626 59.3329 27.1867C60.4899 28.0563 61.9305 28.5676 63.4831 28.5676C65.6627 28.5676 67.6221 27.5338 68.8986 25.9662C69.2345 25.5445 69.7495 25.272 70.328 25.272C71.3431 25.272 72.1568 26.0894 72.1568 27.1008C72.1568 27.5375 72.0037 27.9368 71.7499 28.2466C69.8017 30.6688 66.8309 32.2177 63.4831 32.2177C57.6272 32.2177 52.8761 27.4703 52.8761 21.6145C52.8761 19.5356 53.4732 17.6023 54.5033 15.9676C55.7275 14.0231 57.6384 12.478 59.8143 11.6569L59.8106 11.6681Z" fill="#929AAB"/>
<path d="M77.2101 28.2503C79.1545 30.6725 82.1254 32.2176 85.4769 32.2176C91.3328 32.2176 96.0765 27.4665 96.0765 21.6032C96.0765 19.5393 95.4868 17.606 94.4604 15.9712C94.1357 15.4599 93.561 15.1016 92.9041 15.1016C91.9038 15.1016 91.0828 15.919 91.0828 16.9304C91.0828 17.2887 91.2134 17.6769 91.3888 17.9605C92.0494 19.0242 92.4301 20.2745 92.4301 21.6069C92.4301 22.5847 92.2136 23.5178 91.8479 24.3613C91.359 25.4921 90.5938 26.4663 89.6309 27.194C88.4627 28.0599 87.0296 28.5712 85.4769 28.5712C83.2973 28.5712 81.3304 27.5337 80.0615 25.9736C79.0799 24.7756 78.5163 23.2827 78.5163 21.6106C78.5163 19.2892 79.6584 17.2253 81.42 15.9601C82.5546 15.1464 83.9617 14.665 85.4807 14.665C86.3391 14.665 87.1266 14.8105 87.8879 15.1016C88.082 15.1726 88.2948 15.2099 88.5112 15.2099C89.5189 15.2099 90.3363 14.3925 90.3363 13.3848C90.3363 12.6011 89.8399 11.9255 89.142 11.6717C87.9813 11.2313 86.7944 11.0186 85.4807 11.0186C82.1515 11.0186 79.1807 12.5451 77.2325 14.9374C75.7508 16.7625 74.87 19.0877 74.87 21.6144C74.87 24.1411 75.7545 26.4439 77.2138 28.2615L77.2101 28.2503Z" fill="#929AAB"/>
<path d="M15.9457 11.6606C15.2515 11.9181 14.7513 12.5899 14.7513 13.3812C14.7513 14.3889 15.5687 15.2062 16.5764 15.2062C16.7929 15.2062 17.0056 15.1652 17.196 15.0942C17.9611 14.8069 18.7448 14.6576 19.6107 14.6576C21.1185 14.6576 22.5368 15.1689 23.6788 15.9863L13.2249 24.3576C12.8629 23.5141 12.6538 22.5886 12.6538 21.6182C12.6538 20.2708 13.0308 19.0168 13.6877 17.9569C13.8668 17.6732 14.0012 17.2851 14.0012 16.923C14.0012 15.9153 13.1876 15.1017 12.1761 15.1017C11.5267 15.1017 10.9519 15.4563 10.6272 15.9639C9.60088 17.5986 9 19.5319 9 21.6144C9 27.4628 13.7511 32.214 19.6107 32.214C22.9548 32.214 25.9331 30.6688 27.8776 28.2429C28.1351 27.9294 28.2807 27.53 28.2807 27.0971C28.2807 26.0856 27.4633 25.272 26.4519 25.272C25.8771 25.272 25.3546 25.537 25.0262 25.9662C23.7497 27.53 21.7829 28.5638 19.6107 28.5638C18.0544 28.5638 16.6175 28.0413 15.4605 27.1792L27.5454 17.5127C27.997 17.1731 28.2732 16.6804 28.2732 16.0796C28.2732 15.6466 28.1015 15.2361 27.8477 14.9263C25.907 12.5302 22.9324 11 19.6107 11C18.2895 11 17.1064 11.2165 15.9419 11.6531L15.9457 11.6606Z" fill="#929AAB"/>
</svg>
