<svg width="105" height="45" viewBox="0 0 105 45" fill="none" xmlns="http://www.w3.org/2000/svg">
<g clip-path="url(#clip0_1_1021)">
<path d="M97.09 16H97.8001C98.4348 16.0697 98.8348 16.4417 98.9999 17.116V17.7891C98.8438 18.4375 98.4494 18.8272 97.8167 18.9583C97.1831 19.0897 96.4682 18.8577 96.1291 18.3103C95.6039 17.4634 95.9483 16.1297 97.09 16ZM98.7095 17.2992C98.709 17.1543 98.6789 17.0109 98.6209 16.8772C98.5629 16.7436 98.4781 16.6222 98.3714 16.5201C98.2648 16.418 98.1383 16.3371 97.9992 16.2822C97.8601 16.2272 97.7112 16.1991 97.5609 16.1996L97.3392 16.2004C97.0356 16.2014 96.7449 16.3186 96.531 16.5263C96.317 16.7339 96.1975 17.015 96.1985 17.3077L96.1996 17.6002C96.2001 17.7451 96.2302 17.8885 96.2882 18.0222C96.3462 18.1559 96.431 18.2772 96.5377 18.3793C96.6443 18.4814 96.7708 18.5623 96.9099 18.6173C97.049 18.6723 97.1979 18.7003 97.3482 18.6998L97.5699 18.699C97.8735 18.698 98.1642 18.5808 98.3782 18.3731C98.5921 18.1655 98.7117 17.8844 98.7106 17.5918L98.7095 17.2992Z" fill="#929AAB"/>
<path d="M90.4627 28H89.5089C88.9831 27.9611 88.503 27.9571 87.9914 27.812C84.676 26.8697 83.6309 23.6794 84.2112 20.6714C84.2342 20.5514 84.2847 20.3707 84.363 20.1291C84.9576 18.2886 86.3417 17.0566 88.2599 16.576C89.3289 16.3086 90.4143 16.2939 91.5161 16.532C93.3454 16.9274 94.8238 18.0691 95.4741 19.7863C96.2673 21.8811 96.0307 24.6977 94.3887 26.3886C93.6889 27.1093 92.8345 27.5962 91.8255 27.8491C91.3976 27.9566 90.921 27.976 90.4627 28ZM92.0229 17.8686C90.8 17.2994 89.2463 17.3046 88.011 17.8343C85.7821 18.7897 85.0222 21.4354 85.5183 23.5503C85.9416 25.3566 87.2878 26.6834 89.2203 26.952C91.6619 27.2914 93.822 25.996 94.4231 23.6571C94.972 21.5194 94.2245 18.8931 92.0229 17.8686Z" fill="#929AAB"/>
<path d="M70.5459 28H69.5061C68.7823 27.9617 68.3383 27.9337 67.7195 27.7491C67.3132 27.628 66.9208 27.5042 66.5422 27.3777C66.503 27.3645 66.469 27.34 66.4448 27.3075C66.4206 27.2749 66.4074 27.236 66.407 27.196L66.3999 26.1971C66.3998 26.1862 66.4026 26.1753 66.408 26.1657C66.4135 26.156 66.4214 26.1479 66.431 26.142C66.4406 26.1361 66.4516 26.1327 66.463 26.132C66.4743 26.1314 66.4857 26.1335 66.496 26.1383C67.4563 26.5825 68.4608 26.8495 69.5097 26.9394C69.9242 26.9752 70.4062 26.9545 70.9555 26.8771C71.5732 26.7903 72.144 26.5874 72.521 26.1069C72.9769 25.5263 73.1049 24.5726 72.5358 23.996C72.2924 23.7499 71.9733 23.5429 71.5785 23.3749C70.6496 22.9794 69.6697 22.6983 68.7047 22.396C68.1605 22.2253 67.6718 21.9608 67.2387 21.6023C65.6815 20.3143 65.9589 18.0206 67.6614 17.0349C68.4498 16.5789 69.4788 16.4149 70.3983 16.384C71.4801 16.348 72.6413 16.6051 73.6574 16.952C73.6794 16.9595 73.6985 16.9735 73.712 16.9919C73.7254 17.0103 73.7327 17.0323 73.7327 17.0549L73.7362 18.0863C73.7362 18.0935 73.7344 18.1007 73.7309 18.1071C73.7274 18.1135 73.7224 18.119 73.7162 18.1232C73.71 18.1273 73.7029 18.13 73.6955 18.1309C73.688 18.1318 73.6804 18.131 73.6734 18.1286C72.8666 17.8434 72.1043 17.6217 71.2424 17.5463C69.8689 17.4257 67.7758 17.7171 67.5855 19.4006C67.5456 19.7526 67.6371 20.0775 67.86 20.3754C68.1712 20.7909 68.6418 20.9943 69.2032 21.1846C70.1849 21.516 71.1872 21.7931 72.1511 22.2051C73.2359 22.668 74.1767 23.3914 74.2674 24.6429C74.3183 25.3415 74.1881 25.9636 73.8767 26.5091C73.6056 26.9838 73.1822 27.3571 72.6064 27.6291C71.9348 27.9469 71.3598 27.9577 70.5459 28Z" fill="#929AAB"/>
<path d="M15.0103 28H14.8828L14.7791 27.9617C14.7601 27.9549 14.7506 27.9417 14.7506 27.9223L14.7542 26.8697C14.7542 26.857 14.757 26.8445 14.7624 26.8329C14.7678 26.8214 14.7758 26.811 14.7857 26.8027C14.7956 26.7943 14.8073 26.788 14.82 26.7843C14.8326 26.7806 14.846 26.7795 14.8591 26.7811C15.4057 26.852 15.8935 26.7657 16.4389 26.5691C17.644 26.1349 18.1846 25.0377 18.1864 23.8571C18.1904 21.8145 18.1908 19.7735 18.1876 17.7343C18.1876 17.6619 18.1501 17.6278 18.075 17.632C17.9687 17.6381 17.8584 17.6411 17.7442 17.6411C15.0273 17.6438 12.3104 17.644 9.59343 17.6417C9.53968 17.6417 9.49404 17.6385 9.45649 17.632C9.444 17.6298 9.43116 17.6303 9.41889 17.6334C9.40662 17.6365 9.39521 17.6422 9.38548 17.65C9.37575 17.6578 9.36794 17.6675 9.36259 17.6785C9.35724 17.6895 9.35449 17.7016 9.35454 17.7137L9.35869 19.4274C9.35868 19.4378 9.36084 19.448 9.36503 19.4576C9.36922 19.4671 9.37536 19.4758 9.38309 19.483C9.39082 19.4902 9.39999 19.4959 9.41005 19.4997C9.42011 19.5035 9.43086 19.5054 9.44168 19.5051L9.78312 19.4994C9.88271 19.5189 9.97261 19.529 10.0528 19.5297C11.4419 19.5408 12.8312 19.5438 14.2207 19.5389C14.3428 19.5389 14.4655 19.5143 14.5876 19.5011L14.839 19.5C14.8745 19.5 14.8921 19.5171 14.8917 19.5514L14.8757 20.7514C14.473 20.7065 14.1498 20.6844 13.9059 20.6851C12.9464 20.6874 11.9869 20.688 11.0274 20.6869C10.5816 20.6863 10.1299 20.7269 9.67938 20.752L9.43278 20.7303C9.42304 20.7294 9.41321 20.7305 9.40392 20.7335C9.39464 20.7365 9.3861 20.7413 9.37885 20.7476C9.3716 20.754 9.3658 20.7617 9.36182 20.7703C9.35784 20.779 9.35576 20.7883 9.35572 20.7977C9.35533 21.7851 9.35711 22.7716 9.36106 23.7571C9.36817 25.4989 10.3065 26.6337 12.1448 26.804C12.3256 26.8206 12.5354 26.7926 12.7269 26.7983C12.7707 26.7994 12.7929 26.8211 12.7933 26.8634L12.7962 27.9417C12.7962 27.9517 12.7923 27.9612 12.7852 27.9684C12.7781 27.9755 12.7685 27.9797 12.7583 27.98C12.0985 28.0063 11.3564 28.0109 10.7428 27.7903C9.90582 27.4897 9.14706 26.9474 8.67165 26.2166C8.24603 25.5611 8.06582 24.7394 8.06582 23.9571C8.06543 22.9191 8.06523 21.8724 8.06523 20.8171C8.06523 20.7592 8.0354 20.732 7.97572 20.7354L7.68941 20.7531L7 20.6829V19.5337L7.99706 19.5074C8.01562 19.507 8.03326 19.4996 8.04622 19.4868C8.05917 19.4739 8.06642 19.4568 8.06642 19.4389L8.06464 16.4571C8.06464 16.4412 8.07113 16.426 8.0827 16.4147C8.09426 16.4035 8.10994 16.3971 8.12629 16.3971L19.4538 16.3966C19.4639 16.3966 19.4736 16.4005 19.4808 16.4074C19.488 16.4144 19.4922 16.4238 19.4923 16.4337L19.4929 19.4234C19.4929 19.4867 19.5257 19.5177 19.5913 19.5166L21.2932 19.4897C21.3006 19.4896 21.308 19.4908 21.3149 19.4935C21.3218 19.4961 21.3281 19.5 21.3334 19.505C21.3387 19.51 21.3429 19.516 21.3458 19.5226C21.3486 19.5292 21.3501 19.5363 21.3501 19.5434L21.346 20.6891C21.3459 20.6972 21.3442 20.7051 21.3409 20.7125C21.3376 20.7199 21.3329 20.7266 21.327 20.7322C21.321 20.7378 21.314 20.7423 21.3063 20.7453C21.2985 20.7483 21.2903 20.7498 21.2819 20.7497L19.5486 20.7297C19.5087 20.729 19.4888 20.748 19.4888 20.7869C19.4947 21.8611 19.4951 22.9465 19.4899 24.0429C19.488 24.4501 19.4131 24.892 19.2653 25.3686C18.9037 26.536 17.9932 27.3543 16.8295 27.7869C16.2326 28.0086 15.6066 27.9674 15.0103 28Z" fill="#636A79"/>
<path d="M25.7569 16.5549L29.3805 16.5611L31.3444 16.5417C31.3545 16.5416 31.3645 16.5435 31.3739 16.5471C31.3832 16.5508 31.3917 16.5561 31.3989 16.5629C31.406 16.5697 31.4117 16.5778 31.4156 16.5867C31.4195 16.5956 31.4215 16.6052 31.4215 16.6149L31.4185 17.5983C31.4181 17.6425 31.395 17.6646 31.3492 17.6646C29.6159 17.6623 27.8719 17.6615 26.1173 17.6623C25.9928 17.6623 25.8693 17.6558 25.7468 17.6429C25.6685 17.6349 25.6294 17.6688 25.6294 17.7446L25.6359 21.4417C25.6359 21.4642 25.6476 21.4754 25.6709 21.4754L30.9763 21.4703C30.9881 21.4703 30.9994 21.4747 31.0077 21.4827C31.0161 21.4906 31.0208 21.5014 31.0208 21.5126L31.0231 22.516C31.0232 22.5254 31.0214 22.5346 31.0177 22.5433C31.0141 22.552 31.0087 22.5598 31.0018 22.5665C30.995 22.5731 30.9869 22.5784 30.9779 22.582C30.9689 22.5856 30.9593 22.5874 30.9496 22.5874C29.3049 22.5863 27.653 22.5859 25.994 22.5863C25.9074 22.5863 25.8019 22.5611 25.7171 22.5686C25.6598 22.5739 25.6312 22.6042 25.6312 22.6594C25.6312 23.5962 25.6316 24.5288 25.6324 25.4571C25.633 26.4314 26.1558 26.7971 27.1457 26.7977C28.4281 26.7985 29.7105 26.7962 30.9929 26.7909C31.1008 26.7905 31.2176 26.7853 31.3432 26.7754C31.3531 26.7747 31.3629 26.776 31.3722 26.779C31.3815 26.7821 31.39 26.787 31.3972 26.7934C31.4045 26.7998 31.4103 26.8075 31.4142 26.8161C31.4182 26.8247 31.4203 26.834 31.4203 26.8434L31.4215 27.8417C31.4215 27.8496 31.4199 27.8574 31.4167 27.8647C31.4136 27.872 31.409 27.8786 31.4032 27.8841C31.3974 27.8897 31.3905 27.894 31.383 27.897C31.3754 27.8999 31.3674 27.9013 31.3592 27.9011C29.77 27.8771 28.1807 27.888 26.5915 27.8731C25.8529 27.8669 24.8831 27.6669 24.56 26.9703C24.3948 26.6145 24.3122 26.2623 24.3122 25.9137C24.3099 22.8143 24.3091 19.7223 24.3099 16.6377C24.3099 16.6248 24.3125 16.612 24.3177 16.6001C24.3229 16.5881 24.3306 16.5773 24.3401 16.5682C24.3497 16.5591 24.3611 16.552 24.3736 16.5471C24.3861 16.5423 24.3995 16.5398 24.413 16.54L25.7569 16.5549Z" fill="#929AAB"/>
<path d="M35.5277 23.5629C35.5009 23.8169 35.4928 24.1817 35.5034 24.6571C35.5157 25.2015 35.5127 26.1825 35.4946 27.6C35.4934 27.696 35.4845 27.792 35.4679 27.888C35.4663 27.904 35.4566 27.912 35.4388 27.912C35.046 27.907 34.655 27.907 34.2657 27.912L34.2645 16.6046C34.2645 16.587 34.2734 16.5783 34.2912 16.5783L37.9036 16.5503C38.4877 16.5442 38.8863 16.5453 39.0993 16.5537C40.7312 16.6177 41.9304 17.6251 42.1325 19.1857C42.3762 21.0663 41.6482 22.6623 39.5782 23.0589C39.4739 23.0789 39.3666 23.0663 39.2617 23.0566C39.1562 23.047 39.1129 23.0806 39.1319 23.1571C39.1346 23.169 39.1412 23.1796 39.1508 23.1874C39.2477 23.2663 39.333 23.3429 39.4069 23.4171C39.9626 23.976 40.4716 24.572 40.9339 25.2051C41.5575 26.0589 42.1404 26.9484 42.6826 27.8737C42.684 27.8761 42.6846 27.8788 42.6845 27.8815C42.6845 27.8842 42.6837 27.8869 42.6823 27.8892C42.6808 27.8916 42.6788 27.8935 42.6764 27.8949C42.674 27.8963 42.6712 27.8971 42.6684 27.8971L41.2866 27.8977C41.2544 27.8977 41.2227 27.8896 41.1947 27.8741C41.1667 27.8587 41.1434 27.8365 41.1272 27.8097C40.3293 26.4891 39.4188 25.2206 38.484 23.9794C38.133 23.5143 37.7732 23.1326 37.1579 23.1291C36.6608 23.1261 36.1417 23.1278 35.6007 23.1343C35.5892 23.1344 35.5779 23.1368 35.5674 23.1411C35.5569 23.1455 35.5475 23.1519 35.5396 23.1598C35.5317 23.1677 35.5255 23.1771 35.5215 23.1873C35.5174 23.1976 35.5155 23.2085 35.5159 23.2194L35.5277 23.5629ZM35.5337 19.1754C35.5048 19.9225 35.4969 20.8354 35.51 21.9143C35.5135 22.1994 35.7732 22.1166 35.9765 22.0634C36.8704 22.0737 37.7651 22.0764 38.6606 22.0714C39.1246 22.0688 39.4528 22.0364 39.6452 21.9743C40.1345 21.8166 40.4749 21.4769 40.6666 20.9554C41.1011 19.7714 40.9345 18.276 39.5219 17.7977C39.2706 17.7128 39.0309 17.6709 38.8029 17.672C37.7473 17.6766 36.6866 17.6754 35.6208 17.6686C35.6086 17.6685 35.5965 17.6708 35.5852 17.6752C35.574 17.6797 35.5637 17.6863 35.555 17.6946C35.5464 17.703 35.5395 17.7129 35.5348 17.7238C35.5302 17.7347 35.5277 17.7465 35.5277 17.7583L35.5337 19.1754Z" fill="#929AAB"/>
<path d="M46.5096 18.0423C46.4804 18.0103 46.4489 18.008 46.4153 18.0354C46.4094 18.0404 46.4076 18.0619 46.41 18.1C46.4183 18.233 46.4227 18.3663 46.4231 18.5C46.4294 21.6227 46.4335 24.7284 46.4355 27.8171C46.4355 27.8705 46.4078 27.8973 46.3525 27.8977L45.1924 27.9006C45.1363 27.901 45.1083 27.8739 45.1083 27.8194L45.1077 16.6286C45.1077 16.6167 45.1101 16.605 45.1149 16.5941C45.1197 16.5832 45.1268 16.5733 45.1356 16.5651C45.1445 16.5569 45.155 16.5505 45.1665 16.5463C45.178 16.542 45.1902 16.5401 45.2025 16.5406C45.6933 16.56 46.1881 16.5592 46.6868 16.5383C46.9228 16.528 47.0028 16.5954 47.1308 16.7714C49.151 19.5583 50.8879 22.4749 52.4689 25.532C52.4922 25.5762 52.5283 25.5907 52.5773 25.5754C52.6315 25.5579 52.6591 25.504 52.6603 25.4137C52.6627 25.2554 52.6354 25.0823 52.6354 24.9377C52.6366 22.161 52.637 19.3792 52.6366 16.5926C52.6366 16.5861 52.6379 16.5796 52.6405 16.5736C52.6431 16.5676 52.647 16.5622 52.6518 16.5576C52.6565 16.5531 52.6622 16.5494 52.6685 16.547C52.6747 16.5446 52.6814 16.5434 52.6882 16.5434L53.9384 16.5491C53.9472 16.5491 53.9556 16.5525 53.9618 16.5585C53.9681 16.5645 53.9716 16.5727 53.9716 16.5811L53.9698 27.8423C53.9698 27.8505 53.9681 27.8587 53.9648 27.8663C53.9615 27.8739 53.9567 27.8808 53.9506 27.8865C53.9445 27.8923 53.9373 27.8968 53.9294 27.8998C53.9215 27.9028 53.9131 27.9042 53.9046 27.904C53.4469 27.8903 52.9984 27.892 52.559 27.9091C52.4689 27.9131 52.4007 27.8749 52.358 27.7926C50.6864 24.5691 48.988 21.5737 46.8789 18.5811C46.7805 18.4411 46.6608 18.2097 46.5096 18.0423Z" fill="#929AAB"/>
<path d="M58.6794 17.6629L58.5312 17.628C58.513 17.6238 58.5 17.6299 58.4921 17.6463C58.4494 17.7362 58.4411 17.8311 58.4672 17.9309C58.4546 18.9869 58.4516 20.0432 58.4583 21.1C58.4583 21.1537 58.4704 21.2701 58.4945 21.4491C58.4964 21.4659 58.5061 21.4743 58.5235 21.4743L63.8046 21.4709C63.8169 21.4709 63.8286 21.4756 63.8373 21.4839C63.846 21.4923 63.8509 21.5036 63.8509 21.5154L63.8491 22.54C63.8489 22.5526 63.8436 22.5647 63.8343 22.5736C63.825 22.5825 63.8124 22.5874 63.7993 22.5874C62.0605 22.5863 60.3337 22.5857 58.619 22.5857C58.6075 22.5857 58.5966 22.5836 58.5863 22.5794C58.5666 22.5714 58.5559 22.5676 58.5543 22.568C58.533 22.5692 58.5129 22.578 58.498 22.5929C58.4832 22.6077 58.4747 22.6274 58.4743 22.648C58.451 23.6446 58.4502 24.6238 58.4719 25.5857C58.4921 26.484 59.1003 26.7949 59.9444 26.7971C61.3628 26.801 62.7809 26.7994 64.1988 26.7926C64.2123 26.7926 64.2253 26.7977 64.2349 26.8068C64.2444 26.8159 64.2498 26.8283 64.2498 26.8411L64.254 27.8023C64.254 27.8142 64.2515 27.826 64.2468 27.8371C64.242 27.8481 64.2351 27.8581 64.2263 27.8665C64.2176 27.875 64.2072 27.8817 64.1958 27.8862C64.1843 27.8908 64.1721 27.8931 64.1597 27.8931C62.6355 27.8897 61.1039 27.8838 59.565 27.8754C58.7452 27.8709 57.712 27.7171 57.3457 26.8846C57.1471 26.4331 57.1364 25.8246 57.1216 25.3263C57.1911 25.217 57.2279 25.0891 57.2318 24.9429C57.2591 23.8217 57.1779 22.7326 57.2182 21.5857C57.2411 20.9377 57.2451 19.8853 57.2301 18.4286C57.2301 18.4191 57.2281 18.4099 57.2241 18.4011C57.2178 18.3874 57.2146 18.3733 57.2146 18.3589C57.2139 17.8438 57.2154 17.329 57.2194 16.8143C57.2206 16.6798 57.2611 16.5947 57.3409 16.5589L64.1769 16.5417C64.2255 16.5417 64.25 16.5651 64.2504 16.612L64.2528 17.6011C64.2528 17.6171 64.2462 17.6324 64.2346 17.6438C64.2229 17.6551 64.2071 17.6616 64.1905 17.6617L58.6794 17.6629Z" fill="#929AAB"/>
<path d="M80.3653 17.6589C80.3478 17.6589 80.3311 17.6656 80.3188 17.6776C80.3064 17.6896 80.2995 17.7059 80.2995 17.7229L80.3001 27.8617C80.3001 27.8823 80.2894 27.8941 80.2681 27.8971C80.2554 27.8987 80.2408 27.899 80.2242 27.8983C79.8792 27.8819 79.5346 27.8853 79.1904 27.9086C79.1157 27.9137 79.057 27.9 78.9859 27.8846C78.9598 27.8792 78.9501 27.8642 78.9568 27.8394L78.9758 27.7691C78.977 27.7638 78.9776 27.7585 78.9776 27.7531L78.9782 17.7291C78.9782 17.7105 78.9705 17.6926 78.9568 17.6794C78.9431 17.6663 78.9246 17.6589 78.9053 17.6589L75.2733 17.6651C75.2282 17.6651 75.2055 17.6432 75.2051 17.5994L75.1974 16.6154C75.1973 16.6062 75.1991 16.597 75.2027 16.5884C75.2063 16.5799 75.2117 16.5721 75.2184 16.5656C75.2251 16.559 75.2331 16.5538 75.2419 16.5503C75.2508 16.5468 75.2602 16.5451 75.2697 16.5451C78.1761 16.5629 81.0855 16.5823 83.9943 16.5451C84.033 16.5448 84.0526 16.5632 84.053 16.6006L84.0536 17.6046C84.0536 17.6208 84.0469 17.6363 84.035 17.6478C84.0231 17.6593 84.007 17.6657 83.9902 17.6657L80.3653 17.6589Z" fill="#929AAB"/>
<path d="M97.7634 17.5869C97.7354 17.6116 97.7324 17.639 97.7545 17.6691L98.0758 18.1109C98.1304 18.1859 98.1102 18.228 98.0154 18.2371L97.9733 18.2411C97.8883 18.2495 97.8241 18.2183 97.7806 18.1474C97.6852 17.9926 97.4724 17.5783 97.2495 17.6389C97.2143 17.6484 97.1973 17.6707 97.1985 17.7057L97.2104 18.14C97.2107 18.1517 97.2086 18.1633 97.2043 18.1742C97.1999 18.1851 97.1934 18.1951 97.1851 18.2035C97.1768 18.212 97.1668 18.2187 97.1558 18.2234C97.1448 18.2281 97.1329 18.2306 97.1208 18.2309L97.0616 18.232C96.9604 18.2335 96.91 18.1857 96.9104 18.0886L96.9145 16.8377C96.9147 16.8041 96.9282 16.7717 96.9523 16.7473C96.9764 16.7228 97.0094 16.7082 97.0444 16.7063C97.2738 16.6943 97.5826 16.6686 97.7693 16.7491C98.0675 16.8777 98.1238 17.2943 97.8838 17.5131C97.85 17.544 97.7942 17.5594 97.7634 17.5869ZM97.7443 17.1449C97.7465 17.1198 97.7435 17.0945 97.7356 17.0705C97.7276 17.0465 97.7148 17.0242 97.6979 17.0049C97.681 16.9857 97.6604 16.9698 97.6372 16.9583C97.6139 16.9467 97.5885 16.9397 97.5625 16.9375L97.4042 16.9247C97.3781 16.9226 97.3519 16.9255 97.3269 16.9331C97.302 16.9408 97.2789 16.9531 97.2589 16.9694C97.239 16.9857 97.2225 17.0056 97.2105 17.028C97.1985 17.0504 97.1912 17.0749 97.189 17.1L97.1803 17.2002C97.1781 17.2253 97.1811 17.2506 97.189 17.2746C97.197 17.2987 97.2098 17.3209 97.2266 17.3402C97.2435 17.3595 97.2642 17.3753 97.2874 17.3869C97.3107 17.3985 97.336 17.4055 97.3621 17.4076L97.5204 17.4204C97.5465 17.4225 97.5727 17.4197 97.5976 17.412C97.6226 17.4043 97.6457 17.392 97.6656 17.3757C97.6856 17.3595 97.7021 17.3396 97.7141 17.3171C97.7261 17.2947 97.7334 17.2703 97.7356 17.2452L97.7443 17.1449Z" fill="#929AAB"/>
</g>
<defs>
<clipPath id="clip0_1_1021">
<rect width="92" height="12" fill="white" transform="translate(7 16)"/>
</clipPath>
</defs>
</svg>
