<svg width="105" height="45" viewBox="0 0 105 45" fill="none" xmlns="http://www.w3.org/2000/svg">
<path d="M76.6686 14.3933L76.6694 29.5599C76.6694 29.5686 76.6661 29.577 76.66 29.5832C76.654 29.5894 76.6458 29.5928 76.6373 29.5928L75.3814 29.5883C75.3728 29.5883 75.3647 29.5848 75.3587 29.5786C75.3526 29.5724 75.3492 29.564 75.3492 29.5553L75.3635 13.1044C75.3635 13.0956 75.3669 13.0872 75.3729 13.0811C75.3789 13.0749 75.3871 13.0714 75.3956 13.0714L82.0484 13.0156C82.0569 13.0156 82.0651 13.019 82.0711 13.0252C82.0771 13.0314 82.0805 13.0398 82.0805 13.0485L82.0751 14.3274C82.0751 14.3361 82.0718 14.3445 82.0657 14.3507C82.0597 14.3568 82.0515 14.3603 82.043 14.3603H76.7007C76.6922 14.3603 76.684 14.3638 76.678 14.37C76.6719 14.3761 76.6686 14.3845 76.6686 14.3933Z" fill="#929AAB"/>
<path d="M5.37308 21.902C5.38675 22.5764 5.47596 23.1775 5.64068 23.7054C7.52554 29.7426 16.0623 30.5225 18.6447 24.5631C18.65 24.5509 18.6588 24.5405 18.6698 24.5331C18.6809 24.5258 18.6939 24.5219 18.7071 24.5219L20.1076 24.5229C20.1409 24.5229 20.1513 24.5387 20.1388 24.5705C18.8388 27.7939 16.5178 29.5872 13.1756 29.9504C8.83593 30.4227 4.80129 27.4925 4.11264 23.0014C3.43113 18.5516 5.88867 14.3489 10.223 13.2761C12.3015 12.7616 14.5672 13.0097 16.4431 14.099C19.0068 15.5875 20.3948 17.9288 20.6071 21.123C20.6161 21.256 20.5932 21.4867 20.5384 21.8151C20.5337 21.8431 20.5173 21.8572 20.4894 21.8572H5.41589C5.38675 21.8572 5.37248 21.8721 5.37308 21.902ZM14.8964 14.8451C12.5976 13.8738 9.79308 14.3489 7.8663 15.9436C6.48722 17.0854 5.66328 18.6029 5.39448 20.4959C5.39346 20.5026 5.39384 20.5094 5.3956 20.5158C5.39737 20.5223 5.40047 20.5283 5.40471 20.5334C5.40894 20.5386 5.41421 20.5427 5.42014 20.5456C5.42607 20.5484 5.43254 20.5499 5.43909 20.5499H19.1763C19.2132 20.5499 19.2298 20.531 19.2263 20.4932C19.0184 17.9529 17.1148 15.7825 14.8964 14.8451Z" fill="#929AAB"/>
<path d="M27.6871 14.6542C27.101 14.343 26.4864 14.3091 25.8165 14.3723C24.8918 14.4589 24.2028 14.8876 23.7497 15.6584C23.0905 16.7807 23.0949 18.5411 24.2804 19.3274C24.8531 19.7082 25.471 19.9938 26.1341 20.1842C27.9413 20.7033 29.6701 21.0667 30.621 22.9149C31.2855 24.2057 31.2927 26.0283 30.662 27.3327C29.3008 30.1485 25.7077 30.75 23.2974 29.0079C21.9511 28.0351 21.3222 26.6166 21.4108 24.7522C21.4113 24.7418 21.4156 24.732 21.4229 24.7249C21.4302 24.7177 21.4399 24.7137 21.45 24.7137L22.7221 24.7091C22.7295 24.7091 22.7369 24.7107 22.7438 24.7137C22.7506 24.7166 22.7568 24.721 22.7619 24.7265C22.767 24.732 22.7709 24.7385 22.7734 24.7456C22.7759 24.7527 22.777 24.7602 22.7765 24.7677C22.6926 26.3959 23.2722 27.5439 24.5151 28.2115C25.7657 28.8834 27.5158 28.8377 28.6157 27.8646C29.6112 26.9839 29.9769 25.598 29.6656 24.299C29.4551 23.4202 29.0144 22.8508 28.2482 22.4352C27.1448 21.8366 26.0725 21.626 24.929 21.258C22.6543 20.5257 21.5285 18.7177 22.095 16.2553C22.6962 13.6363 25.077 12.6211 27.4882 13.1575C29.869 13.6884 30.8226 15.879 30.6683 18.1886C30.6659 18.224 30.6475 18.2417 30.613 18.2417L29.3677 18.2399C29.3302 18.2399 29.313 18.2207 29.316 18.1822C29.4248 16.8237 28.9235 15.3115 27.6871 14.6542Z" fill="#929AAB"/>
<path d="M44.2154 16.2823C46.119 12.3232 52.3195 11.8032 54.7458 15.5033C55.7547 17.0421 55.9215 19.1677 55.9224 20.9638C55.9235 23.8187 55.9241 26.6784 55.9241 29.5431C55.9241 29.5554 55.9194 29.5673 55.9108 29.5761C55.9023 29.5848 55.8907 29.5897 55.8787 29.5897L54.6111 29.5907C54.5978 29.5907 54.5851 29.5853 54.5758 29.5756C54.5664 29.566 54.5611 29.553 54.5611 29.5394C54.5629 26.6168 54.5626 23.6893 54.5602 20.7569C54.5585 17.7186 53.8752 14.7637 50.3954 14.3847C48.8959 14.2217 47.1742 14.6392 46.135 15.8365C45.0066 17.1373 44.846 18.4326 44.8443 20.1134C44.8413 23.2575 44.841 26.4004 44.8434 29.5421C44.8434 29.555 44.8385 29.5673 44.8298 29.5764C44.8211 29.5855 44.8093 29.5907 44.797 29.5907H43.5687C43.5252 29.5907 43.5035 29.5681 43.5035 29.5229C43.5047 26.3855 43.5041 23.2575 43.5018 20.139C43.5018 19.9498 43.4693 19.4848 43.4045 18.7439C43.1592 15.9354 41.1459 14.3096 38.4627 14.3261C36.9058 14.3359 35.354 14.3432 33.8072 14.3481C33.7905 14.3481 33.7822 14.3566 33.7822 14.3737L33.7831 29.5321C33.7831 29.5476 33.7771 29.5625 33.7664 29.5735C33.7557 29.5845 33.7412 29.5907 33.726 29.5907H32.4879C32.4439 29.5907 32.4219 29.5681 32.4219 29.5229L32.4228 13.0875C32.4228 13.0485 32.4418 13.0289 32.4799 13.0289C34.4257 13.0149 36.3673 13.0152 38.3048 13.0299C39.0957 13.0354 39.688 13.0778 40.0817 13.1571C41.8729 13.5172 43.2374 14.5592 44.1752 16.2833C44.1895 16.3089 44.2029 16.3086 44.2154 16.2823Z" fill="#929AAB"/>
<path d="M72.3424 26.456C72.3426 26.4505 72.341 26.4451 72.3378 26.4407C72.3347 26.4362 72.3302 26.433 72.3251 26.4313C72.3199 26.4297 72.3143 26.4298 72.309 26.4316C72.3038 26.4334 72.2993 26.4368 72.296 26.4413C70.6208 28.9258 68.0027 30.1112 65.0884 29.9812C62.3981 29.8613 59.9361 28.5559 58.4714 26.2042C56.3769 22.8428 56.8024 18.2264 59.5605 15.4225C60.7951 14.1677 62.2836 13.4012 64.026 13.1229C64.4346 13.0583 65.0278 13.0253 65.8056 13.0241C68.4086 13.021 71.0186 13.021 73.6358 13.0241C73.6467 13.0241 73.6572 13.0285 73.6649 13.0364C73.6726 13.0443 73.6769 13.055 73.6769 13.0662V29.5455C73.6769 29.5574 73.6722 29.5688 73.6638 29.5772C73.6555 29.5856 73.6441 29.5904 73.6323 29.5904H72.3825C72.351 29.5904 72.3353 29.5745 72.3353 29.5428L72.3424 26.456ZM65.5157 14.345C60.3714 14.345 57.2975 19.2251 58.9432 24.0979C60.9244 29.9639 69.3336 30.2348 71.7813 24.616C72.1024 23.8791 72.189 22.9637 72.2273 22.1755C72.3534 19.583 72.3933 16.9814 72.3469 14.3707C72.3469 14.3629 72.3438 14.3554 72.3382 14.3499C72.3327 14.3444 72.3252 14.3414 72.3174 14.3414C70.0541 14.3444 67.7868 14.3456 65.5157 14.345Z" fill="#929AAB"/>
<path d="M97.0313 26.522C97.0313 26.428 97.0051 26.4198 96.9528 26.4973C95.7967 28.1981 94.175 29.3113 92.2179 29.7617C88.4303 30.6313 84.4215 29.0312 82.6892 25.3265C80.3066 20.2322 83.1352 14.055 88.6676 13.1304C89.0797 13.0614 89.6726 13.0263 90.4463 13.0251C93.0712 13.0196 95.703 13.0193 98.3416 13.0242C98.3525 13.0242 98.363 13.0286 98.3707 13.0365C98.3784 13.0444 98.3827 13.0551 98.3827 13.0663V29.5227C98.3827 29.5407 98.3757 29.5579 98.3633 29.5706C98.351 29.5833 98.3342 29.5905 98.3167 29.5905L97.0919 29.5886C97.0479 29.5886 97.0259 29.5661 97.0259 29.5209L97.0313 26.522ZM85.3314 16.2629C82.0006 19.3671 82.6723 25.4363 86.5553 27.7102C87.7729 28.4224 89.1074 28.7071 90.515 28.6494C93.2152 28.5396 95.5657 26.9632 96.5674 24.3653C96.7042 24.0113 96.7922 23.6058 96.8314 23.1487C97.0839 20.2413 97.0937 17.2964 97.0589 14.3808C97.0589 14.3702 97.0548 14.3599 97.0474 14.3524C97.0401 14.3448 97.0301 14.3406 97.0197 14.3406C94.7337 14.3424 92.4534 14.3448 90.1787 14.3479C88.3132 14.3503 86.6974 14.9887 85.3314 16.2629Z" fill="#929AAB"/>
<path d="M102.812 14.6681C102.812 15.0626 102.66 15.441 102.388 15.72C102.116 15.9989 101.747 16.1556 101.363 16.1556C100.978 16.1556 100.61 15.9989 100.338 15.72C100.066 15.441 99.9133 15.0626 99.9133 14.6681C99.9133 14.2736 100.066 13.8952 100.338 13.6162C100.61 13.3373 100.978 13.1805 101.363 13.1805C101.747 13.1805 102.116 13.3373 102.388 13.6162C102.66 13.8952 102.812 14.2736 102.812 14.6681ZM102.605 14.669C102.605 14.332 102.474 14.0088 102.242 13.7706C102.01 13.5323 101.695 13.3984 101.366 13.3984C101.038 13.3984 100.723 13.5323 100.491 13.7706C100.259 14.0088 100.128 14.332 100.128 14.669C100.128 15.006 100.259 15.3292 100.491 15.5675C100.723 15.8057 101.038 15.9396 101.366 15.9396C101.695 15.9396 102.01 15.8057 102.242 15.5675C102.474 15.3292 102.605 15.006 102.605 14.669Z" fill="#929AAB"/>
<path d="M100.987 14.8294L100.988 15.4637C100.988 15.5205 100.961 15.5483 100.905 15.547L100.876 15.5461C100.815 15.5443 100.784 15.512 100.783 15.4491L100.779 13.8691C100.779 13.8521 100.785 13.8358 100.797 13.8238C100.809 13.8118 100.825 13.805 100.841 13.805C101.164 13.8032 101.854 13.7007 101.961 14.152C102.03 14.4437 101.917 14.6484 101.622 14.7662C101.616 14.7686 101.61 14.7723 101.606 14.7772C101.602 14.782 101.599 14.7877 101.597 14.794C101.595 14.8003 101.595 14.8069 101.596 14.8133C101.597 14.8198 101.599 14.8259 101.603 14.8312L102.023 15.4482C102.029 15.4563 102.032 15.4659 102.033 15.4758C102.034 15.4858 102.033 15.4958 102.029 15.505C102.025 15.5141 102.018 15.522 102.011 15.528C102.003 15.5339 101.993 15.5376 101.984 15.5388L101.945 15.5434C101.879 15.5519 101.828 15.5278 101.791 15.4711L101.373 14.8284C101.353 14.7985 101.326 14.7827 101.291 14.7808L101.048 14.7689C101.04 14.7686 101.032 14.7699 101.025 14.7727C101.017 14.7756 101.01 14.78 101.005 14.7856C100.999 14.7913 100.994 14.7981 100.991 14.8056C100.988 14.8131 100.987 14.8212 100.987 14.8294ZM100.981 14.0723L100.985 14.5209C100.985 14.53 100.987 14.539 100.99 14.5474C100.994 14.5558 100.999 14.5634 101.005 14.5698C101.012 14.5762 101.019 14.5812 101.027 14.5846C101.036 14.588 101.045 14.5896 101.053 14.5895L101.411 14.5868C101.461 14.5863 101.51 14.5785 101.555 14.5638C101.601 14.5491 101.642 14.5278 101.677 14.5011C101.712 14.4744 101.74 14.4429 101.758 14.4082C101.777 14.3736 101.786 14.3366 101.786 14.2993V14.2792C101.785 14.2039 101.745 14.1322 101.673 14.0796C101.602 14.0271 101.506 13.9981 101.406 13.9991L101.048 14.0018C101.039 14.0019 101.03 14.0039 101.022 14.0075C101.014 14.0111 101.007 14.0163 101 14.0228C100.994 14.0294 100.989 14.0371 100.986 14.0456C100.983 14.0541 100.981 14.0632 100.981 14.0723Z" fill="#929AAB"/>
</svg>
