<svg width="105" height="45" viewBox="0 0 105 45" fill="none" xmlns="http://www.w3.org/2000/svg">
<g clip-path="url(#clip0_1_1029)">
<path fill-rule="evenodd" clip-rule="evenodd" d="M26.9766 33.4568V40H24V24.4417H34.185V27.2032H26.9766V30.6952H33.2893V33.4568H26.9766Z" fill="#929AAB"/>
<path fill-rule="evenodd" clip-rule="evenodd" d="M46.7159 24.4417V27.2032H39.1114V30.4672H46.0974V33.2287H39.1114V37.2385H47.0571V40H36.1836V24.4417H46.7159Z" fill="#929AAB"/>
<path fill-rule="evenodd" clip-rule="evenodd" d="M58.2201 35.2721V24.4417H61.0017V40H58.019L52.1542 28.9015H52.1146V40H49.333V24.4417H52.4772L58.1836 35.2721H58.2201Z" fill="#929AAB"/>
<path fill-rule="evenodd" clip-rule="evenodd" d="M69.6695 27.1508C70.2271 27.1508 70.7419 27.2587 71.2172 27.4745C71.6925 27.6902 72.1008 28.1648 72.442 28.8984C72.7832 29.6319 72.9538 30.6952 72.9538 32.0914C72.9538 32.9975 72.8472 33.8451 72.6339 34.6372C72.4207 35.4262 72.0672 36.0673 71.5798 36.5573C71.0893 37.0474 70.4677 37.2909 69.7091 37.2909H66.8057V27.1478H69.6726L69.6695 27.1508ZM70.0686 40C71.1868 40 72.1373 39.7473 72.9173 39.2449C73.6972 38.7394 74.3126 38.0799 74.7635 37.26C75.2144 36.4402 75.5343 35.568 75.7232 34.6434C75.9121 33.7187 76.0066 32.791 76.0066 31.8572C76.0066 31.0219 75.9213 30.1805 75.7507 29.333C75.58 28.4854 75.2845 27.6933 74.861 26.9536C74.4375 26.2139 73.8404 25.6098 73.0665 25.1444C72.2927 24.679 71.336 24.4448 70.1935 24.4448H63.8809V40H70.0747H70.0686Z" fill="#929AAB"/>
<path fill-rule="evenodd" clip-rule="evenodd" d="M81 24.4417V40H78.0204V24.4417H81Z" fill="#929AAB"/>
<path fill-rule="evenodd" clip-rule="evenodd" d="M47.2886 5L47.2582 18.5149H49.2537V11.4785H52.4923V9.70324H49.2537V6.88006H55.0058L55.0302 5.01233L47.2886 5Z" fill="#929AAB"/>
<path fill-rule="evenodd" clip-rule="evenodd" d="M57.7113 18.5149L57.7418 5H55.7432V12.0364H52.5076V13.8147H55.7432V16.6348H49.9941L49.9697 18.5056L57.7113 18.5149Z" fill="#929AAB"/>
</g>
<defs>
<clipPath id="clip0_1_1029">
<rect width="57" height="35" fill="white" transform="translate(24 5)"/>
</clipPath>
</defs>
</svg>
