<svg width="105" height="45" viewBox="0 0 105 45" fill="none" xmlns="http://www.w3.org/2000/svg">
<path d="M6.10323 22.9733C4.58264 20.3885 4.72278 16.9715 5.9806 14.3762C6.3115 13.6952 6.74401 13.0467 7.27813 12.4308C9.73303 9.6035 12.9206 8.52367 16.8408 9.19131C17.8693 9.36684 18.8597 9.78922 19.8119 10.4584C19.8438 10.4812 19.8481 10.5078 19.8248 10.5384L18.978 11.6327C18.9555 11.6625 18.9298 11.6656 18.901 11.6421C17.2951 10.3115 15.0458 9.99061 13.065 10.4526C10.6089 11.0262 9.16894 13.5804 8.80222 15.9747C8.52193 17.8025 8.56397 19.936 9.04631 21.7532C9.46441 23.3267 10.3454 24.4825 11.6892 25.2207C13.3593 26.1364 15.6519 26.3644 17.3897 25.4299C18.3649 24.9057 19.2268 24.1205 19.458 23.0215C19.5398 22.6312 19.569 22.1113 19.5456 21.4617C19.5141 20.5601 18.943 20.2933 18.1138 20.1957C17.512 20.1252 16.9202 20.1134 16.3386 20.1605C16.3184 20.162 16.3082 20.1526 16.3082 20.1323V19.0509C16.3082 19.0431 16.3113 19.0356 16.3168 19.0301C16.3223 19.0246 16.3297 19.0215 16.3374 19.0215H21.795C21.8308 19.0215 21.8483 19.0395 21.8475 19.0755C21.825 20.0794 21.8078 21.0812 21.7962 22.0811C21.7658 24.8751 19.1941 26.7206 16.6574 27.2248C14.3964 27.6738 11.8925 27.4517 9.83931 26.3785C8.33156 25.591 6.98615 24.4755 6.10323 22.9733Z" fill="#929AAB"/>
<path d="M77.591 13.2967C77.6152 13.328 77.6051 13.348 77.5607 13.3566C77.5436 13.3598 77.5253 13.3566 77.5058 13.3472C77.3283 13.2618 77.1632 13.1584 77.0106 13.0369C77.0067 13.0197 77.0052 12.9989 77.0059 12.9746C77.0067 12.9558 77.0133 12.9374 77.0258 12.9194C77.5093 12.2196 78.0964 11.6276 78.787 11.1433C79.5523 10.6073 80.357 10.525 81.201 10.8965C81.8106 11.1645 82.2451 11.8192 81.9239 12.4786C81.5385 13.2693 80.8938 13.6336 79.9899 13.5717C79.497 13.5377 79.0708 12.8536 78.815 12.4668C78.781 12.415 78.7299 12.3769 78.6706 12.3595C78.6114 12.342 78.5479 12.3463 78.4915 12.3716C78.0679 12.5605 77.7678 12.8688 77.591 13.2967Z" fill="#BBBBBB"/>
<path d="M59.2646 16.0641C59.2443 16.18 59.2494 16.278 59.2797 16.3579C59.2969 16.4034 59.3163 16.4045 59.3381 16.3614C59.3887 16.2611 59.4164 16.1577 59.4211 16.0511C59.4117 16.0464 59.4191 16.037 59.4432 16.0229C59.4619 16.0127 59.4748 15.9971 59.4818 15.9759C60.179 13.8037 62.0792 12.1405 64.4138 12.2568C65.9706 12.3344 67.0696 13.4405 66.8839 15.072C66.7612 16.1475 66.2754 16.7329 65.1823 16.814C64.0342 16.8986 63.0182 16.2756 63.0766 15.0544C63.0999 14.5536 63.335 14.1207 63.782 13.7555C63.7944 13.7455 63.8034 13.7318 63.8076 13.7163C63.8118 13.7009 63.811 13.6844 63.8052 13.6695C63.7995 13.6545 63.7892 13.6418 63.7757 13.6332C63.7623 13.6245 63.7465 13.6204 63.7306 13.6215C62.1212 13.705 61.0876 14.8816 60.4616 16.2651C59.7562 17.8237 59.3634 19.3114 59.2832 20.7282C59.2435 21.4178 59.2346 22.8255 59.2564 24.9515C59.2603 25.2759 59.3054 25.5091 59.3919 25.6509C59.7306 26.2045 60.7992 26.1646 61.3796 26.1328C61.4209 26.1305 61.4415 26.1501 61.4415 26.1916L61.4392 27.3036C61.4384 27.3537 61.4135 27.3788 61.3644 27.3788H54.2964C54.2535 27.3788 54.2321 27.3576 54.2321 27.3153L54.231 26.1975C54.2309 26.1874 54.233 26.1774 54.2369 26.1682C54.2409 26.1589 54.2466 26.1506 54.2539 26.1437C54.2611 26.1369 54.2697 26.1317 54.279 26.1284C54.2883 26.1251 54.2982 26.1238 54.308 26.1246C55.0275 26.1857 55.9174 26.0599 56.1428 25.3053C56.1856 25.1635 56.207 24.8916 56.207 24.4896C56.2109 20.5879 56.2121 16.6859 56.2105 12.7834C56.2105 12.7372 56.2335 12.7141 56.2794 12.7141H59.1373C59.2198 12.7141 59.2611 12.7556 59.2611 12.8387L59.2646 16.0641Z" fill="#929AAB"/>
<path d="M77.011 13.037C77.1636 13.1585 77.3287 13.2619 77.5062 13.3473C77.5257 13.3568 77.544 13.3599 77.5611 13.3568C77.6055 13.3481 77.6156 13.3282 77.5915 13.2968L77.6312 13.4049C77.6436 13.4386 77.6646 13.4657 77.6942 13.4861C79.2872 14.5945 80.2916 15.8769 80.4691 17.8751C80.6101 19.4635 80.2324 20.8294 79.3363 21.9727C78.2864 23.3139 76.6279 24.1907 74.9345 24.3976C73.7117 24.5481 69.3497 24.2424 69.3135 25.901C69.2866 27.1058 70.3447 27.375 71.3129 27.375C73.1231 27.3742 74.9337 27.3758 76.7447 27.3797C79.3748 27.3856 82.082 28.1731 81.8157 31.4573C81.688 33.0276 80.8814 34.2278 79.3958 35.0576C79.3484 35.0843 79.3086 35.0756 79.2767 35.0318L78.4931 33.9574C78.4728 33.9292 78.4755 33.903 78.5012 33.8787C78.6336 33.7556 78.7706 33.6346 78.9123 33.5154C79.8572 32.722 79.9669 31.2187 78.8995 30.4911C78.3856 30.1416 77.7351 29.9386 76.948 29.8822C75.6119 29.787 73.9465 29.9539 72.5217 29.9574C70.8422 29.9609 68.2133 30.0844 67.3748 28.2377C67.0711 27.5701 67.0104 26.8645 67.1926 26.1208C67.5394 24.7091 68.9572 24.0038 70.2921 23.7476C70.3103 23.7439 70.3269 23.7345 70.3396 23.7208C70.3522 23.707 70.3602 23.6897 70.3624 23.6712C70.3647 23.6528 70.361 23.6341 70.3519 23.6181C70.3428 23.602 70.3288 23.5893 70.312 23.5819C68.8837 22.9389 67.9984 21.5625 67.6539 20.0273C67.2311 18.1466 67.5406 16.5089 68.5824 15.114C70.5035 12.5434 74.0317 11.7535 76.9526 13.0735C76.9705 13.0813 76.9865 13.0782 77.0005 13.0641C77.0098 13.0547 77.0134 13.0457 77.011 13.037ZM76.3909 22.1032C77.5296 20.4728 77.6732 18.263 77.0928 16.4094C76.8265 15.5599 76.4208 14.8903 75.8758 14.4005C74.6834 13.3285 72.7284 13.5237 71.7263 14.8249C70.5526 16.3482 70.3482 18.4993 70.7908 20.3C71.2101 22.0079 72.4119 23.5983 74.3225 23.3667C75.1903 23.261 75.8933 22.8143 76.3909 22.1032Z" fill="#929AAB"/>
<path d="M27.1987 20.2515C27.0445 22.0641 27.6612 24.1046 29.1759 25.1778C30.7981 26.325 33.3558 26.1522 34.8799 24.9168C34.8873 24.9109 34.8959 24.9066 34.905 24.9041C34.9142 24.9015 34.9237 24.9009 34.9331 24.9023C34.9425 24.9036 34.9515 24.9068 34.9596 24.9117C34.9678 24.9167 34.9748 24.9232 34.9803 24.9309L35.6355 25.8219C35.6505 25.8426 35.6571 25.8682 35.6538 25.8934C35.6506 25.9186 35.6377 25.9414 35.618 25.9571C35.0691 26.3967 34.484 26.7634 33.8195 26.988C31.5759 27.7473 28.8512 27.5134 26.86 26.2075C25.2141 25.1284 24.2755 23.5475 24.0442 21.4646C23.8698 19.8958 24.0466 18.3967 24.5744 16.9674C25.6979 13.9242 28.168 12.5842 31.312 12.5677C33.2445 12.5575 34.774 13.3243 35.9006 14.8681C36.5765 15.7935 37.0452 16.8161 37.3068 17.9359C37.4757 18.6577 37.5832 19.3884 37.6291 20.1281C37.6314 20.1736 37.61 20.1963 37.5649 20.1963H27.2582C27.2217 20.1963 27.2018 20.2147 27.1987 20.2515ZM28.4016 14.8986C27.5304 15.9377 27.1847 17.5128 27.1952 18.9033C27.1952 18.9433 27.215 18.9633 27.2547 18.9633H34.38C34.4236 18.9633 34.4474 18.9413 34.4513 18.8974C34.6078 16.9874 34.0846 14.238 31.8446 13.8278C30.3746 13.559 29.2269 13.916 28.4016 14.8986Z" fill="#929AAB"/>
<path d="M85.0034 20.2017C84.9793 20.8317 85.0245 21.4559 85.1389 22.0742C85.4823 23.9267 86.7716 25.5323 88.6846 25.8473C89.9841 26.0613 91.1936 25.8446 92.3133 25.1973C92.4289 25.1303 92.5714 24.9834 92.7127 24.8987C92.7524 24.8745 92.7859 24.8811 92.8131 24.9187L93.473 25.8109C93.5002 25.8477 93.4967 25.8806 93.4625 25.9096C91.7363 27.3895 89.3527 27.6469 87.1815 27.2061C85.1518 26.7932 83.6393 25.7212 82.6443 23.9901C82.2924 23.3766 82.0483 22.6325 81.912 21.758C81.6481 20.0536 81.8922 17.9296 82.6455 16.351C83.8141 13.9029 85.877 12.626 88.8341 12.5202C91.0663 12.4411 92.7645 13.2925 93.9284 15.0745C94.8705 16.5163 95.372 18.1905 95.4327 20.0971C95.4335 20.1269 95.4187 20.1418 95.3883 20.1418H85.0665C85.026 20.1418 85.005 20.1617 85.0034 20.2017ZM85.5056 16.1018C85.2752 16.6989 85.137 17.3184 85.091 17.9602C85.0692 18.2744 85.0381 18.5777 84.9976 18.8699C84.9914 18.9193 85.0132 18.944 85.063 18.944H92.2233C92.2435 18.944 92.2629 18.9362 92.2775 18.9222C92.292 18.9082 92.3007 18.889 92.3016 18.8688C92.3763 16.8376 91.929 14.0342 89.3889 13.7744C87.4759 13.5785 86.1814 14.3543 85.5056 16.1018Z" fill="#929AAB"/>
<path d="M44.7132 27.2882C40.4656 26.4454 38.8188 22.1645 39.5313 18.2315C40.0381 15.4328 41.9324 13.2394 44.712 12.7081C46.5549 12.3555 48.6163 12.6411 50.1544 13.746C51.571 14.7628 52.5159 16.372 52.8475 18.0799C53.5775 21.8318 52.1713 26.1234 48.1304 27.1859C47.0015 27.4829 45.8624 27.517 44.7132 27.2882ZM47.7649 25.8847C48.997 25.183 49.4969 23.6855 49.6861 22.3432C50.0306 19.8912 50.2186 14.0857 46.5538 13.766C43.78 13.5239 42.8773 15.9605 42.6519 18.2315C42.4066 20.7128 42.3552 25.8119 45.7328 26.2562C46.481 26.3549 47.1584 26.2311 47.7649 25.8847Z" fill="#929AAB"/>
<path d="M59.2643 16.0645L59.4208 16.0516C59.4162 16.1581 59.3885 16.2616 59.3379 16.3619C59.3161 16.405 59.2967 16.4038 59.2795 16.3584C59.2492 16.2784 59.2441 16.1805 59.2643 16.0645Z" fill="#BBBBBB"/>
<path d="M98.9075 27.3363C99.9831 27.359 100.872 26.5545 100.893 25.5394C100.914 24.5243 100.06 23.683 98.984 23.6604C97.9084 23.6377 97.0193 24.4422 96.9981 25.4573C96.977 26.4724 97.8318 27.3136 98.9075 27.3363Z" fill="#929AAB"/>
</svg>
