<svg width="105" height="45" viewBox="0 0 105 45" fill="none" xmlns="http://www.w3.org/2000/svg">
<path d="M75.4393 8.7291C75.4591 8.76153 75.469 8.75844 75.469 8.71984C75.4933 7.54157 75.8643 6.66057 76.5819 6.07684C77.6493 5.20588 79.3781 5.62283 80.1079 6.7926C81.1228 8.41871 80.5891 10.3691 78.7965 11.1752C78.7296 11.2061 78.7129 11.2547 78.7463 11.3211C78.9166 11.6547 78.9622 11.9458 78.8832 12.1944C78.6034 13.0824 78.3586 14.1209 78.1488 15.3099C77.4114 19.4995 77.4152 23.8829 78.1602 28.4601C78.329 29.5071 77.1612 30.202 76.1988 30.4359C76.1252 30.4538 76.0598 30.4981 76.014 30.561C75.1702 31.7331 74.0846 32.3099 72.7572 32.2914C69.7147 32.2474 68.6063 29.287 68.1912 26.7853C68.1876 26.764 68.1795 26.7436 68.1676 26.7256C68.1558 26.7076 68.1403 26.6924 68.1222 26.6808C68.1042 26.6692 68.084 26.6616 68.0629 26.6585C68.0417 26.6553 68.0202 26.6567 67.9997 26.6625C66.7225 27.0193 65.5297 26.7089 64.5216 25.9607C64.5053 25.9483 64.4866 25.9396 64.4667 25.9352C64.4467 25.9308 64.4261 25.9308 64.406 25.9352C64.386 25.9395 64.367 25.9482 64.3503 25.9606C64.3337 25.973 64.3198 25.9888 64.3095 26.007C63.3835 27.6424 61.8737 29.243 59.9647 29.565C58.1311 29.8754 56.286 29.4932 54.9837 28.0315C54.9137 27.9528 54.8697 27.9659 54.8514 28.0709C54.6385 29.2569 53.9908 29.9696 52.9083 30.2089C51.5991 30.4962 49.3412 29.9147 48.5361 28.7844C48.2609 28.3967 48.1826 28.4338 48.3012 28.8955C48.3925 29.243 48.5795 29.5974 48.6137 29.9541C48.819 32.0968 46.8393 33.3916 44.9144 32.6226C43.8577 32.1995 43.0731 31.3447 42.5607 30.0584C42.5544 30.0427 42.5449 30.0285 42.5328 30.0168C42.5208 30.0051 42.5064 29.9961 42.4907 29.9905C42.475 29.9848 42.4583 29.9825 42.4417 29.9838C42.425 29.9852 42.4089 29.99 42.3942 29.9981C40.9369 30.7857 39.6072 31.3185 37.9491 30.7023C37.9361 30.6973 37.9222 30.6953 37.9083 30.6965C37.8945 30.6977 37.8811 30.702 37.869 30.7091C37.857 30.7162 37.8467 30.7259 37.8389 30.7376C37.831 30.7492 37.8258 30.7625 37.8237 30.7764C37.5561 32.5045 37.4078 34.2425 37.379 35.9906C37.3789 36.0651 37.4067 36.1363 37.4565 36.1898C38.1681 36.9465 38.4235 37.7827 38.2228 38.6985C37.6846 41.1376 34.9774 41.6287 33.1893 40.2644C31.3465 38.8606 30.8607 36.1435 30.8881 33.885C30.8886 33.8667 30.8842 33.8486 30.8754 33.8325C30.8666 33.8165 30.8537 33.8031 30.8379 33.7937C30.8222 33.7843 30.8042 33.7792 30.7858 33.779C30.7674 33.7788 30.7492 33.7834 30.733 33.7924C28.8697 34.8764 26.313 34.8046 24.7576 33.2388C22.1758 30.6398 22.6183 25.9514 23.7176 22.7316C24.8777 19.3343 26.5608 16.1825 28.767 13.2762C29.6542 12.1064 30.6326 11.2632 32.1447 11.1312C34.4939 10.925 36.364 12.8893 36.38 15.2127C36.38 15.2961 36.4195 15.3285 36.4986 15.3099C37.1053 15.1741 37.7157 15.1532 38.33 15.2474C38.4106 15.2598 38.4859 15.2451 38.5558 15.2034C40.3271 14.1101 42.1935 13.2136 44.1549 12.5141C44.2245 12.4894 44.2865 12.4467 44.3349 12.3902C44.3833 12.3338 44.4164 12.2655 44.4309 12.1921C44.7684 10.5544 45.0786 8.68972 46.9305 8.09904C48.7072 7.53153 50.8807 9.05571 51.5033 10.7096C51.5338 10.7884 51.59 10.8324 51.6721 10.8416C52.9235 10.9729 53.8479 11.5976 54.4454 12.7156C54.4895 12.799 54.5564 12.8276 54.6461 12.8013L56.7125 12.2199C56.7657 12.2048 56.8116 12.1721 56.8425 12.1272C57.529 11.0988 58.1105 9.89424 59.3444 9.46571C60.8861 8.93063 62.2477 9.47498 63.3744 10.5753C63.423 10.6231 63.4656 10.6193 63.5021 10.5637C64.0609 9.73673 64.403 9.20628 65.4202 9.0256C66.3857 8.85264 67.2752 9.08119 68.0886 9.71125C68.154 9.76066 68.2102 9.7514 68.2574 9.68345C69.1035 8.48356 70.1732 6.48452 71.984 6.48452C73.4072 6.48452 74.7118 7.52226 75.4393 8.7291ZM78.3727 10.0123C78.7336 9.94038 79.0475 9.70449 79.2453 9.35653C79.4431 9.00857 79.5086 8.57702 79.4274 8.15684C79.3872 7.94878 79.3122 7.74977 79.2067 7.57118C79.1012 7.39259 78.9672 7.2379 78.8125 7.11596C78.6577 6.99402 78.4851 6.90721 78.3047 6.86049C78.1242 6.81377 77.9393 6.80805 77.7606 6.84366C77.3997 6.91557 77.0859 7.15145 76.8881 7.49941C76.6903 7.84738 76.6248 8.27892 76.7059 8.6991C76.7461 8.90716 76.8211 9.10617 76.9266 9.28476C77.0322 9.46336 77.1661 9.61804 77.3209 9.73998C77.4757 9.86192 77.6482 9.94873 77.8287 9.99545C78.0092 10.0422 78.194 10.0479 78.3727 10.0123ZM67.1718 18.6618C67.1231 16.8241 67.3831 14.9339 67.9518 12.9912C67.9707 12.923 67.9625 12.8505 67.929 12.7897C67.5215 12.0531 66.9194 11.5613 66.1226 11.3142C66.0284 11.2845 65.9267 11.2916 65.8376 11.3341C65.7485 11.3765 65.6785 11.4513 65.6414 11.5435C65.573 11.7134 65.5221 11.9288 65.4886 12.1898C65.1146 15.0945 64.9671 18.0109 65.0461 20.9388C65.0872 22.4143 65.0279 24.3323 66.9369 24.4504C67.3656 24.4767 67.6218 24.2666 67.7054 23.8203C68.3805 20.2323 69.0761 16.4172 70.5928 13.0978C70.7236 12.8137 70.7654 12.8268 70.7183 13.1372C70.0318 17.7236 69.5072 23.0606 70.6521 27.3621C70.9076 28.3242 71.1394 28.9287 71.3477 29.1758C72.1566 30.1348 73.0301 30.2375 73.9683 29.4839C74.1461 29.3403 74.1621 29.1774 74.0161 28.9951C73.9736 28.9426 73.9181 28.9133 73.8497 28.9071C73.0081 28.8446 72.9374 27.471 72.8553 26.783C72.1984 21.3233 72.0137 15.9331 73.7333 10.6332C73.7584 10.5554 73.756 10.4711 73.7265 10.3946C73.4376 9.65952 72.9313 9.14759 72.2076 8.85882C72.1429 8.83206 72.0714 8.83041 72.0069 8.85419C70.0272 9.57226 67.8651 16.7253 67.336 18.6826C67.2356 19.0548 67.1809 19.0478 67.1718 18.6618ZM48.8783 13.3225C49.0995 12.6206 49.7016 11.5922 48.9923 10.9459C48.6076 10.5938 48.1469 10.4038 47.6102 10.376C47.5103 10.3713 47.4117 10.4013 47.3306 10.461C47.2494 10.5207 47.1904 10.6067 47.1632 10.705L46.26 14.0545C46.2495 14.0931 46.2301 14.1285 46.2035 14.158C46.177 14.1874 46.1439 14.2098 46.1072 14.2236C44.5974 14.8104 43.1012 15.4543 41.6188 16.1554C40.7954 16.5446 39.4179 17.119 39.4795 18.2031C39.4809 18.2319 39.4888 18.26 39.5026 18.2852C39.5165 18.3104 39.5358 18.332 39.5592 18.3483C39.5826 18.3647 39.6094 18.3754 39.6375 18.3795C39.6656 18.3836 39.6942 18.3811 39.7212 18.3722L45.6032 16.3917C45.7248 16.3515 45.7719 16.3948 45.7446 16.5214C45.2839 18.6278 44.9243 20.7743 44.6658 22.961C44.6323 23.2513 44.5571 23.4574 44.44 23.5794C43.4411 24.6311 41.539 26.505 39.9744 27.0563C39.7144 27.1474 39.5449 27.0594 39.4658 26.7923L39.3791 26.4981C39.294 26.2124 39.3981 26.0572 39.6916 26.0325C40.3606 25.9738 40.9893 25.6735 41.5777 25.1314C43.0077 23.8134 44.0204 21.9441 43.6395 19.952C43.5391 19.43 43.2822 19.1258 42.8686 19.0393C41.019 18.6479 39.5388 20.8415 38.8409 21.9997C38.0548 23.3046 37.7097 24.7268 37.8054 26.2664C37.8511 27.0061 37.9803 27.5644 38.1932 27.9412C38.8842 29.155 40.6358 28.4392 41.4774 27.8068C42.5569 26.9946 43.4859 26.0626 44.2644 25.011C44.4392 24.7731 44.513 24.8025 44.4856 25.099C44.3868 26.1568 44.3959 27.2779 44.513 28.4624C44.5997 29.3349 45.0763 30.0483 45.943 30.6027C45.9823 30.6281 46.0278 30.6421 46.0744 30.6432C46.121 30.6442 46.167 30.6323 46.2075 30.6086C46.2479 30.585 46.2812 30.5506 46.3037 30.5091C46.3262 30.4677 46.3371 30.4207 46.3353 30.3734C46.3277 30.1757 46.257 30.0383 46.1232 29.9611C46.0593 29.9225 46.0243 29.8653 46.0183 29.7897C45.959 28.8971 45.9567 28.2616 46.0114 27.8833C46.5877 23.8265 47.2977 19.7891 48.1416 15.7709C48.1486 15.7363 48.1667 15.705 48.1932 15.6819C48.2196 15.6588 48.2528 15.6453 48.2876 15.6435C49.8673 15.5555 51.1597 15.3802 52.1647 15.1177C53.0337 14.893 52.4954 13.6769 52.0165 13.3758C51.3095 12.9333 49.7563 13.2252 48.9786 13.429C48.9642 13.4332 48.949 13.4333 48.9346 13.4293C48.9202 13.4253 48.9071 13.4174 48.8968 13.4065C48.8865 13.3955 48.8793 13.3819 48.876 13.3671C48.8728 13.3523 48.8735 13.3369 48.8783 13.3225ZM77.38 11.4312C77.4099 11.3858 77.4173 11.3277 77.4004 11.2697C77.3836 11.2117 77.3439 11.1586 77.2901 11.122C77.2635 11.1039 77.2342 11.0904 77.2039 11.0823C77.1736 11.0742 77.143 11.0716 77.1136 11.0747C77.0843 11.0778 77.0569 11.0865 77.033 11.1004C77.0092 11.1143 76.9892 11.133 76.9744 11.1555C76.9445 11.2009 76.9371 11.259 76.954 11.317C76.9708 11.375 77.0105 11.4281 77.0643 11.4647C77.0909 11.4828 77.1202 11.4963 77.1505 11.5044C77.1808 11.5125 77.2114 11.5151 77.2408 11.512C77.2701 11.5089 77.2975 11.5001 77.3214 11.4863C77.3452 11.4724 77.3652 11.4537 77.38 11.4312ZM76.0764 13.2807C76.3209 13.3046 76.5656 13.2194 76.7566 13.0439C76.9477 12.8684 77.0696 12.6169 77.0954 12.3448C77.1212 12.0726 77.0488 11.8022 76.8942 11.5929C76.7396 11.3835 76.5154 11.2525 76.271 11.2286C76.0265 11.2047 75.7818 11.2899 75.5907 11.4654C75.3996 11.6409 75.2778 11.8924 75.252 12.1645C75.2262 12.4366 75.2986 12.7071 75.4532 12.9164C75.6078 13.1257 75.832 13.2568 76.0764 13.2807ZM58.366 15.9215C57.5244 18.9189 57.0454 22.0692 57.7251 24.9392C58.0718 26.3962 59.7709 27.3505 61.0777 26.3637C61.4442 26.0873 61.7163 25.8163 61.8942 25.5507C63.5044 23.1494 64.4022 20.4917 64.5877 17.5777C64.7086 15.6736 64.257 13.7881 62.2044 13.2553C62.1805 13.249 62.1595 13.2344 62.145 13.2142C62.1305 13.1939 62.1232 13.1692 62.1246 13.1441C62.1656 12.338 61.4974 11.8493 60.8383 11.6524C60.0605 11.4184 59.4721 12.8615 59.2737 13.4175C59.2463 13.4931 59.1977 13.5503 59.1277 13.5889C58.1516 14.1309 57.3693 14.659 56.6577 15.5856C56.6288 15.6224 56.6098 15.6661 56.6024 15.7126C56.5951 15.759 56.5996 15.8067 56.6156 15.851C56.6316 15.8954 56.6586 15.9349 56.6939 15.9659C56.7292 15.9969 56.7717 16.0183 56.8174 16.028C57.3313 16.1377 57.8042 16.0682 58.236 15.8196C58.3622 15.7454 58.4055 15.7794 58.366 15.9215ZM75.5716 14.4066C75.4589 14.3636 75.3654 14.2804 75.3087 14.1726C75.2521 14.0647 75.2361 13.9395 75.2637 13.8205C75.3017 13.663 75.3329 13.4916 75.3572 13.3063C75.3648 13.2522 75.3602 13.2074 75.3435 13.1719C75.3237 13.1318 75.2964 13.0986 75.2614 13.0723C75.1945 13.0198 75.1421 13.0314 75.104 13.1071C74.0116 15.2683 77.0518 15.4605 76.7005 13.6213C76.6352 13.2738 76.5264 13.2592 76.3744 13.5773C76.3577 13.6097 76.3531 13.6877 76.3607 13.8112C76.3881 14.2792 75.9912 14.5664 75.5716 14.4066ZM33.4881 27.8254C33.2722 29.8159 33.1635 31.8829 33.1619 34.0263C33.1619 35.1289 33.3376 36.2246 33.6363 37.2067C33.8005 37.7426 34.2384 38.1989 34.95 38.5757C35.2328 38.7255 35.5065 38.7093 35.7711 38.5271L35.9079 38.4321C36.215 38.219 36.1915 38.0545 35.8372 37.9387C34.7812 37.5912 35.1279 34.939 35.2123 33.9105C35.5742 29.4939 36.2569 25.1299 37.2604 20.8183C37.3303 20.5172 37.417 20.216 37.5204 19.9149C37.5447 19.8454 37.5926 19.8022 37.664 19.7852L38.3984 19.6115C38.4119 19.6084 38.4259 19.6084 38.4394 19.6114C38.4529 19.6145 38.4656 19.6206 38.4765 19.6292C38.4874 19.6379 38.4963 19.6489 38.5025 19.6614C38.5087 19.674 38.5121 19.6878 38.5125 19.7018L38.5353 20.318C38.5373 20.3762 38.5548 20.4328 38.586 20.4817C38.6172 20.5306 38.6609 20.57 38.7124 20.5957C38.7639 20.6213 38.8213 20.6323 38.8785 20.6275C38.9356 20.6226 38.9904 20.6021 39.037 20.5681C40.4283 19.5605 38.4897 17.2742 37.1577 17.5777C34.9728 18.0765 33.0152 19.0409 31.2849 20.4709C31.1577 20.5748 31.0758 20.7254 31.0569 20.8901C30.9915 21.4306 31.0173 21.9611 31.1344 22.4815C31.1441 22.5272 31.1635 22.5703 31.1912 22.6078C31.2189 22.6453 31.2543 22.6763 31.295 22.6987C31.3356 22.7211 31.3806 22.7344 31.4269 22.7377C31.4732 22.741 31.5196 22.7342 31.5632 22.7177C32.6146 22.3147 33.52 21.6012 34.4254 20.948C34.4371 20.9397 34.4508 20.9348 34.465 20.9337C34.4793 20.9325 34.4935 20.9353 34.5063 20.9417C34.5191 20.9481 34.53 20.9579 34.5379 20.97C34.5457 20.9821 34.5502 20.9961 34.5509 21.0106C34.5524 21.0631 34.5357 21.1264 34.5007 21.2005C33.4592 23.4273 32.1828 25.5051 30.6714 27.4339C29.7546 28.6037 28.5253 30.0908 27.3826 30.2506C27.2683 30.2667 27.1522 30.2401 27.0557 30.1758C26.9592 30.1114 26.889 30.0138 26.8581 29.9009C26.5684 28.8538 26.9151 27.5011 27.2344 26.4958C28.3474 22.9826 29.937 19.7103 32.0033 16.6789C32.423 16.0628 33.0046 15.1548 33.65 15.354C33.7134 15.3738 33.7809 15.3759 33.8453 15.3599C33.9097 15.3439 33.9687 15.3105 34.016 15.2633C34.0632 15.216 34.097 15.1566 34.1136 15.0914C34.1303 15.0262 34.1293 14.9577 34.1107 14.893C33.8576 14.0035 32.9019 13.0584 31.9121 13.5148C31.5502 13.6831 31.1914 13.9927 30.8356 14.4436C27.8388 18.2471 24.6526 23.9894 25.1909 28.972C25.3186 30.1487 26.0188 31.9532 27.5286 32.1014C28.7663 32.2219 29.8268 31.8567 30.7102 31.0058C31.7304 30.0236 32.5766 28.9372 33.2486 27.7466C33.4523 27.3853 33.5322 27.4115 33.4881 27.8254ZM75.6126 16.3454C75.938 16.0597 76.0422 16.1269 75.9251 16.5469C75.7472 17.1909 74.8623 17.1654 74.8258 16.4797C74.8182 16.333 74.8638 16.0659 74.9626 15.6783C74.9748 15.6319 74.9573 15.608 74.9102 15.6064H74.8326C74.7232 15.6049 74.6464 15.6551 74.6023 15.757C73.69 17.8811 76.9583 18.0456 76.1691 15.889C76.1478 15.8304 76.1068 15.7979 76.046 15.7918L75.4849 15.7246C75.415 15.7169 75.3663 15.7462 75.339 15.8126C75.2842 15.947 75.2371 16.0836 75.1976 16.2226C75.1504 16.3925 75.2067 16.5098 75.3663 16.5747C75.3843 16.5819 75.4035 16.5855 75.4228 16.5852C75.4422 16.5849 75.4612 16.5807 75.4788 16.573C75.4964 16.5652 75.5123 16.554 75.5255 16.54C75.5386 16.526 75.5489 16.5094 75.5556 16.4913C75.5906 16.3986 75.6096 16.35 75.6126 16.3454ZM52.6528 17.1075L52.0211 16.7832C51.9868 16.7656 51.9494 16.7551 51.9111 16.7523C51.8729 16.7494 51.8344 16.7543 51.798 16.7666C51.7615 16.7788 51.7278 16.7983 51.6988 16.8238C51.6698 16.8493 51.646 16.8803 51.6288 16.9152L51.2844 17.6078C51.1362 17.9059 51.0372 18.2139 51.0089 18.4644C50.9807 18.7148 51.0257 18.8874 51.1339 18.9444L51.4646 19.1135C51.5185 19.1413 51.5864 19.1397 51.6645 19.1087C51.7425 19.0778 51.8291 19.0181 51.9193 18.9332C52.0095 18.8482 52.1016 18.7396 52.1903 18.6135C52.279 18.4875 52.3625 18.3464 52.4361 18.1985L52.7805 17.5059C52.8156 17.4358 52.8218 17.3545 52.7978 17.2798C52.7739 17.2051 52.7217 17.1431 52.6528 17.1075ZM54.6895 18.6085C54.7777 18.4695 54.8377 18.3174 54.8697 18.1522C54.9381 17.797 54.8081 17.5507 54.4797 17.4132L54.0874 17.2488C54.0196 17.2205 53.9469 17.2066 53.8736 17.2079C53.8003 17.2093 53.7281 17.2259 53.6615 17.2567C53.5948 17.2876 53.535 17.3319 53.4859 17.3871C53.4368 17.4424 53.3993 17.5072 53.3758 17.5777L52.9037 18.9976C52.8459 19.1737 52.7304 19.291 52.557 19.3497C51.7071 19.637 50.8252 19.9597 49.9114 20.318C49.4826 20.4871 48.3674 20.9758 48.4472 21.5758C48.4504 21.5994 48.4587 21.622 48.4714 21.642C48.4841 21.6621 48.501 21.6792 48.5209 21.6921C48.5407 21.7051 48.5632 21.7136 48.5867 21.7171C48.6102 21.7206 48.6341 21.719 48.657 21.7124L52.1921 20.6515C52.2114 20.6457 52.232 20.6452 52.2515 20.6502C52.2711 20.6552 52.2889 20.6655 52.3032 20.68C52.3175 20.6945 52.3276 20.7126 52.3325 20.7325C52.3375 20.7524 52.337 20.7732 52.3312 20.7928C51.9298 22.1904 51.6227 23.6219 51.4098 25.0874C51.2639 26.0997 51.0814 27.5266 52.2856 27.8995C52.5623 27.9844 52.6467 27.8902 52.5388 27.6169C52.4612 27.42 52.3883 27.1328 52.427 26.8872C52.776 24.6705 53.4009 22.507 53.9665 20.3597C53.9814 20.3008 54.0132 20.2477 54.0579 20.2073C54.1025 20.1669 54.1581 20.1409 54.2174 20.1327L56.5528 19.7922C56.611 19.7838 56.6667 19.7626 56.7161 19.7302C56.7655 19.6978 56.8073 19.6549 56.8388 19.6045C56.8702 19.5541 56.8905 19.4973 56.8982 19.4381C56.906 19.3789 56.9009 19.3187 56.8835 19.2617L56.8219 19.0555C56.714 18.7004 56.4783 18.5436 56.1149 18.5853L54.767 18.7359C54.7517 18.7374 54.7363 18.7346 54.7226 18.7276C54.7088 18.7207 54.6972 18.71 54.6891 18.6967C54.6811 18.6835 54.6768 18.6682 54.6769 18.6526C54.6769 18.637 54.6813 18.6217 54.6895 18.6085ZM74.9649 17.9877C75.377 18.0124 75.399 18.119 75.0311 18.3074C74.7969 18.4263 74.5863 18.5791 74.3993 18.766C74.0572 19.1088 74.1264 19.2887 74.6068 19.3057L75.8202 19.3474C75.9205 19.3505 75.9753 19.3011 75.9844 19.1992L75.9935 19.1019C75.9996 19.0277 75.9661 18.9876 75.8932 18.9814L75.1018 18.9189C74.9223 18.905 74.9071 18.8471 75.0561 18.7451L76.0688 18.0641C76.0979 18.0448 76.1205 18.017 76.1336 17.9843C76.1468 17.9517 76.1499 17.9157 76.1425 17.881C76.1351 17.8463 76.1176 17.8145 76.0923 17.7898C76.0669 17.765 76.0349 17.7484 76.0004 17.7422L74.5726 17.5059C74.5465 17.5016 74.5199 17.5027 74.4942 17.509C74.4685 17.5154 74.4443 17.5269 74.4231 17.5429C74.4019 17.5588 74.384 17.5789 74.3705 17.602C74.357 17.6251 74.3482 17.6507 74.3446 17.6773L74.3309 17.7769C74.328 17.7988 74.3297 17.8211 74.3357 17.8423C74.3417 17.8636 74.3521 17.8833 74.366 17.9003C74.3799 17.9172 74.3972 17.9311 74.4166 17.941C74.4361 17.9508 74.4574 17.9565 74.4791 17.9576L74.9649 17.9877ZM75.9588 19.7936C75.9598 19.7756 75.9574 19.7577 75.9516 19.7407C75.9458 19.7238 75.9367 19.7082 75.925 19.6948C75.9132 19.6814 75.899 19.6705 75.883 19.6626C75.8671 19.6548 75.8499 19.6503 75.8322 19.6493L74.3158 19.5604C74.2982 19.5594 74.2805 19.5619 74.2638 19.5678C74.2471 19.5737 74.2317 19.5829 74.2185 19.5948C74.2053 19.6068 74.1946 19.6212 74.1869 19.6374C74.1792 19.6536 74.1747 19.6711 74.1737 19.689L74.1672 19.8046C74.1661 19.8226 74.1686 19.8405 74.1744 19.8575C74.1802 19.8744 74.1893 19.89 74.201 19.9034C74.2128 19.9168 74.227 19.9277 74.2429 19.9356C74.2588 19.9434 74.2761 19.9479 74.2938 19.9489L75.8102 20.0378C75.8278 20.0388 75.8455 20.0363 75.8622 20.0304C75.8789 20.0245 75.8942 20.0153 75.9074 20.0034C75.9206 19.9914 75.9314 19.977 75.9391 19.9608C75.9468 19.9446 75.9512 19.9271 75.9523 19.9092L75.9588 19.7936ZM74.5544 21.8815L75.7221 21.9325C75.859 21.9371 75.9243 21.8699 75.9183 21.731L75.916 21.6406C75.9142 21.5995 75.8969 21.5606 75.8675 21.5321C75.8382 21.5036 75.7992 21.4877 75.7586 21.4877L75.3435 21.4924C75.3056 21.4924 75.2691 21.4777 75.2419 21.4513C75.2146 21.4249 75.1987 21.389 75.1976 21.3511L75.1816 20.8646C75.1807 20.8453 75.1836 20.8259 75.1901 20.8077C75.1966 20.7895 75.2066 20.7728 75.2196 20.7586C75.2325 20.7443 75.2481 20.7329 75.2655 20.7248C75.2829 20.7168 75.3016 20.7123 75.3207 20.7118L75.8202 20.6886C75.8419 20.6878 75.8632 20.6824 75.8828 20.6727C75.9024 20.6631 75.9198 20.6493 75.9339 20.6323C75.9481 20.6153 75.9586 20.5955 75.965 20.5741C75.9713 20.5527 75.9733 20.5302 75.9707 20.5079L75.9593 20.4292C75.9562 20.4043 75.9448 20.3812 75.9269 20.3639C75.9091 20.3466 75.8858 20.3361 75.8612 20.3342L74.3423 20.2346C74.2298 20.2284 74.1644 20.2817 74.1461 20.3944L74.1347 20.4593C74.1165 20.5766 74.1659 20.643 74.283 20.6585L74.673 20.7094C74.7133 20.7148 74.7504 20.7339 74.7779 20.7636C74.8055 20.7932 74.8216 20.8314 74.8235 20.8716L74.8463 21.3372C74.8509 21.4453 74.7999 21.504 74.6935 21.5132C74.581 21.5225 74.4715 21.5132 74.3651 21.4854C74.2571 21.4561 74.1978 21.4978 74.1872 21.6105C74.1325 22.1556 74.1287 22.7031 74.1758 23.2528C74.2199 23.7516 74.3195 23.7593 74.4746 23.276C74.4761 23.2714 74.489 23.2181 74.5133 23.1162C74.5316 23.0359 74.5818 22.9934 74.6639 22.9888L75.7905 22.9355C75.8266 22.9338 75.8608 22.9185 75.8862 22.8928C75.9115 22.867 75.9262 22.8326 75.9274 22.7965L75.9319 22.6784C75.9365 22.561 75.881 22.5054 75.7654 22.5116L74.616 22.5764C74.5567 22.5795 74.5232 22.551 74.5156 22.4907L74.454 21.9904C74.4524 21.9765 74.4538 21.9624 74.4581 21.9491C74.4624 21.9358 74.4696 21.9235 74.4791 21.9132C74.4886 21.9029 74.5003 21.8947 74.5133 21.8892C74.5263 21.8838 74.5403 21.8811 74.5544 21.8815ZM51.3163 22.4027C51.4957 22.0028 51.3825 21.7286 50.9765 21.5804L50.8009 21.5179C50.3873 21.3665 50.119 21.5047 49.9958 21.9325C49.6742 23.0652 48.7847 26.4772 50.2763 26.9081C50.3022 26.9156 50.3295 26.9169 50.356 26.9119C50.3825 26.907 50.4075 26.8959 50.4291 26.8795C50.4508 26.8632 50.4684 26.842 50.4806 26.8176C50.4929 26.7933 50.4995 26.7664 50.4998 26.739C50.5318 25.1662 50.6139 23.9709 51.3163 22.4027ZM75.2193 25.4093C75.3397 25.401 75.4572 25.3659 75.5649 25.306C75.6727 25.2462 75.7686 25.1627 75.8473 25.0605C75.926 24.9582 75.9859 24.8392 76.0235 24.7101C76.0611 24.581 76.0758 24.4444 76.0667 24.3082C76.0575 24.1719 76.0247 24.0386 75.9702 23.9159C75.9157 23.7932 75.8404 23.6835 75.7488 23.593C75.6572 23.5026 75.551 23.4331 75.4362 23.3887C75.3215 23.3442 75.2004 23.3257 75.08 23.334C74.9596 23.3423 74.8421 23.3774 74.7344 23.4373C74.6266 23.4971 74.5307 23.5806 74.452 23.6828C74.3733 23.7851 74.3134 23.9041 74.2758 24.0332C74.2382 24.1623 74.2235 24.2989 74.2327 24.4351C74.2418 24.5714 74.2746 24.7047 74.3291 24.8274C74.3836 24.9501 74.4589 25.0598 74.5505 25.1503C74.6421 25.2407 74.7483 25.3102 74.8631 25.3546C74.9778 25.399 75.0989 25.4176 75.2193 25.4093ZM74.8532 26.5421L76.0688 26.3522C76.1262 26.343 76.1779 26.3114 76.2128 26.2638C76.2477 26.2162 76.2631 26.1565 76.2558 26.0973L76.1486 25.2866C76.1466 25.2696 76.1403 25.2534 76.1305 25.2394C76.1206 25.2255 76.1075 25.2143 76.0922 25.2069C76.077 25.1996 76.0602 25.1962 76.0433 25.1972C76.0265 25.1981 76.0101 25.2034 75.9958 25.2125L75.9365 25.2472C75.8989 25.2706 75.868 25.3034 75.8468 25.3424C75.8256 25.3814 75.8149 25.4252 75.8156 25.4696L75.8202 25.8263C75.8202 25.9205 75.7746 25.9754 75.6833 25.9908L74.6 26.1553C74.5629 26.1609 74.5291 26.1799 74.5048 26.2088C74.4805 26.2378 74.4673 26.2747 74.4677 26.3128C74.4708 26.4054 74.5073 26.4834 74.5772 26.5467C74.6335 26.5977 74.6525 26.6602 74.6342 26.7344C74.0435 28.9581 77.3254 28.5411 76.2535 26.5977C76.217 26.5313 76.1653 26.5143 76.0984 26.5467L76.0346 26.5768C75.9464 26.6185 75.9122 26.6873 75.9319 26.783C76.014 27.1791 76.087 27.9806 75.3914 27.8184C75.0174 27.7304 74.917 27.281 74.9033 26.9475C74.9019 26.8877 74.8801 26.8311 74.8418 26.7876L74.787 26.7251C74.7004 26.6232 74.7224 26.5622 74.8532 26.5421Z" fill="#EFEFEF"/>
<path d="M78.3727 10.0123C78.194 10.0479 78.0091 10.0422 77.8286 9.99545C77.6482 9.94873 77.4756 9.86192 77.3208 9.73998C77.1661 9.61804 77.0321 9.46335 76.9266 9.28476C76.8211 9.10617 76.7461 8.90716 76.7059 8.6991C76.6247 8.27892 76.6902 7.84737 76.888 7.49941C77.0858 7.15145 77.3997 6.91556 77.7606 6.84365C77.9393 6.80805 78.1241 6.81377 78.3046 6.86049C78.4851 6.90721 78.6576 6.99402 78.8124 7.11596C78.9672 7.2379 79.1011 7.39258 79.2066 7.57118C79.3122 7.74977 79.3872 7.94878 79.4273 8.15684C79.5085 8.57702 79.443 9.00856 79.2452 9.35653C79.0474 9.70449 78.7335 9.94037 78.3727 10.0123ZM78.5296 8.29362C78.4095 8.38627 78.4642 8.58625 78.6938 8.89356C78.7145 8.92161 78.7424 8.9433 78.7745 8.95624C78.8065 8.96917 78.8415 8.97285 78.8755 8.96685C78.9095 8.96086 78.9412 8.94543 78.9671 8.92228C78.993 8.89912 79.0121 8.86914 79.0222 8.83565C79.2229 8.20251 79.0139 7.69522 78.395 7.31379C78.0963 7.12848 77.6036 7.25356 77.3687 7.56164C76.9339 8.13147 76.9445 8.7152 77.4006 9.31283C77.4463 9.37151 77.4805 9.36533 77.5033 9.2943C77.6105 8.9839 77.2615 8.33763 77.3391 7.84656C77.3527 7.76008 77.3991 7.69831 77.4782 7.66125C77.7792 7.51917 78.0818 7.50141 78.3859 7.60797C78.4547 7.63196 78.5167 7.67369 78.5654 7.7287C78.614 7.78372 78.6475 7.84995 78.6623 7.92033C78.677 7.99072 78.6725 8.06261 78.6491 8.12836C78.6258 8.1941 78.5844 8.25122 78.5296 8.29362ZM78.0392 8.21486C78.062 8.20868 78.0841 8.20251 78.1054 8.19633C78.1525 8.18398 78.1715 8.15309 78.1624 8.10367C78.1381 7.9894 78.0598 7.93458 77.9275 7.93921C77.7815 7.94693 77.7169 8.03882 77.7336 8.21486C77.7354 8.23214 77.7411 8.24879 77.75 8.26353C77.759 8.27827 77.7712 8.29071 77.7855 8.29988C77.7998 8.30906 77.8159 8.31473 77.8327 8.31645C77.8494 8.31818 77.8662 8.31591 77.8819 8.30983C77.9199 8.29593 77.9533 8.27509 77.9822 8.24729C77.9989 8.23339 78.0179 8.22258 78.0392 8.21486ZM78.3015 9.08582C78.2301 8.94993 78.151 8.82021 78.0643 8.69667C78.0491 8.67351 78.0316 8.65961 78.0119 8.65497C77.9769 8.6488 77.9419 8.65883 77.907 8.68509C77.8889 8.69854 77.8755 8.71739 77.8685 8.73899C77.8616 8.76059 77.8615 8.78386 77.8682 8.80554C77.9457 9.03718 77.9328 9.25028 77.8294 9.44486C77.7884 9.52362 77.8119 9.5684 77.9001 9.57921C78.2057 9.61164 78.4825 9.54678 78.7303 9.38463C78.8626 9.29816 78.8504 9.24565 78.6938 9.22712L78.4612 9.19701C78.3897 9.18774 78.3365 9.15068 78.3015 9.08582Z" fill="#929AAB"/>
<path d="M78.5296 8.29362C78.5845 8.25121 78.6258 8.19409 78.6492 8.12835C78.6725 8.06261 78.6771 7.99071 78.6624 7.92033C78.6476 7.84994 78.6141 7.78371 78.5654 7.7287C78.5167 7.67369 78.4547 7.63196 78.386 7.60797C78.0819 7.50141 77.7793 7.51917 77.4782 7.66124C77.3992 7.69831 77.3528 7.76008 77.3391 7.84655C77.2616 8.33763 77.6105 8.9839 77.5033 9.29429C77.4805 9.36533 77.4463 9.37151 77.4007 9.31283C76.9446 8.7152 76.9339 8.13147 77.3688 7.56164C77.6037 7.25356 78.0963 7.12848 78.3951 7.31379C79.0139 7.69522 79.223 8.20251 79.0223 8.83565C79.0121 8.86914 78.993 8.89912 78.9671 8.92227C78.9412 8.94543 78.9095 8.96086 78.8755 8.96685C78.8415 8.97285 78.8066 8.96917 78.7745 8.95624C78.7424 8.9433 78.7145 8.92161 78.6939 8.89356C78.4643 8.58625 78.4095 8.38627 78.5296 8.29362Z" fill="#EFEFEF"/>
<path d="M77.9823 8.24728C77.9534 8.27508 77.9199 8.29593 77.8819 8.30983C77.8662 8.31591 77.8494 8.31817 77.8327 8.31645C77.816 8.31472 77.7998 8.30905 77.7855 8.29988C77.7712 8.2907 77.7591 8.27826 77.7501 8.26352C77.7411 8.24878 77.7355 8.23213 77.7337 8.21485C77.7169 8.03881 77.7816 7.94693 77.9275 7.93921C78.0598 7.93457 78.1381 7.98939 78.1624 8.10367C78.1716 8.15308 78.1525 8.18397 78.1054 8.19632C78.0841 8.2025 78.0621 8.20868 78.0393 8.21485C78.018 8.22258 77.999 8.23339 77.9823 8.24728Z" fill="#EFEFEF"/>
<path d="M78.4612 9.19701L78.6939 9.22713C78.8505 9.24566 78.8627 9.29816 78.7304 9.38464C78.4825 9.54679 78.2058 9.61165 77.9002 9.57922C77.812 9.56841 77.7884 9.52362 77.8295 9.44487C77.9329 9.25029 77.9458 9.03718 77.8683 8.80554C77.8615 8.78387 77.8617 8.7606 77.8686 8.739C77.8756 8.7174 77.889 8.69855 77.907 8.68509C77.942 8.65884 77.977 8.6488 78.012 8.65498C78.0317 8.65961 78.0492 8.67351 78.0644 8.69667C78.1511 8.82021 78.2301 8.94993 78.3016 9.08583C78.3366 9.15068 78.3898 9.18775 78.4612 9.19701Z" fill="#EFEFEF"/>
<path d="M67.1717 18.6618C67.1808 19.0478 67.2356 19.0548 67.3359 18.6826C67.865 16.7253 70.0271 9.57226 72.0068 8.85418C72.0713 8.83041 72.1429 8.83206 72.2075 8.85882C72.9312 9.14759 73.4376 9.65951 73.7264 10.3946C73.7559 10.4711 73.7583 10.5554 73.7333 10.6332C72.0136 15.9331 72.1984 21.3233 72.8552 26.783C72.9373 27.471 73.008 28.8446 73.8496 28.9071C73.918 28.9133 73.9735 28.9426 74.0161 28.9951C74.1621 29.1774 74.1461 29.3403 73.9682 29.4839C73.0301 30.2375 72.1566 30.1348 71.3477 29.1758C71.1394 28.9287 70.9075 28.3242 70.6521 27.3621C69.5071 23.0606 70.0317 17.7236 70.7182 13.1372C70.7653 12.8268 70.7235 12.8137 70.5928 13.0978C69.0761 16.4172 68.3805 20.2323 67.7054 23.8203C67.6218 24.2666 67.3656 24.4766 66.9368 24.4504C65.0278 24.3323 65.0871 22.4143 65.0461 20.9388C64.967 18.0108 65.1145 15.0945 65.4885 12.1898C65.522 11.9288 65.5729 11.7134 65.6413 11.5435C65.6784 11.4512 65.7484 11.3765 65.8375 11.3341C65.9266 11.2916 66.0283 11.2845 66.1226 11.3142C66.9193 11.5613 67.5214 12.0531 67.9289 12.7897C67.9624 12.8505 67.9706 12.923 67.9517 12.9912C67.383 14.9339 67.123 16.8241 67.1717 18.6618Z" fill="#929AAB"/>
<path d="M48.8782 13.3225C48.8735 13.3369 48.8727 13.3523 48.876 13.3671C48.8793 13.3819 48.8865 13.3955 48.8968 13.4065C48.9071 13.4174 48.9202 13.4253 48.9346 13.4293C48.949 13.4333 48.9642 13.4332 48.9786 13.429C49.7563 13.2252 51.3094 12.9333 52.0165 13.3758C52.4954 13.6769 53.0336 14.893 52.1647 15.1177C51.1597 15.3802 49.8673 15.5555 48.2875 15.6435C48.2527 15.6453 48.2195 15.6588 48.1931 15.6819C48.1667 15.705 48.1486 15.7363 48.1415 15.7709C47.2977 19.7891 46.5876 23.8265 46.0114 27.8833C45.9566 28.2616 45.9589 28.8971 46.0182 29.7897C46.0243 29.8653 46.0593 29.9225 46.1231 29.9611C46.2569 30.0383 46.3276 30.1757 46.3352 30.3734C46.3371 30.4207 46.3262 30.4677 46.3036 30.5091C46.2811 30.5506 46.2478 30.585 46.2074 30.6086C46.167 30.6323 46.121 30.6442 46.0744 30.6432C46.0277 30.6421 45.9823 30.6281 45.9429 30.6027C45.0763 30.0483 44.5996 29.3349 44.5129 28.4624C44.3959 27.2779 44.3867 26.1568 44.4856 25.099C44.5129 24.8025 44.4392 24.7731 44.2643 25.011C43.4859 26.0626 42.5569 26.9946 41.4773 27.8068C40.6358 28.4392 38.8842 29.155 38.1931 27.9412C37.9803 27.5644 37.851 27.0061 37.8054 26.2664C37.7096 24.7268 38.0548 23.3046 38.8408 21.9997C39.5387 20.8415 41.0189 18.6479 42.8686 19.0393C43.2821 19.1258 43.5391 19.43 43.6394 19.952C44.0203 21.9441 43.0077 23.8134 41.5777 25.1314C40.9893 25.6735 40.3605 25.9738 39.6915 26.0325C39.3981 26.0572 39.2939 26.2124 39.3791 26.4981L39.4658 26.7923C39.5448 27.0594 39.7143 27.1474 39.9743 27.0563C41.5389 26.505 43.441 24.6311 44.44 23.5794C44.557 23.4574 44.6323 23.2513 44.6658 22.961C44.9242 20.7743 45.2838 18.6278 45.7445 16.5214C45.7719 16.3948 45.7248 16.3515 45.6031 16.3917L39.7212 18.3722C39.6942 18.3811 39.6655 18.3836 39.6374 18.3795C39.6093 18.3754 39.5826 18.3647 39.5592 18.3483C39.5358 18.332 39.5164 18.3104 39.5026 18.2852C39.4888 18.26 39.4808 18.2319 39.4794 18.2031C39.4179 17.119 40.7954 16.5446 41.6187 16.1554C43.1012 15.4543 44.5973 14.8104 46.1072 14.2236C46.1439 14.2098 46.1769 14.1874 46.2035 14.158C46.2301 14.1285 46.2494 14.0931 46.26 14.0545L47.1631 10.705C47.1903 10.6067 47.2493 10.5207 47.3305 10.461C47.4117 10.4013 47.5103 10.3713 47.6101 10.376C48.1469 10.4038 48.6076 10.5938 48.9922 10.9459C49.7015 11.5922 49.0994 12.6206 48.8782 13.3225ZM42.1638 22.0553C42.1741 22.0295 42.1795 22.002 42.1798 21.9742L42.2003 20.8577C42.2011 20.8093 42.1862 20.7619 42.158 20.7228C42.1299 20.6838 42.0899 20.6551 42.0442 20.6412C41.9985 20.6273 41.9496 20.6289 41.9049 20.6459C41.8602 20.6628 41.8222 20.694 41.7966 20.7349L39.7736 24.001C39.7465 24.0434 39.7343 24.0939 39.7392 24.1442C39.7441 24.1945 39.7658 24.2417 39.8006 24.2778C39.8354 24.314 39.8813 24.337 39.9307 24.3431C39.9801 24.3492 40.0301 24.338 40.0724 24.3114L41.5686 23.4011C41.6083 23.3768 41.6395 23.3403 41.6575 23.2968L42.1638 22.0553Z" fill="#929AAB"/>
<path d="M77.0642 11.4647C77.1762 11.5408 77.3176 11.5258 77.3799 11.4312C77.4423 11.3366 77.4021 11.1982 77.2901 11.122C77.1781 11.0459 77.0367 11.0608 76.9744 11.1555C76.912 11.2501 76.9522 11.3885 77.0642 11.4647Z" fill="#929AAB"/>
<path d="M76.0764 13.2807C75.8319 13.2568 75.6077 13.1257 75.4531 12.9164C75.2985 12.7071 75.2262 12.4366 75.2519 12.1645C75.2777 11.8924 75.3996 11.6409 75.5907 11.4654C75.7818 11.2899 76.0265 11.2047 76.2709 11.2286C76.5154 11.2525 76.7396 11.3835 76.8942 11.5928C77.0488 11.8022 77.1211 12.0726 77.0953 12.3448C77.0695 12.6169 76.9477 12.8684 76.7566 13.0439C76.5655 13.2194 76.3208 13.3046 76.0764 13.2807ZM76.7758 12.2593C76.7758 12.0983 76.7128 11.9439 76.6007 11.8301C76.4887 11.7163 76.3367 11.6524 76.1782 11.6524C76.0197 11.6524 75.8677 11.7163 75.7557 11.8301C75.6436 11.9439 75.5807 12.0983 75.5807 12.2593C75.5807 12.4202 75.6436 12.5746 75.7557 12.6884C75.8677 12.8022 76.0197 12.8662 76.1782 12.8662C76.3367 12.8662 76.4887 12.8022 76.6007 12.6884C76.7128 12.5746 76.7758 12.4202 76.7758 12.2593Z" fill="#929AAB"/>
<path d="M58.236 15.8196C57.8041 16.0682 57.3313 16.1377 56.8174 16.028C56.7717 16.0183 56.7292 15.9969 56.6939 15.9659C56.6585 15.9349 56.6316 15.8954 56.6156 15.851C56.5996 15.8067 56.5951 15.759 56.6024 15.7126C56.6098 15.6661 56.6288 15.6224 56.6577 15.5856C57.3693 14.659 58.1516 14.1309 59.1277 13.5889C59.1977 13.5503 59.2463 13.4931 59.2737 13.4175C59.4721 12.8615 60.0605 11.4184 60.8382 11.6524C61.4974 11.8493 62.1656 12.338 62.1246 13.1441C62.1232 13.1692 62.1304 13.1939 62.145 13.2142C62.1595 13.2344 62.1805 13.249 62.2044 13.2553C64.257 13.7881 64.7086 15.6736 64.5877 17.5777C64.4022 20.4917 63.5044 23.1494 61.8942 25.5507C61.7163 25.8163 61.4441 26.0873 61.0777 26.3637C59.7709 27.3505 58.0718 26.3962 57.7251 24.9392C57.0454 22.0692 57.5244 18.9189 58.366 15.9215C58.4055 15.7794 58.3622 15.7454 58.236 15.8196ZM59.6728 22.8729C59.6181 23.4119 59.6553 23.9277 59.7846 24.4203C59.7945 24.4595 59.815 24.4952 59.8436 24.5233C59.8723 24.5515 59.908 24.5711 59.9469 24.58C59.9858 24.5888 60.0264 24.5866 60.0641 24.5736C60.1019 24.5605 60.1354 24.5371 60.1609 24.506C61.6228 22.7571 64.1726 17.0449 62.4735 14.9764C62.253 14.7092 61.9991 14.5787 61.7118 14.5849C61.6175 14.5865 61.5544 14.6328 61.5225 14.7239C60.5539 17.5144 59.9374 20.2307 59.6728 22.8729Z" fill="#929AAB"/>
<path d="M76.1782 12.8662C76.5082 12.8662 76.7758 12.5944 76.7758 12.2593C76.7758 11.9241 76.5082 11.6524 76.1782 11.6524C75.8482 11.6524 75.5807 11.9241 75.5807 12.2593C75.5807 12.5944 75.8482 12.8662 76.1782 12.8662Z" fill="#EFEFEF"/>
<path d="M75.5716 14.4066C75.9912 14.5664 76.388 14.2792 76.3607 13.8112C76.3531 13.6877 76.3576 13.6097 76.3744 13.5773C76.5264 13.2592 76.6351 13.2738 76.7005 13.6213C77.0517 15.4605 74.0116 15.2682 75.104 13.1071C75.142 13.0314 75.1945 13.0198 75.2614 13.0723C75.2964 13.0986 75.3237 13.1318 75.3435 13.1719C75.3602 13.2074 75.3648 13.2522 75.3572 13.3063C75.3328 13.4916 75.3017 13.663 75.2637 13.8205C75.236 13.9395 75.252 14.0647 75.3087 14.1725C75.3654 14.2804 75.4588 14.3636 75.5716 14.4066Z" fill="#929AAB"/>
<path d="M33.4881 27.8254C33.5322 27.4115 33.4524 27.3852 33.2486 27.7466C32.5766 28.9372 31.7304 30.0236 30.7102 31.0058C29.8268 31.8566 28.7663 32.2219 27.5286 32.1014C26.0188 31.9532 25.3186 30.1487 25.1909 28.972C24.6526 23.9894 27.8388 18.2471 30.8356 14.4436C31.1914 13.9927 31.5502 13.6831 31.9121 13.5147C32.9019 13.0584 33.8576 14.0035 34.1107 14.893C34.1293 14.9576 34.1303 15.0262 34.1136 15.0914C34.097 15.1566 34.0632 15.216 34.016 15.2633C33.9687 15.3105 33.9097 15.3439 33.8453 15.3599C33.7809 15.3759 33.7134 15.3738 33.65 15.3539C33.0046 15.1547 32.423 16.0628 32.0033 16.6789C29.937 19.7103 28.3474 22.9826 27.2344 26.4958C26.9151 27.5011 26.5684 28.8538 26.8581 29.9008C26.889 30.0138 26.9592 30.1114 27.0557 30.1758C27.1522 30.2401 27.2683 30.2667 27.3826 30.2506C28.5253 30.0908 29.7546 28.6037 30.6714 27.4339C32.1828 25.5051 33.4592 23.4273 34.5007 21.2005C34.5357 21.1264 34.5524 21.0631 34.5509 21.0106C34.5502 20.9961 34.5457 20.9821 34.5379 20.97C34.53 20.9578 34.5191 20.9481 34.5063 20.9417C34.4935 20.9353 34.4793 20.9325 34.465 20.9336C34.4508 20.9348 34.4371 20.9397 34.4255 20.948C33.52 21.6012 32.6146 22.3147 31.5632 22.7177C31.5196 22.7342 31.4732 22.741 31.4269 22.7377C31.3806 22.7344 31.3356 22.7211 31.295 22.6987C31.2543 22.6763 31.2189 22.6453 31.1912 22.6078C31.1635 22.5703 31.1441 22.5272 31.1344 22.4815C31.0173 21.961 30.9915 21.4306 31.0569 20.8901C31.0758 20.7254 31.1577 20.5748 31.2849 20.4708C33.0152 19.0409 34.9728 18.0765 37.1577 17.5777C38.4897 17.2742 40.4283 19.5605 39.037 20.5681C38.9904 20.6021 38.9356 20.6226 38.8785 20.6275C38.8213 20.6323 38.7639 20.6213 38.7124 20.5956C38.6609 20.57 38.6172 20.5306 38.586 20.4817C38.5548 20.4328 38.5373 20.3762 38.5353 20.318L38.5125 19.7018C38.5121 19.6878 38.5087 19.674 38.5025 19.6614C38.4963 19.6489 38.4874 19.6379 38.4765 19.6292C38.4656 19.6206 38.4529 19.6145 38.4394 19.6114C38.4259 19.6084 38.4119 19.6084 38.3984 19.6115L37.664 19.7852C37.5926 19.8022 37.5447 19.8454 37.5204 19.9149C37.417 20.216 37.3303 20.5172 37.2604 20.8183C36.2569 25.1299 35.5742 29.4939 35.2123 33.9105C35.1279 34.939 34.7812 37.5912 35.8372 37.9387C36.1915 38.0545 36.215 38.219 35.9079 38.4321L35.7711 38.5271C35.5065 38.7093 35.2328 38.7255 34.95 38.5757C34.2384 38.1989 33.8005 37.7426 33.6363 37.2067C33.3376 36.2246 33.1619 35.1289 33.1619 34.0263C33.1635 31.8829 33.2722 29.8159 33.4881 27.8254Z" fill="#929AAB"/>
<path d="M59.6729 22.8729C59.9374 20.2307 60.554 17.5144 61.5225 14.7239C61.5544 14.6328 61.6175 14.5865 61.7118 14.5849C61.9992 14.5787 62.2531 14.7092 62.4736 14.9764C64.1727 17.0449 61.6229 22.7571 60.1609 24.506C60.1354 24.5371 60.102 24.5605 60.0642 24.5735C60.0265 24.5866 59.9859 24.5888 59.947 24.5799C59.9081 24.5711 59.8723 24.5515 59.8437 24.5233C59.815 24.4951 59.7946 24.4595 59.7846 24.4203C59.6554 23.9277 59.6181 23.4119 59.6729 22.8729Z" fill="#EFEFEF"/>
<path d="M75.6126 16.3454C75.6096 16.35 75.5906 16.3987 75.5556 16.4913C75.5489 16.5094 75.5387 16.526 75.5255 16.54C75.5123 16.554 75.4964 16.5652 75.4788 16.573C75.4612 16.5807 75.4422 16.5849 75.4229 16.5852C75.4035 16.5855 75.3843 16.5819 75.3663 16.5747C75.2067 16.5098 75.1504 16.3925 75.1976 16.2226C75.2371 16.0836 75.2842 15.947 75.339 15.8126C75.3663 15.7462 75.415 15.7169 75.4849 15.7246L76.046 15.7918C76.1068 15.7979 76.1479 15.8304 76.1691 15.889C76.9583 18.0456 73.69 17.8811 74.6023 15.757C74.6464 15.6551 74.7232 15.6049 74.8326 15.6064H74.9102C74.9573 15.608 74.9748 15.6319 74.9627 15.6783C74.8638 16.0659 74.8182 16.333 74.8258 16.4797C74.8623 17.1654 75.7472 17.1909 75.9251 16.5469C76.0422 16.1269 75.938 16.0597 75.6126 16.3454Z" fill="#929AAB"/>
<path d="M52.6528 17.1075C52.7217 17.1431 52.7739 17.2051 52.7979 17.2798C52.8218 17.3545 52.8156 17.4358 52.7806 17.5059L52.4362 18.1985C52.3625 18.3464 52.279 18.4875 52.1903 18.6135C52.1016 18.7396 52.0096 18.8482 51.9193 18.9332C51.8291 19.0181 51.7425 19.0778 51.6645 19.1087C51.5865 19.1397 51.5185 19.1413 51.4646 19.1134L51.1339 18.9443C51.0257 18.8874 50.9808 18.7148 51.009 18.4643C51.0372 18.2139 51.1362 17.9059 51.2844 17.6078L51.6288 16.9152C51.646 16.8803 51.6698 16.8493 51.6988 16.8238C51.7278 16.7983 51.7615 16.7788 51.798 16.7665C51.8344 16.7543 51.8729 16.7494 51.9112 16.7523C51.9494 16.7551 51.9868 16.7656 52.0211 16.7832L52.6528 17.1075Z" fill="#929AAB"/>
<path d="M54.767 18.7359L56.1149 18.5853C56.4783 18.5436 56.714 18.7004 56.8219 19.0555L56.8835 19.2617C56.9009 19.3187 56.906 19.3789 56.8982 19.4381C56.8905 19.4973 56.8702 19.554 56.8388 19.6045C56.8073 19.6549 56.7655 19.6978 56.7161 19.7302C56.6667 19.7626 56.611 19.7838 56.5528 19.7921L54.2174 20.1327C54.1581 20.1409 54.1025 20.1669 54.0578 20.2073C54.0132 20.2477 53.9813 20.3008 53.9665 20.3597C53.4009 22.5069 52.776 24.6705 52.427 26.8872C52.3882 27.1328 52.4612 27.42 52.5388 27.6169C52.6467 27.8902 52.5623 27.9844 52.2856 27.8995C51.0814 27.5266 51.2639 26.0997 51.4098 25.0874C51.6227 23.6219 51.9298 22.1904 52.3312 20.7928C52.337 20.7732 52.3375 20.7523 52.3325 20.7325C52.3276 20.7126 52.3175 20.6945 52.3032 20.68C52.2889 20.6655 52.2711 20.6552 52.2515 20.6502C52.232 20.6452 52.2114 20.6456 52.1921 20.6515L48.657 21.7124C48.6341 21.719 48.6101 21.7206 48.5866 21.7171C48.5632 21.7136 48.5407 21.7051 48.5208 21.6921C48.501 21.6792 48.4841 21.6621 48.4714 21.642C48.4587 21.622 48.4504 21.5994 48.4472 21.5758C48.3674 20.9758 49.4826 20.4871 49.9114 20.318C50.8252 19.9597 51.7071 19.6369 52.557 19.3497C52.7303 19.291 52.8459 19.1737 52.9037 18.9976L53.3758 17.5777C53.3993 17.5072 53.4367 17.4423 53.4859 17.3871C53.535 17.3319 53.5948 17.2876 53.6614 17.2567C53.7281 17.2259 53.8003 17.2093 53.8736 17.2079C53.9468 17.2065 54.0196 17.2204 54.0874 17.2488L54.4796 17.4132C54.8081 17.5507 54.9381 17.797 54.8696 18.1521C54.8377 18.3174 54.7777 18.4695 54.6895 18.6085C54.6813 18.6217 54.6769 18.6369 54.6769 18.6526C54.6768 18.6682 54.681 18.6835 54.6891 18.6967C54.6972 18.71 54.7088 18.7207 54.7225 18.7276C54.7363 18.7345 54.7517 18.7374 54.767 18.7359Z" fill="#929AAB"/>
<path d="M74.9649 17.9877L74.4792 17.9576C74.4574 17.9565 74.4361 17.9508 74.4167 17.941C74.3972 17.9311 74.3799 17.9172 74.366 17.9003C74.3521 17.8833 74.3418 17.8636 74.3357 17.8423C74.3297 17.8211 74.328 17.7988 74.3309 17.7769L74.3446 17.6773C74.3482 17.6507 74.357 17.6251 74.3705 17.602C74.384 17.5789 74.4019 17.5588 74.4231 17.5429C74.4444 17.5269 74.4685 17.5154 74.4942 17.509C74.5199 17.5027 74.5466 17.5016 74.5727 17.5059L76.0004 17.7422C76.0349 17.7484 76.067 17.765 76.0923 17.7898C76.1177 17.8145 76.1351 17.8463 76.1425 17.881C76.1499 17.9157 76.1468 17.9517 76.1337 17.9843C76.1205 18.017 76.0979 18.0448 76.0688 18.0641L75.0562 18.7451C74.9072 18.8471 74.9224 18.905 75.1018 18.9189L75.8932 18.9814C75.9662 18.9876 75.9996 19.0277 75.9935 19.1019L75.9844 19.1992C75.9753 19.3011 75.9206 19.3505 75.8202 19.3474L74.6069 19.3057C74.1264 19.2887 74.0572 19.1088 74.3993 18.766C74.5864 18.5791 74.7969 18.4263 75.0311 18.3074C75.399 18.119 75.377 18.0124 74.9649 17.9877Z" fill="#929AAB"/>
<path d="M75.8322 19.6492L74.3157 19.5604C74.2415 19.5561 74.1779 19.6137 74.1737 19.689L74.1671 19.8046C74.1628 19.88 74.2195 19.9446 74.2937 19.9489L75.8101 20.0377C75.8843 20.0421 75.9479 19.9845 75.9522 19.9092L75.9588 19.7935C75.963 19.7182 75.9064 19.6536 75.8322 19.6492Z" fill="#929AAB"/>
<path d="M74.5544 21.8815C74.5403 21.8811 74.5263 21.8838 74.5133 21.8892C74.5003 21.8947 74.4887 21.9029 74.4792 21.9132C74.4696 21.9235 74.4625 21.9358 74.4581 21.9491C74.4538 21.9624 74.4524 21.9765 74.4541 21.9904L74.5157 22.4907C74.5233 22.551 74.5567 22.5795 74.616 22.5764L75.7655 22.5116C75.881 22.5054 75.9365 22.561 75.932 22.6784L75.9274 22.7965C75.9263 22.8326 75.9116 22.867 75.8862 22.8928C75.8608 22.9185 75.8267 22.9338 75.7906 22.9355L74.6639 22.9888C74.5818 22.9934 74.5316 23.0359 74.5134 23.1162C74.4891 23.2181 74.4761 23.2714 74.4746 23.276C74.3195 23.7593 74.2199 23.7516 74.1758 23.2528C74.1287 22.7031 74.1325 22.1556 74.1872 21.6105C74.1979 21.4978 74.2572 21.4561 74.3651 21.4854C74.4716 21.5132 74.5811 21.5225 74.6936 21.5132C74.8 21.504 74.8509 21.4453 74.8464 21.3372L74.8236 20.8716C74.8216 20.8314 74.8055 20.7932 74.778 20.7636C74.7505 20.7339 74.7133 20.7148 74.673 20.7094L74.283 20.6585C74.166 20.643 74.1165 20.5766 74.1348 20.4593L74.1462 20.3944C74.1644 20.2817 74.2298 20.2284 74.3423 20.2346L75.8613 20.3342C75.8859 20.3361 75.9091 20.3466 75.927 20.3639C75.9448 20.3812 75.9563 20.4043 75.9594 20.4292L75.9708 20.5079C75.9733 20.5302 75.9714 20.5527 75.965 20.5741C75.9587 20.5955 75.9481 20.6153 75.934 20.6323C75.9198 20.6493 75.9024 20.6631 75.8829 20.6727C75.8633 20.6824 75.842 20.6878 75.8202 20.6886L75.3208 20.7118C75.3017 20.7123 75.2829 20.7168 75.2656 20.7248C75.2482 20.7329 75.2326 20.7443 75.2196 20.7586C75.2067 20.7728 75.1967 20.7895 75.1901 20.8077C75.1836 20.8259 75.1807 20.8453 75.1816 20.8646L75.1976 21.3511C75.1988 21.389 75.2147 21.4249 75.2419 21.4513C75.2692 21.4777 75.3056 21.4924 75.3436 21.4924L75.7587 21.4877C75.7992 21.4877 75.8383 21.5036 75.8676 21.5321C75.8969 21.5606 75.9143 21.5995 75.916 21.6406L75.9183 21.731C75.9244 21.8699 75.859 21.9371 75.7222 21.9325L74.5544 21.8815Z" fill="#929AAB"/>
<path d="M42.1638 22.0553L41.6575 23.2968C41.6395 23.3403 41.6083 23.3768 41.5686 23.4011L40.0724 24.3114C40.0301 24.338 39.9801 24.3492 39.9307 24.3431C39.8812 24.337 39.8354 24.314 39.8005 24.2778C39.7657 24.2417 39.7441 24.1945 39.7392 24.1442C39.7343 24.0939 39.7465 24.0434 39.7736 24.001L41.7966 20.7349C41.8222 20.694 41.8602 20.6628 41.9049 20.6459C41.9496 20.6289 41.9985 20.6273 42.0442 20.6412C42.0899 20.6551 42.1298 20.6838 42.158 20.7228C42.1862 20.7619 42.201 20.8093 42.2003 20.8577L42.1798 21.9742C42.1795 22.002 42.1741 22.0295 42.1638 22.0553Z" fill="#EFEFEF"/>
<path d="M51.3163 22.4027C50.6138 23.9709 50.5317 25.1662 50.4998 26.739C50.4994 26.7663 50.4928 26.7933 50.4806 26.8176C50.4683 26.842 50.4507 26.8632 50.4291 26.8795C50.4075 26.8959 50.3825 26.9069 50.356 26.9119C50.3295 26.9169 50.3022 26.9155 50.2763 26.9081C48.7847 26.4772 49.6742 23.0652 49.9957 21.9325C50.1189 21.5047 50.3873 21.3665 50.8008 21.5179L50.9764 21.5804C51.3824 21.7286 51.4957 22.0027 51.3163 22.4027Z" fill="#929AAB"/>
<path d="M75.2193 25.4093C75.0989 25.4176 74.9778 25.399 74.8631 25.3546C74.7483 25.3102 74.6421 25.2407 74.5505 25.1503C74.4588 25.0598 74.3836 24.9501 74.3291 24.8274C74.2745 24.7047 74.2418 24.5714 74.2326 24.4351C74.2235 24.2989 74.2381 24.1623 74.2758 24.0332C74.3134 23.9041 74.3733 23.7851 74.452 23.6828C74.5306 23.5806 74.6266 23.4971 74.7344 23.4373C74.8421 23.3774 74.9595 23.3423 75.08 23.334C75.2004 23.3256 75.3214 23.3442 75.4362 23.3887C75.5509 23.4331 75.6572 23.5025 75.7488 23.593C75.8404 23.6835 75.9156 23.7932 75.9702 23.9159C76.0247 24.0386 76.0575 24.1719 76.0666 24.3081C76.0758 24.4444 76.0611 24.581 76.0235 24.7101C75.9858 24.8392 75.926 24.9582 75.8473 25.0605C75.7686 25.1627 75.6726 25.2462 75.5649 25.306C75.4571 25.3658 75.3397 25.4009 75.2193 25.4093ZM75.7426 24.3601C75.7426 24.2016 75.6806 24.0495 75.5703 23.9375C75.4599 23.8254 75.3102 23.7624 75.1542 23.7624C74.9981 23.7624 74.8485 23.8254 74.7381 23.9375C74.6278 24.0495 74.5658 24.2016 74.5658 24.3601C74.5658 24.5186 74.6278 24.6706 74.7381 24.7826C74.8485 24.8947 74.9981 24.9577 75.1542 24.9577C75.3102 24.9577 75.4599 24.8947 75.5703 24.7826C75.6806 24.6706 75.7426 24.5186 75.7426 24.3601Z" fill="#929AAB"/>
<path d="M75.1542 24.9577C75.4792 24.9577 75.7426 24.6901 75.7426 24.36C75.7426 24.03 75.4792 23.7624 75.1542 23.7624C74.8292 23.7624 74.5658 24.03 74.5658 24.36C74.5658 24.6901 74.8292 24.9577 75.1542 24.9577Z" fill="#EFEFEF"/>
<path d="M74.7871 26.7251L74.8418 26.7876C74.8801 26.8311 74.902 26.8877 74.9034 26.9475C74.9171 27.281 75.0174 27.7304 75.3915 27.8184C76.0871 27.9806 76.0141 27.1791 75.932 26.783C75.9122 26.6872 75.9464 26.6185 76.0346 26.5768L76.0985 26.5467C76.1654 26.5143 76.2171 26.5313 76.2536 26.5977C77.3255 28.5411 74.0436 28.9581 74.6343 26.7343C74.6525 26.6602 74.6335 26.5977 74.5773 26.5467C74.5073 26.4834 74.4708 26.4054 74.4678 26.3128C74.4674 26.2747 74.4805 26.2378 74.5049 26.2088C74.5292 26.1799 74.563 26.1608 74.6001 26.1553L75.6834 25.9908C75.7746 25.9753 75.8202 25.9205 75.8202 25.8263L75.8157 25.4696C75.8149 25.4252 75.8257 25.3814 75.8469 25.3424C75.8681 25.3034 75.899 25.2706 75.9366 25.2472L75.9959 25.2125C76.0102 25.2034 76.0265 25.1981 76.0434 25.1972C76.0602 25.1962 76.0771 25.1996 76.0923 25.2069C76.1075 25.2143 76.1207 25.2255 76.1305 25.2394C76.1404 25.2534 76.1466 25.2696 76.1487 25.2866L76.2559 26.0973C76.2632 26.1565 76.2477 26.2162 76.2128 26.2638C76.1779 26.3113 76.1263 26.343 76.0688 26.3521L74.8532 26.5421C74.7225 26.5622 74.7004 26.6232 74.7871 26.7251Z" fill="#929AAB"/>
</svg>
