<svg width="105" height="45" viewBox="0 0 105 45" fill="none" xmlns="http://www.w3.org/2000/svg">
<path fill-rule="evenodd" clip-rule="evenodd" d="M85.8887 16.0052H88.3905L91.9917 20.6195L95.4602 16.0052H98L93.1289 22.3265V27.0159H90.8545V22.3077L85.8887 16.0052ZM82.9698 16.0052H84.9789V27.2598H82.9698V22.4015H77.1132V27.2598H75.1041V16.0052H77.1132V20.4882H82.9698V16.0052ZM73.2845 26.7158V24.4273C71.9767 25.5341 69.6454 26.1718 67.6174 25.9842C63.4855 25.5903 62.6705 21.126 65.1345 19.1002C67.0678 17.5245 70.7448 17.9372 73.2466 19.7004V17.4307C66.4612 13.2666 58.5386 18.8938 62.4241 25.309C64.3195 28.4415 69.1147 28.7416 73.2845 26.7158ZM49.4599 27.4473H51.5448V19.813L58.6713 27.4473H60.5667V16.0052H58.5007L58.5576 23.7333L51.431 16.0614H49.4599V27.4473ZM24.8013 16.0052H27.341L31.018 24.5774L34.6761 16.0052H37.2159L32.0036 27.2973H30.1083L24.8013 16.0052ZM38.3152 16.0052H47.6593V17.9935H40.4948V20.6946H45.0247V22.6266H40.4948V25.459H47.6593V27.2973H38.3152V16.0052ZM21.9393 16.0052H23.8157V27.3348H21.9393V16.0052ZM20.1766 19.6442L20.1387 17.3182C18.2244 16.3053 15.7983 15.8176 13.5997 16.099C4.40722 17.2807 6.43525 31.5553 20.404 26.2093V21.8951H15.2487V23.7333H18.395V24.9713C9.41096 27.4286 9.22142 20.0756 12.3488 18.4624C14.9075 17.1494 19.4564 18.6875 20.1955 19.6254L20.1766 19.6442Z" fill="#929AAB"/>
</svg>
