<svg width="105" height="45" viewBox="0 0 105 45" fill="none" xmlns="http://www.w3.org/2000/svg">
<g clip-path="url(#clip0_1_1028)">
<path fill-rule="evenodd" clip-rule="evenodd" d="M25.6636 29.7167C25.6636 28.5048 25.6636 27.2736 25.6636 26.0617C25.6636 25.4846 25.7026 24.9652 25.9947 24.5997C26.6568 23.8302 27.7279 24.4843 27.319 23.5417C26.8126 23.4263 22.9566 23.484 21.905 23.484C21.6713 23.484 21.2039 23.4647 20.9896 23.484C20.6586 23.5225 20.5807 23.8495 20.7949 24.0418C21.1649 24.3689 22.4697 23.7533 22.4308 26.0617C22.4308 26.9466 22.5282 28.928 22.3918 29.659C22.3334 29.7359 22.3918 29.6974 22.2945 29.7551L21.4765 30.1976C21.1065 30.3515 20.7365 30.4669 20.3275 30.5438C18.6137 30.9286 16.9778 30.7939 15.4198 29.986C14.4656 29.5051 14.2514 29.1203 13.745 28.6971C13.5113 28.5048 13.2776 28.1777 13.0829 27.9084C12.4402 27.062 11.9338 25.927 11.6807 24.869C10.7848 21.3679 11.7975 17.3667 14.7966 15.4046C18.2242 13.1924 23.0345 14.0965 24.5925 17.9631C24.7872 18.444 24.6314 18.8864 25.2546 18.7133C25.4104 18.2708 25.3325 15.6354 25.3325 14.9237C25.2352 14.5389 23.1319 13.8656 22.8592 13.8079C19.8406 13 16.3352 12.9038 13.5308 14.0772C10.2006 15.4815 7.90255 18.1939 7.99993 22.8876C8.07783 27.3313 10.7459 29.8513 14.115 31.1209C16.9778 32.2174 20.3664 31.9674 23.3266 30.9863C23.9498 30.7939 25.4494 30.1591 25.6636 29.6974V29.7167Z" fill="#929AAB"/>
<path fill-rule="evenodd" clip-rule="evenodd" d="M48.235 13.9233V13.5771C47.6703 13.3462 45.197 13.4424 44.2232 13.4424C43.7558 13.4424 43.2495 13.3462 43.0742 13.7117C42.9768 14.3273 44.788 13.6156 44.9633 15.3276C45.0606 16.3087 45.0801 20.9063 45.0996 22.2721C45.0996 23.2916 45.2164 24.8498 45.0996 25.8116C44.5738 29.3319 40.893 32.5637 36.9201 30.3707C35.5569 29.6205 34.3105 28.197 34.0963 26.1579C34.0184 25.4461 34.0379 16.8281 34.0768 15.6162C34.1352 13.654 35.6738 14.2311 35.9269 13.8849C36.297 13.3655 35.0895 13.4424 34.7584 13.4424C33.2005 13.4424 30.7077 13.3655 29.3639 13.4424C28.8576 13.4617 28.4875 13.9618 29.4808 14.058C30.0455 14.1157 30.3766 14.3658 30.5713 14.7313C30.8829 15.2892 30.7661 17.309 30.7661 18.0977C30.7661 19.7713 30.6882 23.7148 30.7661 25.1191C31.3309 33.8141 44.5153 34.3912 46.1902 25.927C46.4044 24.8305 46.346 20.5023 46.3654 19.1173C46.3654 17.9438 46.3654 16.7511 46.4044 15.5777C46.4433 13.8656 47.7482 14.1734 48.274 13.9233H48.235Z" fill="#929AAB"/>
<path fill-rule="evenodd" clip-rule="evenodd" d="M67.1451 29.1973C67.1451 28.524 67.2814 25.8309 67.0088 25.4846C66.6582 25.5423 66.7361 25.927 66.3856 26.5426C62.3738 33.7179 53.4348 31.6788 52.6558 23.2531C52.4611 21.1756 52.9869 19.1557 53.8827 17.6745C55.9665 14.2119 61.03 12.7499 64.2044 15.6547C64.8276 16.2125 65.3339 16.8858 65.6845 17.6553C65.7624 17.8476 65.8598 18.0208 65.9182 18.2516C65.9961 18.5594 65.9182 18.771 66.2882 18.7325C66.5024 18.367 66.4051 17.4052 66.4051 16.905C66.4051 16.4818 66.4635 15.3276 66.4051 14.9814C66.3661 14.7121 66.2882 14.7505 65.8792 14.5197C65.665 14.385 65.4508 14.2889 65.2366 14.1927C62.9775 13.1731 59.3552 12.6537 56.8819 13.2501C52.7921 14.2311 49.8125 16.7896 49.3062 21.2718C48.7219 26.408 51.4484 29.5628 55.0318 30.9863C58.4788 32.3521 61.2248 31.9481 64.5744 30.5438L66.5024 29.5628C66.7361 29.4089 66.9309 29.2742 67.1256 29.1588L67.1451 29.1973Z" fill="#929AAB"/>
<path fill-rule="evenodd" clip-rule="evenodd" d="M87.7104 29.1973C87.7104 28.5432 87.8468 25.7924 87.5741 25.4654C87.282 25.5231 87.2625 25.9271 86.9509 26.5234C86.7562 26.9274 86.542 27.2159 86.3083 27.5622C82.277 33.3139 74.0586 31.4865 73.2406 23.2724C72.8706 19.5982 74.6234 15.9047 78.1873 14.5582C81.4006 13.327 84.8282 14.5582 86.2498 17.5591C86.6588 18.4055 86.4641 18.6171 86.7951 18.771C87.1457 18.6171 87.0094 17.7899 87.0094 17.0974C87.0094 16.4626 87.0094 15.8086 87.0094 15.1738C87.0094 14.7313 86.7172 14.6159 85.9967 14.2889C83.7181 13.2501 80.1542 12.673 77.6225 13.2308C74.6428 13.9041 72.1501 15.4238 70.7673 18.1362C70.3194 19.0019 70.0468 20.0791 69.891 21.1756C69.5989 23.4648 70.1052 25.9271 71.1763 27.5045C72.2085 29.0434 73.7859 30.313 75.5581 30.9671C77.7588 31.775 79.6868 32.1597 82.2185 31.5442C84.0102 31.1017 85.5293 30.4861 87.0678 29.5628C87.3015 29.4281 87.4962 29.2742 87.7104 29.1781V29.1973Z" fill="#929AAB"/>
<path fill-rule="evenodd" clip-rule="evenodd" d="M89.9307 31.1017C89.8917 31.8135 90.6318 31.6403 91.216 31.6403C92.1703 31.6403 96.2795 31.6981 96.6495 31.6019C96.9611 31.5249 97.409 30.9286 96.3184 30.7939C95.7926 30.7362 95.4226 30.4861 95.2278 30.0629C94.9552 29.4666 95.072 27.3506 95.072 26.5426V15.7701C95.072 13.6348 96.6495 14.2889 96.9221 13.9041C97.3116 13.3655 95.9289 13.4617 95.6952 13.4617C94.5462 13.4617 90.9044 13.3847 90.2618 13.4617C89.9891 13.5002 89.7359 13.6925 90.0086 13.9426C90.1449 14.0773 90.5344 14.0388 90.7681 14.0965C91.216 14.1927 91.586 14.5582 91.7029 14.9621C91.8976 15.5777 91.8003 24.6382 91.8003 25.6962C91.8003 26.8889 91.8197 28.1008 91.8003 29.2935C91.8003 29.8321 91.625 30.2553 91.255 30.5439C90.7486 30.9478 90.2423 30.6208 89.9112 31.0825L89.9307 31.1017Z" fill="#929AAB"/>
</g>
<defs>
<clipPath id="clip0_1_1028">
<rect width="89" height="19" fill="white" transform="translate(8 13)"/>
</clipPath>
</defs>
</svg>
