<svg width="105" height="45" viewBox="0 0 105 45" fill="none" xmlns="http://www.w3.org/2000/svg">
<g clip-path="url(#clip0_1_963)">
<path d="M63.5082 6.93826C65.2546 6.0639 66.1278 6.17672 66.156 7.05108C66.1841 8.20749 66.0151 9.70236 65.8743 10.8024C65.1983 16.7819 64.1279 21.6613 64.0434 27.7818C66.9446 20.3357 69.367 15.1177 72.4654 8.74339C73.4512 6.68441 74.0991 7.07929 74.8878 6.71262C78.0706 5.30236 78.1833 6.17672 77.7608 7.89723C76.2398 14.2716 72.3246 34.3818 71.733 37.4562C71.564 38.3588 70.5782 37.9639 70.3529 37.6254C69.198 36.0459 67.9305 36.0177 68.0995 35.0024C68.8037 29.8408 71.3387 16.8947 71.9865 13.8485C68.6065 20.787 65.1419 29.4459 63.3111 34.3818C62.9167 35.3972 62.2126 35.3408 61.79 34.5511C61.1985 33.4793 60.0155 32.9434 59.7902 31.6742C59.1987 27.6408 60.5225 19.969 60.6915 15.1177C58.8607 20.4485 55.7623 30.7152 54.4103 35.369C53.8751 37.3152 51.9879 37.0049 52.4667 35.1152C54.5229 27.2742 58.9452 13.4818 60.8605 8.51775C61.3394 7.36134 62.5224 7.41775 63.5082 6.93826Z" fill="#929AAB"/>
<path d="M52.3259 5.95123C51.7344 5.8102 49.988 6.74097 48.9177 6.9102C48.5797 6.96661 48.2699 7.33328 48.1572 7.61533C46.439 11.5076 44.918 15.2307 43.5941 18.6435C41.9041 18.9256 39.9324 19.3205 37.7354 19.7999C39.3127 15.7384 40.9182 11.7333 42.4674 7.86917C43.2279 6.00763 41.1999 5.8102 40.4112 7.72815C39.3972 10.2384 37.4818 14.9204 35.3693 20.3922C33.8201 20.7589 32.1583 21.2102 30.4401 21.6897C29.2007 22.0563 29.1444 22.3948 29.6796 23.1281C29.9894 23.5512 30.5809 23.4948 30.8907 23.8051C31.6231 24.5948 32.0456 25.4974 33.3694 25.6384C32.1864 28.741 31.0034 31.9845 29.9894 35.0589C29.3134 37.0051 31.2006 37.4281 31.9329 35.341C33.1159 32.041 34.3553 28.6845 35.6228 25.3281C36.6368 25.0743 39.2282 24.5384 41.5661 24.0307C39.7071 29.1358 38.4677 33.0281 38.017 34.9461C37.9325 35.3128 38.0734 35.5102 38.1297 35.6794C38.7775 36.582 39.369 36.6384 40.1859 37.7666C40.4112 38.0769 41.1436 38.2461 41.3971 37.4845C43.1153 32.2384 44.918 27.3307 46.5798 22.9025C47.2558 22.7615 48.5234 22.4512 49.2557 21.2948C50.6077 19.2922 51.0021 19.6871 51.3119 19.0948C51.7344 18.3051 51.4527 17.5999 50.0162 17.7692C50.0162 17.7692 49.481 17.8256 48.467 17.9384C50.0725 13.7922 51.4527 10.2948 52.4386 7.64353C52.8329 6.71276 52.8611 6.09225 52.3259 5.95123Z" fill="#929AAB"/>
<path d="M48.5517 30.9129C48.0447 31.2231 47.6222 30.8847 48.3264 29.9257C48.439 29.7565 48.5799 29.5872 48.6925 29.4462C48.8052 29.8129 48.946 30.2077 49.0587 30.5744C48.8615 30.659 48.7207 30.7719 48.5517 30.9129ZM49.4812 26.3154C49.3685 26.4565 49.2277 26.5975 49.115 26.7103C49.0869 26.6257 49.0587 26.4847 49.0305 26.4283C48.6362 24.9334 50.3544 25.3001 49.4812 26.3154ZM50.3826 29.277C50.2981 29.3898 50.1291 29.5026 50.0164 29.6436C49.8756 29.1924 49.7065 28.7411 49.5939 28.318C49.9882 27.8103 50.3826 27.3308 50.7206 26.7949C52.1008 24.6231 49.3967 23.3821 48.1855 24.7924C47.594 25.5257 47.7348 26.2872 47.9039 26.8795C47.932 27.1052 48.0165 27.359 48.1574 27.6975C47.7912 28.036 47.3968 28.4872 46.8617 29.0795C45.5378 30.659 45.904 32.6334 47.3123 33.1129C48.1855 33.3949 49.0024 33.0001 49.7065 32.3513C49.7629 32.436 49.791 32.5206 49.8192 32.6334C50.1854 33.5642 51.3684 33.3103 50.9177 32.1539C50.8332 31.9847 50.7487 31.7026 50.6361 31.3924C50.8614 31.0821 51.0586 30.8283 51.2276 30.5462C52.0726 29.277 51.2557 28.5154 50.3826 29.277Z" fill="#929AAB"/>
</g>
<defs>
<clipPath id="clip0_1_963">
<rect width="59.7143" height="32.1538" fill="white" transform="translate(23.2856 5.92307)"/>
</clipPath>
</defs>
</svg>
