<svg width="105" height="45" viewBox="0 0 105 45" fill="none" xmlns="http://www.w3.org/2000/svg">
<g clip-path="url(#clip0_1_996)">
<path d="M17.1536 6.94259C18.9642 7.28703 19.744 9.21209 19.6397 10.8654C19.2074 17.9418 17.0339 25.4967 15.9414 31.1111C15.8024 31.8153 15.7227 32.73 15.7021 33.8552C15.6866 34.7507 15.5013 35.5123 14.4783 35.4779C14.347 35.4728 14.2226 35.418 14.1309 35.3248C11.3513 32.3817 13.683 24.4136 14.4899 20.8735C15.3881 16.9468 15.8217 12.6489 15.7909 7.97975C15.787 7.27938 16.4394 6.80481 17.1536 6.94259Z" fill="#929AAB"/>
<path d="M52.9632 29.9438C53.0959 30.0919 53.2723 30.1948 53.4677 30.2381C53.663 30.2813 53.8673 30.2627 54.0519 30.1849C56.1828 29.2932 58.3486 27.2227 59.9121 26.197C61.047 25.4507 62.7225 25.0986 63.4946 26.4764C64.2937 27.8963 63.151 29.2702 63.7609 30.5944C63.8409 30.7642 63.9792 30.9002 64.1511 30.978C64.323 31.0559 64.5173 31.0705 64.699 31.0193C66.7875 30.4337 71.8139 25.1828 73.7981 27.8772C73.8676 27.9741 74.0414 28.4831 74.3193 29.4042C74.9949 31.6354 77.9983 31.7617 79.998 31.6048C83.5033 31.3267 87.0125 31.2999 90.5255 31.5244C91.2513 31.5704 91.9179 31.6903 92.5253 31.8842C92.6018 31.9087 92.6714 31.9506 92.7286 32.0067C92.7858 32.0628 92.8289 32.1313 92.8544 32.2069C92.88 32.2825 92.8872 32.363 92.8757 32.4419C92.8641 32.5208 92.834 32.5959 92.7878 32.6611C90.7726 35.5047 80.9477 34.923 77.759 34.9497C75.2999 34.9727 73.5781 33.5299 71.9915 31.9531C71.7948 31.7576 71.5349 31.637 71.2574 31.6125C70.98 31.588 70.7027 31.6612 70.4743 31.8191C68.1773 33.4151 64.147 36.8863 61.5334 33.7863C60.9467 33.0859 60.715 32.0258 60.4294 31.1073C60.4027 31.022 60.3573 30.9436 60.2963 30.8779C60.2353 30.8122 60.1603 30.7608 60.0767 30.7274C59.9931 30.694 59.9031 30.6796 59.8132 30.685C59.7233 30.6905 59.6357 30.7158 59.5569 30.759C57.7849 31.7311 56.2562 33.3921 54.6927 34.4331C52.8783 35.6386 50.9596 34.0657 50.3342 32.3779C50.0589 31.6354 49.7796 30.8725 49.4965 30.0893C49.4539 29.971 49.3853 29.8636 49.2958 29.7748C49.2063 29.686 49.0982 29.6181 48.9791 29.5759C48.8601 29.5338 48.7332 29.5185 48.6077 29.5311C48.4822 29.5438 48.3612 29.5841 48.2534 29.6491C46.5278 30.6786 45.2268 32.332 43.5746 33.526C41.6212 34.9421 38.7683 35.7879 36.5331 34.3948C35.7996 33.9394 34.3558 32.5884 33.4988 32.9481C32.4371 33.3959 31.3987 34.6206 29.8776 34.7584C26.5383 35.0646 24.0329 31.6086 25.276 28.4818C27.0518 24.0002 31.2558 20.4448 36.3748 21.038C40.9803 21.57 35.5409 28.6005 36.8767 30.6557C37.6333 31.8191 39.579 31.5704 40.6483 31.0575C43.3893 29.7372 45.5009 27.4256 47.601 25.2977C48.7244 24.1533 50.9712 23.2386 52.0946 24.9762C53.0366 26.4305 51.8707 28.723 52.9632 29.9438ZM30.2058 31.0499C32.1746 30.0127 33.8192 27.6781 34.0392 25.4469C34.0495 25.3412 34.0342 25.2345 33.9947 25.1358C33.9552 25.0372 33.8926 24.9493 33.8121 24.8796C33.7316 24.81 33.6356 24.7605 33.5321 24.7353C33.4285 24.7102 33.3205 24.7101 33.2169 24.7351C31.418 25.1637 28.9627 28.1795 28.3103 29.8252C27.7235 31.2948 29.2136 31.5704 30.2058 31.0499Z" fill="#929AAB"/>
</g>
<defs>
<clipPath id="clip0_1_996">
<rect width="83" height="31" fill="white" transform="translate(11 7)"/>
</clipPath>
</defs>
</svg>
