<svg width="105" height="45" viewBox="0 0 105 45" fill="none" xmlns="http://www.w3.org/2000/svg">
<g clip-path="url(#clip0_1_976)">
<path d="M12.094 17.5089H14.6203V24.0177C14.6203 25.6286 13.2256 26.712 11.4178 26.712C9.56717 26.712 8.2959 25.7343 8.2959 24.071V23.4747H10.5458V24.015C10.5363 24.2163 10.614 24.4127 10.7607 24.558C10.907 24.7033 11.1095 24.7848 11.3206 24.7831C11.5321 24.7885 11.7366 24.7088 11.8838 24.563C12.0305 24.4177 12.1068 24.2196 12.094 24.0177V17.5089ZM22.0753 26.4841L21.4812 24.9402H17.8913L17.2838 26.4841H14.7436L18.6509 17.5089H20.9775L24.7398 26.4841H22.0753ZM19.7487 20.3339H19.7157L18.5689 23.2127H20.8326L19.7487 20.3339ZM34.1575 23.4747C33.5224 25.389 31.575 26.7092 29.3249 26.7092C26.5876 26.7092 24.3405 24.7543 24.3405 22.009C24.3405 19.2633 26.6453 17.2848 29.3798 17.2848C31.5887 17.2848 33.4952 18.579 34.1436 20.4806H31.2695C30.8411 19.8734 30.1302 19.5039 29.3646 19.4898C28.1081 19.4898 27.0173 20.5066 27.0173 21.9986C27.0173 23.4902 28.1123 24.4937 29.3646 24.4937C30.1479 24.4873 30.8754 24.1042 31.3 23.4747H34.1575ZM40.3655 26.4841L37.701 22.82H37.6448V26.4841H35.1181V17.5089H37.6448V20.9553H37.6997L40.3093 17.5089H43.1263L39.7166 21.6282L43.334 26.4841H40.3655ZM57.3954 17.5089H59.9218V24.0177C59.9218 25.6286 58.5272 26.712 56.718 26.712C54.8673 26.712 53.5975 25.7343 53.5975 24.071V23.4747H55.8474V24.015C55.8378 24.2163 55.9156 24.4127 56.0623 24.558C56.2086 24.7033 56.4111 24.7848 56.6222 24.7831C56.8337 24.7885 57.0382 24.7088 57.1849 24.563C57.3321 24.4177 57.4084 24.2196 57.3954 24.0177V17.5089ZM65.9135 26.712C63.0971 26.712 60.8319 24.7571 60.8319 22.0114C60.8319 19.2661 63.1014 17.2848 65.9135 17.2848C68.7262 17.2848 71.0391 19.2647 71.0391 22.0114C71.0391 24.758 68.7305 26.712 65.9135 26.712ZM68.377 22.0009C68.377 20.4687 67.2725 19.5058 65.9327 19.5058C64.5927 19.5058 63.5116 20.5066 63.5116 21.9986C63.5116 23.4902 64.5889 24.4847 65.9288 24.4847C67.2687 24.4847 68.3718 23.4902 68.3718 21.9986L68.377 22.0009ZM78.2931 26.4841L74.406 21.5494H74.3363V26.4841H71.9477V17.5089H74.1296L78.0505 22.4733H78.1206V17.5089H80.5087V26.4841H78.2931ZM81.7995 26.4841V17.5089H88.9681V19.5686H84.3149V20.9294H87.5463V22.9512H84.3149V24.4295H88.9681V26.4841H81.7995ZM95.1953 20.4269C94.9738 19.7266 94.4359 19.2492 93.4271 19.2492C92.599 19.2492 92.1706 19.6323 92.1706 20.0552C92.1706 20.5038 92.6676 20.728 93.4548 20.8405L94.1457 20.933C96.5761 21.2628 97.7041 21.933 97.7041 23.5858C97.7041 25.5407 95.8319 26.7156 93.5396 26.7156C91.373 26.7156 89.7357 25.5539 89.5843 23.4678H91.9871C92.1835 24.2628 92.943 24.8123 93.7968 24.7767C94.5836 24.7767 95.1777 24.4063 95.1777 23.8382C95.1777 23.4286 94.8736 23.1657 93.6448 22.9931L92.5813 22.8423C90.7035 22.5808 89.6538 21.7234 89.6538 20.1676C89.6538 18.5608 91.1729 17.2889 93.5476 17.2889C96.0739 17.2889 97.3795 18.7007 97.552 20.4295L95.1953 20.4269ZM52.6584 25.1088L51.3309 23.8355L52.4777 22.7376L50.9039 21.2368L49.757 22.3348L48.0064 20.6611C47.7395 20.3996 47.5853 20.2333 47.5795 19.9831C47.578 19.6428 47.8602 19.3631 48.2161 19.3526C48.5334 19.3526 48.7006 19.4638 48.9398 19.7098L49.2028 19.9608L50.7395 18.4903L50.5261 18.2862C49.909 17.6352 49.028 17.2703 48.1094 17.2848C46.2753 17.2848 45.1723 18.6251 45.1723 19.9964C45.1723 20.6296 45.4157 21.2447 46.0753 21.8792L48.1517 23.8669L47.9407 24.0688C47.589 24.4168 47.3836 24.6455 46.9829 24.6522C46.4997 24.6601 46.07 24.3498 46.0605 23.8669C46.0605 23.5516 46.1972 23.3435 46.4602 23.082L46.5174 23.0268L45.0803 21.6491L44.9355 21.7877C44.388 22.2852 43.8252 23.0742 43.8252 24.1247C43.8252 25.5448 45.0232 26.7106 46.9005 26.7106C48.0297 26.7106 48.8346 26.2304 49.6064 25.4791L49.7212 25.3708L51.0573 26.6436L52.6584 25.1088Z" fill="#929AAB"/>
</g>
<defs>
<clipPath id="clip0_1_976">
<rect width="90" height="10" fill="white" transform="translate(8 17)"/>
</clipPath>
</defs>
</svg>
