<svg width="105" height="45" viewBox="0 0 105 45" fill="none" xmlns="http://www.w3.org/2000/svg">
<g clip-path="url(#clip0_1_1010)">
<path d="M54.2724 5.60399C54.2572 5.52113 54.2455 5.43476 54.2396 5.34723C54.1555 4.13926 55.0659 3.09119 56.2767 3.00599C57.4875 2.92196 58.537 3.83231 58.6212 5.04144C58.7053 6.24941 57.7949 7.29748 56.5841 7.38268C56.5081 7.38852 56.4322 7.38968 56.3574 7.38618C56.3083 7.39902 56.2791 7.40486 56.237 7.4422C56.1131 7.63594 56.5537 7.59976 56.2534 8.44709C56.2534 8.44709 56.251 8.54046 56.2183 8.63266C56.1949 8.95829 56.0699 9.92116 56.0512 10.4347C56.1143 10.5094 56.133 10.5456 56.126 10.7253C56.0979 10.9692 56.0418 11.5668 55.9518 11.9496C55.8759 12.2776 55.7414 12.3406 55.6328 12.4211C55.4808 13.1004 55.4411 13.6641 55.0507 14.4893C55.0157 15.1148 54.9713 15.2852 54.8404 15.591C54.8263 16.5119 54.8895 16.6496 54.2665 18.1085C54.1052 18.7913 54.2583 19.2628 54.4278 19.9724C54.6008 20.7007 55.0823 21.0053 55.1547 21.7522C55.323 23.5099 55.281 24.7062 54.9035 26.0834L55.2331 26.863C55.6421 27.0498 56.6566 27.5621 56.0944 28.3733C56.8868 28.7888 58.0836 29.2311 59.0711 30.0749C59.4685 30.4052 59.8881 30.7647 60.2644 31.1884C60.9808 31.3004 60.9049 31.3564 61.4366 31.6832C62.9992 32.6403 65.5038 34.538 66.9565 35.8814C67.2066 36.0272 67.3083 36.1323 67.5105 36.2385C67.5421 36.2992 67.5502 36.3132 67.5432 36.3295C67.4743 36.5046 67.4766 36.5104 67.4135 36.6493C67.4918 36.7357 67.6379 36.8162 67.7255 36.8921C67.8074 36.9178 67.8074 36.8781 67.9476 36.8442C68.1299 37.0146 68.3555 37.1523 68.4373 37.1442C68.6851 37.0811 68.6418 37.1325 68.851 36.8991C68.9258 36.822 69.052 36.8991 69.052 36.8991C69.1303 36.8069 69.2986 36.6236 69.5242 36.4918C69.703 36.3855 70.0455 36.375 70.0455 36.375C70.16 36.375 70.139 36.4929 70.1284 36.5314C69.9987 36.598 69.7241 36.6715 69.571 36.7847C69.2355 37.1313 68.9726 37.5982 68.9726 37.5982C69.6481 37.506 70.063 37.674 70.6263 37.6087C70.9337 37.5912 71.1604 37.611 71.4818 37.3776C71.4818 37.3776 71.7915 37.157 72.0697 37.0403C72.3397 36.9224 72.5956 36.9854 72.8329 37.1582C73 37.3473 73.1017 37.3484 72.8469 37.6145C72.7546 37.7184 72.6213 37.8339 72.4519 38.0008C72.1538 38.2949 71.753 38.6871 71.3369 39.0116C70.9162 39.3395 70.4381 39.6348 70.1401 39.769C69.3875 40.3082 69.5651 40.167 68.9737 40.7027C68.8989 40.7692 68.7014 40.8883 68.6056 40.9525C68.3718 41.1054 68.2994 40.9781 68.1475 40.698C68.1475 40.698 68.0785 40.593 67.9628 40.3701C67.8377 40.1262 67.7431 39.8472 67.7816 39.8519C67.6414 39.8344 67.0115 39.0956 67.0091 38.9369C66.8759 38.9065 66.3067 38.3568 66.2868 38.2518L65.7831 37.8479C65.2069 37.9682 65.0737 37.6098 63.552 36.5314C63.3779 36.5279 63.1103 36.4346 62.7246 36.1498C62.0374 35.6001 60.3895 34.3571 60.1101 34.2147C59.8098 34.0618 59.451 33.9183 59.2313 33.7374C58.9017 33.6767 58.7217 33.6428 58.5569 33.5961C58.3886 33.5506 58.2355 33.4911 57.8089 33.4339C57.1147 33.3475 56.3948 33.0604 55.7099 32.7185C55.385 32.5644 55.1033 32.4862 54.824 32.3672C54.1976 32.1034 53.66 31.8653 53.2439 31.7684C53.0849 31.7533 52.3299 31.5268 51.9337 31.2957C51.797 31.2246 51.7175 31.158 51.6264 31.137C51.4183 31.0892 51.2851 31.1709 51.1916 31.2024C50.6832 31.4661 50.2075 31.6949 49.7681 31.9307C49.359 32.1489 48.9827 32.3765 48.583 32.6053C48.223 32.813 47.807 33.0091 47.3804 33.2122C47.3804 33.2122 46.1614 33.8226 45.4952 34.0595C44.9179 34.5298 43.7375 35.3445 43.0164 35.7483C42.6599 35.9175 41.9657 36.3564 41.6466 36.4544C41.4643 36.6015 40.8145 37.0648 40.3049 37.4465C39.9123 37.7406 39.6142 37.988 39.6142 37.988C39.3863 38.1922 39.4015 38.2891 38.9668 38.1047C38.8464 38.2039 38.7529 38.2658 38.6757 38.3218C38.3625 38.5494 38.3356 38.4945 38.2211 38.4887C38.0026 38.6778 37.9745 38.5797 37.784 38.798C37.659 38.9917 37.7863 38.9462 37.5222 39.0396C37.4661 39.0606 37.4404 39.1283 37.3972 39.1656C37.1845 39.3407 37.1833 39.8355 36.6737 39.8706C36.378 40.0806 36.454 40.3351 36.2284 40.3234C36.2425 40.5416 35.8287 40.8603 35.7551 40.8591C35.1053 41.0832 35.0597 40.6058 34.279 40.9618C34.1785 41.0073 34.0301 41.1357 33.8349 41.1719C33.4913 41.2361 33.0764 41.1684 32.8239 40.9735C32.4254 40.6665 32.0596 40.076 32.0596 40.076C31.9334 39.7772 32.007 39.5881 32.402 39.3057C32.5668 39.2006 32.5972 39.1224 32.8742 39.1038C33.0109 39.0524 32.9747 39.1318 33.219 39.0431C33.3616 38.9917 33.3616 39.0291 33.6479 39.0046C33.7133 38.9602 33.8057 38.945 33.9296 38.9042C34.1563 38.8295 34.3772 38.7466 34.3772 38.7466C34.3772 38.7466 34.4344 38.6883 34.653 38.7093C34.8377 38.6334 35.027 38.5225 35.124 38.4875C35.0995 38.1957 35.131 38.2098 35.2666 38.0919C35.4349 37.9471 35.4653 37.9705 35.5915 38.0604C35.6441 38.03 35.6698 38.0195 35.6639 37.9752C35.6429 37.8234 35.5132 37.7522 35.5517 37.4173C35.4933 37.2831 35.408 37.1173 35.4267 37.0181C35.4536 36.9107 35.4805 36.8582 35.5459 36.8244C35.616 36.787 35.6382 36.8372 35.6756 36.8792C35.7422 36.9563 35.796 37.1862 35.796 37.1862C35.8194 37.4453 35.9 37.7791 36.156 37.5912C36.3067 37.4383 36.336 37.031 36.6445 37.1185L36.8642 37.3087C37.0501 37.1337 37.0594 37.1337 37.1716 37.0636C37.1716 37.0636 36.9975 36.8874 37.1506 36.7497C37.2557 36.6563 37.382 36.5898 37.6064 36.3412C38.2234 35.6608 38.5402 35.3596 39.2063 34.8111C40.5364 33.7187 42.051 32.9519 43.0129 32.5702C43.3261 32.1723 43.6311 31.9085 44.3277 31.842C45.1551 30.4461 46.7399 29.2008 47.1034 29.0012C47.3991 28.4655 47.5277 28.5227 47.9157 28.4153C48.2219 28.169 48.292 28.169 48.4299 27.9134C48.5631 27.3836 48.1225 25.969 49.248 25.8978C49.4876 25.5605 49.428 25.6411 49.6945 25.3224C49.5145 24.8778 49.4397 24.5055 49.3906 24.1857C49.3813 24.1483 48.943 23.8402 49.068 23.4375C48.8822 23.2158 48.5339 22.6999 48.4252 22.4583C48.375 22.4583 48.3341 22.4408 48.2791 22.4327C48.2219 22.4233 48.1518 22.4268 48.0723 22.4198C47.897 22.8715 47.7053 22.9053 47.3933 23.0057C46.8358 24.1915 46.6406 24.6922 45.064 25.6726C44.4387 26.3717 44.2389 27.1513 44.2412 27.1396C44.1337 27.3707 44.1711 27.694 44.2284 27.8668C44.1465 28.1235 44.1676 28.1492 44.1676 28.1492C44.2015 28.2461 44.2915 28.3745 44.4013 28.4013C44.5907 28.4515 44.78 28.4433 44.7683 28.6534C44.7426 28.9172 44.3966 28.874 44.233 28.8448C43.6019 28.7444 43.8018 28.3348 43.3986 28.4713C43.09 28.6732 42.9743 29.2685 42.4694 29.1914C42.4028 29.1471 42.4238 29.0175 42.4694 28.923C42.5395 28.7759 42.6658 28.6546 42.591 28.5997C42.2637 28.7024 41.6069 28.9207 41.6069 28.9207C41.2984 29.0047 40.9594 28.8506 41.2633 28.6487C41.4047 28.5939 41.6069 28.525 41.8558 28.3663C41.8558 28.3663 41.9844 28.1924 41.7378 28.2787C41.469 28.3745 41.0728 28.434 40.7888 28.4025C40.7888 28.4025 40.1998 28.3254 40.1238 28.2787C40.0478 28.2321 39.9777 28.0512 40.1624 28.0512C40.3961 28.0535 40.9805 27.9846 41.4328 27.8644C41.6513 27.7792 42.0674 27.5341 42.3011 27.4174C42.3011 27.4174 42.5536 27.0498 42.6938 26.9762C42.9264 26.709 43.1227 26.5514 43.3284 26.2783C43.5295 25.864 43.7375 25.2081 44.4037 24.1927C44.711 23.7247 45.0944 23.1796 45.5759 22.6918C45.5759 22.6918 45.7009 21.911 46.3274 21.3566C46.4653 21.0309 46.6757 20.6481 46.8825 20.2945C46.9632 20.1579 47.0391 20.0401 47.1163 19.9105C47.3103 19.6059 47.5148 19.0387 48.271 18.95C48.271 18.95 48.5947 18.7107 48.7186 18.5415C48.9126 18.3758 48.8682 18.119 49.026 17.9369C48.7852 17.7023 48.1681 17.26 48.1085 16.6461C48.0442 15.9948 48.2768 15.4591 48.6718 15.0623C49.1089 14.6258 49.5706 14.4076 50.1304 14.4402C50.8293 14.5441 50.9614 14.7752 51.1846 15.004C51.3985 15.221 51.4779 15.081 51.5679 15.3354C52.1546 15.4906 52.1219 15.423 52.1172 15.8536C52.2072 15.975 52.358 16.0882 52.3568 16.3391C52.5543 15.9306 52.5929 15.856 53.12 15.4054C53.2451 15.0401 53.3292 14.6807 53.4391 14.3154C53.5419 13.9781 53.6693 13.6303 53.7686 13.3688C53.6635 12.63 53.8797 12.5087 54.1672 11.8609C54.1158 11.7722 54.1274 11.7465 54.1485 11.6006C54.2607 11.1723 54.4348 10.6063 54.5388 10.2374C54.5388 10.2374 54.5727 10.0904 54.7247 10.0799C54.8556 9.61304 55.0531 8.74354 55.087 8.56614C55.2225 8.07711 55.1349 7.92072 55.0309 7.64528C54.997 7.55541 55.0133 7.42703 54.9549 7.32666C54.7913 7.04188 54.6148 6.67191 54.4956 6.40697C54.4185 6.2389 54.2957 5.60399 54.2957 5.60399C54.1917 5.27953 54.2829 5.60399 54.2829 5.60399" fill="#929AAB"/>
</g>
<defs>
<clipPath id="clip0_1_1010">
<rect width="41" height="38.1939" fill="white" transform="translate(32 3)"/>
</clipPath>
</defs>
</svg>
