<svg width="105" height="45" viewBox="0 0 105 45" fill="none" xmlns="http://www.w3.org/2000/svg">
<path fill-rule="evenodd" clip-rule="evenodd" d="M52.6931 23.354C53.2554 23.2672 53.8142 23.1665 54.314 22.9964V23.6837C54.2515 24.4577 53.5261 24.843 52.5889 24.843C51.8427 24.843 51.3012 24.4994 51.3012 24.1557C51.3012 23.6559 51.7802 23.4963 52.6931 23.354ZM79.6971 20.7716C78.222 20.7716 77.8923 21.7295 77.8923 22.6181C77.8923 23.5067 78.2254 24.4508 79.6971 24.4508C81.1688 24.4508 81.5055 23.4928 81.5055 22.6181C81.5055 21.7434 81.1723 20.7716 79.6971 20.7716ZM66.2402 20.782C64.7651 20.782 64.4354 21.74 64.4354 22.6285C64.4354 23.5171 64.7685 24.4612 66.2402 24.4612C67.7119 24.4612 68.0486 23.5032 68.0486 22.6285C68.0486 21.7538 67.7154 20.782 66.2402 20.782ZM99.4816 27.0471C99.1206 27.592 98.4646 27.6371 98.4646 27.6371H94.2369C94.2369 27.6371 94.0912 27.6336 94.0357 27.6267C93.6608 27.592 93.4317 27.3941 93.4317 27.3941C93.4317 27.3941 93.2408 27.4809 92.7791 27.592C92.3175 27.7031 91.5122 27.7898 91.12 27.8141C90.7278 27.8384 90.1169 27.8384 89.3464 27.7482C89.1104 27.7204 88.8119 27.6926 88.0622 27.4705C87.6665 27.3525 87.1735 27.0922 87.059 27.0262C87.0174 27.0019 86.6217 26.759 86.3232 26.45C86.0247 26.1411 85.872 25.8565 85.872 25.8565C85.872 25.8565 85.7713 25.9815 85.74 26.0162C85.6741 26.0925 85.1361 26.6271 84.9383 26.7416C84.7925 26.8284 84.3829 27.1095 83.9282 27.297C83.6679 27.4046 83.0986 27.585 82.8036 27.6441C82.5711 27.6926 81.9116 27.7864 81.6547 27.8002C81.3979 27.8141 80.794 27.8211 80.3393 27.7864C79.8846 27.7517 79.3396 27.6093 79.3396 27.6093V28.8832C79.3049 29.2719 78.9544 29.9592 78.156 30.0321C78.1317 30.0321 78.0762 30.0355 78.0762 30.0355H73.859C73.8173 30.0355 73.7513 30.0251 73.7479 30.0251C73.3487 30.0251 72.7101 29.6121 72.6268 28.8867C72.6233 28.8415 72.6233 28.7652 72.6233 28.7652V27.4809C72.6233 27.4809 72.6233 25.5719 72.6198 25.5754C72.4914 25.7732 72.3387 25.9572 72.1131 26.1967C71.8874 26.4362 71.3425 26.8666 70.8843 27.1061C70.5338 27.29 69.8951 27.5608 68.9753 27.71C68.3887 27.8072 67.6563 27.8384 67.0663 27.7968C66.4762 27.7586 65.8897 27.6059 65.8897 27.6059V28.661C65.8897 28.7409 65.8862 28.8554 65.8862 28.8624C65.8897 29.2615 65.4142 29.9731 64.779 30.0598C64.6991 30.0703 60.3951 30.0598 60.3882 30.0598C59.871 30.0598 59.2219 29.5253 59.1733 28.8936C59.1664 28.8138 59.1699 28.727 59.1699 28.727V27.5746C59.1109 27.5989 58.8679 27.6267 58.8679 27.6267H54.5049C54.0919 27.592 53.842 27.3872 53.842 27.3872C53.6372 27.4705 52.9812 27.6614 52.3529 27.7274C52.1169 27.7517 51.2283 27.8384 50.607 27.8037C50.0621 27.7725 49.2499 27.6926 48.6529 27.5122C48.1566 27.3594 47.5943 27.0887 47.5943 27.0887C47.1639 27.5677 46.7508 27.5677 46.7126 27.5712C46.6745 27.5746 46.5704 27.5816 46.5704 27.5816H41.7041C41.6347 27.585 41.416 27.5677 41.1834 27.4601C40.937 27.3456 40.7114 27.0783 40.7114 27.0783L39.6909 25.7316L39.0418 24.8812V26.4431C39.021 26.9325 38.5351 27.5816 37.768 27.5851C37.6396 27.5851 37.5494 27.5851 37.5494 27.5851H33.6618C33.1169 27.5851 32.4401 27.172 32.4539 26.4327C32.4539 26.3841 32.4539 26.3633 32.4539 26.3633V16.3947C32.4609 15.8498 33.0545 15.2493 33.5647 15.2493C33.6723 15.2493 33.6411 15.2423 33.6411 15.2423H37.7715C38.719 15.2285 39.0453 16.1205 39.0383 16.4259C39.0383 16.5405 39.0383 16.8494 39.0383 16.8494L40.4615 15.5964C40.76 15.2701 41.2702 15.2354 41.2702 15.2354H46.1226C46.8932 15.2354 47.3582 15.9226 47.3825 16.4745C47.4068 17.0819 46.9591 17.4429 46.9591 17.4429L45.5082 18.6404L43.3632 20.3794L45.9317 23.5136C46.1295 22.6494 46.7578 22.0836 46.7578 22.0836C46.4281 21.7712 46.3829 21.4901 46.3482 21.2853C46.3135 21.0805 46.3274 20.7403 46.5391 20.119C46.7508 19.4977 47.1535 19.0361 47.5769 18.689C48.0004 18.3419 48.3926 18.1579 48.9931 17.9323C49.5936 17.7067 50.7181 17.5366 50.9472 17.5089C51.1728 17.4811 52.1343 17.4186 52.2488 17.4186C52.3633 17.4186 53.4533 17.377 54.1926 17.4117C54.9354 17.4464 55.935 17.554 56.5424 17.7102C56.9902 17.8247 57.91 18.0989 58.4723 18.5953C58.9443 19.0083 59.1733 19.4248 59.1733 19.4248V18.8278C59.1699 18.269 59.701 17.5956 60.4229 17.5956H64.5221C64.89 17.6199 65.133 17.79 65.133 17.79C65.2371 17.738 65.6814 17.5956 66.1222 17.5262C66.563 17.4568 66.8893 17.436 67.3648 17.4152C67.8507 17.3909 68.4964 17.4603 68.6213 17.4776C69.3954 17.5818 69.9854 17.8004 70.2353 17.9046C70.4922 18.0122 70.7108 18.1302 70.8427 18.2031C71.0787 18.3315 71.4085 18.5779 71.464 18.6196C71.5855 18.7098 71.8111 18.9146 71.8423 18.9424C71.9464 19.0326 72.1374 19.2374 72.1617 19.2686C72.1895 19.2999 72.3943 19.5359 72.4394 19.6088C72.4672 19.6504 72.6095 19.8483 72.6095 19.8483V18.8521C72.6129 18.7202 72.6372 18.5918 72.6997 18.4287C72.7622 18.2621 72.9045 18.0365 73.0988 17.8872C73.2759 17.7518 73.5743 17.6026 73.8555 17.6026C73.8728 17.6026 73.8868 17.6026 73.9041 17.6026H77.9269C78.2775 17.6026 78.5621 17.7935 78.5621 17.7935C78.9266 17.6338 79.4819 17.5332 79.9123 17.4742C80.3219 17.4152 81.2833 17.3943 81.863 17.4499C82.8661 17.5471 83.6332 17.8594 84.2337 18.1718C84.7682 18.4495 85.3166 18.9354 85.5908 19.2443C85.7817 19.4595 86.1704 20.0045 86.1704 20.0045C86.1704 20.0045 86.2503 19.7962 86.3509 19.6296C86.4516 19.463 86.7258 19.0257 87.2048 18.6716C87.6838 18.3211 87.9406 18.1961 88.4126 18.0052C88.8847 17.8143 89.4574 17.6928 90.0961 17.5818C90.7382 17.4707 91.3144 17.4672 91.6719 17.429C92.0294 17.3943 93.1853 17.4256 93.5879 17.4186C93.9905 17.4152 94.2057 17.4637 94.9936 17.5297C96.0176 17.6165 96.7256 17.8768 96.8332 17.9115C96.913 17.9393 97.5968 18.1475 98.2528 18.7688C98.8776 19.3589 99.0477 20.1017 99.0997 20.3585C99.1691 20.7126 99.19 21.3165 99.19 21.3165V24.7042C99.19 24.7285 99.1865 25.2803 99.2906 25.3914C99.5683 25.6795 99.6378 25.9537 99.6621 26.0613C99.6864 26.1689 99.7766 26.5993 99.4816 27.0505V27.0471ZM46.5808 26.332L41.5721 20.2162L46.0983 16.5231H41.3327L37.7715 19.6956V16.5231H33.7105V26.332H37.7715V23.2255L38.7364 22.4203L41.7145 26.3286H46.5843L46.5808 26.332ZM58.7568 26.332C58.2987 25.86 58.257 25.2283 58.257 24.6694V21.6185C58.257 20.185 58.2987 18.7133 53.1478 18.7133C50.5932 18.7133 47.7297 19.0569 47.6047 21.1464H51.4262C51.4471 20.8306 51.6969 20.3863 52.9638 20.3863C53.6268 20.3863 54.314 20.5737 54.314 21.0735C54.314 21.5456 53.7517 21.6601 53.1929 21.733C51.0964 22.0038 47.1083 21.9205 47.1083 24.2668C47.1083 25.8287 48.8334 26.516 50.9091 26.516C52.2384 26.516 53.5053 26.3147 54.3765 25.6274C54.3974 25.8287 54.4599 26.1272 54.564 26.3286H58.7568V26.332ZM71.6167 20.7299C71.3391 20.3169 70.8843 19.6886 70.1936 19.3346C69.3606 18.9111 68.6491 18.7168 67.7571 18.7168C66.4555 18.7168 66.5075 18.7827 66.3548 18.8035C66.2368 18.8209 65.6259 18.9111 65.1087 19.2201C64.5915 19.5324 64.47 19.7164 64.47 19.7164L64.4284 18.873H60.4646V28.7235H64.5742V25.5025C64.6019 25.5025 64.8935 25.801 65.3551 26.0335C65.8306 26.273 66.4936 26.4813 67.4307 26.5125C68.3644 26.5438 69.083 26.3598 69.2079 26.332C69.8848 26.1897 70.808 25.8287 71.4501 24.9853C71.9326 24.3501 72.1131 23.6282 72.1548 22.6598C72.1825 22.0142 71.8944 21.1395 71.6167 20.7299ZM85.0979 20.716C84.8203 20.303 84.3655 19.6713 83.6748 19.3207C82.8418 18.8973 82.1302 18.7029 81.2382 18.7029C79.9366 18.7029 79.9887 18.7688 79.8359 18.7897C79.7179 18.807 79.1071 18.8973 78.5899 19.2062C78.0727 19.5186 77.9512 19.7025 77.9512 19.7025L77.9096 18.8591H73.9457V28.7096H78.0554V25.4886C78.0831 25.4886 78.3747 25.7871 78.8363 26.0196C79.3119 26.2591 79.9748 26.4674 80.912 26.4986C81.8456 26.5299 82.5641 26.3459 82.689 26.3182C83.3659 26.1758 84.2892 25.8149 84.9314 24.9714C85.4138 24.3362 85.5942 23.6143 85.6359 22.6459C85.6636 22.0003 85.3756 21.1221 85.0979 20.716ZM98.3848 26.3355C97.9266 25.8635 97.8884 25.2317 97.8884 24.6764V21.6254C97.8884 20.1954 97.93 18.7202 92.7791 18.7202C90.2245 18.7202 87.361 19.0639 87.236 21.1534H91.0575C91.0784 20.8375 91.3283 20.3932 92.5952 20.3932C93.2581 20.3932 93.9454 20.5807 93.9454 21.0805C93.9454 21.5525 93.3831 21.6671 92.8243 21.74C90.7278 22.0107 86.7397 21.9274 86.7397 24.2738C86.7397 25.8357 88.4648 26.5229 90.5404 26.5229C91.8698 26.5229 93.1367 26.3216 94.0079 25.6344C94.0287 25.8357 94.0912 26.1342 94.1953 26.3355H98.3882H98.3848ZM90.9291 24.1592C90.9291 24.5028 91.4706 24.8465 92.2169 24.8465C93.1506 24.8465 93.8795 24.4612 93.9419 23.6872V22.9999C93.4421 23.17 92.8832 23.2707 92.3209 23.3574C91.4081 23.4997 90.9291 23.6594 90.9291 24.1592Z" fill="#929AAB"/>
<path d="M14.4986 19.7442C14.4986 19.7268 14.5993 19.411 14.6514 19.2374C14.6653 19.2235 14.6895 19.2062 14.7069 19.2062C14.818 19.2062 14.9048 19.2374 14.9985 19.3693C15.0159 19.3971 15.0783 19.4665 15.0783 19.4977C15.0783 19.529 15.0782 19.5533 15.0054 19.5984C14.9429 19.6331 14.8666 19.6574 14.7972 19.6886C14.7902 19.6921 14.5924 19.7858 14.5577 19.7858C14.5299 19.7858 14.5021 19.7789 14.5021 19.7407L14.4986 19.7442ZM15.6267 22.2919C15.6163 22.2571 15.5018 21.8267 15.5018 21.7677V21.6636C15.5018 21.6463 15.4774 21.4554 15.4566 21.3582C15.4497 21.3339 15.4358 21.313 15.4219 21.2992C15.2484 21.3616 15.0401 21.4901 14.87 21.5699C14.818 21.5942 14.759 21.622 14.7104 21.6497C14.6028 21.7087 14.4952 21.7608 14.3911 21.8059C14.3564 21.8198 14.28 21.8337 14.28 21.8927C14.28 21.9031 14.3876 22.0801 14.5334 22.3161C14.811 22.7639 15.2275 23.4269 15.3039 23.5483C15.3351 23.5969 15.4705 23.8607 15.5468 23.8607C15.644 23.8607 15.6753 23.5518 15.6788 23.524L15.6927 22.8298C15.7205 22.7604 15.7447 22.6875 15.7447 22.6181C15.7447 22.5313 15.6683 22.4064 15.6301 22.3196C15.6301 22.3127 15.6232 22.3057 15.6232 22.2988L15.6267 22.2919ZM22.4471 22.2363C22.0168 22.0732 21.5725 21.917 21.1351 21.7608V21.799C21.1351 21.8163 21.2011 22.0697 21.2462 22.1981C21.2566 22.2328 21.2774 22.2745 21.2948 22.3161C21.3364 22.4099 21.3885 22.5175 21.3885 22.5938C21.3885 22.7882 20.9858 22.9201 20.9129 22.9652C20.9025 22.9722 20.8783 22.9617 20.8678 22.9687C20.7047 23.0867 20.7116 23.2776 20.6874 23.4164L20.6804 23.6212C20.6804 23.6872 20.67 23.8885 20.788 23.8885C20.8505 23.8885 20.8922 23.8711 20.9616 23.8052C21.392 23.4095 21.805 22.9791 22.225 22.5661C22.2736 22.5209 22.4194 22.396 22.461 22.3127C22.468 22.3023 22.4714 22.2884 22.4714 22.278C22.4714 22.2606 22.4645 22.2398 22.4471 22.2328V22.2363ZM30.3782 26.6479C30.3609 26.7416 30.3158 26.8596 30.2568 26.9707L30.2464 26.9846C30.1804 27.1061 30.104 27.1998 30.0346 27.2449C30.0138 27.2588 29.986 27.2831 29.9548 27.3109C29.9166 27.3421 29.8784 27.3768 29.8541 27.3907C29.3994 27.6892 28.8407 27.7621 28.6185 27.7829C28.5907 27.7829 28.5421 27.7933 28.5074 27.8003C28.4797 27.8037 28.4554 27.8107 28.4484 27.8107H27.6571L27.0704 27.7308H26.9455C26.9455 27.7308 26.883 27.7239 26.8518 27.717L26.4977 27.71C26.4457 27.7031 26.3971 27.6996 26.3415 27.6961C26.2513 27.6892 26.1576 27.6857 26.0778 27.6614C26.0326 27.651 25.9875 27.6406 25.9389 27.6336C25.8556 27.6198 25.7688 27.6024 25.6855 27.5642C25.5536 27.5018 25.3766 27.4185 25.2447 27.2623C25.1753 27.179 25.1129 27.0783 25.0643 26.9672L25.0469 26.929C24.974 26.7659 24.9288 26.582 24.9149 26.4223C24.9149 26.4119 24.9115 26.398 24.908 26.3876C24.908 26.3772 24.9011 26.3668 24.9011 26.3563V26.1307L24.8941 26.1238C24.7657 25.9954 24.6234 25.8947 24.4846 25.7975C24.4186 25.7489 24.3492 25.7003 24.2833 25.6483C24.2278 25.6031 24.1721 25.558 24.1166 25.5129H24.1131C24.0576 25.4643 23.9986 25.4157 23.9431 25.3706L23.9188 25.3532L23.9015 25.3775C23.832 25.4817 23.7626 25.5858 23.6932 25.6969C23.5231 25.9606 23.3461 26.2314 23.1309 26.4882C22.9747 26.6722 22.8359 26.8284 22.7075 26.9672L22.697 26.9776C22.6346 27.0436 22.5756 27.1061 22.5166 27.1651C22.4645 27.2137 22.402 27.2623 22.3395 27.3074C22.3048 27.3317 22.2736 27.356 22.2423 27.3803C22.1 27.4948 21.9126 27.5955 21.6939 27.6788C21.5898 27.717 21.4683 27.7447 21.3537 27.7725C21.3364 27.776 21.3225 27.7794 21.3052 27.7864C21.2844 27.7933 21.267 27.8003 21.2462 27.8037C21.1386 27.8176 20.9338 27.8419 20.9164 27.8419L20.4583 27.828H19.4621C19.4621 27.828 19.4412 27.828 19.4274 27.8246C19.4169 27.8246 19.4066 27.8211 19.3962 27.8211C19.3025 27.8141 19.1983 27.8072 19.1046 27.7794C18.7193 27.6579 18.3722 27.408 18.1813 27.113L18.0807 26.9603C18.0598 26.9256 18.039 26.8943 18.0182 26.8631L17.9974 26.8319L17.973 26.8596C17.9418 26.8943 17.9106 26.9325 17.8724 26.9776L17.7995 27.0644C17.7683 27.1026 17.744 27.1408 17.7162 27.179C17.6607 27.2623 17.6017 27.349 17.501 27.415C17.4802 27.4289 17.4559 27.4462 17.4282 27.4636C17.3796 27.4983 17.324 27.5365 17.2754 27.5642C17.1643 27.6267 17.0672 27.6718 16.9734 27.6996C16.9179 27.7135 16.8589 27.7239 16.7999 27.7308C16.7617 27.7343 16.7235 27.7412 16.6853 27.7482C16.5534 27.7725 16.4805 27.7794 16.3348 27.7864C16.2688 27.7898 16.189 27.7968 16.0814 27.8037L15.5191 27.7968L15.0366 27.7551C14.9984 27.7447 14.9637 27.7378 14.929 27.7308C14.8769 27.7204 14.8249 27.7065 14.7728 27.6927L14.7278 27.6822C14.641 27.6614 14.5542 27.6371 14.4709 27.6059C14.4605 27.6024 14.45 27.5955 14.4362 27.5885C14.4223 27.5816 14.4084 27.5712 14.3979 27.5677C14.1966 27.4948 13.9572 27.297 13.6865 26.9811L13.6482 26.936C13.5997 26.877 13.5511 26.818 13.5025 26.752C13.4088 26.6305 13.322 26.4917 13.2387 26.3563L13.2179 26.3216C12.9679 25.9225 12.7354 25.5129 12.5202 25.1276L12.5028 25.0964L12.4786 25.1207C12.4473 25.1484 12.4126 25.1762 12.3779 25.2005C12.3536 25.2213 12.3259 25.2387 12.305 25.2595C12.2738 25.2873 11.7809 25.7246 11.7566 25.801V25.8079V25.8149C11.7566 25.8149 11.7601 25.8357 11.767 25.8531C11.7705 25.8669 11.774 25.8843 11.7774 25.8982C11.7844 25.9572 11.7947 26.0856 11.7947 26.103C11.7947 26.1446 11.7948 26.2522 11.7809 26.3668C11.774 26.4223 11.7531 26.4952 11.7357 26.5611L11.7219 26.6062C11.6871 26.7312 11.649 26.8388 11.5969 26.9395L11.5691 26.9915C11.4858 27.1442 11.3817 27.2692 11.2533 27.3699C11.2151 27.3976 11.17 27.4219 11.1283 27.4427C11.111 27.4497 11.0937 27.4601 11.0798 27.467C10.8646 27.5851 10.639 27.6475 10.3717 27.6718L9.8857 27.6649L9.53861 27.6371C9.5039 27.6336 9.46925 27.6302 9.4276 27.6302C9.38595 27.6302 9.33736 27.6302 9.261 27.6371L8.66053 27.7343L8.11557 27.7412C8.08086 27.7412 8.04612 27.7343 8.00447 27.7274C7.96282 27.7204 7.91079 27.7135 7.86567 27.71C7.61229 27.6927 7.20271 27.5816 6.98751 27.474C6.81396 27.3872 6.58837 27.1963 6.40094 26.9811L6.36272 26.936C6.22041 26.7624 6.11277 26.5854 6.06418 26.4396C5.93228 26.0474 6.04342 25.683 6.05037 25.6656C6.05384 25.6483 6.06071 25.624 6.06765 25.5997C6.07112 25.5823 6.07808 25.565 6.08155 25.5476C6.08849 25.5198 6.09894 25.4921 6.11282 25.4643C6.11976 25.4469 6.12672 25.4296 6.13367 25.4122C6.24821 25.0894 6.70289 24.8152 6.99098 24.7389C7.11594 24.7076 7.23744 24.6486 7.35545 24.5931C7.40751 24.5688 7.45609 24.5445 7.50815 24.5237C7.82054 24.3883 8.08087 24.2564 8.30301 24.121C8.32384 24.1072 8.34464 24.0933 8.36547 24.0759C8.38629 24.0586 8.4071 24.0412 8.43487 24.0273C8.6223 23.9197 8.782 23.8052 8.90348 23.6837C9.34082 23.2429 9.63931 22.7674 9.92739 22.3057C9.97252 22.2363 10.0141 22.1669 10.0593 22.0975C10.0662 22.0871 10.0766 22.0697 10.094 22.0419L10.1218 22.0003C10.2641 21.7816 10.3439 21.6497 10.3578 21.615V21.6046V21.5942C10.3266 21.5039 10.3092 21.4206 10.3058 21.3235C10.3058 21.3026 10.2988 21.2783 10.2953 21.2575C10.2953 21.2436 10.2884 21.2297 10.2884 21.2228L10.3127 20.6952C10.3196 20.6362 10.3265 20.5668 10.3474 20.5078C10.4688 20.1676 10.8472 19.5915 11.2776 19.4387C11.2914 19.4353 11.3054 19.4283 11.3262 19.4179C11.3644 19.4005 11.3921 19.3901 11.4025 19.3901H11.6663C11.6663 19.3901 11.6906 19.4005 11.708 19.4075C11.7253 19.4179 11.7358 19.4214 11.7427 19.4248H11.7496H11.7566C11.7601 19.4248 11.7808 19.4144 11.7982 19.411C11.8225 19.4005 11.8503 19.3901 11.8712 19.3867C11.9683 19.3658 12.062 19.3485 12.1418 19.3346L12.4508 19.3277C12.5098 19.3277 12.5306 19.3311 12.6556 19.3658L12.6764 19.3728L12.6868 19.352C12.7423 19.2374 12.8777 18.8695 12.8916 18.8105V18.8001L12.8881 18.7897C12.8812 18.7792 12.8673 18.7619 12.8464 18.7411C12.8187 18.7098 12.784 18.6716 12.7666 18.6404C12.7388 18.5953 12.718 18.5328 12.7007 18.4564C12.6868 18.394 12.6764 18.2725 12.6764 18.2551C12.6764 18.2343 12.6833 18.1718 12.6903 18.0885C12.6903 18.0781 12.6903 18.0677 12.6903 18.0573C12.6903 18.0295 12.6903 18.0018 12.7076 17.9809C12.7666 17.8907 12.8638 17.7588 12.9436 17.6547C12.9922 17.5887 13.0408 17.5228 13.0582 17.4985L13.0686 17.4811L13.0513 17.4638C13.0513 17.4638 13.0443 17.4568 13.0443 17.4533C13.0339 17.4395 13.02 17.4221 13.0165 17.4082C12.9887 17.3041 12.9784 17.0889 12.9784 17.0785V17.0681C12.9784 17.0472 12.9784 17.0091 12.9853 16.9188C12.9853 16.9015 12.9923 16.8806 12.9992 16.8633C13.0062 16.8425 13.0096 16.8251 13.013 16.8077C13.0269 16.6689 13.1033 16.4919 13.2144 16.3288C13.2213 16.3183 13.2283 16.301 13.2317 16.2871C13.2387 16.2663 13.2457 16.2455 13.2595 16.2281C13.4123 16.0407 13.5684 15.8914 13.735 15.7699C13.7697 15.7456 14.1134 15.5166 14.1758 15.4853C14.1932 15.4749 14.2209 15.461 14.2487 15.4471H14.2522C14.3633 15.3847 14.5264 15.2979 14.641 15.2562C14.7625 15.2146 15.0262 15.1833 15.113 15.1764C15.1824 15.1695 15.2484 15.166 15.3178 15.166C15.3664 15.166 15.4046 15.166 15.4289 15.166C15.4358 15.166 15.4392 15.166 15.4427 15.166C15.4496 15.166 16.0467 15.1729 16.2029 15.2042C16.3209 15.225 16.4111 15.2597 16.4909 15.2875C16.5152 15.2944 16.5361 15.3048 16.5569 15.3118C16.6784 15.3534 16.7825 15.4055 16.8901 15.4645C16.9353 15.4888 16.9838 15.5131 17.029 15.5374C17.0428 15.5478 17.2025 15.6727 17.2164 15.6866C17.2754 15.7595 17.4004 15.9122 17.4871 16.0198L17.508 16.0441C17.5462 16.0927 17.5739 16.1274 17.5809 16.1344C17.7857 16.3982 17.855 16.6793 17.9002 16.9466L17.9141 17.0334L17.9522 16.9535C18.0077 16.839 18.0633 16.721 18.1189 16.6064L18.1292 16.5891C18.1743 16.5023 18.3444 16.2142 18.5111 16.0684C18.5562 16.0303 18.6256 15.9817 18.695 15.94C18.7575 15.9018 18.872 15.8775 18.931 15.8671H18.9415C18.9415 15.8671 18.9658 15.8602 18.9762 15.8567C19.0144 15.8324 19.1497 15.7873 19.2642 15.7456C19.3198 15.7248 19.3684 15.7075 19.4031 15.697C19.5142 15.6554 19.778 15.5894 19.8092 15.579C19.9064 15.5547 20.2327 15.5339 20.2535 15.5339C20.2917 15.5339 20.3645 15.5339 20.4201 15.5374C20.4478 15.5374 20.4686 15.5374 20.4756 15.5374C20.4929 15.5374 20.7498 15.5547 20.8713 15.5756C20.8991 15.579 20.9338 15.5929 20.965 15.5999C20.9963 15.6103 21.0101 15.6137 21.0205 15.6137C21.0448 15.6137 21.2427 15.6797 21.3156 15.7179C21.4059 15.7665 21.6696 15.9435 21.7113 15.9747C21.9056 16.1101 22.0341 16.3392 22.0827 16.4329C22.0931 16.4537 22.1069 16.4711 22.1208 16.4919C22.1382 16.5162 22.159 16.544 22.1729 16.5752C22.1833 16.5995 22.1834 16.6238 22.1868 16.6481C22.1868 16.6724 22.1868 16.7001 22.2007 16.7244C22.2077 16.7418 22.2597 16.8112 22.343 16.9258C22.3742 16.9674 22.3881 16.9848 22.3916 16.9952L22.4541 17.0368C22.6138 17.1375 22.7908 17.2486 22.8949 17.4152C22.9053 17.436 22.9122 17.4638 22.9191 17.4881C22.9191 17.5054 22.9261 17.5193 22.9296 17.5366L22.94 17.5714C22.9562 17.6199 22.9643 17.6639 22.9643 17.7033V17.7137C22.9643 17.79 22.9435 17.8872 22.9261 17.9636C22.9192 17.9913 22.8984 18.0295 22.881 18.0608C22.8637 18.0885 22.8602 18.0989 22.8567 18.1094V18.1163C22.8567 18.1302 22.8637 18.2621 22.881 18.3384V18.3454C22.881 18.3454 22.8914 18.3593 22.9053 18.3697C22.9191 18.3836 22.9365 18.3974 22.94 18.4183C22.9574 18.4773 22.999 18.63 22.999 18.7654C22.999 18.7758 22.9955 18.8001 22.992 18.8278C22.9886 18.866 22.9851 18.8834 22.9851 18.8903V18.8973C22.9851 18.8973 23.0164 18.9563 23.1205 19.1333C23.1621 19.2027 23.2004 19.2687 23.2385 19.3311L23.2523 19.3554C23.4259 19.6435 23.5891 19.9177 23.7314 20.1989L23.7383 20.2162H23.7557C23.7557 20.2162 23.7765 20.2162 23.7938 20.2128C23.8355 20.2128 23.8737 20.2093 23.9084 20.1919C23.9466 20.1746 23.9813 20.1503 24.016 20.126C24.0542 20.0982 24.0923 20.0739 24.134 20.06C24.1791 20.0461 24.2346 20.0323 24.2867 20.0253L24.3457 20.0149C24.4325 20.001 24.5228 19.9871 24.613 19.9871C24.8178 19.9871 25.1267 20.0774 25.3453 20.2752L25.3905 20.3134C25.5016 20.4141 25.6543 20.5529 25.7272 20.6605C25.8348 20.8202 25.9112 21.025 25.9285 21.202C25.9285 21.2193 25.9354 21.2402 25.9389 21.2645C25.9423 21.2887 25.9493 21.3165 25.9493 21.3373L25.9562 21.5144C25.9562 21.5664 25.9527 21.6393 25.9423 21.7296C25.9423 21.7643 25.932 21.8129 25.9251 21.8545C25.9181 21.8927 25.9146 21.91 25.9146 21.917V21.9448H25.9251C25.9285 21.9552 25.9354 21.9656 25.9458 21.9795L25.9528 21.9899C25.9944 22.0593 26.0604 22.153 26.0951 22.2016C26.1055 22.2155 26.1089 22.2224 26.1124 22.2294C26.22 22.389 26.3242 22.5487 26.4318 22.7118V22.7188C26.6262 23.0103 26.824 23.3088 27.0288 23.6073C27.2648 23.944 27.4939 24.2043 27.7299 24.4057C27.8167 24.4786 27.9208 24.5306 28.0214 24.5827C28.0804 24.6139 28.1429 24.6452 28.1985 24.6799C28.3338 24.7632 28.4658 24.8604 28.5942 24.9541C28.6358 24.9853 28.6775 25.0131 28.7191 25.0443C28.9308 25.197 29.1565 25.2942 29.3717 25.3914C29.5001 25.4469 29.6181 25.5025 29.7362 25.565C29.9791 25.6969 30.1353 25.8183 30.229 25.9502C30.3783 26.162 30.4303 26.4015 30.3817 26.6583L30.3782 26.6479ZM29.0627 26.516C29.0627 26.4986 29.0628 26.4535 29.0454 26.4292C29.0281 26.4015 28.976 26.3702 28.9587 26.3702H28.858C28.8406 26.3702 28.7851 26.3633 28.7573 26.3529C28.6324 26.3077 28.497 26.2418 28.3824 26.1689C28.1256 26.0058 27.8965 25.801 27.6432 25.6344C27.6362 25.6309 27.6293 25.6274 27.6223 25.6205C27.5008 25.5441 27.3515 25.5129 27.2405 25.4469C27.0877 25.3532 26.9489 25.2734 26.8101 25.1033C26.6574 24.9124 26.5012 24.7215 26.3554 24.5341C25.9285 23.9961 25.6057 23.4616 25.2204 22.9166C25.1128 22.7639 24.9011 22.4862 24.7761 22.3161C24.7171 22.2328 24.6755 22.1773 24.6755 22.1669C24.6755 22.1495 24.7068 22.0905 24.7172 22.0558C24.7762 21.8163 24.8212 21.681 24.8212 21.4588V21.3651C24.8178 21.3096 24.6859 21.1881 24.5991 21.143L24.4672 21.1742C24.4359 21.3339 24.3631 21.3339 24.259 21.3339C24.2416 21.3339 24.1861 21.3269 24.0715 21.3269C24.0125 21.3269 23.9466 21.3582 23.891 21.372C23.8598 21.379 23.832 21.3963 23.8043 21.4068C23.7765 21.4172 23.7383 21.438 23.7105 21.4484C23.6793 21.4623 23.5509 21.5525 23.4919 21.5525C23.3774 21.5525 23.0129 21.4102 22.9643 21.3547C22.94 21.3269 22.9261 21.2783 22.9226 21.2436C22.9087 21.1534 22.8914 21.0805 22.8532 20.9937C22.7977 20.8792 22.7387 20.7646 22.6762 20.6501H21.8952C21.8952 20.6501 21.8814 20.6813 21.8952 20.7022H21.8085C21.8085 20.7022 21.7495 20.6709 21.7182 20.6501C21.7182 20.6501 21.7147 20.6501 21.7113 20.6466C21.5551 20.5529 21.385 20.4488 21.2288 20.3446C21.1768 20.3099 21.1213 20.2579 21.0692 20.2197C21.0518 20.2058 20.8227 20.0739 20.8227 20.001C20.8227 19.9837 20.9269 19.7338 20.9755 19.6088C20.9894 19.5706 21.0136 19.5324 21.0414 19.5012C21.1004 19.4422 21.142 19.4214 21.208 19.4214C21.2253 19.4214 21.26 19.4179 21.2739 19.4318C21.3642 19.5047 21.4093 19.6053 21.4579 19.6852C21.5412 19.824 21.6037 19.9524 21.6627 20.0913C21.7356 20.2648 21.8952 20.6189 21.8952 20.6362C21.8952 20.6397 21.8952 20.6431 21.8918 20.6466H22.6727C22.4888 20.3134 22.2771 19.9802 22.0966 19.6574C22.0133 19.5116 21.9126 19.3554 21.8293 19.2027C21.8189 19.1853 21.8293 19.1611 21.7946 19.1125C21.7842 19.0639 21.7564 18.991 21.7564 18.9736C21.7564 18.866 21.8502 18.9563 21.8502 18.814C21.8502 18.7688 21.8432 18.7411 21.8015 18.6612C21.7807 18.6161 21.798 18.5571 21.7737 18.512C21.7598 18.4842 21.7182 18.4669 21.6904 18.4495C21.6974 18.4009 21.7113 18.3176 21.7113 18.2968C21.7113 18.276 21.6453 18.1337 21.6453 18.1163C21.6453 18.0989 21.7321 17.9705 21.7321 17.9532C21.7321 17.9358 21.7112 17.9046 21.6939 17.8942C21.6384 17.8699 21.5828 17.8525 21.5203 17.8109C21.4822 17.7831 21.4232 17.7623 21.3989 17.731C21.3642 17.6894 21.3711 17.6269 21.3676 17.5922C21.3538 17.4881 21.2079 17.37 21.1628 17.2798C21.1038 17.1583 21.1212 17.016 21.0275 16.8945C21.0032 16.8633 20.7498 16.6724 20.6179 16.6724C20.6006 16.6724 20.4618 16.7071 20.4444 16.7071C20.427 16.7071 20.3194 16.6793 20.2535 16.6585H20.132C20.1042 16.6585 20.014 16.773 19.9862 16.7834C19.9376 16.8008 19.8856 16.7939 19.8405 16.8008C19.8231 16.8008 19.7536 16.8425 19.7155 16.8425C19.6981 16.8425 19.5975 16.8147 19.5801 16.8147H19.4656C19.4482 16.8147 19.417 16.8216 19.4031 16.832C19.3337 16.8806 19.2608 16.9431 19.2157 17.0021C19.1879 17.0368 19.181 17.0889 19.1602 17.1201C19.1289 17.1722 19.0838 17.2173 19.056 17.2694C19.0352 17.3076 19.0213 17.3562 19.0004 17.3978C18.9831 17.4325 18.9553 17.4742 18.9484 17.5124C18.9137 17.7067 18.8755 18.0955 18.8755 18.1128C18.8755 18.1579 18.8894 18.1371 18.9241 18.2031C18.938 18.2274 18.9276 18.2621 18.9345 18.2864C18.9414 18.3107 18.9762 18.3176 18.9797 18.3419C19.0074 18.4634 19.0421 18.6057 19.0942 18.7202C19.1184 18.7688 19.1324 18.8313 19.1636 18.8764C19.2122 18.9459 19.24 18.9979 19.24 19.0708C19.24 19.2027 19.2192 19.1611 19.063 19.2582C19.0456 19.2687 19.0386 19.2999 19.0248 19.3172C19.0525 19.3589 19.1393 19.4873 19.1393 19.5394C19.1393 19.5845 18.9727 19.6782 18.9727 19.706C18.9727 19.7685 19.0317 19.8483 19.0317 19.9385C19.0317 19.9559 19.0352 19.9941 19.0213 20.0184C19.0074 20.0427 18.9762 20.0496 18.9623 20.0704C18.8339 20.2613 18.7019 20.4488 18.5805 20.6431C18.5735 20.657 18.5666 20.6674 18.5596 20.6779C18.5041 20.7681 18.452 20.8583 18.4069 20.9486C18.3201 21.1187 18.2473 21.3096 18.1987 21.4866C18.1397 21.4866 18.1084 21.3304 18.0911 21.2887C18.0772 21.254 18.0529 21.2124 18.039 21.1742C18.0251 21.1395 18.0147 21.1013 17.9974 21.0666C17.9245 20.9278 17.8515 20.7855 17.7821 20.6501C17.7509 20.5911 17.7197 20.5321 17.6885 20.4765C17.5948 20.3065 17.4941 20.1329 17.4004 19.9663C17.3657 19.9073 17.2962 19.8587 17.2684 19.7893C17.2233 19.6748 16.9804 19.4943 16.8554 19.3658C16.8971 19.3034 16.9491 19.1992 16.9491 19.1819C16.9491 19.0882 16.8415 19.1298 16.8415 19.0639C16.8415 19.0222 16.8623 19.0257 16.9144 18.9528C16.8797 18.8834 16.8103 18.9077 16.7756 18.8938V18.8313C16.7756 18.814 16.8034 18.755 16.8207 18.7133L16.6714 18.4877C16.6749 18.4599 16.6749 18.4322 16.6714 18.4148H16.7201C16.7201 18.4148 16.7478 18.4495 16.7825 18.4426C16.786 17.9358 16.7756 17.9323 16.7791 17.9254C16.786 17.8976 16.793 17.8629 16.793 17.8456C16.793 17.8282 16.7582 17.6547 16.7582 17.6373C16.7582 17.6199 16.7547 17.5991 16.7582 17.5783C16.7651 17.5575 16.786 17.5332 16.786 17.5158C16.786 17.4985 16.734 17.3457 16.734 17.3284V17.082C16.734 17.0646 16.734 17.0229 16.7235 16.9952C16.7097 16.9431 16.6923 16.8841 16.6645 16.839C16.6332 16.7834 16.5812 16.7349 16.5465 16.6897C16.5396 16.6793 16.5396 16.6585 16.5257 16.6481C16.4875 16.6064 16.4458 16.5544 16.3972 16.5231C16.3729 16.5058 16.3313 16.5231 16.3104 16.5058C16.1959 16.4086 16.1057 16.4016 16.005 16.3912C15.9495 16.3288 15.8072 16.2802 15.7308 16.2802C15.7135 16.2802 15.6267 16.2836 15.5885 16.3045C15.5052 16.3426 15.4879 16.3669 15.4115 16.3669C15.3213 16.3669 15.2831 16.3183 15.2241 16.3183C15.2067 16.3183 15.1581 16.36 15.1408 16.36H14.8388C14.8214 16.36 14.7659 16.3878 14.7382 16.3912C14.7069 16.4398 14.6687 16.4954 14.6271 16.5301C14.6097 16.544 14.575 16.5578 14.5542 16.5683C14.523 16.5891 14.4917 16.6342 14.4605 16.655C14.4397 16.6689 14.4118 16.6724 14.4049 16.6828C14.3216 16.773 14.1411 16.9119 14.1411 17.0091C14.1411 17.0958 14.1341 17.1132 14.1341 17.1305C14.1341 17.1479 14.1342 17.1791 14.1446 17.1965C14.1723 17.2451 14.2244 17.2763 14.2591 17.3076L14.1446 17.6269C14.1654 17.6442 14.1863 17.7345 14.1863 17.7935C14.0717 17.908 13.9607 18.0191 13.86 18.1336C13.8392 18.1579 13.8218 18.2031 13.8218 18.2204C13.8218 18.3107 14.0301 18.3593 14.0301 18.4252V18.6057C14.0717 18.6404 14.0717 18.6508 14.0717 18.6751C14.0717 18.6925 14.0509 18.8626 14.0336 18.9459C13.978 19.2096 13.8461 19.47 13.742 19.7338C13.6795 19.8934 13.6691 20.0809 13.5788 20.2162C13.4643 20.3967 12.8291 20.5841 12.5931 20.5841C12.5236 20.5841 12.4404 20.5703 12.3675 20.5529C12.2564 20.5251 12.2842 20.4904 12.2078 20.4904C12.0378 20.4904 11.8711 20.6362 11.7705 20.657C11.7705 20.657 11.7566 20.657 11.7496 20.657C11.7427 20.657 11.7392 20.657 11.7323 20.657C11.701 20.6466 11.7115 20.6015 11.6074 20.605C11.59 20.6258 11.5657 20.6362 11.5518 20.657C11.5518 20.657 11.5518 20.657 11.5518 20.6605C11.4581 20.8202 11.413 20.8861 11.413 21.0215C11.413 21.1777 11.4651 21.32 11.5241 21.4796C11.5449 21.5387 11.5935 21.6428 11.5935 21.6601C11.5935 21.6775 11.5796 21.7261 11.5622 21.7539C11.4407 21.9343 11.3192 22.1357 11.2151 22.3231C11.1908 22.3647 11.17 22.4029 11.1492 22.4446C11.111 22.514 11.0554 22.5904 11.0172 22.6632C10.8888 22.9027 10.7084 23.1631 10.5626 23.4026L10.4098 23.6525C10.0107 24.2981 8.86525 25.2352 7.89685 25.6483C7.86561 25.6621 7.83437 25.6726 7.80313 25.6864C7.699 25.7281 7.58449 25.7628 7.4873 25.794C7.43177 25.8114 7.35887 25.8149 7.30681 25.8426C7.24086 25.8739 7.168 25.8982 7.168 25.9711C7.168 26.0682 7.2895 26.1099 7.35892 26.1342C7.39363 26.1481 7.48385 26.1342 7.5012 26.1758C7.42831 26.2279 7.3624 26.2696 7.3624 26.332C7.3624 26.3494 7.40751 26.4119 7.43875 26.4466C7.59494 26.4848 7.77541 26.5403 7.93507 26.5507C7.9559 26.5507 7.98364 26.5715 8.001 26.5715H8.11557C8.13292 26.5715 8.1572 26.5785 8.18149 26.5854L8.55638 26.5785C8.841 26.5577 9.11866 26.4501 9.40328 26.4501L10.0627 26.5195H10.33C10.3473 26.5195 10.4793 26.4813 10.5418 26.4466C10.5973 26.4153 10.6355 26.3286 10.6355 26.2904C10.6424 26.1967 10.6355 26.1516 10.6355 26.1342L10.5938 25.6483L10.5868 25.5615C10.5868 25.5441 10.6112 25.5094 10.6216 25.4817C10.7778 25.0547 11.3748 24.6313 11.7566 24.2634C11.9787 24.0482 12.2529 23.8225 12.4126 23.6039C12.5098 23.472 12.5826 23.3297 12.6764 23.2012C12.6972 23.1735 12.7354 23.1596 12.7562 23.1596C12.777 23.1596 12.8187 23.1735 12.8325 23.2082C12.9679 23.5449 13.1137 23.8954 13.2907 24.2286C13.4955 24.607 13.7038 24.9923 13.9641 25.3706C14.0266 25.4643 14.089 25.558 14.1515 25.6517C14.3077 25.8878 14.4639 26.1273 14.6548 26.3737C14.7832 26.5403 14.9985 26.6271 15.1547 26.6514L16.3695 26.6583C16.5049 26.6271 16.6541 26.641 16.7756 26.5542C16.8138 26.5264 16.8415 26.4813 16.8728 26.4501C17.147 26.1793 17.3275 25.9155 17.4906 25.6517C17.5704 25.5198 17.6503 25.3914 17.7336 25.2595C17.7926 25.1658 17.8412 25.0582 17.9036 24.961C18.0112 24.7979 18.0737 24.6278 18.1362 24.4786C18.1778 24.3744 18.2299 24.2668 18.2577 24.1662C18.2785 24.1002 18.275 24.0204 18.334 23.9614C18.4451 24.121 18.4486 24.2911 18.4937 24.4404C18.5527 24.6382 18.6187 24.8465 18.6811 25.0443C18.7263 25.1797 18.7956 25.3081 18.8269 25.4469C18.8408 25.5094 18.8512 25.5788 18.8616 25.6517C18.9206 26.0821 18.9554 26.6653 19.5767 26.7277L20.7324 26.7347C20.9095 26.7034 21.1038 26.6791 21.267 26.6167C21.3399 26.5889 21.4197 26.5542 21.4857 26.5091C21.7321 26.339 22.0236 26.0092 22.3048 25.6483C22.5339 25.3498 22.756 25.0304 22.9365 24.7597C22.9782 24.6972 23.006 24.6278 23.0407 24.5757C23.301 24.1835 23.5127 23.7948 23.773 23.406H23.8147C23.9882 23.7635 24.2555 24.1384 24.6061 24.482C24.7623 24.6347 24.9254 24.7389 25.0815 24.8569C25.1128 24.8812 25.1579 24.8881 25.1822 24.909C25.3558 25.0651 25.5293 25.1832 25.682 25.3498C25.7376 25.4088 25.859 25.5303 25.9493 25.6483C26.0083 25.7246 26.0534 25.7975 26.0534 25.8496C26.0534 25.8669 26.0326 25.919 26.0256 25.9468C26.0118 26.0231 26.0014 26.162 26.0014 26.1793C26.0014 26.1967 26.0014 26.2036 26.0084 26.3112C26.0153 26.3702 26.0292 26.4327 26.0778 26.4813C26.1472 26.5472 26.2443 26.5889 26.3103 26.5993L27.126 26.6062L27.5945 26.6757H27.6952C27.7125 26.6757 27.782 26.6895 27.8202 26.6965L28.556 26.7034C28.615 26.6965 28.6809 26.6896 28.7365 26.6791C28.7712 26.6722 29.042 26.6132 29.042 26.5299L29.0627 26.516Z" fill="#929AAB"/>
</svg>
