<svg width="105" height="45" viewBox="0 0 105 45" fill="none" xmlns="http://www.w3.org/2000/svg">
<g clip-path="url(#clip0_1_959)">
<path d="M6.94781 28.7269H6.26453V35.3513H6.94781V28.7269Z" fill="#929AAB"/>
<path d="M13.2645 35.3365H12.6115V34.4091C12.2319 35.101 11.4576 35.4396 10.6528 35.4396C9.8936 35.4396 9.07367 35.1157 8.42075 34.4091C8.23854 34.203 7.91968 33.5995 7.91968 32.8487C7.91968 32.201 8.26891 31.5238 8.45112 31.3619C9.21032 30.567 9.92397 30.3167 10.6224 30.3167C11.412 30.3167 12.2168 30.6553 12.5964 31.3619V30.4345H13.2493V35.3365H13.2645ZM8.60296 32.9076C8.60296 33.9822 9.55956 34.8066 10.6528 34.8066C11.7005 34.8066 12.6115 33.9233 12.6115 32.9076C12.6115 31.8183 11.7612 30.9497 10.6376 30.9497C9.514 30.9645 8.60296 31.833 8.60296 32.9076Z" fill="#929AAB"/>
<path d="M16.9845 30.4345H17.6223V31.0675C17.8652 30.567 18.4118 30.3315 18.9737 30.3315C19.6418 30.3315 20.2036 30.5965 20.6135 31.0675C20.6591 31.1264 20.6895 31.2 20.7502 31.2589C20.7806 31.2 20.8109 31.1411 20.8565 31.0675C21.2057 30.5965 21.8586 30.3315 22.4508 30.3315C22.9974 30.3315 23.5137 30.5965 24.0148 31.0675C24.4247 31.465 24.4855 31.9655 24.4855 32.5396V35.3366H23.8022V32.5985C23.8022 32.2452 23.7718 31.8477 23.5441 31.5386C23.2707 31.1558 22.876 30.9498 22.4053 30.9498C21.9649 30.9498 21.5398 31.1706 21.2816 31.5091C21.0539 31.8183 21.0691 32.2305 21.0691 32.5985V35.3366H20.3858V32.5249C20.3858 32.1569 20.3706 31.8772 20.1428 31.5533C19.8847 31.2 19.4595 30.9645 19.004 30.9645C18.5789 30.9645 18.1537 31.1411 17.8956 31.4797C17.6678 31.8036 17.6526 32.1569 17.6526 32.5249V35.3366H16.9694V30.4345H16.9845Z" fill="#929AAB"/>
<path d="M30.7261 32.8635C30.7261 34.2619 29.5569 35.4543 28.0992 35.4543C26.6719 35.4543 25.442 34.3208 25.442 32.9223C25.442 31.4944 26.6112 30.3315 28.0992 30.3315C29.5113 30.3315 30.7261 31.4944 30.7261 32.8635ZM26.1405 32.9223C26.1405 33.9675 27.0212 34.8213 28.1144 34.8213C29.238 34.8213 30.058 33.9234 30.058 32.8635C30.058 32.3188 29.8758 31.8919 29.4658 31.5091C29.1014 31.1706 28.6155 30.9645 28.1144 30.9645C26.9908 30.9645 26.1405 31.8624 26.1405 32.9223Z" fill="#929AAB"/>
<path d="M36.8604 35.3366H36.2075V34.4386C35.6912 35.1305 35.0383 35.4543 34.1576 35.4543C33.4288 35.4543 32.7455 35.1746 32.047 34.4386C31.8041 34.2325 31.4852 33.5848 31.4852 32.8782C31.4852 31.4208 32.7303 30.3315 34.2032 30.3315C34.9624 30.3315 35.7519 30.6553 36.1619 31.2883V28.7122H36.8452V35.3366H36.8604ZM34.1728 30.9645C33.0947 30.9645 32.1837 31.8036 32.1837 32.8635C32.1837 33.9381 33.0796 34.8213 34.188 34.8213C35.2964 34.8213 36.1923 33.9381 36.1923 32.8635C36.2075 31.7888 35.2661 30.9645 34.1728 30.9645Z" fill="#929AAB"/>
<path d="M38.5154 33.1284C38.5458 34.0558 39.4872 34.8213 40.4134 34.8213C41.1575 34.8213 41.9167 34.4239 42.2203 33.7467H42.934C42.5848 34.733 41.5522 35.4543 40.4742 35.4543C39.0013 35.4543 37.8322 34.3208 37.8322 32.8929C37.8322 31.465 39.0013 30.3315 40.459 30.3315C41.2486 30.3315 41.9926 30.6848 42.4937 31.2883C42.9644 31.8477 43.0707 32.4218 43.0858 33.1284H38.5154ZM42.4026 32.5249C42.2203 31.6564 41.4004 30.9645 40.4742 30.9645C39.5176 30.9645 38.6825 31.6122 38.5154 32.5249H42.4026Z" fill="#929AAB"/>
<path d="M50.4046 29.3305L50.1009 29.8457L48.2788 28.9036L48.5673 28.3589L50.4046 29.3305ZM51.9078 35.3366H51.2549V34.4091C50.8601 35.101 50.0857 35.4543 49.2961 35.4543C48.5369 35.4543 47.717 35.1305 47.0641 34.4091C46.8819 34.2178 46.563 33.5995 46.563 32.8487C46.563 32.201 46.897 31.5239 47.0944 31.3619C47.8536 30.567 48.5673 30.3168 49.2658 30.3168C50.0553 30.3168 50.8601 30.6553 51.2397 31.3619V30.4345H51.8926V35.3366H51.9078ZM47.2463 32.9076C47.2463 33.9822 48.2029 34.8213 49.2809 34.8213C50.3438 34.8213 51.2397 33.9528 51.2397 32.9223C51.2397 31.833 50.3894 30.9792 49.2658 30.9792C48.1573 30.9645 47.2463 31.8183 47.2463 32.9076Z" fill="#929AAB"/>
<path d="M56.63 30.4492V31.2883C57.0248 30.6553 57.9055 30.3462 58.6495 30.3462C59.3935 30.3462 60.0768 30.6259 60.7146 31.2883C61.0182 31.5533 61.3219 32.201 61.3219 32.9223C61.3219 34.3797 60.0616 35.469 58.5888 35.469C57.8448 35.469 57.0096 35.1157 56.6756 34.4386V37.0589H55.9923V30.4492H56.63ZM60.6386 32.9076C60.6386 31.8477 59.758 30.9792 58.6495 30.9792C57.5411 30.9792 56.63 31.7741 56.63 32.8635C56.63 33.3934 56.7667 33.8497 57.1615 34.2325C57.5411 34.6152 58.0573 34.836 58.604 34.836C59.7276 34.8213 60.6386 34.0117 60.6386 32.9076Z" fill="#929AAB"/>
<path d="M62.7796 33.1284C62.8251 34.0558 63.7513 34.8213 64.6927 34.8213C65.4368 34.8213 66.196 34.4239 66.4996 33.7467H67.2133C66.8641 34.733 65.8315 35.4543 64.7535 35.4543C63.2806 35.4543 62.1115 34.3208 62.1115 32.8929C62.1115 31.465 63.2654 30.3315 64.7383 30.3315C65.5279 30.3315 66.2567 30.6848 66.773 31.2736C67.2437 31.833 67.3499 32.4071 67.3651 33.1137H62.7796V33.1284ZM66.6667 32.5396C66.4845 31.6711 65.6645 30.9792 64.7383 30.9792C63.7817 30.9792 62.9466 31.6269 62.7796 32.5396H66.6667Z" fill="#929AAB"/>
<path d="M68.8684 31.0528H67.8207V30.4492H68.8684V28.7269H69.5517V30.4492H70.7208V31.0528H69.5517V35.3513H68.8684V31.0528Z" fill="#929AAB"/>
<path d="M71.4193 28.7269H72.1026V29.8604H71.4193V28.7269ZM71.4193 30.4492H72.1026V35.3513H71.4193V30.4492Z" fill="#929AAB"/>
<path d="M73.8487 31.0528H72.801V30.4492H73.8487V28.7269H74.532V30.4492H75.7012V31.0528H74.532V35.3513H73.8487V31.0528Z" fill="#929AAB"/>
<path d="M76.673 33.8939C76.6578 34.3944 77.0678 34.8213 77.5841 34.8213C78.07 34.8213 78.4647 34.4975 78.4647 34.0117C78.4647 33.4228 77.9789 33.202 77.493 33.0695C77.1741 32.9665 76.8249 32.8782 76.5819 32.6426C76.3086 32.4071 76.172 32.0538 76.172 31.7152C76.172 30.9203 76.8401 30.3462 77.6296 30.3462C78.3888 30.3462 79.0266 30.9497 79.0266 31.6711H78.3433C78.3433 31.2442 78.0092 30.9792 77.5537 30.9792C77.1589 30.9792 76.8552 31.2883 76.8552 31.6563C76.8552 32.201 77.2956 32.3335 77.7359 32.466C78.4951 32.7015 79.148 33.0107 79.148 33.8939C79.148 34.8213 78.4496 35.4543 77.5082 35.4543C76.6578 35.4543 75.929 34.733 75.9746 33.8939H76.673Z" fill="#929AAB"/>
<path d="M83.1869 30.4492V31.2883C83.5817 30.6553 84.4776 30.3462 85.2064 30.3462C85.9352 30.3462 86.6185 30.6259 87.2714 31.2883C87.5751 31.5533 87.8788 32.201 87.8788 32.9223C87.8788 34.3797 86.6033 35.469 85.1457 35.469C84.4016 35.469 83.5665 35.1157 83.2325 34.4386V37.0589H82.5492V30.4492H83.1869ZM87.1955 32.9076C87.1955 31.8477 86.3148 30.9792 85.2064 30.9792C84.098 30.9792 83.1869 31.7741 83.1869 32.8635C83.1869 33.4081 83.3236 33.8497 83.7184 34.2325C84.098 34.6152 84.6142 34.836 85.1608 34.836C86.2845 34.8213 87.1955 34.0117 87.1955 32.9076Z" fill="#929AAB"/>
<path d="M88.8506 30.4492H89.4883V31.1558C89.7464 30.567 90.3386 30.3609 90.9612 30.3462V30.9939C90.5967 31.0234 90.3386 31.097 90.0501 31.3325C89.5794 31.7152 89.5339 32.0538 89.5339 32.6132V35.3513H88.8506V30.4492Z" fill="#929AAB"/>
<path d="M91.6141 28.7269H92.2974V29.8604H91.6141V28.7269ZM91.6141 30.4492H92.2974V35.3513H91.6141V30.4492Z" fill="#929AAB"/>
<path d="M94.6964 32.8487L92.9655 30.4492H93.7702L95.1064 32.3335L96.4426 30.4492H97.2474L95.5164 32.8487L97.2474 35.3513H96.4426L95.1064 33.3787L93.7702 35.3513H92.9655L94.6964 32.8487Z" fill="#929AAB"/>
<path d="M55.9468 8.55941C55.5823 7.89697 55.1724 7.97057 54.808 7.97057H49.9794C49.5695 7.97057 49.4024 7.94113 49.6454 8.4122C49.7972 8.70661 50.5261 10.0168 50.5261 10.0168C50.6931 10.3406 50.6172 10.3553 50.4805 10.5762C50.3742 10.7381 42.1293 24.1635 41.4156 25.2822C40.8386 26.1655 40.6564 26.3421 41.5675 26.3421H42.6911C43.2225 26.3421 43.2984 26.3569 43.8906 25.3853C44.2095 24.8701 46.6389 21.0279 46.6389 21.0279H56.1897C56.4478 21.0279 56.6149 21.2487 56.6604 21.3371C57.2526 22.4117 58.1484 24.0751 58.7862 25.2381C59.1658 25.9447 59.4543 26.3421 59.9705 26.3421H64.7535C65.6645 26.3421 65.6342 26.3274 64.9357 25.1056C64.0247 23.4863 57.207 10.8559 55.9468 8.55941ZM47.55 19.1878L51.4067 12.7696C51.756 12.1366 51.7104 12.269 51.9837 12.7696C52.1204 13.0198 55.5064 19.1878 55.5064 19.1878H47.55Z" fill="#929AAB"/>
<path d="M27.8412 7.98527H24.4399C21.8131 9.95786 21.722 10.002 12.2168 17.0091V8.48578C12.2168 8.20608 11.989 7.97055 11.6853 7.97055H6.76569C6.4772 7.97055 6.23425 8.19136 6.23425 8.48578V25.8122C6.23425 26.0919 6.4772 26.3274 6.76569 26.3274H11.7005C11.989 26.3274 12.232 26.0919 12.232 25.8122V18.334C13.6744 19.7178 21.5246 26.3274 21.5246 26.3274H27.9778C28.4637 26.3274 28.4637 26.0771 28.0537 25.7386C22.2534 20.969 19.1103 18.334 17.8804 17.2741C17.3186 16.803 17.0453 16.6706 17.4704 16.332C18.0626 15.8756 27.6589 8.58882 27.9171 8.32385C28.16 8.0736 27.8412 7.98527 27.8412 7.98527Z" fill="#929AAB"/>
<path d="M37.0123 7.97055H32.123C31.8194 7.97055 31.5764 8.19136 31.5764 8.48578V25.8122C31.5764 26.0919 31.8194 26.3274 32.123 26.3274H37.0123C37.316 26.3274 37.5589 26.0919 37.5589 25.8122V8.47106C37.5589 8.19136 37.316 7.97055 37.0123 7.97055Z" fill="#929AAB"/>
<path d="M96.7918 7.97055H91.9026C91.5989 7.97055 91.356 8.19136 91.356 8.48578V25.8122C91.356 26.0919 91.5989 26.3274 91.9026 26.3274H96.7918C97.0955 26.3274 97.3385 26.0919 97.3385 25.8122V8.47106C97.3385 8.19136 97.0955 7.97055 96.7918 7.97055Z" fill="#929AAB"/>
<path d="M83.02 16.5675C83.8551 16.2142 87.2715 15.9198 87.2715 12.2543C87.2715 8.02944 82.5189 8.05889 81.4105 7.95584H69.491C69.2025 7.95584 68.9747 8.2061 68.9747 8.48579V25.8416C68.9747 26.1213 69.2025 26.3274 69.491 26.3274H80.1654C81.8964 26.3274 87.8941 25.7386 88.0459 21.4107C88.1977 17.4949 83.8551 16.8767 83.02 16.5675ZM75.428 9.92843H77.7967V9.94315C80.1806 9.92843 81.2283 11.4005 81.2283 13.0345C81.2283 14.6538 79.968 16.1406 77.7967 16.1259V16.1406H75.428V9.92843ZM78.1915 24.9289L75.428 24.9437V17.7305H78.1915V17.7452C81.0309 17.7305 82.2911 19.4528 82.2911 21.3371C82.276 23.2213 80.7727 24.9437 78.1915 24.9289Z" fill="#929AAB"/>
</g>
<defs>
<clipPath id="clip0_1_959">
<rect width="99" height="29" fill="white" transform="translate(3 8)"/>
</clipPath>
</defs>
</svg>
