<svg width="105" height="45" viewBox="0 0 105 45" fill="none" xmlns="http://www.w3.org/2000/svg">
<g clip-path="url(#clip0_1_991)">
<path fill-rule="evenodd" clip-rule="evenodd" d="M18.0037 36.6041V38.7886H24.7267L24.732 37.0869C24.732 36.9685 24.7042 36.7646 24.5381 36.6041H18.0037ZM26.7388 36.6041L25.9341 38.7901H27.8538C28.0199 38.8006 28.1739 38.7751 28.3114 38.7136C28.6856 38.5427 28.8704 38.1102 28.923 37.9632C28.9222 37.9647 29.2521 37.0479 29.4121 36.6041H26.7388ZM33.5438 36.6041C33.7527 37.2301 34.2741 38.7849 34.2741 38.7849H36.8715L36.1825 36.6041H33.5438ZM38.272 36.6041C39.4479 38.3201 41.4855 38.9993 43.0032 38.9993H43.0438C43.433 39.003 44.2204 38.973 45.1093 38.7339C46.0823 38.473 46.1672 38.4123 46.195 38.3928L46.3039 38.3148L46.2799 38.1866C46.1897 37.7024 46.0086 36.9048 45.7592 36.6034H44.0033C43.6892 36.6356 43.3534 36.6394 42.9837 36.6146C42.9469 36.6109 42.9101 36.6071 42.8733 36.6026H38.2713L38.272 36.6041ZM47.9704 36.6041C48.9096 38.012 50.4912 38.9003 52.3553 38.9003C54.2194 38.9003 55.819 38.0022 56.786 36.6041H47.9704ZM59.3263 36.6041C59.2068 36.8043 59.1054 36.9947 59.0378 37.1244L58.9604 37.2743L59.0949 37.3808C59.1189 37.3988 59.6696 37.8343 60.1377 38.1072C60.6877 38.4115 61.3091 38.6312 62.0394 38.7796C62.3332 38.8336 62.8013 38.9018 63.5346 38.9018C65.5993 38.9018 67.1801 38.0045 67.7106 36.6041H59.3263ZM71.988 36.6041V38.7946L74.6725 38.7924V36.6049H71.988V36.6041ZM79.5495 36.6041V38.7931L85.8781 38.7849C86.2944 38.7766 86.9992 38.5315 86.9992 37.7084L86.9931 36.6041H79.5503H79.5495Z" fill="#929AAB"/>
<path fill-rule="evenodd" clip-rule="evenodd" d="M18.0022 33.6056L18.0037 36.6041H24.5382C24.3999 36.4707 24.1663 36.3665 23.7725 36.3665H20.7574L20.7544 33.6056H18.0022ZM27.8426 33.6056L26.7389 36.6041H29.4122C29.4565 36.4812 29.488 36.3942 29.4956 36.3733L33.4664 36.371C33.4792 36.4092 33.5063 36.4917 33.5438 36.6041H36.1826L35.2359 33.6056H32.6332C32.7639 33.9399 32.8518 34.1626 32.8541 34.1693H30.1778C30.2334 34.0201 30.304 33.8267 30.3844 33.6056H27.8426ZM37.3344 33.6056C37.3855 34.8387 37.7408 35.8275 38.2728 36.6034H42.8748C41.294 36.4055 40.3307 35.3208 40.218 33.6048H37.3351L37.3344 33.6056ZM47.0523 33.6056C47.0786 34.7375 47.4107 35.763 47.9712 36.6034H56.7868C57.3721 35.7578 57.7222 34.7293 57.7507 33.6056H55.1541C55.0782 35.2735 53.9331 36.5097 52.4334 36.5097C50.9338 36.5097 49.7241 35.248 49.6437 33.6063H47.0523V33.6056ZM60.6878 33.6056C60.7884 33.6655 60.8929 33.7248 61.0018 33.7832C61.4624 34.0396 62.3024 34.272 62.9147 34.4422L63.5466 34.6273C64.7022 34.9902 65.1425 35.3912 65.0613 36.0157C65.0245 36.2241 64.6346 36.5637 63.7465 36.5637C63.0733 36.5637 62.4624 36.4602 61.8283 36.2391C61.5217 36.1184 61.2069 35.9617 60.8726 35.7653L60.823 35.7406C60.6382 35.6723 60.4736 35.6424 60.3309 35.6528L60.0874 35.7068C59.8538 35.7938 59.5577 36.2166 59.3263 36.6034H67.7106C67.7978 36.374 67.8564 36.1319 67.8842 35.877C67.9337 34.9467 67.631 34.1993 66.948 33.6041H60.687L60.6878 33.6056ZM71.988 33.6056V36.6041H74.6733V33.6056H71.988ZM79.5496 33.6056V36.6041H86.9939L86.9924 36.3643L82.2582 36.3658L82.2657 34.5689H86.1742L86.1712 33.6056H79.5488H79.5496ZM45.76 36.6041C45.7292 36.5674 45.6976 36.5382 45.6646 36.5172L45.4497 36.4227C45.2355 36.3643 44.9853 36.3823 44.7036 36.476C44.4789 36.5367 44.2483 36.5794 44.0033 36.6041H45.7592H45.76Z" fill="#929AAB"/>
<path fill-rule="evenodd" clip-rule="evenodd" d="M20.7544 33.6056L20.7492 29.0612C20.7492 28.7576 20.6567 28.5178 20.4749 28.3483C20.1811 28.0762 19.7476 28.0785 19.5846 28.08L18.0007 28.0785L18.003 33.6063H20.7544V33.6056ZM30.3852 33.6056C30.7278 32.667 31.2447 31.2352 31.4927 30.583C31.6828 31.1685 32.2989 32.7517 32.6332 33.6056H35.2359L35.2239 33.5688L33.6551 28.7037C33.489 28.2666 33.1742 28.0792 32.5994 28.0687C32.5468 28.0672 29.8803 28.071 29.8803 28.071L27.8426 33.6063H30.3844L30.3852 33.6056ZM40.2181 33.6056C40.2151 33.5636 40.2128 33.5216 40.2113 33.4796C40.2865 31.6685 41.3 30.5245 42.9921 30.3596C43.6442 30.3169 44.192 30.3619 44.7096 30.5013C44.9861 30.5943 45.2371 30.6123 45.4497 30.553L45.6653 30.4578C45.9644 30.2712 46.1808 29.3319 46.2815 28.7891L46.3055 28.6609L46.1966 28.5837C46.1688 28.5635 46.0839 28.502 45.1109 28.2419C44.2235 28.0035 43.4346 27.9743 43.0446 27.9765H43.0026C40.7763 27.9765 37.4268 29.4421 37.3307 33.4774C37.3314 33.5201 37.3329 33.5628 37.3352 33.6056H40.2181ZM49.6445 33.6056C49.6415 33.5479 49.64 33.4886 49.64 33.4294C49.64 31.718 50.8406 30.4278 52.4342 30.4278C54.0278 30.4278 55.1594 31.6902 55.1594 33.4294C55.1594 33.4886 55.1579 33.5479 55.1556 33.6063H57.7523C57.7538 33.5568 57.7538 33.5074 57.7538 33.4579C57.7538 30.3896 55.3833 27.9848 52.3576 27.9848C49.2823 27.99 47.0516 30.2914 47.0516 33.4579C47.0516 33.5074 47.0516 33.5568 47.0531 33.6063H49.6445V33.6056ZM66.9503 33.6056C66.4288 33.1513 65.6865 32.7862 64.7105 32.4961L64.6098 32.4676L63.6075 32.1625L63.4573 32.1078C62.639 31.8124 62.0568 31.565 62.0568 31.0898L62.0583 31.0545C62.1379 30.2652 63.6075 30.2554 63.6226 30.2554C64.431 30.2554 65.0546 30.3799 65.8443 30.6962L65.8946 30.7127C66.0765 30.7509 66.2342 30.7554 66.3657 30.7262L66.5836 30.6445C66.8969 30.4713 67.2095 29.5613 67.329 29.1774L67.3673 29.0537L67.2711 28.9653C67.2335 28.9301 67.0021 28.7411 66.1681 28.4308C65.3176 28.1129 64.1139 28.062 64.1139 28.062L63.5196 28.0597C60.4196 28.0597 59.2354 29.9691 59.1979 31.2517C59.1723 32.4039 59.7636 33.0523 60.6893 33.6063H66.9503V33.6056ZM74.6749 33.6056V30.553H76.7854C76.8861 30.553 77.4083 30.541 77.7103 30.2637C77.8486 30.1355 77.9215 29.9676 77.9215 29.7742V28.0837H69.8482C69.7475 28.0815 69.2246 28.0927 68.9226 28.3708C68.7836 28.499 68.7107 28.6677 68.7107 28.8603L68.7092 30.5545H71.9881V33.6048H74.6734L74.6749 33.6056ZM86.1728 33.6056L86.1683 32.0913L82.2725 32.0958V30.5553L85.8587 30.5515C85.9586 30.553 86.4921 30.5538 86.7836 30.2637C86.9865 30.0605 86.9947 29.6924 86.9947 29.4998V28.086H79.5474L79.5489 33.6048H86.1712L86.1728 33.6056Z" fill="#929AAB"/>
<path fill-rule="evenodd" clip-rule="evenodd" d="M62.8381 18.8181V18.3991L61.8282 17.5835L61.5803 17.1442V16.7251L60.741 16.3068H59.9025H58.644L57.3855 17.1442L56.547 16.7251H56.1278L55.7078 17.1442L56.1278 18.3991H56.9663H58.2248L59.4825 17.9808L59.9025 18.8181L60.741 20.073L61.9995 20.4921H63.2573L67.8713 20.9104L68.7098 20.4921L67.4521 20.073L63.6773 18.8181H62.8381Z" fill="#747D91"/>
<path d="M69.8242 20.3017C69.6897 20.1225 69.4688 20.0505 69.3163 19.9808C69.1653 19.9119 69.1886 19.7649 69.0631 19.7237C68.9376 19.684 68.713 19.9433 68.5409 19.8879C68.3689 19.8324 68.3816 19.5063 68.2351 19.4591C68.0879 19.4118 67.8294 19.657 67.6949 19.6135C67.5604 19.5708 67.5334 19.2312 67.4034 19.1885C67.2734 19.1472 66.9984 19.3931 66.8639 19.3496C66.7294 19.3061 66.7212 18.9733 66.5724 18.9253C66.4221 18.8774 66.1629 19.1255 66.0307 19.082C65.8984 19.04 65.8849 18.7057 65.7407 18.6592C65.5971 18.6127 65.3327 18.8564 65.1982 18.8136C65.0637 18.7709 65.0246 18.4298 64.8999 18.3893C64.7744 18.3496 64.5235 18.5513 64.3229 18.5393C62.9163 18.4066 62.3791 17.5212 62.2845 17.7806C62.1898 18.04 62.5752 18.6645 63.0636 18.8766C63.449 19.0445 67.6356 20.2065 67.7453 20.2597C67.8534 20.3122 68.1157 20.4314 68.024 20.5835C67.8767 20.7784 67.468 20.585 67.3658 20.5003C67.2584 20.4111 67.2824 20.3781 67.1825 20.3541C66.9593 20.2987 66.8361 20.711 66.5994 20.6563C66.3823 20.6053 66.3966 20.1712 66.1787 20.1203C65.9375 20.0633 65.8256 20.4748 65.5956 20.4209C65.4056 20.3766 65.38 19.9321 65.1749 19.8841C64.9367 19.8294 64.8308 20.2417 64.5858 20.1847C64.3755 20.136 64.3875 19.7012 64.1666 19.6487C63.9464 19.597 63.7917 19.9988 63.5835 19.9501C63.3747 19.9014 63.3454 19.4591 63.1583 19.4148C62.9704 19.3706 62.8194 19.5978 62.5632 19.63C62.5632 19.63 61.8329 19.8294 60.6758 18.6172C59.5142 17.4051 59.0386 17.1704 58.379 17.6629C57.2985 18.4688 56.6321 17.9343 56.4345 17.6967C56.2031 17.42 56.4472 17.1697 56.4472 17.1697C56.4472 17.1697 56.7914 17.6989 57.2211 17.7109C57.9139 17.7311 58.4383 16.7791 59.6284 16.7634C61.1341 16.7086 61.5286 17.2461 61.9396 17.2866C62.3228 17.3248 62.449 17.2634 62.7135 17.1104H62.7127C62.9269 17.0325 63.1117 17.4478 63.3356 17.3623C63.5723 17.2739 63.398 16.8571 63.6549 16.7611C63.8916 16.6727 64.0486 17.0947 64.2755 17.01C64.5175 16.9208 64.3634 16.492 64.5926 16.4095C64.8308 16.3241 64.969 16.7469 65.2162 16.6577C65.4627 16.5677 65.3026 16.1449 65.5295 16.0587C65.7594 15.9725 65.9292 16.3915 66.1554 16.3091C66.3718 16.2296 66.2486 15.7866 66.4717 15.7056C66.7054 15.6209 66.8564 16.0392 67.1066 15.95C67.3095 15.8765 67.1975 15.4312 67.4086 15.3525C67.622 15.2716 67.8181 15.6846 68.039 15.6022C68.2464 15.525 68.1232 15.0834 68.3456 15.0017C68.5777 14.9155 68.7588 15.3293 68.9767 15.2506C69.1931 15.1734 69.0301 14.8135 69.3148 14.6756C69.3148 14.6756 69.7085 14.5429 69.6845 14.2536C69.6792 14.2056 69.5981 13.5841 68.9489 13.4544C68.3275 13.3293 63.4025 14.6958 63.3416 14.6164C62.887 13.7191 62.3055 13.9687 62.2176 13.9874C62.1267 14.0092 61.5782 14.2476 60.9673 14.0129C59.7727 13.4694 58.8177 14.8495 58.1656 14.6674C57.56 14.4994 57.1002 14.5946 56.8477 14.6816C56.6148 14.7618 56.2406 15.0639 55.4457 14.7911C49.2989 12.6831 44.4918 14.5257 44.4918 14.5257C41.7824 15.4327 41.4361 14.5257 41.4361 14.5257C41.4361 14.5257 40.5457 13.3098 46.8225 11.8615C55.8439 9.7782 56.1159 6.33584 56.0115 6.11994C55.8604 5.80359 55.8056 6.17467 55.5081 6.51725C55.2594 6.80212 54.9701 6.66043 54.9701 6.66043C54.6861 6.52475 54.5058 6.85009 54.5058 6.85009C54.5058 6.85009 54.1391 7.41832 53.8145 7.09523C53.505 6.78488 53.091 7.48654 52.9377 7.51428C52.7544 7.54651 52.6657 7.45655 52.4163 7.34411C52.0466 7.17769 51.6484 7.85761 51.4448 7.90334C51.1315 7.97456 50.9128 7.53452 50.6468 7.71893C49.8444 8.27441 49.7174 8.35463 49.5025 8.13648C49.3417 7.97381 49.3192 7.79689 48.7842 8.3104C48.3274 8.74894 48.1103 8.82915 47.9247 8.55178C47.7361 8.27067 47.7865 7.88835 47.0036 8.64174C46.6301 9.00157 46.4385 9.00831 46.2229 8.84564C46.0621 8.72495 46.0644 8.14548 45.5001 8.67023C44.9922 9.14325 44.621 9.3509 44.4783 8.9296C44.3182 8.45958 43.7194 9.01581 43.5789 9.14775C43.4362 9.27968 43.1274 9.62677 42.9117 9.26694C42.6938 8.90936 42.1776 9.44685 41.8703 9.78794C41.6322 10.0533 41.4391 9.84941 41.1911 9.67999C40.9049 9.48434 40.0543 10.6778 39.9762 10.749C39.8988 10.8187 39.8395 10.7512 39.6434 10.5856C39.3421 10.3299 38.5329 11.746 38.4044 11.8382C38.4044 11.8382 38.3465 11.9612 38.1264 11.7505C37.8138 11.4514 36.1451 13.6508 35.5162 16.1442C34.7123 19.3391 35.9941 21.786 35.9941 21.786C35.9941 21.786 36.3787 21.798 36.544 21.5348L36.7935 20.9704C36.9956 20.5011 37.3254 20.6495 37.3254 20.6495L36.541 22.9959C36.4186 23.3062 36.4922 23.7425 36.7657 24.1578C37.0242 24.5731 37.2037 24.8535 37.4111 25.0477C38.0505 25.6511 37.9851 24.939 38.0024 24.849C38.0768 24.4659 38.4983 24.7583 38.8274 24.9435C39.4285 25.2815 39.3623 24.5349 39.4931 24.2905C39.5832 24.1166 39.8808 24.1091 40.2009 24.3782C40.4503 24.5881 40.699 23.8797 40.699 23.8797C41.0086 22.3699 40.2782 22.1923 39.883 22.1728L39.0821 22.1353C39.0821 22.1353 39.1362 21.9067 39.2173 21.69L39.2549 21.5408C40.1265 19.3564 38.6681 18.9336 38.2308 18.9711C37.75 19.0123 37.7838 18.7042 37.7838 18.7042C37.7838 18.7042 40.4202 18.1847 39.9289 20.9906C39.9289 20.9906 39.8312 21.4786 39.7733 21.7342L40.4976 21.8182C41.1235 21.8954 41.2332 22.6368 41.2332 22.6368C41.2332 22.6368 43.5256 23.244 44.8261 23.0011C44.8261 23.0011 45.4092 22.8617 45.57 22.5004C45.57 22.5004 46.413 20.5071 48.8729 20.4231C48.8729 20.4231 48.9608 20.6825 48.5664 20.8137C48.093 20.9726 46.5264 21.1 46.1989 22.9097V22.9164C46.1613 23.2125 46.2424 23.846 46.8848 24.1391C47.4311 24.3872 47.6234 25.3857 47.7369 25.6556C48.0577 26.421 48.5333 25.6886 48.5333 25.6886C48.5333 25.6886 48.8361 25.0709 49.0946 25.4127C49.5341 25.9937 49.7377 25.7021 49.8369 25.3333C49.9451 24.936 50.1036 24.762 50.5627 25.2456C50.7588 25.4547 51.142 25.2928 51.181 24.9322C51.2607 24.1443 51.7941 24.771 51.8715 24.8025C51.9624 24.8385 52.5199 24.7103 52.2089 23.8212C52.2089 23.8212 51.7851 22.9711 49.8872 22.6038C49.4402 22.5176 49.5108 22.193 49.5108 22.193L49.9323 22.253C50.0555 22.2747 51.1608 22.3962 51.2802 22.4157C55.9108 22.8744 59.4241 21.2987 59.5308 21.1855C63.1297 21.8759 68.0225 21.639 68.9414 21.3084C69.8618 20.9793 69.9317 20.4419 69.8235 20.2972L69.8242 20.3017ZM62.3957 14.5369C62.4715 14.4147 62.5437 14.3465 62.6098 14.3135C62.8885 14.1584 63.0659 14.6561 63.0305 14.6741C63.0283 14.6749 63.0238 14.6771 63.02 14.6786V14.6801C62.9772 14.7026 62.4355 14.8548 62.3829 14.818C62.2769 14.7453 62.3964 14.5369 62.3964 14.5369H62.3957ZM60.3497 14.6973C60.3497 14.6973 60.3926 14.6441 60.4752 14.5999C60.5999 14.5272 60.8291 14.4695 61.1529 14.6786C61.4587 14.875 61.4505 15.0264 61.4505 15.0264C61.4467 15.0279 61.4414 15.0302 61.4369 15.0317C61.2641 15.1186 60.2829 15.2416 60.2829 15.2416C60.104 14.9117 60.3497 14.6981 60.3497 14.6981V14.6973ZM43.3896 10.2805C43.5436 10.3989 43.3963 11.0788 43.2889 10.9799L42.5037 10.5616C42.5037 10.5616 43.2333 10.1673 43.3903 10.2812L43.3896 10.2805ZM42.1138 10.7152C42.2686 10.8307 42.1228 11.5129 42.0139 11.4124L41.2294 10.9949C41.2294 10.9949 41.9583 10.5991 42.1138 10.7152ZM41.6712 12.0474C41.826 12.1643 41.6795 12.845 41.5698 12.7468L40.7862 12.327C40.7862 12.327 41.515 11.9327 41.6712 12.0481V12.0474ZM40.9229 13.833L40.1377 13.4147C40.1377 13.4147 40.8681 13.0189 41.0228 13.1343C41.1791 13.2505 41.0303 13.9327 40.9229 13.8338V13.833ZM40.7756 15.1801L39.9935 14.7618C39.9935 14.7618 40.723 14.3653 40.8778 14.4822C41.0326 14.5969 40.8861 15.2783 40.7756 15.1809V15.1801ZM40.7614 11.189C40.9169 11.3052 40.7689 11.9844 40.6614 11.8884L39.877 11.4686C39.877 11.4686 40.6066 11.0736 40.7614 11.189ZM40.0806 12.2258C40.2354 12.3412 40.0889 13.0219 39.98 12.9244L39.1963 12.5061C39.1963 12.5061 39.9266 12.1096 40.0814 12.2258H40.0806ZM38.6816 13.854C38.6816 13.854 39.4112 13.4574 39.566 13.5729C39.7215 13.6891 39.5742 14.3698 39.4653 14.2708L38.6809 13.854H38.6816ZM39.2835 15.5587L38.5006 15.1404C38.5006 15.1404 39.2301 14.7438 39.3841 14.86C39.5397 14.977 39.3932 15.6561 39.2835 15.5587ZM38.7237 12.6973C38.8785 12.8127 38.7327 13.4942 38.6215 13.396L37.8401 12.9777C37.8401 12.9777 38.5689 12.5811 38.7245 12.6973H38.7237ZM38.0189 14.0729C38.1745 14.1891 38.0265 14.8705 37.9175 14.7716L37.1346 14.3533C37.1346 14.3533 37.8642 13.9582 38.0197 14.0729H38.0189ZM36.9858 15.6989C36.9858 15.6989 37.7161 15.3038 37.8717 15.42C38.028 15.5354 37.8807 16.2169 37.771 16.1187L36.9858 15.6989ZM38.3848 17.2349L37.6027 16.8166C37.6027 16.8166 38.333 16.4208 38.4863 16.5377C38.6426 16.6524 38.4953 17.3323 38.3848 17.2356V17.2349ZM39.5096 18.1517L38.7252 17.7326C38.7252 17.7326 39.4563 17.3361 39.611 17.4515C39.7658 17.567 39.6178 18.2492 39.5096 18.1517ZM39.8605 16.7229L39.0761 16.3038C39.0761 16.3038 39.8056 15.9088 39.9627 16.0235C40.1175 16.1397 39.9702 16.8203 39.8605 16.7236V16.7229ZM40.9034 18.7642L40.1205 18.3466C40.1205 18.3466 40.8478 17.95 41.004 18.0662C41.1588 18.1824 41.0131 18.8624 40.9026 18.7649L40.9034 18.7642ZM41.2783 17.453L40.4954 17.0332C40.4954 17.0332 41.2249 16.6382 41.379 16.7544C41.5345 16.8698 41.388 17.5512 41.2775 17.453H41.2783ZM41.5383 16.2101L40.7546 15.7918C40.7546 15.7918 41.4827 15.3968 41.6397 15.5115C41.7945 15.6292 41.6464 16.3098 41.5375 16.2109L41.5383 16.2101ZM42.6397 18.6052L41.8568 18.1854C41.8568 18.1854 42.5871 17.7926 42.7412 17.9058C42.8982 18.022 42.7502 18.7042 42.6397 18.6052ZM42.9786 17.2971L42.1957 16.8788C42.1957 16.8788 42.9252 16.483 43.0815 16.5992C43.2355 16.7146 43.089 17.3953 42.9793 17.2971H42.9786ZM43.2633 15.9133L42.4797 15.4935C42.4797 15.4935 43.2085 15.1007 43.364 15.2146C43.5196 15.3308 43.3715 16.0122 43.2633 15.9133ZM44.3633 18.3608L43.5789 17.9418C43.5789 17.9418 44.307 17.5467 44.464 17.6622C44.6203 17.7784 44.4708 18.4591 44.3633 18.3608ZM44.627 16.962L43.8434 16.543C43.8434 16.543 44.5729 16.1479 44.7292 16.2619C44.8825 16.3773 44.7367 17.0587 44.627 16.962ZM44.899 15.5272L44.1169 15.1074C44.1169 15.1074 44.8449 14.7123 45.002 14.8278C45.1567 14.944 45.0095 15.6247 44.899 15.5272ZM46.0786 17.8091L45.2942 17.3916C45.2942 17.3916 46.0238 16.9958 46.1793 17.1112C46.3356 17.2274 46.1883 17.9088 46.0786 17.8099V17.8091ZM46.292 16.4305L45.5076 16.013C45.5076 16.013 46.2372 15.6164 46.3927 15.7311C46.549 15.8488 46.4002 16.5295 46.292 16.4305ZM46.5648 15.0804L45.7804 14.6621C45.7804 14.6621 46.5107 14.2656 46.6662 14.381C46.8202 14.4979 46.6745 15.1794 46.5648 15.0804ZM47.7662 17.5153L46.981 17.097C46.981 17.097 47.7106 16.7004 47.8661 16.8173C48.0224 16.9328 47.8751 17.6135 47.7654 17.516L47.7662 17.5153ZM47.9788 16.2281L47.1951 15.8106C47.1951 15.8106 47.9255 15.414 48.081 15.5309C48.235 15.6464 48.0893 16.3256 47.9788 16.2281ZM48.2365 14.8563L47.4536 14.4387C47.4536 14.4387 48.1824 14.0422 48.3372 14.1584C48.4942 14.2745 48.3477 14.9545 48.2365 14.8563ZM49.3237 17.54L48.5408 17.1217C48.5408 17.1217 49.2711 16.7259 49.4259 16.8421C49.5814 16.9583 49.4334 17.6389 49.3237 17.5407V17.54ZM49.5814 16.1592L48.797 15.7423C48.797 15.7423 49.5273 15.3443 49.6836 15.4612C49.8369 15.5767 49.6904 16.2574 49.5814 16.1592ZM49.8752 14.7836L49.0908 14.3653C49.0908 14.3653 49.8204 13.9687 49.9766 14.0864C50.1322 14.2026 49.9849 14.8825 49.8752 14.7836ZM50.9556 17.5407L50.1705 17.1209C50.1705 17.1209 50.9008 16.7259 51.0563 16.8421C51.2118 16.9583 51.0661 17.6374 50.9556 17.5415V17.5407ZM51.2066 16.2364L50.4237 15.8166C50.4237 15.8166 51.1525 15.4223 51.308 15.5377C51.4628 15.6539 51.317 16.3346 51.2066 16.2364ZM51.5026 14.9012L50.719 14.4837C50.719 14.4837 51.45 14.0871 51.6048 14.2033C51.7596 14.3188 51.6123 15.0002 51.5026 14.902V14.9012ZM52.4906 17.7371L51.707 17.3173C51.707 17.3173 52.4373 16.9215 52.5936 17.0377C52.7491 17.1532 52.6026 17.8338 52.4914 17.7364L52.4906 17.7371ZM52.7694 16.4718L51.9857 16.0542C51.9857 16.0542 52.7138 15.6599 52.8708 15.7753C53.0264 15.8908 52.8783 16.5722 52.7701 16.4718H52.7694ZM53.0662 15.1801L52.281 14.7618C52.281 14.7618 53.0121 14.3653 53.1676 14.4815C53.3216 14.5969 53.1744 15.2761 53.0662 15.1801ZM54.2901 16.7469L53.5057 16.3286C53.5057 16.3286 54.236 15.9328 54.3908 16.0482C54.5456 16.1651 54.3983 16.8458 54.2894 16.7469H54.2901Z" fill="#929AAB"/>
</g>
<defs>
<clipPath id="clip0_1_991">
<rect width="69" height="33" fill="white" transform="translate(18 6)"/>
</clipPath>
</defs>
</svg>
