<svg width="105" height="45" viewBox="0 0 105 45" fill="none" xmlns="http://www.w3.org/2000/svg">
<path d="M56.0267 22.5526C55.0837 22.9605 55.152 23.2379 52.0961 22.5202C51.5812 22.3995 50.4014 22.4493 49.7913 22.5239C49.5597 22.5518 49.2846 22.4078 49.5087 21.7828C49.8475 20.8404 50.2965 20.808 50.6622 20.2795C50.8241 20.0473 50.8106 19.509 51.3488 19.1637C51.6973 18.9397 52.0144 18.7218 52.3922 18.2732C52.5706 18.038 53.1567 17.125 54.0726 18.4127C54.2615 18.6615 55.1107 18.1669 55.3416 20.2508C55.4338 21.0929 56.1226 21.0877 56.1226 21.7353C56.1226 21.9848 56.4501 22.3701 56.0267 22.5526ZM68.9306 20.5162C69.8413 18.856 70.3442 19.2224 70.9026 19.1938C72.6168 19.1048 72.5449 19.9734 73.4915 20.7311C73.8423 21.0108 74.2681 22.9107 73.7974 22.879C72.9384 22.821 72.2143 23.0517 71.9505 23.0517C70.6276 23.0517 69.7903 22.5058 68.7095 22.487C68.1444 22.4764 67.8633 22.3761 67.8633 21.9276C68.0529 21.3787 68.693 20.9497 68.9306 20.5162ZM77.0488 29.9766C76.5451 30.015 75.0671 30.7991 74.4547 31.587C73.6549 32.6176 73.23 33.1461 71.6844 33.0768C70.3622 33.0172 69.8953 32.1366 69.2087 31.7604C68.3587 31.2952 68.1234 30.3234 67.999 29.8635C67.6587 28.6104 67.1287 28.8004 67.1287 27.806C67.1287 27.1078 67.056 27.8686 67.2914 27.2209C67.6234 27.2209 67.918 27.0626 68.2493 27.0656C69.0063 27.0717 68.8737 27.3077 69.4875 27.3077C70.1014 27.3077 70.6471 26.7128 71.7991 26.942C72.7578 27.1335 72.7885 26.7158 73.912 27.457C74.7163 28.0058 75.4021 27.3227 77.2887 27.4735C78.2901 27.5534 78.8147 26.9496 78.7728 25.7666C78.7165 24.1366 78.5651 23.7913 78.5651 23.3005C78.5651 22.254 78.829 20.6594 78.3448 19.3302C77.4873 16.981 76.8277 17.2592 76.1576 16.6259C75.211 15.731 75.6045 15.498 74.7065 14.9001C73.9038 14.352 73.6984 14.0301 73.2255 14.0301C72.5172 13.8303 72.027 13.8868 71.5068 14.0889C71.0353 14.2721 70.722 14.4289 69.7289 14.4289C68.9734 14.4289 68.7358 14.2193 68.1684 14.4681C67.508 14.7674 66.2668 15.5025 65.8425 16.2006C64.9446 17.6957 65.6672 16.837 64.9581 17.8345C64.3442 18.6314 63.6816 18.6653 63.3976 19.5625C63.0198 20.6089 63.3631 20.9641 63.154 21.298C63.031 21.4956 62.6578 21.7391 62.6578 22.3875C62.2793 22.5865 62.2238 22.6438 61.936 22.6129C61.466 22.5639 60.9091 22.6529 60.8904 22.3935C60.8454 21.7745 60.6303 21.1322 60.5179 20.8849C59.937 19.6032 60.5261 18.4813 59.9662 17.4627C59.2969 16.2459 58.8621 16.2731 57.5857 14.8775C56.735 13.9298 56.2568 13.2754 55.3588 13.2754C54.5081 13.2754 53.3351 12.903 52.4371 13.252C50.9726 13.7504 51.1052 13.5317 50.5888 14.1326C49.7913 15.063 49.376 14.8428 48.8266 14.983C47.6379 15.2846 47.0802 16.3243 46.9078 16.6719C46.62 17.2516 46.5263 18.2031 45.417 19.0106C44.684 19.5436 44.6765 20.5516 44.5888 21.4066C44.4838 22.4478 44.5416 23.1678 44.5738 23.1678C44.3339 23.1685 43.9337 23.1769 43.5072 23.1904C40.4349 23.2892 39.752 24.2595 39.752 26.1036C39.752 27.898 39.4297 27.8678 39.1119 28.5841C37.9389 31.2251 38.3242 31.9082 38.2117 32.3409C37.7808 34.0003 36.8356 32.9584 35.4535 32.9735C34.0683 32.9885 33.5384 33.3082 33.5384 30.9665C33.5384 29.819 33.845 29.2377 33.5616 28.1408C33.2783 26.945 33.4597 25.3459 33.9177 24.3002C34.4753 23.0283 34.4139 22.5473 34.1298 21.0523C33.8944 20.0058 33.773 19.7615 33.773 19.3627C33.773 18.6653 33.6193 17.0586 33.5346 16.6379C33.4994 16.457 33.0572 14.8624 33.5144 14.2789C33.7595 13.966 34.9325 13.1879 35.1394 12.4755C35.458 11.377 34.3479 10.2695 34.099 9.7794C33.5519 8.70806 32.7289 8.54746 31.783 8.68618C31.409 8.74122 30.9847 8.84604 30.6062 8.84604C30.0868 8.84604 29.7548 9.20792 29.2353 9.20792C28.6215 9.20792 28.3689 9.51627 27.767 9.73642C27.5938 9.8005 26.8518 10.5967 26.6622 11.1455C26.4268 11.8429 26.4456 12.0631 26.6832 12.7612C26.6832 13.2091 27.1306 13.4081 27.4147 13.8069C27.7123 14.1839 27.8509 14.0964 28.0076 14.6279C28.0646 14.8194 28.1073 15.066 28.1073 15.3156C28.2962 15.8139 28.2025 16.163 28.2684 16.7646C28.3216 17.2487 28.7136 17.9189 28.7136 18.2679C28.7136 18.8658 28.7166 18.5658 28.7166 19.1637C28.7166 19.662 28.623 19.9108 28.623 20.3601C28.623 20.7092 28.952 21.1367 28.952 21.4857C28.952 21.8846 28.9505 22.1832 28.9505 22.582C28.9505 23.2801 28.8298 23.6126 28.7151 24.1441C28.545 24.9237 28.2444 25.3949 28.1965 26.1918C28.1043 27.7419 28.3584 28.0812 28.3584 28.6105C28.3584 29.6569 28.2962 29.5363 28.2962 30.5828C28.2962 31.2312 28.6477 31.789 28.5787 32.9003C28.5405 33.4967 28.4341 33.9672 28.1965 34.5153C28.0076 35.0137 27.6523 35.4027 27.5826 35.8113C27.5406 36.0571 27.6298 36.2094 27.6298 36.459C27.6298 37.0561 28.081 37.3297 28.5053 37.678C28.8366 37.9268 29.2346 38.2503 29.5666 38.2963C30.1325 38.3739 30.5125 38.1236 31.1271 38.1236C31.6001 38.1236 31.9396 37.8522 32.4029 37.755C32.7334 37.6848 32.9455 37.5823 33.2768 37.5823C33.8914 37.5823 34.3381 37.8643 34.9528 37.8643C35.4722 37.8643 35.7563 37.8047 36.2764 37.8047C36.9855 37.8047 36.9263 37.6283 37.6346 37.6283C38.2492 37.6283 39.4042 37.7346 39.8187 37.8341C40.2227 37.9321 41.0959 38.0045 41.7106 37.5054C42.2765 37.0561 42.571 36.3994 42.6969 35.6371C42.7719 35.1855 42.7951 34.1926 42.7951 33.2962C42.7951 32.5483 42.8169 31.8577 43.056 31.3216C43.2726 30.8346 43.3221 30.6431 43.5574 30.1952C44.0671 29.2656 43.8677 29.1254 44.0041 28.5667L44.3084 28.1355C44.4973 28.1355 44.7109 28.082 44.8549 28.1521C45.0685 28.2539 45.2708 28.3888 45.2341 28.8721C45.1464 30.0595 45.3705 30.3279 45.3705 30.876C45.3705 31.2756 45.492 31.6202 45.7745 31.9692C45.7745 32.169 46.0848 32.1954 46.246 32.3718C46.3809 32.5189 46.4094 32.7322 46.4828 32.9697C46.674 33.5909 46.7407 34.066 46.976 34.6646C46.976 34.7392 47.4243 35.4713 47.5419 35.6153C47.8507 35.9915 47.9961 36.1385 48.2802 36.388C48.4691 36.388 48.6093 36.6082 48.8454 36.6082C49.0815 36.6082 49.3191 36.8276 49.5544 36.8276C49.7913 36.8276 49.9314 37.1571 50.1676 37.1571C50.4516 37.1571 50.6173 37.4948 50.8541 37.4948C51.1847 37.4948 51.4215 37.9299 51.7483 37.9811C52.8404 38.1485 52.8029 38.3212 53.6177 37.755C54.2705 37.2996 55.6856 37.5521 56.8549 36.9769C58.2318 36.2991 58.9633 36.3933 59.5712 33.5676C59.7196 32.8747 59.4228 30.1673 58.4529 30.0361C58.0062 29.9758 57.7019 30.0113 57.2222 30.5948C57.1899 30.634 56.3737 30.9838 55.9292 31.6239C55.2854 32.5513 55.3963 32.445 54.61 32.8204C53.8755 33.171 52.1388 32.7616 51.8697 32.6644C51.2281 32.4314 51.1097 32.3221 50.9711 31.9232C50.8571 31.5938 50.5461 30.9763 50.2627 30.5277C49.7426 29.7301 49.9284 29.7873 49.7883 28.5991C49.7411 28.2086 49.3153 27.4034 49.6459 27.2044C49.6459 27.2044 49.9329 27.1342 50.1676 27.0815C50.9141 26.9148 52.8172 28.2086 54.8461 27.3876C55.8108 26.997 56.7627 26.8636 58.4199 27.092C59.6671 27.2632 59.8493 27.4735 61.4608 27.0883C62.0124 26.9563 62.2635 26.9654 62.7357 26.9654C62.6323 26.9654 62.6668 27.1629 62.6428 27.8362C62.6136 28.6889 62.7147 29.378 62.9501 30.2751C63.1877 30.9725 63.6846 31.5267 63.869 32.0431C64.0084 32.4291 64.3974 33.4281 64.4821 33.5676C64.8134 34.1662 65.3688 34.2431 66.0419 35.4652C66.3732 36.0684 66.7098 36.1596 67.7449 37.0561C68.0117 37.289 68.741 37.6728 69.2529 37.8922C70.821 38.5639 70.7662 38.1734 71.476 38.1108C72.3717 38.0316 73.0043 38.3302 73.8873 37.6547C74.7238 37.0161 74.6676 37.1624 75.163 37.0071C75.8188 36.8005 76.3742 36.2901 77.1897 35.5957C80.1999 33.0315 77.7219 29.9261 77.0488 29.9766Z" fill="#929AAB"/>
<path d="M76.7325 7.62087C76.6088 7.55226 76.4102 7.51756 76.1359 7.51756H75.7147V8.5135H76.1606C76.369 8.5135 76.5256 8.49241 76.6298 8.4517C76.8225 8.37706 76.9191 8.2338 76.9191 8.02195C76.9191 7.82291 76.8569 7.68872 76.7325 7.62087ZM76.1988 7.1745C76.5436 7.1745 76.7955 7.20769 76.9566 7.27404C77.2437 7.39391 77.3869 7.62764 77.3869 7.97671C77.3869 8.22476 77.2977 8.40796 77.1193 8.52482C77.0241 8.58664 76.8914 8.63186 76.7228 8.659C76.9364 8.69368 77.0938 8.78341 77.1927 8.92967C77.2924 9.07518 77.3419 9.21769 77.3419 9.35716V9.55922C77.3419 9.62255 77.3441 9.69114 77.3479 9.76427C77.3524 9.8374 77.3599 9.88569 77.3711 9.9083L77.3869 9.94222H76.9341C76.9319 9.93317 76.9296 9.92412 76.9274 9.91507C76.9251 9.90602 76.9229 9.89546 76.9207 9.88415L76.9102 9.7952V9.57731C76.9102 9.25839 76.8225 9.04803 76.6471 8.9455C76.5436 8.88669 76.3622 8.85655 76.1014 8.85655H75.7147V9.94222H75.2282V7.1745H76.1988ZM74.7185 7.03503C74.2965 7.45949 74.0867 7.97144 74.0867 8.57157C74.0867 9.17623 74.2958 9.69115 74.714 10.1171C75.1353 10.5439 75.6464 10.7565 76.2483 10.7565C76.8487 10.7565 77.3599 10.5439 77.7811 10.1171C78.2016 9.69115 78.4115 9.17623 78.4115 8.57157C78.4115 7.97144 78.2016 7.45949 77.7811 7.03503C77.3576 6.60905 76.8472 6.39646 76.2483 6.39646C75.6509 6.39646 75.1405 6.60905 74.7185 7.03503ZM78.0277 10.3584C77.5368 10.853 76.9439 11.1003 76.2491 11.1003C75.5535 11.1003 74.9614 10.853 74.4734 10.3584C73.9877 9.86532 73.7449 9.26896 73.7449 8.5678C73.7449 7.87417 73.99 7.28081 74.4802 6.78773C74.9689 6.29768 75.558 6.05267 76.2491 6.05267C76.9439 6.05267 77.5368 6.29768 78.0277 6.78773C78.5172 7.27855 78.763 7.87191 78.763 8.5678C78.763 9.26669 78.5172 9.86306 78.0277 10.3584Z" fill="#929AAB"/>
</svg>
