<svg width="105" height="45" viewBox="0 0 105 45" fill="none" xmlns="http://www.w3.org/2000/svg">
<g clip-path="url(#clip0_1_994)">
<path d="M17 4H55.7121L55.7081 12.9971C55.7078 13.0145 55.7009 13.0311 55.6888 13.0433C55.6768 13.0555 55.6606 13.0623 55.6437 13.0623L53.7464 13.0504C53.7287 13.0504 53.7116 13.0431 53.699 13.0301C53.6865 13.0171 53.6794 12.9995 53.6794 12.9812L53.6847 6.16011C53.6847 6.12975 53.6727 6.10064 53.6515 6.07917C53.6303 6.05771 53.6016 6.04565 53.5716 6.04565H19.1234C19.111 6.04565 19.0987 6.04816 19.0872 6.05304C19.0757 6.05793 19.0653 6.06508 19.0565 6.0741C19.0477 6.08313 19.0407 6.09384 19.036 6.10562C19.0312 6.11741 19.0288 6.13005 19.0288 6.14281V38.8359C19.0288 38.8634 19.0396 38.8898 19.0588 38.9093C19.078 38.9288 19.1041 38.9397 19.1313 38.9397H53.6163C53.6341 38.9397 53.6511 38.9326 53.6637 38.9198C53.6763 38.9071 53.6833 38.8898 53.6833 38.8718L53.6807 26.562C53.6807 26.544 53.6876 26.5267 53.7 26.514C53.7123 26.5013 53.729 26.4941 53.7464 26.4941H55.6529C55.6651 26.4941 55.6768 26.499 55.6855 26.5078C55.6941 26.5165 55.6989 26.5284 55.6989 26.5407L55.7029 41H17V4Z" fill="#929AAB"/>
<path d="M88 18.7095V20.7858L87.9396 20.5715C87.9229 20.5129 87.9119 20.5142 87.9067 20.5755C87.7226 22.5359 86.1462 23.9707 84.3527 24.4046C81.6666 25.0527 78.8739 23.7125 78.1823 20.9215C77.9154 19.8408 78.089 18.5152 78.632 17.5196C80.5608 13.986 86.3013 14.2069 87.7344 18.1718C87.8274 18.4265 87.8764 18.6882 87.8817 18.9571C87.8817 18.9695 87.8843 18.9784 87.8896 18.9837C87.8931 18.9881 87.8975 18.9912 87.9027 18.993C87.9115 18.9957 87.9176 18.9908 87.9212 18.9784L88 18.7095ZM82.9265 22.7642C83.6848 22.7923 84.4233 22.5067 84.9797 21.9701C85.536 21.4336 85.8646 20.69 85.8931 19.903C85.9072 19.5133 85.8472 19.1247 85.7166 18.7594C85.586 18.394 85.3872 18.0591 85.1317 17.7737C84.8762 17.4883 84.5689 17.258 84.2274 17.096C83.8859 16.934 83.5169 16.8435 83.1415 16.8296C82.3832 16.8014 81.6446 17.087 81.0883 17.6236C80.5319 18.1602 80.2034 18.9038 80.1749 19.6907C80.1607 20.0804 80.2207 20.469 80.3514 20.8344C80.482 21.1997 80.6808 21.5347 80.9363 21.82C81.1918 22.1054 81.4991 22.3357 81.8405 22.4977C82.182 22.6597 82.551 22.7503 82.9265 22.7642Z" fill="#929AAB"/>
<path d="M44.2482 15.2145L46.2493 15.2051C46.2565 15.2052 46.2635 15.2071 46.2697 15.2105C46.276 15.214 46.2813 15.219 46.2852 15.2251C46.2891 15.2311 46.2915 15.2381 46.2921 15.2453C46.2927 15.2525 46.2916 15.2597 46.2888 15.2664L42.4048 24.3686C42.4014 24.3767 42.3957 24.3835 42.3884 24.3882C42.3812 24.393 42.3727 24.3954 42.364 24.3952L40.3405 24.4059C40.3319 24.4061 40.3234 24.4036 40.3161 24.3989C40.3089 24.3941 40.3032 24.3873 40.2998 24.3793L36.4198 15.2597C36.417 15.2531 36.4158 15.2458 36.4164 15.2386C36.417 15.2314 36.4194 15.2245 36.4233 15.2184C36.4272 15.2124 36.4325 15.2074 36.4388 15.2039C36.4451 15.2004 36.4521 15.1986 36.4592 15.1985L38.6431 15.2011C38.6518 15.201 38.6603 15.2034 38.6675 15.2082C38.6748 15.2129 38.6805 15.2197 38.6839 15.2278L41.3911 21.6815C41.3944 21.6895 41.3999 21.6964 41.4071 21.7012C41.4142 21.706 41.4226 21.7086 41.4312 21.7086C41.4398 21.7086 41.4482 21.706 41.4553 21.7012C41.4624 21.6964 41.468 21.6895 41.4713 21.6815L44.2074 15.2411C44.2108 15.233 44.2165 15.2262 44.2238 15.2215C44.231 15.2167 44.2395 15.2143 44.2482 15.2145Z" fill="#929AAB"/>
<path d="M59.5198 21.8265C59.5083 21.8265 59.4969 21.8289 59.4863 21.8333C59.4757 21.8378 59.4661 21.8444 59.458 21.8527C59.4499 21.861 59.4436 21.8709 59.4393 21.8817C59.435 21.8925 59.4329 21.9041 59.4331 21.9157L59.4436 24.33C59.4436 24.3398 59.4417 24.3494 59.4379 24.3584C59.4342 24.3673 59.4288 24.3754 59.4219 24.3823C59.4151 24.3891 59.4069 24.3944 59.398 24.398C59.3891 24.4016 59.3795 24.4034 59.3699 24.4032L57.4148 24.3966C57.4041 24.3964 57.3935 24.3941 57.3837 24.3899C57.3739 24.3856 57.365 24.3795 57.3576 24.3719C57.3501 24.3642 57.3442 24.3551 57.3403 24.3452C57.3364 24.3353 57.3344 24.3247 57.3346 24.3141V15.3156C57.3346 15.2852 57.3467 15.2561 57.3681 15.2347C57.3896 15.2132 57.4187 15.2011 57.449 15.2011C58.8857 15.2029 60.2929 15.2167 61.6709 15.2424C62.394 15.2557 63.0606 15.4261 63.6707 15.7535C65.8572 16.9274 65.6942 20.4131 63.4367 21.3913C63.4251 21.3963 63.4148 21.4039 63.4065 21.4134C63.3982 21.423 63.3921 21.4343 63.3887 21.4466C63.3853 21.4589 63.3846 21.4717 63.3868 21.4843C63.389 21.4968 63.3939 21.5087 63.4012 21.5191L65.3116 24.2941C65.3589 24.3615 65.3414 24.3957 65.259 24.3966L63.1763 24.3979C63.1588 24.3979 63.1417 24.3936 63.1263 24.3855C63.111 24.3774 63.0979 24.3657 63.0882 24.3513L61.4381 21.9197C61.4187 21.8909 61.3924 21.8674 61.3617 21.8512C61.331 21.835 61.2968 21.8265 61.262 21.8265H59.5198ZM59.4383 17.0245L59.4331 20.0511C59.4331 20.073 59.4416 20.0939 59.4569 20.1094C59.4722 20.1249 59.493 20.1336 59.5146 20.1336L61.4592 20.1362C61.6724 20.1366 61.8837 20.0985 62.0808 20.0241C62.278 19.9496 62.4572 19.8403 62.6083 19.7024C62.7593 19.5645 62.8792 19.4006 62.9611 19.2202C63.043 19.0398 63.0853 18.8464 63.0856 18.6509V18.4353C63.0862 18.0407 62.9158 17.662 62.6118 17.3825C62.3077 17.1029 61.895 16.9454 61.4644 16.9447L59.5198 16.942C59.4982 16.942 59.4775 16.9507 59.4622 16.9662C59.4469 16.9816 59.4383 17.0026 59.4383 17.0245Z" fill="#929AAB"/>
<path d="M26.4127 22.6664L30.866 22.6637C30.8721 22.6637 30.8781 22.6649 30.8836 22.6672C30.8892 22.6696 30.8943 22.673 30.8986 22.6773C30.9028 22.6817 30.9062 22.6868 30.9085 22.6924C30.9109 22.6981 30.912 22.7042 30.912 22.7103L30.9055 24.3513C30.9055 24.3637 30.9006 24.3755 30.892 24.3843C30.8834 24.393 30.8717 24.3979 30.8594 24.3979H24.3156C24.3034 24.3979 24.2917 24.393 24.2831 24.3843C24.2744 24.3755 24.2696 24.3637 24.2696 24.3513L24.267 15.257C24.267 15.2447 24.2718 15.2328 24.2804 15.2241C24.2891 15.2154 24.3008 15.2105 24.313 15.2105L26.3207 15.2078C26.3329 15.2078 26.3446 15.2127 26.3532 15.2214C26.3619 15.2302 26.3667 15.242 26.3667 15.2544V22.6198C26.3667 22.6321 26.3716 22.644 26.3802 22.6527C26.3888 22.6614 26.4005 22.6664 26.4127 22.6664Z" fill="#929AAB"/>
<path d="M34.7881 15.2105H32.7949C32.7651 15.2105 32.741 15.2349 32.741 15.265V24.3447C32.741 24.3748 32.7651 24.3993 32.7949 24.3993H34.7881C34.8179 24.3993 34.842 24.3748 34.842 24.3447V15.265C34.842 15.2349 34.8179 15.2105 34.7881 15.2105Z" fill="#929AAB"/>
<path d="M50.6106 17.3932L47.7403 24.3726C47.7372 24.3802 47.7319 24.3867 47.7251 24.3912C47.7183 24.3957 47.7103 24.398 47.7022 24.3979H45.6419C45.6349 24.3981 45.6281 24.3965 45.6219 24.3933C45.6158 24.39 45.6105 24.3852 45.6067 24.3794C45.6029 24.3735 45.6006 24.3668 45.6001 24.3598C45.5996 24.3527 45.6008 24.3457 45.6037 24.3394L49.6008 15.2331C49.604 15.226 49.6092 15.2199 49.6157 15.2157C49.6223 15.2114 49.6298 15.2092 49.6376 15.2091L51.6769 15.2105C51.6846 15.2105 51.6922 15.2128 51.6987 15.217C51.7052 15.2213 51.7104 15.2273 51.7137 15.2344L55.7239 24.338C55.7268 24.3444 55.728 24.3514 55.7275 24.3584C55.727 24.3654 55.7247 24.3722 55.7209 24.378C55.7171 24.3839 55.7119 24.3887 55.7057 24.3919C55.6995 24.3952 55.6927 24.3968 55.6857 24.3966L53.5755 24.3979C53.5673 24.398 53.5594 24.3957 53.5526 24.3912C53.5458 24.3867 53.5405 24.3802 53.5373 24.3726L50.6868 17.3932C50.6839 17.3854 50.6787 17.3786 50.6719 17.3738C50.6651 17.3691 50.657 17.3665 50.6487 17.3665C50.6404 17.3665 50.6323 17.3691 50.6255 17.3738C50.6187 17.3786 50.6135 17.3854 50.6106 17.3932Z" fill="#929AAB"/>
<path d="M69.5532 24.3966L67.5652 24.3979C67.5598 24.3979 67.5545 24.3969 67.5496 24.3948C67.5446 24.3927 67.5401 24.3897 67.5364 24.3858C67.5326 24.382 67.5296 24.3775 67.5275 24.3725C67.5255 24.3674 67.5244 24.3621 67.5244 24.3567L67.5257 15.2571C67.5257 15.2516 67.5268 15.2463 67.5288 15.2413C67.5309 15.2363 67.5339 15.2317 67.5377 15.2279C67.5415 15.2241 67.5459 15.221 67.5509 15.2189C67.5558 15.2169 67.5611 15.2158 67.5665 15.2158L69.2534 15.1998C69.2595 15.1999 69.2655 15.2014 69.271 15.2042C69.2764 15.2069 69.2812 15.2109 69.285 15.2158L73.6962 20.6913C73.7014 20.6978 73.7086 20.7025 73.7166 20.7049C73.7246 20.7072 73.7331 20.7069 73.741 20.7042C73.7489 20.7014 73.7558 20.6963 73.7607 20.6894C73.7656 20.6826 73.7683 20.6744 73.7685 20.666L73.7593 15.2517C73.7593 15.2408 73.7636 15.2303 73.7712 15.2226C73.7788 15.2148 73.7892 15.2105 73.8 15.2105L75.7985 15.2091C75.8094 15.2091 75.8197 15.2135 75.8274 15.2212C75.835 15.229 75.8393 15.2395 75.8393 15.2504L75.8406 24.3553C75.8406 24.3663 75.8363 24.3768 75.8287 24.3845C75.821 24.3922 75.8107 24.3966 75.7999 24.3966L74.1287 24.4006C74.1227 24.4006 74.1168 24.3994 74.1113 24.3968C74.1059 24.3943 74.101 24.3906 74.0972 24.3859L69.6584 18.8985C69.653 18.8919 69.6458 18.8871 69.6376 18.8848C69.6295 18.8826 69.6208 18.8829 69.6129 18.8858C69.6049 18.8888 69.5981 18.8941 69.5933 18.9011C69.5885 18.9082 69.5859 18.9166 69.586 18.9251L69.5939 24.3553C69.5939 24.3663 69.5896 24.3768 69.582 24.3845C69.5744 24.3922 69.564 24.3966 69.5532 24.3966Z" fill="#929AAB"/>
<path d="M42.9321 32.6191C41.8233 33.2491 40.8525 34.0503 40.0198 35.0228C39.8743 35.1922 39.7064 35.2193 39.5162 35.1039L39.4491 35.0627C39.237 34.9331 39.1976 34.7628 39.3308 34.5516C39.7796 33.84 40.1938 33.1075 40.5733 32.3542C40.5996 32.3028 40.6066 32.2487 40.5944 32.1919C40.5937 32.189 40.5923 32.1863 40.5903 32.1842C40.5884 32.182 40.5859 32.1803 40.5831 32.1794C40.5803 32.1785 40.5774 32.1783 40.5745 32.1788C40.5717 32.1794 40.569 32.1807 40.5667 32.1825C39.3089 33.1444 38.1063 34.1719 36.9589 35.265C36.9121 35.3099 36.8514 35.3375 36.7866 35.3435C36.4886 35.371 36.2585 35.265 36.0964 35.0254C36.0832 35.0057 36.0763 34.9824 36.0765 34.9587C36.0768 34.9349 36.0841 34.9118 36.0977 34.8923C36.4755 34.344 36.841 33.7872 37.1942 33.222C37.3853 32.9159 37.3472 32.8871 37.0799 33.1355C36.4724 33.6998 35.7256 34.0498 34.8973 33.797C34.8552 33.7837 34.8197 33.7939 34.7908 33.8276C34.2605 34.454 33.6232 34.899 32.879 35.1625C31.8771 35.5179 30.7924 35.4726 30.7451 34.1071C30.7449 34.0974 30.742 34.088 30.7368 34.08C30.7315 34.072 30.7241 34.0656 30.7154 34.0617C30.7067 34.0578 30.6971 34.0564 30.6877 34.0579C30.6782 34.0593 30.6694 34.0635 30.6622 34.0698C30.0022 34.6261 28.4534 35.6576 27.6014 35.0214C26.7494 34.3852 27.675 33.2114 28.1759 32.7229C28.1834 32.7152 28.188 32.7051 28.1887 32.6943C28.1895 32.6835 28.1864 32.6728 28.1801 32.6642C28.1737 32.6555 28.1645 32.6494 28.1541 32.647C28.1437 32.6446 28.1328 32.646 28.1233 32.651C26.9992 33.2686 25.992 34.1656 25.2413 35.0707C25.1904 35.132 25.1191 35.1724 25.0407 35.1844C24.9623 35.1964 24.8822 35.1791 24.8153 35.1359L24.6588 35.0361C24.5072 34.9385 24.4774 34.8116 24.5694 34.6554C24.7982 34.265 25.0559 33.8968 25.3425 33.5507C25.3478 33.5445 25.3473 33.5388 25.3412 33.5334L25.3162 33.5095C25.2995 33.4935 25.2829 33.4931 25.2662 33.5082C24.7412 33.9571 24.1789 34.3524 23.5793 34.694C23.4198 34.7845 23.2848 34.7561 23.1744 34.6088L23.081 34.4824C22.9644 34.3262 22.989 34.1976 23.1546 34.0964C24.7806 33.1071 26.2388 31.9066 27.529 30.4949C28.0997 29.8707 31.3131 26.1228 32.0822 26.4662C32.2602 26.546 32.3066 26.6747 32.2216 26.8522C31.9205 27.4804 31.2224 28.066 30.7188 28.5331C29.3067 29.8414 27.9116 31.1591 26.727 32.6617C26.6157 32.8028 26.635 32.8241 26.7849 32.7256C27.7631 32.0787 28.9135 31.2735 30.0666 31.014C30.185 30.9874 30.2845 31.0202 30.3651 31.1125C30.7977 31.6089 30.4335 31.8019 30.0324 32.128C29.5486 32.5193 28.2943 33.399 28.3337 34.1031C28.3361 34.1469 28.3484 34.1896 28.3696 34.2279C28.3908 34.2662 28.4204 34.2991 28.4561 34.3241C28.4919 34.3491 28.5328 34.3656 28.5759 34.3723C28.6189 34.3789 28.6629 34.3756 28.7045 34.3626C29.45 34.127 30.0338 33.7078 30.6938 33.1781C31.2631 32.7202 31.8035 32.0721 32.2781 31.7101C32.9658 31.187 33.877 30.7451 34.7474 30.7904C35.8965 30.8489 35.8518 32.0415 35.4455 32.7921C35.4366 32.809 35.4323 32.828 35.4331 32.8471C35.4338 32.8662 35.4396 32.8848 35.4497 32.9009C35.4599 32.917 35.4741 32.9301 35.491 32.9388C35.5078 32.9475 35.5266 32.9516 35.5455 32.9505C36.124 32.9168 36.6091 32.7105 37.001 32.3316C37.4813 31.8676 37.9297 31.372 38.346 30.845C38.3809 30.8007 38.4285 30.7686 38.4822 30.7531C38.536 30.7376 38.5932 30.7395 38.6458 30.7584C38.8641 30.8392 39.0183 30.9865 39.1086 31.2003C39.1261 31.2429 39.1279 31.2859 39.1139 31.3294C38.9263 31.9257 38.644 32.4718 38.2671 32.9678C38.2627 32.9731 38.2636 32.9776 38.2698 32.9811L38.3053 33.0037C38.3199 33.0131 38.3372 33.0171 38.3544 33.0152C38.3716 33.0133 38.3877 33.0055 38.3999 32.9931C39.1538 32.2416 39.9225 31.6182 40.7061 31.1231C40.8236 31.0486 40.9656 30.99 41.1321 30.9474C42.2839 30.656 41.7974 32.1759 41.5108 32.5858C41.5013 32.5995 41.4971 32.6161 41.4987 32.6326C41.5003 32.6491 41.5077 32.6645 41.5197 32.6761C41.5316 32.6877 41.5473 32.6947 41.5639 32.696C41.5806 32.6973 41.5971 32.6927 41.6107 32.683C42.5074 32.0175 43.7539 31.2402 44.8754 31.0007C44.9217 30.9913 44.9699 31.0008 45.0095 31.0273C45.1778 31.1426 45.279 31.305 45.3132 31.5144C45.32 31.5564 45.3116 31.599 45.2896 31.6342C45.1984 31.7788 45.0993 31.8911 44.9924 31.9709C44.3784 32.4261 43.0767 33.3631 43.0675 34.0632C43.0668 34.1067 43.0755 34.1498 43.093 34.1896C43.1106 34.2293 43.1366 34.2647 43.1692 34.2932C43.2017 34.3218 43.2401 34.3428 43.2816 34.3547C43.3231 34.3667 43.3667 34.3694 43.4094 34.3626C44.4441 34.1963 45.4868 33.1967 46.1692 32.4474C46.8095 31.7447 48.3689 30.636 49.3786 30.9674C49.7231 31.0801 49.8542 31.3534 49.7718 31.7873C49.5377 33.021 47.7943 33.6519 46.7056 33.6905C46.5373 33.6967 46.4685 33.7837 46.4992 33.9514L46.5255 34.0991C46.5407 34.1821 46.582 34.2578 46.6431 34.3149C46.7043 34.372 46.782 34.4074 46.8647 34.4159C47.5734 34.4851 48.3044 34.0964 48.8764 33.6399C48.9877 33.5512 49.0929 33.5583 49.1919 33.6612L49.326 33.7983C49.426 33.9021 49.4255 34.0055 49.3247 34.1084C48.5718 34.8812 47.7005 35.2632 46.7109 35.2543C45.9943 35.249 45.4434 34.9363 45.3658 34.1803C45.3647 34.1699 45.3609 34.1599 45.3548 34.1515C45.3486 34.1431 45.3403 34.1365 45.3308 34.1324C45.3213 34.1283 45.3108 34.1269 45.3006 34.1283C45.2903 34.1297 45.2806 34.1339 45.2725 34.1404C44.8254 34.5077 44.3407 34.8076 43.8183 35.0401C43.2082 35.3116 42.2221 35.3582 42.0485 34.513C41.9933 34.2433 42.0415 33.9585 42.1932 33.6586C42.3851 33.2779 42.6468 32.9501 42.9781 32.675C42.9851 32.6688 42.986 32.6621 42.9807 32.655L42.9597 32.6244C42.9527 32.6138 42.9435 32.612 42.9321 32.6191ZM31.8272 34.2468C32.4412 34.8444 33.8638 33.7916 34.2898 33.3777C34.324 33.344 34.3319 33.305 34.3135 33.2606C34.1044 32.7455 34.1518 32.1586 34.629 31.8245C34.6409 31.8162 34.6502 31.8045 34.6555 31.7909C34.6609 31.7773 34.6622 31.7624 34.6592 31.748C34.6563 31.7337 34.6492 31.7206 34.639 31.7103C34.6287 31.6999 34.6156 31.6929 34.6014 31.6901C33.6087 31.4905 31.956 32.6683 31.6944 33.6479C31.6278 33.8963 31.672 34.096 31.8272 34.2468ZM46.9844 33.0969C47.5668 33.021 48.666 32.6018 48.9618 32.0561C49.0609 31.8733 49.0057 31.7438 48.7962 31.6675C48.7585 31.6533 48.7203 31.6524 48.6818 31.6648C47.9784 31.8831 47.3591 32.3822 46.8989 32.9412C46.7963 33.0663 46.8248 33.1182 46.9844 33.0969Z" fill="#BBBBBB"/>
</g>
<defs>
<clipPath id="clip0_1_994">
<rect width="71" height="37" fill="white" transform="translate(17 4)"/>
</clipPath>
</defs>
</svg>
