<svg width="105" height="45" viewBox="0 0 105 45" fill="none" xmlns="http://www.w3.org/2000/svg">
<g clip-path="url(#clip0_1_985)">
<path d="M41.375 16.6675C39.5831 16.6675 38.9198 18.1531 38.9198 18.786H44.0609C44.0809 17.6272 43.1668 16.6675 41.375 16.6675Z" fill="#929AAB"/>
<path d="M81.7812 8.07304H83.6496C84.5624 8.07304 85.2132 7.61223 85.2132 6.83806C85.2187 6.67984 85.1878 6.52243 85.1227 6.37755C85.0575 6.23266 84.9599 6.10403 84.837 6.00123H81.7812V8.07304Z" fill="#929AAB"/>
<path d="M88.2038 6.00123C88.5541 6.71953 88.7362 7.50548 88.7367 8.30161C88.7393 9.11136 88.5558 9.91129 88.1998 10.642C87.8438 11.3728 87.3244 12.0156 86.6802 12.5227C86.036 13.0298 85.2835 13.3882 84.4786 13.5712C83.6738 13.7543 82.8371 13.7574 82.0308 13.5803C81.2246 13.4032 80.4694 13.0503 79.8213 12.548C79.1732 12.0457 78.6489 11.4068 78.2873 10.6787C77.9256 9.95058 77.736 9.15202 77.7324 8.34228C77.7288 7.53253 77.9113 6.73238 78.2665 6.00123H13L20.3342 37.9631C24.8345 35.0619 30.4909 33.3292 36.6414 33.3292C42.8144 33.3292 48.4897 35.0754 52.9987 37.9988C57.5129 35.0766 63.1843 33.3292 69.3574 33.3292C75.5016 33.3292 81.163 35.0619 85.6583 37.9631L93 6.00001L88.2038 6.00123ZM34.0934 25.4069H23.8777L23.8614 14.8931H28.1937V22.7379H34.0934V25.4069ZM41.9843 23.5281C43.6633 23.5281 44.2226 22.6863 44.3066 22.3828H48.2502C48.0721 23.243 47.3185 23.9287 46.6376 24.4067C44.9975 25.5519 42.4545 25.7105 41.6219 25.7105H41.4013C37.6596 25.5384 34.358 24.2223 34.358 20.0824C34.358 15.0897 40.0395 14.3954 41.326 14.4089H41.4013C43.1567 14.4384 45.2307 14.8009 46.6339 16.2792C47.5668 17.2487 48.2025 18.845 48.2464 21.0028L38.916 21.0176C38.9198 22.5585 40.3053 23.5281 41.9843 23.5281ZM56.9561 25.4069H53.2821L47.232 15.0688L47.148 14.9361H52.1473L55.8414 21.5718L59.1655 14.9029H62.5411L56.9561 25.4069ZM67.3473 25.4069H63.0564V14.8931H67.3473V25.4069ZM70.8771 15.8368C70.8359 16.1372 70.713 16.4211 70.5213 16.659C70.3296 16.8968 70.0761 17.0797 69.7875 17.1885C69.5833 17.2578 69.3675 17.2879 69.1517 17.277V16.8395C69.8502 16.8395 69.815 15.9793 69.7599 15.7889H68.3505V13.9063H70.8771V15.8368ZM76.7555 25.6539C73.2445 25.6539 71.5129 24.3612 71.3248 22.3189C73.1367 22.3189 72.6564 22.3336 74.4596 22.3472C74.7843 23.6903 75.558 23.9311 77.1191 23.9176C77.9154 23.9753 79.0639 23.5489 79.0639 22.8006C79.0639 22.078 78.2815 21.8593 76.5561 21.487C73.9404 20.9205 71.1041 20.413 71.1041 18.351C71.1041 15.7926 74.6464 14.3954 77.4163 14.4961H77.5931C81.5404 14.4961 82.9072 16.7744 82.9072 17.8042L79.7122 17.8337C79.5104 16.7093 78.5361 16.536 77.3423 16.4205C77.2396 16.4082 77.1361 16.4033 77.0326 16.4058C75.9041 16.4058 75.0263 16.7044 75.0364 17.497C75.0464 18.2895 76.4157 18.5316 77.6207 18.6176C77.7824 18.6324 83.1718 19.0551 83.1718 21.9244C83.1693 24.6832 80.264 25.6527 76.7555 25.6527V25.6539Z" fill="#929AAB"/>
<path d="M85.9104 6.81226C85.9104 7.80884 85.2132 8.38762 84.2577 8.55843L86.1261 10.994H85.2834L83.5192 8.67762H81.7812V10.994H81.0941V6.00123H79.0264C78.616 6.72052 78.4047 7.53245 78.4135 8.35647C78.4222 9.18049 78.6506 9.98795 79.0761 10.6987C79.5015 11.4095 80.1093 11.999 80.8389 12.4085C81.5686 12.8181 82.3949 13.0336 83.2358 13.0336C84.0767 13.0336 84.9029 12.8181 85.6326 12.4085C86.3623 11.999 86.97 11.4095 87.3955 10.6987C87.8209 9.98795 88.0494 9.18049 88.0581 8.35647C88.0668 7.53245 87.8555 6.72052 87.4452 6.00123H85.7047C85.8411 6.2506 85.9117 6.52936 85.9104 6.81226Z" fill="#929AAB"/>
<path d="M30.9887 22.733H28.1937V14.8931H23.8615L23.8778 25.4057H30.9887H32.4433H34.0934V22.733H32.4433H30.9887Z" fill="white"/>
<path d="M46.6377 16.2792C45.2345 14.8046 43.1643 14.4359 41.4051 14.4089H41.3298C40.0433 14.3954 34.3618 15.0897 34.3618 20.0824C34.3618 24.2223 37.6634 25.5384 41.4051 25.7105H41.6258C42.4546 25.7105 44.9976 25.5519 46.6414 24.4067C47.3223 23.9287 48.0759 23.238 48.254 22.3828H44.3066C44.2226 22.6863 43.6634 23.5281 41.9844 23.5281C40.3054 23.5281 38.9198 22.5585 38.9198 21.0176L48.2502 21.0028C48.2063 18.845 47.5706 17.2487 46.6377 16.2792ZM38.9198 18.786C38.9198 18.1531 39.5831 16.6675 41.375 16.6675C43.1668 16.6675 44.0809 17.6272 44.0659 18.786H38.9198Z" fill="white"/>
<path d="M77.6182 18.6164C76.4094 18.5304 75.0489 18.2895 75.0338 17.4957C75.0188 16.7019 75.8953 16.4045 77.0301 16.4045C77.1336 16.4021 77.2371 16.407 77.3398 16.4193C78.5335 16.5348 79.5078 16.708 79.7097 17.8324L82.9047 17.8029C82.9047 16.7732 81.5379 14.4949 77.5906 14.4949H77.4138C74.6439 14.3941 71.1016 15.7913 71.1016 18.3498C71.1016 20.4117 73.9379 20.9192 76.5536 21.4857C78.2752 21.8544 79.0614 22.0768 79.0614 22.7994C79.0614 23.544 77.9129 23.9741 77.1166 23.9164C75.5555 23.9299 74.7818 23.689 74.457 22.3459C72.6602 22.3324 73.1404 22.3176 71.3223 22.3176C71.5103 24.36 73.2445 25.6527 76.753 25.6527C80.2614 25.6527 83.1668 24.6831 83.1668 21.9232C83.1693 19.0514 77.7799 18.6312 77.6182 18.6164Z" fill="white"/>
<path d="M68.3505 13.9063V15.7913H69.7599C69.815 15.9867 69.8502 16.842 69.1517 16.842V17.2807C69.3675 17.2916 69.5833 17.2615 69.7875 17.1922C70.0761 17.0834 70.3296 16.9005 70.5213 16.6626C70.713 16.4248 70.8359 16.1409 70.8771 15.8405V13.9112H68.3505V13.9063Z" fill="white"/>
<path d="M55.8376 21.5718L52.1435 14.9361H47.2282H47.1442L47.2282 15.0688L53.2821 25.4057H56.1486H56.9561L62.5373 14.9029H59.1617L55.8376 21.5718Z" fill="white"/>
<path d="M67.3473 14.8931H63.0564V25.4057H67.3473V14.8931Z" fill="white"/>
<path d="M81.7812 10.994V8.67762H83.5192L85.2834 10.994H86.1261L84.2577 8.55843C85.2132 8.38762 85.9104 7.80884 85.9104 6.81226C85.9117 6.52936 85.8411 6.2506 85.7047 6.00123H84.8383C84.9611 6.10403 85.0588 6.23266 85.1239 6.37755C85.189 6.52243 85.22 6.67984 85.2145 6.83806C85.2145 7.61223 84.5637 8.07304 83.6508 8.07304H81.7825V6.00123H81.0953V10.994H81.7812Z" fill="white"/>
<path d="M83.2357 13.6925C84.694 13.6905 86.0921 13.1219 87.1232 12.1114C88.1544 11.1008 88.7346 9.73075 88.7366 8.3016C88.7357 7.50538 88.5532 6.71942 88.2025 6.00123H87.4501C87.8604 6.72052 88.0717 7.53245 88.063 8.35647C88.0543 9.18049 87.8259 9.98795 87.4004 10.6987C86.9749 11.4095 86.3672 11.999 85.6375 12.4085C84.9079 12.8181 84.0816 13.0336 83.2407 13.0336C82.3998 13.0336 81.5736 12.8181 80.8439 12.4085C80.1142 11.999 79.5065 11.4095 79.081 10.6987C78.6555 9.98795 78.4271 9.18049 78.4184 8.35647C78.4097 7.53245 78.621 6.72052 79.0313 6.00123H78.2664C77.8675 6.82214 77.6874 7.72876 77.743 8.63638C77.7987 9.544 78.0882 10.423 78.5845 11.1912C79.0808 11.9594 79.7678 12.5918 80.5812 13.0292C81.3946 13.4666 82.3079 13.6948 83.2357 13.6925Z" fill="white"/>
</g>
<defs>
<clipPath id="clip0_1_985">
<rect width="80" height="32" fill="white" transform="translate(13 6)"/>
</clipPath>
</defs>
</svg>
