<svg width="105" height="45" viewBox="0 0 105 45" fill="none" xmlns="http://www.w3.org/2000/svg">
<path fill-rule="evenodd" clip-rule="evenodd" d="M31.2332 26.8622L41.1935 16.7389L49.6798 25.183L54.0345 20.8668L54.1274 24.492L39.9718 38.6018L38.1543 36.7969L40.4728 34.6153L33.8633 27.8508L31.4217 30.2053L31.2332 26.8622Z" fill="#BBBBBB" stroke="#BBBBBB" stroke-width="1.18627" stroke-miterlimit="2.613"/>
<path fill-rule="evenodd" clip-rule="evenodd" d="M74.4073 13.8672H88.5001V17.0375H86.2762V28.3376L94.9686 23.5819L95 31.8846H74.3282V28.6038H76.6468L76.6616 17.0375H74.423L74.4073 13.8672Z" fill="#929AAB" stroke="#929AAB" stroke-width="1.18627" stroke-miterlimit="2.613"/>
<path fill-rule="evenodd" clip-rule="evenodd" d="M39.9718 16.0016C42.9782 16.0016 45.4516 13.5219 45.4516 10.4921C45.4516 7.46368 42.9782 5.00009 39.9718 5.00009C36.9339 5.00009 34.4744 7.46368 34.4744 10.4921C34.4744 13.5219 36.9339 16.0016 39.9718 16.0016Z" fill="#BBBBBB" stroke="#BBBBBB" stroke-width="1.18627" stroke-miterlimit="2.613"/>
<path fill-rule="evenodd" clip-rule="evenodd" d="M11.079 14.0719H25.1579V17.2413H22.9484V28.5409L31.6408 23.7861L31.6556 32.0879H11V28.8233H13.3024L13.319 17.2413H11.0642L11.079 14.0719Z" fill="#929AAB" stroke="#929AAB" stroke-width="1.18627" stroke-miterlimit="2.613"/>
<path fill-rule="evenodd" clip-rule="evenodd" d="M65.9824 31.8532H51.3091V28.6672H53.7983L53.7511 17.1475H51.262V14.0239H66.0597C70.3506 14.0087 73.7643 17.0061 73.8119 22.9062C73.7809 28.9976 69.991 31.8532 65.9824 31.8532ZM63.0528 26.2808C64.7612 26.266 66.1863 25.2926 66.2011 22.6723C66.2011 20.1292 64.7298 19.0153 63.0856 19.0153L63.0528 26.2808Z" fill="#929AAB"/>
</svg>
