<svg width="105" height="45" viewBox="0 0 105 45" fill="none" xmlns="http://www.w3.org/2000/svg">
<path d="M77.5994 23.7987L74.191 23.8152C74.173 23.8155 74.1551 23.8122 74.1383 23.8055C74.1216 23.7988 74.1064 23.7888 74.0935 23.7761C74.0807 23.7635 74.0705 23.7484 74.0635 23.7318C74.0566 23.7152 74.053 23.6973 74.053 23.6793L74.0571 21.6919C74.0571 21.6274 74.0887 21.5951 74.1519 21.5951L80.0769 21.589C80.1442 21.589 80.1778 21.6219 80.1778 21.6878L80.1758 27.5119C80.1757 27.5525 80.1668 27.5923 80.1497 27.6286C80.1326 27.665 80.1078 27.6969 80.0769 27.722C76.9054 30.3396 71.8267 30.8441 68.7643 27.7014C65.7719 24.6308 66.1756 19.0682 69.6314 16.5103C72.5949 14.317 76.6191 14.593 79.5394 16.8172C79.5607 16.8331 79.5785 16.8532 79.5918 16.8762C79.605 16.8993 79.6135 16.9248 79.6166 16.9512C79.6196 16.9776 79.6173 17.0043 79.6097 17.0298C79.6021 17.0553 79.5894 17.0789 79.5723 17.0993L78.1554 18.7984C78.1421 18.8148 78.1255 18.8283 78.1067 18.8379C78.0879 18.8476 78.0672 18.8533 78.0459 18.8547C78.0247 18.856 78.0034 18.853 77.9832 18.8458C77.9631 18.8386 77.9446 18.8274 77.9289 18.8128C76.4893 17.4845 74.296 16.9593 72.4528 17.6636C69.1433 18.9281 68.4781 23.6422 70.7661 26.1301C72.4487 27.9609 75.1795 27.8353 77.2761 26.7561C77.5891 26.5955 77.747 26.3827 77.7497 26.1177C77.7552 25.3777 77.7408 24.639 77.7065 23.9017C77.7037 23.8331 77.668 23.7987 77.5994 23.7987Z" fill="#929AAB"/>
<path d="M8.63198 27.304L15.9657 27.306C15.9936 27.306 16.0203 27.3171 16.04 27.3368C16.0597 27.3565 16.0707 27.3832 16.0707 27.411L16.0687 29.5055C16.0687 29.5334 16.0576 29.5601 16.0379 29.5798C16.0182 29.5995 15.9915 29.6105 15.9636 29.6105H6.10503C6.07718 29.6105 6.05046 29.5995 6.03076 29.5798C6.01107 29.5601 6 29.5334 6 29.5055V15.3859C6 15.358 6.01107 15.3313 6.03076 15.3116C6.05046 15.2919 6.07718 15.2808 6.10503 15.2808L8.4281 15.2644C8.45596 15.2644 8.48267 15.2754 8.50237 15.2951C8.52207 15.3148 8.53313 15.3416 8.53313 15.3694L8.52695 27.1989C8.52695 27.2268 8.53802 27.2535 8.55772 27.2732C8.57741 27.2929 8.60413 27.304 8.63198 27.304Z" fill="#929AAB"/>
<path d="M21.0315 15.268H18.6919C18.6419 15.268 18.6013 15.3085 18.6013 15.3586V29.5194C18.6013 29.5695 18.6419 29.61 18.6919 29.61H21.0315C21.0815 29.61 21.1221 29.5695 21.1221 29.5194V15.3586C21.1221 15.3085 21.0815 15.268 21.0315 15.268Z" fill="#929AAB"/>
<path d="M34.9479 15.2664L37.551 15.2787C37.5611 15.2787 37.571 15.2811 37.58 15.2858C37.5889 15.2905 37.5965 15.2973 37.6022 15.3057C37.6079 15.314 37.6115 15.3236 37.6126 15.3336C37.6137 15.3436 37.6124 15.3538 37.6087 15.3632L31.7289 29.6826C31.7244 29.6941 31.7164 29.704 31.7061 29.711C31.6959 29.718 31.6837 29.7217 31.6713 29.7217L29.5068 29.7196C29.4943 29.7197 29.4822 29.7159 29.4719 29.709C29.4616 29.702 29.4537 29.6921 29.4491 29.6805L23.5364 15.3446C23.5323 15.3351 23.5306 15.3248 23.5315 15.3145C23.5324 15.3042 23.5359 15.2942 23.5416 15.2856C23.5474 15.277 23.5552 15.27 23.5643 15.2652C23.5735 15.2604 23.5837 15.258 23.5941 15.2581L26.2775 15.2746C26.2896 15.275 26.3013 15.2789 26.3112 15.2858C26.3211 15.2928 26.3287 15.3025 26.3332 15.3137L30.5592 26.1115C30.5636 26.1231 30.5716 26.1331 30.5818 26.1402C30.5921 26.1473 30.6043 26.1511 30.6168 26.1511C30.6293 26.1511 30.6415 26.1473 30.6518 26.1402C30.6621 26.1331 30.67 26.1231 30.6745 26.1115L34.8902 15.3055C34.8948 15.2939 34.9027 15.284 34.913 15.277C34.9233 15.27 34.9354 15.2663 34.9479 15.2664Z" fill="#929AAB"/>
<path d="M42.3377 23.6152V27.2481C42.3377 27.2743 42.3481 27.2995 42.3666 27.318C42.3852 27.3365 42.4103 27.3469 42.4365 27.3469L50.4293 27.3449C50.4555 27.3449 50.4806 27.3553 50.4992 27.3738C50.5177 27.3924 50.5281 27.4175 50.5281 27.4437L50.5343 29.5094C50.5343 29.5224 50.5318 29.5352 50.5268 29.5472C50.5218 29.5592 50.5145 29.5701 50.5054 29.5793C50.4962 29.5885 50.4853 29.5957 50.4733 29.6007C50.4613 29.6057 50.4484 29.6082 50.4355 29.6082H39.9034C39.8904 29.6082 39.8776 29.6057 39.8656 29.6007C39.8536 29.5957 39.8427 29.5885 39.8335 29.5793C39.8243 29.5701 39.817 29.5592 39.8121 29.5472C39.8071 29.5352 39.8045 29.5224 39.8045 29.5094L39.8025 15.3671C39.8025 15.3409 39.8129 15.3157 39.8314 15.2972C39.85 15.2786 39.8751 15.2682 39.9013 15.2682L50.3407 15.2662C50.3669 15.2662 50.3921 15.2766 50.4106 15.2951C50.4292 15.3137 50.4396 15.3388 50.4396 15.365L50.4416 17.4554C50.4416 17.4684 50.4391 17.4812 50.4341 17.4932C50.4291 17.5052 50.4219 17.5161 50.4127 17.5253C50.4035 17.5345 50.3926 17.5417 50.3806 17.5467C50.3686 17.5517 50.3558 17.5542 50.3428 17.5542L42.4365 17.5481C42.4103 17.5481 42.3852 17.5585 42.3666 17.577C42.3481 17.5955 42.3377 17.6207 42.3377 17.6469L42.3397 21.1439C42.3397 21.1701 42.3502 21.1952 42.3687 21.2138C42.3872 21.2323 42.4124 21.2427 42.4386 21.2427L49.414 21.2386C49.4402 21.2386 49.4653 21.249 49.4839 21.2675C49.5024 21.2861 49.5128 21.3112 49.5128 21.3375L49.5231 23.4278C49.5231 23.454 49.5127 23.4792 49.4942 23.4977C49.4756 23.5162 49.4505 23.5267 49.4243 23.5267L42.4365 23.5164C42.4103 23.5164 42.3852 23.5268 42.3666 23.5453C42.3481 23.5638 42.3377 23.589 42.3377 23.6152Z" fill="#929AAB"/>
<path d="M55.6739 24.7256L55.6718 29.5097C55.6718 29.5227 55.6692 29.5356 55.6643 29.5476C55.6593 29.5596 55.652 29.5705 55.6428 29.5796C55.6337 29.5888 55.6228 29.5961 55.6108 29.6011C55.5988 29.606 55.5859 29.6086 55.5729 29.6086L53.2437 29.6065C53.1751 29.6065 53.1407 29.5729 53.1407 29.5056L53.1387 15.4004C53.1387 15.3665 53.1521 15.3341 53.1761 15.3101C53.2 15.2862 53.2325 15.2727 53.2664 15.2727C55.4521 15.27 57.6441 15.27 59.8422 15.2727C62.3753 15.2768 64.5089 16.6134 64.8055 19.2825C65.0677 21.6591 63.9954 23.2943 61.5886 24.1881C61.5255 24.2114 61.5138 24.2506 61.5536 24.3055L65.2565 29.5056C65.3087 29.5784 65.2901 29.6148 65.2009 29.6148L62.4206 29.6168C62.3868 29.6168 62.3537 29.6087 62.3239 29.5933C62.2941 29.5779 62.2687 29.5556 62.2497 29.5283L58.8907 24.7442C58.8647 24.7067 58.8298 24.6761 58.7889 24.6549C58.748 24.6337 58.7024 24.6227 58.656 24.6227H55.7748C55.7075 24.6227 55.6739 24.657 55.6739 24.7256ZM55.6677 17.6555L55.6759 22.2852C55.6759 22.3059 55.6842 22.3258 55.6988 22.3405C55.7135 22.3552 55.7334 22.3634 55.7542 22.3634L59.6404 22.3552C60.3377 22.3539 61.0061 22.1189 61.4985 21.7018C61.9909 21.2847 62.2671 20.7197 62.2662 20.131V19.785C62.2657 19.4934 62.1973 19.2047 62.0646 18.9356C61.932 18.6664 61.7379 18.4219 61.4933 18.2161C61.2487 18.0103 60.9584 17.8473 60.6391 17.7362C60.3197 17.6252 59.9776 17.5684 59.6321 17.569L55.7459 17.5773C55.7252 17.5773 55.7053 17.5855 55.6906 17.6002C55.6759 17.6148 55.6677 17.6348 55.6677 17.6555Z" fill="#929AAB"/>
<path d="M84.1689 15.3032L86.7391 19.383C86.746 19.3941 86.7497 19.407 86.7497 19.4201C86.7497 19.4332 86.746 19.446 86.7391 19.4572L85.4848 21.4837C85.4788 21.4937 85.4704 21.502 85.4604 21.508C85.4503 21.5139 85.4389 21.5172 85.4273 21.5176C85.4156 21.518 85.404 21.5155 85.3936 21.5103C85.3831 21.5051 85.3742 21.4974 85.3675 21.4878L81.2032 15.3753C81.1962 15.3648 81.1921 15.3526 81.1914 15.3399C81.1907 15.3273 81.1935 15.3147 81.1994 15.3035C81.2053 15.2923 81.2142 15.2829 81.225 15.2763C81.2358 15.2698 81.2482 15.2662 81.2609 15.2662L84.1091 15.2703C84.1211 15.2702 84.1328 15.2732 84.1433 15.279C84.1537 15.2848 84.1625 15.2931 84.1689 15.3032Z" fill="#929AAB"/>
<path d="M89.288 29.6121L86.9135 29.6141C86.8895 29.6141 86.8664 29.6046 86.8494 29.5876C86.8324 29.5706 86.8229 29.5476 86.8229 29.5235V23.6397C86.8228 23.6221 86.8278 23.605 86.8373 23.5902L92.1342 15.3112C92.1425 15.2985 92.1538 15.2881 92.1671 15.2809C92.1804 15.2737 92.1953 15.27 92.2104 15.27L94.9145 15.268C94.9308 15.2679 94.9469 15.2723 94.9609 15.2806C94.975 15.289 94.9865 15.3009 94.9943 15.3153C95.0021 15.3296 95.0059 15.3458 95.0053 15.3622C95.0046 15.3785 94.9996 15.3943 94.9907 15.408L89.3869 23.893C89.3774 23.9077 89.3724 23.9249 89.3725 23.9424L89.3787 29.5215C89.3787 29.5455 89.3691 29.5686 89.3521 29.5855C89.3351 29.6025 89.3121 29.6121 89.288 29.6121Z" fill="#929AAB"/>
<path d="M100 17.6642C100 18.1678 99.8 18.6507 99.4439 19.0068C99.0878 19.3629 98.6048 19.563 98.1012 19.563C97.5976 19.563 97.1146 19.3629 96.7585 19.0068C96.4025 18.6507 96.2024 18.1678 96.2024 17.6642C96.2024 17.1606 96.4025 16.6776 96.7585 16.3215C97.1146 15.9654 97.5976 15.7654 98.1012 15.7654C98.6048 15.7654 99.0878 15.9654 99.4439 16.3215C99.8 16.6776 100 17.1606 100 17.6642ZM99.7591 17.6621C99.7591 17.2224 99.5844 16.8007 99.2735 16.4898C98.9626 16.1789 98.5409 16.0042 98.1012 16.0042C97.6615 16.0042 97.2398 16.1789 96.9289 16.4898C96.618 16.8007 96.4434 17.2224 96.4434 17.6621C96.4434 18.1018 96.618 18.5235 96.9289 18.8344C97.2398 19.1453 97.6615 19.32 98.1012 19.32C98.5409 19.32 98.9626 19.1453 99.2735 18.8344C99.5844 18.5235 99.7591 18.1018 99.7591 17.6621Z" fill="#929AAB"/>
<path d="M97.8045 18.1293L97.8272 18.4279C97.8288 18.4524 97.8255 18.4769 97.8174 18.5001C97.8093 18.5232 97.7966 18.5445 97.7801 18.5626C97.7635 18.5807 97.7434 18.5953 97.7211 18.6054C97.6987 18.6155 97.6746 18.621 97.65 18.6215L97.5162 18.6235C97.4901 18.6241 97.4642 18.6195 97.44 18.61C97.4158 18.6005 97.3938 18.5864 97.3751 18.5683C97.3565 18.5503 97.3418 18.5288 97.3317 18.505C97.3216 18.4812 97.3164 18.4557 97.3164 18.43L97.3185 16.7391C97.3185 16.7237 97.3215 16.7085 97.3275 16.6943C97.3335 16.6802 97.3422 16.6674 97.3532 16.6568C97.3642 16.6462 97.3772 16.638 97.3914 16.6327C97.4056 16.6273 97.4208 16.625 97.4359 16.6259L98.6427 16.6815C98.7141 16.6842 98.7724 16.7131 98.8178 16.768C99.1651 17.184 99.1342 17.5533 98.7251 17.876C98.712 17.8862 98.7012 17.8989 98.6931 17.9134C98.685 17.9278 98.6798 17.9438 98.6779 17.9602C98.676 17.9767 98.6774 17.9934 98.6819 18.0093C98.6865 18.0252 98.6941 18.0401 98.7045 18.0531L99.0175 18.4464C99.0302 18.4624 99.0384 18.4815 99.0411 18.5018C99.0439 18.522 99.0411 18.5426 99.033 18.5614C99.025 18.5802 99.0121 18.5965 98.9956 18.6085C98.979 18.6205 98.9596 18.6278 98.9393 18.6297C98.537 18.6613 98.2857 18.4746 98.1855 18.0695C98.1738 18.0226 98.1449 17.9818 98.1046 17.955C98.0643 17.9283 98.0155 17.9176 97.9677 17.9251C97.9199 17.9326 97.8766 17.9577 97.8464 17.9955C97.8162 18.0333 97.8013 18.081 97.8045 18.1293ZM98.5113 17.2927C98.5116 17.2646 98.5063 17.2367 98.4958 17.2106C98.4853 17.1845 98.4698 17.1607 98.4501 17.1406C98.4304 17.1205 98.407 17.1045 98.3811 17.0935C98.3552 17.0825 98.3275 17.0766 98.2993 17.0763L98.0151 17.0733C97.987 17.0731 97.9591 17.0783 97.933 17.0888C97.9069 17.0993 97.8831 17.1148 97.863 17.1345C97.8429 17.1542 97.8269 17.1776 97.8159 17.2035C97.8049 17.2294 97.799 17.2572 97.7987 17.2853L97.7979 17.3594C97.7977 17.3876 97.8029 17.4155 97.8134 17.4416C97.8239 17.4677 97.8394 17.4914 97.8591 17.5115C97.8788 17.5316 97.9022 17.5476 97.9281 17.5587C97.954 17.5697 97.9818 17.5755 98.0099 17.5758L98.2941 17.5788C98.3222 17.5791 98.3501 17.5739 98.3762 17.5634C98.4023 17.5529 98.4261 17.5374 98.4462 17.5177C98.4663 17.498 98.4823 17.4745 98.4933 17.4487C98.5044 17.4228 98.5102 17.395 98.5105 17.3669L98.5113 17.2927Z" fill="#929AAB"/>
</svg>
