<svg width="105" height="45" viewBox="0 0 105 45" fill="none" xmlns="http://www.w3.org/2000/svg">
<path fill-rule="evenodd" clip-rule="evenodd" d="M65.7376 36.1636H66.111V39.332L63.8207 36.934V39.2137H63.4342V36.0137L65.7349 38.4222V36.1636H65.7376ZM54.9702 36.1636V38.1015C54.9702 38.4433 54.8729 38.722 54.681 38.935C54.4785 39.1716 54.1998 39.2768 53.8474 39.2768C53.5161 39.2768 53.2374 39.169 53.035 38.935C52.8325 38.722 52.7352 38.4433 52.7352 38.1015V36.1636H53.1217V37.9726C53.1217 38.6037 53.3584 38.9245 53.8501 38.9245C54.3418 38.9245 54.5994 38.6037 54.5994 37.9726V36.1636H54.9728H54.9702ZM56.1482 36.1636H57.9782V36.5159H57.2499V39.2137H56.887V36.5159H56.1482V36.1636ZM55.4856 36.1636H55.8721V39.2137H55.4856V36.1636ZM52.1147 36.1636H52.5327L51.2049 39.3846L49.877 36.1636H50.2951L51.2049 38.4222L52.1147 36.1636ZM62.7322 37.6939C62.7322 38.0357 62.6139 38.325 62.3693 38.5721C62.1458 38.8088 61.8566 38.9245 61.5226 38.9245C61.1887 38.9245 60.9021 38.8061 60.6549 38.5721C60.4078 38.325 60.2921 38.0384 60.2921 37.6939C60.2921 37.3495 60.3999 37.0628 60.6339 36.8262C60.8706 36.579 61.1703 36.4633 61.5226 36.4633C61.875 36.4633 62.1642 36.5817 62.3903 36.8262C62.6138 37.0628 62.7322 37.3495 62.7322 37.6939ZM62.6454 36.5711C62.3246 36.2609 61.9486 36.1005 61.5226 36.1005C61.0967 36.1005 60.7102 36.2609 60.3894 36.5711C60.0791 36.8814 59.9187 37.2548 59.9187 37.6939C59.9187 38.133 60.0791 38.5169 60.3894 38.8272C60.6996 39.1269 61.073 39.2768 61.5226 39.2768C61.9723 39.2768 62.3457 39.1269 62.6454 38.8272C62.9557 38.5169 63.1161 38.1435 63.1161 37.6939C63.1161 37.2443 62.9557 36.8814 62.6454 36.5711ZM59.8293 36.1636V36.5159H59.1115V39.2137H58.7276V36.5159H57.9993V36.1636H59.8293ZM42.1256 36.8262C42.3491 37.0628 42.4569 37.3495 42.4569 37.6939C42.4569 38.0384 42.3386 38.325 42.1045 38.5721C41.8679 38.8088 41.5813 38.9245 41.2474 38.9245C40.9134 38.9245 40.6268 38.8061 40.3797 38.5721C40.1562 38.325 40.0273 38.0384 40.0273 37.6939C40.0273 37.3495 40.1456 37.0628 40.3691 36.8262C40.6058 36.579 40.8924 36.4633 41.2474 36.4633C41.6023 36.4633 41.8995 36.5817 42.1256 36.8262ZM42.3727 36.5685C42.0519 36.2583 41.6759 36.0979 41.25 36.0979C40.824 36.0979 40.427 36.2583 40.1272 36.5685C39.8064 36.8788 39.646 37.2522 39.646 37.6913C39.646 38.1304 39.8064 38.5143 40.1272 38.8245C40.427 39.1243 40.8004 39.2742 41.25 39.2742C41.6996 39.2742 42.073 39.1243 42.3727 38.8245C42.6935 38.5143 42.8434 38.1409 42.8434 37.6913C42.8434 37.2416 42.6935 36.8788 42.3727 36.5685ZM43.5402 37.97C43.5402 38.601 43.7873 38.9218 44.279 38.9218C44.7707 38.9218 45.0179 38.601 45.0179 37.97V36.161H45.3913V38.0988C45.3913 38.4407 45.294 38.7194 45.0915 38.9323C44.8891 39.169 44.6103 39.2742 44.279 39.2742C43.9477 39.2742 43.669 39.1664 43.4666 38.9323C43.2536 38.7194 43.1563 38.4407 43.1563 38.0988V36.161H43.5428V37.97H43.5402ZM38.6811 36.161V38.8692H39.6119V39.2111H38.3051V36.161H38.6784H38.6811ZM47.8524 37.4126C48.3651 37.615 48.6123 37.9148 48.6123 38.3223C48.6123 38.601 48.515 38.8245 48.3231 39.006C48.1416 39.1874 47.9155 39.2742 47.6499 39.2742C47.4028 39.2742 47.1898 39.2006 47.0084 39.027C46.8374 38.8666 46.7296 38.6642 46.6981 38.417L47.0846 38.3302C47.0846 38.5011 47.1372 38.6405 47.2555 38.7588C47.3738 38.8666 47.5027 38.9192 47.6736 38.9192C47.834 38.9192 47.9628 38.8561 48.0812 38.7378C48.1784 38.63 48.231 38.4906 48.231 38.3197C48.231 38.0831 48.0601 37.8911 47.7078 37.7412L47.4948 37.6676C47.0662 37.4651 46.8427 37.2075 46.8427 36.8867C46.8427 36.65 46.94 36.4476 47.1109 36.3082C47.2923 36.1583 47.4948 36.0952 47.742 36.0952C48.0943 36.0952 48.352 36.2556 48.5229 36.5659L48.2231 36.7368C48.1048 36.5554 47.9444 36.4581 47.7314 36.4581C47.6026 36.4581 47.4738 36.4896 47.3791 36.5659C47.2713 36.6527 47.2187 36.7578 47.2187 36.8867C47.2187 37.0681 47.3581 37.2075 47.6578 37.3153L47.8603 37.4126H47.8524ZM45.904 36.161H46.2905V39.2111H45.904V36.161Z" fill="#929AAB"/>
<path fill-rule="evenodd" clip-rule="evenodd" d="M60.9336 8.58913L53.5503 26.0115L51.5151 21.5415L55.2778 11.3027C55.5617 10.5112 56.5504 10.1431 58.2201 10.1431L58.8143 8.5865H50.0453L49.4799 10.1431C50.7237 10.1431 51.2338 10.5112 51.0365 11.3027L49.1697 16.5062L45.4938 8.5865C44.8154 7.7372 45.1546 7.31387 46.4851 7.31387V5.47592H38V7.31387C39.5829 7.31387 40.5742 7.7372 40.9975 8.5865L47.2213 21.8229L44.3079 29.6007C44.2501 30.6472 42.612 31.1573 39.4435 31.1573L38.8493 32.7139H63.0608L66.4264 25.5593H64.6726C63.0319 29.2641 61.1361 31.1599 59.0168 31.1599H47.9023L49.5431 26.7767L50.9577 29.6059H54.1261L63.0634 8.59176C63.4867 7.31913 64.5911 6.64074 66.316 6.64074V5H59.0194V6.64074C61.2255 6.64074 61.8486 7.31913 60.9441 8.59176L60.9336 8.58913Z" fill="#929AAB"/>
</svg>
