<svg width="105" height="45" viewBox="0 0 105 45" fill="none" xmlns="http://www.w3.org/2000/svg">
<g clip-path="url(#clip0_1_998)">
<path d="M25.7924 20.2002C25.7924 21.3521 25.7871 22.504 25.795 23.6558C25.7976 24.0034 25.8608 24.3456 25.9793 24.6747C26.186 25.2474 26.5691 25.5488 27.1272 25.5752C27.7367 25.6028 28.2041 25.3211 28.4542 24.7735C28.6608 24.3193 28.7227 23.8335 28.7254 23.3438C28.7319 22.2499 28.7451 21.1559 28.6951 20.0633C28.6832 19.8119 28.6569 19.5618 28.6108 19.313C28.5424 18.943 28.3449 18.6679 28.0237 18.477C27.8657 18.3836 27.6999 18.2993 27.5498 18.1953C27.1351 17.9097 27.0864 17.3633 27.4366 17.0053C27.7091 16.7262 28.0592 16.5814 28.4173 16.455C29.1756 16.1891 29.9641 16.0575 30.7566 15.9614C31.5504 15.8653 32.3468 15.7955 33.1472 15.7955C33.9542 15.7955 34.3978 16.2312 34.4149 17.0395C34.4281 17.6437 34.3886 18.248 34.3833 18.8522C34.3636 20.7979 34.3662 22.7449 34.382 24.6905C34.386 25.1197 34.5979 25.4264 34.9915 25.6054C35.0586 25.6357 35.1245 25.6673 35.1916 25.6989C35.755 25.9675 35.9143 26.5756 35.551 27.0917C35.3193 27.4195 34.9876 27.6222 34.6334 27.792C33.9305 28.129 33.1788 28.3081 32.4166 28.4423C31.5767 28.5911 30.7316 28.6872 29.8759 28.678C29.7127 28.6767 29.5507 28.6648 29.3915 28.62C29.0031 28.5108 28.8215 28.2883 28.7925 27.8868C28.7846 27.7762 28.7767 27.667 28.7609 27.5577C28.7188 27.2707 28.5055 27.1351 28.2238 27.2128C28.075 27.2549 27.946 27.3379 27.821 27.4234C27.3563 27.7407 26.9021 28.0711 26.3848 28.3041C25.6094 28.6556 24.7958 28.724 23.9625 28.6609C23.457 28.6227 22.9621 28.5318 22.4895 28.3436C21.5219 27.9579 20.9269 27.2378 20.6123 26.265C20.4253 25.6871 20.3411 25.0907 20.2937 24.4865C20.2213 23.5413 20.2384 22.5948 20.2463 21.6483C20.2516 21.0322 20.2502 20.4188 20.1344 19.8132C20.0462 19.3525 19.8988 18.9167 19.5025 18.6153C19.359 18.506 19.1997 18.4191 19.0339 18.3586C18.4757 18.1545 18.3296 17.2225 18.897 16.8526C19.3103 16.5827 19.7619 16.4247 20.2318 16.3063C21.0388 16.1009 21.8615 15.9943 22.6896 15.9205C23.4702 15.8508 24.2522 15.7981 25.0367 15.7981C25.1105 15.7981 25.1842 15.8047 25.2566 15.8165C25.5765 15.8732 25.7239 16.0298 25.7568 16.3523C25.7713 16.4932 25.7792 16.6354 25.7805 16.7775C25.7818 17.9189 25.7805 19.0602 25.7805 20.2015C25.7845 20.2015 25.7884 20.2015 25.7924 20.2015V20.2002Z" fill="#929AAB"/>
<path d="M79.6892 20.0989C79.6892 21.235 79.6839 22.3711 79.6918 23.5071C79.6945 23.8968 79.7484 24.2812 79.8774 24.6524C80.0815 25.2369 80.4698 25.5502 81.0254 25.5739C81.6599 25.6002 82.1298 25.3106 82.3773 24.7367C82.5695 24.2891 82.6314 23.8152 82.6301 23.3347C82.6301 22.221 82.6551 21.106 82.5958 19.9923C82.5827 19.7514 82.5577 19.5118 82.509 19.2735C82.4379 18.922 82.2404 18.6627 81.9376 18.4797C81.7849 18.3876 81.623 18.3086 81.4756 18.2098C81.0227 17.9044 80.9793 17.3384 81.3795 16.9671C81.7204 16.6512 82.1496 16.4998 82.5827 16.3695C83.3804 16.1286 84.2019 16.0075 85.0299 15.9206C85.7 15.8508 86.3713 15.7982 87.0453 15.7955C87.8681 15.7942 88.3078 16.2339 88.3209 17.0619C88.3315 17.7346 88.2867 18.4073 88.2854 19.08C88.2801 20.8795 88.2801 22.6778 88.2801 24.4773C88.2801 24.6142 88.2841 24.7498 88.3104 24.8854C88.367 25.1842 88.5276 25.4054 88.7935 25.5489C88.891 25.6015 88.991 25.6489 89.0897 25.695C89.6597 25.9636 89.8203 26.5612 89.4623 27.0838C89.2372 27.4116 88.9107 27.6117 88.5632 27.7815C87.9102 28.0988 87.2125 28.2765 86.5043 28.4081C85.6091 28.5753 84.7061 28.6872 83.7925 28.678C83.5805 28.6754 83.3725 28.6556 83.1737 28.578C82.921 28.4806 82.7696 28.3002 82.7262 28.0343C82.7012 27.8737 82.6933 27.7104 82.6656 27.5498C82.6169 27.2602 82.4089 27.1339 82.1259 27.2142C81.9613 27.2602 81.8218 27.3576 81.6849 27.4537C81.2228 27.775 80.7647 28.0988 80.2447 28.3265C79.4654 28.6675 78.6505 28.7241 77.8186 28.6556C77.3394 28.6161 76.8707 28.5266 76.4218 28.3515C75.4345 27.9671 74.8303 27.2339 74.5143 26.2426C74.2537 25.4225 74.18 24.5761 74.1668 23.723C74.1523 22.7923 74.1694 21.8616 74.155 20.9309C74.1457 20.3635 74.0984 19.7975 73.8851 19.2604C73.739 18.8918 73.4954 18.6166 73.1334 18.4481C73.09 18.4284 73.0492 18.4047 73.0057 18.3849C72.5792 18.1967 72.4133 17.9545 72.4568 17.366C72.4726 17.1449 72.6253 16.9974 72.7885 16.8684C73.0834 16.6367 73.4283 16.5077 73.7811 16.4011C74.5841 16.1589 75.4108 16.0378 76.2428 15.9509C77.138 15.8574 78.0344 15.7995 78.9349 15.7942C79.0191 15.7942 79.1034 15.7995 79.185 15.8153C79.4759 15.8732 79.6168 16.0206 79.655 16.3103C79.6721 16.4458 79.6826 16.5828 79.6826 16.7183C79.6852 17.8439 79.6826 18.9694 79.6826 20.095C79.6839 20.095 79.6852 20.095 79.6879 20.095L79.6892 20.0989Z" fill="#929AAB"/>
<path d="M68.3561 28.6926C67.5373 28.6662 66.7632 28.7097 65.9918 28.6399C65.3244 28.5794 64.6622 28.4938 64.0514 28.1963C63.6591 28.0054 63.3485 27.7369 63.2484 27.284C63.1563 26.8654 63.2761 26.5942 63.6539 26.3928C63.7184 26.3586 63.7842 26.3243 63.8526 26.298C64.3621 26.1019 64.607 25.7188 64.6873 25.1909C64.8163 24.3471 64.8584 23.498 64.8847 22.6476C64.9268 21.3022 64.9189 19.9555 64.915 18.6088C64.9124 17.8466 64.8847 17.0857 64.7504 16.3327C64.6359 15.6969 64.3292 15.198 63.7539 14.8781C63.6433 14.8162 63.5393 14.7464 63.4301 14.6819C62.7771 14.3028 62.7956 13.4432 63.1418 12.9995C63.4011 12.6678 63.7381 12.4401 64.1067 12.2531C64.9387 11.8292 65.8325 11.5989 66.7396 11.408C67.6716 11.2118 68.6141 11.0855 69.5633 11.0065C69.7331 10.992 69.9003 10.9986 70.0648 11.0381C70.4756 11.1368 70.7059 11.462 70.752 11.9675C70.7889 12.3795 70.7415 12.7863 70.7099 13.1944C70.6348 14.1738 70.5638 15.1532 70.5177 16.1352C70.4848 16.8435 70.4637 17.553 70.4532 18.2626C70.4242 20.4136 70.4479 22.5646 70.4426 24.7157C70.4426 24.9566 70.4598 25.1988 70.4979 25.4371C70.5519 25.7767 70.7204 26.0334 71.0363 26.1835C71.1403 26.2335 71.2457 26.2809 71.351 26.327C71.9236 26.5824 72.104 27.1037 71.8117 27.6631C71.6774 27.9198 71.4642 28.0949 71.2127 28.2266C70.7138 28.4859 70.1688 28.5715 69.6186 28.6333C69.1841 28.682 68.7471 28.6676 68.3574 28.6899L68.3561 28.6926Z" fill="#929AAB"/>
<path d="M16.8573 12.4408C16.8033 13.2056 16.7427 14.0495 16.6835 14.892C16.6256 15.72 16.5861 16.548 16.565 17.3774C16.5058 19.8167 16.5505 22.2573 16.5374 24.6967C16.5374 24.9441 16.5584 25.189 16.594 25.4338C16.6453 25.7893 16.8296 26.0447 17.1548 26.1974C17.2548 26.2448 17.3536 26.2922 17.4576 26.3316C17.9973 26.5383 18.1342 26.9556 17.9617 27.5283C17.8604 27.8653 17.6024 28.0759 17.2996 28.2326C16.7849 28.4985 16.2254 28.588 15.658 28.6367C15.1077 28.6854 14.5562 28.6854 14.0046 28.6828C13.3635 28.6801 12.7224 28.692 12.0826 28.638C11.3954 28.5801 10.7109 28.4893 10.0882 28.1641C9.62486 27.9219 9.3155 27.573 9.32735 27.0109C9.33261 26.7687 9.42871 26.5857 9.63539 26.462C9.73017 26.4054 9.82495 26.3461 9.92763 26.308C10.4647 26.1065 10.7135 25.7037 10.7925 25.1535C10.911 24.3307 10.9544 23.5027 10.9834 22.6733C11.0282 21.3753 11.0124 20.076 11.0137 18.778C11.0137 17.921 10.9966 17.0654 10.8241 16.2215C10.7043 15.6384 10.3963 15.1908 9.87761 14.892C9.7644 14.8261 9.65514 14.7537 9.54061 14.6892C8.87055 14.3101 8.89293 13.4426 9.23915 13.0016C9.54456 12.6132 9.95133 12.3697 10.3871 12.1657C11.2638 11.7563 12.1985 11.5325 13.1423 11.3495C13.9835 11.1862 14.8339 11.0796 15.6883 11.0072C16.2596 10.9585 16.6559 11.1889 16.7875 11.6588C16.852 11.8892 16.8625 12.1249 16.8573 12.4408Z" fill="#647394"/>
<path d="M60.9287 20.3664C60.9287 21.6025 60.9234 22.8386 60.9313 24.0748C60.9339 24.5 60.9866 24.9239 61.1419 25.3267C61.2644 25.6413 61.4631 25.8901 61.7514 26.0665C61.7962 26.0941 61.841 26.1218 61.8857 26.1494C62.4768 26.5167 62.5689 27.2618 62.0911 27.7778C61.7896 28.1017 61.4013 28.2702 60.9879 28.3887C60.2231 28.6098 59.4385 28.6704 58.6473 28.6756C57.8535 28.6809 57.0584 28.6901 56.2659 28.6072C55.6854 28.5466 55.1075 28.465 54.5585 28.2518C54.3913 28.1873 54.2321 28.107 54.0872 28.0003C53.5515 27.6041 53.5028 26.8485 53.9885 26.393C54.107 26.2824 54.2347 26.1771 54.3716 26.0902C54.8323 25.7953 55.0496 25.3675 55.1114 24.8343C55.1944 24.1235 55.2391 23.4113 55.2483 22.6965C55.2575 21.9817 55.2496 21.2682 55.1733 20.5573C55.1575 20.4059 55.1312 20.2558 55.1022 20.1058C55.0443 19.8082 54.8718 19.5924 54.6085 19.4475C54.4243 19.3462 54.2347 19.254 54.0557 19.1448C53.5041 18.8051 53.4211 18.1469 53.8687 17.6783C54.207 17.3242 54.6388 17.1162 55.0811 16.9306C55.9724 16.5593 56.9083 16.3368 57.8509 16.1433C58.546 16.0012 59.2463 15.8932 59.9506 15.8076C60.0388 15.7971 60.1296 15.7945 60.2178 15.7958C60.5877 15.8024 60.8181 15.9972 60.8879 16.3605C60.9129 16.4896 60.9221 16.6212 60.9221 16.7528C60.9221 17.9574 60.9221 19.1619 60.9221 20.3664C60.9234 20.3664 60.926 20.3664 60.9274 20.3664H60.9287Z" fill="#ABB7D0"/>
<path d="M56.1107 15.0084C55.5867 15.0176 55.0865 14.9334 54.6205 14.678C53.7635 14.208 53.5121 12.9811 54.3651 12.261C54.8035 11.8911 55.3063 11.6515 55.8421 11.4699C56.7031 11.1789 57.5864 10.9999 58.4987 11.0052C58.9739 11.0078 59.4386 11.0907 59.8809 11.279C61.0736 11.7871 60.9827 13.039 60.3377 13.688C59.9072 14.1225 59.3741 14.3739 58.8054 14.5621C57.9313 14.8531 57.0282 14.9794 56.1107 15.0084Z" fill="#ABB7D0"/>
<path d="M96.1219 15.9895C95.9653 14.4954 94.5554 13.3606 93.0652 13.5304C91.4026 13.72 90.2915 15.1733 90.5522 16.8201C90.7562 18.1129 91.8804 19.1186 93.1797 19.1726C94.562 19.2305 95.7402 18.3577 96.0587 17.04C96.0903 16.9097 96.1193 16.7793 96.1483 16.649V16.1119C96.139 16.0711 96.1259 16.0316 96.1219 15.9908V15.9895ZM94.2316 18.4012C93.3338 18.8409 92.2701 18.5631 91.6632 17.764C90.9484 16.8241 91.0708 15.405 91.9318 14.6402C93.1231 13.5804 94.949 14.132 95.39 15.6854C95.4519 15.9039 95.4887 16.1251 95.4901 16.3555C95.4479 17.2677 95.0741 17.9891 94.2316 18.4012Z" fill="#929AAB"/>
<path d="M52.8302 20.6702C52.6459 19.5012 52.2299 18.4178 51.4822 17.4871C50.3567 16.0865 48.9007 15.5085 47.1157 15.7916C46.2916 15.9219 45.557 16.2773 44.8488 16.6986C44.6592 16.8118 44.4775 16.9369 44.2735 17.0237C44.109 17.0935 44.001 17.0461 43.9352 16.8803C43.8983 16.7855 43.8917 16.6867 43.8891 16.5867C43.8852 16.4564 43.8786 16.3234 43.8588 16.1944C43.8286 15.9917 43.7127 15.8627 43.506 15.8219C43.2546 15.7718 43.0018 15.7876 42.7517 15.81C41.7855 15.8943 40.8403 16.0943 39.9096 16.3629C38.9591 16.638 38.0297 16.9658 37.1885 17.5016C36.845 17.7201 36.5264 17.9716 36.3342 18.3454C36.0314 18.9339 36.3118 19.6605 36.9279 19.8935C37.1201 19.9659 37.3215 20.0107 37.5242 20.041C37.8388 20.087 37.9797 20.2634 38.0258 20.5689C38.135 21.2995 38.1508 22.034 38.1548 22.7686C38.1614 23.9363 38.1548 25.1039 38.1469 26.2703C38.1429 26.9008 38.1153 27.5301 38.0205 28.1554C37.9191 28.8162 37.6322 29.3362 36.9753 29.5942C36.8739 29.6337 36.7791 29.6943 36.687 29.7535C36.5303 29.8549 36.4316 30.0023 36.3868 30.1827C36.3065 30.5039 36.3473 30.8067 36.5264 31.0897C36.683 31.3385 36.8923 31.5359 37.128 31.7071C37.7506 32.1573 38.4576 32.4206 39.1908 32.6167C40.1768 32.88 41.1812 32.9959 42.2015 32.9985C42.9347 32.9998 43.6614 32.9458 44.363 32.7089C44.7158 32.5891 45.0436 32.4272 45.2832 32.1283C45.6939 31.6189 45.5807 30.9383 45.0291 30.5934C44.9541 30.546 44.8777 30.4973 44.8001 30.4552C44.3077 30.1866 44.0444 29.7706 43.9971 29.2164C43.9747 28.9479 43.9681 28.6806 44.0563 28.42C44.1405 28.1699 44.2959 28.0922 44.5434 28.1764C44.7474 28.2462 44.9488 28.3199 45.1502 28.3963C46.1718 28.782 47.2104 28.8755 48.2741 28.5898C49.7722 28.1857 50.8885 27.2707 51.7073 25.9859C52.7447 24.3588 53.1317 22.5817 52.8289 20.6702H52.8302ZM46.7747 22.5593C46.7773 23.1385 46.7418 23.7125 46.5496 24.2667C46.1863 25.3132 45.3385 25.5673 44.388 25.3027C43.9997 25.1948 43.822 24.8907 43.8022 24.5102C43.764 23.7862 43.793 23.0608 43.8128 22.3368C43.8272 21.8181 43.8536 21.2982 43.9247 20.7834C43.9628 20.503 44.0089 20.224 44.1129 19.9567C44.2669 19.5618 44.4894 19.4065 44.9146 19.3986C45.5939 19.3867 46.0612 19.7145 46.3587 20.3056C46.6602 20.9045 46.7457 21.5535 46.7721 22.2131C46.7773 22.3289 46.7721 22.4434 46.7721 22.5593H46.7747Z" fill="#7F8DA9"/>
<path d="M94.429 17.1162C94.3843 16.8227 94.296 16.5515 93.9498 16.4291C94.2974 16.2737 94.4488 16.1447 94.504 15.9104C94.6212 15.4181 94.4659 14.9442 93.8156 14.8151C93.3021 14.7138 92.7901 14.7572 92.278 14.827C92.1753 14.8402 92.1713 14.8994 92.1727 14.9797C92.174 15.8051 92.1727 16.6305 92.1753 17.4559C92.1753 17.6231 92.1042 17.8429 92.2016 17.943C92.3083 18.0522 92.5307 17.9614 92.7019 17.9785C92.819 17.9904 92.8559 17.9522 92.8533 17.8324C92.8454 17.4967 92.8493 17.1597 92.8519 16.8227C92.8519 16.7753 92.8309 16.7187 92.9085 16.6963C93.3337 16.5752 93.6839 16.8003 93.7445 17.24C93.7734 17.4533 93.8037 17.6665 93.8695 17.8719C93.8853 17.9219 93.8959 17.9759 93.9656 17.9759C94.1749 17.9759 94.3829 17.9759 94.6094 17.9759C94.504 17.6849 94.4725 17.3993 94.429 17.1136V17.1162ZM93.5431 16.1131C93.4022 16.1632 93.2561 16.1776 93.1086 16.1737C92.9331 16.1737 92.8454 16.0855 92.8454 15.9091C92.8454 15.7406 92.8493 15.5721 92.844 15.4049C92.8401 15.3141 92.8651 15.2693 92.9625 15.2667C93.1626 15.2614 93.3627 15.2535 93.5549 15.3246C93.7432 15.3944 93.8445 15.5418 93.8419 15.734C93.8406 15.917 93.7392 16.0447 93.5431 16.1131Z" fill="#929AAB"/>
</g>
<defs>
<clipPath id="clip0_1_998">
<rect width="87.1483" height="22" fill="white" transform="translate(9 11)"/>
</clipPath>
</defs>
</svg>
