<svg width="105" height="45" viewBox="0 0 105 45" fill="none" xmlns="http://www.w3.org/2000/svg">
<g clip-path="url(#clip0_1_1011)">
<path fill-rule="evenodd" clip-rule="evenodd" d="M9.00085 35.4233V16.0056H16.1637V18.8843C16.624 18.2391 17.1834 17.6624 17.817 17.1346C18.5942 16.5334 19.4456 16.0789 20.3416 15.7661C21.0445 15.5511 21.7276 15.4289 22.381 15.4289C24.0541 15.4289 25.4402 15.7661 26.5342 16.4357C27.5539 17.0613 28.3063 17.897 28.7914 18.9771C29.6181 17.8042 30.613 16.9146 31.7318 16.3184C32.8505 15.7417 34.1375 15.4289 35.5681 15.4289C37.6571 15.4289 39.2807 15.859 40.4489 16.724C41.6122 17.5891 42.3646 18.811 42.7309 20.37C42.9735 21.3769 43.0972 22.5498 43.0972 23.9427V35.4282H35.3008V25.5263C35.3008 24.7345 35.2513 24.0894 35.177 23.6104C35.078 23.1314 34.9592 22.7453 34.7662 22.4619C34.3801 21.8363 33.6722 21.5284 32.6772 21.5284C31.8506 21.5284 31.2219 21.7678 30.8061 22.2713C30.4398 22.6525 30.1972 23.2781 30.0537 24.1676C29.9794 24.671 29.9299 25.2232 29.9299 25.8195V35.4331H22.1335V25.5312C22.1335 24.0454 21.9652 23.0141 21.6236 22.4619C21.2375 21.8363 20.5297 21.5284 19.5099 21.5284C18.708 21.5284 18.0794 21.7678 17.6388 22.2713C17.2527 22.6769 17.0052 23.3025 16.9111 24.1676C16.8616 24.4071 16.8369 24.671 16.8121 24.9593C16.7874 25.2233 16.7874 25.5116 16.7874 25.8244V35.4379H9.00085V35.4233ZM66.2786 35.4233H58.2198L57.8535 33.3608C56.7843 34.3187 55.6705 35.0127 54.428 35.4233C53.8687 35.6139 53.2648 35.7605 52.6064 35.8534C51.9282 35.9511 51.2204 35.9951 50.4432 35.9951C48.9384 35.9951 47.6513 35.7312 46.5821 35.2034C45.3941 34.6022 44.5427 33.7909 44.008 32.7352C43.815 32.3296 43.6912 31.8946 43.5972 31.4645C43.4982 31.0588 43.4289 30.5994 43.4289 30.1204C43.4289 29.5193 43.5031 28.9914 43.6219 28.4685C43.7655 27.9651 43.9635 27.4861 44.2308 27.0316C44.6912 26.3131 45.3743 25.712 46.2702 25.2086C46.8049 24.8958 47.389 24.6563 48.0176 24.4657C50.5917 23.9134 53.0915 23.5078 55.4725 23.195C55.7893 23.0972 56.0566 23.0288 56.3239 22.9066C56.5665 22.8089 56.7348 22.7404 56.8338 22.6671C57.2199 22.3788 57.4179 22.0415 57.4179 21.6359C57.4179 21.1569 57.2248 20.7953 56.8338 20.5313C56.517 20.3163 56.1309 20.1697 55.621 20.0768H54.4577L54.0221 20.1012C53.636 20.1746 53.3687 20.2674 53.1707 20.3652C52.5618 20.678 52.2252 21.2058 52.151 21.9487H44.6466C44.6466 20.3407 45.107 19.07 46.0079 18.1121C46.9781 17.0319 48.4582 16.2891 50.4283 15.859C51.8342 15.5706 53.5123 15.4289 55.3834 15.4289C56.6209 15.4289 57.7397 15.5022 58.6851 15.6195C59.6554 15.7612 60.5315 15.9567 61.3334 16.2206C62.6947 16.6752 63.6402 17.3692 64.2243 18.3076C64.5659 18.8843 64.8332 19.5294 65.0015 20.2479C65.145 21.2547 65.2193 22.3348 65.2193 23.4833V32.569C65.2193 32.8818 65.244 33.1457 65.2688 33.3852C65.2935 33.6247 65.343 33.8153 65.3925 33.9619C65.5361 34.3236 65.8281 34.6804 66.2934 35.0421V35.4233H66.2786ZM53.9924 31.6111C55.2795 31.6111 56.2002 31.1321 56.809 30.1986C57.2199 29.5291 57.4179 28.4001 57.4179 26.841C56.616 27.1049 55.8388 27.3444 55.1359 27.535C54.4577 27.75 53.7499 27.9162 53.0965 28.0384C52.6608 28.229 52.3193 28.4001 52.052 28.6151C51.6857 28.9963 51.5174 29.4558 51.5174 29.9836C51.5174 30.4381 51.7352 30.8487 52.1955 31.1566C52.6559 31.4694 53.24 31.6111 53.9924 31.6111ZM72.4217 35.4233L65.6252 16.0056H73.4216L76.8471 28.2534L80.2478 16.0056H87.7522L81.1487 35.4233H72.4316H72.4217ZM95.9991 35.4233H88.2027V16.0056H95.9991V35.4233ZM88.2027 13.4886V8H95.9991V13.4886H88.2027Z" fill="#929AAB"/>
<path fill-rule="evenodd" clip-rule="evenodd" d="M65.259 8.50341H66.2787V11.646C66.2787 12.0517 66.2539 12.3645 66.1797 12.5795C66.0807 12.8679 65.8876 13.1074 65.6451 13.2735C65.3778 13.4397 65.0362 13.5374 64.6006 13.5374C64.1155 13.5374 63.7244 13.3957 63.4571 13.1318C63.1898 12.8434 63.0463 12.4622 63.0463 11.9344L64.0165 11.8122C64.0165 12.1005 64.066 12.2912 64.1402 12.4133C64.264 12.5795 64.4075 12.6773 64.6501 12.6773C64.8679 12.6773 65.0362 12.6284 65.1352 12.4867C65.2095 12.3645 65.259 12.1054 65.259 11.6949V8.50341ZM67.3727 13.4397V8.50341H71.1347V9.34405H68.3924V10.4486H70.9417V11.2648H68.3924V12.6088H71.209V13.4495H67.3727V13.4397ZM76.6492 13.4397H75.5304L75.0948 12.3107H73.0801L72.6693 13.4397H71.5753L73.5405 8.50341H74.6345L76.6492 13.4397ZM74.778 11.4994L74.0751 9.65195L73.3969 11.4994H74.783H74.778ZM77.2085 13.4397V8.50341H78.2035L80.2677 11.8122V8.50341H81.2132V13.4397H80.1935L78.154 10.2287V13.4397H77.2085ZM82.0398 11.8317L83.0348 11.734C83.0843 12.0712 83.2031 12.3107 83.4011 12.4524C83.5694 12.6186 83.812 12.6919 84.1288 12.6919C84.4704 12.6919 84.7129 12.6186 84.8812 12.4769C85.0495 12.3547 85.1238 12.1885 85.1238 11.9979C85.1238 11.8757 85.099 11.7829 85.0248 11.7096C84.9505 11.6118 84.8317 11.5434 84.6585 11.4945C84.5347 11.4456 84.2476 11.3723 83.8318 11.2795C83.2724 11.1377 82.8863 10.9911 82.6685 10.8005C82.3765 10.5121 82.2081 10.1749 82.2081 9.79369C82.2081 9.5542 82.2824 9.31472 82.426 9.09968C82.5695 8.88463 82.7923 8.71846 83.0596 8.59627C83.3516 8.47409 83.6684 8.4301 84.0545 8.4301C84.6882 8.4301 85.1733 8.55228 85.4851 8.83575C85.8019 9.09968 85.9702 9.46134 85.995 9.91587L84.9753 9.96475C84.9258 9.70083 84.8317 9.53466 84.6832 9.41247C84.5595 9.29028 84.3416 9.2463 84.0496 9.2463C83.7575 9.2463 83.515 9.31961 83.3467 9.43691C83.2477 9.51022 83.1784 9.60308 83.1784 9.72526C83.1784 9.84745 83.2526 9.94031 83.3467 10.0381C83.4704 10.1358 83.7823 10.2531 84.2674 10.3753C84.7773 10.473 85.1436 10.5903 85.3861 10.7125C85.6287 10.8543 85.797 11.0253 85.9455 11.2159C86.0692 11.431 86.1385 11.6949 86.1385 12.0077C86.1385 12.296 86.0643 12.56 85.896 12.7994C85.7277 13.0634 85.5099 13.2295 85.2178 13.3517C84.9258 13.4739 84.5644 13.5423 84.1238 13.5423C83.4704 13.5423 82.9804 13.4006 82.6438 13.1122C82.3022 12.8239 82.0844 12.3938 82.0349 11.8415L82.0398 11.8317Z" fill="#929AAB"/>
</g>
<defs>
<clipPath id="clip0_1_1011">
<rect width="87" height="28" fill="white" transform="translate(9 8)"/>
</clipPath>
</defs>
</svg>
