<svg width="105" height="45" viewBox="0 0 105 45" fill="none" xmlns="http://www.w3.org/2000/svg">
<g clip-path="url(#clip0_1_1026)">
<path d="M61.6077 32.1899L60.3275 32.2201C60.0786 32.2261 59.9497 32.1039 59.9422 31.8535L59.8987 30.4672C59.8942 30.3586 59.7638 30.3088 59.6873 30.3858C59.4565 30.6211 59.2601 30.9258 59.0397 31.137C58.2137 31.929 57.3233 32.4373 56.3684 32.6651C52.925 33.4842 49.9268 32.8009 47.3753 30.6166C46.8042 30.1278 46.2765 29.5048 45.7908 28.746C44.3352 26.4712 43.7805 23.7302 44.0698 21.033C44.533 16.8755 47.0485 13.7408 50.9836 12.4692C53.9218 11.5188 57.5362 11.9321 59.5524 14.4559C59.5689 14.4785 59.5869 14.4785 59.6064 14.4589C59.6259 14.4393 59.6394 14.4076 59.6439 14.3654C59.7083 13.7936 59.7293 13.2294 59.7038 12.6728C59.6993 12.5898 59.7653 12.5204 59.8477 12.5189L65.3254 12.4571C65.4229 12.4556 65.5023 12.534 65.5038 12.6321L65.8171 32.1009C65.8171 32.1402 65.7856 32.1718 65.7482 32.1718L61.6077 32.1899ZM53.4631 27.3567C54.6024 27.5271 56.0311 27.6025 57.0714 27.1168C57.4192 26.9539 57.734 26.7517 58.0159 26.5089C58.2242 26.3309 58.3412 26.0593 58.5286 25.8678C59.2121 25.1648 59.7338 23.789 59.8163 22.7904C60.0381 20.1113 58.1823 17.7037 55.5454 17.3975C54.6774 17.2964 53.8904 17.3643 53.1828 17.5981C50.5849 18.4549 49.3047 21.3905 50.0767 23.955C50.5339 25.4755 51.8921 27.1213 53.4631 27.3567Z" fill="#929AAB"/>
<path d="M81.5875 25.9613C81.535 25.8949 81.4826 25.8964 81.4316 25.9643L77.0678 31.8007C76.9628 31.941 76.7994 32.0255 76.624 32.027L69.3444 32.119C69.253 32.1205 69.2005 32.0149 69.256 31.941L77.0438 21.6334C77.1457 21.4976 77.1382 21.3105 77.0273 21.1838L69.4269 12.525C69.3774 12.4676 69.4164 12.3786 69.4914 12.3786L77.0678 12.3002C77.1772 12.2987 77.2806 12.3485 77.3481 12.4329L81.2052 17.1531C81.2712 17.2345 81.3956 17.2315 81.4586 17.1485L85.0999 12.3832C85.1748 12.2836 85.2918 12.2263 85.4162 12.2248L92.9416 12.1237C93.0166 12.1222 93.0585 12.2112 93.0106 12.27L85.8809 21.0299C85.7475 21.1944 85.7475 21.4297 85.8794 21.5941C88.3934 24.6986 90.9029 27.8167 93.4078 30.9469C93.6252 31.2184 93.8201 31.5066 93.991 31.8128C94.018 31.8596 93.985 31.9199 93.931 31.9214C93.8426 31.9229 93.7556 31.9139 93.6702 31.8912C93.6147 31.8777 93.5592 31.8701 93.5038 31.8701L86.518 31.9305C86.4011 31.932 86.2902 31.8792 86.2167 31.7871L81.5875 25.9613Z" fill="#929AAB"/>
<path d="M40.4705 17.2919C40.8003 19.2363 40.8228 21.2215 40.8063 23.1901L40.8708 32.3227C40.8723 32.4117 40.8288 32.4554 40.7404 32.4569L35.0768 32.5203C34.9884 32.5203 34.9449 32.4781 34.9434 32.3906C34.9149 28.657 34.8954 24.937 34.8879 21.2291C34.8879 20.0102 34.4892 18.467 33.2749 17.9194C32.3155 17.488 30.7834 17.5951 29.8899 18.206C28.923 18.8667 28.4718 20.1912 28.4673 21.3422C28.4508 25.0381 28.4598 28.743 28.4913 32.4554C28.4928 32.5459 28.4193 32.6199 28.3279 32.6199C26.5949 32.6093 24.8485 32.6244 23.0871 32.6651C22.9237 32.6681 22.7858 32.6862 22.6718 32.7209C22.5969 32.7436 22.5219 32.6877 22.5219 32.6093C22.5159 29.2468 22.5219 25.8813 22.5429 22.5113C22.5519 20.8701 22.5924 18.6525 20.693 17.942C20.1189 17.7263 19.4308 17.7052 18.6288 17.8772C16.4911 18.3342 16.1028 20.508 16.0833 22.3725C16.0489 25.7878 16.0534 29.5817 15.9979 32.6259C15.9979 32.6802 15.9544 32.7224 15.9019 32.7224L10.1409 32.7828C10.0615 32.7828 9.99853 32.7194 10 32.6395L10.2549 13.2581C10.2564 13.1812 10.3178 13.1193 10.3943 13.1178L15.7325 13.0771C15.773 13.0771 15.806 13.1088 15.8075 13.1495L15.8705 14.8224C15.8735 14.9129 15.9049 14.9235 15.9634 14.8541C17.2271 13.3652 18.8551 12.5521 20.8444 12.4148C23.5608 12.2278 25.613 13.2792 27.0027 15.5676C27.0507 15.6461 27.1616 15.6551 27.2216 15.5857C27.4869 15.2735 27.7687 14.9642 28.0641 14.6565C29.7475 12.9051 31.8478 12.1252 34.3677 12.3138C37.3344 12.537 39.6985 14.3533 40.4705 17.2919Z" fill="#929AAB"/>
</g>
<defs>
<clipPath id="clip0_1_1026">
<rect width="84" height="21" fill="white" transform="translate(10 12)"/>
</clipPath>
</defs>
</svg>
