<svg width="105" height="45" viewBox="0 0 105 45" fill="none" xmlns="http://www.w3.org/2000/svg">
<g clip-path="url(#clip0_1_1012)">
<path fill-rule="evenodd" clip-rule="evenodd" d="M26.8734 20.5115V28.3608C26.2299 28.47 25.5886 28.5246 24.9451 28.5246C24.3016 28.5246 23.6603 28.47 23.0168 28.3608V21.3847C23.0168 19.8316 22.2928 19.013 20.8472 19.013C19.8573 19.013 19.2406 19.395 18.7848 19.7225C18.8116 19.9953 18.8384 20.2409 18.8384 20.5138V28.3631C18.1949 28.4723 17.5536 28.5268 16.9101 28.5268C16.2666 28.5268 15.6253 28.4723 15.0086 28.3631V21.3869C15.0086 19.8339 14.2579 19.0153 12.8122 19.0153C11.9564 19.0153 11.2861 19.2609 10.8303 19.5338V28.3631C10.1868 28.4723 9.54549 28.5268 8.90198 28.5268C8.25847 28.5268 7.644 28.4723 7.00049 28.3631V17.5396C7.80488 16.7756 10.1063 15.4681 13.134 15.4681C14.8746 15.4681 16.213 15.9047 17.1246 16.6391C18.1145 16.0116 19.5356 15.4681 21.1957 15.4681C25.0255 15.4681 26.8734 17.5942 26.8734 20.5092V20.5115Z" fill="#929AAB"/>
<path fill-rule="evenodd" clip-rule="evenodd" d="M40.5034 21.0277V27.5673C38.6823 28.329 36.5395 28.7929 34.3185 28.7929C30.8105 28.7929 28.7749 27.4308 28.7749 24.7045C28.7749 21.9781 30.9981 20.7253 34.1308 20.7525C35.1207 20.7798 35.9519 20.889 36.7026 21.1346V20.6434C36.7026 19.5542 35.9787 18.7902 34.1576 18.7902C32.7119 18.7902 31.4808 19.3632 30.8373 19.8794C30.0061 19.4155 29.3648 18.5446 29.1771 17.3713C29.8742 16.7437 31.8003 15.5454 34.5062 15.5454C38.041 15.5454 40.5056 17.1258 40.5056 21.0231L40.5034 21.0277ZM34.8257 26.0688C35.4424 26.0688 36.0569 25.9597 36.6736 25.7687V23.4789C36.0569 23.2879 35.362 23.1787 34.5576 23.1787C33.3532 23.1787 32.6025 23.588 32.6025 24.5135C32.6025 25.4389 33.3532 26.0665 34.8257 26.0665V26.0688Z" fill="#929AAB"/>
<path fill-rule="evenodd" clip-rule="evenodd" d="M54.8037 16.1503C53.7334 24.1065 50.7594 29.9662 45.218 34C44.0405 33.5907 43.2629 32.4197 42.9144 31.3032C44.2796 30.1867 45.4862 29.068 46.2615 27.9788C43.7433 24.0269 42.6194 20.6207 41.6564 16.123C42.1926 15.9865 43.397 15.8228 44.4673 15.8228C44.9231 15.8228 45.4839 15.8501 45.9129 15.9047C46.3688 18.7925 47.2245 21.9008 48.2971 24.4066C48.4311 24.7068 48.5116 24.9251 48.5652 25.1161C48.6188 24.8432 48.6993 24.5976 48.7797 24.4066C49.85 21.8713 50.4399 18.8198 50.7884 15.9047C51.2711 15.8501 51.8319 15.8228 52.3145 15.8228C53.224 15.8501 54.1088 15.9593 54.8059 16.1503H54.8037Z" fill="#929AAB"/>
<path fill-rule="evenodd" clip-rule="evenodd" d="M79.465 15.8774C79.4382 17.1576 79.0896 18.3855 78.3679 19.2564C77.9121 19.1199 77.4316 19.0654 76.8954 19.0654C76.091 19.0654 75.4229 19.2291 75.0207 19.4201V28.3586C74.404 28.4677 73.7359 28.5223 73.0924 28.5223C72.4489 28.5223 71.8344 28.4677 71.1909 28.3586V17.4054C72.0467 16.6164 73.9482 15.4977 76.6273 15.4977C77.8048 15.4977 78.7433 15.6341 79.465 15.8797V15.8774Z" fill="#929AAB"/>
<path fill-rule="evenodd" clip-rule="evenodd" d="M91.7029 21.0277V27.5673C89.8818 28.329 87.739 28.7929 85.5158 28.7929C82.0077 28.7929 79.9722 27.4308 79.9722 24.7045C79.9722 22.0873 82.1954 20.7253 85.3281 20.7525C86.3202 20.7798 87.1491 20.889 87.8999 21.1346V20.6434C87.8999 19.5542 87.1782 18.7902 85.3549 18.7902C83.9092 18.7902 82.678 19.3632 82.0345 19.8794C81.2033 19.4155 80.5621 18.5446 80.3744 17.3713C81.0715 16.7437 82.9998 15.5454 85.7034 15.5454C89.2383 15.5454 91.7006 17.1258 91.7006 21.0231L91.7029 21.0277ZM85.9984 26.0688C86.6151 26.0688 87.2296 25.9597 87.8463 25.7687V23.4789C87.2296 23.2879 86.5347 23.1787 85.7303 23.1787C84.5259 23.1787 83.7751 23.588 83.7751 24.5135C83.7751 25.4389 84.5237 26.0665 85.9984 26.0665V26.0688Z" fill="#929AAB"/>
<path fill-rule="evenodd" clip-rule="evenodd" d="M94.1406 28.3881V11.1637C94.7305 11.0546 95.3718 11 96.0153 11C96.6588 11 97.3269 11.0546 97.9972 11.1637V28.3859C97.4073 28.495 96.7393 28.5496 96.0957 28.5496C95.4545 28.5223 94.811 28.4677 94.1406 28.3859V28.3881Z" fill="#929AAB"/>
<path fill-rule="evenodd" clip-rule="evenodd" d="M62.4611 15.4704C58.5508 15.4704 55.7131 18.1149 55.7131 22.1464C55.7131 26.178 58.4972 28.7952 62.4075 28.7952C66.3177 28.7952 69.1554 26.1529 69.1554 22.1464C69.1554 18.1399 66.3445 15.4704 62.4611 15.4704ZM65.8082 24.8728H59.3284C58.3654 24.7909 57.5878 23.9473 57.5878 22.9377C57.5878 22.0123 58.2313 21.221 59.1139 21.0572C59.0603 20.839 59.0067 20.5934 59.0067 20.3478C59.0067 18.9585 60.1038 17.842 61.469 17.842C62.6733 17.842 63.6654 18.7129 63.8799 19.8589C64.014 19.8316 64.1481 19.8044 64.2821 19.8044C65.272 19.8044 66.0496 20.6229 66.0496 21.603C66.0496 21.6848 66.0496 21.7667 66.0227 21.8485C66.7445 21.9577 67.3075 22.5853 67.3075 23.347C67.2807 24.1929 66.6104 24.8728 65.8082 24.8728Z" fill="#929AAB"/>
</g>
<defs>
<clipPath id="clip0_1_1012">
<rect width="91" height="23" fill="white" transform="translate(7 11)"/>
</clipPath>
</defs>
</svg>
