<svg width="105" height="45" viewBox="0 0 105 45" fill="none" xmlns="http://www.w3.org/2000/svg">
<g clip-path="url(#clip0_1_977)">
<path d="M42.0084 31.8728C42.049 33.6031 41.7036 35.7405 40.6065 35.7405C39.5094 35.7405 39.1437 33.5216 39.1437 31.8728C39.1437 30.2239 39.4484 28.3308 40.5252 28.3308C41.4598 28.3308 41.9474 29.8779 41.9881 31.8728H42.0084ZM45.2591 31.9746C45.1778 29.2061 43.7556 26.3359 40.6065 26.3359C38.1075 26.3359 35.9335 28.2494 35.9335 32.1781C35.9335 35.8626 37.9246 37.9796 40.5862 37.9796C43.4509 37.9796 45.381 35.5776 45.2794 31.9542L45.2591 31.9746ZM33.5971 23.9746C33.5768 23.1807 33.1298 22.4885 32.0733 22.4885C31.0168 22.4885 30.4682 23.1603 30.4682 23.9949C30.4682 24.9517 31.1997 25.4606 32.0936 25.4606C32.886 25.4606 33.5971 24.9924 33.5971 23.9746ZM33.658 27.1298C33.658 26.7226 33.5564 26.6412 33.1907 26.6412H30.8746C30.5089 26.6412 30.4682 26.8041 30.4682 27.1094V37.1857C30.4682 37.5114 30.4682 37.6947 30.8543 37.6947H33.1704C33.4955 37.6947 33.658 37.6132 33.658 37.1654V27.1298ZM13.5441 37.2061C13.5441 37.6132 13.6863 37.6947 14.0113 37.6947H16.165C16.5713 37.6947 16.6526 37.5522 16.6526 37.1654V30C16.6526 29.4707 16.6526 29.0433 16.9776 28.6768C17.2011 28.4326 17.5262 28.2901 17.8716 28.2901C18.2373 28.2901 18.8265 28.4936 18.989 29.2265C19.0297 29.4504 19.05 29.6539 19.05 30.0814V37.1857C19.05 37.6336 19.2329 37.6947 19.5782 37.6947H21.7115C22.0773 37.6947 22.1585 37.5725 22.1585 37.2061V30.1221C22.1585 29.4504 22.1585 29.084 22.4836 28.7379C22.6461 28.5547 22.9103 28.3511 23.3979 28.3511C24.5356 28.3511 24.5559 29.369 24.5559 30.1221V37.2061C24.5559 37.5522 24.6575 37.6947 25.0029 37.6947H27.2784C27.6035 37.6947 27.6645 37.5318 27.6645 37.1857V29.9593C27.6645 28.9618 27.5629 26.3562 24.2918 26.3562C23.6214 26.3562 22.9915 26.4173 22.4023 26.6005C21.4677 26.8651 21.0614 27.2112 20.7566 27.5165C20.3503 27.1298 19.5579 26.3562 17.6481 26.3562C16.8354 26.3562 14.9866 26.6005 14.0317 27.313C13.5237 27.7201 13.5034 28.0254 13.5034 28.8804V37.2061H13.5441Z" fill="#929AAB"/>
<path d="M81.9519 30.7939C82.1551 28.9415 82.9474 27.6183 84.5322 27.6183C85.6496 27.6183 86.5029 28.6361 86.6248 30L81.9519 30.7939ZM87.9455 30.8753C88.1893 30.8346 88.5143 30.7939 88.5143 30.2036C88.5143 29.3282 87.8439 26.3969 84.7557 26.3969C82.3379 26.3969 81.3424 28.3104 81.1392 28.7583C80.7532 29.5522 80.4687 30.6514 80.4687 32.1985C80.4687 33.1959 80.5906 34.4173 81.0986 35.4758C81.9722 37.43 83.5773 37.9593 84.7353 37.9593C87.7829 37.9593 88.6566 34.7837 88.6566 34.2341C88.6566 33.7863 88.3924 33.7252 88.2705 33.7252C88.0267 33.7252 87.9861 33.827 87.7016 34.3359C87.0515 35.4962 86.1779 36.2087 84.9995 36.2087C83.5163 36.2087 82.1144 34.8244 81.9722 31.8321L87.9658 30.8753H87.9455ZM75.2472 28.9415C75.2472 28.3919 75.2879 27.4555 76.4459 27.4555C77.0148 27.4555 77.2586 27.7201 77.5228 27.9847C77.8478 28.3919 77.9901 28.5547 78.3354 28.5547C78.8231 28.5547 79.1481 28.1272 79.1481 27.6387C79.1481 26.6412 78.0916 26.3969 77.1367 26.3969C75.8568 26.3969 74.6174 26.7634 74.0282 27.1501C73.6016 27.4351 73.5203 27.6794 73.5203 28.4326V37.3486C73.5203 37.6947 73.6422 37.715 73.9063 37.715H74.9018C75.1457 37.715 75.2269 37.6947 75.2472 37.3486V28.9415ZM68.6442 35.2519C68.6442 35.8219 68.6442 36.799 67.1001 36.799C65.109 36.799 65.109 34.9466 65.109 34.7634C65.109 33.1145 66.5109 32.626 68.6645 31.8728V35.2316L68.6442 35.2519ZM70.3508 29.8168C70.3508 28.6768 70.3102 26.3969 67.4251 26.3969C65.3325 26.3969 63.8493 27.659 63.8493 28.9415C63.8493 29.6336 64.3572 29.8372 64.6417 29.8372C65.2309 29.8372 65.3934 29.3282 65.5153 28.9211C65.6779 28.4936 66.0233 27.5369 67.161 27.5369C68.6238 27.5369 68.6239 28.9822 68.6239 29.8168V30.8957C65.495 31.8931 63.3008 32.6056 63.3008 35.0483C63.3008 37.9593 66.2061 37.9593 66.7344 37.9593C67.5674 37.9593 68.7458 37.8168 69.4975 37.3893C70.2289 36.9618 70.3102 36.4326 70.3305 35.4758V29.8168H70.3508ZM47.8394 37.3079C47.8394 37.6539 47.941 37.715 48.1848 37.715H49.1803C49.4851 37.715 49.5664 37.6539 49.5664 37.3079V29.8372C49.5664 29.1043 49.607 27.5369 51.4762 27.5369C53.3454 27.5369 53.3657 29.3893 53.3657 30.1629V37.3282C53.3657 37.6947 53.4876 37.715 53.7517 37.715H54.7676C55.052 37.715 55.0926 37.6132 55.0926 37.3079V29.8372C55.0926 29.1654 55.0926 28.6158 55.6412 28.0865C55.885 27.8626 56.3117 27.598 57.0024 27.598C58.8716 27.598 58.8919 29.2265 58.9123 30.3461V37.3079C58.9123 37.6743 59.0138 37.715 59.2576 37.715H60.2938C60.5783 37.6947 60.6392 37.6132 60.6392 37.3079V29.8372C60.6392 28.6972 60.6392 26.3969 57.4697 26.3969C55.4787 26.3969 54.7879 27.1908 54.3612 27.6794C54.0565 27.2723 53.4266 26.3969 51.4152 26.3969C50.2775 26.3969 48.9569 26.743 48.3067 27.2519C47.8394 27.6387 47.8191 28.0051 47.8191 28.7176V37.2875L47.8394 37.3079Z" fill="#929AAB"/>
<path d="M12 19.3944C12 19.3944 21.5897 21.9796 35.7914 13.2061C47.6972 5.85751 58.1199 12.8397 58.1809 13.0025C58.1809 13.0025 52.2889 8.7888 38.1075 17.3588C22.057 27.028 12 19.3944 12 19.3944Z" fill="#798296"/>
<path d="M58.0387 12.8397C58.0387 12.8397 65.0075 14.6514 75.3692 8.40204C84.0446 3.17048 91.6229 8.09669 91.6636 8.21883C91.6636 8.21883 87.3767 5.22646 77.0555 11.3333C65.3529 18.2341 58.059 12.8397 58.059 12.8397H58.0387Z" fill="#E6E7E8"/>
<path d="M91.0947 8.40203C91.6026 8.40203 92.0699 8.52417 92.5372 8.76845C93.0045 9.01272 93.3499 9.37913 93.614 9.84733C93.8781 10.3155 94 10.8041 94 11.313C94 11.8219 93.8781 12.3104 93.614 12.7583C93.3499 13.2265 93.0045 13.5725 92.5372 13.8371C92.0699 14.1018 91.6026 14.2239 91.0947 14.2239C90.5868 14.2239 90.0991 14.1018 89.6522 13.8371C89.2052 13.5725 88.8395 13.2265 88.5754 12.7583C88.3112 12.3104 88.1893 11.8219 88.1893 11.313C88.1893 10.8041 88.3112 10.3155 88.5754 9.84733C88.8395 9.37913 89.2052 9.03308 89.6522 8.76845C90.0991 8.52417 90.5868 8.40203 91.0744 8.40203H91.0947ZM91.0947 8.97201C90.6883 8.97201 90.3226 9.07379 89.9366 9.27735C89.5709 9.48092 89.2865 9.7659 89.063 10.1323C88.8598 10.4987 88.7379 10.9059 88.7379 11.313C88.7379 11.7201 88.8395 12.1069 89.0426 12.4733C89.2458 12.8397 89.5303 13.1247 89.896 13.3486C90.2617 13.5522 90.6477 13.6539 91.054 13.6539C91.4604 13.6539 91.8464 13.5522 92.2121 13.3486C92.5778 13.145 92.8623 12.8601 93.0654 12.4733C93.2686 12.1069 93.3702 11.7201 93.3702 11.313C93.3702 10.9059 93.2686 10.5191 93.0451 10.1323C92.842 9.7659 92.5372 9.46056 92.1715 9.27735C91.8058 9.07379 91.4198 8.97201 91.0134 8.97201H91.0947ZM89.7741 12.8601H90.4039V11.598H90.5664C90.7493 11.598 90.8915 11.6387 90.9931 11.7201C91.115 11.8015 91.2572 12.0254 91.4198 12.3511L91.6839 12.8601H92.4559L92.0902 12.229C91.9683 12.0051 91.8871 11.883 91.8667 11.8626C91.7855 11.7405 91.7042 11.659 91.6636 11.6183C91.6026 11.5776 91.5417 11.5369 91.4401 11.4962C91.7042 11.4555 91.9074 11.3537 92.0496 11.1908C92.1918 11.028 92.2731 10.8448 92.2731 10.6209C92.2731 10.458 92.2324 10.3155 92.1512 10.173C92.0699 10.0305 91.9886 9.94911 91.8667 9.88804C91.7448 9.82697 91.5823 9.78626 91.3791 9.7659C91.3182 9.7659 90.9728 9.7659 90.4039 9.7659H89.7741V12.8601ZM90.4039 11.1094H90.6477C91.0134 11.1094 91.2369 11.1094 91.3182 11.0687C91.3994 11.0483 91.4807 10.9873 91.5213 10.9262C91.5823 10.8651 91.6026 10.7837 91.6026 10.6819C91.6026 10.5802 91.5823 10.5191 91.5213 10.458C91.4807 10.3969 91.3994 10.3359 91.3182 10.3155C91.2369 10.2952 91.0134 10.2748 90.6477 10.2748H90.4039V11.1094Z" fill="#929AAB"/>
</g>
<defs>
<clipPath id="clip0_1_977">
<rect width="82" height="32" fill="white" transform="translate(12 6)"/>
</clipPath>
</defs>
</svg>
