<svg width="105" height="45" viewBox="0 0 105 45" fill="none" xmlns="http://www.w3.org/2000/svg">
<path d="M29.6931 33.2043C27.8782 33.2043 26.5938 34.7354 26.5938 36.4046C26.5938 38.0738 27.9529 39.5264 29.7043 39.5264C31.0822 39.5264 32.21 38.5405 32.5498 37.4763H31.0636C30.7985 37.9617 30.3316 38.2269 29.708 38.2269C28.6998 38.2269 28.1472 37.3979 28.0837 37.017H32.6618C32.7029 36.8265 32.7477 36.5838 32.7477 36.3075C32.7477 34.8213 31.5677 33.2043 29.7006 33.2043H29.6931ZM28.0388 35.8818C28.304 34.7877 29.1852 34.5001 29.708 34.5001C30.4063 34.5001 31.1382 34.9333 31.2988 35.8818H28.0426H28.0388Z" fill="#929AAB"/>
<path d="M23.9201 33.2382C23.0276 33.2382 22.5385 33.7311 22.307 33.9514V33.4436H21V39.3362H22.4115V36.5318C22.4115 36.0314 22.4115 35.4152 22.6654 35.053C22.9194 34.6609 23.3749 34.5339 23.6325 34.5339C24.82 34.5339 24.8201 35.9343 24.8201 36.4234V39.3324H26.2315V36.1471C26.2315 35.6915 26.2316 34.702 25.6864 34.056C25.2009 33.4585 24.4242 33.2344 23.9164 33.2344L23.9201 33.2382Z" fill="#929AAB"/>
<path d="M38.0988 37.0396H38.0764L37.1204 33.4398H35.9927L35.0293 37.0396H35.0068L33.9352 33.4398H32.4265L34.5513 39.3362H35.4214L36.5379 35.5123H36.5566L37.6619 39.3362H38.532L40.6866 33.4398H39.1817L38.0988 37.0396Z" fill="#929AAB"/>
<path d="M68.7082 33.2382C67.8157 33.2382 67.3266 33.7311 67.0951 33.9514V33.4436H65.7881V39.3362H67.1996V36.5318C67.1996 36.0314 67.1996 35.4152 67.4535 35.053C67.7075 34.6609 68.1668 34.5339 68.4207 34.5339C69.6119 34.5339 69.6119 35.9343 69.6119 36.4234V39.3324H71.0235V36.1471C71.0235 35.6915 71.0235 34.702 70.4783 34.056C69.9928 33.4585 69.216 33.2344 68.7082 33.2344V33.2382Z" fill="#929AAB"/>
<path d="M74.668 34.5376C75.5418 34.5376 75.8666 35.0977 76.0384 35.3964H77.6329C77.028 33.5816 75.4111 33.2418 74.668 33.2418C73.0436 33.2418 71.5461 34.56 71.5461 36.3636C71.5461 38.3203 73.1706 39.5265 74.6792 39.5265C76.0609 39.5265 77.1512 38.7311 77.6329 37.4129H76.0384C75.665 38.0104 75.2019 38.2307 74.7314 38.2307C73.6672 38.2307 72.9577 37.3905 72.9577 36.3823C72.9577 35.1724 73.8091 34.5338 74.668 34.5338V34.5376Z" fill="#929AAB"/>
<path d="M58.3868 31.4755H56.9752V39.3361H58.3868V31.4755Z" fill="#929AAB"/>
<path d="M63.7419 34.1865H63.7194C63.6784 34.1006 62.9651 33.238 61.7664 33.238C60.1271 33.238 58.8126 34.545 58.8126 36.3523C58.8126 38.3165 60.1607 39.5264 61.6806 39.5264C62.4237 39.5264 63.2938 39.1306 63.7419 38.6041V39.3322H65.0376V33.4396H63.7419V34.1865ZM61.9793 38.2306C60.9711 38.2306 60.2279 37.4129 60.2279 36.4121C60.2279 35.5308 60.8217 34.5338 61.9793 34.5338C62.8158 34.5338 63.7007 35.1499 63.7007 36.371C63.7007 37.4651 62.9577 38.2269 61.9793 38.2269V38.2306Z" fill="#929AAB"/>
<path d="M84 36.3075C84 34.8213 82.8237 33.2043 80.9528 33.2043C79.082 33.2043 77.8535 34.7354 77.8535 36.4046C77.8535 38.0738 79.2127 39.5264 80.9641 39.5264C82.3457 39.5264 83.4698 38.5405 83.8096 37.4763H82.3234C82.0582 37.9617 81.5914 38.2269 80.9641 38.2269C79.9521 38.2269 79.4032 37.3979 79.3397 37.017H83.9141C83.9552 36.8265 84 36.5838 84 36.3075ZM79.2949 35.8818C79.56 34.7877 80.445 34.5001 80.9603 34.5001C81.6623 34.5001 82.3943 34.9333 82.5511 35.8818H79.2911H79.2949Z" fill="#929AAB"/>
<path d="M46.6727 33.2381C46.0154 33.2381 45.3208 33.4845 44.8354 33.9737V31.4755H43.4238V39.3361H44.7196V38.6228C45.0706 39.0149 45.571 39.5265 46.7062 39.5265C48.8609 39.5265 49.6376 37.5436 49.6376 36.3636C49.6376 34.8027 48.4688 33.2418 46.6727 33.2418V33.2381ZM46.5232 38.2307C45.6942 38.2307 44.7495 37.6146 44.7495 36.3076C44.7495 35.4487 45.4216 34.5338 46.5046 34.5338C47.397 34.5338 48.2261 35.2247 48.2261 36.3711C48.2261 37.5175 47.4531 38.227 46.527 38.227L46.5232 38.2307Z" fill="#929AAB"/>
<path d="M54.9289 34.1865H54.9103C54.8654 34.1006 54.156 33.238 52.9573 33.238C51.3217 33.238 50.0035 34.545 50.0035 36.3523C50.0035 38.3165 51.3516 39.5264 52.8677 39.5264C53.6108 39.5264 54.4808 39.1306 54.9289 38.6041V39.3322H56.2247V33.4396H54.9289V34.1865ZM53.1664 38.2306C52.1582 38.2306 51.4151 37.4129 51.4151 36.4121C51.4151 35.5308 52.0088 34.5338 53.1664 34.5338C54.0029 34.5338 54.8879 35.1499 54.8879 36.371C54.8879 37.4651 54.1448 38.2269 53.1664 38.2269V38.2306Z" fill="#929AAB"/>
<path d="M51.4374 5.00755L42.7591 5.00383L41.7136 6.81865L52.0909 7.4684L51.4374 5.00755Z" fill="#929AAB"/>
<path d="M57.2589 19.0854L45.1152 19.795L46.0338 23.2416L54.5665 23.7644L54.3014 24.2237L46.4334 24.7764L47.1727 27.6816L62.1955 27.6741C65.8139 27.6741 72.3153 25.2805 73.0696 20.258C73.4953 17.4237 71.0269 16.3333 70.0373 16.2138C74.7014 14.8994 76.2959 11.7626 76.632 10.5154C77.756 6.40031 74.8619 5 70.9485 5H58.2223L56.6166 7.78945L63.4764 8.26744L63.2187 8.73048L55.8026 9.20473L53.6105 13.0062L60.4927 13.4505L60.2275 13.9098L36.7431 15.4334L35.6975 17.2482L57.5165 18.6261L57.2514 19.0817L57.2589 19.0854ZM65.9334 9.43999H68.0358C68.9395 9.43999 69.6228 10.5005 69.115 11.744C68.5623 13.0846 67.0575 13.7455 65.6123 13.753L63.4427 13.7679L65.9372 9.4437L65.9334 9.43999ZM60.9483 18.0959H63.4315C64.1858 18.0959 65.2688 18.8801 64.6788 20.4074C64.044 22.0504 61.9789 22.6255 60.8251 22.6255H58.3344L60.9483 18.0959Z" fill="#929AAB"/>
<path d="M52.5877 9.40999L39.757 10.2203L38.7114 12.0351L53.5325 13.0098L52.5877 9.40999Z" fill="#929AAB"/>
<path d="M33.7448 20.6539L32.6992 22.4725L43.1475 23.055L45.0333 19.7988L33.7448 20.6539Z" fill="#929AAB"/>
<path d="M29.6931 27.6854L40.4888 27.6779L41.9974 25.0826L30.7425 25.8743L29.6931 27.6854Z" fill="#929AAB"/>
</svg>
