<svg width="105" height="45" viewBox="0 0 105 45" fill="none" xmlns="http://www.w3.org/2000/svg">
<g clip-path="url(#clip0_1_1027)">
<path d="M79.1082 10.0009H81.3846V12.0171C85.2736 12.1291 89.368 12.0331 93.336 12.0651V14.1773C89.4629 14.2893 85.3842 14.1933 81.432 14.2253C81.3451 16.5275 81.3846 18.9737 81.3846 21.3779C81.3846 23.8082 81.1831 26.1964 81.764 28.1465C82.3312 30.0487 83.7105 31.1188 85.5107 31.5548C87.8385 32.1169 91.0833 31.6468 92.6246 30.3067C93.1384 30.8108 93.5771 31.3908 94 31.9869C92.0456 33.495 89.1862 34.2691 85.9375 33.859C83.0188 33.491 80.9558 32.1829 79.867 29.7787C78.7406 27.2945 79.0607 23.8302 79.0607 20.3699V10.145C79.0568 10.077 79.0528 10.0089 79.1082 10.0009Z" fill="#929AAB"/>
<path d="M30.8757 33.523H28.5518C28.5518 30.6187 28.5518 27.6585 28.5518 24.6422C28.5518 20.8839 28.8541 17.0156 26.8918 15.2334C24.8308 13.3612 20.5604 13.4192 17.9757 14.7054C15.9759 15.6994 14.5195 17.4716 14.3239 20.3699C14.0334 24.6882 14.5413 29.1306 14.3239 33.523H12V12.5932H14.3239V14.9934C15.881 13.1812 18.1279 11.7931 21.343 11.5851C26.6409 11.241 29.9449 13.3972 30.6859 17.9216C31.0673 20.2518 30.8757 22.9221 30.8757 25.6503V33.523Z" fill="#929AAB"/>
<path d="M55.1579 23.7781H36.4719C36.7861 27.9365 38.9835 30.9468 42.9219 31.6508C47.6388 32.4929 50.9369 30.2587 52.3597 27.0424H54.731C53.326 30.7488 50.7354 33.117 46.6211 33.811C39.6653 34.9831 34.7764 30.5307 34.1006 24.3062C33.8457 21.954 34.1955 19.6398 34.9543 17.7776C36.3138 14.4433 39.4242 11.8671 43.7756 11.5851C47.6368 11.3351 50.5081 12.8432 52.3123 14.8014C54.2429 16.8975 55.2942 19.7178 55.1579 23.7781ZM50.1781 15.8575C48.7889 14.5453 46.633 13.5753 44.0127 13.7453C39.3708 14.0453 37.0628 17.0956 36.4719 21.618H52.7391C52.5138 19.1437 51.6463 17.2456 50.1781 15.8575Z" fill="#929AAB"/>
<path d="M56.1064 12.1131C56.9917 12.0011 58.0825 12.0971 59.0469 12.0651C61.185 14.5474 63.3528 17.1576 65.4968 19.7938C65.6589 19.9918 66.2853 20.8919 66.3979 20.8979C66.5442 20.9059 67.1785 20.0038 67.3464 19.7938C69.4134 17.2356 71.5674 14.5634 73.6541 12.0651H76.3574C76.4286 12.2652 76.1164 12.4692 75.9306 12.6892C73.249 15.8815 70.5181 19.3638 67.8207 22.5781C70.7809 26.2384 73.996 29.8947 76.8317 33.523C75.9978 33.325 74.8694 33.783 73.9861 33.523C73.7312 33.449 73.2273 32.763 72.9427 32.4189C70.7671 29.7887 68.3977 26.8964 66.3031 24.3542C63.6452 27.3285 61.2146 30.5328 58.5726 33.523H55.8219C55.7685 33.337 56.059 33.073 56.2487 32.851C59.0587 29.5347 62.0011 26.0024 64.8329 22.6741C61.9715 19.1058 59.035 15.6134 56.1064 12.1131Z" fill="#929AAB"/>
</g>
<defs>
<clipPath id="clip0_1_1027">
<rect width="82" height="24" fill="white" transform="translate(12 10)"/>
</clipPath>
</defs>
</svg>
