<svg width="105" height="45" viewBox="0 0 105 45" fill="none" xmlns="http://www.w3.org/2000/svg">
<path fill-rule="evenodd" clip-rule="evenodd" d="M23.8651 9.24567C18.8548 15.1894 14.0492 22.5613 14.0004 28.0717C13.9809 30.1449 14.6389 31.957 16.2083 33.326C18.4698 35.3007 20.9603 35.9951 23.4411 36C27.0672 36.0049 30.6641 34.5276 33.4812 33.39C38.2284 31.4745 90.6759 8.45777 90.6759 8.45777C91.1828 8.2017 91.0853 7.88161 90.4517 8.04412C90.1983 8.10813 33.3545 23.6742 33.3545 23.6742C32.2579 23.9844 31.1369 24.1469 30.0451 24.1519C25.6781 24.1765 21.7889 21.729 21.8181 16.5633C21.8327 14.5443 22.4419 12.1068 23.8602 9.24075L23.8651 9.24567Z" fill="#929AAB"/>
</svg>
