<svg width="105" height="45" viewBox="0 0 105 45" fill="none" xmlns="http://www.w3.org/2000/svg">
<path d="M31.9251 28.7857C31.8032 29.426 31.4209 29.7006 30.7783 29.6095C30.464 29.5649 30.1957 29.4148 29.9733 29.1593C29.5479 28.6705 29.3434 28.2403 29.2263 27.5768C29.0612 26.6378 29.1586 25.7165 29.2623 24.777C29.3132 24.319 29.4145 23.8356 29.4927 23.363C29.6694 22.3 29.8835 21.3889 30.2766 20.217C30.3138 20.1057 30.3773 19.9433 30.4672 19.7297C30.5584 19.5134 30.641 19.261 30.7135 19.075C30.9167 18.5528 31.1171 18.0294 31.3145 17.5047C31.3774 17.3367 31.4614 17.2034 31.556 17.0574C31.6129 16.9692 31.6755 16.7996 31.7437 16.5486C31.796 16.3543 31.8762 16.1419 31.9775 15.9725C32.3658 15.325 32.7038 14.6532 33.0571 13.9852C33.2434 13.6327 33.4759 13.3153 33.7546 13.0331C34.0852 12.6985 34.3009 12.4895 34.4017 12.4061C34.8261 12.0556 35.6201 12.517 35.9456 12.8309C35.9892 12.8734 36.0176 12.9447 36.0257 13.0121C36.0718 13.3768 36.1328 13.6786 36.0012 14.0614C35.9843 14.1105 35.9721 14.1579 35.9648 14.2035C35.8913 14.6517 35.7852 15.0902 35.7468 15.5428C35.7356 15.6782 35.6962 15.8107 35.6287 15.9403C35.5399 16.1112 35.4333 16.243 35.3791 16.4202C35.3208 16.6087 35.2524 16.7931 35.1736 16.9734C35.167 16.9884 35.1647 17.005 35.1669 17.0213C35.2077 17.304 35.1535 17.5042 35.0018 17.7635C34.5566 18.5242 34.1142 19.2866 33.6744 20.0505C33.5298 20.3022 33.3765 20.5359 33.2146 20.7517C32.3428 21.9153 31.5329 22.8249 30.4528 23.8718C30.1984 24.1183 30.0942 24.63 30.0457 24.9709C29.9267 25.818 29.8595 26.6388 30.0323 27.4669C30.1336 27.9527 30.4394 29.0899 31.1364 28.9317C31.326 28.8888 31.5709 28.7237 31.7562 28.6061C31.8944 28.5187 31.9448 28.6827 31.9251 28.7857ZM31.7221 19.4387C31.5745 19.7734 31.4204 20.1811 31.2598 20.6619C31.1571 20.9695 30.9622 21.2815 30.8762 21.6032C30.8372 21.7504 30.8061 21.8838 30.7831 22.0036C30.7594 22.1293 30.7868 22.1423 30.8652 22.0427C31.1468 21.6846 31.4264 21.3293 31.7038 20.9768C31.9563 20.655 32.241 20.2375 32.5271 19.8811C33.2256 19.0115 33.6663 17.9666 34.1406 16.9637C34.466 16.2757 34.7704 15.3641 34.9394 14.5213C35.0056 14.1898 35.1381 13.6527 35.2034 13.2054C35.2072 13.1771 35.1954 13.1597 35.1679 13.1532C35.1304 13.1447 35.0938 13.16 35.0579 13.1991C34.6691 13.6254 34.2841 14.034 33.9596 14.5165C33.7316 14.8548 33.5419 15.3582 33.2645 15.763C32.9352 16.243 32.6894 16.7723 32.4796 17.3152C32.2679 17.8631 31.9923 18.346 31.8618 18.93C31.8042 19.1891 31.7576 19.3587 31.7221 19.4387Z" fill="#929AAB"/>
<path d="M65.9227 23.1716C65.9393 23.2885 65.9809 23.2984 66.0475 23.2014C66.2616 22.8889 66.4526 22.6101 66.6658 22.2517C67.03 21.6378 67.4955 21.0132 68.0622 20.3777C68.6877 19.6766 69.4501 19.1585 70.2781 18.7625C70.8816 18.474 71.617 18.6297 72.2075 18.8988C72.2353 18.9115 72.2708 18.9491 72.314 19.0116C72.5643 19.3739 72.6822 19.7775 72.6678 20.2225C72.655 20.6232 72.6302 21.0228 72.5934 21.4212C72.5334 22.0716 72.3673 22.7703 72.2488 23.4446C72.2065 23.6871 72.1177 23.929 71.9823 24.1702C71.9665 24.1985 71.955 24.2546 71.9554 24.2956C71.9596 24.5375 71.9266 24.7745 71.8565 25.0066C71.7927 25.2165 71.7217 25.4089 71.689 25.6321C71.6304 26.0295 71.5309 26.4567 71.3904 26.9138C71.3357 27.0905 71.4115 27.2902 71.3448 27.4616C71.281 27.6257 71.2296 27.7717 71.2018 27.9548C71.1389 28.3693 71.0285 28.7716 71.0419 29.214C71.0453 29.319 71.0016 29.423 71.0174 29.5192C71.0606 29.777 71.0875 30.0309 71.1442 30.2882C71.184 30.4669 71.1917 30.7667 71.2973 30.9127C71.4658 31.1461 71.5992 31.4567 71.7759 31.6324C72.0615 31.9176 72.3779 32.006 72.7912 31.9908C73.1378 31.9778 73.4708 31.9124 73.7902 31.7945C74.1803 31.6503 74.5471 31.4467 74.8905 31.1837C74.8935 31.1814 74.8971 31.1797 74.9009 31.1789C74.9046 31.1781 74.9085 31.1781 74.9123 31.179C74.916 31.1799 74.9195 31.1816 74.9226 31.184C74.9256 31.1864 74.9281 31.1895 74.9298 31.193L74.937 31.2067C74.9377 31.2086 74.9375 31.2102 74.9366 31.2115L74.6432 31.628C74.6388 31.6345 74.6334 31.6403 74.6274 31.6451C74.4647 31.7677 74.2976 31.8751 74.1699 32.048C74.1017 32.1404 74.0422 32.1975 73.9913 32.2193C73.4638 32.4449 72.8503 32.586 72.2968 32.4332C72.1111 32.3818 71.9238 32.3386 71.7346 32.3038C71.2623 32.2169 70.9814 31.963 70.7044 31.5787C70.5609 31.3795 70.4567 31.1241 70.3429 30.8903C70.2849 30.7706 70.3362 30.6793 70.2983 30.5641C70.2426 30.3935 70.2116 30.2179 70.2052 30.0372C70.1826 29.3786 70.1409 28.7243 70.2647 28.0724C70.4106 27.3044 70.5484 26.5549 70.7376 25.779C71.0045 24.6853 71.2453 23.5857 71.46 22.4803C71.5316 22.1131 71.5589 21.6438 71.5906 21.3738C71.6535 20.8416 71.7658 20.2493 71.7058 19.722C71.6997 19.6693 71.6696 19.6217 71.6156 19.5794C71.4274 19.4313 71.2315 19.3779 71.028 19.4193C70.9345 19.4382 70.7617 19.5164 70.5095 19.6541C69.934 19.9671 69.5235 20.3514 69.0483 20.8196C68.873 20.993 68.645 21.1873 68.4525 21.3816C68.2096 21.6263 68.0368 22.0081 67.8438 22.2176C66.9656 23.1694 66.2443 24.2135 65.6798 25.3498C65.5981 25.5142 65.5191 25.7001 65.4426 25.9074C65.3495 26.1594 65.2631 26.5105 65.1541 26.8078C65.0634 27.0549 65.0077 27.2912 64.9136 27.5241C64.7721 27.874 64.6721 28.2357 64.6136 28.609C64.5531 28.9958 64.5084 29.2648 64.4081 29.549C64.3863 29.6108 64.3391 29.6518 64.2665 29.672C64.2511 29.6762 64.2383 29.6723 64.2281 29.6603C64.0341 29.4264 63.6832 29.4254 63.4101 29.3478C63.3409 29.3283 63.312 29.2824 63.3232 29.2101C63.3715 28.9045 63.4323 28.6073 63.5056 28.3185C63.7901 27.1968 64.0837 26.0775 64.3865 24.9607C64.6931 23.8295 64.9981 22.6979 65.3015 21.5657C65.4522 21.0032 65.5727 20.4525 65.6951 19.8919C65.7863 19.474 65.9635 18.242 65.6313 17.9535C65.4796 17.8216 65.253 17.8729 65.0998 17.9896C64.7096 18.287 64.4532 18.4803 64.1916 18.8436C63.9308 19.2059 63.6736 19.571 63.4202 19.9388C63.28 20.1419 63.2305 20.3636 63.0995 20.5599C62.9612 20.7669 62.8239 20.9647 62.7058 21.1907C62.6057 21.3831 62.5026 21.5739 62.3967 21.763C62.2666 21.9954 62.2368 22.2395 62.1437 22.4851C61.4371 24.3383 60.716 26.1854 59.9806 28.0265C59.8903 28.2526 59.8006 28.6242 59.7463 28.9235C59.6817 29.2783 59.6169 29.633 59.5519 29.9874C59.4765 30.3951 59.2269 30.296 58.9552 30.1403C58.7574 30.027 58.5507 29.9355 58.335 29.8659C58.3194 29.8608 58.3059 29.8507 58.2966 29.8371C58.2874 29.8235 58.2828 29.8072 58.2836 29.7907C58.2859 29.7422 58.2939 29.6948 58.3076 29.6486C58.4737 29.0838 58.62 28.5138 58.7464 27.9386C59.0488 26.5617 59.3786 25.1819 59.7363 23.8186C60.0574 22.5955 60.248 21.3304 60.4232 20.0784C60.5379 19.2572 60.5701 18.41 60.6138 17.5785C60.6397 17.0887 60.5903 16.3573 60.2854 15.9286C59.9979 15.5243 59.394 16.0253 59.1799 16.2748C58.7286 16.8012 58.3599 17.4027 58.0071 18.0047C57.8538 18.2661 57.6706 18.5051 57.4575 18.7215C57.3629 18.8182 57.2755 18.8856 57.1425 18.7962C56.9745 18.6834 56.603 18.3392 56.7158 18.1376C56.782 18.0194 56.8529 17.9042 56.9284 17.7919C57.3934 17.0995 57.8479 16.4963 58.2918 15.9823C58.7426 15.4604 59.4799 14.9892 60.1928 14.9936C60.5048 14.995 60.8817 15.2113 61.042 15.4765C61.1668 15.6825 61.2162 15.8788 61.306 16.1781C61.4644 16.7069 61.4668 17.2196 61.5038 17.745C61.5227 18.0119 61.5211 18.1867 61.499 18.2694C61.4481 18.4631 61.4235 18.5892 61.4251 18.6478C61.4361 19.0433 61.4592 19.4339 61.3622 19.8216C61.2636 20.2161 61.1897 20.6152 61.1404 21.0189C61.1071 21.291 61.0758 21.4995 61.0463 21.6443C60.9551 22.0911 60.8365 22.5086 60.7962 22.9705C60.792 23.0193 60.8109 23.032 60.8528 23.0086C60.8615 23.0037 60.8722 22.9855 60.885 22.9539C60.9777 22.7234 61.0593 22.4832 61.1601 22.2644C61.4292 21.6831 61.6993 21.102 61.9704 20.5213C62.3708 19.6644 62.8403 18.8924 63.436 18.1869C63.8239 17.7264 64.3332 17.2792 64.9208 17.1102C65.3711 16.9808 65.9999 17.1727 66.3945 17.3807C66.8842 17.6385 66.9216 18.4935 66.9154 18.9871C66.9096 19.4849 66.8389 19.9744 66.7032 20.4559C66.5227 21.0965 66.3281 21.7327 66.1195 22.3645C66.046 22.5867 65.9947 22.7981 65.9443 23.0183C65.9263 23.0974 65.9191 23.1485 65.9227 23.1716Z" fill="#929AAB"/>
<path d="M23.9048 18.2029C23.3595 17.9202 22.6879 17.6473 22.0643 17.7078C21.6348 17.7495 21.2548 17.8138 20.9242 17.9007C20.1628 18.1004 19.5301 18.5159 18.8998 18.993C18.5449 19.2615 17.927 19.7722 17.0463 20.5252C16.9903 20.573 16.9284 20.5684 16.8605 20.5115C16.5087 20.2151 16.7468 19.8572 16.9705 19.5618C17.1822 19.283 17.4625 19.0003 17.6982 18.7107C17.7392 18.6606 17.8154 18.5887 17.9267 18.4949C18.1884 18.2757 18.4898 18.0897 18.7735 17.9007C19.088 17.6912 19.4715 17.5516 19.8157 17.3992C20.0346 17.3026 20.2433 17.2321 20.4417 17.1878C22.2352 16.7904 24.2739 16.9544 25.5182 18.5042C25.9325 19.0203 26.2575 19.4969 26.5575 20.0955C27.0678 21.1145 27.1994 22.2678 27.1019 23.3962C26.8518 26.3039 25.1774 29.1163 22.8117 30.7003C22.3515 31.0085 21.7879 31.273 21.121 31.4937C20.9102 31.563 20.5905 31.6255 20.3438 31.6539C19.6368 31.7346 18.934 31.6981 18.2354 31.5445C17.1428 31.3038 16.2197 30.4107 15.8035 29.3868C15.1592 27.8014 15.3229 26.1188 15.995 24.5822C16.572 23.2639 17.302 22.1148 18.185 21.135C18.5591 20.72 19.0368 20.3313 19.6179 19.969C19.7472 19.8883 19.9905 19.7691 20.3476 19.6116C20.8517 19.3889 21.404 19.3151 22.0048 19.3899C22.4387 19.4441 22.7267 19.534 22.9504 19.9031C23.0397 20.0501 23.0354 20.2092 22.842 20.2512C22.6768 20.2864 22.5366 20.1902 22.4013 20.1126C22.2611 20.0325 21.9644 20.1008 21.7935 20.1101C21.2232 20.1423 20.6457 20.3665 20.1935 20.6975C19.159 21.4543 18.4092 22.5227 17.7289 23.6984C17.3299 24.3879 17.0129 25.1447 16.778 25.9689C16.6892 26.2804 16.6517 26.6007 16.6152 26.924C16.5111 27.8429 16.572 28.7955 16.9906 29.5758C17.1378 29.8499 17.2993 30.0689 17.475 30.233C18.3521 31.0518 19.8407 30.9615 20.8997 30.6514C21.9035 30.358 22.8348 29.7164 23.562 28.9591C24.4496 28.0348 25.1736 27.0084 25.6743 25.8254C25.7792 25.5776 25.8972 25.2025 26.028 24.6999C26.1241 24.3321 26.1868 24.0132 26.2162 23.7434C26.306 22.924 26.2902 21.9431 26.0204 21.1506C25.6296 20.0032 25.0055 18.7737 23.9048 18.2029Z" fill="#929AAB"/>
<path d="M35.7967 21.2356C35.9868 20.9983 36.4793 20.6472 36.7798 20.846C37.0136 21.0003 37.0606 21.4177 37.0323 21.6746C36.9925 22.0335 36.6771 22.3035 36.3698 22.4304C36.327 22.4483 36.2601 22.4394 36.1692 22.4036C35.6406 22.1965 35.4006 21.7288 35.7967 21.2356Z" fill="#929AAB"/>
<path d="M82.2876 25.8747C82.2847 25.8486 82.2737 25.8444 82.2545 25.862C81.7719 26.3008 81.2808 26.7062 80.7812 27.0783C80.3594 27.3924 79.873 27.5813 79.3219 27.6451C78.9666 27.6862 78.7592 27.5739 78.5159 27.3009C78.3082 27.0675 78.1315 26.8066 77.9859 26.5182C77.9814 26.5093 77.9749 26.5016 77.9667 26.496C77.9586 26.4903 77.9492 26.4868 77.9394 26.4858C77.9296 26.4848 77.9196 26.4863 77.9105 26.4902C77.9013 26.494 77.8933 26.5001 77.887 26.508C77.5058 26.9879 76.9893 27.3619 76.4449 27.6471C76.2071 27.7718 75.9598 27.8313 75.7028 27.8258C75.4901 27.8214 75.2472 27.7418 75.0259 27.6827C74.9696 27.6678 74.8772 27.6158 74.7489 27.527C74.6523 27.4602 74.5803 27.3851 74.5329 27.3014C74.3327 26.9479 74.3615 26.6569 74.5055 26.2575C74.5833 26.0423 74.6579 25.8262 74.7292 25.609C74.782 25.4482 74.9233 25.2057 75.1531 24.8815C75.2901 24.6888 75.4328 24.5007 75.5813 24.3171C76.01 23.7873 76.6782 22.9724 77.4588 23.1731C77.8294 23.2683 78.2571 23.3723 78.3887 23.7956C78.4578 24.0183 78.428 24.2238 78.3253 24.4304C78.2883 24.5041 78.2178 24.592 78.2086 24.675C78.2081 24.6796 78.2088 24.6844 78.2106 24.6887C78.2124 24.693 78.2153 24.6967 78.219 24.6995C78.2227 24.7024 78.2271 24.7041 78.2316 24.7047C78.2362 24.7053 78.2409 24.7046 78.2451 24.7028C78.5936 24.5607 78.9647 24.3469 79.1294 24.8757C79.1639 24.9855 79.1116 25.2131 79.0626 25.363C78.9378 25.7453 78.9191 26.5128 79.2767 26.7999C79.5254 27.0001 80.437 26.3581 80.6554 26.2077C81.2449 25.8014 81.7524 25.4601 82.3169 25.1139C82.544 24.9748 82.6937 24.842 82.8675 24.613C83.0992 24.3083 83.3472 24.0181 83.6116 23.7424C83.9577 23.3811 84.3398 23.3786 84.7709 23.2717C84.9447 23.2287 85.4708 23.5676 85.6312 23.6706C85.9533 23.8776 86.2485 24.2057 86.1256 24.6208C86.0917 24.7357 85.9917 24.8875 85.8256 25.0763C85.5678 25.3693 85.3527 25.5636 85.0196 25.8615C84.8338 26.0275 84.5842 26.1715 84.3821 26.3576C84.2845 26.4474 84.1945 26.5161 84.1123 26.5636C83.9779 26.6408 83.8555 26.7028 83.7239 26.8014C83.6023 26.8929 83.4717 26.9697 83.3322 27.0319C83.2887 27.0514 83.2528 27.0794 83.2247 27.1159C83.2201 27.1221 83.2169 27.1293 83.2155 27.1371C83.2141 27.1448 83.2144 27.1527 83.2165 27.1603C83.2847 27.4093 83.4335 27.5421 83.7033 27.5245C84.0201 27.504 84.3758 27.5045 84.6605 27.4396C85.0133 27.3595 85.3988 27.1657 85.6528 27.069C85.8621 26.9894 86.0666 26.9201 86.2615 26.8078C86.649 26.5845 87.0319 26.3535 87.4102 26.1149C87.6661 25.9533 88.0809 25.7301 88.379 25.5026C88.6324 25.3086 88.8379 25.1585 88.9954 25.0524C89.0635 25.0065 89.0994 25.0251 89.1029 25.1081L89.1038 25.1281C89.1067 25.1997 89.0806 25.258 89.0256 25.3029C88.6147 25.6354 88.3876 25.8966 88.1601 26.2345C88.1585 26.2368 88.1074 26.3268 88.0069 26.5045C87.8274 26.8224 87.3781 27.131 87.1337 27.298C86.8287 27.5066 86.5202 27.7099 86.2082 27.9078C86.0046 28.0371 85.8019 28.1199 85.6 28.1564C85.1362 28.2408 84.6984 28.4645 84.2121 28.4147C83.8396 28.3761 83.4143 28.2906 83.0979 28.0758C82.7672 27.8517 82.458 27.5519 82.3279 27.1593C82.1948 26.7563 82.1788 26.3476 82.2799 25.9333C82.2863 25.9072 82.2889 25.8877 82.2876 25.8747ZM76.6326 24.5051C75.9802 25.1613 75.4143 26.048 75.1814 26.9581C75.1734 26.9891 75.1853 27.0044 75.217 27.004C75.8828 26.9928 76.4118 26.8698 76.8607 26.3488C77.2072 25.9471 77.5486 25.5405 77.8846 25.1291C77.889 25.1236 77.8921 25.1172 77.8936 25.1103C77.8951 25.1034 77.895 25.0962 77.8933 25.0893C77.8916 25.0825 77.8883 25.0761 77.8837 25.0708C77.8791 25.0655 77.8733 25.0614 77.8668 25.0588C77.7014 24.9927 77.6038 24.867 77.574 24.6818C77.5362 24.4484 77.5415 24.2119 77.5899 23.9724C77.6004 23.9196 77.5804 23.9006 77.5298 23.9152C77.1928 24.0129 76.9125 24.2233 76.6326 24.5051ZM83.6682 25.0016C83.4705 25.3166 83.2751 25.6667 83.1978 26.0334C83.1967 26.0382 83.1971 26.0432 83.1988 26.0479C83.2005 26.0525 83.2034 26.0566 83.2073 26.0596C83.2112 26.0626 83.2159 26.0644 83.2207 26.0647C83.2256 26.0651 83.2305 26.064 83.2348 26.0617C83.3897 25.977 83.5348 25.8787 83.6702 25.7668C83.9809 25.5099 84.2869 25.2476 84.588 24.9797C84.7584 24.8273 85.4977 24.2307 85.2438 23.9768C85.1593 23.8918 85.0508 23.9396 84.9514 23.9724C84.3787 24.1628 83.986 24.4953 83.6682 25.0016Z" fill="#929AAB"/>
<path d="M45.329 27.1383C45.3268 27.1504 45.3308 27.1678 45.341 27.1906C45.4226 27.3737 45.5345 27.5416 45.7438 27.5294C46.0117 27.5135 46.2795 27.4975 46.5474 27.4816C46.8114 27.4659 47.0956 27.3507 47.3952 27.2203C47.6842 27.0944 48.0053 27.0031 48.2804 26.8536C48.807 26.5665 49.301 26.2355 49.8175 25.9328C50.2903 25.6554 50.6801 25.3615 51.1074 25.0417C51.1152 25.0358 51.1242 25.0317 51.1338 25.0299C51.1433 25.028 51.1532 25.0283 51.1626 25.0309C51.172 25.0334 51.1807 25.0381 51.1881 25.0445C51.1955 25.0509 51.2014 25.059 51.2053 25.068L51.2106 25.0798C51.2232 25.109 51.2265 25.1416 51.2199 25.1729C51.2134 25.2041 51.1974 25.2325 51.1741 25.2541C50.8069 25.5924 50.43 25.9171 50.2011 26.3429C50.021 26.6774 49.8674 26.8341 49.5218 27.1002C49.1579 27.3805 48.7388 27.6373 48.3418 27.8951C48.137 28.0283 47.917 28.1178 47.6818 28.1637C47.2732 28.2433 46.8316 28.4181 46.4759 28.4317C46.3456 28.4366 46.1134 28.3987 45.7793 28.318C44.9445 28.1158 44.3008 27.3815 44.3267 26.484C44.3468 25.7897 44.5662 25.166 44.9848 24.613C45.2031 24.3246 45.4343 24.0477 45.6785 23.7824C46.0299 23.4006 46.3799 23.3981 46.8594 23.2741C47.0625 23.2214 47.6059 23.5798 47.7821 23.7018C47.9554 23.822 48.1191 23.965 48.2021 24.1594C48.3125 24.4181 48.278 24.6605 48.0984 24.8864C47.7307 25.3496 47.276 25.7755 46.7341 26.1642C46.6583 26.2186 46.5839 26.2806 46.5109 26.3502C46.2997 26.5514 46.0515 26.6427 45.824 26.8087C45.6732 26.9186 45.5326 26.9874 45.3775 27.0709C45.365 27.0776 45.3541 27.0872 45.3457 27.0988C45.3373 27.1105 45.3316 27.124 45.329 27.1383ZM45.4778 25.5548C45.4039 25.7111 45.3497 25.8551 45.3151 25.987C45.2933 26.0703 45.318 26.0887 45.389 26.0421C45.931 25.6906 46.4451 25.2218 46.929 24.7863C47.1196 24.6149 47.4797 24.2419 47.3836 24.0119C47.3496 23.9308 47.2699 23.9157 47.1945 23.9348C46.3223 24.1545 45.8489 24.7677 45.4778 25.5548Z" fill="#929AAB"/>
<path d="M39.9904 28.444C40.2102 28.5041 40.8756 27.8156 41.0153 27.6452C41.4487 27.1144 41.9264 26.5695 42.2456 25.9582C42.4133 25.6366 42.4978 25.4745 42.4991 25.4719C42.6753 25.1623 42.8783 24.8518 43.0228 24.5403C43.1433 24.2795 43.2341 23.9851 43.4174 23.7624C43.4209 23.7583 43.4251 23.7549 43.4299 23.7525C43.4347 23.7501 43.4399 23.7487 43.4452 23.7484C43.4505 23.748 43.4558 23.7488 43.4607 23.7506C43.4657 23.7525 43.4702 23.7553 43.4741 23.759C43.7535 24.03 43.8903 24.4133 43.7501 24.7976C43.5325 25.392 43.3027 25.9815 43.0608 26.5661C43.03 26.6403 42.9964 26.7131 42.9599 26.7844C42.8467 27.008 42.6623 27.0666 42.5893 27.3283C42.5389 27.5104 42.3109 27.8161 42.1578 28.005C41.7445 28.5148 41.3863 28.8209 41.0306 29.2594C40.7944 29.5504 40.3446 29.6871 40.0081 29.8312C39.9935 29.8375 39.9772 29.8389 39.9616 29.8351C39.8671 29.8123 39.7799 29.7763 39.6999 29.7272C39.649 29.6959 39.59 29.6333 39.5228 29.5392C39.4335 29.4137 39.3087 29.3268 39.2477 29.193C39.1648 29.0097 39.1226 28.8231 39.121 28.633C39.1197 28.4761 39.1274 28.1422 39.144 27.6315C39.1527 27.3718 39.2775 27.0446 39.3341 26.7634C39.3869 26.4987 39.4897 26.2463 39.5305 25.9909C39.6404 25.3088 39.8195 24.6282 39.986 23.9587C40.0059 23.88 40.0576 23.8573 40.1411 23.8909C40.2942 23.9524 40.4594 24.0276 40.5487 24.1706C40.7253 24.4529 40.6874 24.8113 40.637 25.1169C40.5269 25.7829 40.3826 26.4409 40.204 27.091C40.0801 27.5407 40.0302 27.9533 39.9664 28.4064C39.9651 28.4146 39.9669 28.4229 39.9713 28.4299C39.9757 28.4368 39.9825 28.4418 39.9904 28.444Z" fill="#929AAB"/>
<path d="M35.5104 27.9347C35.5197 27.9689 35.541 27.981 35.5743 27.9709C35.7919 27.9055 35.9795 27.8068 36.1369 27.675C36.8362 27.0891 37.5049 26.4691 38.143 25.8152C38.5319 25.4167 38.9409 25.0622 39.3321 24.6755C39.3619 24.6462 39.3923 24.6394 39.4233 24.655C39.436 24.6615 39.4465 24.6717 39.4534 24.6842C39.4602 24.6968 39.4632 24.7111 39.4617 24.7253C39.4496 24.8471 39.4144 24.9525 39.3561 25.0417C39.1814 25.3077 39.0054 25.5728 38.8281 25.8371C38.5343 26.2746 38.2559 26.8078 37.9251 27.2853C37.6654 27.6599 37.3063 27.9513 37.0101 28.2951C36.8815 28.4455 36.6525 28.5822 36.4369 28.6696C36.2488 28.7454 36.0559 28.8369 35.8585 28.944C35.7193 29.0197 35.4236 28.9045 35.2882 28.8434C35.1048 28.7604 34.8821 28.5436 34.7817 28.3625C34.6358 28.0993 34.4731 27.8845 34.5028 27.5461C34.5547 26.9582 34.7116 26.3469 34.871 25.7795C35.0448 25.1604 35.1767 24.6386 35.2666 24.2141C35.2882 24.1116 35.2287 23.8113 35.4279 23.7976C35.4941 23.7932 35.5815 23.8499 35.6209 23.8899C35.8455 24.1181 35.9977 24.2685 36.0774 24.3411C36.3083 24.5505 36.244 24.8494 36.1585 25.1423C36.0798 25.4105 36.0006 25.6783 35.9209 25.9455C35.8681 26.1228 35.7313 26.3952 35.6967 26.6433C35.6425 27.0275 35.5594 27.406 35.5076 27.7892C35.4992 27.8488 35.5002 27.8973 35.5104 27.9347Z" fill="#929AAB"/>
</svg>
