<svg width="105" height="45" viewBox="0 0 105 45" fill="none" xmlns="http://www.w3.org/2000/svg">
<g clip-path="url(#clip0_1_971)">
<path d="M17.3989 26.8783C17.3973 27.8065 17.0364 28.696 16.3954 29.3512C15.7544 30.0064 14.886 30.3735 13.9811 30.3719L13.4485 30.371C13.0005 30.3702 12.557 30.2788 12.1433 30.1022C11.7297 29.9256 11.354 29.6671 11.0377 29.3416C10.7214 29.016 10.4708 28.6298 10.3 28.2049C10.1293 27.78 10.0418 27.3247 10.0426 26.8651L10.0566 18.6612C10.0581 17.733 10.4191 16.8435 11.0601 16.1883C11.7011 15.5331 12.5695 15.166 13.4744 15.1676L14.0069 15.1685C14.455 15.1693 14.8985 15.2607 15.3122 15.4373C15.7258 15.6139 16.1015 15.8724 16.4178 16.1979C16.734 16.5235 16.9847 16.9097 17.1554 17.3346C17.3262 17.7595 17.4137 18.2148 17.4129 18.6744L17.3989 26.8783ZM14.9549 18.5745C14.9549 18.2501 14.8293 17.939 14.6056 17.7096C14.382 17.4802 14.0787 17.3514 13.7625 17.3514H13.6996C13.3834 17.3514 13.0801 17.4802 12.8565 17.7096C12.6328 17.939 12.5072 18.2501 12.5072 18.5745V27.0668C12.5072 27.3912 12.6328 27.7023 12.8565 27.9317C13.0801 28.1611 13.3834 28.2899 13.6996 28.2899H13.7625C14.0787 28.2899 14.382 28.1611 14.6056 27.9317C14.8293 27.7023 14.9549 27.3912 14.9549 27.0668V18.5745Z" fill="#929AAB"/>
<path d="M76.9836 26.8935C76.9821 27.8185 76.6223 28.7051 75.9835 29.358C75.3447 30.011 74.4792 30.3769 73.5774 30.3753L73.0184 30.3743C72.5719 30.3735 72.1299 30.2825 71.7176 30.1065C71.3054 29.9304 70.931 29.6728 70.6158 29.3484C70.3006 29.024 70.0508 28.639 69.8806 28.2155C69.7104 27.7921 69.6232 27.3384 69.624 26.8803L69.638 18.6527C69.6396 17.7276 69.9994 16.8411 70.6382 16.1882C71.2769 15.5352 72.1425 15.1693 73.0443 15.1709L73.6033 15.1719C74.0498 15.1727 74.4918 15.2637 74.9041 15.4397C75.3163 15.6157 75.6907 15.8733 76.0059 16.1978C76.3211 16.5222 76.5709 16.9072 76.7411 17.3306C76.9112 17.7541 76.9984 18.2078 76.9976 18.6659L76.9836 26.8935ZM74.5469 18.5783C74.5471 18.4177 74.5166 18.2586 74.4569 18.1101C74.3972 17.9616 74.3096 17.8266 74.1991 17.7128C74.0885 17.599 73.9572 17.5087 73.8127 17.447C73.6681 17.3853 73.5131 17.3534 73.3565 17.3531L73.2937 17.353C72.9774 17.3524 72.6739 17.4807 72.4499 17.7097C72.2259 17.9387 72.0997 18.2495 72.0992 18.5739L72.0847 27.0595C72.0845 27.2201 72.115 27.3792 72.1747 27.5277C72.2344 27.6762 72.322 27.8112 72.4325 27.925C72.543 28.0387 72.6743 28.1291 72.8189 28.1908C72.9635 28.2525 73.1185 28.2844 73.2751 28.2847L73.3379 28.2848C73.6542 28.2854 73.9577 28.1571 74.1817 27.9281C74.4057 27.6991 74.5319 27.3882 74.5324 27.0638L74.5469 18.5783Z" fill="#929AAB"/>
<path d="M63.9932 17.297C62.5378 17.0154 62.3063 18.7661 62.8024 19.75C62.9182 19.9774 63.1823 20.2969 63.5946 20.7085C64.3918 21.5047 65.1779 22.3105 65.953 23.1259C67.2397 24.478 67.4448 26.0404 67.2017 27.8386C66.8725 30.2713 64.3322 30.8532 62.3112 30.2238C59.8718 29.4638 60.1166 27.3467 60.1381 25.1684C60.1385 25.1314 60.1532 25.096 60.1789 25.07C60.2046 25.0439 60.2392 25.0293 60.2753 25.0293L62.3079 25.0344C62.3254 25.0344 62.3426 25.038 62.3587 25.0449C62.3748 25.0519 62.3893 25.0621 62.4015 25.0749C62.4137 25.0877 62.4232 25.1028 62.4296 25.1195C62.436 25.1362 62.439 25.1539 62.4386 25.1718C62.4287 25.7554 62.4165 26.3486 62.4022 26.9514C62.3823 27.8211 62.7302 28.291 63.4458 28.3611C64.8912 28.5019 64.8664 27.1363 64.7854 26.0998C64.7446 25.5863 64.4623 25.0712 63.9386 24.5543C63.1448 23.7717 62.3603 22.98 61.5852 22.1793C60.7495 21.3153 60.3194 20.2443 60.2952 18.9663C60.2654 17.353 60.7417 15.911 62.3972 15.436C64.2743 14.8966 66.7204 15.3224 67.0247 17.7483C67.1074 18.4031 67.1256 19.0596 67.0793 19.7178C67.078 19.7336 67.071 19.7482 67.0597 19.7589C67.0483 19.7696 67.0335 19.7755 67.0181 19.7755L64.9888 19.7738C64.9734 19.7738 64.9581 19.7706 64.944 19.7644C64.9298 19.7582 64.917 19.7491 64.9063 19.7377C64.8956 19.7263 64.8873 19.7128 64.8819 19.698C64.8765 19.6832 64.874 19.6674 64.8747 19.6517C64.9094 18.8119 65.1145 17.5125 63.9932 17.297Z" fill="#929AAB"/>
<path d="M96.0001 18.325V19.7246L93.8864 19.7636C93.8716 19.7638 93.8569 19.761 93.8431 19.7553C93.8294 19.7496 93.8169 19.7411 93.8064 19.7303C93.7959 19.7196 93.7877 19.7067 93.7821 19.6926C93.7765 19.6786 93.7738 19.6634 93.774 19.6482C93.7822 18.7848 94.0138 17.4802 92.8577 17.2936C92.0606 17.1664 91.581 17.5922 91.4917 18.398C91.4002 19.2247 91.6758 19.9417 92.3186 20.549C93.0397 21.2299 93.9592 22.181 95.0772 23.4024C95.4697 23.8311 95.7773 24.366 96.0001 25.0073V28.3119C95.2509 30.6971 92.0904 30.9855 90.3274 29.8506C88.7959 28.8649 88.9662 26.7105 89.0307 25.0955C89.0312 25.0787 89.038 25.0627 89.0497 25.051C89.0615 25.0393 89.0772 25.0327 89.0936 25.0327L91.2105 25.0344C91.2412 25.0344 91.2707 25.0469 91.2924 25.0692C91.3141 25.0914 91.3263 25.1217 91.3263 25.1531C91.3186 25.8385 91.3257 26.5369 91.3478 27.2482C91.3698 27.9212 91.7061 28.2932 92.3566 28.3645C93.2894 28.4663 93.6251 27.9098 93.6946 27.0311C93.7756 26.0081 93.559 25.3211 92.8181 24.5764C91.9558 23.7067 91.114 22.8166 90.2926 21.9062C89.6796 21.2276 89.3218 20.4653 89.2193 19.6194C88.8654 16.7049 90.3307 14.9814 93.1951 15.2494C94.978 15.4168 95.9129 16.442 96.0001 18.325Z" fill="#929AAB"/>
<path d="M39.2698 20.7137C39.3238 20.9196 39.3778 20.9196 39.4319 20.7137L40.788 15.5244C40.7967 15.4926 40.8151 15.4647 40.8405 15.4448C40.8659 15.4248 40.8968 15.4141 40.9286 15.4141L42.9976 15.4192C43.011 15.4191 43.0243 15.4223 43.0363 15.4285C43.0483 15.4346 43.0588 15.4436 43.0668 15.4546C43.0749 15.4657 43.0803 15.4785 43.0826 15.4921C43.0849 15.5057 43.0841 15.5196 43.0803 15.5328C42.2423 18.3851 41.4132 21.2074 40.5929 23.9997C40.4804 24.3842 40.4231 24.7756 40.4209 25.1736C40.4109 26.8214 40.4109 28.4766 40.4209 30.1391C40.4209 30.1923 40.395 30.2188 40.3431 30.2188L38.1568 30.2171C38.1243 30.2171 38.0932 30.2039 38.0702 30.1804C38.0473 30.1568 38.0344 30.1249 38.0344 30.0916V24.8751C38.0344 24.694 38.0082 24.5139 37.9566 24.3407L35.3733 15.5447C35.3689 15.5295 35.3681 15.5134 35.3709 15.4977C35.3736 15.4821 35.3799 15.4673 35.3892 15.4546C35.3986 15.4419 35.4107 15.4317 35.4245 15.4246C35.4384 15.4176 35.4538 15.414 35.4693 15.4141L37.7846 15.4209C37.8107 15.4208 37.836 15.4295 37.8567 15.4458C37.8774 15.4621 37.8921 15.4849 37.8988 15.5108L39.2698 20.7137Z" fill="#929AAB"/>
<path d="M84.5224 23.5959C84.5235 23.5869 84.524 23.5467 84.524 23.4755C84.5163 20.8426 84.5185 18.1905 84.5306 15.5192C84.5311 15.4916 84.5421 15.4653 84.5612 15.446C84.5804 15.4266 84.6063 15.4158 84.6332 15.4158L86.4722 15.4191C86.4994 15.4191 86.5255 15.4304 86.5447 15.4505C86.564 15.4705 86.5748 15.4977 86.5748 15.526V30.134C86.5748 30.1916 86.5467 30.2205 86.4904 30.2205L84.5918 30.2171C84.4937 30.2171 84.4297 30.1696 84.4 30.0746C83.5334 27.2721 82.6623 24.4487 81.7869 21.6043C81.7362 21.4403 81.691 21.3108 81.6513 21.2158C81.6006 21.096 81.5752 21.1011 81.5752 21.2311L81.5818 30.1068C81.5818 30.1361 81.5703 30.1641 81.5498 30.1848C81.5294 30.2055 81.5016 30.2171 81.4727 30.2171H79.6634C79.6296 30.2171 79.5972 30.2033 79.5733 30.1788C79.5494 30.1543 79.536 30.1211 79.536 30.0865V15.5192C79.536 15.4918 79.5466 15.4655 79.5656 15.4461C79.5845 15.4267 79.6101 15.4158 79.6369 15.4158L81.7472 15.4191C81.7947 15.4191 81.8408 15.4346 81.8789 15.4633C81.917 15.492 81.9451 15.5324 81.9589 15.5786L84.4231 23.601C84.4639 23.7345 84.497 23.7328 84.5224 23.5959Z" fill="#929AAB"/>
<path d="M21.992 21.2633L21.9953 30.1662C21.9953 30.1733 21.994 30.1803 21.9913 30.1869C21.9886 30.1935 21.9847 30.1995 21.9798 30.2045C21.9749 30.2096 21.9691 30.2136 21.9627 30.2163C21.9562 30.219 21.9494 30.2204 21.9424 30.2204L20.0074 30.2154C19.9934 30.2154 19.9799 30.2096 19.97 30.1994C19.9601 30.1893 19.9545 30.1755 19.9545 30.1611L19.9512 15.4717C19.9512 15.4573 19.9567 15.4435 19.9667 15.4333C19.9766 15.4231 19.9901 15.4174 20.0041 15.4174L22.2864 15.4191C22.2974 15.4192 22.3081 15.4229 22.317 15.4296C22.3259 15.4363 22.3326 15.4457 22.336 15.4564L24.9226 23.6213C24.9258 23.6346 24.9337 23.6461 24.9447 23.6537C24.9558 23.6612 24.9692 23.6643 24.9824 23.6621C24.9955 23.66 25.0073 23.6528 25.0156 23.6421C25.0238 23.6315 25.0278 23.618 25.0268 23.6044L25.0202 15.4717C25.0202 15.4573 25.0258 15.4435 25.0357 15.4333C25.0456 15.4231 25.0591 15.4174 25.0731 15.4174L26.937 15.4191C26.9511 15.4191 26.9645 15.4248 26.9744 15.435C26.9844 15.4452 26.9899 15.459 26.9899 15.4734L26.9916 30.1645C26.9916 30.1789 26.986 30.1927 26.9761 30.2028C26.9662 30.213 26.9527 30.2187 26.9387 30.2187L24.8962 30.217C24.8851 30.2169 24.8744 30.2132 24.8655 30.2065C24.8566 30.1999 24.85 30.1905 24.8466 30.1797L22.0962 21.2463C22.0931 21.2331 22.0852 21.2215 22.0741 21.214C22.0631 21.2064 22.0496 21.2034 22.0365 21.2056C22.0234 21.2077 22.0115 21.2148 22.0033 21.2255C21.995 21.2362 21.991 21.2497 21.992 21.2633Z" fill="#929AAB"/>
<path d="M32.1136 28.2118H34.7994C34.8332 28.2118 34.8656 28.2256 34.8895 28.2501C34.9134 28.2746 34.9268 28.3078 34.9268 28.3425L34.9334 30.0881C34.9334 30.1227 34.92 30.156 34.8961 30.1805C34.8722 30.205 34.8398 30.2187 34.806 30.2187H29.7271C29.6933 30.2187 29.6609 30.205 29.637 30.1805C29.6131 30.156 29.5997 30.1227 29.5997 30.0881L29.6097 15.5701C29.6097 15.5357 29.6228 15.5027 29.6464 15.4783C29.6699 15.4538 29.7019 15.4399 29.7353 15.4394L31.8589 15.4123C31.8757 15.4121 31.8925 15.4153 31.9081 15.4217C31.9238 15.4282 31.938 15.4378 31.95 15.4499C31.962 15.4621 31.9715 15.4766 31.978 15.4925C31.9845 15.5085 31.9879 15.5256 31.9879 15.5429L31.9862 28.0812C31.9862 28.0984 31.9895 28.1154 31.9959 28.1312C32.0023 28.1471 32.0117 28.1615 32.0235 28.1736C32.0354 28.1857 32.0494 28.1953 32.0648 28.2019C32.0803 28.2085 32.0969 28.2118 32.1136 28.2118Z" fill="#929AAB"/>
<path d="M52.9471 29.2093C52.9481 29.1924 52.9432 29.1756 52.9332 29.1621C52.9233 29.1485 52.909 29.139 52.8928 29.1353C52.8766 29.1317 52.8597 29.134 52.8451 29.142C52.8305 29.1499 52.8192 29.163 52.8131 29.1788C52.0672 31.0296 49.4624 30.6343 48.7761 28.9837C48.4155 28.1168 48.48 26.6121 48.4932 25.5535C48.5054 24.59 48.9442 23.9583 49.8097 23.6586C49.8161 23.6563 49.8217 23.6523 49.826 23.647C49.8304 23.6417 49.8332 23.6353 49.8343 23.6286C49.8353 23.6219 49.8345 23.6151 49.8319 23.6091C49.8293 23.603 49.8251 23.5978 49.8196 23.5942C49.2127 23.1531 48.9299 22.8766 48.8157 22.0809C48.6691 21.0642 48.7033 20.1357 48.9183 19.2954C49.3317 17.6753 51.3329 17.4683 52.6394 17.8178C54.2222 18.2419 54.3479 19.9333 54.2222 21.3413C54.2167 21.408 54.1814 21.4408 54.1163 21.4397L52.4741 21.438C52.445 21.438 52.417 21.4261 52.3963 21.4048C52.3755 21.3835 52.3637 21.3546 52.3632 21.3243L52.3451 20.108C52.3384 19.5889 52.0821 19.3389 51.576 19.3582L51.3494 19.3667C51.1962 19.3723 51.0505 19.4363 50.9409 19.5462C50.8314 19.656 50.7659 19.8037 50.7574 19.9604C50.7254 20.5508 50.716 21.1428 50.7292 21.7366C50.7507 22.6509 51.2932 22.7663 52.0837 22.7697C52.9867 22.7731 53.9035 22.7787 54.8341 22.7867C54.8492 22.7868 54.8642 22.7902 54.878 22.7965C54.8918 22.8029 54.9042 22.8121 54.9144 22.8235C54.9247 22.8349 54.9325 22.8484 54.9374 22.8631C54.9424 22.8778 54.9444 22.8933 54.9432 22.9088C54.9201 23.2803 54.9664 24.2999 54.6456 24.5187C54.5992 24.5492 54.5733 24.5928 54.5678 24.6493C54.3578 26.5375 54.4057 28.2508 54.4124 30.0083C54.4124 30.1508 54.3435 30.2221 54.2056 30.2221L53.1009 30.217C53.0767 30.2168 53.0528 30.2116 53.0306 30.2018C53.0084 30.192 52.9883 30.1778 52.9715 30.16C52.9547 30.1421 52.9416 30.121 52.9328 30.0979C52.9241 30.0748 52.9199 30.0501 52.9206 30.0253L52.9471 29.2093ZM52.3715 24.5526C51.705 24.4695 50.501 24.3626 50.4894 25.3856C50.4773 26.4645 50.4779 27.2409 50.4911 27.7148C50.5054 28.2407 50.748 28.5375 51.2188 28.6054C51.9917 28.7162 52.3859 28.3781 52.4013 27.5909C52.4211 26.6047 52.4382 25.6236 52.4526 24.6476C52.4531 24.6245 52.4451 24.602 52.4301 24.5845C52.4152 24.5669 52.3943 24.5556 52.3715 24.5526Z" fill="#929AAB"/>
</g>
<defs>
<clipPath id="clip0_1_971">
<rect width="86" height="19" fill="white" transform="translate(10 13)"/>
</clipPath>
</defs>
</svg>
