<svg width="105" height="45" viewBox="0 0 105 45" fill="none" xmlns="http://www.w3.org/2000/svg">
<g clip-path="url(#clip0_1_1022)">
<path d="M27.1573 22.4992C27.0655 26.8822 25.3272 27.8573 25.3272 27.8573C25.3272 27.8573 24.5133 28.8514 20.0627 28.8538H20.0556C15.6074 28.8538 14.7959 27.8573 14.7959 27.8573C14.7959 27.8573 13.0551 26.8822 12.9634 22.5015C13.0551 18.1185 14.7959 17.141 14.7959 17.141C14.7959 17.141 15.6098 16.1493 20.065 16.1493C24.5156 16.1517 25.3295 17.1458 25.3295 17.1458C25.3295 17.1458 27.0679 18.1209 27.1596 22.5015M32.1254 22.5015C31.9725 15.1552 29.058 13.5214 29.058 13.5214C29.0556 13.519 27.5243 12.0041 20.0674 12.0041H20.0697C12.6011 12.0017 11.0698 13.519 11.0698 13.519C11.0674 13.519 8.1529 15.1528 8 22.4992C8.1529 29.8455 11.0674 31.4793 11.0674 31.4793C11.0674 31.4793 12.5988 32.999 20.0674 32.999H20.065C27.5219 32.9942 29.0533 31.4793 29.0533 31.4793C29.0533 31.4793 31.9701 29.8478 32.1207 22.5015" fill="#929AAB"/>
<path d="M35.4822 32.5729H40.2786V19.3667L52.0354 32.5729H56.7495V12.301H52.0354V25.2314L40.3891 12.301H35.4822V32.5729Z" fill="#929AAB"/>
<path d="M66.0082 27.9544V12.32H61.233V27.7618V32.5872H66.0082H77.8286V27.9544H66.0082Z" fill="#929AAB"/>
<path d="M85.2784 21.1432L78.7907 12.3343H78.7272H73.3522L82.8744 25.8045V32.6181H87.6002V25.8045L96.9412 12.3343H91.5803L85.2784 21.1432Z" fill="#929AAB"/>
<path d="M96.252 28.5442C96.1649 28.461 96.1273 28.4253 95.4804 28.4253H94.8547V29.4503H95.5227C95.6874 29.4503 96.0685 29.4575 96.179 29.4075C96.2614 29.3671 96.3649 29.2601 96.3649 28.9366C96.3649 28.7202 96.3178 28.5965 96.2567 28.5442M96.3696 31.5408V30.5824C96.3696 30.0211 96.3696 30.0377 95.478 30.0377H94.857V31.5384H94.2148V27.8427H95.4945C96.3225 27.8427 97.0023 27.8783 97.0023 28.9033C97.0023 29.3504 96.913 29.6144 96.6448 29.7262C97.0517 29.8451 97.0023 30.3303 97.0023 30.6347V31.5384H96.3696V31.5408Z" fill="#929AAB"/>
</g>
<defs>
<clipPath id="clip0_1_1022">
<rect width="89" height="21" fill="white" transform="translate(8 12)"/>
</clipPath>
</defs>
</svg>
