<svg width="105" height="45" viewBox="0 0 105 45" fill="none" xmlns="http://www.w3.org/2000/svg">
<path d="M17 12.288C17 9.48682 17.461 7 20.5346 7C23.6082 7 24.0693 9.48682 24.0693 12.288C24.0693 15.0891 23.6082 17.576 20.5346 17.576C17.461 17.576 17 15.0891 17 12.288ZM21.6733 12.288C21.6733 10.1644 21.5964 9.01879 20.5346 9.01879C19.4728 9.01879 19.396 10.1644 19.396 12.288C19.396 14.4116 19.4728 15.5572 20.5346 15.5572C21.5964 15.5572 21.6733 14.4116 21.6733 12.288Z" fill="#B0B8C9"/>
<path d="M24.3487 8.88607H30.2025V10.6464H28.4212V17.2965H26.13V10.6464H24.3487V8.88607Z" fill="#B0B8C9"/>
<path d="M34.4217 12.0854V8.88607H36.7129V17.2965H34.4217V13.8457H32.9827V17.2965H30.6915V8.88607H32.9827V12.0854H34.4217Z" fill="#B0B8C9"/>
<path d="M39.8424 12.0854H42.448V13.8457H39.8424V15.5362H42.7553V17.2965H37.5512V8.88607H42.6994V10.6464H39.8424V12.0854Z" fill="#B0B8C9"/>
<path d="M45.7521 17.2965H43.4608V8.88607H46.0385C48.5812 8.88607 49.4194 10.1784 49.4194 11.7361C49.4194 13.0005 48.9654 13.713 48.2948 14.1251L49.4264 17.2965H47.0653L46.0385 14.4046H45.7521V17.2965ZM46.0385 10.6464H45.7521V12.8189H46.0385C46.9326 12.8189 47.0863 12.3439 47.0863 11.7361C47.0863 11.1214 46.9326 10.6464 46.0385 10.6464Z" fill="#B0B8C9"/>
<path d="M22.5115 37.5637H17.5239V22.538H22.3544C26.8914 22.538 27.6877 24.7908 27.6877 26.6769C27.6877 27.7771 27.1638 29.1811 25.6655 29.6003C27.7611 30.2709 28.2012 31.874 28.2012 33.0685C28.2012 35.1013 27.1534 37.5637 22.5115 37.5637ZM21.9562 34.0954H22.5115C23.5279 34.0954 23.9051 33.6658 23.9051 32.8275C23.9051 31.9893 23.5279 31.5597 22.5115 31.5597H21.9562V34.0954ZM21.9562 28.4058H22.3544C23.1821 28.4058 23.4336 27.9133 23.4336 27.2113C23.4336 26.5092 23.1821 26.0167 22.3544 26.0167H21.9562V28.4058Z" fill="#929AAB"/>
<path d="M33.5869 37.5637H29.1547V22.538H34.0061C37.4848 22.538 39.8529 23.9945 39.8529 27.8923C39.8529 30.3442 38.7108 31.4863 37.7677 32.0417L39.6748 37.5637H35.1168L33.6917 32.9218H33.5869V37.5637ZM34.0061 26.2368H33.5869V29.5479H34.0061C34.9701 29.5479 35.3787 29.0659 35.3787 27.8923C35.3787 26.7188 34.9701 26.2368 34.0061 26.2368Z" fill="#929AAB"/>
<path d="M44.8195 37.5637H40.3873L43.9603 22.538H49.4509L53.0239 37.5637H48.5917L48.1097 35.1327H45.291L44.8195 37.5637ZM47.4495 31.7588L46.7056 27.9971L45.9616 31.7588H47.4495Z" fill="#929AAB"/>
<path d="M53.7574 37.5637V22.538H58.9441L60.5053 29.6317V22.538H64.9376V37.5637H59.7509L58.1897 30.47V37.5637H53.7574Z" fill="#929AAB"/>
<path d="M77.2599 30.0508C77.2599 34.284 75.4996 37.5637 71.1721 37.5637H66.415V22.538H71.1721C75.4996 22.538 77.2599 25.8281 77.2599 30.0508ZM70.8473 26.2263V33.8754H71.1721C72.5028 33.8754 72.8067 32.2827 72.8067 30.0508C72.8067 27.819 72.5028 26.2263 71.1721 26.2263H70.8473Z" fill="#929AAB"/>
<path d="M87.7905 23.9316L84.7727 26.2787C84.6575 26.1949 84.5422 26.1215 84.406 26.0482C84.165 25.9329 83.8507 25.8072 83.442 25.8072C82.9915 25.8072 82.6666 26.0691 82.6666 26.7712C82.6666 27.4627 83.2744 27.7771 83.924 28.0914C86.7322 29.4326 88 30.69 88 33.1419C88 36.3168 86.0196 37.9828 82.7085 37.9828C80.9063 37.9828 79.6699 37.4589 78.8526 36.9245C78.3811 36.6102 77.9934 36.2539 77.6895 35.8557L80.7072 33.5086C80.8644 33.6553 81.032 33.7915 81.2206 33.9068C81.5455 34.1059 81.9855 34.2945 82.499 34.2945C83.1801 34.2945 83.5258 33.9068 83.5258 33.1419C83.5258 32.4294 83.1696 32.1779 82.3732 31.7797C79.6804 30.4909 78.1925 29.2126 78.1925 26.8759C78.1925 24.2564 79.7537 22.1189 83.2325 22.1189C84.7832 22.1189 85.9253 22.5799 86.6798 23.0305C87.1199 23.2924 87.4866 23.5963 87.7905 23.9316Z" fill="#929AAB"/>
</svg>
