<svg width="105" height="45" viewBox="0 0 105 45" fill="none" xmlns="http://www.w3.org/2000/svg">
<g clip-path="url(#clip0_1_1001)">
<path d="M30.3668 38.0348L30.8684 38.0464H31.2418C34.8934 37.942 37.9968 36.4696 40.2134 33.7797C42.3601 31.171 43.5501 27.5073 43.5501 23.4841C43.5501 19.4493 42.3601 15.7971 40.2134 13.1884C37.9851 10.4986 34.8934 9.0261 31.2418 8.92175H30.8684H30.8568H30.8218H30.7634H30.7401H30.3668V8.93335C26.7034 9.04929 23.6118 10.5218 21.3834 13.2116C19.2368 15.8203 18.0468 19.4725 18.0468 23.4957C18.0468 27.5189 19.2368 31.171 21.3834 33.7797C23.6001 36.4464 26.7034 37.9189 30.3668 38.0348ZM20.4734 23.4609C20.4734 16.2029 24.7201 11.1015 30.7984 11.0667C36.8768 11.1015 41.1234 16.2029 41.1234 23.4609C41.1234 30.7304 36.8768 35.8203 30.7984 35.8551C24.7201 35.8319 20.4734 30.7304 20.4734 23.4609Z" fill="#929AAB"/>
<path d="M76.5434 24.0522L76.9751 24.1333C81.4201 25.0261 85.6201 25.8725 85.6201 30.0348C85.6201 34.6377 80.8484 35.8551 78.0368 35.8551C74.5834 35.8551 71.7951 34.9275 70.1968 33.2348C68.9718 31.9362 68.4001 30.1971 68.5284 28.0754L68.5518 27.6928H66.1018V28.0522C66.0668 30.916 66.9068 33.2232 68.5868 34.9159C70.6284 36.9565 73.8951 38.0464 78.0368 38.0464C80.4634 38.0464 82.8668 37.3971 84.6284 36.2841C86.8684 34.858 88.0468 32.7015 88.0468 30.0464C88.0468 24.1217 82.4584 22.9855 78.3751 22.1623L77.6984 22.0232C73.3934 21.1536 69.3334 20.342 69.3334 16.4812C69.3334 12.4928 73.1951 11.0783 76.4968 11.0783C81.6768 11.0783 84.7568 13.4783 84.9318 17.6754L84.9434 18.0232H87.3701L87.3468 17.6406C87.1018 12.087 83.1351 8.89856 76.4851 8.89856C71.7134 8.89856 66.8951 11.2406 66.8951 16.4812C66.9068 22.0812 72.2501 23.171 76.5434 24.0522Z" fill="#929AAB"/>
<path d="M55.8934 37.3971L66.2767 9.53625H63.7217L54.4584 34.6261L45.2651 9.53625H42.675L53 37.3971H55.8934Z" fill="#929AAB"/>
</g>
<defs>
<clipPath id="clip0_1_1001">
<rect width="70" height="32" fill="white" transform="translate(18 6)"/>
</clipPath>
</defs>
</svg>
