<svg width="105" height="45" viewBox="0 0 105 45" fill="none" xmlns="http://www.w3.org/2000/svg">
<g clip-path="url(#clip0_1_960)">
<path d="M79.9033 32.612C80.4524 32.612 81.0022 32.6203 81.5508 32.6076C81.7397 32.6032 81.7799 32.6634 81.7782 32.8391C81.7704 33.8243 81.7715 34.8094 81.7765 35.7946C81.7782 36.1012 81.8508 36.3907 82.1693 36.5255C82.5844 36.7012 83.0056 36.4764 83.0291 36.0012C83.0716 35.1514 83.1442 34.2922 82.8922 33.4552C82.7676 33.0402 82.5151 32.7391 82.1224 32.5297C81.1128 31.991 80.0703 31.5108 79.1395 30.8351C78.4674 30.3472 78.1389 29.6986 78.1367 28.8808C78.1345 28.1349 78.1272 27.389 78.135 26.6437C78.1512 25.1347 78.8088 24.1965 80.2725 23.7678C81.8844 23.2959 83.5174 23.2915 85.1063 23.891C86.1589 24.2883 86.6885 25.111 86.7349 26.2022C86.7784 27.2315 86.7455 28.2642 86.7544 29.2952C86.7561 29.4538 86.7064 29.4958 86.5499 29.4952C85.4605 29.4892 84.3716 29.4881 83.2822 29.4958C83.1012 29.4969 83.0693 29.4311 83.0704 29.2709C83.0771 28.4057 83.0755 27.5399 83.0721 26.6746C83.071 26.4657 83.085 26.2519 82.9509 26.0646C82.8118 25.8701 82.6341 25.7486 82.3872 25.7828C82.138 25.8182 81.9682 25.9646 81.8821 26.2011C81.8637 26.2525 81.8413 26.3072 81.8413 26.3602C81.8369 27.0034 81.7821 27.6476 81.8693 28.2885C81.9447 28.8416 82.2738 29.2162 82.7553 29.4798C83.6297 29.9577 84.5186 30.4097 85.3856 30.9014C86.303 31.4213 86.7941 32.1855 86.8326 33.2192C86.8673 34.148 86.8824 35.0779 86.8198 36.0067C86.7326 37.3029 86.0052 38.1074 84.804 38.5329C83.8526 38.8699 82.8654 38.9334 81.8659 38.8809C81.1882 38.8456 80.5184 38.7599 79.8792 38.5179C78.6378 38.0483 78.0484 37.1764 78.035 35.7647C78.0255 34.789 78.0372 33.8127 78.0289 32.8369C78.0272 32.6612 78.0669 32.6021 78.2551 32.6065C78.8043 32.6198 79.3535 32.6109 79.9027 32.6109L79.9033 32.612Z" fill="#929AAB"/>
<path d="M64.0103 24.0661C64.7065 23.5993 65.4607 23.4727 66.2339 23.4539C67.0859 23.4335 67.8697 23.6346 68.4994 24.2534C68.8972 24.6446 69.0827 25.1204 69.0849 25.6651C69.091 26.9719 69.0838 28.2791 69.0905 29.5858C69.091 29.7477 69.0625 29.8069 68.881 29.8052C67.7737 29.7958 66.6658 29.7941 65.5585 29.8063C65.3529 29.8085 65.3422 29.7256 65.3434 29.5671C65.3484 28.5548 65.349 27.5421 65.3445 26.5298C65.3423 26.0188 65.1115 25.7983 64.6154 25.8127C64.2578 25.8226 64.0562 26.006 64.0159 26.3696C64.0036 26.479 64.0103 26.5901 64.0103 26.7006C64.0103 30.5936 64.0075 34.4867 64.0165 38.3804C64.017 38.6334 63.9511 38.6947 63.6997 38.6909C62.6388 38.676 61.5778 38.6804 60.5169 38.6887C60.337 38.6898 60.2632 38.6677 60.2638 38.4594C60.2705 33.5629 60.2705 28.6664 60.2638 23.77C60.2638 23.5755 60.332 23.5517 60.5001 23.5523C61.5611 23.5589 62.622 23.565 63.683 23.549C63.9444 23.5451 64.0651 23.5965 64.0115 23.8705C64.002 23.9197 64.0103 23.9722 64.0103 24.0667V24.0661Z" fill="#929AAB"/>
<path d="M71.3308 30.766C71.3308 29.1831 71.3264 27.5995 71.3359 26.0165C71.337 25.8116 71.29 25.7497 71.0777 25.7596C70.6693 25.7784 70.2587 25.7574 69.8497 25.7685C69.6883 25.7729 69.6492 25.7204 69.6509 25.5673C69.6592 24.9507 69.6598 24.3341 69.6509 23.7175C69.6481 23.5545 69.7045 23.5191 69.857 23.523C70.257 23.533 70.6576 23.5153 71.0576 23.5307C71.2682 23.539 71.3414 23.4915 71.3375 23.2644C71.3224 22.4086 71.3381 21.5522 71.3264 20.6963C71.3236 20.5007 71.3755 20.4548 71.5705 20.4565C72.6594 20.4664 73.7483 20.467 74.8371 20.4565C75.0427 20.4543 75.0763 20.5211 75.074 20.7046C75.0645 21.5698 75.0757 22.4351 75.0651 23.3003C75.0628 23.4865 75.1204 23.5335 75.2992 23.5302C75.8294 23.5202 76.3601 23.5324 76.8909 23.523C77.0473 23.5202 77.097 23.5622 77.0948 23.7208C77.0858 24.3374 77.0858 24.954 77.0948 25.5707C77.097 25.7281 77.0506 25.7707 76.8937 25.7685C76.354 25.7591 75.8137 25.7701 75.274 25.7618C75.1204 25.7596 75.0662 25.7972 75.0668 25.9591C75.0718 29.0057 75.0673 32.0523 75.0746 35.0989C75.0763 35.7365 75.4835 36.1051 76.1931 36.1426C76.4808 36.1581 76.7702 36.1554 77.0585 36.1476C77.1976 36.1437 77.2501 36.1741 77.2484 36.3266C77.24 37.0538 77.24 37.7809 77.2484 38.508C77.2501 38.661 77.1953 38.6876 77.0579 38.6859C75.9322 38.6726 74.8053 38.7191 73.6812 38.6262C73.3309 38.5975 72.9851 38.5306 72.6432 38.4439C72.0152 38.2848 71.6895 37.8682 71.5498 37.2626C71.3727 36.4946 71.3403 35.7155 71.3347 34.9343C71.3252 33.5447 71.3319 32.1545 71.3319 30.7644L71.3308 30.766Z" fill="#929AAB"/>
<path d="M89.649 16.7275C89.649 11.9222 89.6512 7.11693 89.6428 2.31164C89.6428 2.06079 89.7043 1.99559 89.9579 2.00056C90.8049 2.01769 91.6524 2.01714 92.4988 2.00056C92.7363 1.99614 92.7821 2.06189 92.7821 2.28677C92.7759 11.2531 92.7765 20.2195 92.7765 29.1858C92.7765 29.8853 92.7698 30.5854 92.781 31.2849C92.7838 31.4661 92.7335 31.513 92.5513 31.5108C91.6764 31.5014 90.801 31.497 89.9266 31.5131C89.6892 31.5175 89.6428 31.4517 89.6434 31.2268C89.6506 26.3939 89.649 21.561 89.649 16.7281V16.7275Z" fill="#929AAB"/>
<path d="M40.1505 26.0386C40.1505 25.4303 39.9275 24.9143 39.4951 24.4816C38.7956 23.7821 37.9202 23.5097 36.9559 23.4617C36.1514 23.4213 35.3759 23.5302 34.7156 24.0302C34.5105 24.1855 34.4256 24.138 34.3519 23.9302C34.3368 23.8871 34.3038 23.8501 34.2904 23.807C34.2262 23.6042 34.0993 23.544 33.8787 23.5484C33.1065 23.5655 32.3333 23.56 31.5607 23.5512C31.3858 23.549 31.3277 23.5849 31.3283 23.7727C31.3338 30.1069 31.3338 36.441 31.3283 42.7751C31.3283 42.9624 31.3852 42.9983 31.5607 42.9967C32.6222 42.989 33.6831 42.984 34.7446 42.9995C35.0027 43.0033 35.0854 42.958 35.0821 42.6795C35.0647 41.2629 35.0742 39.8451 35.0742 38.4047C35.139 38.4179 35.1681 38.4174 35.1904 38.4295C36.1486 38.9379 37.1727 39.0169 38.2196 38.8456C39.3594 38.6594 40.1482 37.7814 40.1493 36.7267C40.1533 33.164 40.151 29.6008 40.1505 26.0381V26.0386ZM36.4073 28.2775C36.4073 29.2433 36.4073 30.2091 36.4073 31.1749C36.4073 32.6927 36.4073 34.2105 36.4073 35.7282C36.4073 35.8658 36.4039 36.0006 36.3642 36.1371C36.2737 36.4482 36.0994 36.5858 35.762 36.5891C35.4122 36.5924 35.2156 36.4515 35.1201 36.1437C35.0837 36.0266 35.0754 35.9106 35.0754 35.7912C35.0754 32.728 35.0754 29.6649 35.0765 26.6017C35.0765 26.0143 35.2983 25.7762 35.8072 25.8044C36.2006 25.8265 36.3989 26.0502 36.405 26.511C36.4134 27.0995 36.4073 27.6885 36.4073 28.2769V28.2775Z" fill="#929AAB"/>
<path d="M49.7587 26.0392C49.7587 25.4309 49.5364 24.9143 49.104 24.4822C48.4045 23.7827 47.529 23.5103 46.5653 23.4617C45.7608 23.4213 44.9853 23.5302 44.3244 24.0302C44.1199 24.1849 44.0344 24.1396 43.9607 23.9308C43.9456 23.8877 43.9126 23.8506 43.8992 23.8076C43.835 23.6048 43.7082 23.544 43.4875 23.549C42.7154 23.5661 41.9422 23.5606 41.1695 23.5517C40.9952 23.5495 40.9365 23.5843 40.9365 23.7727C40.9421 30.1069 40.9421 36.441 40.9365 42.7751C40.9365 42.9613 40.9924 42.9989 41.1684 42.9972C42.2109 42.9895 43.254 42.9934 44.2965 42.9934C44.5535 42.9934 44.682 42.8707 44.682 42.6254C44.682 41.2264 44.682 39.828 44.682 38.4058C44.7462 38.419 44.7753 38.4185 44.7976 38.4301C45.7557 38.9384 46.7798 39.0174 47.8268 38.8461C48.9665 38.6599 49.7559 37.782 49.7571 36.7278C49.761 33.1651 49.7587 29.6019 49.7587 26.0392ZM46.0155 31.1743C46.0155 32.6921 46.0155 34.2099 46.0155 35.7277C46.0155 35.8653 46.0122 36.0001 45.9725 36.1366C45.882 36.4482 45.7077 36.5858 45.3708 36.5891C45.0211 36.5924 44.8239 36.4515 44.7283 36.1443C44.692 36.0277 44.6836 35.9111 44.6836 35.7918C44.6836 32.7286 44.6836 29.6654 44.6847 26.6022C44.6847 26.0149 44.9065 25.7762 45.4149 25.8044C45.8088 25.8265 46.0072 26.0497 46.0133 26.5105C46.0217 27.0989 46.0155 27.6879 46.0155 28.2764C46.0155 29.2422 46.0155 30.208 46.0155 31.1738V31.1743Z" fill="#929AAB"/>
<path d="M20.8239 26.1989C20.8244 25.548 20.5954 25.0027 20.1244 24.5496C19.3881 23.8413 18.4735 23.5937 17.4841 23.565C16.7198 23.5429 15.9823 23.6727 15.3599 24.1523C15.1728 24.2965 15.1029 24.2518 15.0303 24.0678C15.0001 23.9915 14.9448 23.9247 14.9169 23.8473C14.8677 23.7098 14.789 23.6589 14.632 23.6611C13.8314 23.6711 13.0308 23.6711 12.2307 23.6611C12.0525 23.66 12 23.7015 12 23.8855C12.005 30.1815 12.005 36.4775 12 42.7735C12 42.9564 12.0503 42.9989 12.2296 42.9978C13.309 42.9884 14.3889 42.9829 15.4683 42.9978C15.7158 43.0011 15.7493 42.921 15.7477 42.7044C15.7376 41.306 15.7426 39.907 15.7426 38.4798C16.7337 38.9959 17.7466 39.1136 18.802 38.9622C20.0356 38.7854 20.8222 37.8925 20.8222 36.6653C20.8222 33.1767 20.8205 29.6881 20.8239 26.1994V26.1989ZM17.0723 35.7945C17.0723 35.9045 17.0695 36.0161 17.0505 36.1238C16.9812 36.5239 16.7516 36.7162 16.3767 36.6963C15.9974 36.6764 15.756 36.4344 15.7465 36.0338C15.7354 35.5647 15.7432 35.0951 15.7432 34.6254C15.7432 33.5115 15.7432 32.3982 15.7432 31.2843C15.7432 29.7654 15.7432 28.2471 15.7432 26.7282C15.7432 26.5906 15.7454 26.4558 15.7901 26.3204C15.8924 26.0143 16.0812 25.8906 16.4516 25.9077C16.7907 25.9232 16.9617 26.0668 17.0349 26.3818C17.0667 26.5182 17.0734 26.6542 17.0734 26.7923C17.0734 29.7925 17.0734 32.7932 17.0723 35.7934V35.7945Z" fill="#929AAB"/>
<path d="M30.4332 32.922C30.4377 32.7286 30.3092 32.7789 30.2103 32.7789C29.1868 32.7767 28.1627 32.7778 27.1392 32.7778C26.8398 32.7778 26.69 32.9262 26.69 33.2231C26.69 34.0884 26.6962 34.9536 26.6873 35.8189C26.6811 36.399 26.2956 36.6963 25.7827 36.5377C25.5123 36.4543 25.357 36.1857 25.3559 35.7763C25.3531 34.7088 25.362 33.6408 25.3492 32.5733C25.3464 32.3424 25.3872 32.2667 25.6447 32.2689C27.1616 32.2838 28.679 32.2744 30.1958 32.2788C30.3573 32.2788 30.4383 32.2683 30.4372 32.0661C30.4277 30.2345 30.4416 28.4029 30.4282 26.5713C30.4176 25.1336 29.774 24.2076 28.4337 23.7948C26.9018 23.3235 25.3414 23.3169 23.7955 23.7479C23.0251 23.9623 22.3815 24.3827 21.982 25.1027C21.692 25.6254 21.6183 26.1972 21.6155 26.7785C21.6082 28.2421 21.6133 29.7052 21.6133 31.1688C21.6133 32.6413 21.6133 34.1143 21.6133 35.5868C21.6133 35.5962 21.6133 35.605 21.6133 35.6144C21.6278 37.0764 22.2239 38.0638 23.491 38.5003C25.1715 39.0793 26.8895 39.0655 28.5711 38.5025C29.6757 38.1328 30.3142 37.3306 30.3986 36.1504C30.4751 35.0752 30.4103 33.9977 30.4344 32.9214L30.4332 32.922ZM25.3593 26.5309C25.3648 25.9823 25.7213 25.7027 26.2241 25.816C26.5196 25.8828 26.6805 26.1226 26.6856 26.5381C26.6923 27.0807 26.6873 27.6233 26.6873 28.1659C26.6873 28.6996 26.6811 29.2328 26.6912 29.766C26.6945 29.9389 26.6576 30.0163 26.4638 30.0074C26.1576 29.993 25.8498 29.9975 25.5431 30.0058C25.3956 30.0096 25.352 29.9566 25.3526 29.814C25.3576 28.7195 25.3475 27.6249 25.3593 26.5304V26.5309Z" fill="#929AAB"/>
<path d="M59.3693 32.9153C59.3732 32.7175 59.2346 32.78 59.1402 32.7794C58.0698 32.7761 56.9993 32.7883 55.9294 32.77C55.659 32.7656 55.6177 32.8551 55.6211 33.0916C55.6339 34.0027 55.6328 34.9138 55.6227 35.8249C55.6166 36.3946 55.2506 36.6813 54.74 36.5393C54.4523 36.4592 54.2936 36.2078 54.2919 35.7979C54.288 34.7116 54.297 33.6253 54.2847 32.5396C54.2824 32.3214 54.3417 32.27 54.5584 32.2711C56.0848 32.281 57.6111 32.2739 59.1374 32.2799C59.3089 32.2805 59.3732 32.2512 59.3721 32.0606C59.3637 30.2384 59.3743 28.4156 59.3648 26.5934C59.357 25.1474 58.7391 24.2275 57.3882 23.807C55.7646 23.3014 54.1165 23.2965 52.4913 23.8335C51.7527 24.0777 51.1761 24.5413 50.8393 25.2552C50.6108 25.7392 50.5532 26.2596 50.551 26.7845C50.5454 28.2388 50.5493 29.693 50.5493 31.1473C50.5493 32.6015 50.5493 34.0928 50.5493 35.5652C50.5493 35.5746 50.5493 35.5835 50.5493 35.5929C50.5594 37.0714 51.1566 38.0649 52.4321 38.503C54.1037 39.0771 55.8121 39.0633 57.4865 38.5096C58.6162 38.1361 59.2609 37.3195 59.338 36.1167C59.4067 35.0503 59.3486 33.9823 59.3693 32.9153ZM54.2947 26.5359C54.3065 25.9861 54.6534 25.7033 55.1551 25.8154C55.4356 25.8784 55.611 26.0784 55.616 26.4497C55.6317 27.5813 55.6222 28.7128 55.6261 29.8444C55.6261 29.9643 55.5808 30.0069 55.4624 30.0052C55.1277 30.0008 54.7925 29.9975 54.4579 30.0063C54.2852 30.0107 54.2908 29.9107 54.2914 29.7925C54.2936 29.2405 54.2925 28.6885 54.2925 28.1366C54.2925 27.6028 54.2841 27.0691 54.2953 26.5359H54.2947Z" fill="#929AAB"/>
<path d="M91.2686 33.5016C89.7875 33.5016 88.5372 34.7381 88.5377 36.2028C88.5377 37.6676 89.7881 38.9036 91.2691 38.9036C92.7502 38.9036 94.0006 37.667 94 36.2023C94 34.7376 92.7497 33.501 91.2686 33.5016ZM91.2401 38.6019C89.8713 38.5687 88.7919 37.4659 88.845 36.1542C88.8997 34.7994 89.9914 33.7601 91.311 33.8054C92.677 33.8524 93.7324 34.9298 93.6938 36.2382C93.6542 37.5842 92.5647 38.6345 91.2406 38.6025L91.2401 38.6019Z" fill="#929AAB"/>
<path d="M92.7211 16.7734C92.7211 21.5505 92.7189 26.3282 92.7273 31.1053C92.7273 31.3816 92.6636 31.4666 92.3748 31.4584C91.6027 31.4368 90.8294 31.4396 90.0573 31.4573C89.7841 31.4633 89.6953 31.4042 89.6964 31.1125C89.7093 28.4338 89.7037 25.7552 89.7037 23.0766C89.7037 16.191 89.7037 9.30603 89.7037 2.42048C89.7037 2.18106 89.8236 2.06116 90.0635 2.06079C90.8266 2.06079 91.5898 2.06079 92.353 2.06079C92.5973 2.06079 92.7197 2.17811 92.72 2.41275C92.72 6.69315 92.72 10.9735 92.72 15.2534V16.7723L92.7211 16.7734Z" fill="#929AAB"/>
<path d="M92.1765 36.7736C92.1888 36.4554 92.1167 36.21 91.729 36.1051C92.1698 35.8332 92.1715 35.8305 92.172 35.3564C92.172 35.3011 92.1726 35.2459 92.172 35.1906C92.1659 34.7856 92.0256 34.621 91.6161 34.5298C91.2938 34.458 90.9669 34.5171 90.6435 34.49C90.4669 34.4751 90.4289 34.5342 90.4306 34.7022C90.4395 35.631 90.4345 36.5598 90.4345 37.4891C90.4345 38.0361 90.4345 38.0301 90.9854 38.0256C91.1407 38.0245 91.1921 37.9881 91.1882 37.8278C91.177 37.3958 91.1809 36.9631 91.1882 36.5311C91.1893 36.4559 91.1228 36.3261 91.2776 36.3167C91.4323 36.3073 91.4524 36.4255 91.4536 36.5416C91.4569 36.8449 91.4502 37.1488 91.4591 37.4521C91.4765 38.0251 91.4804 38.0245 92.0474 38.0218C92.1201 38.0218 92.1927 38.0218 92.2826 38.0218C92.1486 37.5996 92.1608 37.1847 92.1765 36.7736ZM91.4441 35.757C91.434 35.8581 91.358 35.899 91.272 35.9001C91.1602 35.9012 91.1831 35.8067 91.1815 35.7382C91.1787 35.62 91.1809 35.5017 91.1809 35.3829C91.1809 35.2829 91.1792 35.1824 91.1815 35.0823C91.1831 35.0127 91.1647 34.926 91.282 34.9304C91.3619 34.9337 91.4312 34.9602 91.4418 35.0481C91.4697 35.2835 91.4681 35.5199 91.4441 35.7559V35.757Z" fill="#929AAB"/>
</g>
<defs>
<clipPath id="clip0_1_960">
<rect width="82" height="41" fill="white" transform="translate(12 2)"/>
</clipPath>
</defs>
</svg>
