<svg width="105" height="45" viewBox="0 0 105 45" fill="none" xmlns="http://www.w3.org/2000/svg">
<g clip-path="url(#clip0_1_965)">
<path fill-rule="evenodd" clip-rule="evenodd" d="M33.0944 21.5916C33.0944 20.3154 32.678 19.4067 31.7933 18.7737C30.8254 18.0896 29.2433 17.7323 27.016 17.7323L20.9896 17.7731V18.0488H22.7174V32.0465H21V32.363H27.068V32.0465H24.9864V25.4509H26.7037C30.9711 25.4509 33.0944 24.1747 33.0944 21.5916ZM29.4827 18.7737C30.128 19.3148 30.4611 20.2235 30.4611 21.5916C30.4611 22.776 30.1384 23.6846 29.4827 24.2768C28.879 24.869 28.0048 25.1855 26.839 25.1855H24.9864V18.0488H26.329C27.859 18.0488 28.879 18.2734 29.4827 18.7737Z" fill="#929AAB"/>
<path fill-rule="evenodd" clip-rule="evenodd" d="M38.1943 20.9994C36.9454 20.9994 35.8317 21.5406 34.8117 22.633C33.75 23.8174 33.188 25.1753 33.188 26.768C33.188 28.3608 33.6564 29.6268 34.6243 30.8111C35.5923 31.9955 36.7996 32.5876 38.1943 32.5876C39.589 32.5876 40.6923 31.9546 41.7123 30.7703C42.6803 29.5859 43.1487 28.2689 43.1487 26.768C43.1487 25.1753 42.6386 23.7663 41.6186 22.633C40.5986 21.5406 39.485 20.9994 38.1943 20.9994ZM35.457 22.9087C36.0086 21.7754 36.8933 21.1832 38.1943 21.1832C39.4954 21.1832 40.328 21.7754 40.8797 22.9087C41.296 23.8174 41.525 25.0936 41.525 26.768C41.525 28.6773 41.2439 30.0862 40.786 30.9541C40.2343 31.9138 39.3913 32.363 38.1943 32.363C36.9974 32.363 36.1127 31.9036 35.6027 30.9541C35.0927 30.0862 34.8637 28.6773 34.8637 26.768C34.8637 25.0834 35.0511 23.8174 35.4674 22.9087H35.457Z" fill="#929AAB"/>
<path fill-rule="evenodd" clip-rule="evenodd" d="M62.4768 22.633C61.4568 21.5406 60.3431 20.9994 59.0525 20.9994C57.7618 20.9994 56.6898 21.5406 55.6698 22.633C54.6081 23.8174 54.0981 25.1753 54.0981 26.768C54.0981 28.3608 54.5665 29.6778 55.4928 30.8111C56.4608 31.9955 57.6265 32.5876 59.0629 32.5876C60.4055 32.5876 61.6129 31.9546 62.5808 30.7703C63.5592 29.5859 64.0172 28.2689 64.0172 26.768C64.0172 25.1753 63.5072 23.7663 62.4872 22.633H62.4768ZM55.7114 26.768C55.7114 25.0834 55.8988 23.8174 56.3567 22.9087C56.8667 21.7754 57.7931 21.1832 59.042 21.1832C60.291 21.1832 61.2174 21.7754 61.7274 22.9087C62.1437 23.8174 62.3727 25.0936 62.3727 26.768C62.3727 28.6773 62.0917 30.0862 61.6337 30.9541C61.0821 31.9138 60.239 32.363 59.042 32.363C57.8451 32.363 56.9604 31.9036 56.4504 30.9541C55.9404 30.0862 55.7114 28.6773 55.7114 26.768Z" fill="#929AAB"/>
<path fill-rule="evenodd" clip-rule="evenodd" d="M52.7451 28.9121H52.5577C52.0893 31.0459 51.0797 32.1384 49.4561 32.1384H46.8644V21.4589H48.2591V21.2751H44.6475V21.4589H45.3864V32.1384H44.6475V32.363H52.7555V28.9121H52.7451Z" fill="#929AAB"/>
<path fill-rule="evenodd" clip-rule="evenodd" d="M75.9137 8.135L75.5911 8.22688L74.9874 8.8599L72.6664 10.7691L72.198 11.1775L72.2917 11.3103H72.5727L72.6664 11.1775H72.8017L73.0307 10.861H73.166L73.3013 10.6364L73.8113 10.3199L74.7376 9.41123L75.1123 9.22745L75.487 8.76801L75.768 8.63528L76.049 8.26772H76.2364L76.3717 7.99206L76.9233 7.58366L77.2044 7.26716L77.298 7.22632C77.298 7.22632 77.3397 7.22632 77.3917 7.18548V7.09359H77.4854V6.90981L77.8601 6.72603V6.54226C77.9537 6.35848 78.1827 6.13386 78.5574 5.85819L78.7448 5.63358C78.9321 5.59274 79.1195 5.67442 79.2548 5.90924L79.5774 6.36869H79.8064L79.9001 6.23596L78.6927 4.01021H78.5054L78.2764 4.14294V4.40839L78.4637 4.54112C78.6511 4.81679 78.6927 5.13329 78.5054 5.4498H78.3701V5.54169L78.1411 5.72547V5.85819L78.0995 5.99092H78.0058L77.9121 6.03176V6.12365L77.3084 6.53205V6.71582H77.2148V6.84855L76.7984 7.21611L76.5694 7.49177H76.3821L76.1531 7.80828C76.0594 7.94101 75.9658 8.0329 75.9241 8.12478L75.9137 8.135Z" fill="#929AAB"/>
<path fill-rule="evenodd" clip-rule="evenodd" d="M69.7937 13.4135C69.5127 13.5973 69.3253 13.7811 69.2837 13.8729V14.2405L69.419 14.6489L69.2837 14.8735L69.0963 14.7816L69.138 14.2813L69.0443 14.1486C68.909 14.1895 68.8569 14.2405 68.909 14.2813L68.9506 14.4651L68.8569 14.6897L68.8153 15.0062C68.8153 15.139 68.909 15.2819 69.0963 15.4146L69.5127 15.6393L69.5543 15.823L70.0227 15.6393V15.9558L69.2837 16.5479C69.0547 16.7726 68.8673 17.0482 68.8153 17.3647V17.9569L68.399 18.2734V18.3653H68.2116V18.5491L67.7433 18.9575V19.274L67.5559 19.8151L67.6496 19.8559L68.3886 19.4884V19.5803C68.3886 19.5803 68.3886 19.6722 68.2949 19.713L67.8786 19.8049V19.9376L68.2012 20.2133H68.3886L68.4302 20.0295H68.6175L68.5759 20.2133L68.4822 20.346H68.8569L68.9506 20.5298H69.3253L69.419 20.5706L69.7 21.2955L69.7937 22.0715L70.1684 22.7555L70.262 23.4804L70.4494 23.6132L70.6367 24.43H70.772C70.8657 24.1543 70.9074 23.9705 70.8657 23.9297L70.772 23.8888L70.6784 23.3885L70.4494 23.1129L70.3557 22.4799L70.1684 22.2961L69.981 21.2547L69.8873 21.1628V20.8463H69.752L69.6584 19.9376L69.9394 19.6211V19.5803C70.1684 19.3965 70.4078 19.4475 70.5431 19.713L70.6784 20.4379V20.5298L70.6367 20.6625L70.772 20.7544V21.0301L70.8657 21.1628L71.001 22.0715L71.23 22.5718V22.7964L71.511 23.072L71.6463 23.3477L71.459 23.3885L71.178 22.9802H70.9906L70.8553 23.7969L70.8969 23.8378L70.9386 23.8786L71.0323 23.9195L71.2196 24.5525L71.4069 24.6444L71.688 25.5122L71.8753 25.696L71.969 26.329L72.1043 26.4209V27.2887L72.198 27.3296V27.5542L72.5727 27.8707L72.8953 28.7385L73.218 29.0142L73.7696 29.831L73.9986 30.0148H74.2276L74.6023 30.2394L74.9249 30.2802L75.0602 30.464H75.3413L75.4349 30.0964H75.5286L75.6639 30.2802L75.7576 31.4135C75.7992 31.9138 75.7992 32.3222 75.7576 32.5978L75.6639 32.6387V32.8633L75.4349 33.5882H75.5286C75.5702 33.9966 75.6639 34.3131 75.9449 34.5479C75.9033 34.5888 75.9449 34.6398 75.9866 34.6807C75.9866 34.7215 75.9449 34.8134 75.7992 34.9053L76.3092 35.3137V35.4975L76.4966 35.6812L76.7776 35.814L76.9129 36.1305L77.2355 36.1713L77.4645 35.8037C77.4645 35.7119 77.3709 35.4872 77.1419 35.3035L76.8609 35.0788H76.6735L76.6319 35.2626L76.4445 35.2218C76.6735 34.9461 76.6735 34.7215 76.5798 34.6296L76.4445 34.5377L76.5382 34.2621C76.6319 34.0783 76.6735 33.9864 76.6319 33.8537L76.4029 33.5372V32.5366L76.5382 32.4958V32.1792L76.6319 32.1384V31.73L76.8192 31.5054L77.0066 31.5462V31.679C77.0066 31.679 77.1002 31.679 77.1419 31.6381L77.1835 31.5462L77.2251 31.5871H77.2668C77.4958 32.1282 77.6415 32.4549 77.6415 32.5876L77.5998 33.0471L77.6415 33.1798L77.8288 33.3636C77.9225 33.5474 77.9225 33.7311 77.8704 33.9047L77.7351 34.0374L77.5998 34.0783L77.6415 33.3942L77.4541 33.3023V32.8429L77.3604 32.802V32.5774L77.0794 32.3018L77.1211 32.118L77.0794 31.9342L76.8921 31.8015L76.7568 32.2099L76.5694 32.3018V32.3426C76.6631 32.3834 76.6631 32.4753 76.7047 32.6183L76.7464 32.9858L76.84 33.0267L77.069 33.5678L77.2043 35.1095H77.4333L77.527 35.0176L77.5686 34.8849L77.7976 34.7011C77.8392 34.5684 77.9329 34.3335 77.9849 34.017C78.0266 33.6495 78.0786 33.4248 78.0266 33.2921L77.7976 32.5162V32.1486L77.5686 31.7402V31.6075L77.6102 31.4748L77.4229 30.6988H77.2355V31.0153L77.1419 31.2399L76.9545 31.2808L77.0482 30.6478L77.1835 30.6069V30.3313L77.3188 30.2904L77.5998 29.5655L77.4645 29.0244V28.9836L77.4229 28.7998L77.5582 28.2076C77.6519 27.983 77.7456 27.84 77.8392 27.7482V27.7073L77.6102 27.1662L77.5686 27.1254V27.0335C77.7039 26.9926 77.7976 26.9926 77.8496 27.0743V27.2581L78.2243 27.7584L78.5054 28.5752H79.057L79.0986 28.5343C79.286 28.4016 79.3276 28.2178 79.286 27.9421H79.1507V27.7175L78.8696 27.2581L78.828 27.0743L78.7864 26.8905L78.5574 26.6659L78.4637 26.0329H78.3284L78.2868 25.941V25.8083L77.9121 26.1758L78.3284 26.9518L78.4637 27.0845V27.401C78.2764 27.4419 78.2347 27.401 78.2764 27.3602L78.089 26.9007L77.6727 26.2677L77.4437 26.3596L77.4021 26.5434L77.5894 26.8599L77.4021 26.7272L77.3604 26.8191L77.2668 26.8599V27.544H77.0794C77.0794 27.0437 77.0794 26.768 77.0378 26.6761L76.8504 26.5434L76.5694 26.4107V26.2779L76.1947 26.0533V25.9206L76.0074 25.8798L75.9657 25.6041L75.7368 25.3795L75.6431 24.92V24.3789C75.6015 24.1543 75.4557 23.8786 75.2684 23.5621L75.1331 23.5213V23.4294V23.3375L75.4141 23.3783V23.5621L75.6015 23.6948L75.9241 23.603L76.0178 24.4197L76.3925 24.6954L76.5278 25.2365L76.7568 25.4203L76.8504 25.7879H76.9858L77.0794 25.9206H77.1211L77.35 26.2371L77.7247 26.0533C77.86 25.9614 77.9121 25.8287 77.9121 25.6449L77.8184 25.1446L77.6311 25.0528V25.4203L77.4437 25.3795V24.92C77.4437 24.92 77.4021 24.8281 77.2564 24.8281L77.35 24.6035L76.9753 24.4197L77.2043 24.0113V23.7867L77.3396 23.7459V23.1537L77.4333 23.0618L77.4749 22.9699V22.9291L77.5686 22.2042H77.7039L77.7976 22.2961L77.6623 22.9291V22.9699L77.6207 23.603L77.8496 23.7867L77.808 23.8276L77.9017 23.8684L77.9433 23.9092C78.037 23.9092 78.1307 23.8684 78.2243 23.7765L78.318 23.6846L78.4117 23.3681L78.37 23.1844L78.2764 23.0006L78.0474 22.5411L77.9537 22.2655L77.86 22.0408L77.6727 21.949L77.579 21.8162L77.6207 21.6835L77.6623 21.6427L77.6207 21.5099L77.579 21.418L77.6207 21.0096L77.4853 20.9688L77.35 21.2445C77.2564 21.2445 77.2147 21.2445 77.2564 21.2036H77.2147L77.4021 20.5706L77.3604 20.3868H77.2251C77.2251 20.3868 77.1835 20.295 77.0898 20.295V19.8355H77.0482L77.0066 19.7436L76.8192 19.7845L76.7776 20.3766L76.5902 20.3358C76.6319 20.0193 76.6319 19.8355 76.6319 19.7436C76.5902 19.5598 76.4445 19.519 76.2155 19.5598L76.0802 19.6926L75.9866 19.8253H75.7055L75.7472 19.6007C75.7472 19.6007 75.9345 19.5088 76.0698 19.468L76.5382 19.3761L76.6319 19.2433C76.6319 19.2433 76.6735 19.2025 76.6319 19.0596C76.5902 19.0187 76.5382 19.0187 76.4445 18.9677L76.2155 18.9268C76.3092 18.7022 76.3092 18.4674 76.2155 18.2428L75.2476 18.3347L74.6439 18.6512L74.4566 18.6103L74.3629 18.5184V18.4265L74.9145 18.2938L74.9561 18.2019L75.6535 17.9263H76.0282L76.3509 17.8344C76.2155 17.6098 76.1219 17.3341 76.0698 16.9665C76.0282 16.599 76.0282 16.2825 76.1115 16.017L75.7368 16.1089L75.6951 16.5173C75.4662 16.5173 75.4141 16.5173 75.4662 16.5173L75.2788 16.4254L75.0915 16.3846V16.2927L75.4662 15.9762H75.6535L75.7472 15.7516L76.2155 15.6188C76.5902 15.4351 76.6319 15.1186 76.4445 14.5264L76.3092 14.3937L76.2155 14.2609H75.9345L75.8929 14.3937L75.5702 14.4345L75.4349 14.6183H75.2476L75.4349 14.1588H75.6639L75.9866 13.9342L75.7992 13.7096L75.2892 13.5769L74.5919 13.1174C74.2692 12.9336 73.9882 12.8928 73.7592 12.8928L73.5719 13.0255V13.3931H73.3845L73.3429 13.0255C73.3012 12.9336 73.2076 12.8928 73.0202 12.8928L72.9786 13.0255H72.5623L72.4686 12.9336L72.427 12.8009L72.2916 12.7601H72.1563L72.25 12.3517L72.479 12.1679V11.9433H72.4374C72.1563 11.9433 72.0627 11.9433 72.1563 11.9841L71.74 12.2087L71.6047 12.1679L71.511 12.1271L72.4374 11.7187V11.5859H71.9274V11.4532L71.969 11.3205L71.688 11.1878L71.2196 11.1469L70.3869 11.5553V11.688L70.2516 11.7799L70.158 11.9637V12.6886L70.2516 13.2808L69.9706 13.2399L69.7833 13.4237L69.7937 13.4135ZM69.8873 13.73L70.1684 13.4543C70.1684 13.4543 70.262 13.4952 70.262 13.5871L70.5431 13.5462L70.6784 13.4543L70.772 13.5871L71.1467 13.8117L71.4278 14.1282L71.8441 14.0874L71.9378 13.7198H72.1251C72.1251 14.1282 72.1667 14.3528 72.3125 14.4957L72.5414 14.6795L72.6768 15.0879H72.7704L73.1451 14.4039L73.4261 14.312L73.4678 14.1792V13.9546L73.6551 13.9138C73.7488 13.9546 73.7488 14.0976 73.6968 14.3222L73.5614 14.7306L73.1868 14.6897C73.1451 14.9144 72.9994 15.19 72.8121 15.5576L72.4374 15.333C72.4374 15.333 72.4374 15.2411 72.2084 15.2411L72.1667 15.4657L72.0731 15.5984L71.7504 15.5576L71.3757 16.0579H71.0947L70.8657 15.8741L70.772 15.7414L71.001 15.4657L71.0947 15.0062L70.9074 15.139L70.772 15.2309C70.6784 15.4146 70.6367 15.5065 70.6784 15.5474L70.6367 15.7311H70.4494L70.3141 15.5065L70.2204 15.2309L69.8978 14.9552V14.8633H69.7624L69.6688 14.4039C69.6271 14.1792 69.6271 14.0363 69.6688 13.9036L69.7624 13.8117L69.8978 13.7198L69.8873 13.73ZM71.6463 11.8208C71.6463 11.8208 71.6047 11.8616 71.511 11.8208L71.4694 11.7289C71.5631 11.7289 71.6047 11.7697 71.6567 11.8208H71.6463ZM73.041 13.9138L72.9994 13.8729H72.9578L72.9994 13.6892C73.1347 13.6892 73.1347 13.73 73.041 13.9138ZM71.0947 13.0051C71.0947 13.0051 71.0531 12.9132 71.0947 12.7805C71.3237 12.7397 71.3757 12.8213 71.23 13.0051H71.0947ZM70.5431 12.8213L70.6367 12.6886C70.7304 12.6886 70.772 12.7294 70.7304 12.9132L70.6367 13.1889H70.5431L70.4078 13.0051L70.5431 12.8213ZM74.4774 14.7714L74.519 14.5468L75.258 14.6795L75.2996 15.0471L74.8833 15.1798V14.996L74.467 14.7714H74.4774ZM73.78 15.6393L74.061 15.6801C74.1963 15.6801 74.1964 15.7209 74.1027 15.772L73.9153 15.9558H73.78V15.6393ZM76.3717 27.8196L76.559 27.9115V28.0034L76.4653 28.4629L76.1427 28.8712C75.9553 28.9631 75.9553 28.8304 76.049 28.4629L76.3717 27.8298V27.8196ZM77.527 27.9524L77.4333 27.9932L77.2043 28.2178V28.5854L76.9233 28.6262L77.017 28.81L77.1106 28.9019L77.2043 29.443L77.298 29.4838V29.6676L77.1106 30.4844L76.8817 30.709V30.9847L76.84 31.0255L76.7984 31.0664L76.7047 30.9745L76.7464 30.8826L76.7047 30.6988L76.8921 30.1577C76.9858 29.6574 76.8921 29.1571 76.6111 28.616L77.1211 28.1566L77.2564 27.8809L77.4437 27.6971H77.4853V27.738C77.4853 27.738 77.527 27.738 77.527 27.9217V27.9524ZM74.748 16.405L74.9353 16.4458L74.748 16.5377V16.405ZM74.7896 17.3137L74.9249 17.3545L75.4766 17.2218L75.5182 17.0891C75.9345 17.0482 75.8929 17.2218 75.4245 17.6302H74.9145L74.8729 17.4975L74.7376 17.5383L74.6959 17.6302H74.4149L74.4566 17.4464L74.6439 17.2626L74.7792 17.3035L74.7896 17.3137ZM74.1859 16.5377L74.4149 16.5786L74.6023 16.4458L74.6439 16.6296L74.4566 16.6705L74.4149 16.8032L74.3733 16.8951H74.1859L73.9049 16.3948L74.1859 16.5275V16.5377ZM73.3012 16.5786L73.3429 16.3539L73.1555 16.2212L72.9682 16.1293V15.9456L73.1555 15.9864L73.2908 15.8026L73.5198 15.8435C73.4261 16.211 73.4782 16.5275 73.6135 16.844H73.8008V17.0278L73.3325 17.1197L73.1972 17.3954L72.9161 17.4362V17.62L73.0098 17.6608L73.3845 17.9365L73.8945 18.0284L73.9882 18.2121L73.7592 18.3449H73.5719L73.3845 18.7124C73.3429 18.8452 73.3845 18.9881 73.4261 18.9881H73.6551L73.7904 18.8962L73.8841 18.7635L73.9778 18.6716C74.1131 18.6716 74.1651 18.7124 74.1651 18.7635C74.2068 18.8043 74.1651 18.8554 74.0715 18.9473L73.6551 19.1719V19.6313L73.5614 19.7232L73.5198 20.1316L73.3325 20.1724L73.1451 19.9887V19.713L72.9161 19.2535L72.6351 18.0284H72.3125L72.0314 16.7521H72.1667L72.2084 16.844L72.25 16.9767L72.479 17.2014L72.9474 17.0686C73.1347 17.0278 73.2284 16.9359 73.27 16.793V16.5684L73.3012 16.5786ZM72.5623 16.211L72.7496 16.3437L72.708 16.5275H72.5206L72.5623 16.211ZM70.5743 15.9864C70.7096 16.1191 70.668 16.211 70.5327 16.211L70.1163 16.1191L70.158 15.9353L70.5743 15.9762V15.9864ZM70.8553 17.1197V17.4362L70.7616 17.62H70.5743L70.439 17.4362C70.439 17.4362 70.3453 17.4362 70.3974 17.3954L70.3557 17.2116L70.5847 16.987L70.8657 17.1197H70.8553ZM71.459 17.3035C71.459 17.3035 71.459 17.3954 71.4174 17.3954L71.3757 17.2116L71.4694 17.3035H71.459ZM71.178 18.253C71.178 18.253 71.2196 18.253 71.2196 18.2938C71.2196 18.2938 71.2196 18.3245 71.2196 18.3857C71.2196 18.4776 71.178 18.5695 71.0843 18.5695C70.8969 18.7022 70.8969 18.5695 71.178 18.253ZM70.439 19.1208L70.6263 18.8962C70.8553 18.8043 70.8137 18.8962 70.5847 19.3046C70.4494 19.3046 70.3973 19.2638 70.4494 19.1208H70.439ZM71.5943 18.7533V18.5695C71.7816 18.253 71.8753 18.0284 71.9169 17.8446H72.1043L71.969 18.3449L71.8753 18.4368V18.6614L71.459 19.2535C71.2716 19.0289 71.2716 18.937 71.4174 18.9779L71.6047 18.7533H71.5943ZM71.0843 19.4782L70.9906 19.6109C70.8553 19.6517 70.8033 19.6517 70.8033 19.5701L70.8969 19.3863C71.0323 19.3454 71.0843 19.3863 71.0843 19.4782ZM73.1659 21.0709V21.0301L73.2076 20.9892L73.4366 21.173V21.4487C73.3012 21.4487 73.2492 21.4487 73.3429 21.4078L73.1555 21.0913L73.1659 21.0709ZM73.5823 20.5298L73.8112 20.8463V21.1628L73.9049 21.2036L73.9986 21.2955V21.6631L74.4149 21.8877C74.4149 21.8877 74.4149 21.9285 74.6023 22.0204C74.6959 21.8366 74.6439 21.7958 74.5086 21.8366L74.467 21.6529V21.4691L74.6023 21.3772C74.5086 21.2853 74.5606 21.2853 74.6959 21.3772L74.7896 21.8366L75.8096 23.1129V23.2967L75.6743 23.3375L75.539 23.1537L75.3517 23.1129C75.258 23.1129 75.2164 23.1129 75.1643 23.072V22.7045H75.1227L74.748 22.2961L74.2796 22.1123C74.0923 22.0204 73.957 21.9285 73.8633 21.8366L73.8217 21.612L73.78 21.3874L73.6447 21.2955V21.0199L73.4157 20.7442V20.5196H73.6031L73.5823 20.5298ZM73.7696 22.3063V22.0817H73.9049L74.2276 22.4901V23.0823C74.2276 23.3988 74.1859 23.5417 74.0923 23.5825H73.9049V23.3069L74.0402 23.266C74.1339 23.0414 74.1339 22.7657 73.9986 22.5411L73.7696 22.3165V22.3063ZM70.1059 18.304C70.1059 18.304 70.0643 18.304 70.0643 18.1713L70.158 17.9467H70.1996V18.1305C70.1996 18.2224 70.158 18.2632 70.1059 18.3142V18.304ZM69.6376 18.2632L69.7312 18.304L69.8665 19.1208H70.0955V19.3046L69.7729 19.3454L69.7312 19.2535L69.6376 19.1208L69.5022 18.2121C69.5022 18.2121 69.5959 18.253 69.6376 18.253V18.2632ZM69.0339 18.2224V18.0896C69.0339 18.0896 69.1276 18.0896 69.1276 18.1305C69.1276 18.1713 69.0859 18.2224 69.0339 18.2224ZM69.2629 17.7221V17.8548H69.0755L69.1171 17.671C69.2108 17.671 69.2524 17.671 69.2524 17.7119L69.2629 17.7221ZM69.3982 18.8145V18.9983L69.6271 19.3148V19.5394L69.3461 19.7232L69.1171 19.9478V20.0397C69.1171 20.0397 69.1171 20.1316 69.0755 20.1724H68.8465C69.1692 19.764 69.3149 19.2229 69.2629 18.5389L69.3982 18.5797V18.8043V18.8145ZM74.9145 23.409L74.6855 23.5927V23.7765L74.5919 23.8174L74.4982 24.042C74.4566 24.1747 74.2692 24.2666 73.9882 24.4095L73.8945 24.5014H73.7072L73.6655 24.4095L73.8008 24.2768L73.8945 24.1849H74.0819C74.3108 24.0011 74.5502 23.6438 74.8208 23.0006H74.9145V23.409ZM73.4782 25.0425L73.2908 25.2672C73.0098 25.2263 72.9682 25.1753 73.1035 25.0834L73.3325 24.8077C73.4678 24.8486 73.5614 24.9404 73.4678 25.0323L73.4782 25.0425ZM74.9561 25.1753L75.1435 24.9507L75.2788 24.9915L75.2372 25.6245C75.2372 25.9002 75.1955 26.1248 75.1435 26.2167H75.0498L74.7272 26.5332H74.4982L74.5919 26.3494L74.7272 26.2575L74.9145 25.8491L74.9561 25.1651V25.1753ZM71.7088 23.9909V24.1237L71.9378 24.2564V24.6239H71.8025L71.7088 24.3993L71.4798 23.899H71.6672L71.7088 23.9909ZM73.0098 25.5326L72.9161 25.7572L72.7808 25.941C72.6455 25.941 72.5935 25.8491 72.6872 25.7164L72.9682 25.4407C73.0619 25.3999 73.0619 25.4407 73.0098 25.5326ZM72.5935 26.9007C72.5935 26.9007 72.4998 26.9926 72.4582 26.9416L72.4165 26.7578C72.5102 26.7986 72.6039 26.7986 72.6039 26.8905L72.5935 26.9007ZM72.5935 27.3602C72.5935 27.4521 72.5519 27.4521 72.4582 27.4521L72.4165 27.2275H72.5519L72.5935 27.3602ZM72.5519 26.4515H72.4165L72.4582 26.135C72.6455 26.2269 72.6872 26.3596 72.5519 26.4515ZM76.0282 27.1764V27.3602L75.7992 27.5848V28.2689L75.5702 28.7691H75.4349C75.4349 28.4526 75.4349 28.2689 75.4766 28.2689L75.5702 28.177L75.6639 28.1361V27.4112L75.7992 27.1356L76.0282 27.1764ZM74.2172 27.2172C74.1235 27.6256 74.0819 27.8503 74.0298 27.9421C73.8425 27.8094 73.8008 27.7584 73.8425 27.7584L73.9778 27.2172H74.2068H74.2172ZM73.6135 28.4016L73.4261 28.2689V28.0442L73.6551 28.1361L73.7904 28.228L73.8321 28.4526V28.6773H73.8737L74.061 29.0857L74.3421 29.494L74.6231 29.6268C74.5815 29.1265 74.7168 28.8508 75.0915 28.81L75.2268 28.8508C75.2892 28.8781 75.3031 28.8917 75.2684 28.8917L75.1747 28.9836L75.1331 29.0754L74.9041 29.1673C74.9041 29.1673 74.8104 29.3001 74.8104 29.443L74.9041 29.9433L74.6751 29.9024L74.4461 29.8616L74.3525 29.6778H74.1651V29.494L73.6551 29.0346V28.7589L73.6135 28.3914V28.4016ZM75.5182 29.0857L75.7055 29.1775L75.5702 29.8616C75.6639 29.9024 75.5702 29.9024 75.4349 29.9535V29.2286C75.4349 29.2286 75.5286 29.1367 75.5286 29.0959L75.5182 29.0857Z" fill="#929AAB"/>
<path fill-rule="evenodd" clip-rule="evenodd" d="M72.1148 14.4957L71.9795 14.5468V14.9143L72.1148 14.996L72.4375 14.9552L72.1148 14.4957Z" fill="#929AAB"/>
<path fill-rule="evenodd" clip-rule="evenodd" d="M83.6575 22.7249H83.4702C82.9602 22.3573 82.5855 22.1838 82.2212 22.2246C82.0338 22.2246 81.9402 22.2655 81.8985 22.3165V22.4084L81.8569 22.5411H81.9506V22.7657H81.7632C81.6695 22.6739 81.6695 22.633 81.7632 22.6739V22.5411L81.5342 22.5003C81.5342 22.5003 81.4406 22.5003 81.3989 22.6841L81.7736 23.0006H81.961L82.0026 22.9087L82.1379 22.8168L82.2316 22.9495L82.4606 22.9904V23.1231L83.0122 23.2558L83.2412 23.4804C83.4702 23.4804 83.6159 23.4396 83.6575 23.2558V22.7147V22.7249ZM82.5022 22.3573L82.5959 22.4492L82.9706 22.7249L83.1579 22.8168H83.1995L83.2932 22.9087H83.3349L83.3765 23.0925H83.2828L83.2412 23.0516L83.1475 23.0108L82.7728 22.7862H82.3981L82.2628 22.6024V22.3778H82.4918L82.5022 22.3573Z" fill="#929AAB"/>
<path fill-rule="evenodd" clip-rule="evenodd" d="M78.2764 22.0511L78.1411 22.1429L78.3285 22.2757C78.4638 22.4594 78.5158 22.776 78.5574 23.1843V23.409C78.5574 23.6846 78.5158 23.9501 78.4638 24.1849L78.6927 24.093C78.6927 24.093 78.8281 24.0522 78.8281 24.0011C78.8697 23.9603 78.9217 23.7765 78.8697 23.46L78.8281 22.827L78.6927 22.7351L78.5991 22.4594L78.2764 22.0511Z" fill="#929AAB"/>
<path fill-rule="evenodd" clip-rule="evenodd" d="M78.7448 22.0511V22.2757L79.0258 22.8168C79.1611 23.0414 79.2132 23.2252 79.2132 23.409C79.2132 23.6336 79.1715 23.8684 79.0258 24.093L78.6095 24.4606L78.7032 24.7362L78.8385 24.9609L78.7968 25.0936V25.2774L78.9322 25.4101L78.8385 25.7266L78.6095 25.9104V26.2779L78.7968 26.3188L78.9322 26.7782L79.1611 26.962V27.1866L79.2548 27.2275L79.3901 27.6869H79.6191L79.8064 26.5536L79.9418 26.5128C79.9418 27.0539 79.9418 27.4214 79.8481 27.6052L79.8064 27.8298L79.5775 28.0136V28.1974H79.8064V28.0647C79.9417 28.0647 79.9938 28.1566 79.9418 28.2893L79.9001 28.8304C79.9418 28.9223 80.1291 29.1061 80.4518 29.3307V29.4634C80.4518 29.4634 80.3581 29.4226 80.4101 29.5043L80.3685 29.5451L80.4101 29.6778H80.5038L80.6911 30.0454C80.7848 30.321 80.7328 30.9132 80.6495 31.73L80.5142 31.7708L80.4726 32.4039C80.4726 32.6795 80.4726 32.9041 80.5142 33.0369C80.5142 33.0777 80.6079 33.1696 80.7016 33.1696L80.9826 33.2615V33.4861L80.5142 33.6699V34.5377C80.5142 34.8542 80.4726 35.1299 80.4205 35.3545L80.1915 35.6302C80.1499 35.814 80.1499 35.9977 80.2332 36.1713L80.3269 36.5797L80.2852 36.7635L80.2436 36.8554L80.2852 37.2638H80.4726L80.5142 37.3965H80.7952L80.9826 37.2127L80.7016 36.8043V36.5797L80.7432 36.4878V36.3551L80.7848 35.8548L80.9201 35.814V34.7725L81.0554 34.6807V34.0885L81.1491 34.0476L81.2844 32.9144L81.5654 32.6387V32.2711L81.1491 32.363V32.1384L80.9201 31.8219V30.7805H80.9618L81.0554 30.7396L81.0971 30.7805L81.1387 30.8724C81.1387 31.2808 81.1387 31.5564 81.1803 31.7402L81.3677 31.8321C81.503 31.5564 81.5967 31.148 81.6487 30.6069L81.784 29.2388L81.9193 29.198V28.6977L82.1483 28.422L82.4293 27.3296V27.2887L82.3877 27.1968L82.6167 26.8803C82.7103 26.5128 82.6583 26.1044 82.575 25.6041C82.4397 25.1446 82.346 24.8281 82.2003 24.6035L81.6903 24.0113L81.5967 23.7357L81.045 23.3273V23.1435L81.4613 23.1843V22.8168L81.2324 22.7249H80.9513C80.9513 22.7249 80.9097 22.8168 80.8577 22.8168V22.9495H80.6703C80.4413 22.6739 80.254 22.4901 80.1187 22.4084L79.1924 22.2246L78.724 22.0408L78.7448 22.0511ZM79.9522 26.0023C79.9522 26.0023 79.9522 26.135 79.8585 26.2269L79.6711 25.9512L79.7128 25.0425L79.9418 25.0834L80.0354 25.4918L80.5038 25.9512L80.4622 26.135C80.5558 26.135 80.5558 26.1758 80.4622 26.3188C80.2748 26.3188 80.2332 26.2779 80.2748 26.2779H80.2332L80.0458 25.8185L79.9522 26.0023ZM80.4622 26.8701C80.5038 26.962 80.4622 26.962 80.3269 26.8701L80.2852 26.4617H80.3789L80.4205 26.3698L80.5142 26.4617L80.4726 26.8701H80.4622ZM80.2748 27.0028C80.2748 27.0028 80.3685 27.0437 80.3685 27.0947L80.4101 27.3193H80.1811C80.1811 27.1866 80.1811 27.1356 80.2228 27.1356L80.2644 27.0028H80.2748ZM80.9722 29.1877C81.2948 29.1877 81.2532 29.3205 80.8785 29.5961H80.6495C80.6495 29.5961 80.6495 29.5043 80.5558 29.5043L80.6495 29.2796H80.9305L80.9722 29.1877Z" fill="#929AAB"/>
<path fill-rule="evenodd" clip-rule="evenodd" d="M77.8601 24.2258V24.042L77.6311 23.9092L77.5791 24.093L77.5375 24.4095L77.6728 24.4606L77.7248 24.726L77.7665 24.9609L77.9954 25.0936L78.0891 25.3693L78.1412 25.6858L78.2348 25.6347H78.2765V25.2774L78.1412 24.7771L77.9538 24.2768L77.8601 24.2258Z" fill="#929AAB"/>
<path fill-rule="evenodd" clip-rule="evenodd" d="M76.1947 25.7266L76.7984 26.2677H77.0274V26.0431L76.7984 25.9104L76.7047 25.8695L76.4757 25.4101L75.9657 24.6341C75.9657 24.6341 75.8721 24.726 75.8721 24.8179C75.8721 24.9507 75.9137 25.0017 75.9657 24.9507V25.2672L76.1947 25.4918V25.7164V25.7266Z" fill="#929AAB"/>
<path fill-rule="evenodd" clip-rule="evenodd" d="M78.5054 24.6341H78.3701C78.3701 24.6341 78.2765 24.726 78.3701 25.0017L78.5054 25.5428C78.5054 25.5428 78.5991 25.4509 78.5471 25.2263L78.5054 24.6341Z" fill="#929AAB"/>
<path fill-rule="evenodd" clip-rule="evenodd" d="M78.599 29.0448L78.5054 29.1775L78.6927 30.27L78.7864 30.3108L78.7448 30.5355L78.8384 30.7601L78.9321 30.9847L79.2131 31.0766L79.5878 30.6171V30.3925L79.7231 30.3006L79.9105 29.7085C79.9521 29.5757 79.9105 29.4328 79.8688 29.3409L79.7335 29.0652L79.6919 28.4731H79.5982L79.3172 28.6977L79.3588 28.6568L79.5878 29.0244L79.4942 29.2082L79.1195 28.8917H78.7448C78.7448 28.8917 78.6511 28.9836 78.6095 29.0244L78.599 29.0448Z" fill="#929AAB"/>
<path fill-rule="evenodd" clip-rule="evenodd" d="M77.9954 28.1361C77.9017 28.3608 77.808 28.6364 77.7664 28.861C77.7248 28.861 77.6727 28.861 77.6727 28.9019V29.0346H77.9954C77.9537 28.81 78.037 28.5752 78.1827 28.3505L77.9954 28.1259V28.1361Z" fill="#929AAB"/>
<path fill-rule="evenodd" clip-rule="evenodd" d="M71.1884 25.0017L71.0947 24.726L71.001 24.8179V25.0936L70.8657 25.1855C70.8657 25.2774 70.9073 25.4101 70.9594 25.553L71.0531 25.9206L70.772 26.329C70.7304 26.4209 70.772 26.6455 70.8657 26.962C70.9073 27.2377 71.001 27.4214 71.0531 27.4214C71.0531 27.4214 71.0531 27.4351 71.0531 27.4623L71.0114 27.5542L71.1988 27.7379L71.2924 28.2791L71.6151 28.6466V28.7794L71.6567 28.9121L71.8857 29.0448V29.2286H71.8441L71.6567 29.1878H71.6151L71.4278 28.8712V29.5043L71.2924 29.5961L71.1988 30.1373L71.1051 30.9541L71.0114 31.0868L70.8761 31.9546L70.5535 32.5468C70.5535 32.5468 70.5535 32.6795 70.5951 32.8225L70.5535 33.6903L70.6471 33.7311L70.6055 34.3642L71.3029 34.4969L71.5318 33.8128V32.8531C71.4382 32.8531 71.4382 32.7612 71.5318 32.5774L71.5735 32.3936L71.6151 32.2099L71.7504 32.169V32.0363L72.302 31.6279L72.4894 31.3522H72.6767L73.3221 30.7192L73.4157 30.3108L73.551 30.2189L73.6447 30.0862V29.9024L73.4574 29.9433L73.4157 30.1679L73.2284 30.2598L73.041 30.3006V30.1168L73.2284 29.9841C73.3637 29.8922 73.3637 29.7595 73.3221 29.5757L72.9057 29.2082L72.812 28.8406L72.3437 28.3403V28.1157L72.0627 27.6563L71.7816 27.6971C71.7816 27.6971 71.6463 27.6971 71.5943 27.6563L71.459 27.4317L71.4173 27.156L71.0427 26.9314L71.001 26.6557L71.23 26.6965L71.3653 26.5128C71.2716 26.5128 71.23 26.5128 71.23 26.4719V26.3392L71.511 26.4719C71.6047 26.7476 71.6463 26.9722 71.6984 27.0641L71.8337 27.1968C71.8961 27.2241 71.9274 27.2104 71.9274 27.156V26.8395L71.8337 26.7476L71.6984 25.9308L71.6047 25.89L71.1884 24.9813V25.0017ZM72.2084 28.4118C72.021 28.4118 71.9274 28.371 72.0731 28.2791L71.9794 28.1872V28.0034L72.2084 28.1361V28.4118ZM72.531 30.4129L72.4894 30.0454H72.7184L72.76 30.5048L72.5727 30.6886H72.479V30.5048C72.479 30.5967 72.479 30.5457 72.5206 30.4129H72.531ZM71.001 32.1895L71.282 32.3732V32.5978L70.9073 32.4651L71.001 32.1895ZM71.0947 33.2309L71.282 33.3636C71.3237 33.5474 71.3237 33.6801 71.282 33.8639L71.0947 34.1804L70.8657 34.1395C71.001 33.9149 71.0947 33.5984 71.0947 33.2309Z" fill="#929AAB"/>
<path fill-rule="evenodd" clip-rule="evenodd" d="M70.5847 34.7725L70.6784 34.9053L70.8657 35.7731C70.9074 36.0488 70.9594 36.1815 71.0531 36.2326V36.2734L71.0115 36.3653L71.1051 36.4572L71.1988 37.4067L71.6672 37.274C71.8545 37.7334 72.0419 37.958 72.2188 37.9989H72.5935L72.6872 38.2745H72.7809L72.9162 38.4583L73.1035 38.4991L73.3845 38.54C73.4782 38.1724 73.4782 37.907 73.4262 37.7232L73.3325 37.6824C73.4262 37.6415 73.3741 37.5905 73.2909 37.5905C73.166 37.5905 73.1347 37.6041 73.1972 37.6313L73.0098 37.7232L72.9162 37.907C72.9162 37.907 72.9162 37.9478 72.6872 37.9989L72.7288 37.8661L72.8225 37.6824L73.0098 37.6415V37.3659L72.9682 37.1821H72.7392V37.2229L72.3645 37.4067L72.1772 37.0902L71.9482 36.9064L71.9066 36.5389L71.6255 36.4061V36.2223L71.4902 36.0896L71.3966 34.9053L70.6576 34.6807C70.6576 34.6807 70.6159 34.7215 70.6159 34.7725H70.5847Z" fill="#929AAB"/>
<path fill-rule="evenodd" clip-rule="evenodd" d="M75.9554 38.734V38.9178L76.4238 39.1015V39.2853L75.8201 39.1526L75.8617 39.2853L75.7681 39.3261L75.7264 40.0102L76.7881 39.3261C76.7464 39.0096 76.6944 38.734 76.6007 38.4583L77.0171 38.0908C77.0587 37.9989 77.0587 37.8151 77.0171 37.6313V37.1719L77.1107 37.08L77.0691 36.8962L77.2044 36.8554L77.246 36.5797L76.7777 36.2121L76.403 37.2535H76.3093L76.2156 37.6619H76.174L76.2156 37.9376L76.3093 38.0703C76.3093 38.2541 76.2677 38.3868 76.174 38.4787L75.945 38.7033L75.9554 38.734Z" fill="#929AAB"/>
<path fill-rule="evenodd" clip-rule="evenodd" d="M77.9537 34.9155L77.7664 34.9972V35.3239L77.9953 35.4158V35.6404L78.1827 35.7323L78.2347 35.232L77.9537 34.9155Z" fill="#929AAB"/>
<path fill-rule="evenodd" clip-rule="evenodd" d="M77.6311 35.4974V35.5893L77.6727 35.865V35.9569L77.4437 36.5491L77.7664 36.4572L77.8601 36.3244L77.9954 36.1917V36.059L77.9537 35.8752L77.8601 35.8344L77.8184 35.7425V35.6098C77.8184 35.6098 77.7768 35.5179 77.6831 35.5179H77.6415L77.6311 35.4974Z" fill="#929AAB"/>
<path fill-rule="evenodd" clip-rule="evenodd" d="M80.7848 37.8661V37.5496L80.2331 37.4577C80.0978 37.8253 80.0978 37.9989 80.1915 38.0499C80.2331 38.0908 80.4725 38.0499 80.7952 37.8661H80.7848Z" fill="#929AAB"/>
</g>
<defs>
<clipPath id="clip0_1_965">
<rect width="63" height="36" fill="white" transform="translate(21 4)"/>
</clipPath>
</defs>
</svg>
