<svg width="105" height="45" viewBox="0 0 105 45" fill="none" xmlns="http://www.w3.org/2000/svg">
<path fill-rule="evenodd" clip-rule="evenodd" d="M8 15.2261L9.35939 16.7032V27.5228L8.35298 28.938L14.5184 28.9473L13.4067 27.6436L13.2921 23.748L19.2346 23.779C21.0368 23.1999 22.8886 21.9643 22.9784 19.4715C22.9505 17.0531 21.4208 15.5017 19.6433 15.1951L8.0031 15.2261H8ZM13.0691 15.9166V22.8655L17.6305 22.8964C18.6679 22.0882 19.4544 21.472 19.4234 19.5304C19.408 17.948 19.0642 16.57 17.5376 15.9135H13.0722L13.0691 15.9166Z" fill="#929AAB"/>
<path fill-rule="evenodd" clip-rule="evenodd" d="M25.8304 15.1455L27.1899 16.6226V27.4391L26.1835 28.8543L32.3489 28.8636L31.2372 27.5599L31.1226 23.6643H31.1474L37.514 28.9069L42.8 28.8667L37.9754 24.841H33.9498L32.5316 23.6736L37.0681 23.6984C38.8704 23.1193 40.7222 21.8838 40.812 19.391C40.7841 16.9725 39.2544 15.4211 37.4769 15.1145L25.8366 15.1455H25.8304ZM30.8997 15.836V22.7849L35.461 22.8159C36.4984 22.0076 37.2849 21.3914 37.254 19.4498C37.2385 17.8705 36.8947 16.4894 35.3681 15.8329H30.9028L30.8997 15.836Z" fill="#929AAB"/>
<path fill-rule="evenodd" clip-rule="evenodd" d="M47.8846 15.13H53.1984L60.1163 27.5196C60.4166 28.4764 61.3116 28.3588 61.9092 28.7768H55.2112L56.2176 28.4733L56.1557 27.5505L54.4247 24.8782L48.5442 24.9091L47.2869 27.4886C47.2467 27.7828 46.9216 28.0058 47.16 28.3681L47.6307 28.8078L44.7384 28.7458L45.9957 28.3681L50.7428 18.7128V18.0532L48.7361 15.4706L47.8815 15.13H47.8846ZM48.9158 24.0297L51.359 19.5674L53.9014 24.0049L48.9158 24.0297Z" fill="#929AAB"/>
<path fill-rule="evenodd" clip-rule="evenodd" d="M83.8241 15.158H89.138L96.0558 27.5476C96.3562 28.5045 97.2511 28.3868 97.8488 28.8049H91.1508L92.1572 28.5014L92.0952 27.5786L90.3643 24.9062L84.4838 24.9372L83.2265 27.5167C83.1831 27.8109 82.8611 28.0338 83.0996 28.3961L83.5702 28.8358L80.678 28.7739L81.9352 28.3961L86.6823 18.7408V18.0812L84.6757 15.4986L83.821 15.1549L83.8241 15.158ZM84.8553 24.0577L87.2985 19.5955L89.8409 24.033L84.8553 24.0577Z" fill="#929AAB"/>
<path fill-rule="evenodd" clip-rule="evenodd" d="M63.7488 15.0031L73.2183 15.0527C76.2684 15.7401 78.207 17.5392 78.8077 20.6761L78.7829 23.1225C78.2286 25.9156 76.4047 27.8448 73.1935 28.8203L63.6992 28.845V28.5478C65.1422 28.4425 65.2568 28.2846 65.2599 27.4578V16.313C65.2445 15.703 65.1175 15.3221 63.724 15.2787L63.7488 15V15.0031ZM69.1307 15.9569L69.1214 28.0152C70.3694 28.0183 71.4532 28.1328 72.0663 27.8324C73.4536 27.2224 74.0977 26.2841 74.1566 25.4016L74.1225 18.2824C74.1225 17.1429 72.8405 16.3378 72.1035 16.1303C71.574 15.9414 70.5211 15.9321 69.1338 15.96L69.1307 15.9569Z" fill="#929AAB"/>
</svg>
