<svg width="105" height="45" viewBox="0 0 105 45" fill="none" xmlns="http://www.w3.org/2000/svg">
<path fill-rule="evenodd" clip-rule="evenodd" d="M55.5323 5.57685C55.3172 5.60895 55.1086 6.40497 54.6913 6.82223C54.3864 7.12074 54.0045 7.10469 53.8023 7.47381C53.7252 7.61183 53.7509 7.84935 53.6642 8.07403C53.4941 8.5266 52.8939 8.56833 52.8939 9.05942C52.8939 9.59224 53.3946 9.69495 53.8311 10.0737C54.1714 10.3786 54.2035 10.5873 54.6143 10.7349C54.9642 10.8537 55.4874 10.4621 55.9592 10.6033C56.3444 10.7189 56.7167 10.8023 56.8034 11.1971C56.8804 11.563 56.797 12.1311 56.3283 12.0637C56.1711 12.0445 55.4842 11.8166 54.6432 11.9032C53.6257 12.0188 52.4702 12.3494 52.3547 13.4824C52.2937 14.1148 53.0737 14.8626 53.8311 14.7086C54.3543 14.6058 54.1072 13.9896 54.3896 13.6911C54.762 13.3059 56.8772 15.0295 58.8415 15.0295C59.6697 15.0295 60.2859 14.8209 60.8958 14.179C60.9536 14.1308 61.0209 14.0249 61.1108 14.0185C61.1943 14.0249 61.3387 14.1083 61.3868 14.1404C62.9692 15.4115 64.1665 17.9632 69.9825 17.9921C70.801 17.9985 71.7319 18.3869 72.4926 19.0802C73.1698 19.7093 73.5678 20.6851 73.953 21.6737C74.5371 23.1598 75.5771 24.6042 77.1595 26.2123C77.2462 26.2989 78.5493 27.31 78.652 27.387C78.6681 27.3967 78.7644 27.6278 78.7323 27.7529C78.6938 28.7191 78.5525 31.5212 80.6453 31.6496C81.1556 31.6752 81.024 31.3157 81.024 31.0686C81.024 30.5807 80.9342 30.0928 81.191 29.5953C81.544 28.9084 80.4431 28.5907 80.4752 27.1046C80.4977 25.9972 79.5668 26.1834 79.095 25.3392C78.8222 24.8481 78.5814 24.5913 78.5975 23.9911C78.7034 20.6209 77.8817 18.4094 77.4709 17.8637C77.1499 17.4529 76.8867 17.2924 77.1788 17.0998C78.9249 15.9475 79.3197 14.8755 79.3197 14.8755C80.2473 12.6928 81.0818 10.7028 82.2341 9.82334C82.4652 9.64359 83.059 9.19744 83.4249 9.02411C84.5002 8.51697 85.0651 8.21205 85.3765 7.90712C85.8676 7.42566 86.2591 6.42422 85.7873 5.81437C85.1999 5.06329 84.1824 5.66031 83.7331 5.92671C80.5266 7.83009 80.0515 11.1907 78.9409 13.1165C78.055 14.6572 76.6139 15.7902 75.3235 15.8833C74.3574 15.9539 73.3175 15.7581 72.2807 15.3056C69.7579 14.1982 68.3777 12.7731 68.0535 12.5195C67.3762 11.9963 62.1155 6.83186 57.853 6.62323C57.853 6.62323 57.3233 5.56401 57.1917 5.54475C56.8804 5.50624 56.5626 6.17707 56.3315 6.25411C56.1165 6.32472 55.7538 5.5255 55.5387 5.5608L55.5323 5.57685Z" fill="#929AAB"/>
<path fill-rule="evenodd" clip-rule="evenodd" d="M36.7714 36.3969C36.3702 36.3872 36.0299 36.0566 36.0299 35.6522V22.3575H31.6487V37.0099C31.6487 37.7289 32.2296 38.3131 32.9454 38.3131H40.6038C41.3228 38.3131 41.8974 37.7289 41.8974 37.0099V22.3575H37.5193V35.6522C37.5161 36.0598 37.1758 36.3872 36.7714 36.3969Z" fill="#929AAB"/>
<path fill-rule="evenodd" clip-rule="evenodd" d="M51.44 22.3575H44.8087C44.0223 22.3575 43.3835 22.9962 43.3835 23.789V38.3163H47.7681V24.9894C47.7681 24.5818 48.1019 24.2576 48.5095 24.2576C48.9171 24.2576 49.2478 24.5722 49.2574 24.9766V38.3131H53.6258V24.9766C53.6322 24.5722 53.9596 24.2576 54.3673 24.2576C54.7749 24.2576 55.1087 24.5818 55.1087 24.9894V38.3163H59.4965V23.789C59.4965 22.9962 58.8545 22.3575 58.0713 22.3575H51.44Z" fill="#929AAB"/>
<path fill-rule="evenodd" clip-rule="evenodd" d="M28.7279 34.304H24.3017V38.3129H19.9236V22.3541H28.7568C29.5464 22.3541 30.1659 22.9961 30.1659 23.7921V32.866C30.1659 33.662 29.5239 34.304 28.7311 34.304H28.7279ZM25.7878 25.015C25.7878 24.572 25.4283 24.2543 25.0463 24.2543H24.3017V32.3268H25.0463C25.4315 32.3268 25.791 32.0186 25.7878 31.5757V25.0118V25.015Z" fill="#929AAB"/>
<path fill-rule="evenodd" clip-rule="evenodd" d="M66.8498 38.313V34.3072H65.3605V38.313H60.9824V23.7857C60.9824 22.9929 61.6211 22.3542 62.4075 22.3542H69.8028C70.5892 22.3542 71.2279 22.9929 71.2279 23.7857V38.313H66.8498ZM66.8498 32.33V24.9829C66.8402 24.5753 66.5128 24.264 66.1019 24.264C65.6911 24.264 65.3637 24.5882 65.3605 24.9926V32.33H66.8498Z" fill="#929AAB"/>
</svg>
