<svg width="105" height="45" viewBox="0 0 105 45" fill="none" xmlns="http://www.w3.org/2000/svg">
<path d="M84.4 11.6566C86.6398 10.9133 86.9305 9.69761 86.9107 7.48755H84.0333C84.1027 8.87503 83.8847 10.4442 82.0776 10.4442H80.7067V5H77.793V16.3873H80.7067V12.8195H81.7704C83.1579 12.7633 84.0994 13.7874 84.0994 14.5968V16.3873H86.9999V15.1683C86.9999 12.9681 85.9692 12.1521 84.4 11.6533V11.6566Z" fill="#929AAB"/>
<path d="M60.641 7.53053H58.7646V9.91567H60.0397C61.1398 9.91567 61.9293 10.8935 61.9293 11.9474C61.9293 13.3414 60.7863 13.9922 60.086 14.0088H57.7273V5.01985H54.8499V16.3972H60.0728C62.2729 16.3972 64.8629 14.7587 64.8629 12.0465C64.8629 9.33425 62.8048 7.53384 60.6377 7.53384L60.641 7.53053Z" fill="#929AAB"/>
<path d="M34.3847 11.9637C34.3847 10.6985 35.3791 9.93209 36.4032 9.93209H38.7189L36.8492 13.0242H39.6142L41.4906 10.127V7.53041H35.9539C33.5258 7.53371 31.5569 9.51914 31.5569 11.9704C31.5569 14.4216 33.5258 16.407 35.9539 16.407H41.5038V13.9987H36.4065C35.3791 13.9987 34.388 13.1398 34.388 11.9671L34.3847 11.9637Z" fill="#929AAB"/>
<path d="M45.7453 11.9637C45.7453 10.6985 46.7397 9.93209 47.7638 9.93209H50.0796L48.2097 13.0242H50.9748L52.8512 10.127V7.53041H47.3145C44.8864 7.53371 42.9175 9.51914 42.9175 11.9704C42.9175 14.4216 44.8864 16.407 47.3145 16.407H52.8644V13.9987H47.7671C46.7397 13.9987 45.7486 13.1398 45.7486 11.9671L45.7453 11.9637Z" fill="#929AAB"/>
<path d="M30.5459 8.97086C30.5459 6.45357 28.1607 5.01985 26.0696 5.01985H19V16.4336H21.8014V7.48427C22.4357 7.48427 25.4617 7.47437 25.4617 7.47437C26.6906 7.47437 27.5694 8.22426 27.5694 9.52255C27.5694 10.6127 26.8492 11.5509 25.4947 11.5509H22.8585V13.8865C22.8585 13.8865 24.6061 13.8865 24.6689 13.8898C26.1521 13.9493 27.2159 14.5737 27.2291 16.2221L27.2192 18.8451L30.1659 18.8583V15.4359C30.1659 13.9328 28.9535 13.0408 27.8171 12.7468C29.6902 12.0696 30.5425 10.6425 30.5425 8.97086H30.5459Z" fill="#929AAB"/>
<path d="M71.2585 7.38185C67.9021 7.38185 65.9861 9.47298 65.9861 12.0431C65.9861 14.6133 68.1202 16.7011 71.2585 16.7011C74.3969 16.7011 76.5309 14.6133 76.5309 12.0431C76.5309 9.47298 74.6446 7.38185 71.2585 7.38185ZM71.2585 14.4316C69.9437 14.4316 68.8767 13.3613 68.8767 12.0398C68.8767 10.7184 69.9437 9.64807 71.2585 9.64807C72.5733 9.64807 73.6403 10.7184 73.6403 12.0398C73.6403 13.3613 72.5733 14.4316 71.2585 14.4316Z" fill="#929AAB"/>
<path fill-rule="evenodd" clip-rule="evenodd" d="M41.2262 27.8372C38.5272 28.9208 29.6044 31.785 24.4277 38.4845H35.1907C35.9901 37.3977 37.2455 36.1159 39.0954 34.6722C42.0785 32.4556 44.3018 31.2894 47.7408 29.8722L41.2262 27.8372Z" fill="#929AAB"/>
<path fill-rule="evenodd" clip-rule="evenodd" d="M39.3167 38.4878H49.0621C51.3382 35.0224 54.024 33.3905 55.1373 32.5414L50.0267 30.6386C48.0182 31.5867 43.1785 33.8232 39.3167 38.4878Z" fill="#929AAB"/>
<path fill-rule="evenodd" clip-rule="evenodd" d="M55.3159 24.3125L62.5441 28.5674C69.4451 25.5183 78.6091 22.8622 86.9671 20.8603C86.9671 20.8603 65.874 22.1751 55.3159 24.3125Z" fill="#929AAB"/>
<path fill-rule="evenodd" clip-rule="evenodd" d="M21.7023 21.2501C35.184 23.4998 46.5052 27.3154 46.5052 27.3154C53.2642 29.4197 63.5581 33.7242 70.0726 36.5124C73.69 38.0617 76.1643 39.1288 76.1643 39.1288C57.397 27.6358 45.6694 21.2534 45.6694 21.2534H21.699L21.7023 21.2501Z" fill="#686E7B"/>
</svg>
