<svg width="105" height="45" viewBox="0 0 105 45" fill="none" xmlns="http://www.w3.org/2000/svg">
<path fill-rule="evenodd" clip-rule="evenodd" d="M32.6275 37.8264C22.9139 37.9363 19.4866 28.131 19.7433 21.8813C20.1465 11.8378 26.2129 5.38649 34.497 6.04629C34.9734 6.08273 35.2301 6.22947 35.1934 6.54105C35.1751 6.87095 34.7903 6.87096 34.1854 6.88927C26.2129 7.09076 23.4821 15.1184 23.5737 22.0462C23.647 29.6706 26.6711 36.415 32.6275 36.36C37.8876 36.3053 40.142 29.8171 40.5085 23.6957C40.9483 16.3281 38.4558 9.54682 34.442 9.67504C29.9884 9.82178 28.504 16.0531 28.8337 20.012C29.2187 24.7955 32.4443 27.0497 33.2325 27.4345C33.6172 27.6362 33.874 27.7644 33.7456 28.0943C33.6172 28.3876 33.4157 28.4242 32.7925 28.2594C31.6746 27.9295 26.7077 26.0783 26.2679 19.8836C25.7913 13.2124 29.4568 8.33711 34.6435 8.26384C39.702 8.20889 44.119 13.7072 43.7341 23.4575C43.1292 32.9879 38.1626 37.7713 32.6275 37.8264ZM58.0663 19.3705C59.1293 19.4254 59.7708 18.7473 59.7891 17.6843C59.7891 16.6397 58.9828 15.8514 58.1396 15.8514C57.1132 15.8514 56.4717 16.8228 56.5269 17.7393C56.5635 18.3808 57.0217 19.297 58.0663 19.3705ZM96.591 35.6087C95.1432 37.0931 87.7388 40.8139 90.2681 25.8768C90.5062 24.3738 88.6552 24.8321 88.6552 24.8321C88.4537 26.2248 87.519 37.2032 81.2508 37.13C77.2372 37.0199 75.2026 33.3178 75.0011 30.0738C74.1948 29.5605 73.2783 28.2777 72.6552 27.288C72.3802 29.139 71.4088 37.0017 68.2199 36.9834C67.0834 36.9834 64.9577 35.8287 64.2244 32.1264C63.9496 34.3806 62.6667 37.2032 60.2841 36.9834C58.323 36.8184 56.6368 34.6558 56.4903 31.6134V31.5949C56.2703 32.3831 55.5372 36.2685 52.1466 36.8733C49.1774 37.4047 46.7032 34.8389 45.9702 31.6866C45.9702 31.6866 44.2655 31.8332 43.7891 31.7599C43.4042 31.6866 43.2943 31.0451 43.6242 30.9719C44.3023 30.8435 45.127 30.6786 45.6952 30.5136C44.2655 23.1643 45.1638 8.57543 50.7354 8.35543C56.3985 8.1173 54.4374 28.4975 48.3894 31.1001C48.6092 32.218 49.4341 35.5354 52 35.3156C54.4007 35.1139 55.3721 32.3098 55.922 29.9822C56.4534 27.6545 56.3802 24.6671 56.5086 23.3108C56.6551 21.9546 59.4409 21.8996 59.4226 23.4757C59.3859 25.6385 57.5349 35.1139 61.0538 35.4255C63.0149 35.5903 63.748 32.2732 63.9128 30.5136C63.6012 28.3876 63.5463 26.5915 63.6381 23.9523C63.693 21.9546 66.772 21.9912 66.6805 23.7506C66.552 26.1701 66.3506 33.3728 68.2199 34.4175C70.0709 35.4621 71.1155 27.013 71.3539 24.9787C70.4926 22.7794 70.0892 19.6086 70.969 18.3441C71.2806 17.9041 71.7387 17.6843 72.1421 17.6843C72.3436 17.6843 73.04 17.8492 73.3516 18.8023C73.8466 20.305 73.2417 23.3841 73.095 24.4104C73.3516 25.4368 73.9382 27.6545 74.9095 28.7358C74.8912 26.2616 76.0458 20.2684 79.528 19.2237C85.8878 17.3178 87.1524 33.7943 77.8235 31.3201C78.0435 33.3362 78.8865 35.5903 81.1592 35.8653C86.5842 36.3784 86.8958 24.997 86.9324 24.1355C86.9874 22.9626 86.2177 22.2295 86.4743 20.5617C86.7676 18.5639 88.9302 18.9488 89.0767 20.3602C89.1685 21.1849 89.0767 21.9546 89.0401 22.3761C93.3471 20.6166 94.0802 22.9443 93.3838 25.6385C89.7731 39.3292 95.6382 35.4255 96.1696 35.1139C96.4995 34.9488 96.8294 35.3703 96.591 35.6087ZM48.2243 29.6706C52.898 26.9031 53.9243 10.2066 51.1935 10.5732C47.5462 11.0496 47.5645 26.9581 48.2243 29.6706ZM77.7503 30.4403C84.3115 32.1814 83.9633 20.58 80.6645 21.643C78.0985 22.4678 77.6404 29.3224 77.7503 30.4403Z" fill="#929AAB"/>
<path d="M9.04169 36.4674C6.9882 35.8921 5.99635 34.5531 6.00001 32.3612C6.00194 31.2046 6.20569 30.8289 6.69038 31.0883C6.98055 31.2436 7.03391 31.4052 7.1597 32.5099C7.2984 33.728 7.82838 34.3906 8.88266 34.6641C10.8648 35.1782 12.7892 33.5806 12.7892 31.421C12.7892 29.9329 12.1654 29.1635 10.0467 28.0383C8.55549 27.2464 7.6121 26.3982 7.22712 25.5033C6.98542 24.9415 6.94574 24.6601 6.99378 23.8492C7.02914 23.2525 7.15658 22.6363 7.32116 22.2664C7.68098 21.4578 8.55606 20.5306 9.35718 20.1092C9.92303 19.8115 10.3446 19.6967 11.1758 19.6965C12.297 19.6962 13.0629 19.9835 13.7197 20.6906C14.4078 21.4312 14.7273 22.1289 14.735 23.3254C14.7417 24.3697 14.6581 24.4286 14.3829 24.4677C14.0706 24.512 13.9785 24.3602 13.7088 23.3557C13.3902 22.1691 12.2686 21.4477 11.2275 21.7597C10.6355 21.9371 9.87864 22.754 9.69554 23.4134C9.48821 24.1601 9.53382 25.1421 9.80276 25.7217C10.1378 26.4438 10.7107 26.9364 12.212 27.7933C14.1404 28.8939 14.8182 29.462 15.2777 30.3627C15.8286 31.4425 15.8193 33.2312 15.2571 34.3333C14.8995 35.0342 13.806 35.9607 12.9506 36.2875C11.9756 36.66 10.0461 36.7488 9.04169 36.4674Z" fill="#929AAB"/>
<path fill-rule="evenodd" clip-rule="evenodd" d="M20.4126 34.5153C20.4126 35.4849 19.6266 36.2709 18.657 36.2709C17.6874 36.2709 16.9014 35.4849 16.9014 34.5153C16.9014 33.5457 17.6874 32.7597 18.657 32.7597C19.6266 32.7597 20.4126 33.5457 20.4126 34.5153Z" fill="#929AAB"/>
<path fill-rule="evenodd" clip-rule="evenodd" d="M97.8557 19.9202C96.591 19.9202 95.6931 18.9857 95.6931 17.721C95.6931 16.4014 96.6826 15.5399 97.8557 15.5399C98.992 15.5399 100 16.4014 100 17.721C100 19.0406 98.992 19.9202 97.8557 19.9202ZM97.8557 15.9247C96.9026 15.9247 96.1696 16.658 96.1696 17.721C96.1696 18.729 96.811 19.5354 97.8557 19.5354C98.7905 19.5354 99.5236 18.8023 99.5236 17.721C99.5236 16.658 98.7905 15.9247 97.8557 15.9247ZM97.4159 18.9857H97.0125V16.5479H97.929C98.5155 16.5479 98.8271 16.7679 98.8271 17.2627C98.8271 17.6844 98.5522 17.8675 98.1856 17.9225L98.8637 18.9857H98.4239L97.7824 17.9408H97.4159V18.9857ZM97.8557 17.6109C98.1673 17.6109 98.4239 17.5743 98.4239 17.226C98.4239 16.9328 98.1307 16.8961 97.8923 16.8961H97.4159V17.6109H97.8557Z" fill="#929AAB"/>
</svg>
