<svg width="105" height="45" viewBox="0 0 105 45" fill="none" xmlns="http://www.w3.org/2000/svg">
<path d="M14.4832 18.0465C15.3815 18.1843 16.1673 18.5584 16.8406 19.1688C16.8447 19.1723 16.848 19.1767 16.8502 19.1816C16.8525 19.1865 16.8536 19.1919 16.8536 19.1973C16.8536 19.2028 16.8525 19.2082 16.8502 19.2133C16.848 19.2183 16.8447 19.2229 16.8406 19.2268L15.7681 20.2138C15.7436 20.2366 15.7182 20.2366 15.6917 20.2138C14.8616 19.4626 13.8899 19.2411 12.7767 19.5493C12.1625 19.7188 11.9822 20.6345 12.6254 20.9035C13.1978 21.1434 13.8869 21.3653 14.6925 21.5695C15.3968 21.7493 16.3058 22.1433 16.7199 22.7141C17.3799 23.6208 17.1858 24.9691 16.3624 25.7257C15.8124 26.2296 14.8438 26.4199 14.0508 26.4838C12.5882 26.5997 11.3171 26.1533 10.2375 25.1445C10.2286 25.1363 10.2215 25.1263 10.2169 25.1151C10.2123 25.104 10.2101 25.092 10.2105 25.0798C10.2109 25.0676 10.214 25.0556 10.2194 25.0445C10.2248 25.0333 10.2326 25.0234 10.2421 25.0152L11.307 24.1099C11.3477 24.0752 11.3874 24.0762 11.4261 24.1129C12.1798 24.8125 13.1026 25.1167 14.1945 25.0256C14.8942 24.9676 15.7375 24.5633 15.435 23.7591C15.2288 23.2135 13.6276 22.8375 13.0899 22.7037C12.4859 22.555 11.9619 22.3553 11.5178 22.1046C10.5461 21.5576 10.3475 20.242 10.8181 19.3695C11.4658 18.1654 13.1968 17.8488 14.4832 18.0465Z" fill="#929AAB"/>
<path d="M57.7239 24.9973C58.665 25.1727 59.4436 24.8556 60.0599 24.0459C60.0733 24.0285 60.093 24.0165 60.115 24.0124C60.137 24.0082 60.1599 24.0123 60.179 24.0236L61.4135 24.7624C61.4204 24.7664 61.4265 24.7717 61.4313 24.778C61.4361 24.7843 61.4396 24.7915 61.4414 24.7992C61.4433 24.8068 61.4435 24.8147 61.4421 24.8225C61.4407 24.8302 61.4377 24.8376 61.4333 24.8442C60.4769 26.3218 58.6497 26.7677 56.9829 26.3351C54.0267 25.5681 53.3636 21.6111 55.0701 19.3843C56.5368 17.4727 60.0782 17.4786 61.3661 19.5865C61.3977 19.638 61.387 19.6786 61.334 19.7084L60.04 20.4293C59.9931 20.4561 59.956 20.4467 59.9285 20.4011C59.5812 19.8263 59.0683 19.5092 58.39 19.4497C56.0342 19.2461 55.5025 21.7136 55.9822 23.4305C56.2175 24.2778 56.8286 24.8293 57.7239 24.9973Z" fill="#929AAB"/>
<path d="M23.6361 22.7854L23.6407 24.8828C23.6407 24.8924 23.6426 24.9019 23.6464 24.9107C23.6501 24.9196 23.6557 24.9276 23.6626 24.9343C23.6696 24.9411 23.6778 24.9465 23.6869 24.9501C23.696 24.9538 23.7057 24.9557 23.7155 24.9557L28.056 24.9512C28.0758 24.9512 28.0949 24.9589 28.1089 24.9726C28.1229 24.9862 28.1308 25.0047 28.1308 25.0241L28.1354 26.2965C28.1354 26.3158 28.1275 26.3343 28.1135 26.348C28.0994 26.3617 28.0804 26.3693 28.0605 26.3693L22.0487 26.3708C22.0289 26.3708 22.0098 26.3631 21.9958 26.3495C21.9818 26.3358 21.9739 26.3173 21.9739 26.298L21.9846 18.1892C21.9846 18.1699 21.9925 18.1513 22.0065 18.1377C22.0205 18.124 22.0396 18.1164 22.0594 18.1164L28.0575 18.1149C28.0773 18.1149 28.0964 18.1225 28.1104 18.1362C28.1245 18.1499 28.1323 18.1684 28.1323 18.1877L28.1339 19.4809C28.1339 19.5003 28.126 19.5188 28.112 19.5325C28.0979 19.5461 28.0789 19.5538 28.059 19.5538L23.714 19.5419C23.7042 19.5419 23.6945 19.5438 23.6854 19.5474C23.6763 19.5511 23.668 19.5565 23.6611 19.5632C23.6541 19.57 23.6486 19.578 23.6449 19.5869C23.6411 19.5957 23.6392 19.6052 23.6392 19.6147L23.6376 21.1637C23.6376 21.183 23.6455 21.2015 23.6596 21.2152C23.6736 21.2288 23.6926 21.2365 23.7125 21.2365H26.8551C26.875 21.2365 26.894 21.2442 26.9081 21.2578C26.9221 21.2715 26.93 21.29 26.93 21.3093L26.9392 22.6457C26.9392 22.665 26.9313 22.6835 26.9172 22.6972C26.9032 22.7108 26.8841 22.7185 26.8643 22.7185L23.711 22.7126C23.6911 22.7126 23.6721 22.7202 23.658 22.7339C23.644 22.7476 23.6361 22.7661 23.6361 22.7854Z" fill="#929AAB"/>
<path d="M39.2852 24.9884L39.2883 26.2921C39.2883 26.3106 39.2807 26.3284 39.2672 26.3415C39.2538 26.3546 39.2355 26.3619 39.2165 26.3619L33.171 26.3709C33.152 26.3709 33.1337 26.3635 33.1203 26.3504C33.1068 26.3373 33.0992 26.3195 33.0992 26.301L33.1023 18.1922C33.1023 18.1737 33.1099 18.1559 33.1233 18.1428C33.1368 18.1297 33.1551 18.1223 33.1741 18.1223L34.6362 18.1194C34.6552 18.1194 34.6735 18.1267 34.687 18.1398C34.7004 18.1529 34.708 18.1707 34.708 18.1892L34.711 24.8502C34.711 24.8687 34.7186 24.8865 34.7321 24.8996C34.7455 24.9127 34.7638 24.92 34.7829 24.92L39.2134 24.9186C39.2325 24.9186 39.2507 24.9259 39.2642 24.939C39.2777 24.9521 39.2852 24.9699 39.2852 24.9884Z" fill="#929AAB"/>
<path d="M45.5338 19.5909L45.5292 21.1755C45.5292 21.1929 45.5363 21.2095 45.5489 21.2218C45.5615 21.234 45.5786 21.2409 45.5964 21.2409H48.8109C48.8287 21.2409 48.8458 21.2478 48.8584 21.2601C48.871 21.2723 48.8781 21.289 48.8781 21.3063V22.6233C48.8781 22.6407 48.871 22.6573 48.8584 22.6696C48.8458 22.6819 48.8287 22.6888 48.8109 22.6888L45.6071 22.6932C45.5893 22.6932 45.5722 22.7001 45.5596 22.7124C45.547 22.7246 45.5399 22.7413 45.5399 22.7586L45.5414 24.8888C45.5414 24.9061 45.5485 24.9227 45.5611 24.935C45.5737 24.9473 45.5908 24.9542 45.6086 24.9542L49.9857 24.9527C50.0035 24.9527 50.0206 24.9596 50.0333 24.9718C50.0459 24.9841 50.0529 25.0007 50.0529 25.0181V26.3024C50.0529 26.3197 50.0459 26.3364 50.0333 26.3486C50.0206 26.3609 50.0035 26.3678 49.9857 26.3678H44.0136C43.9958 26.3678 43.9787 26.3609 43.9661 26.3486C43.9535 26.3364 43.9464 26.3197 43.9464 26.3024L43.9479 18.1906C43.9479 18.1733 43.955 18.1567 43.9676 18.1444C43.9802 18.1321 43.9973 18.1252 44.0152 18.1252L49.9872 18.1163C49.9961 18.1163 50.0048 18.118 50.013 18.1213C50.0211 18.1246 50.0285 18.1294 50.0348 18.1355C50.041 18.1415 50.046 18.1488 50.0493 18.1567C50.0527 18.1646 50.0545 18.1731 50.0545 18.1817V19.4839C50.0545 19.4925 50.0527 19.501 50.0493 19.5089C50.046 19.5169 50.041 19.5241 50.0348 19.5301C50.0285 19.5362 50.0211 19.541 50.013 19.5443C50.0048 19.5476 49.9961 19.5493 49.9872 19.5493L45.601 19.5255C45.5832 19.5255 45.5661 19.5324 45.5535 19.5447C45.5409 19.5569 45.5338 19.5736 45.5338 19.5909Z" fill="#929AAB"/>
<path d="M65.4559 19.478L65.4529 18.1892C65.4529 18.1802 65.4547 18.1713 65.4582 18.163C65.4618 18.1547 65.4669 18.1472 65.4735 18.1408C65.48 18.1345 65.4877 18.1295 65.4963 18.126C65.5048 18.1226 65.5139 18.1208 65.5232 18.1208L72.2989 18.1223C72.3175 18.1223 72.3354 18.1295 72.3485 18.1423C72.3617 18.1552 72.3691 18.1725 72.3691 18.1907V19.481C72.3691 19.4991 72.3617 19.5165 72.3485 19.5293C72.3354 19.5421 72.3175 19.5493 72.2989 19.5493L69.8025 19.5285C69.793 19.5283 69.7835 19.53 69.7747 19.5334C69.7659 19.5369 69.7579 19.542 69.7512 19.5485C69.7445 19.5551 69.7392 19.5628 69.7357 19.5714C69.7322 19.58 69.7305 19.5892 69.7307 19.5984L69.7597 26.3024C69.7597 26.3206 69.7523 26.338 69.7391 26.3508C69.7259 26.3636 69.708 26.3708 69.6894 26.3708L68.1464 26.3664C68.1277 26.3664 68.1098 26.3592 68.0967 26.3463C68.0835 26.3335 68.0761 26.3161 68.0761 26.298L68.0837 19.5984C68.0837 19.5894 68.0819 19.5805 68.0784 19.5722C68.0748 19.5639 68.0697 19.5564 68.0631 19.55C68.0566 19.5437 68.0489 19.5386 68.0403 19.5352C68.0318 19.5318 68.0227 19.53 68.0134 19.53L65.5262 19.5464C65.517 19.5464 65.5078 19.5446 65.4993 19.5412C65.4908 19.5377 65.483 19.5327 65.4765 19.5263C65.47 19.52 65.4648 19.5124 65.4613 19.5042C65.4578 19.4959 65.4559 19.487 65.4559 19.478Z" fill="#929AAB"/>
<path d="M78.7033 24.9541L83.0651 24.9526C83.0841 24.9526 83.1024 24.96 83.1158 24.9731C83.1293 24.9862 83.1369 25.004 83.1369 25.0225L83.1353 26.3009C83.1353 26.3194 83.1278 26.3372 83.1143 26.3503C83.1008 26.3634 83.0826 26.3707 83.0635 26.3707L77.0976 26.3752C77.0881 26.3752 77.0788 26.3734 77.0701 26.3699C77.0614 26.3664 77.0535 26.3612 77.0468 26.3547C77.0401 26.3482 77.0348 26.3405 77.0312 26.3321C77.0276 26.3236 77.0258 26.3145 77.0258 26.3053L77.038 18.1906C77.038 18.1721 77.0455 18.1543 77.059 18.1412C77.0725 18.1281 77.0907 18.1207 77.1098 18.1207L83.0635 18.1178C83.0826 18.1178 83.1008 18.1251 83.1143 18.1382C83.1278 18.1513 83.1353 18.1691 83.1353 18.1876L83.1384 19.4794C83.1384 19.4979 83.1308 19.5157 83.1174 19.5288C83.1039 19.5419 83.0856 19.5493 83.0666 19.5493L78.7002 19.5359C78.6812 19.5359 78.6629 19.5432 78.6494 19.5563C78.636 19.5694 78.6284 19.5872 78.6284 19.6057L78.6299 21.168C78.6299 21.1866 78.6375 21.2043 78.651 21.2174C78.6644 21.2305 78.6827 21.2379 78.7017 21.2379L81.8749 21.2364C81.894 21.2364 81.9122 21.2438 81.9257 21.2569C81.9392 21.27 81.9467 21.2878 81.9467 21.3063L81.9513 22.6441C81.9513 22.6626 81.9437 22.6804 81.9303 22.6935C81.9168 22.7066 81.8986 22.714 81.8795 22.714H78.7017C78.6827 22.714 78.6644 22.7213 78.651 22.7344C78.6375 22.7475 78.6299 22.7653 78.6299 22.7838L78.6314 24.8843C78.6314 24.8934 78.6333 24.9025 78.6369 24.911C78.6405 24.9195 78.6458 24.9272 78.6525 24.9337C78.6591 24.9401 78.6671 24.9453 78.6758 24.9488C78.6845 24.9523 78.6938 24.9541 78.7033 24.9541Z" fill="#929AAB"/>
<path d="M88.0625 18.1789C88.0625 18.1643 88.0685 18.1503 88.0791 18.14C88.0897 18.1296 88.104 18.1239 88.119 18.1239L91.1501 18.1134C91.6954 18.1115 92.2357 18.2116 92.7402 18.4081C93.2448 18.6046 93.7036 18.8937 94.0905 19.2588C94.4774 19.624 94.7848 20.058 94.9951 20.5361C95.2055 21.0142 95.3146 21.527 95.3164 22.0452V22.396C95.3199 23.442 94.8863 24.4466 94.1107 25.1889C93.3352 25.9313 92.2813 26.3505 91.1807 26.3545L88.1496 26.3649C88.1346 26.3649 88.1202 26.3591 88.1096 26.3488C88.099 26.3385 88.0931 26.3245 88.0931 26.3099L88.0625 18.1789ZM89.74 19.594L89.7492 24.8978C89.7492 24.9108 89.7545 24.9233 89.7639 24.9325C89.7734 24.9417 89.7862 24.9468 89.7996 24.9468L91.0554 24.9453C91.7325 24.9441 92.3813 24.6955 92.8592 24.2542C93.3371 23.8129 93.6049 23.2151 93.6038 22.5922V21.8876C93.6032 21.5792 93.5366 21.2739 93.4077 20.9891C93.2789 20.7044 93.0904 20.4458 92.8529 20.2281C92.6154 20.0104 92.3336 19.8379 92.0236 19.7205C91.7136 19.603 91.3815 19.5428 91.0463 19.5434L89.7904 19.5449C89.777 19.5449 89.7642 19.5501 89.7548 19.5593C89.7453 19.5685 89.74 19.581 89.74 19.594Z" fill="#929AAB"/>
</svg>
