<svg width="105" height="45" viewBox="0 0 105 45" fill="none" xmlns="http://www.w3.org/2000/svg">
<g clip-path="url(#clip0_1_1023)">
<path d="M96.9461 34.6335C96.4667 36.6622 95.2025 37.946 93.221 38.5489C92.5125 39.0153 91.7029 38.9904 90.9128 38.9904C83.4928 39.0011 76.0746 38.9958 68.6546 38.9958C51.1851 38.9958 33.7156 38.9958 16.2461 38.9975C15.1825 38.9975 14.1172 38.9975 13.0554 38.9497C11.3829 38.877 10.0743 38.1304 9.14214 36.7384C8.82787 35.9794 8.51538 35.2169 8.20288 34.4562C8.20288 30.1437 8.20288 25.8293 8.20288 21.5168C12.576 26.9039 18.7336 29.1896 25.0794 31.0658C32.249 33.1866 39.6228 34.1087 47.0801 34.4704C53.6815 34.7914 60.2617 34.5644 66.8116 33.7256C74.6861 32.7167 82.3902 31.048 89.535 27.4004C92.4025 25.9357 94.9468 24.0685 96.9461 21.515V34.6318V34.6335Z" fill="#656B78"/>
<path d="M8.20283 5.03078H18.8969C14.8682 6.94235 10.9744 9.00997 8.20283 12.6522V5.74008C8.52065 5.44927 8.91482 5.49537 9.29478 5.4936C11.184 5.48828 13.0731 5.49714 14.9623 5.4865C15.2482 5.4865 15.55 5.57517 15.8075 5.4138C13.5064 5.50956 11.2212 5.4404 8.93435 5.45104C8.66447 5.45104 8.40879 5.39784 8.20105 5.2081V5.03078H8.20283Z" fill="#656B78"/>
<path d="M96.946 12.6523C94.5455 9.44975 91.1968 7.52045 87.7025 5.78443C87.3528 5.38722 87.3226 5.0503 87.9653 5.14428C88.4394 5.21344 88.9632 5.05384 89.3946 5.3819C90.657 5.61242 91.9265 5.44751 93.1925 5.48474C94.1069 5.51134 95.0231 5.48474 95.9393 5.49184C96.2926 5.49361 96.6548 5.47056 96.9442 5.73832V12.6523H96.946Z" fill="#656B78"/>
<path d="M16.7219 5.38545C16.6101 5.92452 16.175 5.72946 15.8643 5.73124C13.3111 5.74542 10.7561 5.7401 8.20288 5.7401V5.38545C9.13326 5.19926 10.0743 5.29856 11.0065 5.3092C12.9116 5.33225 14.8185 5.18507 16.7219 5.38545Z" fill="#656B78"/>
<path d="M96.946 5.74014C94.6289 5.74014 92.3101 5.74723 89.993 5.73127C89.6823 5.7295 89.2473 5.92278 89.1372 5.38549C89.1816 5.35002 89.226 5.31456 89.2704 5.27732C91.694 5.13014 94.1211 5.23121 96.5465 5.22589C96.6974 5.22589 96.8288 5.29505 96.946 5.38549V5.74014Z" fill="#656B78"/>
<path d="M89.1354 5.38543C88.7661 5.20456 88.3826 5.46168 87.9529 5.2613C87.5037 5.05206 87.6316 5.5202 87.7026 5.78618C87.2037 5.58758 86.7047 5.3872 86.2058 5.1886C86.2182 5.1354 86.2289 5.08397 86.2413 5.03078H96.946V5.2081C95.1616 5.40493 93.3719 5.23116 91.5857 5.29854C90.7689 5.32868 89.9469 5.18682 89.1372 5.38543H89.1354Z" fill="#656B78"/>
<path d="M16.7219 5.38546H8.20288V5.20813C10.7366 5.20813 13.272 5.20458 15.8057 5.21345C16.1147 5.21345 16.4609 5.09642 16.7219 5.38546Z" fill="#656B78"/>
<path d="M89.1354 5.38543C89.3964 5.09639 89.7426 5.2152 90.0516 5.21343C92.3491 5.20456 94.6466 5.20811 96.9442 5.20811V5.38543H89.1354Z" fill="#656B78"/>
<path d="M52.5966 5.02902C61.025 5.02902 69.4517 5.03434 77.8802 5.02016C78.6313 5.02016 79.3344 5.14251 80.0393 5.39077C83.3986 6.57176 86.6354 7.99036 89.4834 10.1732C90.4954 10.9499 91.4045 11.833 92.1627 12.8651C94.2223 15.6721 94.1939 18.7735 92.0401 21.5203C89.8598 24.3043 86.8716 25.9748 83.7164 27.3774C78.578 29.6631 73.1502 30.9292 67.6158 31.7644C61.7566 32.6493 55.8582 32.9986 49.9368 32.8248C41.2473 32.5695 32.6821 31.5038 24.4383 28.5797C20.9689 27.349 17.6487 25.8116 14.8433 23.3592C13.2577 21.9743 11.9634 20.3695 11.587 18.2274C11.0774 15.3263 12.441 13.1381 14.4278 11.2478C16.9331 8.86103 20.003 7.4176 23.1546 6.10007C25.0029 5.32693 26.8814 4.98292 28.9091 5.00065C36.8049 5.07158 44.7007 5.02902 52.5966 5.02902Z" fill="#929AAB"/>
<path d="M49.603 35.3908H54.8746C54.8746 35.4209 54.8746 35.4493 54.8746 35.4794H49.5941C49.5977 35.4493 49.5994 35.4209 49.603 35.3908Z" fill="#656B78"/>
<path d="M40.3506 16.0729C40.2992 16.1775 40.2477 16.2839 40.1962 16.3885C39.96 16.5215 40.0967 16.7503 40.0488 16.9311C39.8357 17.7238 40.633 18.5856 39.8784 19.3357C40.5548 19.8233 39.6138 20.5823 40.1731 21.1054C40.2477 21.1763 40.0541 21.3625 40.1305 21.5132C40.2832 22.0186 39.8908 22.6002 40.3524 23.0613C39.3475 23.556 38.7189 23.2244 38.742 22.1587C38.7686 20.8713 38.6142 19.5821 38.8876 18.2948C39.003 17.7521 38.6976 17.1918 38.9995 16.596C39.1859 16.2289 38.7793 16.0835 38.4011 16.1988C38.3585 16.1615 38.3461 16.1154 38.362 16.0605C38.4348 15.2873 37.84 15.1543 37.3074 14.961H37.3091C37.3358 14.8795 37.3376 14.7713 37.3926 14.7199C37.817 14.3333 38.1934 14.8919 38.7047 14.7943C39.351 14.6702 39.2285 15.5303 39.2693 16.0392C39.2747 16.0959 39.2995 16.1509 39.3173 16.2059C39.9618 15.9168 39.2942 15.2926 39.7079 14.7997C39.7665 15.1614 39.8073 15.4185 39.8588 15.7324C39.9369 15.5551 39.992 15.4327 40.0808 15.2288C40.1855 15.5515 40.269 15.8122 40.3524 16.0711L40.3506 16.0729Z" fill="#929AAB"/>
<path d="M66.0924 14.7908C66.0143 14.8299 65.9397 14.8884 65.858 14.9061C64.8413 15.1307 64.3926 15.7827 64.5122 16.862C65.1319 16.6953 65.6698 16.3212 66.3073 16.2343C67.2607 16.1048 67.9301 16.4187 68.1947 17.1475C68.4219 17.777 68.3616 18.1476 67.5359 18.1139C66.309 18.0643 65.1301 18.2735 64.1269 19.0679C64.2441 18.3374 63.2249 17.7256 63.9103 16.9205C63.9991 16.8177 63.9387 16.5783 63.9298 16.4045C63.8535 14.6383 64.2938 14.3103 66.0906 14.7908H66.0924Z" fill="#929AAB"/>
<path d="M60.7498 11.0883C60.2012 11.1237 59.981 11.3454 59.9863 11.9607C60.0236 15.4398 60.0378 18.9208 59.9828 22.3999C59.9668 23.3592 60.5297 23.1553 61.0623 23.1766C61.5861 23.1961 62.0069 23.2475 61.998 22.4442C61.9536 18.9066 61.9803 15.3671 61.9767 11.8277C61.9767 11.5688 62.0371 11.2886 61.7921 11.0883C62.2448 10.9624 62.1507 11.3259 62.1507 11.5298C62.1596 15.2448 62.1507 18.958 62.1631 22.673C62.1631 23.1287 61.9962 23.2723 61.5453 23.3025C59.8478 23.416 59.862 23.4319 59.8461 21.7704C59.8123 18.3835 59.9189 14.9948 59.7981 11.6078C59.7786 11.028 60.0804 10.6201 60.7498 11.0883Z" fill="#929AAB"/>
<path d="M42.4583 23.6429C42.0855 23.8185 41.5706 23.6678 41.3362 24.182C41.2403 24.3913 41.0983 24.2317 41.0202 24.0987C40.7846 23.7003 40.5248 23.666 40.2407 23.9958C40.0063 24.2671 38.1367 24.4462 38.174 24.26C38.4048 23.0684 37.4176 23.7972 37.0767 23.5312C36.995 23.4674 36.8778 23.4497 36.7926 23.345C37.6271 23.384 38.4367 23.2599 39.2801 23.5702C39.9087 23.8008 40.6544 23.3592 41.3646 23.4656C41.7304 23.5206 42.137 23.3238 42.4601 23.6429H42.4583Z" fill="#929AAB"/>
<path d="M46.6716 22.7066C46.6716 20.0343 46.6734 17.3603 46.6663 14.688C46.6663 14.5355 46.7106 14.4574 46.842 14.4681C46.9788 14.4787 47.0143 14.5887 47.0018 14.7252C46.7479 17.3886 46.9965 20.0627 46.6716 22.7066Z" fill="#929AAB"/>
<path d="M44.0474 23.0648C44.1521 23.0152 44.2569 22.9637 44.3616 22.9141C44.6155 22.8644 44.8694 22.8148 45.1233 22.7651C44.8002 22.8715 45.3897 23.9816 44.3918 23.4212C44.2533 23.3432 43.7455 23.8681 43.3425 23.9976C43.2146 23.4603 42.6198 24.088 42.4547 23.6429C43.0087 23.5152 43.6354 23.5897 44.0456 23.0648H44.0474Z" fill="#929AAB"/>
<path d="M34.3352 22.7208V17.9809C34.3654 17.9809 34.3938 17.9809 34.424 17.9809V22.7102C34.3938 22.7137 34.3654 22.7173 34.3352 22.7208Z" fill="#929AAB"/>
<path d="M53.8466 15.1597C53.614 14.9965 53.2802 14.9664 53.1594 14.6472C54.1963 14.4468 55.2297 14.3493 56.4158 14.4681C55.4996 14.8547 54.4343 14.156 53.8359 15.1615H53.8466V15.1597Z" fill="#929AAB"/>
<path d="M45.0629 23.9869C44.7806 24.3682 44.4344 24.3877 44.042 24.276C44.4202 24.3026 44.4575 23.4674 45.0629 23.9869Z" fill="#929AAB"/>
<path d="M47.103 11.4376C46.9415 11.3773 46.7781 11.317 46.5295 11.2248C46.9823 10.9251 47.4581 11.1681 47.9553 10.7868C47.7422 11.4234 47.2167 11.0563 47.0906 11.4376H47.103Z" fill="#929AAB"/>
<path d="M49.1875 14.9788C49.2887 14.3582 48.9159 14.5444 48.5359 14.7022C48.6584 14.2482 48.9425 14.1631 49.2088 14.3209C49.4876 14.4876 49.4183 14.7642 49.184 14.977H49.1875V14.9788Z" fill="#929AAB"/>
<path d="M53.2926 15.8601C53.234 16.1279 53.0866 16.2892 52.9641 15.9363C52.8629 15.6473 52.9251 15.3033 52.9144 14.9841C53.2961 15.165 52.9073 15.681 53.2944 15.8601H53.2926Z" fill="#C3DAC4"/>
<path d="M43.3442 23.9976C43.1472 24.2015 42.9412 24.3806 42.595 24.2884C42.7938 24.0011 43.069 24.0011 43.3442 23.9976Z" fill="#929AAB"/>
<path d="M46.5686 14.1258C46.7781 13.8066 47.0072 13.9042 47.2522 13.9308C47.064 14.1719 46.8332 14.0726 46.5686 14.1258Z" fill="#929AAB"/>
<path d="M63.6138 16.8655V16.1172C63.818 16.4258 63.77 16.6616 63.6138 16.8655Z" fill="#929AAB"/>
<path d="M37.3057 14.9592C37.5649 14.9592 37.817 14.9504 38.0656 15.0692C38.5468 15.2962 38.8539 15.5533 38.3603 16.0604C38.0798 15.626 37.7424 15.2465 37.3057 14.961V14.9592Z" fill="#929AAB"/>
<path d="M40.1287 21.5115C39.8589 21.4246 40.2069 21.0611 39.8535 20.9635C39.2889 20.8075 39.454 20.4972 39.779 20.2223C39.9405 20.0858 40.1802 19.8623 39.9388 19.7613C39.0776 19.3995 39.8109 19.1584 39.9547 18.8534C40.253 18.2132 39.7861 17.5713 39.9281 16.9081C39.9778 16.6793 39.889 16.4595 40.1962 16.3885C39.8766 17.7362 40.4164 18.6707 41.5882 19.318C42.0783 19.5875 42.563 19.873 43.0211 20.1922C43.3709 20.4333 43.6514 20.7578 43.4916 21.2366C43.346 21.6764 42.9394 21.742 42.5612 21.7917C41.9629 21.8679 41.3947 21.6977 40.8283 21.5239C40.6046 21.4547 40.3649 21.1692 40.1287 21.5133V21.5115Z" fill="#929AAB"/>
<path d="M48.2644 16.041V22.7013C48.2431 22.7013 48.2217 22.7013 48.2004 22.7013V16.0428C48.2217 16.0428 48.2431 16.0428 48.2644 16.0428V16.041Z" fill="#F9FEF9"/>
<path d="M38.3993 16.197C38.8042 18.3639 38.5254 20.5504 38.6053 22.7279C38.6177 23.0861 38.4171 23.1837 38.1046 23.1748C37.8099 23.1677 37.5116 23.15 37.2186 23.1819C36.67 23.2404 36.5972 22.9496 36.6025 22.4939C36.622 21.0185 36.6167 19.5414 36.6025 18.066C36.5936 16.9702 36.2474 16.4719 35.5105 16.4329C34.7133 16.3903 34.1345 17.0039 34.1061 18.0306C34.067 19.4758 34.028 20.9263 34.1061 22.3697C34.1558 23.2954 33.6196 23.1642 33.0532 23.1872C32.4282 23.2138 32.0074 23.1979 32.0305 22.336C32.0891 20.123 32.0411 17.9082 32.034 15.6934C32.034 15.3228 31.9026 14.8139 32.5347 14.9522C33.023 15.0586 33.8859 14.4273 33.9285 15.564C33.9321 15.6757 33.9534 15.7874 33.9818 16.041C34.8784 14.8157 36.0024 14.5656 37.3074 14.9611C37.3482 14.9611 37.3891 14.9611 37.4317 14.9593C37.9501 15.1136 38.2484 15.4895 38.4473 15.9647C38.4633 16.0481 38.4455 16.1261 38.3993 16.1988V16.197Z" fill="#FDFDFD"/>
<path d="M81.3229 12.6736C81.3229 13.0087 81.3531 13.3031 81.3176 13.5904C81.2022 14.5071 81.3176 15.1366 82.5161 14.954C83.1783 14.8529 82.8907 15.4629 82.9422 15.7821C83.0008 16.1421 82.9244 16.4684 82.4468 16.3761C81.385 16.1704 81.243 16.7113 81.3052 17.6015C81.3779 18.6601 81.3211 19.7258 81.3229 20.7898C81.3229 21.4743 81.6407 21.8413 82.358 21.7988C82.5853 21.7864 82.9564 21.5434 82.9298 22.024C82.9085 22.4176 83.2032 22.9124 82.6066 23.1819C81.0761 23.8717 79.4107 22.9088 79.3467 21.2331C79.297 19.9067 79.3059 18.575 79.3379 17.2468C79.3521 16.6386 79.2473 16.2627 78.5282 16.3779C77.9032 16.4772 77.9867 16.0304 77.9742 15.6473C77.96 15.2342 77.9529 14.8724 78.5531 14.9256C78.8762 14.954 79.2881 15.0568 79.3325 14.4859C79.3663 14.0603 79.1017 13.4981 79.4959 13.2339C79.9948 12.8988 80.6287 12.7747 81.3211 12.6771L81.3229 12.6736Z" fill="#FDFDFD"/>
<path d="M40.3506 16.0729C41.5029 14.6419 43.0104 14.5905 44.6155 15.009C45.4056 15.2147 44.9155 15.8495 44.9262 16.2698C44.9404 16.8106 44.5285 16.4843 44.2817 16.4613C43.8715 16.4223 43.4631 16.3549 43.053 16.3442C42.6606 16.3354 42.2611 16.3992 42.112 16.8461C41.9539 17.3142 42.1848 17.6387 42.5647 17.887C43.0583 18.2097 43.5555 18.5289 44.0455 18.857C45.9152 20.1018 46.0164 21.4104 44.3633 22.9142C44.2923 23.0347 44.1858 23.0826 44.0491 23.0649C42.8168 23.4497 41.5846 23.3309 40.3524 23.0613C39.7008 22.7156 39.9422 22.1339 39.9689 21.6108C40.15 21.1037 40.5246 21.1835 40.9152 21.2987C41.4248 21.4495 41.9326 21.6232 42.4742 21.5523C42.7707 21.5133 43.069 21.414 43.1613 21.0824C43.2465 20.7827 43.0459 20.577 42.8453 20.4015C42.3996 20.0096 41.8634 19.7507 41.3645 19.4404C40.253 18.7488 39.6795 17.8161 40.0008 16.4701C40.0648 16.291 40.166 16.1439 40.3524 16.0747L40.3506 16.0729Z" fill="#FDFDFD"/>
<path d="M73.8089 23.3007C73.3313 23.3362 72.8128 23.2103 72.2908 23.1074C71.8825 23.0276 71.712 22.8414 71.7209 22.3875C71.7404 21.3218 71.7084 21.3324 72.7347 21.6144C73.2745 21.7633 73.8213 21.8928 74.3931 21.7491C74.7215 21.6675 75.0358 21.5842 75.1139 21.1976C75.1921 20.8128 75.0642 20.4883 74.7375 20.2738C74.2191 19.9333 73.6864 19.6194 73.1608 19.2896C71.9144 18.5076 71.4883 17.683 71.7688 16.6067C72.0192 15.6473 73.1378 14.8653 74.3629 14.7873C74.9293 14.7518 75.4797 14.8742 76.0337 14.9522C76.5095 15.0196 76.6462 15.2342 76.6107 15.7289C76.5628 16.3744 76.4846 16.6705 75.6928 16.4435C75.0607 16.2627 74.1516 15.9913 73.7698 16.7734C73.3277 17.683 74.3185 17.9153 74.8405 18.3214C75.1885 18.5927 75.5791 18.8091 75.952 19.0484C76.7634 19.5698 77.2357 20.2614 77.0635 21.2686C76.8948 22.2509 76.252 22.7971 75.3572 23.1181C74.8725 23.2919 74.3753 23.3131 73.8107 23.2972L73.8089 23.3007Z" fill="#FDFDFD"/>
<path d="M19.3033 23.3291C18.9216 23.2866 18.5363 23.2724 18.1617 23.1997C17.1798 23.0099 16.9294 22.5312 17.2402 21.5931C17.3804 21.1693 17.6006 21.4335 17.7852 21.4885C18.4369 21.6853 19.0832 21.8946 19.7792 21.7669C20.1449 21.6995 20.4752 21.5736 20.5817 21.1729C20.69 20.7668 20.4574 20.4689 20.1662 20.2649C19.6354 19.8926 19.0654 19.5787 18.5185 19.2258C17.3822 18.4935 16.9862 17.7416 17.2046 16.7663C17.4355 15.7414 18.3783 14.9523 19.575 14.8086C20.2586 14.7271 20.9297 14.8388 21.5973 14.9789C21.9489 15.0533 22.0767 15.236 22.0643 15.5977C22.0412 16.2184 22.1371 16.7716 21.1268 16.4418C20.5 16.2379 19.527 15.9595 19.1808 16.8762C18.8594 17.7256 19.7827 17.9508 20.2994 18.3321C20.7024 18.63 21.1357 18.8871 21.5512 19.1691C22.2649 19.6567 22.6804 20.3093 22.5366 21.1959C22.3928 22.0772 21.8814 22.6837 21.0434 23.0259C20.4823 23.2547 19.9052 23.3274 19.3069 23.3291H19.3033Z" fill="#FDFDFD"/>
<path d="M60.7498 11.0883C61.0978 11.0883 61.444 11.0883 61.792 11.0883C62.1596 11.2443 62.0637 11.5742 62.0637 11.8543C62.0672 15.3884 62.0548 18.9226 62.0779 22.4549C62.0814 23.0241 61.9394 23.2156 61.3428 23.2138C59.9419 23.2103 59.9419 23.244 59.9419 21.8449C59.9419 18.5182 59.9597 15.1898 59.9277 11.8632C59.9224 11.216 60.1443 10.9961 60.7498 11.0883Z" fill="#FDFDFD"/>
<path d="M49.1839 14.977C49.1839 17.4543 49.143 19.9315 49.2016 22.4052C49.2229 23.2706 48.7506 23.1996 48.202 23.1766C47.6729 23.1553 47.0816 23.3663 47.1118 22.3999C47.1811 20.2206 47.1633 18.0359 47.1189 15.8566C47.1047 15.1384 47.2805 14.8139 48.0387 14.9256C48.4151 14.9806 48.8021 14.9629 49.1857 14.9788H49.1821L49.1839 14.977Z" fill="#FBFCFC"/>
<path d="M89.6644 14.1702C89.6768 15.337 88.7109 16.3212 87.5479 16.3265C86.424 16.3318 85.4528 15.3955 85.4155 14.2713C85.3782 13.0974 86.3192 12.1132 87.4911 12.0973C88.7002 12.0813 89.6484 12.9874 89.6626 14.1702H89.6644Z" fill="#929AAB" stroke="white" stroke-width="1.11918" stroke-miterlimit="10"/>
<path d="M47.0905 11.4376C47.5326 11.4288 47.9801 11.4536 48.4168 11.4004C49.033 11.3259 49.3117 11.5369 49.1981 12.1664C49.1271 12.5548 49.4325 13.1453 49.0134 13.2942C48.5163 13.4716 47.909 13.3616 47.3497 13.3368C47.055 13.3226 47.1118 13.0478 47.1083 12.8509C47.0994 12.3792 47.103 11.9075 47.1012 11.4359H47.0887L47.0905 11.4376Z" fill="#FBFCFB"/>
<path d="M58.1006 17.6529C57.6834 15.2076 56.1209 14.2837 53.8358 15.1615H53.8464C53.6618 15.3938 53.4771 15.6261 53.2925 15.8602C52.7207 15.7609 53.2214 15.197 52.9125 14.9842C52.6781 14.9682 52.4402 14.9718 52.2094 14.9328C51.3873 14.7927 51.121 15.048 51.1405 15.9471C51.2115 19.1017 51.1707 22.2581 51.1725 25.4145C51.1725 26.6948 51.1725 26.6611 52.4491 26.677C53.0492 26.6841 53.1948 26.4802 53.1753 25.9145C53.1344 24.7265 53.1629 23.5348 53.1629 22.2333C55.2491 24.3115 57.6479 23.1288 58.0775 20.6444C58.2498 19.6461 58.2711 18.6584 58.0988 17.6565L58.1006 17.6529ZM55.883 21.0966C55.6593 21.5559 55.3059 21.8449 54.7786 21.8502C54.2637 21.8556 53.8393 21.641 53.6263 21.1693C52.9853 19.7471 53.0084 18.309 53.6529 16.9011C53.8855 16.3939 54.3862 16.2255 54.9206 16.2716C55.4338 16.3159 55.7676 16.6138 55.9647 17.1032C56.2026 17.6973 56.1262 18.325 56.2363 18.9882C56.1866 19.6673 56.2168 20.4121 55.883 21.0966Z" fill="#FDFDFD"/>
<path d="M70.2382 22.7989C70.1991 20.914 70.2187 19.0272 70.1139 17.1458C70.0393 15.8283 69.3344 15.1686 68.0312 14.8725C67.3849 14.7271 66.7386 14.8352 66.0923 14.7891C65.6822 14.9381 65.2329 14.6916 64.8175 14.9682C64.3132 15.3034 64.0309 16.1191 64.3292 16.6794C64.6577 17.2947 65.0927 16.8567 65.4691 16.7433C66.0337 16.5712 66.5912 16.3283 67.186 16.5588C67.621 16.7273 68.0117 17.0429 67.9548 17.527C67.8927 18.0661 67.3636 17.8498 67.0191 17.903C66.8753 17.926 66.7244 17.8959 66.5788 17.9154C65.6395 18.036 64.6914 18.1424 64.1286 19.068C64.0416 19.2205 63.9439 19.3677 63.8676 19.5255C63.4077 20.4653 63.3811 21.4122 63.9705 22.2953C64.5352 23.1394 65.3945 23.3628 66.3746 23.2972C67.1612 23.244 67.708 22.7706 68.2709 22.2687C68.4591 23.0596 69.3877 23.4816 70.0624 23.1483C70.2293 23.0667 70.2417 22.955 70.2382 22.7989ZM68.3064 19.9387C68.1768 20.7526 68.1502 21.6339 67.1239 21.8981C66.4137 22.0808 65.826 21.9158 65.5206 21.1941C65.2294 20.5026 65.4975 19.8358 66.1651 19.4758C66.6232 19.2276 67.1221 19.201 67.6654 19.1815C68.2869 19.0449 68.3916 19.4085 68.3064 19.9404V19.9387Z" fill="#FDFDFD"/>
<path d="M26.4055 19.5733C27.5845 19.6159 28.7687 19.5698 29.9495 19.5911C30.404 19.5999 30.5887 19.4652 30.5478 18.9864C30.4804 18.192 30.4147 17.4011 30.0951 16.6581C29.305 14.8263 27.0429 14.1933 25.4254 15.353C23.886 16.4577 23.3107 19.2364 24.2038 21.2615C24.9158 22.8787 26.615 23.627 28.6835 23.2369C30.1608 22.9567 30.1998 22.9017 29.953 21.3519C29.2375 21.6285 28.5255 21.9052 27.7425 21.8644C26.6221 21.8041 25.9616 21.2774 25.7841 20.3039C25.6882 19.779 25.8125 19.5556 26.4073 19.5769L26.4055 19.5733ZM26.6594 16.2946C27.1583 16.0286 27.7052 16.0977 28.1136 16.557C28.4651 16.9524 28.5273 17.4596 28.5876 17.9597C28.6196 18.2327 28.474 18.3303 28.2237 18.3285C27.8685 18.3285 27.5134 18.3285 27.1583 18.3285C27.0696 18.3285 26.9719 18.3533 26.8938 18.3249C26.5262 18.192 25.8941 18.6512 25.7947 18.0111C25.6864 17.3089 26.0025 16.6421 26.6576 16.2928L26.6594 16.2946Z" fill="#FDFDFD"/>
<path d="M88.2155 14.3405C88.7233 13.9078 88.5103 13.4751 88.2493 13.0318C87.7201 13.0353 87.1893 13.0407 86.6602 13.0442C86.6619 13.8085 86.6655 14.5728 86.6673 15.337C87.5018 15.5551 86.9762 14.7164 87.3011 14.5196C87.6225 14.6065 87.6669 14.9416 87.8533 15.1455C88.0522 15.3654 88.2297 15.5534 88.4392 15.165C88.3753 14.8849 87.7308 14.7519 88.2155 14.3387V14.3405ZM87.5337 14.0355C87.3189 14.0887 87.1928 14.0213 87.1839 13.7837C87.1733 13.5354 87.239 13.3723 87.5355 13.4396C87.8089 13.3971 88.0415 13.4751 88.0113 13.7819C87.9883 14.016 87.7699 14.0887 87.5355 14.0355H87.5337Z" fill="#EAF3EB"/>
</g>
<defs>
<clipPath id="clip0_1_1023">
<rect width="89" height="34" fill="white" transform="translate(8 5)"/>
</clipPath>
</defs>
</svg>
