<svg width="105" height="45" viewBox="0 0 105 45" fill="none" xmlns="http://www.w3.org/2000/svg">
<g clip-path="url(#clip0_1_1000)">
<path fill-rule="evenodd" clip-rule="evenodd" d="M24.9094 24.3072C24.9094 25.5076 24.6111 26.5495 24.0134 27.4336C22.7337 29.2658 20.5154 30.1808 17.3585 30.1808C15.2039 30.1808 13.3589 29.6964 11.8231 28.7284C10.1168 27.6343 9.25276 26.1602 9.23169 24.3072H13.8707C13.8707 25.1284 14.2336 25.7707 14.9584 26.2338C15.5985 26.6338 16.3879 26.8338 17.3263 26.8338C18.1581 26.8338 18.873 26.6763 19.47 26.3602C20.0886 26.0233 20.3982 25.5922 20.3982 25.0654C20.3982 24.3705 19.4916 23.8231 17.6783 23.4231C14.9906 22.8126 13.295 22.3387 12.591 22.002C10.7777 21.139 9.87108 19.8123 9.87108 18.0231C9.87108 16.97 10.1274 16.0121 10.639 15.1492C11.1512 14.2862 12.0148 13.6018 13.2311 13.0964C14.4468 12.5703 15.7585 12.3072 17.166 12.3072C19.0863 12.3072 20.6965 12.7598 21.9975 13.6651C23.4909 14.6756 24.2906 16.1072 24.3976 17.9602H19.9501C19.7157 16.4654 18.713 15.7179 16.9426 15.7179C16.217 15.7179 15.5878 15.8754 15.0547 16.1915C14.5216 16.5072 14.2551 16.9072 14.2551 17.3915C14.2551 18.0233 15.1719 18.539 17.0067 18.939C19.6729 19.5287 21.39 20.0025 22.158 20.36C23.9921 21.2441 24.9094 22.56 24.9094 24.3072Z" fill="#929AAB"/>
<path fill-rule="evenodd" clip-rule="evenodd" d="M47.2569 29.6759H42.7453V19.5072C42.7453 18.328 42.5642 17.4962 42.2013 17.0126C41.7532 16.4439 40.9533 16.1596 39.8017 16.1596C37.4764 16.1596 36.3139 17.4544 36.3139 20.0441V29.6759H31.8027V12.8439H36.1219V14.4231C36.1219 15.0336 36.1326 15.3385 36.1541 15.3385C36.1541 15.3173 36.1643 15.3072 36.1858 15.3072C36.7189 14.3806 37.4762 13.6649 38.4576 13.1596C39.4604 12.6334 40.5159 12.3703 41.6252 12.3703C43.8861 12.3703 45.5289 13.2439 46.5527 14.9913C47.0219 15.8336 47.2567 16.8441 47.2567 18.0233L47.2569 29.6759Z" fill="#929AAB"/>
<path fill-rule="evenodd" clip-rule="evenodd" d="M63.9877 24.3072C63.9877 25.5076 63.6894 26.5495 63.0917 27.4336C61.812 29.2658 59.5937 30.1808 56.4369 30.1808C54.2822 30.1808 52.4373 29.6964 50.9014 28.7284C49.1952 27.634 48.3309 26.16 48.3101 24.3072H52.949C52.949 25.1284 53.3119 25.7707 54.0368 26.2338C54.6769 26.6338 55.4663 26.8338 56.4047 26.8338C57.2367 26.8338 57.9514 26.6763 58.5484 26.3602C59.1669 26.0233 59.4766 25.5922 59.4766 25.0654C59.4766 24.3705 58.5699 23.8231 56.7567 23.4231C54.069 22.8126 52.3736 22.3387 51.6693 22.002C49.8561 21.139 48.9494 19.8123 48.9494 18.0231C48.9494 16.97 49.2058 16.0121 49.7174 15.1492C50.2296 14.2862 51.0932 13.6018 52.3094 13.0964C53.5252 12.5703 54.8369 12.3072 56.2444 12.3072C58.1647 12.3072 59.7748 12.7598 61.0758 13.6651C62.5693 14.6756 63.3689 16.1072 63.4759 17.9602H59.0282C58.7939 16.4654 57.7911 15.7179 56.0207 15.7179C55.2952 15.7179 54.666 15.8754 54.1326 16.1915C53.5996 16.5072 53.333 16.9072 53.333 17.3915C53.333 18.0233 54.2498 18.539 56.0846 18.939C58.7508 19.5287 60.468 20.0025 61.2359 20.36C63.0704 21.2441 63.9877 22.56 63.9877 24.3072Z" fill="#929AAB"/>
<path fill-rule="evenodd" clip-rule="evenodd" d="M80.2788 29.6759H76.0875C75.9592 29.4446 75.8205 28.9922 75.6715 28.318C74.6262 29.4551 72.9625 30.0229 70.6801 30.0229C69.1017 30.0229 67.8006 29.6658 66.7768 28.9497C65.5821 28.1079 64.9851 26.8864 64.9851 25.2864C64.9851 22.9918 65.8913 21.4126 67.7045 20.5495C68.5364 20.149 70.232 19.7916 72.7919 19.4754C74.6051 19.2441 75.5118 18.7598 75.5118 18.0231C75.5118 17.3701 75.2343 16.8544 74.6797 16.4752C74.1466 16.0752 73.5172 15.8752 72.7919 15.8752C72.0453 15.8752 71.4052 16.0752 70.8721 16.4752C70.3726 16.8453 70.0521 17.3406 69.9108 17.9607H65.5513C65.6842 16.765 66.0376 15.7856 66.5207 15.0226C67.0753 14.1804 67.9604 13.5278 69.1767 13.0647C70.307 12.6434 71.587 12.4329 73.016 12.4329C77.8581 12.4748 80.2793 14.7596 80.2793 19.2857V29.6759H80.2788ZM75.5113 21.4652C75.0632 21.8233 74.2742 22.1074 73.1434 22.3182C71.8637 22.5495 71.0319 22.7708 70.6477 22.9813C69.8587 23.3813 69.4643 24.0761 69.4643 25.0654C69.4643 26.3289 70.1361 26.9602 71.4797 26.9602C72.0983 26.9602 72.7384 26.8233 73.4 26.5497C74.0612 26.2553 74.5625 25.9079 74.9036 25.5079C75.3513 24.9605 75.5754 24.15 75.5754 23.0759C75.5754 22.8864 75.5648 22.6128 75.5433 22.2553C75.522 21.8969 75.5113 21.6338 75.5113 21.4652Z" fill="#929AAB"/>
<path d="M30.4701 6.20822H25.959V10.6608H30.4701V6.20822Z" fill="#929AAB"/>
<path d="M30.4699 21.2578H25.9587V29.6741H30.4699V21.2578Z" fill="#929AAB"/>
<path fill-rule="evenodd" clip-rule="evenodd" d="M96.935 30.6233C96.935 32.8548 96.1245 34.6441 94.5032 35.992C93.0102 37.192 91.2185 37.7918 89.1278 37.7918C87.0802 37.7918 85.3523 37.2025 83.9443 36.0233C82.3874 34.6971 81.6086 32.8864 81.6086 30.5915H85.8C85.8 31.6651 86.1203 32.5074 86.7599 33.1179C87.3145 33.6654 88.0185 33.9392 88.8719 33.9392C89.8102 33.9392 90.6314 33.6235 91.3354 32.9918C92.082 32.2756 92.4553 31.339 92.4553 30.181V27.5918C92.1355 28.3497 91.5487 28.9392 90.6953 29.3602C89.8635 29.7808 88.9249 29.9915 87.8798 29.9915C86.2159 29.9915 84.7977 29.5079 83.6245 28.5392C82.2805 27.4235 81.6086 25.8864 81.6086 23.9284V12.8439H86.1203V23.2656C86.1203 25.3497 87.0802 26.392 88.9997 26.392C90.0235 26.392 90.8554 26.0971 91.4954 25.5076C92.1355 24.9177 92.4553 24.1705 92.4553 23.2654V12.8439H96.9348V30.6233H96.935Z" fill="#929AAB"/>
</g>
<defs>
<clipPath id="clip0_1_1000">
<rect width="88" height="32" fill="white" transform="translate(9 6)"/>
</clipPath>
</defs>
</svg>
