<svg width="105" height="45" viewBox="0 0 105 45" fill="none" xmlns="http://www.w3.org/2000/svg">
<path d="M96.7822 7H10V36.9386H96.7822V7Z" fill="#929AAB"/>
<path d="M22.9948 14.502C22.4897 13.6267 21.7521 13.0757 20.6271 13.0757C19.5021 13.0757 18.3743 13.905 18.1906 15.03C17.7314 17.9516 24.8142 16.7319 23.893 22.552C23.342 26.0245 20.7878 28.484 17.2464 28.484C14.8558 28.484 13.3146 27.1036 12.4393 25.1033L14.9705 22.9653C15.2231 24.2998 16.2362 25.4965 17.6855 25.4965C19.1348 25.4965 20.122 24.3227 20.3315 22.9882C20.607 21.1945 19.0429 20.6894 17.7544 20.1585C15.6852 19.2373 14.2129 18.1123 14.6491 15.4203C15.1083 12.5447 17.6166 10.223 20.5381 10.223C22.0792 10.223 24.0795 10.9806 24.9548 12.1544L23.0005 14.4991L22.9948 14.502Z" fill="white"/>
<path d="M28.7833 16.7347L27.8161 22.8533C27.6095 24.1419 27.5636 25.683 29.1966 25.683C30.8295 25.683 31.2887 24.1419 31.4953 22.8533L32.4625 16.7347H35.6825L34.6235 23.3813C34.0955 26.6702 32.1152 28.395 28.7575 28.395C25.3997 28.395 23.9734 26.6702 24.5015 23.3813L25.5604 16.7347H28.7804H28.7833Z" fill="white"/>
<path d="M39.9155 17.7677C40.7909 16.8924 42.0536 16.3643 43.2503 16.3643C46.4474 16.3643 47.9426 19.3547 47.4605 22.3222C46.9783 25.4045 44.6078 28.3949 41.273 28.3949C40.1222 28.3949 38.9972 27.8898 38.4892 26.9685H38.4433L37.3384 34.0514H34.1184L36.8562 16.7346H40.0763L39.9155 17.7706V17.7677ZM44.1945 22.3681C44.4241 20.85 43.6894 19.217 42.0335 19.217C40.3776 19.217 39.089 20.85 38.8595 22.3681C38.6299 23.8863 39.3645 25.5422 41.0204 25.5422C42.6763 25.5422 43.9649 23.8863 44.1945 22.3681Z" fill="white"/>
<path d="M52.1439 17.9055H52.1899C52.9935 16.9154 54.0294 16.3643 55.2262 16.3643C55.6853 16.3643 56.1474 16.4791 56.5147 16.6398L55.6624 19.6303C55.318 19.3548 54.8818 19.217 54.3968 19.217C52.1669 19.217 51.613 21.1943 51.3375 22.9421L50.534 28.0247H47.314L49.1076 16.7317H52.3276L52.1439 17.9055Z" fill="white"/>
<path d="M58.5151 22.8963C58.3085 24.3227 58.584 25.9327 60.2628 25.9327C61.3218 25.9327 62.1025 25.2898 62.6764 24.3915L65.575 24.8737C64.4242 27.1265 62.2402 28.3922 59.8726 28.3922C56.3771 28.3922 54.6522 25.9069 55.1803 22.4802C55.7313 19.0536 57.9641 16.3616 61.6203 16.3616C65.2765 16.3616 66.5421 19.0995 66.0141 22.5032L65.9452 22.8935H58.5151V22.8963ZM63.2303 20.896C63.2533 19.7452 62.7023 18.6202 61.4596 18.6202C60.217 18.6202 59.2756 19.7251 58.9312 20.896H63.2332H63.2303Z" fill="white"/>
<path d="M70.5889 17.7448H70.6349C71.3954 16.8465 72.5662 16.3643 73.6023 16.3643C75.0056 16.3643 76.0159 16.9383 76.5697 18.1351C77.4451 17.0302 78.8226 16.3643 80.1341 16.3643C83.0097 16.3643 83.3771 18.5254 82.9868 20.9877L81.8819 28.0247H78.6619L79.6061 22.0897C79.7668 20.9848 80.1801 18.9386 78.593 18.9386C76.8453 18.9386 76.4779 21.3063 76.2942 22.4801L75.4218 28.0218H72.2018L73.1 22.2964C73.2837 21.1915 73.7888 18.9386 72.1099 18.9386C70.3163 18.9386 70.0178 21.2833 69.8341 22.4801L68.9617 28.0218H65.7417L67.5354 16.7288H70.7554L70.5946 17.7419L70.5889 17.7448Z" fill="white"/>
<path d="M86.8697 22.8963C86.663 24.3227 86.9386 25.9327 88.6175 25.9327C89.6764 25.9327 90.457 25.2898 91.031 24.3915L93.9296 24.8737C92.7788 27.1265 90.5948 28.3922 88.2271 28.3922C84.7316 28.3922 83.0068 25.9069 83.5349 22.4802C84.0859 19.0536 86.3187 16.3616 89.9749 16.3616C93.6311 16.3616 94.8968 19.0995 94.3687 22.5032L94.2998 22.8935H86.8725L86.8697 22.8963ZM91.5849 20.896C91.6079 19.7452 91.0568 18.6202 89.8142 18.6202C88.5715 18.6202 87.6302 19.7251 87.2859 20.896H91.5878H91.5849Z" fill="white"/>
</svg>
