<svg width="105" height="45" viewBox="0 0 105 45" fill="none" xmlns="http://www.w3.org/2000/svg">
<path fill-rule="evenodd" clip-rule="evenodd" d="M64.3361 6.89418V5.00417H56.7678V15.3931H64.3361V13.6786H58.8741V10.8579H63.6584V9.00053H58.8741V6.89418H64.3361Z" fill="#929AAB"/>
<path fill-rule="evenodd" clip-rule="evenodd" d="M62.2298 16.4625V20.4589H58.0865V16.4625H55.9474V26.8147H58.0865V22.1734H62.2298V26.8147H64.3362V16.4625H62.2298Z" fill="#929AAB"/>
<path fill-rule="evenodd" clip-rule="evenodd" d="M64.3361 29.7417V27.8843H56.7678V38.4161H64.3361V36.5261H58.8741V33.7421H63.6584V32.0277H58.8741V29.7417H64.3361Z" fill="#929AAB"/>
<path fill-rule="evenodd" clip-rule="evenodd" d="M55.5515 5.00417H53.4493V9.00053H49.3058V5.00417H47.1996V15.3931H49.3058V10.7518H53.4493V15.3931H55.5515V5.00417Z" fill="#929AAB"/>
<path fill-rule="evenodd" clip-rule="evenodd" d="M38.1332 5.00417V6.89418H41.3456V15.3931H43.4521V6.89418H46.6647V5.00417H38.1332Z" fill="#929AAB"/>
<path fill-rule="evenodd" clip-rule="evenodd" d="M31.4914 16.1767C28.1727 16.1767 26.4213 18.0708 26.4213 21.6386C26.4213 25.3859 28.1686 27.2433 31.4914 27.2433C34.8142 27.2433 36.5245 25.3859 36.5245 21.6386C36.5245 17.8912 34.8102 16.1767 31.4914 16.1767ZM28.7073 21.6386C28.7073 19.2464 29.634 18.0708 31.4914 18.0708C33.4916 18.0708 34.4182 19.2505 34.4182 21.6386C34.4182 24.1735 33.4916 25.3859 31.4914 25.3859C29.634 25.3859 28.7073 24.1735 28.7073 21.6386Z" fill="#929AAB"/>
<path fill-rule="evenodd" clip-rule="evenodd" d="M23.3884 16.4625V23.7817L19.2491 16.4625H17V26.8147H19.0002V19.5322L23.2455 26.8147H25.4949V16.4625H23.3884Z" fill="#929AAB"/>
<path fill-rule="evenodd" clip-rule="evenodd" d="M33.2057 32.1705V29.7417H38.5248V27.8843H31.0995V38.4161H33.2057V34.0279H37.8838V32.1705H33.2057Z" fill="#929AAB"/>
<path fill-rule="evenodd" clip-rule="evenodd" d="M55.1593 18.3199V16.4625H46.6644V18.3199H49.8402V26.8147H51.9833V18.3199H55.1593Z" fill="#929AAB"/>
<path fill-rule="evenodd" clip-rule="evenodd" d="M41.9865 22.851C42.6642 22.851 43.1988 22.9571 43.4519 23.2429L43.8438 26.8147H46.2359V26.5657C45.9869 26.4229 45.844 25.782 45.844 24.5655C45.844 23.1 45.3093 22.3163 44.5215 21.9244C45.591 21.4958 46.1298 20.712 46.1298 19.3894C46.1298 17.532 45.0604 16.4625 42.8111 16.4625H37.5983V26.8147H39.7414V22.851H41.9905H41.9865ZM39.7372 21.0998V18.3158H42.3784C43.4479 18.3158 43.9825 18.7077 43.9825 19.6384C43.9825 20.5691 43.4479 21.1039 42.2682 21.1039H39.7332L39.7372 21.0998Z" fill="#929AAB"/>
<path fill-rule="evenodd" clip-rule="evenodd" d="M43.4519 27.8843H40.9169L37.2021 38.4161H39.4515L40.2719 36.1302H44.1254L44.7664 38.4161H47.0522L43.4479 27.8843H43.4519ZM42.1294 30.2764L43.4519 34.4157H40.8107L42.1334 30.2764H42.1294Z" fill="#929AAB"/>
<path fill-rule="evenodd" clip-rule="evenodd" d="M53.8408 31.35H55.947C55.8409 30.4234 55.5551 29.6355 54.9102 28.9579C53.9835 28.1741 52.9099 27.6353 51.4485 27.6353C49.9871 27.6353 48.9136 28.17 47.9869 29.1008C47.2032 30.0274 46.6644 31.35 46.6644 33.0972C46.6644 36.8078 48.2361 38.6651 51.3058 38.6651C53.9837 38.6651 55.4449 37.3425 55.947 34.8116H53.8408C53.555 36.024 52.6283 36.669 51.4485 36.669C49.6973 36.669 48.9136 35.4892 48.9136 33.2074C48.9136 30.7091 49.6973 29.4967 51.4485 29.4967C52.6283 29.4967 53.306 30.1744 53.8408 31.3541V31.35Z" fill="#929AAB"/>
<path fill-rule="evenodd" clip-rule="evenodd" d="M65.7974 5.00409C72.4389 5.00409 78.1865 7.43294 82.8238 12.0743C87.608 16.8585 90 22.5694 90 29.2436V38.4161H80.2888V28.9579C80.2888 25.2472 78.9662 22.0346 76.2924 19.3894C75.6515 18.7118 74.9698 18.177 74.186 17.6382C72.0429 16.1727 69.5078 15.5318 66.8667 15.5318H65.7974V5V5.00409ZM79.3622 38.4161V28.9579C79.3622 25.4962 78.1823 22.5694 75.6514 20.0344C75.2595 19.6425 74.7248 19.1077 74.186 18.8547C72.0429 17.2504 69.6507 16.4625 66.8667 16.4625H65.7974V26.9576H67.6546C68.7242 26.9576 69.7977 27.3495 70.5815 28.17C71.402 28.9538 71.7939 29.8845 71.7939 31.0969V38.4161H79.3622ZM70.8673 38.4161V31.0969C70.8673 30.1702 70.4754 29.3457 69.9407 28.8109C69.263 28.17 68.4751 27.8843 67.6546 27.8843H65.7974V38.4161H70.8673Z" fill="#929AAB"/>
</svg>
