<svg width="105" height="45" viewBox="0 0 105 45" fill="none" xmlns="http://www.w3.org/2000/svg">
<path fill-rule="evenodd" clip-rule="evenodd" d="M91.7675 27.4574C90.5295 27.4427 87.1595 27.1484 85.3173 27.1288C83.8828 27.1141 82.7185 27.2465 82.2715 27.3054C82.4238 27.5065 82.581 27.6977 82.748 27.8841C83.3473 27.889 85.0274 27.9626 88.1567 28.4923C90.7555 28.9337 92.2047 29.0023 92.9072 28.9974C93.6146 28.4972 94.2385 27.8792 94.7396 27.173C94.0322 27.3005 92.7107 27.4721 91.7626 27.4623L91.7675 27.4574Z" fill="#929AAB"/>
<path fill-rule="evenodd" clip-rule="evenodd" d="M88.0781 28.6931C85.2927 28.1978 83.6519 28.0752 82.9052 28.0507C84.3052 29.5073 86.2801 30.4097 88.4613 30.4097C89.9694 30.4097 91.3744 29.9781 92.5584 29.2326C91.7822 29.213 90.3821 29.1051 88.0781 28.6931Z" fill="#929AAB"/>
<path fill-rule="evenodd" clip-rule="evenodd" d="M20.7267 28.7232C20.3779 28.5123 20.3042 28.267 20.3042 28.0218V20.7976C20.3042 20.1649 20.0242 19.954 19.8474 19.954C19.4249 19.954 17.4599 20.7976 17.003 21.0428C16.5461 21.288 16.8998 21.6019 17.1062 21.7098C17.3174 21.8128 17.4942 21.9207 17.4942 22.4798V28.0218C17.4942 28.267 17.4255 28.5123 17.0718 28.7232C16.9981 28.7673 16.9539 28.8262 16.9342 28.8899C16.9047 28.8114 16.836 28.733 16.7279 28.6545C16.2022 28.267 16.271 28.0954 16.271 27.6393V17.6784C16.271 17.1536 16.2366 16.7318 16.5166 16.7318C17.2191 16.7318 17.6072 18.0658 17.9904 18.978C18.3785 19.8903 19.641 19.3998 19.4986 18.7672C19.3561 18.1345 19.0761 16.3493 18.9385 15.7166C18.7961 15.0839 18.5505 14.6671 18.3048 14.6671C18.0592 14.6671 17.6367 15.0545 17.6367 15.0545L14.6646 15.1085L11.6925 15.0545C11.6925 15.0545 11.27 14.6671 11.0244 14.6671C10.7788 14.6671 10.543 15.0839 10.4054 15.7117C10.2629 16.3444 9.98292 18.1345 9.84046 18.7623C9.69799 19.3949 10.9654 19.8854 11.3486 18.9731C11.7367 18.0609 12.1199 16.7269 12.8224 16.7269C13.1024 16.7269 13.068 17.1487 13.068 17.6735V27.6344C13.068 28.0905 13.1368 28.267 12.6111 28.6496C12.0855 29.037 12.5424 29.449 13.3824 29.449H15.9566C16.4773 29.449 16.8507 29.2921 16.9342 29.0763C16.9932 29.2676 17.1946 29.449 17.4206 29.449H20.373C20.7611 29.449 21.0755 28.9291 20.7218 28.7183L20.7267 28.7232Z" fill="#929AAB"/>
<path fill-rule="evenodd" clip-rule="evenodd" d="M55.2526 28.7225C54.9039 28.5116 54.8302 28.2664 54.8302 28.0211V16.069C54.8302 15.4364 54.5501 15.2255 54.3733 15.2255C53.9508 15.2255 51.9858 16.069 51.5289 16.3142C51.072 16.5595 51.4257 16.8734 51.6321 16.9813C51.8433 17.0842 52.0202 17.1921 52.0202 17.7512V20.4242C51.8384 20.1691 51.524 20.0073 51.0327 20.0073C49.3723 20.0073 49.6425 21.2089 48.7189 21.4639V20.792C48.7189 20.1593 48.4389 19.9484 48.2621 19.9484C47.8396 19.9484 45.8745 20.792 45.4177 21.0372C44.9608 21.2824 45.3145 21.5963 45.5208 21.7042C45.7321 21.8072 45.9089 21.9151 45.9089 22.4742V28.0162C45.9089 28.2615 45.8402 28.5067 45.4865 28.7176C45.1377 28.9285 45.4521 29.4483 45.8352 29.4483H48.7877C49.1758 29.4483 49.4902 28.9285 49.1365 28.7176C48.7877 28.5067 48.714 28.2615 48.714 28.0162V24.4164C48.9351 23.7052 49.4705 22.2829 50.2909 22.2829C50.6397 22.2829 50.5366 23.2295 51.3422 23.2295C51.5289 23.2295 51.8138 22.8273 52.0103 22.3075V28.0162C52.0103 28.2615 51.9416 28.5067 51.5879 28.7176C51.2342 28.9285 51.5535 29.4483 51.9367 29.4483H54.8891C55.2772 29.4483 55.5916 28.9285 55.2379 28.7176L55.2526 28.7225Z" fill="#929AAB"/>
<path fill-rule="evenodd" clip-rule="evenodd" d="M86.9485 19.4288L86.5898 20.2527L87.14 20.7971L86.9485 19.4288Z" fill="white"/>
<path fill-rule="evenodd" clip-rule="evenodd" d="M95.9089 20.7185L91.7774 21.773L92.2196 20.9343C93.1972 20.7823 94.4401 20.4684 95.6093 19.8406C95.5208 19.6199 95.4177 19.3992 95.3096 19.1884C94.3074 19.6837 93.4133 19.9142 92.7059 20.0074L93.3495 18.7911L95.0148 18.6734C94.8674 18.438 94.7102 18.2124 94.5432 17.9917H92.6175L93.374 16.7852C93.2168 16.6528 93.0547 16.5301 92.8877 16.4124L91.3402 18.5655L90.8883 17.6729L90.962 17.359L92.4308 16.1182C92.2687 16.0201 92.1066 15.9318 91.9396 15.8435L90.3823 16.6773L89.5815 15.0931C89.3506 15.0588 89.1197 15.0343 88.8839 15.0245L89.7338 17.2021L89.4833 17.4277L88.2257 15.0147C88.152 15.0147 88.0783 15.0196 88.0046 15.0245L87.0417 17.05L86.0445 15.3923C85.7202 15.5002 85.4058 15.6277 85.1013 15.77L85.057 17.104L83.6324 16.6969C83.3376 16.9323 83.0625 17.1873 82.8022 17.4669L84.5216 19.5758L84.0451 19.6101L82.4976 17.8151C82.3109 18.0407 82.1341 18.281 81.9769 18.5263L82.9348 19.6886L81.3038 19.8063C80.9403 20.6989 80.7389 21.6798 80.7389 22.7048C80.7389 24.3723 81.2695 25.9172 82.1783 27.1826C82.5418 27.1286 83.77 26.9619 85.3076 26.9619C87.1498 26.9619 90.5247 27.2267 91.7627 27.2267C92.8091 27.2267 94.3123 27.0011 94.9411 26.8687C95.7124 25.6671 96.1644 24.2399 96.1644 22.7097C96.1644 22.0182 96.071 21.3512 95.904 20.7136L95.9089 20.7185ZM92.0673 18.8794L92.4849 18.8499L91.7529 20.0662C91.5858 20.0662 91.4483 20.0515 91.3353 20.0417L92.0673 18.8794ZM91.1585 21.052L90.5346 22.0869L89.9549 22.234L90.6869 21.0766C90.8048 21.0766 90.9669 21.0667 91.1634 21.052H91.1585ZM90.4314 18.9677L90.6525 19.5366L89.3899 21.2874L89.3359 19.7229L90.4265 18.9677H90.4314ZM86.1722 17.4375L85.8431 17.3982L85.8087 16.8048L86.1722 17.4424V17.4375ZM86.5456 18.3791L85.9462 19.3943L85.8774 18.1633L86.5406 18.3742L86.5456 18.3791ZM83.8043 17.5012L84.9588 17.8691L85.0177 18.6979L83.8043 17.5012ZM84.163 20.3311L85.2781 20.2968L85.6662 20.6254L84.5756 21.5032L83.5341 21.1109L84.158 20.336L84.163 20.3311ZM82.9397 20.3703L82.645 20.7676L81.6968 20.4096L82.9397 20.3703ZM81.8147 21.1648L82.2078 21.3512L81.6625 22.082C81.6919 21.7681 81.7411 21.4591 81.8147 21.1599V21.1648ZM87.7786 25.8682C85.8824 25.5886 83.9959 25.3238 82.1242 25.2698C81.8098 24.4851 81.633 23.6269 81.633 22.7294C81.633 22.7097 81.633 22.6901 81.633 22.6705L82.0014 22.6852H82.2569L83.0232 21.7387L83.9075 22.1604L83.485 22.7441L84.4774 22.7833L86.3638 21.2139L86.8403 21.7436L84.9391 22.798L86.521 22.8618L87.5035 22.4841L87.867 22.8912L87.7737 25.8633L87.7786 25.8682ZM88.1569 20.9L88.0341 20.385L88.486 20.184L88.5008 20.9245L88.152 20.9049L88.1569 20.9ZM88.545 19.0755L87.8965 19.5464L87.5232 18.0849L88.1913 16.5498L88.7759 17.7759L88.5499 19.0755H88.545ZM94.3664 26.5842C92.7207 26.545 91.0749 26.3439 89.4243 26.1085C89.0755 24.6372 89.2426 23.1462 89.2426 23.1462L91.7627 22.5185L92.1213 23.0383L92.7894 23.004L92.6126 22.3076L93.6 22.0623C93.7719 22.3076 94.219 22.8961 94.6857 23.1462L95.2113 22.901C95.2113 22.901 94.725 22.2978 94.5776 21.822L95.4226 21.6111C95.4815 21.979 95.511 22.3517 95.511 22.7343C95.511 24.1565 95.0885 25.4807 94.3615 26.5891L94.3664 26.5842Z" fill="#929AAB"/>
<path fill-rule="evenodd" clip-rule="evenodd" d="M36.6044 19.816C35.8381 19.816 35.9658 20.1593 35.4107 20.3064V15.8188C35.4107 15.1862 35.1307 14.9753 34.9538 14.9753C34.5313 14.9753 32.7481 15.8188 32.2912 16.0641C31.8343 16.3093 32.188 16.7997 32.3944 16.9076C32.6056 17.0106 32.6007 17.1185 32.6007 17.6776V28.1584C32.6007 28.4527 32.6204 28.6832 32.6449 28.8548C32.6204 28.8009 32.5811 28.7567 32.5172 28.7175C32.1684 28.5066 32.0947 28.2614 32.0947 28.0162C32.0947 27.5257 32.247 20.0563 29.4714 20.0563C28.4643 20.0563 28.4152 20.8165 27.7815 20.9734C27.5113 20.4094 27.0298 19.9484 26.2045 19.9484C24.8339 19.9484 25.0108 20.7478 24.3083 20.9293V20.7919C24.3083 20.1593 24.0283 19.9484 23.8514 19.9484C23.4289 19.9484 21.4639 20.7919 21.007 21.0372C20.5502 21.2824 20.9039 21.5963 21.1102 21.7042C21.3214 21.8072 21.4983 21.9151 21.4983 22.4742V28.0162C21.4983 28.2614 21.4295 28.5066 21.0758 28.7175C20.727 28.9284 21.0414 29.4483 21.4295 29.4483H24.382C24.7701 29.4483 25.0845 28.9284 24.7308 28.7175C24.382 28.5066 24.3083 28.2614 24.3083 28.0162V22.7733C24.3083 22.2289 24.7013 21.8758 25.0108 21.8758C25.3203 21.8758 25.5757 22.0867 25.5757 22.7194V28.0162C25.5757 28.2614 25.5069 28.5066 25.1532 28.7175C24.8044 28.9284 25.1189 29.4483 25.502 29.4483H28.1548C28.5429 29.4483 28.8573 28.9284 28.5085 28.7175C28.1548 28.5066 28.086 28.2614 28.086 28.0162C28.086 28.0162 28.086 22.4006 28.086 22.381C28.086 22.1946 28.3562 22.023 28.5871 22.023C29.324 22.023 29.5746 27.2462 29.5746 28.0162C29.5746 28.2614 29.5058 28.5066 29.1521 28.7175C28.8033 28.9284 29.1177 29.4483 29.5009 29.4483H32.1537C32.4189 29.4483 32.6498 29.203 32.6547 28.9823C32.7776 29.5071 33.0281 29.4483 33.1804 29.4483C33.3916 29.4483 33.5881 29.5709 34.1629 28.6145C34.2661 28.438 34.5117 28.5458 34.831 28.8941C35.1454 29.2423 35.3223 29.6641 36.6585 29.6641C37.9947 29.6641 39.4341 29.4532 39.4341 24.6517C39.4341 20.8655 37.361 19.8111 36.5897 19.8111L36.6044 19.816ZM36.182 27.3197C35.4795 27.3197 35.3763 25.1814 35.3763 24.4457C35.3763 23.7101 35.6219 21.2922 36.2557 21.2922C36.8894 21.2922 37.1694 23.3962 37.1694 24.4457C37.1694 25.4953 36.8894 27.3197 36.1869 27.3197H36.182Z" fill="#929AAB"/>
<path fill-rule="evenodd" clip-rule="evenodd" d="M44.3659 26.653C44.3659 27.3887 44.0171 27.3544 43.6634 27.3544C43.3981 27.3544 42.5974 27.4034 42.0374 26.0253C42.0226 25.8585 42.0324 25.4318 42.5384 25.319C42.5384 25.319 44.9603 24.3725 45.2404 24.2302C45.5204 24.088 45.5548 23.5976 45.5548 23.215C45.5548 22.8325 44.9554 19.8849 42.676 19.8849C40.3966 19.8849 39.5172 22.3371 39.5172 25.0051C39.5172 27.6732 40.7797 29.7036 43.0641 29.7036C45.3484 29.7036 45.6972 28.2666 45.6972 27.3544C45.6972 26.3048 44.361 26.0547 44.361 26.653H44.3659ZM41.5903 24.1616C41.2415 21.4789 41.8359 21.1797 42.1504 21.1797C42.4648 21.1797 43.1673 22.1606 43.1673 23.1071C43.1673 24.0537 42.3616 24.3332 41.9735 24.3332C41.8163 24.3332 41.61 24.3136 41.5854 24.1567L41.5903 24.1616Z" fill="#929AAB"/>
<path fill-rule="evenodd" clip-rule="evenodd" d="M70.2162 28.7225C69.8625 28.5116 69.7937 28.2664 69.7937 28.0211C69.7937 27.5307 69.946 20.0612 67.1704 20.0612C66.2911 20.0612 66.1437 20.64 65.7016 20.8901V20.7969C65.7016 20.1642 65.4216 19.9533 65.2447 19.9533C64.8222 19.9533 62.8572 20.7969 62.4003 21.0421C61.9435 21.2873 62.2972 21.6012 62.5035 21.7091C62.7147 21.8121 62.8916 21.92 62.8916 22.4791V28.0211C62.8916 28.2565 62.8277 28.492 62.5084 28.6979C62.4593 28.3988 62.2087 28.0555 61.9533 28.0555C61.6733 28.0555 61.6045 27.8102 61.6045 27.4964C61.6045 27.1825 61.6045 27.0402 61.3245 23.5679C61.0445 20.0956 59.5707 20.2035 58.0232 20.2035C56.4758 20.2035 55.1445 20.9391 55.1445 22.1309C55.1445 23.3227 55.9157 23.4257 56.5151 23.4257C57.1144 23.4257 57.5664 23.2834 57.5664 22.5135C57.5664 21.7435 57.0751 21.4982 57.0751 21.4982C57.0751 21.4982 57.3207 21.4296 57.8808 21.4296C58.4408 21.4296 58.7601 22.3075 58.7601 23.0775C58.7601 23.7101 57.6351 23.7445 57.2126 23.9554C55.7536 24.6861 55.0364 25.8485 55.0364 27.2855C55.0364 28.7225 55.8813 29.4532 56.1614 29.4532H58.6176C59.1777 29.4532 59.4233 29.1442 59.6002 29.1442C59.777 29.1442 59.8802 29.4532 60.0914 29.4532H61.6389C62.1105 29.4532 62.3365 29.3797 62.4396 29.2669C62.533 29.3748 62.6705 29.4532 62.8228 29.4532H65.7753C66.1634 29.4532 66.4778 28.9334 66.1241 28.7225C65.7753 28.5116 65.7016 28.2664 65.7016 28.0211V22.5625C65.7016 22.3467 65.9816 22.023 66.2911 22.023C67.028 22.023 67.2785 27.2462 67.2785 28.0162C67.2785 28.2614 67.2097 28.5067 66.856 28.7176C66.5072 28.9285 66.8216 29.4483 67.2048 29.4483H69.8576C70.2457 29.4483 70.5601 28.9285 70.2064 28.7176L70.2162 28.7225ZM58.9026 27.5307C58.9026 27.8446 58.8338 28.232 58.4113 28.232C57.9888 28.232 57.5664 28.0898 57.5664 26.6871C57.5664 25.2845 58.1657 24.7254 58.9026 24.7254V27.5307Z" fill="#929AAB"/>
<path fill-rule="evenodd" clip-rule="evenodd" d="M77.3148 28.7224C76.966 28.5115 76.8923 28.2663 76.8923 28.021V16.3828C76.8923 15.7501 76.6123 15.5392 76.4354 15.5392C76.1407 15.5392 75.1876 16.1131 74.4311 16.4466C74.097 16.5937 73.7335 16.5545 73.591 16.628C73.1342 16.8733 73.4879 17.1871 73.6942 17.295C73.9055 17.398 74.0823 17.5059 74.0823 18.065V20.8311C73.8907 20.6546 73.424 20.3015 72.7412 20.3015C71.8274 20.3015 69.9656 22.018 69.9656 25.6326C69.9656 27.1382 70.4224 28.227 70.7025 28.894C70.9825 29.561 71.3018 29.4482 71.7587 29.4482H76.9611C77.3492 29.4482 77.6636 28.9283 77.3099 28.7175L77.3148 28.7224ZM73.4142 27.918C73.0998 27.918 72.3973 27.1137 72.3973 25.0784C72.3973 23.043 72.9229 21.9248 73.1686 21.9248C73.5567 21.9248 74.2199 23.0479 74.2199 25.044C74.2199 27.0401 73.7286 27.918 73.4142 27.918Z" fill="#929AAB"/>
<path fill-rule="evenodd" clip-rule="evenodd" d="M71.0903 16.2407C70.6973 16.2407 70.3633 16.5448 70.3633 16.9568C70.3633 17.3687 70.6973 17.6728 71.0903 17.6728C71.4833 17.6728 71.8125 17.3687 71.8125 16.9568C71.8125 16.5448 71.4784 16.2407 71.0903 16.2407ZM71.0903 17.5551C70.7612 17.5551 70.5057 17.3001 70.5057 16.9568C70.5057 16.6135 70.7612 16.3633 71.0903 16.3633C71.4195 16.3633 71.67 16.6184 71.67 16.9568C71.67 17.2952 71.4146 17.5551 71.0903 17.5551Z" fill="#929AAB"/>
<path fill-rule="evenodd" clip-rule="evenodd" d="M71.2083 17.0058C71.3311 16.9911 71.4244 16.9273 71.4244 16.7802C71.4244 16.6184 71.3262 16.5448 71.1346 16.5448H70.8202V17.3687H70.943V17.0107H71.0855L71.3016 17.3687H71.4441L71.2083 17.0058ZM70.943 16.9077V16.6527H71.1149C71.2034 16.6527 71.2967 16.6723 71.2967 16.7753C71.2967 16.9028 71.2034 16.9077 71.0953 16.9077H70.9479H70.943Z" fill="#929AAB"/>
</svg>
