<svg width="105" height="45" viewBox="0 0 105 45" fill="none" xmlns="http://www.w3.org/2000/svg">
<g clip-path="url(#clip0_1_1017)">
<mask id="mask0_1_1017" style="mask-type:luminance" maskUnits="userSpaceOnUse" x="-4" y="7" width="111" height="29">
<path d="M106.659 7.53217H-3.63098V35.5908H106.659V7.53217Z" fill="white"/>
</mask>
<g mask="url(#mask0_1_1017)">
<path d="M20.0795 22.5859V22.5554C20.0795 19.5176 22.4033 17.0286 25.5993 17.0286C28.7954 17.0286 31.0894 19.4867 31.0894 22.5253V22.5554C31.0894 25.5933 28.7662 28.0823 25.5698 28.0823C22.3735 28.0823 20.0795 25.624 20.0795 22.5859ZM28.7065 22.5859V22.5554C28.7065 20.7231 27.4049 19.1964 25.5698 19.1964C23.7351 19.1964 22.4624 20.6928 22.4624 22.5253V22.5554C22.4624 24.3878 23.7647 25.9144 25.5993 25.9144C27.4341 25.9144 28.7065 24.4181 28.7065 22.5859ZM33.1867 17.2123H35.6428L38.3654 21.7315L41.0882 17.2123H43.5448V27.8989H41.2808V20.9219L38.3654 25.4869H38.3064L35.4205 20.9681V27.8989H33.1867V17.2123ZM51.4846 26.4959C50.716 27.4209 49.8194 27.9491 48.7248 27.9491C47.2923 27.9491 46.2212 26.988 46.2212 25.618V25.5948C46.2212 24.4654 47.0016 23.6359 48.3288 23.1314C47.7119 22.4225 47.4206 21.9058 47.4206 21.2089V21.1853C47.4206 20.1035 48.2706 19.2747 49.4589 19.2747C50.5184 19.2747 51.3334 20.0919 51.3334 21.1009V21.1245C51.3334 22.17 50.5765 22.8555 49.3304 23.2994L51.4734 25.5707C51.869 24.9935 52.2188 24.2968 52.5328 23.5275L53.0802 23.7558C52.7072 24.6213 52.3115 25.3785 51.869 25.9906L53.3712 27.5892L52.8935 27.9977L51.4846 26.4959ZM51.1004 26.0868L48.6899 23.5161C47.3974 23.9726 46.8269 24.7535 46.8269 25.5705V25.5946C46.8269 26.6157 47.6189 27.4087 48.7365 27.4087C49.6446 27.4087 50.4249 26.9044 51.1004 26.0868ZM50.7279 21.1488V21.1244C50.7279 20.38 50.1692 19.8035 49.435 19.8035C48.6085 19.8035 48.0261 20.404 48.0261 21.1612V21.1851C48.0261 21.7133 48.2473 22.1222 48.9692 22.9153C50.1332 22.5307 50.7279 21.9416 50.7279 21.1488ZM65.2999 22.5859V22.5554C65.2999 19.5176 67.6232 17.0286 70.819 17.0286C74.0153 17.0286 76.3085 19.4867 76.3085 22.5253V22.5554C76.3085 25.5933 73.9855 28.0823 70.7895 28.0823C67.5934 28.0823 65.2999 25.624 65.2999 22.5859ZM73.9264 22.5859V22.5554C73.9264 20.7231 72.6248 19.1964 70.7895 19.1964C68.955 19.1964 67.6822 20.6928 67.6822 22.5253V22.5554C67.6822 24.3878 68.9848 25.9144 70.8191 25.9144C72.6539 25.9144 73.9264 24.4181 73.9264 22.5859ZM77.7543 26.3417L79.101 24.6774C80.0329 25.4717 81.0098 25.9754 82.1932 25.9754C83.1257 25.9754 83.688 25.5933 83.688 24.9676V24.9372C83.688 24.3423 83.3329 24.0362 81.6016 23.5781C79.5153 23.0287 78.1686 22.4334 78.1686 20.3114V20.2806C78.1686 18.3417 79.678 17.0598 81.7938 17.0598C83.3027 17.0598 84.5904 17.5479 85.6411 18.4184L84.4574 20.1891C83.54 19.5327 82.6369 19.1358 81.7644 19.1358C80.8912 19.1358 80.4326 19.5481 80.4326 20.067V20.0975C80.4326 20.7998 80.8764 21.0289 82.6673 21.5019C84.7681 22.0666 85.9518 22.8457 85.9518 24.7083V24.7387C85.9518 26.8604 84.3835 28.0515 82.1491 28.0515C80.5807 28.0517 78.9974 27.4872 77.7543 26.3417ZM88.1966 17.2123H96.0089V19.3041H90.4606V21.4716H95.3435V23.5626H90.4606V25.8072H96.0834V27.8987H88.1966V17.2123ZM15.4802 19.3991V27.8989H13.1822V19.3991H10.0031V17.2123H18.6594V19.3991H15.4802ZM62.432 20.3978C62.432 18.6367 61.0483 17.2091 59.3419 17.2091H55.2767V19.3346H59.3419C59.9103 19.3346 60.372 19.8107 60.372 20.3978C60.372 20.9849 59.9103 21.4603 59.3419 21.4603H55.2767V23.5864H56.6839L60.6651 27.6932L62.0956 26.216L59.5408 23.5789C61.1543 23.4733 62.432 22.0895 62.432 20.3978Z" fill="#929AAB"/>
</g>
</g>
<defs>
<clipPath id="clip0_1_1017">
<rect width="86" height="11" fill="white" transform="translate(10 17)"/>
</clipPath>
</defs>
</svg>
