<svg width="105" height="45" viewBox="0 0 105 45" fill="none" xmlns="http://www.w3.org/2000/svg">
<g clip-path="url(#clip0_1_1033)">
<path d="M9.3027 20.7352H7.51892V24.8863H6.78378V20.7352H5V20.1251H9.3027V20.7352Z" fill="#929AAB"/>
<path d="M14.773 20.06C16.4703 20.06 17.5406 21.1753 17.5406 22.5006C17.5406 23.826 16.5028 24.9463 14.7568 24.9463C13.0109 24.9463 12.0109 23.796 12.0109 22.5006C12.0109 21.2053 13.1028 20.06 14.773 20.06ZM14.773 24.3211C15.9298 24.3211 16.7784 23.5459 16.7784 22.5056C16.7784 21.4654 15.9244 20.6902 14.773 20.6902C13.6217 20.6902 12.773 21.4604 12.773 22.5056C12.773 23.5509 13.6271 24.3211 14.773 24.3211Z" fill="#929AAB"/>
<path d="M25.8109 24.8863H25.0703V21.1753H25.0541L23.4703 23.0208H23.3514L21.7676 21.1753H21.7514V24.8863H21.0109V20.1251H21.7082L23.4109 22.0756L25.1244 20.1251H25.8109V24.8863Z" fill="#929AAB"/>
<path d="M34.7893 24.8863H34.0487V21.1753H34.0325L32.4487 23.0208H32.3298L30.7406 21.1753H30.7298V24.8863H29.9893V20.1251H30.6811L32.3893 22.0756L34.1028 20.1251H34.7893V24.8863Z" fill="#929AAB"/>
<path d="M41.6595 20.1251H42.5514L40.6433 22.3707V24.8863H39.9027V22.3657L37.9946 20.1251H38.8865L40.2649 21.7605L41.6595 20.1251Z" fill="#929AAB"/>
<path d="M62.5567 24.8863H61.8162V22.8108H58.9351V24.8863H58.1946V20.1251H58.9351V22.1956H61.8162V20.1251H62.5567V24.8863Z" fill="#929AAB"/>
<path d="M66.3568 20.1251H65.6162V24.8863H66.3568V20.1251Z" fill="#929AAB"/>
<path d="M70.1297 24.2712H72.454V24.8863H69.3892V20.1251H70.1297V24.2712Z" fill="#929AAB"/>
<path d="M77.3243 20.7352H75.3189V22.0556H77.3243V22.6707H75.3189V24.8863H74.5784V20.1251H77.3243V20.7352Z" fill="#929AAB"/>
<path d="M80.654 20.1251H79.9135V24.8863H80.654V20.1251Z" fill="#929AAB"/>
<path d="M87.6919 24.5562C87.0054 24.8363 86.4487 24.9513 85.7352 24.9513C84.1568 24.9513 82.9946 23.931 82.9946 22.5356C82.9946 21.1403 84.1838 20.06 85.7514 20.06C86.3568 20.06 86.7784 20.15 87.5892 20.4651V21.1553C86.9838 20.8502 86.3568 20.6902 85.7406 20.6902C84.6217 20.6902 83.7568 21.4804 83.7568 22.5106C83.7568 23.5409 84.6163 24.3211 85.8379 24.3211C86.2379 24.3211 86.6 24.2361 86.9568 24.1311V23.1558H85.9676V22.5407H87.6973V24.5562H87.6919Z" fill="#929AAB"/>
<path d="M93.427 20.7352H91.2486V22.1756H93.3513V22.7908H91.2486V24.2712H93.4972V24.8863H90.5081V20.1251H93.427V20.7352Z" fill="#929AAB"/>
<path d="M97.3189 20.1251C98.3622 20.1251 99.0108 20.6352 99.0108 21.4604C99.0108 22.0106 98.7027 22.4207 98.146 22.6257C98.6162 22.9158 98.9027 23.3509 99.2919 23.9461C99.5135 24.2762 99.6379 24.4362 99.9946 24.8913H99.1135L98.4325 23.9111C97.7514 22.9358 97.4433 22.8208 97.0703 22.8208H96.7568V24.8863H96.0162V20.1251H97.3135H97.3189ZM96.7622 22.2056H97.2379C98.0324 22.2056 98.2595 21.8305 98.2487 21.4304C98.2379 20.9853 97.9514 20.7102 97.2379 20.7102H96.7622V22.2056Z" fill="#929AAB"/>
<path d="M54.1351 20H45.9513V25.0013H54.1351V20Z" fill="white"/>
<path d="M54.0053 21.3054H50.0486V23.696H54.0053V21.3054Z" fill="#6B7487"/>
<path d="M50.0487 21.3104H46.0919V23.691H50.0487V21.3104Z" fill="white"/>
<path d="M54.0054 20.1251H46.0919V21.3104H54.0054V20.1251Z" fill="#929AAB"/>
<path d="M54.0054 23.686H46.0919V24.8763H54.0054V23.686Z" fill="#929AAB"/>
</g>
<defs>
<clipPath id="clip0_1_1033">
<rect width="95" height="5" fill="white" transform="translate(5 20)"/>
</clipPath>
</defs>
</svg>
