<svg width="105" height="45" viewBox="0 0 105 45" fill="none" xmlns="http://www.w3.org/2000/svg">
<path d="M43.045 11.9486H33.3116C33.3037 11.9486 33.2961 11.9454 33.2905 11.9397C33.2849 11.9339 33.2817 11.9261 33.2817 11.918V6.38926C33.2817 6.38114 33.2849 6.37335 33.2905 6.36761C33.2961 6.36187 33.3037 6.35864 33.3116 6.35864L58.8895 6.35949C58.8934 6.35949 58.8973 6.36029 58.9009 6.36182C58.9046 6.36336 58.9078 6.36562 58.9106 6.36846C58.9134 6.37131 58.9156 6.37468 58.9171 6.3784C58.9186 6.38211 58.9193 6.38609 58.9193 6.39011L58.9202 11.918C58.9202 11.9261 58.917 11.9339 58.9114 11.9397C58.9058 11.9454 58.8983 11.9486 58.8904 11.9486H49.1743C49.1704 11.9486 49.1665 11.9494 49.1629 11.951C49.1593 11.9525 49.156 11.9547 49.1532 11.9576C49.1505 11.9604 49.1483 11.9638 49.1468 11.9675C49.1453 11.9712 49.1445 11.9752 49.1445 11.9792V37.9558C49.1445 37.9639 49.1414 37.9717 49.1358 37.9774C49.1302 37.9832 49.1226 37.9864 49.1147 37.9864L43.1046 37.9873C43.0967 37.9873 43.0891 37.984 43.0835 37.9783C43.0779 37.9725 43.0748 37.9648 43.0748 37.9566V11.9792C43.0748 11.9752 43.074 11.9712 43.0725 11.9675C43.071 11.9638 43.0688 11.9604 43.0661 11.9576C43.0633 11.9547 43.06 11.9525 43.0564 11.951C43.0528 11.9494 43.0489 11.9486 43.045 11.9486Z" fill="#929AAB"/>
<path d="M70.6396 29.9595C70.2112 33.788 67.8475 36.89 64.1606 37.852C62.0454 38.404 59.6733 38.0774 57.7644 36.9785C55.2342 35.5231 53.7834 32.8813 53.4404 29.9612C53.3957 29.5807 53.3728 29.0143 53.3717 28.2618C53.3678 25.5881 53.3675 22.9145 53.3708 20.2409C53.3708 20.2125 53.3846 20.1983 53.4123 20.1983L58.9434 20.1975C58.971 20.1975 58.9849 20.2117 58.9849 20.24C58.9882 22.9403 58.9871 25.6431 58.9815 28.3485C58.9791 29.4968 59.1804 30.6961 59.9816 31.5339C60.7612 32.3488 62.1117 32.5045 63.1266 32.1523C64.6875 31.6105 65.0943 29.8507 65.0927 28.369C65.0899 26.3763 65.0888 24.384 65.0894 22.392C65.0899 21.995 65.1269 21.6897 65.2004 21.4759C65.3849 20.9417 65.7331 20.5661 66.2451 20.3489C66.5923 20.2017 67.1093 20.1516 67.5451 20.0784C68.7158 19.8828 69.7763 19.2117 70.6537 18.4223C70.6584 18.418 70.6642 18.4152 70.6704 18.4142C70.6767 18.4133 70.683 18.4142 70.6888 18.4169C70.6945 18.4196 70.6993 18.424 70.7027 18.4295C70.706 18.435 70.7077 18.4414 70.7075 18.4479C70.7103 21.7282 70.7095 24.9998 70.705 28.2626C70.7039 29.014 70.6821 29.5796 70.6396 29.9595Z" fill="#929AAB"/>
</svg>
