<svg width="105" height="45" viewBox="0 0 105 45" fill="none" xmlns="http://www.w3.org/2000/svg">
<path d="M67.5466 17.9324C72.7283 15.6544 76.1129 12.23 76.2937 8.43322C76.2937 8.43322 74.9304 7.37734 70.5117 5.75376C66.6353 4.32544 63.6739 4 63.6739 4L63.6883 12.4614C63.6883 13.727 63.1821 15.0179 62.2238 16.1606C59.2913 15.4519 56.0513 15.0541 52.6523 15.0541C49.2496 15.0541 46.0061 15.4519 43.0699 16.1642C42.1117 15.0216 41.6054 13.727 41.6054 12.4614L41.6199 4C41.6199 4 38.6619 4.32906 34.782 5.75376C30.3632 7.37734 29 8.43322 29 8.43322C29.1844 12.2336 32.569 15.658 37.7543 17.9361C32.5726 20.2141 29.188 23.6385 29.0072 27.4353C29.0072 27.4353 30.3741 28.4875 34.7928 30.1111C38.6728 31.5394 41.6307 31.8649 41.6307 31.8649L41.6163 23.4034C41.6163 22.1378 42.1224 20.8469 43.0807 19.7043C46.0133 20.413 49.2533 20.8108 52.6523 20.8108C56.055 20.8108 59.2985 20.413 62.2347 19.7043C63.1929 20.8469 63.6991 22.1378 63.6991 23.4034L63.6847 31.8649C63.6847 31.8649 66.6426 31.5394 70.5225 30.1111C74.9413 28.4875 76.3045 27.4353 76.3045 27.4353C76.1237 23.6349 72.7355 20.2141 67.5502 17.9324H67.5466ZM52.5438 19.8345C49.4738 19.8345 46.9716 19.0823 45.1382 17.9361C46.9716 16.7862 49.4774 16.034 52.551 16.034H52.6451H52.7427C55.8127 16.034 58.3149 16.7862 60.1483 17.9361C58.3149 19.0859 55.8091 19.8381 52.7355 19.8381H52.5366L52.5438 19.8345Z" fill="#929AAB"/>
<path d="M45.3874 38.9884H43.489C43.4456 38.9884 43.2901 39.021 43.2901 38.8474V38.1025L43.5504 38.6087H45.2247C45.3657 38.6087 45.3729 38.5436 45.3332 38.4749L45.0727 37.9579H43.4564C43.2756 37.9579 43.3045 37.8891 43.3045 37.7156C43.3045 37.542 43.4709 37.5673 43.5215 37.5673H45.3476C45.5464 37.5673 45.5176 37.4408 45.5176 37.2202C45.5176 36.9851 45.5428 36.855 45.3476 36.855H43.0333C42.4765 36.855 42.3933 37.2781 42.3933 37.4408V39.0065C42.3933 39.6321 42.7839 39.6935 42.9828 39.6935H45.3837C45.5718 39.6935 45.5573 39.5634 45.5573 39.3355C45.5573 39.1186 45.5754 38.9884 45.3837 38.9884H45.3874Z" fill="#929AAB"/>
<path d="M37.8482 36.8333H37.2842C37.0962 36.8333 37.107 36.9599 37.107 37.043V38.8438C36.8503 38.5148 36.4706 38.0772 36.2645 37.7916C35.9969 37.4083 35.5883 36.8333 35.3026 36.8333H34.2901C34.1166 36.8333 34.1238 36.9599 34.1238 37.043V39.4766C34.1238 39.5562 34.1021 39.6755 34.2901 39.6755H34.8108C35.0025 39.6755 34.9808 39.5562 34.9808 39.4766V37.6578C35.534 38.3412 36.0764 38.9848 36.4561 39.4947C36.6586 39.6936 36.7562 39.6755 36.9768 39.6755H38.0182V37.043C38.0182 36.9599 38.029 36.8333 37.8482 36.8333Z" fill="#929AAB"/>
<path d="M40.8711 36.8369H38.3616V39.6755H39.2475V39.0825L39.5404 39.6755H40.8928C42.1728 39.6755 42.0535 39.0029 42.0535 37.9C42.0535 36.7972 41.0229 36.8369 40.8711 36.8369ZM40.7372 38.927H39.2366V37.5927H40.6685C40.9687 37.5927 41.1567 37.6216 41.1567 38.2906C41.1567 38.4894 41.1928 38.927 40.7336 38.927H40.7372Z" fill="#929AAB"/>
<path d="M33.5957 36.8372H33.0352C32.8544 36.8372 32.8652 36.9638 32.8652 37.0506V38.544C32.8652 38.6525 32.8436 38.9345 32.4567 38.9345H31.5237C31.1332 38.9345 31.1151 38.6489 31.1151 38.544V37.0506C31.1151 36.9638 31.126 36.8372 30.9416 36.8372H30.3883C30.1967 36.8372 30.2039 36.9566 30.2039 37.0506V38.544C30.2039 38.8622 30.222 39.6794 31.2996 39.6794H32.6809C33.7585 39.6794 33.7801 38.8622 33.7801 38.544V37.0506C33.7801 36.9638 33.7982 36.8372 33.5957 36.8372Z" fill="#929AAB"/>
<path d="M49.5024 37.7517C49.5024 36.8368 49.0107 36.8404 48.6708 36.8404H46.1396C46.0312 36.8404 45.9045 36.9091 45.9045 37.0863V39.5886L45.9805 39.6826H46.7254L46.8628 39.5669V38.3881C46.8628 38.3881 47.0653 38.7967 47.1701 38.9775H48.2622C48.3381 38.9775 48.5334 38.963 48.5334 39.3102C48.5334 39.4403 48.4972 39.6826 48.6527 39.6826H49.394C49.4374 39.6826 49.4953 39.6826 49.4953 39.5344C49.4953 39.2342 49.5567 38.6484 49.1011 38.5725C49.3723 38.3881 49.4988 38.3555 49.4988 37.7589L49.5024 37.7517ZM48.0091 38.2181H46.8484V37.7119C46.8484 37.654 46.8375 37.5926 47.0292 37.5926H48.1573C48.5478 37.5926 48.5732 37.6396 48.5732 37.9325C48.5732 38.0807 48.5732 38.2181 48.0127 38.2181H48.0091Z" fill="#929AAB"/>
<path d="M53.8596 36.855H53.0027C53.0027 36.855 51.6647 39.2633 51.4695 39.6321V39.6936H52.4313C52.5615 39.4694 52.9484 38.739 53.0208 38.6233L53.2739 39.1946H54.4382L54.713 39.6936H55.6712V39.5996C55.476 39.2524 54.5575 37.5927 54.4273 37.3215C54.2321 36.9418 54.0513 36.8586 53.8668 36.8586L53.8596 36.855ZM54.0043 38.5365H53.1328L53.0894 38.4931L53.5595 37.6397H53.6029L54.0476 38.4931L54.0043 38.5365Z" fill="#929AAB"/>
<path d="M76.1777 38.5653C76.4489 38.3809 76.5791 38.3483 76.5791 37.7517C76.5791 36.8368 76.0873 36.8404 75.7474 36.8404H73.2162C73.1077 36.8404 72.9812 36.9091 72.9812 37.0863V39.5886L73.0571 39.6826H73.802L73.943 39.5669V38.3881C73.943 38.3881 74.1456 38.7967 74.2504 38.9775H75.3425C75.4184 38.9775 75.6137 38.963 75.6137 39.3102C75.6137 39.4403 75.5774 39.6826 75.7293 39.6826H76.4706C76.514 39.6826 76.5719 39.6826 76.5719 39.5344C76.5719 39.2342 76.6333 38.6484 76.1741 38.5725L76.1777 38.5653ZM75.0856 38.2181H73.9249V37.7119C73.9249 37.654 73.9177 37.5926 74.1057 37.5926H75.2303C75.6209 37.5926 75.6461 37.6396 75.6461 37.9325C75.6461 38.0807 75.6461 38.2181 75.0856 38.2181Z" fill="#929AAB"/>
<path d="M67.7489 36.8224H65.883C64.8343 36.8297 64.8922 37.665 64.8922 38.2001C64.8922 38.7859 64.856 39.6827 65.6949 39.6827H67.9224C68.7758 39.6827 68.7324 38.7859 68.7324 38.2001C68.7324 37.6722 68.8011 36.8224 67.7489 36.8224ZM67.38 38.9523H66.2735C65.8468 38.9523 65.8757 38.5147 65.8757 38.2182C65.8757 37.9506 65.8107 37.5384 66.3603 37.5384H67.3005C67.8537 37.5384 67.7922 37.9506 67.7922 38.2182C67.7922 38.5111 67.8067 38.9523 67.3836 38.9523H67.38Z" fill="#929AAB"/>
<path d="M72.4353 36.837H71.8748C71.694 36.837 71.7049 36.9636 71.7049 37.0504V38.5438C71.7049 38.6523 71.6832 38.9343 71.2963 38.9343H70.3634C69.9729 38.9343 69.9547 38.6487 69.9547 38.5438V37.0504C69.9547 36.9636 69.9656 36.837 69.7848 36.837H69.2279C69.0363 36.837 69.0435 36.9564 69.0435 37.0504V38.5438C69.0435 38.862 69.0652 39.6792 70.1392 39.6792H71.5205C72.6017 39.6792 72.6198 38.862 72.6198 38.5438V37.0504C72.6198 36.9636 72.6378 36.837 72.4353 36.837Z" fill="#929AAB"/>
<path d="M64.5557 37.0468C64.5557 36.96 64.5774 36.8371 64.3966 36.8371H63.5143C63.366 36.8371 63.1816 36.8082 62.9755 37.2276C62.8164 37.5639 62.4729 38.269 62.2415 38.6415C62.0065 38.269 61.6738 37.5675 61.5147 37.2276C61.305 36.8045 61.1168 36.8371 60.9867 36.8371H60.1008C59.9127 36.8371 59.9236 36.96 59.9236 37.0468V39.4804C59.9236 39.5563 59.9091 39.6793 60.1008 39.6793H60.6107C60.7915 39.6793 60.7806 39.5563 60.7806 39.4804V37.7085C61.135 38.3486 61.6557 39.3249 61.8437 39.6756H62.632C62.8308 39.3213 63.3479 38.3486 63.7059 37.7085V39.4804C63.7059 39.5563 63.6914 39.6793 63.8795 39.6793H64.3966C64.581 39.6793 64.5557 39.5563 64.5557 39.4804V37.0468Z" fill="#929AAB"/>
<path d="M59.6344 37.7517C59.6344 36.8368 59.1391 36.8404 58.8028 36.8404H56.2716C56.1631 36.8404 56.0365 36.9091 56.0401 37.0863V39.5886L56.116 39.6826H56.8646L57.0019 39.5669V38.3881C57.0019 38.3881 57.2045 38.7967 57.3093 38.9775H58.405C58.4809 38.9775 58.6726 38.963 58.6726 39.3102C58.6726 39.4403 58.6328 39.6826 58.7883 39.6826H59.5296C59.573 39.6826 59.6308 39.6826 59.6308 39.5344C59.6308 39.2342 59.6923 38.6484 59.2367 38.5725C59.5079 38.3881 59.6344 38.3555 59.6344 37.7589V37.7517ZM58.141 38.2181H56.9803V37.7119C56.9803 37.654 56.9695 37.5926 57.1611 37.5926H58.2893C58.6798 37.5926 58.7015 37.6396 58.7015 37.9325C58.7015 38.0807 58.7015 38.2181 58.141 38.2181Z" fill="#929AAB"/>
</svg>
