<svg width="105" height="45" viewBox="0 0 105 45" fill="none" xmlns="http://www.w3.org/2000/svg">
<path d="M95.1149 18.457C95.1149 18.5765 95.0912 18.6948 95.045 18.8053C94.9989 18.9157 94.9312 19.016 94.8459 19.1005C94.7606 19.185 94.6593 19.252 94.5478 19.2977C94.4364 19.3435 94.3169 19.367 94.1963 19.367C94.0756 19.367 93.9562 19.3435 93.8447 19.2977C93.7332 19.252 93.632 19.185 93.5467 19.1005C93.4614 19.016 93.3937 18.9157 93.3475 18.8053C93.3014 18.6948 93.2776 18.5765 93.2776 18.457C93.2776 18.3375 93.3014 18.2192 93.3475 18.1088C93.3937 17.9984 93.4614 17.898 93.5467 17.8135C93.632 17.729 93.7332 17.662 93.8447 17.6163C93.9562 17.5706 94.0756 17.547 94.1963 17.547C94.4399 17.547 94.6736 17.6429 94.8459 17.8135C95.0182 17.9842 95.1149 18.2157 95.1149 18.457ZM94.955 18.4656C94.955 18.2663 94.8751 18.0751 94.7328 17.9342C94.5905 17.7932 94.3975 17.714 94.1963 17.714C93.995 17.714 93.802 17.7932 93.6598 17.9342C93.5175 18.0751 93.4375 18.2663 93.4375 18.4656C93.4375 18.6649 93.5175 18.8561 93.6598 18.9971C93.802 19.138 93.995 19.2172 94.1963 19.2172C94.3975 19.2172 94.5905 19.138 94.7328 18.9971C94.8751 18.8561 94.955 18.6649 94.955 18.4656Z" fill="#929AAB"/>
<path d="M94.287 18.64C94.1027 18.4312 94.0117 18.4664 94.0142 18.7456L94.0167 18.9556C94.0168 18.9664 94.0128 18.9768 94.0055 18.9849C93.9982 18.993 93.9881 18.9983 93.977 18.9998L93.9436 19.0047C93.9333 19.0061 93.9228 19.0053 93.9128 19.0024C93.9028 18.9995 93.8936 18.9945 93.8858 18.9877C93.8779 18.981 93.8716 18.9727 93.8672 18.9633C93.8629 18.954 93.8606 18.9438 93.8605 18.9335L93.8531 18.0444C93.8522 17.9994 93.8737 17.9703 93.9175 17.9572C94.1469 17.8909 94.5287 17.8847 94.6267 18.1537C94.6738 18.2839 94.6192 18.3928 94.463 18.4804C94.4514 18.4868 94.4414 18.4957 94.4335 18.5063C94.4256 18.5169 94.4201 18.529 94.4173 18.5419C94.4145 18.5548 94.4144 18.5681 94.4172 18.581C94.4199 18.5939 94.4254 18.606 94.4333 18.6167L94.6564 18.9237C94.6854 18.9638 94.675 18.9859 94.6254 18.99L94.5473 18.9961C94.5323 18.9972 94.5172 18.9939 94.504 18.9864C94.4907 18.979 94.48 18.9679 94.4729 18.9544C94.3862 18.7874 94.3242 18.6826 94.287 18.64ZM94.0117 18.1156L94.0043 18.3342C94.004 18.3509 94.0103 18.3671 94.0219 18.3793C94.0335 18.3915 94.0494 18.3987 94.0663 18.3993L94.1866 18.4042C94.2246 18.4055 94.2624 18.4026 94.2978 18.3958C94.3332 18.389 94.3655 18.3784 94.3928 18.3645C94.4201 18.3507 94.4419 18.334 94.4569 18.3153C94.4719 18.2966 94.4799 18.2763 94.4804 18.2556L94.4816 18.2237C94.4826 18.1822 94.4535 18.1415 94.4005 18.1105C94.3476 18.0794 94.2751 18.0605 94.199 18.0579L94.0787 18.053C94.0701 18.0527 94.0616 18.054 94.0535 18.057C94.0455 18.06 94.0382 18.0645 94.0319 18.0704C94.0257 18.0762 94.0207 18.0832 94.0172 18.091C94.0138 18.0987 94.0119 18.1071 94.0117 18.1156Z" fill="#929AAB"/>
<path d="M66.4153 25.3354C64.7714 23.9047 64.8011 20.7265 66.424 19.3118C68.1262 17.8258 71.2555 17.8823 72.9279 19.324C73.7296 20.0167 74.1454 20.977 74.1751 22.2051C74.2198 24.1111 73.3742 25.4693 71.5369 26.0956C69.8818 26.6593 67.7332 26.4837 66.4153 25.3354ZM69.766 25.5905C70.062 25.5813 70.3524 25.4877 70.6207 25.315C70.8889 25.1424 71.1298 24.894 71.3295 24.5842C71.5291 24.2744 71.6838 23.9091 71.7845 23.5093C71.8852 23.1095 71.93 22.683 71.9164 22.254C71.8889 21.3878 71.6251 20.5644 71.1829 19.965C70.7408 19.3656 70.1565 19.0393 69.5587 19.0579C69.2627 19.0671 68.9723 19.1607 68.704 19.3334C68.4357 19.5061 68.1949 19.7544 67.9952 20.0642C67.7955 20.374 67.6409 20.7393 67.5402 21.1391C67.4395 21.5389 67.3947 21.9654 67.4083 22.3944C67.4358 23.2607 67.6996 24.084 68.1418 24.6834C68.5839 25.2828 69.1681 25.6091 69.766 25.5905Z" fill="#929AAB"/>
<path d="M40.4977 26.0625C38.3777 25.236 37.7851 23.1274 38.2785 21.0777C39.0497 17.8761 43.9766 17.4328 46.0668 19.5549C47.2335 20.7388 47.3822 22.8572 46.6979 24.2953C45.6825 26.4321 42.5025 26.8447 40.4977 26.0625ZM42.685 25.6198C43.2828 25.6001 43.8445 25.2372 44.2467 24.6108C44.6489 23.9844 44.8585 23.1458 44.8295 22.2796C44.8152 21.8507 44.7427 21.4279 44.6161 21.0354C44.4896 20.6428 44.3115 20.2882 44.092 19.9918C43.8726 19.6954 43.6161 19.463 43.3371 19.3079C43.0581 19.1527 42.7622 19.0779 42.4662 19.0876C41.8684 19.1072 41.3067 19.4702 40.9045 20.0966C40.5023 20.723 40.2927 21.5615 40.3217 22.4278C40.3361 22.8567 40.4086 23.2795 40.5351 23.672C40.6617 24.0645 40.8397 24.4191 41.0592 24.7155C41.2786 25.012 41.5352 25.2444 41.8141 25.3995C42.0931 25.5547 42.389 25.6295 42.685 25.6198Z" fill="#929AAB"/>
<path d="M30.7704 22.9825V26.1497C30.7704 26.1922 30.7489 26.2135 30.7059 26.2135L28.8016 26.2111C28.7945 26.2111 28.7874 26.2097 28.7808 26.2069C28.7741 26.2042 28.7681 26.2003 28.7631 26.1952C28.758 26.1902 28.754 26.1843 28.7512 26.1777C28.7485 26.1711 28.7471 26.1641 28.7471 26.157L28.7458 18.5295C28.7458 18.5 28.7607 18.4853 28.7905 18.4853C30.5667 18.4861 32.3433 18.4832 34.1203 18.4767C35.3886 18.4718 36.5056 18.9912 36.6594 20.3728C36.7871 21.5247 35.861 22.3377 34.8468 22.6374C34.8387 22.6397 34.8313 22.644 34.8251 22.6498C34.819 22.6556 34.8143 22.6627 34.8116 22.6706C34.8088 22.6786 34.8079 22.687 34.8091 22.6953C34.8103 22.7037 34.8134 22.7116 34.8183 22.7184L37.247 26.1497C37.2513 26.1555 37.2539 26.1624 37.2544 26.1696C37.2549 26.1768 37.2533 26.184 37.2498 26.1905C37.2464 26.1969 37.2412 26.2024 37.2348 26.2062C37.2284 26.2101 37.221 26.2122 37.2136 26.2123L35.2522 26.2135C35.2364 26.2135 35.2209 26.2098 35.2069 26.2027C35.1929 26.1957 35.1808 26.1855 35.1716 26.173L32.8508 22.9714C32.8251 22.937 32.7913 22.9198 32.7491 22.9198H30.8349C30.7919 22.9198 30.7704 22.9407 30.7704 22.9825ZM30.7655 19.6507L30.7729 21.6647C30.7732 21.6753 30.7777 21.6853 30.7853 21.6926C30.7929 21.6999 30.8032 21.704 30.8138 21.704L33.6306 21.6954C33.7751 21.6949 33.9181 21.6692 34.0514 21.6199C34.1847 21.5705 34.3057 21.4984 34.4074 21.4078C34.5092 21.3171 34.5898 21.2096 34.6446 21.0914C34.6993 20.9733 34.7272 20.8468 34.7266 20.7191V20.5668C34.7253 20.3094 34.6084 20.0629 34.4015 19.8817C34.1946 19.7005 33.9146 19.5993 33.6232 19.6004L30.8064 19.609C30.8009 19.609 30.7955 19.61 30.7904 19.6122C30.7854 19.6143 30.7808 19.6174 30.777 19.6213C30.7732 19.6251 30.7702 19.6298 30.7682 19.6348C30.7662 19.6399 30.7653 19.6453 30.7655 19.6507Z" fill="#929AAB"/>
<path d="M76.0336 18.5405C76.0336 18.5229 76.0407 18.5061 76.0532 18.4936C76.0658 18.4812 76.0828 18.4742 76.1006 18.4742L80.8452 18.4914C81.822 18.4948 82.7575 18.8683 83.446 19.5297C84.1344 20.1911 84.5194 21.0863 84.5162 22.0184L84.5137 22.7209C84.5122 23.1825 84.4153 23.6392 84.2288 24.0651C84.0422 24.4909 83.7695 24.8775 83.4263 25.2027C83.0831 25.528 82.6761 25.7855 82.2286 25.9606C81.781 26.1357 81.3017 26.225 80.8179 26.2233L76.0733 26.2061C76.0645 26.2061 76.0558 26.2044 76.0477 26.2011C76.0396 26.1978 76.0322 26.1929 76.026 26.1867C76.0197 26.1806 76.0148 26.1733 76.0114 26.1652C76.0081 26.1572 76.0063 26.1485 76.0063 26.1398L76.0336 18.5405ZM78.0718 19.4419V25.2777C78.0718 25.3038 78.0823 25.3288 78.1009 25.3472C78.1195 25.3656 78.1447 25.376 78.171 25.376H80.2514C80.7794 25.376 81.2859 25.0891 81.6593 24.5785C82.0327 24.0679 82.2425 23.3754 82.2425 22.6533V22.0663C82.2425 21.3442 82.0327 20.6517 81.6593 20.1411C81.2859 19.6305 80.7794 19.3437 80.2514 19.3437H78.171C78.1447 19.3437 78.1195 19.354 78.1009 19.3725C78.0823 19.3909 78.0718 19.4159 78.0718 19.4419Z" fill="#929AAB"/>
<path d="M90.8452 24.4807L87.6143 24.4782C87.6051 24.4782 87.5961 24.4811 87.5885 24.4863C87.581 24.4916 87.5753 24.4991 87.5722 24.5077L86.9573 26.173C86.9542 26.1816 86.9485 26.1891 86.9409 26.1944C86.9334 26.1996 86.9243 26.2025 86.9151 26.2025L85.4199 26.2037C85.4126 26.2038 85.4054 26.2021 85.3989 26.1988C85.3924 26.1955 85.3869 26.1906 85.3827 26.1847C85.3786 26.1787 85.3759 26.1719 85.3751 26.1647C85.3742 26.1575 85.3751 26.1502 85.3778 26.1435L88.2627 18.5111C88.266 18.5027 88.2718 18.4954 88.2794 18.4904C88.2869 18.4853 88.2958 18.4827 88.3049 18.4828L90.6097 18.484C90.6189 18.484 90.6279 18.4868 90.6355 18.4921C90.643 18.4974 90.6487 18.5049 90.6518 18.5135L93.4983 26.1447C93.5007 26.1514 93.5015 26.1586 93.5005 26.1656C93.4995 26.1726 93.4968 26.1793 93.4927 26.185C93.4886 26.1908 93.4831 26.1955 93.4767 26.1988C93.4704 26.202 93.4633 26.2037 93.4562 26.2037H91.5482C91.5389 26.2037 91.5299 26.2009 91.5224 26.1956C91.5148 26.1903 91.5091 26.1828 91.506 26.1742L90.8874 24.5102C90.8843 24.5015 90.8786 24.4941 90.871 24.4888C90.8635 24.4835 90.8544 24.4807 90.8452 24.4807ZM88.016 23.2023C88.0139 23.2085 88.0132 23.2152 88.0142 23.2218C88.0152 23.2284 88.0177 23.2346 88.0216 23.24C88.0254 23.2454 88.0306 23.2498 88.0365 23.2528C88.0424 23.2559 88.049 23.2575 88.0557 23.2575L90.3753 23.2453C90.382 23.2452 90.3886 23.2436 90.3945 23.2406C90.4005 23.2375 90.4056 23.2331 90.4095 23.2277C90.4134 23.2223 90.4159 23.2161 90.4168 23.2095C90.4178 23.203 90.4172 23.1963 90.415 23.19L89.2385 19.943C89.2355 19.9349 89.2301 19.9279 89.223 19.9229C89.2159 19.918 89.2075 19.9153 89.1988 19.9153C89.1901 19.9153 89.1816 19.918 89.1745 19.9229C89.1674 19.9279 89.162 19.9349 89.1591 19.943L88.016 23.2023Z" fill="#929AAB"/>
<path d="M16.7769 18.5147L18.4245 18.5123C18.4314 18.5123 18.4382 18.514 18.4443 18.5172C18.4503 18.5205 18.4555 18.5252 18.4592 18.531C18.4629 18.5368 18.4651 18.5434 18.4655 18.5502C18.466 18.557 18.4647 18.5638 18.4617 18.57L14.8217 26.189C14.8184 26.1959 14.8132 26.2019 14.8066 26.206C14.8 26.2101 14.7923 26.2123 14.7845 26.2123H13.3489C13.3409 26.2122 13.3332 26.2098 13.3266 26.2055C13.32 26.2011 13.3148 26.1949 13.3117 26.1877L9.88368 18.586C9.88103 18.5798 9.87994 18.5731 9.88052 18.5665C9.88111 18.5599 9.88334 18.5535 9.88701 18.5479C9.89069 18.5423 9.89571 18.5377 9.90162 18.5345C9.90752 18.5313 9.91414 18.5295 9.92087 18.5295L12.057 18.5307C12.065 18.5308 12.0727 18.5331 12.0793 18.5375C12.0859 18.5419 12.0911 18.548 12.0942 18.5553L14.3308 23.5732C14.3339 23.5806 14.3391 23.5869 14.3458 23.5914C14.3526 23.5958 14.3605 23.5982 14.3686 23.5982C14.3767 23.5982 14.3846 23.5958 14.3913 23.5914C14.3981 23.5869 14.4033 23.5806 14.4064 23.5732L16.7397 18.5381C16.743 18.5311 16.7482 18.5252 16.7548 18.521C16.7614 18.5169 16.7691 18.5147 16.7769 18.5147Z" fill="#929AAB"/>
<path d="M22.3236 21.5984L25.6041 21.5972C25.6169 21.5972 25.6292 21.6022 25.6383 21.6112C25.6473 21.6202 25.6524 21.6324 25.6524 21.6451L25.6549 22.9125C25.6549 22.9252 25.6498 22.9373 25.6408 22.9463C25.6317 22.9553 25.6194 22.9604 25.6066 22.9604L22.3236 22.9579C22.3108 22.9579 22.2985 22.9629 22.2894 22.9719C22.2804 22.9809 22.2753 22.9931 22.2753 23.0058L22.2716 25.053C22.2716 25.0657 22.2767 25.0779 22.2857 25.0869C22.2948 25.0958 22.3071 25.1009 22.3199 25.1009L26.6455 25.0997C26.6583 25.0997 26.6706 25.1047 26.6797 25.1137C26.6888 25.1227 26.6939 25.1348 26.6939 25.1475L26.7063 26.1632C26.7063 26.1759 26.7012 26.188 26.6921 26.197C26.683 26.206 26.6707 26.2111 26.6579 26.2111L20.221 26.2123C20.2146 26.2123 20.2083 26.211 20.2025 26.2086C20.1966 26.2062 20.1913 26.2027 20.1868 26.1983C20.1823 26.1938 20.1787 26.1885 20.1763 26.1827C20.1739 26.1769 20.1726 26.1707 20.1726 26.1644V18.5602C20.1726 18.5475 20.1777 18.5353 20.1868 18.5263C20.1958 18.5173 20.2081 18.5123 20.221 18.5123H26.6703C26.6767 18.5123 26.6829 18.5135 26.6888 18.5159C26.6947 18.5183 26.7 18.5219 26.7045 18.5263C26.709 18.5308 26.7125 18.536 26.715 18.5418C26.7174 18.5477 26.7187 18.5539 26.7187 18.5602L26.7249 19.5561C26.7249 19.5688 26.7198 19.581 26.7107 19.59C26.7016 19.599 26.6893 19.604 26.6765 19.604L22.3199 19.6053C22.3071 19.6053 22.2948 19.6103 22.2857 19.6193C22.2767 19.6283 22.2716 19.6405 22.2716 19.6532L22.2753 21.5505C22.2753 21.5632 22.2804 21.5754 22.2894 21.5844C22.2985 21.5934 22.3108 21.5984 22.3236 21.5984Z" fill="#929AAB"/>
<path d="M58.332 26.2123L56.848 26.216C56.839 26.2162 56.8302 26.2136 56.8229 26.2085C56.8155 26.2034 56.81 26.1961 56.8071 26.1877L54.878 20.449C54.8751 20.4405 54.8695 20.4332 54.8621 20.4281C54.8547 20.423 54.8458 20.4204 54.8368 20.4206C54.8278 20.4209 54.8191 20.4241 54.812 20.4296C54.8049 20.4351 54.7998 20.4428 54.7974 20.4514L53.2142 26.1791C53.2118 26.188 53.2064 26.1958 53.199 26.2014C53.1916 26.2069 53.1826 26.2099 53.1733 26.2098L51.4426 26.216C51.4361 26.216 51.4296 26.2146 51.4238 26.2117C51.4179 26.2089 51.4128 26.2048 51.4089 26.1996C51.4049 26.1945 51.4022 26.1886 51.4009 26.1822C51.3997 26.1759 51.3999 26.1694 51.4017 26.1632L53.544 18.5454C53.5464 18.5366 53.5518 18.5288 53.5592 18.5232C53.5666 18.5177 53.5756 18.5147 53.5849 18.5147H56.2492C56.2583 18.5146 56.2672 18.5174 56.2746 18.5227C56.282 18.528 56.2874 18.5356 56.2901 18.5442L57.7121 22.9874C57.7149 22.9955 57.7202 23.0026 57.7272 23.0077C57.7343 23.0127 57.7427 23.0155 57.7514 23.0156C57.7601 23.0158 57.7686 23.0133 57.7758 23.0084C57.7829 23.0036 57.7884 22.9967 57.7915 22.9886L59.4516 18.5565C59.4546 18.5485 59.46 18.5417 59.4671 18.5368C59.4742 18.532 59.4826 18.5294 59.4912 18.5295L61.9596 18.5307C61.9685 18.5308 61.9772 18.5338 61.9843 18.5391C61.9914 18.5444 61.9967 18.5517 61.9993 18.5602L64.407 26.157C64.4089 26.1632 64.4093 26.1698 64.4083 26.1762C64.4072 26.1826 64.4046 26.1886 64.4008 26.1939C64.3969 26.1991 64.3919 26.2034 64.3861 26.2064C64.3803 26.2094 64.3738 26.211 64.3673 26.2111L62.5981 26.2123C62.589 26.2124 62.5801 26.2096 62.5727 26.2043C62.5653 26.199 62.5599 26.1915 62.5572 26.1828L60.7161 20.433C60.7135 20.4248 60.7083 20.4176 60.7014 20.4124C60.6944 20.4073 60.686 20.4043 60.6773 20.4041C60.6686 20.4038 60.6601 20.4062 60.6528 20.4109C60.6456 20.4157 60.64 20.4225 60.6368 20.4305L58.3705 26.1853C58.3675 26.1931 58.3623 26.1998 58.3554 26.2046C58.3486 26.2094 58.3404 26.2121 58.332 26.2123Z" fill="#929AAB"/>
</svg>
