<svg width="105" height="45" viewBox="0 0 105 45" fill="none" xmlns="http://www.w3.org/2000/svg">
<path d="M53.423 21.0338C51.7467 20.7065 50.227 20.0987 50.2113 18.6649C50.2113 18.6338 50.2113 18.587 50.2113 18.5558C50.3053 17.4338 51.6057 16.8104 52.8277 16.8104C54.0027 16.8104 54.88 17.3091 55.679 18.2286L56.901 17.2623C55.068 16.0312 54.1907 16 52.8277 16C52.06 16 50.9163 16.187 49.992 16.7325C49.0677 17.2623 48.347 18.1195 48.347 19.4909C48.347 19.5221 48.347 19.5221 48.347 19.5532C48.3627 22.0312 51.261 22.4519 52.2323 22.6545C53.3603 22.8883 55.5537 23.387 55.585 25.2727C55.5693 26.5351 54.1593 27.2052 53.0157 27.2052C53.0157 27.2052 53.0157 27.2052 53 27.2052C52.013 27.2052 50.462 27.0026 49.3967 25.5221L48.0493 26.5351C49.146 27.4234 50.3993 27.9844 53.0157 28C55.7103 27.9844 57.7313 26.6442 57.7313 24.2286C57.747 22.0468 55.4597 21.4078 53.423 21.0338ZM21.2437 27.6727H28.936V26.9558H23.531V22.3117V22.187H27.8707V21.5013L23.531 21.5325V16.9195H28.936V16.2026H21.2437V27.6727ZM82.4377 16.3584C83.1427 16.3584 83.8633 16.5922 84.396 17.0753C84.8973 17.5429 85.2577 18.2286 85.289 19.1636H87.263C87.1847 17.4649 86.1193 16.0312 82.4533 16.0156C78.6777 16.0467 76.5157 17.6364 76.5 21.9844C76.5157 26.3013 78.7247 27.9532 82.2653 27.9532C84.8973 27.9532 86.135 27.3455 86.7773 26.4727C87.122 25.9896 87.216 25.6312 87.2317 25.1325H85.6963C85.6023 26.4416 84.4587 27.4857 82.939 27.5013C82.0303 27.5013 80.9963 27.361 80.213 26.5974C79.414 25.8338 78.897 24.4623 78.897 22.0935C78.897 19.5377 79.414 18.1039 80.1347 17.3091C80.8397 16.4987 81.7483 16.374 82.4377 16.3584ZM11.8593 26.1299L11.734 26.5662L8.31867 16.2026H6L10.1517 27.6883H12.2667L16.575 16.2026H15.447L11.8593 26.1299ZM40.7173 22.5766L40.6233 22.4208L40.7957 22.3584C41.8767 21.9688 43.3493 21.1273 43.3493 19.2571C43.3493 17.4026 41.9393 16.2026 38.195 16.187H33.8083V27.6727H36.0957V22.639H38.43L41.5477 27.6727H43.882L40.7173 22.5766ZM37.6623 22.1403H36.0957V16.7481H37.9757C39.8087 16.7481 41.0307 17.9013 41.0307 19.3039C40.9993 20.6909 39.7773 22.1403 37.6623 22.1403ZM66.2697 16.187L60.9273 27.6727H61.9457L63.81 23.7455L63.857 23.6519H69.5283L71.189 27.6727H73.351L68.4317 16.187H66.2697ZM64.139 22.9974L66.7083 17.5429L66.8493 17.2312L69.2463 22.9974H64.139ZM100 16.8883V16.2026H92.3077V27.6883H100V26.9558H94.595V22.3117V22.187H98.9033V21.5013L94.595 21.5325V16.9195H100V16.8883Z" fill="#929AAB"/>
</svg>
