<svg width="105" height="45" viewBox="0 0 105 45" fill="none" xmlns="http://www.w3.org/2000/svg">
<path d="M23.9135 9.13629H27.9013L21.7972 23.8167H18.1419L10.7576 9.13629H14.873L20.0082 20.2589H20.0588L23.9135 9.13629Z" fill="#929AAB"/>
<path d="M43.1766 23.8167H39.3479V9.13629H43.1766V23.8167Z" fill="#929AAB"/>
<path d="M61.8079 21.1554H70.6687V23.8145H57.98V9.13629H61.8079V21.1554Z" fill="#929AAB"/>
<path d="M87.6407 12.1837H87.6913L90.1765 18.5237H85.2715L87.6407 12.1837ZM84.2487 21.0536H91.2507L92.3307 23.8167H96.4986L89.9162 9.13629H85.4924L79.0618 23.8167H83.1017L84.2487 21.0536Z" fill="#929AAB"/>
<path d="M29.5368 31.4833C29.4338 31.3573 29.3044 31.2554 29.1578 31.1849C29.0111 31.1143 28.8508 31.0768 28.6881 31.075C27.9669 31.075 27.5525 31.7376 27.5525 32.4016C27.5525 33.0484 27.9825 33.6965 28.6828 33.6965C28.8457 33.6914 29.0057 33.6524 29.1527 33.5822C29.2997 33.5119 29.4305 33.4118 29.5368 33.2883V34.1817C29.2664 34.3235 28.9675 34.4022 28.6624 34.4119C27.5786 34.4119 26.7789 33.4776 26.7789 32.4162C26.7789 31.3253 27.5473 30.3594 28.6773 30.3594C28.9781 30.3614 29.2736 30.4387 29.5368 30.5844V31.4833Z" fill="#929AAB"/>
<path d="M36.0511 33.6557H37.3811V34.3118H35.3027V30.4597H36.0511L36.0511 33.6557Z" fill="#929AAB"/>
<path d="M52.5749 34.3118H51.8251V31.1162H50.9154V30.46H53.4847V31.1161H52.5749V34.3118Z" fill="#929AAB"/>
<path d="M61.2902 31.9748V30.4597H62.0386V34.3118H61.2902V32.589H59.8917V34.3118H59.1433V30.4597H59.8917V31.9748H61.2902Z" fill="#929AAB"/>
<path d="M68.9549 31.1162V31.9582H70.1503V32.6135H68.9549V33.6557H70.1971V34.3118H68.2051V30.46H70.1971V31.1161L68.9549 31.1162Z" fill="#929AAB"/>
<path d="M78.4006 31.3084C78.3381 31.2116 78.2525 31.132 78.1514 31.0767C78.0503 31.0215 77.9371 30.9924 77.8219 30.9921C77.7022 30.9885 77.5858 31.0318 77.4974 31.1127C77.4091 31.1936 77.3558 31.3058 77.3488 31.4254C77.3488 32.0733 78.8797 31.8034 78.8797 33.0944C78.8797 33.8645 78.4006 34.4112 77.6106 34.4112C77.078 34.4112 76.6912 34.1049 76.4264 33.6601L76.9107 33.1857C76.9562 33.3385 77.0469 33.474 77.1709 33.5742C77.295 33.6744 77.4465 33.7346 77.6055 33.747C77.6754 33.7451 77.7443 33.7291 77.8079 33.6998C77.8715 33.6705 77.9284 33.6286 77.9753 33.5765C78.0221 33.5245 78.0579 33.4635 78.0804 33.3972C78.1029 33.3309 78.1116 33.2607 78.1061 33.1909C78.1061 32.7929 77.7349 32.6806 77.4307 32.5627C76.936 32.3595 76.5745 32.1089 76.5745 31.5128C76.57 31.3625 76.5957 31.213 76.6502 31.0729C76.7047 30.9329 76.7869 30.8052 76.8918 30.6976C76.9966 30.59 77.1221 30.5046 77.2607 30.4465C77.3993 30.3884 77.5482 30.3587 77.6984 30.3594C78.0905 30.3666 78.466 30.5193 78.7518 30.7878L78.4006 31.3084Z" fill="#929AAB"/>
<path d="M44.0819 34.4119C45.2081 34.4119 45.9877 33.4825 45.9877 32.3804C45.9877 31.3045 45.2081 30.3594 44.0819 30.3594C42.955 30.3594 42.1761 31.3044 42.1761 32.3804C42.1761 33.4825 42.955 34.4119 44.0819 34.4119ZM45.2408 32.3858C45.2416 32.3979 45.2423 32.4103 45.2423 32.4224C45.2473 32.7129 45.1528 32.9963 44.9745 33.2256C44.7961 33.455 44.5447 33.6164 44.2619 33.683C44.2029 33.697 44.1425 33.7043 44.0819 33.7048C44.0213 33.7045 43.9609 33.6972 43.9019 33.683C43.6189 33.6166 43.3672 33.4553 43.1886 33.226C43.0099 32.9966 42.9152 32.7131 42.92 32.4224C42.92 32.4103 42.9215 32.3979 42.9222 32.3858C42.9215 32.3739 42.92 32.3607 42.92 32.3496C42.9152 32.0588 43.0099 31.7752 43.1885 31.5457C43.3671 31.3162 43.6189 31.1547 43.9019 31.088C43.961 31.0747 44.0213 31.0676 44.0819 31.0668C44.1425 31.0678 44.2028 31.0749 44.2619 31.088C44.5447 31.1549 44.7962 31.3165 44.9745 31.546C45.1528 31.7755 45.2473 32.059 45.2423 32.3496C45.2423 32.3607 45.2416 32.3739 45.2408 32.3858Z" fill="#929AAB"/>
</svg>
