<svg width="105" height="45" viewBox="0 0 105 45" fill="none" xmlns="http://www.w3.org/2000/svg">
<g clip-path="url(#clip0_1_1003)">
<path d="M61.65 22.1221H63.5732L62.8572 19.4408L61.65 22.1221ZM58.6619 26.6599C58.7583 26.5632 58.9648 26.2637 59.0658 26.0887L63.5227 17.2986L65.5561 25.9459C65.5561 25.9459 65.7994 26.577 65.9142 26.6599H64.8493C64.7758 26.4112 63.6972 22.5828 63.6972 22.5828H61.4251C61.4251 22.5828 59.6258 26.5494 59.5753 26.6599H58.6573H58.6619ZM67.5069 24.1538C67.5207 27.2312 71.1652 27.3326 71.1744 23.9787V17.81H72.1934C71.9409 18.0127 71.8491 18.9387 71.7986 19.6942C71.7803 19.9522 71.6013 23.8036 71.5783 24.1814C71.3029 28.3092 66.7404 27.7149 66.5292 24.5361C66.5063 24.1906 66.4282 18.888 66.4053 18.7037C66.3824 18.2707 66.2814 17.9113 66.0978 17.81H67.4931L67.5069 24.1538ZM73.1114 17.833C80.8043 16.7043 78.8949 22.0023 76.228 22.5137C76.228 22.5137 79.4548 26.4849 79.5788 26.6599C79.5788 26.6323 79.487 18.7175 79.487 18.7175C79.4686 18.0772 79.1932 17.8146 79.1932 17.8146H83.8016V18.7175C83.8016 18.7175 82.824 18.2338 80.6666 18.22L80.5794 22.0852H83.8016V22.6196H80.5794V26.1394C80.5794 26.4204 80.8135 26.3974 80.9879 26.3974C83.0902 26.3974 84.4029 25.9274 84.4029 25.9274L84.0311 26.7659C84.0311 26.7659 79.9873 26.7705 79.7119 26.7659C79.8404 26.9824 80.9191 28.1388 81.6214 28.5718C81.2771 28.4336 79.8266 27.913 79.2988 27.3326C79.129 27.1437 75.2504 23.0389 74.9658 22.7026C78.9178 21.9747 77.5821 17.3262 74.6032 18.1094L74.1809 26.6599H72.9829C73.0747 26.531 73.1481 26.2453 73.1802 25.9505L73.3914 18.782C73.3868 18.2753 73.2629 18.0173 73.1206 17.8376M42.257 26.6738L42.1147 18.5563C42.1147 18.2661 41.9448 17.9436 41.7796 17.7731H43.2209L43.1291 26.1578C43.1153 26.273 43.2714 26.6415 43.3402 26.6738C43.3219 26.6738 42.257 26.6738 42.257 26.6738ZM44.3041 17.7731H45.8418L51.4555 25.5451V17.7731H58.2717L58.8409 15.1748C58.9005 14.8246 58.9005 14.6127 58.7399 14.41H60.3372L56.9498 28.6686C56.8671 28.9957 56.8901 29.2813 57.4363 29.2905C59.1163 29.3136 62.5818 29.0095 63.9634 28.535L63.3208 29.6637H55.5544C55.6783 29.5024 55.7885 29.203 55.8986 28.7976L58.0973 18.5655C57.2665 18.2568 56.2475 18.2384 55.3065 18.2384L55.0357 25.9873C55.0357 26.2776 55.0816 26.4895 55.1321 26.6784H53.9479C54.0351 26.4526 54.058 26.2684 54.0718 25.9505L54.0121 18.2384H52.5433C52.0613 18.2522 52.1623 18.6853 52.1486 18.8696L51.7676 27.3971L45.3461 19.146V26.6738C45.3461 26.6738 44.4877 26.6738 44.5015 26.6738C44.5795 26.5494 44.7035 26.1624 44.7172 25.8537L44.9559 18.6024L44.3133 17.7731M97.9987 17.8606V18.4964C97.145 18.2384 96.5483 18.2384 95.5889 18.2384L95.3043 26.1578C95.2952 26.4388 95.3227 26.5494 95.3778 26.7567H94.244C94.3083 26.5448 94.345 26.4618 94.3634 26.1532L94.3129 18.2384H92.711C92.2106 18.2384 92.2106 18.7544 92.2106 18.9433C92.2106 18.9433 91.9031 27.1713 91.8939 27.48C91.7838 27.3187 85.4724 19.2289 85.4724 19.2289V26.7567C85.4724 26.7567 84.8895 26.7567 84.7105 26.7567C84.8206 26.5125 84.8298 26.2637 84.8436 25.9367C84.8436 25.9367 85.0869 18.911 85.0869 18.6899C85.018 18.5931 84.5269 17.9574 84.4443 17.8606H85.9819L91.5956 25.6326V17.8606H97.9987ZM37.4466 22.0806H39.278L38.6216 19.5468L37.4466 22.0806ZM37.2171 22.6381L34.9037 27.5721C33.3431 30.7832 29.6343 30.5851 27.1373 28.3046L27.532 27.0377C30.8461 32.4187 36.4 28.1895 33.4578 24.444L29.1432 19.3164C26.2009 15.9073 24.4292 19.5191 26.0632 20.8321L28.4868 22.6703C30.2677 23.9372 29.671 26.6369 27.3668 26.8765C26.3019 26.987 25.0855 26.5171 24.3557 26.015L24.1583 26.6968H19.4352C19.5178 26.5448 19.6096 26.2591 19.6096 26.038L19.5958 18.1785C19.5958 18.0357 19.5086 18.0265 19.4535 18.1463L15.2949 27.0884L13.4589 18.9801C13.3992 18.782 13.2753 18.9663 13.2753 18.9663C12.9678 19.3948 11.6091 21.3067 11.3658 21.6337C11.1868 21.8779 11.1134 22.0392 10.9757 22.4354C10.9068 22.6335 9.41506 28.6502 9.3508 28.8851C9.29113 29.097 9.37375 29.5347 9.48391 29.6407H8.0105C8.06099 29.5992 8.29967 29.3182 8.35934 29.097L9.52981 23.0251C9.79144 21.8272 9.45637 20.6156 9.45637 20.6156C8.73114 16.3726 8.57508 14.5436 8.1941 14.2534H9.41965C9.45637 14.4791 10.8655 21.1684 10.9527 21.4909C10.8655 21.6291 15.6392 14.3133 15.6392 14.3133H16.8739C16.8739 14.3133 16.2543 14.8984 16.1441 15.0504C16.0477 15.1794 14.5605 17.2157 14.3769 17.469L15.7998 25.1535L18.8798 17.7547H23.9977V18.5931C23.4377 18.3121 21.4915 17.9712 20.7204 18.0726L20.6469 21.8042C20.6469 22.0069 20.6469 22.0253 20.8305 22.0253H24.0023V22.5367H20.6056L20.5001 26.144C20.5001 26.3927 20.6791 26.4158 20.8351 26.425C22.1617 26.4757 23.4148 26.3006 24.3374 25.8952L24.5577 25.089C25.5767 26.3421 26.4029 26.7889 27.4816 26.4711C28.5189 26.167 29.5104 24.7481 27.6055 23.4166L25.7511 22.1037C23.1853 20.1595 25.3564 15.9534 28.9917 18.0587C28.9779 14.3962 33.6276 12.5672 36.905 15.3637L36.5837 16.5661C33.6873 11.8439 28.3812 15.7276 30.8323 19.0953L34.307 23.6516C35.0873 24.6329 35.2204 25.3424 35.2204 25.3424L39.3102 17.4921L41.3435 26.0288C41.417 26.296 41.5639 26.5724 41.6694 26.6784H40.499L39.4157 22.6427H37.2079L37.2171 22.6381Z" fill="#929AAB"/>
</g>
<defs>
<clipPath id="clip0_1_1003">
<rect width="90" height="16" fill="white" transform="translate(8 14)"/>
</clipPath>
</defs>
</svg>
