<svg width="105" height="45" viewBox="0 0 105 45" fill="none" xmlns="http://www.w3.org/2000/svg">
<path fill-rule="evenodd" clip-rule="evenodd" d="M39.8857 14.2245C40.1642 14.2361 39.9494 13.7377 40.546 15.3887C41.2501 17.3317 44.5237 26.0577 44.5435 26.5951L35.4865 26.6184C35.4347 26.0266 38.1515 18.8815 38.7083 17.3784C39.0385 16.4868 39.4561 15.0071 39.8857 14.2245ZM73.0473 14.0804C73.286 14.3802 77.4625 25.7384 77.5898 26.5639L70.1675 26.5717C68.9702 23.663 68.5327 26.5289 70.6766 20.4117C70.971 19.5668 72.7052 14.5321 73.0473 14.0804ZM55.4701 21.5565L55.4144 8.38765C61.1263 7.71402 64.3522 9.53633 64.4596 14.937C64.5033 17.2149 64.3641 19.816 62.6498 20.8984C61.2536 21.7823 57.447 21.7045 55.4661 21.5565H55.4701ZM70.9511 37.9961H72.8206C73.5485 37.6379 74.344 37.7897 75.4617 36.828C75.5134 36.7812 75.7521 36.5515 75.776 36.497C75.9828 36.0453 75.9311 36.3685 75.7362 36.1232C75.7004 36.0882 75.7243 35.8039 75.1435 36.2556C74.9884 36.3763 74.8054 36.5476 74.5548 36.6956C74.1213 36.9526 73.5604 37.155 72.9319 37.1122C70.0243 36.9097 70.971 31.0496 70.78 28.9664C70.7283 28.4174 70.4976 27.7126 70.5215 27.2142H77.8722C78.1586 27.7282 81.1696 35.9558 81.2611 36.5982C80.4139 36.6761 78.7234 36.4074 78.083 36.7384L78.0631 37.1161C78.4927 37.4003 89.0812 37.3381 90 37.2329V36.6528L86.2928 36.6216L75.5254 7.03262C74.7656 6.95474 74.8532 6.97419 74.6503 7.57384L73.453 10.9147C72.8922 12.4722 72.3989 13.8039 71.8262 15.3848C71.3648 16.6659 69.01 23.5929 68.5486 24.1614C66.9695 23.3048 66.9217 22.6857 64.1493 22.0276L63.4135 21.7434C65.6131 20.7933 68.0713 20.1197 69.1452 17.0436C70.2789 13.8 68.29 11.0277 66.5319 9.73102C63.0475 7.1689 57.443 7.70234 52.5863 7.70234C51.6874 7.70234 50.7845 7.70234 49.8855 7.70234L47.9404 7.69067C47.1688 7.79191 47.5944 7.60109 47.4154 8.00994C47.4074 8.52392 47.9802 8.34092 48.9826 8.33313C49.5514 8.33313 50.1321 8.30979 50.7009 8.34872C50.8879 9.12748 50.7646 24.4262 50.7646 26.9066C50.7646 27.6269 50.9634 29.0365 50.6532 29.5193L42.4513 7.02482L41.9024 7.00536C41.2739 7.66341 31.5048 36.1465 31.0037 36.5242C30.1882 36.8786 23.3348 36.6138 21.7795 36.6333C21.8988 35.9869 25.2361 30.4032 25.8606 29.3519C27.571 26.4666 38.2111 8.02163 38.243 7.69844L17.6348 7.69067C17.4558 8.53173 17.595 14.1972 17.5672 15.9533C17.5553 16.8216 17.5115 16.9501 17.8337 17.0007C18.4184 16.88 18.2155 16.7009 18.2593 15.9689C18.4184 13.4652 19.6594 10.9108 21.8153 9.50907C24.4286 7.81137 28.8597 8.40323 32.4475 8.34483C32.2248 9.50128 16.2466 36.2322 16 37.2563L38.9311 37.268L38.9629 29.679C38.8834 29.2974 39.0106 29.4298 38.6885 29.2506C37.9287 29.1416 38.6009 29.932 37.9208 31.9568C37.0974 34.4099 34.6114 36.1738 31.8549 36.4814C31.9106 35.948 34.9057 27.6775 35.1643 27.2414L44.822 27.2142C45.1243 27.7126 48.1035 35.9869 48.199 36.606C45.7766 36.7968 45.0248 36.1544 45.0646 37.194C45.6613 37.342 55.3906 37.3225 57.622 37.2758C57.6857 37.2758 57.9402 37.2641 57.9919 37.2563C58.0317 37.2485 58.0635 37.2407 58.1033 37.2329C58.1391 37.2251 58.1749 37.2095 58.2067 37.2018L58.3977 36.7384C57.6737 36.3919 56.3253 36.6839 55.4502 36.5982L55.4264 22.2652C56.7628 22.0899 60.4859 22.1756 61.7389 22.4871C66.6393 23.7059 65.4659 27.4517 65.7364 31.5986C65.7921 32.4163 65.2631 33.4442 65.0045 34.149C63.668 37.8248 64.5312 36.2906 61.3928 36.6683V37.2836L67.049 37.2952L67.1206 36.6567L64.8414 36.6216L65.9313 33.4793C66.2893 33.8492 66.4444 34.589 66.6791 35.0446C68.0235 37.6535 70.1317 37.6067 70.9551 38L70.9511 37.9961Z" fill="#929AAB"/>
</svg>
